G04 Layer_Color=32896*
%FSLAX44Y44*%
%MOMM*%
G71*
G01*
G75*
%ADD32C,0.2540*%
D32*
X586500Y319500D02*
X616500D01*
X586500Y353500D02*
X616500D01*
X901500Y319500D02*
X931500D01*
X901500Y353500D02*
X931500D01*
X1216500Y319500D02*
X1246500D01*
X1216500Y353500D02*
X1246500D01*
X1531500Y319500D02*
X1561500D01*
X1531500Y353500D02*
X1561500D01*
X1846500Y319500D02*
X1876500D01*
X1846500Y353500D02*
X1876500D01*
X2161500Y319500D02*
X2191500D01*
X2161500Y353500D02*
X2191500D01*
X481500Y319500D02*
X511500D01*
X481500Y353500D02*
X511500D01*
X796500Y319500D02*
X826500D01*
X796500Y353500D02*
X826500D01*
X1111500Y319500D02*
X1141500D01*
X1111500Y353500D02*
X1141500D01*
X1426500Y319500D02*
X1456500D01*
X1426500Y353500D02*
X1456500D01*
X1741500Y319500D02*
X1771500D01*
X1741500Y353500D02*
X1771500D01*
X2056500Y319500D02*
X2086500D01*
X2056500Y353500D02*
X2086500D01*
X376500Y319500D02*
X406500D01*
X376500Y353500D02*
X406500D01*
X691500Y319500D02*
X721500D01*
X691500Y353500D02*
X721500D01*
X1006500Y319500D02*
X1036500D01*
X1006500Y353500D02*
X1036500D01*
X1321500Y319500D02*
X1351500D01*
X1321500Y353500D02*
X1351500D01*
X1636500Y319500D02*
X1666500D01*
X1636500Y353500D02*
X1666500D01*
X1951500Y319500D02*
X1981500D01*
X1951500Y353500D02*
X1981500D01*
X314000Y375000D02*
X321000D01*
X339000D02*
X346000D01*
X330000Y359000D02*
Y366000D01*
Y384000D02*
Y391000D01*
X2240000Y264000D02*
Y271000D01*
X2249000Y280000D02*
X2256000D01*
X2224000D02*
X2231000D01*
X2240000Y289000D02*
Y296000D01*
X2005213Y382874D02*
Y376209D01*
X2001881Y372877D01*
X1998549Y376209D01*
Y382874D01*
X1995217D02*
Y372877D01*
X1990218D01*
X1988552Y374543D01*
Y381208D01*
X1990218Y382874D01*
X1995217D01*
X1978555Y372877D02*
X1985220D01*
X1978555Y379542D01*
Y381208D01*
X1980221Y382874D01*
X1983554D01*
X1985220Y381208D01*
X1975223D02*
X1973557Y382874D01*
X1970225D01*
X1968559Y381208D01*
Y374543D01*
X1970225Y372877D01*
X1973557D01*
X1975223Y374543D01*
Y381208D01*
X1690128Y382874D02*
Y376209D01*
X1686795Y372877D01*
X1683463Y376209D01*
Y382874D01*
X1680131D02*
Y372877D01*
X1675132D01*
X1673466Y374543D01*
Y381208D01*
X1675132Y382874D01*
X1680131D01*
X1670134Y372877D02*
X1666802D01*
X1668468D01*
Y382874D01*
X1670134Y381208D01*
X1661803Y374543D02*
X1660137Y372877D01*
X1656805D01*
X1655139Y374543D01*
Y381208D01*
X1656805Y382874D01*
X1660137D01*
X1661803Y381208D01*
Y379542D01*
X1660137Y377875D01*
X1655139D01*
X1375296Y382874D02*
Y376209D01*
X1371963Y372877D01*
X1368631Y376209D01*
Y382874D01*
X1365299D02*
Y372877D01*
X1360300D01*
X1358634Y374543D01*
Y381208D01*
X1360300Y382874D01*
X1365299D01*
X1355302Y372877D02*
X1351970D01*
X1353636D01*
Y382874D01*
X1355302Y381208D01*
X1346971D02*
X1345305Y382874D01*
X1341973D01*
X1340307Y381208D01*
Y379542D01*
X1341973Y377875D01*
X1340307Y376209D01*
Y374543D01*
X1341973Y372877D01*
X1345305D01*
X1346971Y374543D01*
Y376209D01*
X1345305Y377875D01*
X1346971Y379542D01*
Y381208D01*
X1345305Y377875D02*
X1341973D01*
X1060210Y382874D02*
Y376209D01*
X1056878Y372877D01*
X1053545Y376209D01*
Y382874D01*
X1050213D02*
Y372877D01*
X1045215D01*
X1043549Y374543D01*
Y381208D01*
X1045215Y382874D01*
X1050213D01*
X1040216Y372877D02*
X1036884D01*
X1038550D01*
Y382874D01*
X1040216Y381208D01*
X1031886Y382874D02*
X1025221D01*
Y381208D01*
X1031886Y374543D01*
Y372877D01*
X745124Y382874D02*
Y376209D01*
X741792Y372877D01*
X738459Y376209D01*
Y382874D01*
X735127D02*
Y372877D01*
X730129D01*
X728463Y374543D01*
Y381208D01*
X730129Y382874D01*
X735127D01*
X725130Y372877D02*
X721798D01*
X723464D01*
Y382874D01*
X725130Y381208D01*
X710135Y382874D02*
X713467Y381208D01*
X716800Y377875D01*
Y374543D01*
X715134Y372877D01*
X711801D01*
X710135Y374543D01*
Y376209D01*
X711801Y377875D01*
X716800D01*
X430292Y382874D02*
Y376209D01*
X426960Y372877D01*
X423628Y376209D01*
Y382874D01*
X420295D02*
Y372877D01*
X415297D01*
X413631Y374543D01*
Y381208D01*
X415297Y382874D01*
X420295D01*
X410299Y372877D02*
X406966D01*
X408632D01*
Y382874D01*
X410299Y381208D01*
X395303Y382874D02*
X401968D01*
Y377875D01*
X398636Y379542D01*
X396969D01*
X395303Y377875D01*
Y374543D01*
X396969Y372877D01*
X400302D01*
X401968Y374543D01*
X2110138Y382874D02*
Y376209D01*
X2106805Y372877D01*
X2103473Y376209D01*
Y382874D01*
X2100141D02*
Y372877D01*
X2095142D01*
X2093476Y374543D01*
Y381208D01*
X2095142Y382874D01*
X2100141D01*
X2090144Y372877D02*
X2086812D01*
X2088478D01*
Y382874D01*
X2090144Y381208D01*
X2076815Y372877D02*
Y382874D01*
X2081813Y377875D01*
X2075149D01*
X1795306Y382874D02*
Y376209D01*
X1791974Y372877D01*
X1788641Y376209D01*
Y382874D01*
X1785309D02*
Y372877D01*
X1780311D01*
X1778644Y374543D01*
Y381208D01*
X1780311Y382874D01*
X1785309D01*
X1775312Y372877D02*
X1771980D01*
X1773646D01*
Y382874D01*
X1775312Y381208D01*
X1766982D02*
X1765315Y382874D01*
X1761983D01*
X1760317Y381208D01*
Y379542D01*
X1761983Y377875D01*
X1763649D01*
X1761983D01*
X1760317Y376209D01*
Y374543D01*
X1761983Y372877D01*
X1765315D01*
X1766982Y374543D01*
X1480216Y382874D02*
Y376209D01*
X1476884Y372877D01*
X1473551Y376209D01*
Y382874D01*
X1470219D02*
Y372877D01*
X1465221D01*
X1463555Y374543D01*
Y381208D01*
X1465221Y382874D01*
X1470219D01*
X1460222Y372877D02*
X1456890D01*
X1458556D01*
Y382874D01*
X1460222Y381208D01*
X1445227Y372877D02*
X1451892D01*
X1445227Y379542D01*
Y381208D01*
X1446893Y382874D01*
X1450226D01*
X1451892Y381208D01*
X1165130Y382874D02*
Y376209D01*
X1161798Y372877D01*
X1158465Y376209D01*
Y382874D01*
X1155133D02*
Y372877D01*
X1150135D01*
X1148469Y374543D01*
Y381208D01*
X1150135Y382874D01*
X1155133D01*
X1145136Y372877D02*
X1141804D01*
X1143470D01*
Y382874D01*
X1145136Y381208D01*
X1136806Y372877D02*
X1133474D01*
X1135140D01*
Y382874D01*
X1136806Y381208D01*
X850298Y382874D02*
Y376209D01*
X846966Y372877D01*
X843634Y376209D01*
Y382874D01*
X840301D02*
Y372877D01*
X835303D01*
X833637Y374543D01*
Y381208D01*
X835303Y382874D01*
X840301D01*
X830305Y372877D02*
X826972D01*
X828638D01*
Y382874D01*
X830305Y381208D01*
X821974D02*
X820308Y382874D01*
X816975D01*
X815309Y381208D01*
Y374543D01*
X816975Y372877D01*
X820308D01*
X821974Y374543D01*
Y381208D01*
X535212Y382874D02*
Y376209D01*
X531880Y372877D01*
X528548Y376209D01*
Y382874D01*
X525215D02*
Y372877D01*
X520217D01*
X518551Y374543D01*
Y381208D01*
X520217Y382874D01*
X525215D01*
X515219Y374543D02*
X513553Y372877D01*
X510220D01*
X508554Y374543D01*
Y381208D01*
X510220Y382874D01*
X513553D01*
X515219Y381208D01*
Y379542D01*
X513553Y377875D01*
X508554D01*
X2215130Y382874D02*
Y376209D01*
X2211797Y372877D01*
X2208465Y376209D01*
Y382874D01*
X2205133D02*
Y372877D01*
X2200134D01*
X2198468Y374543D01*
Y381208D01*
X2200134Y382874D01*
X2205133D01*
X2195136D02*
X2188471D01*
Y381208D01*
X2195136Y374543D01*
Y372877D01*
X1900298Y382874D02*
Y376209D01*
X1896965Y372877D01*
X1893633Y376209D01*
Y382874D01*
X1890301D02*
Y372877D01*
X1885302D01*
X1883636Y374543D01*
Y381208D01*
X1885302Y382874D01*
X1890301D01*
X1873640D02*
X1876972Y381208D01*
X1880304Y377875D01*
Y374543D01*
X1878638Y372877D01*
X1875306D01*
X1873640Y374543D01*
Y376209D01*
X1875306Y377875D01*
X1880304D01*
X1585212Y382874D02*
Y376209D01*
X1581879Y372877D01*
X1578547Y376209D01*
Y382874D01*
X1575215D02*
Y372877D01*
X1570217D01*
X1568551Y374543D01*
Y381208D01*
X1570217Y382874D01*
X1575215D01*
X1558554D02*
X1565218D01*
Y377875D01*
X1561886Y379542D01*
X1560220D01*
X1558554Y377875D01*
Y374543D01*
X1560220Y372877D01*
X1563552D01*
X1565218Y374543D01*
X1270126Y382874D02*
Y376209D01*
X1266794Y372877D01*
X1263461Y376209D01*
Y382874D01*
X1260129D02*
Y372877D01*
X1255131D01*
X1253465Y374543D01*
Y381208D01*
X1255131Y382874D01*
X1260129D01*
X1245134Y372877D02*
Y382874D01*
X1250132Y377875D01*
X1243468D01*
X955294Y382874D02*
Y376209D01*
X951962Y372877D01*
X948630Y376209D01*
Y382874D01*
X945297D02*
Y372877D01*
X940299D01*
X938633Y374543D01*
Y381208D01*
X940299Y382874D01*
X945297D01*
X935301Y381208D02*
X933634Y382874D01*
X930302D01*
X928636Y381208D01*
Y379542D01*
X930302Y377875D01*
X931968D01*
X930302D01*
X928636Y376209D01*
Y374543D01*
X930302Y372877D01*
X933634D01*
X935301Y374543D01*
X640174Y383001D02*
Y376336D01*
X636842Y373004D01*
X633509Y376336D01*
Y383001D01*
X630177D02*
Y373004D01*
X625179D01*
X623513Y374670D01*
Y381335D01*
X625179Y383001D01*
X630177D01*
X613516Y373004D02*
X620180D01*
X613516Y379669D01*
Y381335D01*
X615182Y383001D01*
X618514D01*
X620180Y381335D01*
X640250Y362118D02*
X630093D01*
X635172Y367196D02*
Y357039D01*
X955250Y362118D02*
X945093D01*
X950172Y367196D02*
Y357039D01*
X1270250Y362118D02*
X1260093D01*
X1265172Y367196D02*
Y357039D01*
X1585250Y362118D02*
X1575093D01*
X1580172Y367196D02*
Y357039D01*
X1900250Y362118D02*
X1890093D01*
X1895172Y367196D02*
Y357039D01*
X2215250Y362118D02*
X2205093D01*
X2210172Y367196D02*
Y357039D01*
X535250Y362118D02*
X525093D01*
X530172Y367196D02*
Y357039D01*
X850250Y362118D02*
X840093D01*
X845172Y367196D02*
Y357039D01*
X1165250Y362118D02*
X1155093D01*
X1160172Y367196D02*
Y357039D01*
X1480250Y362118D02*
X1470093D01*
X1475172Y367196D02*
Y357039D01*
X1795250Y362118D02*
X1785093D01*
X1790172Y367196D02*
Y357039D01*
X2110250Y362118D02*
X2100093D01*
X2105172Y367196D02*
Y357039D01*
X430250Y362118D02*
X420093D01*
X425172Y367196D02*
Y357039D01*
X745250Y362118D02*
X735093D01*
X740172Y367196D02*
Y357039D01*
X1060250Y362118D02*
X1050093D01*
X1055172Y367196D02*
Y357039D01*
X1375250Y362118D02*
X1365093D01*
X1370172Y367196D02*
Y357039D01*
X1690250Y362118D02*
X1680093D01*
X1685172Y367196D02*
Y357039D01*
X2005250Y362118D02*
X1995093D01*
X2000172Y367196D02*
Y357039D01*
X586500Y472500D02*
X616500D01*
X586500Y506500D02*
X616500D01*
X901500Y472500D02*
X931500D01*
X901500Y506500D02*
X931500D01*
X1216500Y472500D02*
X1246500D01*
X1216500Y506500D02*
X1246500D01*
X1531500Y472500D02*
X1561500D01*
X1531500Y506500D02*
X1561500D01*
X1846500Y472500D02*
X1876500D01*
X1846500Y506500D02*
X1876500D01*
X2161500Y472500D02*
X2191500D01*
X2161500Y506500D02*
X2191500D01*
X481500Y472500D02*
X511500D01*
X481500Y506500D02*
X511500D01*
X796500Y472500D02*
X826500D01*
X796500Y506500D02*
X826500D01*
X1111500Y472500D02*
X1141500D01*
X1111500Y506500D02*
X1141500D01*
X1426500Y472500D02*
X1456500D01*
X1426500Y506500D02*
X1456500D01*
X1741500Y472500D02*
X1771500D01*
X1741500Y506500D02*
X1771500D01*
X2056500Y472500D02*
X2086500D01*
X2056500Y506500D02*
X2086500D01*
X376500Y472500D02*
X406500D01*
X376500Y506500D02*
X406500D01*
X691500Y472500D02*
X721500D01*
X691500Y506500D02*
X721500D01*
X1006500Y472500D02*
X1036500D01*
X1006500Y506500D02*
X1036500D01*
X1321500Y472500D02*
X1351500D01*
X1321500Y506500D02*
X1351500D01*
X1636500Y472500D02*
X1666500D01*
X1636500Y506500D02*
X1666500D01*
X1951500Y472500D02*
X1981500D01*
X1951500Y506500D02*
X1981500D01*
X314000Y528000D02*
X321000D01*
X339000D02*
X346000D01*
X330000Y512000D02*
Y519000D01*
Y537000D02*
Y544000D01*
X2240000Y417000D02*
Y424000D01*
X2249000Y433000D02*
X2256000D01*
X2224000D02*
X2231000D01*
X2240000Y442000D02*
Y449000D01*
X2005213Y535874D02*
Y529209D01*
X2001881Y525877D01*
X1998549Y529209D01*
Y535874D01*
X1995217D02*
Y525877D01*
X1990218D01*
X1988552Y527543D01*
Y534208D01*
X1990218Y535874D01*
X1995217D01*
X1978555Y525877D02*
X1985220D01*
X1978555Y532542D01*
Y534208D01*
X1980221Y535874D01*
X1983554D01*
X1985220Y534208D01*
X1975223D02*
X1973557Y535874D01*
X1970225D01*
X1968559Y534208D01*
Y527543D01*
X1970225Y525877D01*
X1973557D01*
X1975223Y527543D01*
Y534208D01*
X1690128Y535874D02*
Y529209D01*
X1686795Y525877D01*
X1683463Y529209D01*
Y535874D01*
X1680131D02*
Y525877D01*
X1675132D01*
X1673466Y527543D01*
Y534208D01*
X1675132Y535874D01*
X1680131D01*
X1670134Y525877D02*
X1666802D01*
X1668468D01*
Y535874D01*
X1670134Y534208D01*
X1661803Y527543D02*
X1660137Y525877D01*
X1656805D01*
X1655139Y527543D01*
Y534208D01*
X1656805Y535874D01*
X1660137D01*
X1661803Y534208D01*
Y532542D01*
X1660137Y530875D01*
X1655139D01*
X1375296Y535874D02*
Y529209D01*
X1371963Y525877D01*
X1368631Y529209D01*
Y535874D01*
X1365299D02*
Y525877D01*
X1360300D01*
X1358634Y527543D01*
Y534208D01*
X1360300Y535874D01*
X1365299D01*
X1355302Y525877D02*
X1351970D01*
X1353636D01*
Y535874D01*
X1355302Y534208D01*
X1346971D02*
X1345305Y535874D01*
X1341973D01*
X1340307Y534208D01*
Y532542D01*
X1341973Y530875D01*
X1340307Y529209D01*
Y527543D01*
X1341973Y525877D01*
X1345305D01*
X1346971Y527543D01*
Y529209D01*
X1345305Y530875D01*
X1346971Y532542D01*
Y534208D01*
X1345305Y530875D02*
X1341973D01*
X1060210Y535874D02*
Y529209D01*
X1056878Y525877D01*
X1053545Y529209D01*
Y535874D01*
X1050213D02*
Y525877D01*
X1045215D01*
X1043549Y527543D01*
Y534208D01*
X1045215Y535874D01*
X1050213D01*
X1040216Y525877D02*
X1036884D01*
X1038550D01*
Y535874D01*
X1040216Y534208D01*
X1031886Y535874D02*
X1025221D01*
Y534208D01*
X1031886Y527543D01*
Y525877D01*
X745124Y535874D02*
Y529209D01*
X741792Y525877D01*
X738459Y529209D01*
Y535874D01*
X735127D02*
Y525877D01*
X730129D01*
X728463Y527543D01*
Y534208D01*
X730129Y535874D01*
X735127D01*
X725130Y525877D02*
X721798D01*
X723464D01*
Y535874D01*
X725130Y534208D01*
X710135Y535874D02*
X713467Y534208D01*
X716800Y530875D01*
Y527543D01*
X715134Y525877D01*
X711801D01*
X710135Y527543D01*
Y529209D01*
X711801Y530875D01*
X716800D01*
X430292Y535874D02*
Y529209D01*
X426960Y525877D01*
X423628Y529209D01*
Y535874D01*
X420295D02*
Y525877D01*
X415297D01*
X413631Y527543D01*
Y534208D01*
X415297Y535874D01*
X420295D01*
X410299Y525877D02*
X406966D01*
X408632D01*
Y535874D01*
X410299Y534208D01*
X395303Y535874D02*
X401968D01*
Y530875D01*
X398636Y532542D01*
X396969D01*
X395303Y530875D01*
Y527543D01*
X396969Y525877D01*
X400302D01*
X401968Y527543D01*
X2110138Y535874D02*
Y529209D01*
X2106805Y525877D01*
X2103473Y529209D01*
Y535874D01*
X2100141D02*
Y525877D01*
X2095142D01*
X2093476Y527543D01*
Y534208D01*
X2095142Y535874D01*
X2100141D01*
X2090144Y525877D02*
X2086812D01*
X2088478D01*
Y535874D01*
X2090144Y534208D01*
X2076815Y525877D02*
Y535874D01*
X2081813Y530875D01*
X2075149D01*
X1795306Y535874D02*
Y529209D01*
X1791974Y525877D01*
X1788641Y529209D01*
Y535874D01*
X1785309D02*
Y525877D01*
X1780311D01*
X1778644Y527543D01*
Y534208D01*
X1780311Y535874D01*
X1785309D01*
X1775312Y525877D02*
X1771980D01*
X1773646D01*
Y535874D01*
X1775312Y534208D01*
X1766982D02*
X1765315Y535874D01*
X1761983D01*
X1760317Y534208D01*
Y532542D01*
X1761983Y530875D01*
X1763649D01*
X1761983D01*
X1760317Y529209D01*
Y527543D01*
X1761983Y525877D01*
X1765315D01*
X1766982Y527543D01*
X1480216Y535874D02*
Y529209D01*
X1476884Y525877D01*
X1473551Y529209D01*
Y535874D01*
X1470219D02*
Y525877D01*
X1465221D01*
X1463555Y527543D01*
Y534208D01*
X1465221Y535874D01*
X1470219D01*
X1460222Y525877D02*
X1456890D01*
X1458556D01*
Y535874D01*
X1460222Y534208D01*
X1445227Y525877D02*
X1451892D01*
X1445227Y532542D01*
Y534208D01*
X1446893Y535874D01*
X1450226D01*
X1451892Y534208D01*
X1165130Y535874D02*
Y529209D01*
X1161798Y525877D01*
X1158465Y529209D01*
Y535874D01*
X1155133D02*
Y525877D01*
X1150135D01*
X1148469Y527543D01*
Y534208D01*
X1150135Y535874D01*
X1155133D01*
X1145136Y525877D02*
X1141804D01*
X1143470D01*
Y535874D01*
X1145136Y534208D01*
X1136806Y525877D02*
X1133474D01*
X1135140D01*
Y535874D01*
X1136806Y534208D01*
X850298Y535874D02*
Y529209D01*
X846966Y525877D01*
X843634Y529209D01*
Y535874D01*
X840301D02*
Y525877D01*
X835303D01*
X833637Y527543D01*
Y534208D01*
X835303Y535874D01*
X840301D01*
X830305Y525877D02*
X826972D01*
X828638D01*
Y535874D01*
X830305Y534208D01*
X821974D02*
X820308Y535874D01*
X816975D01*
X815309Y534208D01*
Y527543D01*
X816975Y525877D01*
X820308D01*
X821974Y527543D01*
Y534208D01*
X535212Y535874D02*
Y529209D01*
X531880Y525877D01*
X528548Y529209D01*
Y535874D01*
X525215D02*
Y525877D01*
X520217D01*
X518551Y527543D01*
Y534208D01*
X520217Y535874D01*
X525215D01*
X515219Y527543D02*
X513553Y525877D01*
X510220D01*
X508554Y527543D01*
Y534208D01*
X510220Y535874D01*
X513553D01*
X515219Y534208D01*
Y532542D01*
X513553Y530875D01*
X508554D01*
X2215130Y535874D02*
Y529209D01*
X2211797Y525877D01*
X2208465Y529209D01*
Y535874D01*
X2205133D02*
Y525877D01*
X2200134D01*
X2198468Y527543D01*
Y534208D01*
X2200134Y535874D01*
X2205133D01*
X2195136D02*
X2188471D01*
Y534208D01*
X2195136Y527543D01*
Y525877D01*
X1900298Y535874D02*
Y529209D01*
X1896965Y525877D01*
X1893633Y529209D01*
Y535874D01*
X1890301D02*
Y525877D01*
X1885302D01*
X1883636Y527543D01*
Y534208D01*
X1885302Y535874D01*
X1890301D01*
X1873640D02*
X1876972Y534208D01*
X1880304Y530875D01*
Y527543D01*
X1878638Y525877D01*
X1875306D01*
X1873640Y527543D01*
Y529209D01*
X1875306Y530875D01*
X1880304D01*
X1585212Y535874D02*
Y529209D01*
X1581879Y525877D01*
X1578547Y529209D01*
Y535874D01*
X1575215D02*
Y525877D01*
X1570217D01*
X1568551Y527543D01*
Y534208D01*
X1570217Y535874D01*
X1575215D01*
X1558554D02*
X1565218D01*
Y530875D01*
X1561886Y532542D01*
X1560220D01*
X1558554Y530875D01*
Y527543D01*
X1560220Y525877D01*
X1563552D01*
X1565218Y527543D01*
X1270126Y535874D02*
Y529209D01*
X1266794Y525877D01*
X1263461Y529209D01*
Y535874D01*
X1260129D02*
Y525877D01*
X1255131D01*
X1253465Y527543D01*
Y534208D01*
X1255131Y535874D01*
X1260129D01*
X1245134Y525877D02*
Y535874D01*
X1250132Y530875D01*
X1243468D01*
X955294Y535874D02*
Y529209D01*
X951962Y525877D01*
X948630Y529209D01*
Y535874D01*
X945297D02*
Y525877D01*
X940299D01*
X938633Y527543D01*
Y534208D01*
X940299Y535874D01*
X945297D01*
X935301Y534208D02*
X933634Y535874D01*
X930302D01*
X928636Y534208D01*
Y532542D01*
X930302Y530875D01*
X931968D01*
X930302D01*
X928636Y529209D01*
Y527543D01*
X930302Y525877D01*
X933634D01*
X935301Y527543D01*
X640174Y536001D02*
Y529336D01*
X636842Y526004D01*
X633509Y529336D01*
Y536001D01*
X630177D02*
Y526004D01*
X625179D01*
X623513Y527670D01*
Y534335D01*
X625179Y536001D01*
X630177D01*
X613516Y526004D02*
X620180D01*
X613516Y532668D01*
Y534335D01*
X615182Y536001D01*
X618514D01*
X620180Y534335D01*
X640250Y515117D02*
X630093D01*
X635172Y520196D02*
Y510039D01*
X955250Y515117D02*
X945093D01*
X950172Y520196D02*
Y510039D01*
X1270250Y515117D02*
X1260093D01*
X1265172Y520196D02*
Y510039D01*
X1585250Y515117D02*
X1575093D01*
X1580172Y520196D02*
Y510039D01*
X1900250Y515117D02*
X1890093D01*
X1895172Y520196D02*
Y510039D01*
X2215250Y515117D02*
X2205093D01*
X2210172Y520196D02*
Y510039D01*
X535250Y515117D02*
X525093D01*
X530172Y520196D02*
Y510039D01*
X850250Y515117D02*
X840093D01*
X845172Y520196D02*
Y510039D01*
X1165250Y515117D02*
X1155093D01*
X1160172Y520196D02*
Y510039D01*
X1480250Y515117D02*
X1470093D01*
X1475172Y520196D02*
Y510039D01*
X1795250Y515117D02*
X1785093D01*
X1790172Y520196D02*
Y510039D01*
X2110250Y515117D02*
X2100093D01*
X2105172Y520196D02*
Y510039D01*
X430250Y515117D02*
X420093D01*
X425172Y520196D02*
Y510039D01*
X745250Y515117D02*
X735093D01*
X740172Y520196D02*
Y510039D01*
X1060250Y515117D02*
X1050093D01*
X1055172Y520196D02*
Y510039D01*
X1375250Y515117D02*
X1365093D01*
X1370172Y520196D02*
Y510039D01*
X1690250Y515117D02*
X1680093D01*
X1685172Y520196D02*
Y510039D01*
X2005250Y515117D02*
X1995093D01*
X2000172Y520196D02*
Y510039D01*
X586500Y625500D02*
X616500D01*
X586500Y659500D02*
X616500D01*
X901500Y625500D02*
X931500D01*
X901500Y659500D02*
X931500D01*
X1216500Y625500D02*
X1246500D01*
X1216500Y659500D02*
X1246500D01*
X1531500Y625500D02*
X1561500D01*
X1531500Y659500D02*
X1561500D01*
X1846500Y625500D02*
X1876500D01*
X1846500Y659500D02*
X1876500D01*
X2161500Y625500D02*
X2191500D01*
X2161500Y659500D02*
X2191500D01*
X481500Y625500D02*
X511500D01*
X481500Y659500D02*
X511500D01*
X796500Y625500D02*
X826500D01*
X796500Y659500D02*
X826500D01*
X1111500Y625500D02*
X1141500D01*
X1111500Y659500D02*
X1141500D01*
X1426500Y625500D02*
X1456500D01*
X1426500Y659500D02*
X1456500D01*
X1741500Y625500D02*
X1771500D01*
X1741500Y659500D02*
X1771500D01*
X2056500Y625500D02*
X2086500D01*
X2056500Y659500D02*
X2086500D01*
X376500Y625500D02*
X406500D01*
X376500Y659500D02*
X406500D01*
X691500Y625500D02*
X721500D01*
X691500Y659500D02*
X721500D01*
X1006500Y625500D02*
X1036500D01*
X1006500Y659500D02*
X1036500D01*
X1321500Y625500D02*
X1351500D01*
X1321500Y659500D02*
X1351500D01*
X1636500Y625500D02*
X1666500D01*
X1636500Y659500D02*
X1666500D01*
X1951500Y625500D02*
X1981500D01*
X1951500Y659500D02*
X1981500D01*
X314000Y681000D02*
X321000D01*
X339000D02*
X346000D01*
X330000Y665000D02*
Y672000D01*
Y690000D02*
Y697000D01*
X2240000Y570000D02*
Y577000D01*
X2249000Y586000D02*
X2256000D01*
X2224000D02*
X2231000D01*
X2240000Y595000D02*
Y602000D01*
X2005213Y688874D02*
Y682209D01*
X2001881Y678877D01*
X1998549Y682209D01*
Y688874D01*
X1995217D02*
Y678877D01*
X1990218D01*
X1988552Y680543D01*
Y687208D01*
X1990218Y688874D01*
X1995217D01*
X1978555Y678877D02*
X1985220D01*
X1978555Y685542D01*
Y687208D01*
X1980221Y688874D01*
X1983554D01*
X1985220Y687208D01*
X1975223D02*
X1973557Y688874D01*
X1970225D01*
X1968559Y687208D01*
Y680543D01*
X1970225Y678877D01*
X1973557D01*
X1975223Y680543D01*
Y687208D01*
X1690128Y688874D02*
Y682209D01*
X1686795Y678877D01*
X1683463Y682209D01*
Y688874D01*
X1680131D02*
Y678877D01*
X1675132D01*
X1673466Y680543D01*
Y687208D01*
X1675132Y688874D01*
X1680131D01*
X1670134Y678877D02*
X1666802D01*
X1668468D01*
Y688874D01*
X1670134Y687208D01*
X1661803Y680543D02*
X1660137Y678877D01*
X1656805D01*
X1655139Y680543D01*
Y687208D01*
X1656805Y688874D01*
X1660137D01*
X1661803Y687208D01*
Y685542D01*
X1660137Y683875D01*
X1655139D01*
X1375296Y688874D02*
Y682209D01*
X1371963Y678877D01*
X1368631Y682209D01*
Y688874D01*
X1365299D02*
Y678877D01*
X1360300D01*
X1358634Y680543D01*
Y687208D01*
X1360300Y688874D01*
X1365299D01*
X1355302Y678877D02*
X1351970D01*
X1353636D01*
Y688874D01*
X1355302Y687208D01*
X1346971D02*
X1345305Y688874D01*
X1341973D01*
X1340307Y687208D01*
Y685542D01*
X1341973Y683875D01*
X1340307Y682209D01*
Y680543D01*
X1341973Y678877D01*
X1345305D01*
X1346971Y680543D01*
Y682209D01*
X1345305Y683875D01*
X1346971Y685542D01*
Y687208D01*
X1345305Y683875D02*
X1341973D01*
X1060210Y688874D02*
Y682209D01*
X1056878Y678877D01*
X1053545Y682209D01*
Y688874D01*
X1050213D02*
Y678877D01*
X1045215D01*
X1043549Y680543D01*
Y687208D01*
X1045215Y688874D01*
X1050213D01*
X1040216Y678877D02*
X1036884D01*
X1038550D01*
Y688874D01*
X1040216Y687208D01*
X1031886Y688874D02*
X1025221D01*
Y687208D01*
X1031886Y680543D01*
Y678877D01*
X745124Y688874D02*
Y682209D01*
X741792Y678877D01*
X738459Y682209D01*
Y688874D01*
X735127D02*
Y678877D01*
X730129D01*
X728463Y680543D01*
Y687208D01*
X730129Y688874D01*
X735127D01*
X725130Y678877D02*
X721798D01*
X723464D01*
Y688874D01*
X725130Y687208D01*
X710135Y688874D02*
X713467Y687208D01*
X716800Y683875D01*
Y680543D01*
X715134Y678877D01*
X711801D01*
X710135Y680543D01*
Y682209D01*
X711801Y683875D01*
X716800D01*
X430292Y688874D02*
Y682209D01*
X426960Y678877D01*
X423628Y682209D01*
Y688874D01*
X420295D02*
Y678877D01*
X415297D01*
X413631Y680543D01*
Y687208D01*
X415297Y688874D01*
X420295D01*
X410299Y678877D02*
X406966D01*
X408632D01*
Y688874D01*
X410299Y687208D01*
X395303Y688874D02*
X401968D01*
Y683875D01*
X398636Y685542D01*
X396969D01*
X395303Y683875D01*
Y680543D01*
X396969Y678877D01*
X400302D01*
X401968Y680543D01*
X2110138Y688874D02*
Y682209D01*
X2106805Y678877D01*
X2103473Y682209D01*
Y688874D01*
X2100141D02*
Y678877D01*
X2095142D01*
X2093476Y680543D01*
Y687208D01*
X2095142Y688874D01*
X2100141D01*
X2090144Y678877D02*
X2086812D01*
X2088478D01*
Y688874D01*
X2090144Y687208D01*
X2076815Y678877D02*
Y688874D01*
X2081813Y683875D01*
X2075149D01*
X1795306Y688874D02*
Y682209D01*
X1791974Y678877D01*
X1788641Y682209D01*
Y688874D01*
X1785309D02*
Y678877D01*
X1780311D01*
X1778644Y680543D01*
Y687208D01*
X1780311Y688874D01*
X1785309D01*
X1775312Y678877D02*
X1771980D01*
X1773646D01*
Y688874D01*
X1775312Y687208D01*
X1766982D02*
X1765315Y688874D01*
X1761983D01*
X1760317Y687208D01*
Y685542D01*
X1761983Y683875D01*
X1763649D01*
X1761983D01*
X1760317Y682209D01*
Y680543D01*
X1761983Y678877D01*
X1765315D01*
X1766982Y680543D01*
X1480216Y688874D02*
Y682209D01*
X1476884Y678877D01*
X1473551Y682209D01*
Y688874D01*
X1470219D02*
Y678877D01*
X1465221D01*
X1463555Y680543D01*
Y687208D01*
X1465221Y688874D01*
X1470219D01*
X1460222Y678877D02*
X1456890D01*
X1458556D01*
Y688874D01*
X1460222Y687208D01*
X1445227Y678877D02*
X1451892D01*
X1445227Y685542D01*
Y687208D01*
X1446893Y688874D01*
X1450226D01*
X1451892Y687208D01*
X1165130Y688874D02*
Y682209D01*
X1161798Y678877D01*
X1158465Y682209D01*
Y688874D01*
X1155133D02*
Y678877D01*
X1150135D01*
X1148469Y680543D01*
Y687208D01*
X1150135Y688874D01*
X1155133D01*
X1145136Y678877D02*
X1141804D01*
X1143470D01*
Y688874D01*
X1145136Y687208D01*
X1136806Y678877D02*
X1133474D01*
X1135140D01*
Y688874D01*
X1136806Y687208D01*
X850298Y688874D02*
Y682209D01*
X846966Y678877D01*
X843634Y682209D01*
Y688874D01*
X840301D02*
Y678877D01*
X835303D01*
X833637Y680543D01*
Y687208D01*
X835303Y688874D01*
X840301D01*
X830305Y678877D02*
X826972D01*
X828638D01*
Y688874D01*
X830305Y687208D01*
X821974D02*
X820308Y688874D01*
X816975D01*
X815309Y687208D01*
Y680543D01*
X816975Y678877D01*
X820308D01*
X821974Y680543D01*
Y687208D01*
X535212Y688874D02*
Y682209D01*
X531880Y678877D01*
X528548Y682209D01*
Y688874D01*
X525215D02*
Y678877D01*
X520217D01*
X518551Y680543D01*
Y687208D01*
X520217Y688874D01*
X525215D01*
X515219Y680543D02*
X513553Y678877D01*
X510220D01*
X508554Y680543D01*
Y687208D01*
X510220Y688874D01*
X513553D01*
X515219Y687208D01*
Y685542D01*
X513553Y683875D01*
X508554D01*
X2215130Y688874D02*
Y682209D01*
X2211797Y678877D01*
X2208465Y682209D01*
Y688874D01*
X2205133D02*
Y678877D01*
X2200134D01*
X2198468Y680543D01*
Y687208D01*
X2200134Y688874D01*
X2205133D01*
X2195136D02*
X2188471D01*
Y687208D01*
X2195136Y680543D01*
Y678877D01*
X1900298Y688874D02*
Y682209D01*
X1896965Y678877D01*
X1893633Y682209D01*
Y688874D01*
X1890301D02*
Y678877D01*
X1885302D01*
X1883636Y680543D01*
Y687208D01*
X1885302Y688874D01*
X1890301D01*
X1873640D02*
X1876972Y687208D01*
X1880304Y683875D01*
Y680543D01*
X1878638Y678877D01*
X1875306D01*
X1873640Y680543D01*
Y682209D01*
X1875306Y683875D01*
X1880304D01*
X1585212Y688874D02*
Y682209D01*
X1581879Y678877D01*
X1578547Y682209D01*
Y688874D01*
X1575215D02*
Y678877D01*
X1570217D01*
X1568551Y680543D01*
Y687208D01*
X1570217Y688874D01*
X1575215D01*
X1558554D02*
X1565218D01*
Y683875D01*
X1561886Y685542D01*
X1560220D01*
X1558554Y683875D01*
Y680543D01*
X1560220Y678877D01*
X1563552D01*
X1565218Y680543D01*
X1270126Y688874D02*
Y682209D01*
X1266794Y678877D01*
X1263461Y682209D01*
Y688874D01*
X1260129D02*
Y678877D01*
X1255131D01*
X1253465Y680543D01*
Y687208D01*
X1255131Y688874D01*
X1260129D01*
X1245134Y678877D02*
Y688874D01*
X1250132Y683875D01*
X1243468D01*
X955294Y688874D02*
Y682209D01*
X951962Y678877D01*
X948630Y682209D01*
Y688874D01*
X945297D02*
Y678877D01*
X940299D01*
X938633Y680543D01*
Y687208D01*
X940299Y688874D01*
X945297D01*
X935301Y687208D02*
X933634Y688874D01*
X930302D01*
X928636Y687208D01*
Y685542D01*
X930302Y683875D01*
X931968D01*
X930302D01*
X928636Y682209D01*
Y680543D01*
X930302Y678877D01*
X933634D01*
X935301Y680543D01*
X640174Y689001D02*
Y682336D01*
X636842Y679004D01*
X633509Y682336D01*
Y689001D01*
X630177D02*
Y679004D01*
X625179D01*
X623513Y680670D01*
Y687335D01*
X625179Y689001D01*
X630177D01*
X613516Y679004D02*
X620180D01*
X613516Y685668D01*
Y687335D01*
X615182Y689001D01*
X618514D01*
X620180Y687335D01*
X640250Y668118D02*
X630093D01*
X635172Y673196D02*
Y663039D01*
X955250Y668118D02*
X945093D01*
X950172Y673196D02*
Y663039D01*
X1270250Y668118D02*
X1260093D01*
X1265172Y673196D02*
Y663039D01*
X1585250Y668118D02*
X1575093D01*
X1580172Y673196D02*
Y663039D01*
X1900250Y668118D02*
X1890093D01*
X1895172Y673196D02*
Y663039D01*
X2215250Y668118D02*
X2205093D01*
X2210172Y673196D02*
Y663039D01*
X535250Y668118D02*
X525093D01*
X530172Y673196D02*
Y663039D01*
X850250Y668118D02*
X840093D01*
X845172Y673196D02*
Y663039D01*
X1165250Y668118D02*
X1155093D01*
X1160172Y673196D02*
Y663039D01*
X1480250Y668118D02*
X1470093D01*
X1475172Y673196D02*
Y663039D01*
X1795250Y668118D02*
X1785093D01*
X1790172Y673196D02*
Y663039D01*
X2110250Y668118D02*
X2100093D01*
X2105172Y673196D02*
Y663039D01*
X430250Y668118D02*
X420093D01*
X425172Y673196D02*
Y663039D01*
X745250Y668118D02*
X735093D01*
X740172Y673196D02*
Y663039D01*
X1060250Y668118D02*
X1050093D01*
X1055172Y673196D02*
Y663039D01*
X1375250Y668118D02*
X1365093D01*
X1370172Y673196D02*
Y663039D01*
X1690250Y668118D02*
X1680093D01*
X1685172Y673196D02*
Y663039D01*
X2005250Y668118D02*
X1995093D01*
X2000172Y673196D02*
Y663039D01*
X586500Y778500D02*
X616500D01*
X586500Y812500D02*
X616500D01*
X901500Y778500D02*
X931500D01*
X901500Y812500D02*
X931500D01*
X1216500Y778500D02*
X1246500D01*
X1216500Y812500D02*
X1246500D01*
X1531500Y778500D02*
X1561500D01*
X1531500Y812500D02*
X1561500D01*
X1846500Y778500D02*
X1876500D01*
X1846500Y812500D02*
X1876500D01*
X2161500Y778500D02*
X2191500D01*
X2161500Y812500D02*
X2191500D01*
X481500Y778500D02*
X511500D01*
X481500Y812500D02*
X511500D01*
X796500Y778500D02*
X826500D01*
X796500Y812500D02*
X826500D01*
X1111500Y778500D02*
X1141500D01*
X1111500Y812500D02*
X1141500D01*
X1426500Y778500D02*
X1456500D01*
X1426500Y812500D02*
X1456500D01*
X1741500Y778500D02*
X1771500D01*
X1741500Y812500D02*
X1771500D01*
X2056500Y778500D02*
X2086500D01*
X2056500Y812500D02*
X2086500D01*
X376500Y778500D02*
X406500D01*
X376500Y812500D02*
X406500D01*
X691500Y778500D02*
X721500D01*
X691500Y812500D02*
X721500D01*
X1006500Y778500D02*
X1036500D01*
X1006500Y812500D02*
X1036500D01*
X1321500Y778500D02*
X1351500D01*
X1321500Y812500D02*
X1351500D01*
X1636500Y778500D02*
X1666500D01*
X1636500Y812500D02*
X1666500D01*
X1951500Y778500D02*
X1981500D01*
X1951500Y812500D02*
X1981500D01*
X314000Y834000D02*
X321000D01*
X339000D02*
X346000D01*
X330000Y818000D02*
Y825000D01*
Y843000D02*
Y850000D01*
X2240000Y723000D02*
Y730000D01*
X2249000Y739000D02*
X2256000D01*
X2224000D02*
X2231000D01*
X2240000Y748000D02*
Y755000D01*
X2005213Y841874D02*
Y835209D01*
X2001881Y831877D01*
X1998549Y835209D01*
Y841874D01*
X1995217D02*
Y831877D01*
X1990218D01*
X1988552Y833543D01*
Y840208D01*
X1990218Y841874D01*
X1995217D01*
X1978555Y831877D02*
X1985220D01*
X1978555Y838542D01*
Y840208D01*
X1980221Y841874D01*
X1983554D01*
X1985220Y840208D01*
X1975223D02*
X1973557Y841874D01*
X1970225D01*
X1968559Y840208D01*
Y833543D01*
X1970225Y831877D01*
X1973557D01*
X1975223Y833543D01*
Y840208D01*
X1690128Y841874D02*
Y835209D01*
X1686795Y831877D01*
X1683463Y835209D01*
Y841874D01*
X1680131D02*
Y831877D01*
X1675132D01*
X1673466Y833543D01*
Y840208D01*
X1675132Y841874D01*
X1680131D01*
X1670134Y831877D02*
X1666802D01*
X1668468D01*
Y841874D01*
X1670134Y840208D01*
X1661803Y833543D02*
X1660137Y831877D01*
X1656805D01*
X1655139Y833543D01*
Y840208D01*
X1656805Y841874D01*
X1660137D01*
X1661803Y840208D01*
Y838542D01*
X1660137Y836875D01*
X1655139D01*
X1375296Y841874D02*
Y835209D01*
X1371963Y831877D01*
X1368631Y835209D01*
Y841874D01*
X1365299D02*
Y831877D01*
X1360300D01*
X1358634Y833543D01*
Y840208D01*
X1360300Y841874D01*
X1365299D01*
X1355302Y831877D02*
X1351970D01*
X1353636D01*
Y841874D01*
X1355302Y840208D01*
X1346971D02*
X1345305Y841874D01*
X1341973D01*
X1340307Y840208D01*
Y838542D01*
X1341973Y836875D01*
X1340307Y835209D01*
Y833543D01*
X1341973Y831877D01*
X1345305D01*
X1346971Y833543D01*
Y835209D01*
X1345305Y836875D01*
X1346971Y838542D01*
Y840208D01*
X1345305Y836875D02*
X1341973D01*
X1060210Y841874D02*
Y835209D01*
X1056878Y831877D01*
X1053545Y835209D01*
Y841874D01*
X1050213D02*
Y831877D01*
X1045215D01*
X1043549Y833543D01*
Y840208D01*
X1045215Y841874D01*
X1050213D01*
X1040216Y831877D02*
X1036884D01*
X1038550D01*
Y841874D01*
X1040216Y840208D01*
X1031886Y841874D02*
X1025221D01*
Y840208D01*
X1031886Y833543D01*
Y831877D01*
X745124Y841874D02*
Y835209D01*
X741792Y831877D01*
X738459Y835209D01*
Y841874D01*
X735127D02*
Y831877D01*
X730129D01*
X728463Y833543D01*
Y840208D01*
X730129Y841874D01*
X735127D01*
X725130Y831877D02*
X721798D01*
X723464D01*
Y841874D01*
X725130Y840208D01*
X710135Y841874D02*
X713467Y840208D01*
X716800Y836875D01*
Y833543D01*
X715134Y831877D01*
X711801D01*
X710135Y833543D01*
Y835209D01*
X711801Y836875D01*
X716800D01*
X430292Y841874D02*
Y835209D01*
X426960Y831877D01*
X423628Y835209D01*
Y841874D01*
X420295D02*
Y831877D01*
X415297D01*
X413631Y833543D01*
Y840208D01*
X415297Y841874D01*
X420295D01*
X410299Y831877D02*
X406966D01*
X408632D01*
Y841874D01*
X410299Y840208D01*
X395303Y841874D02*
X401968D01*
Y836875D01*
X398636Y838542D01*
X396969D01*
X395303Y836875D01*
Y833543D01*
X396969Y831877D01*
X400302D01*
X401968Y833543D01*
X2110138Y841874D02*
Y835209D01*
X2106805Y831877D01*
X2103473Y835209D01*
Y841874D01*
X2100141D02*
Y831877D01*
X2095142D01*
X2093476Y833543D01*
Y840208D01*
X2095142Y841874D01*
X2100141D01*
X2090144Y831877D02*
X2086812D01*
X2088478D01*
Y841874D01*
X2090144Y840208D01*
X2076815Y831877D02*
Y841874D01*
X2081813Y836875D01*
X2075149D01*
X1795306Y841874D02*
Y835209D01*
X1791974Y831877D01*
X1788641Y835209D01*
Y841874D01*
X1785309D02*
Y831877D01*
X1780311D01*
X1778644Y833543D01*
Y840208D01*
X1780311Y841874D01*
X1785309D01*
X1775312Y831877D02*
X1771980D01*
X1773646D01*
Y841874D01*
X1775312Y840208D01*
X1766982D02*
X1765315Y841874D01*
X1761983D01*
X1760317Y840208D01*
Y838542D01*
X1761983Y836875D01*
X1763649D01*
X1761983D01*
X1760317Y835209D01*
Y833543D01*
X1761983Y831877D01*
X1765315D01*
X1766982Y833543D01*
X1480216Y841874D02*
Y835209D01*
X1476884Y831877D01*
X1473551Y835209D01*
Y841874D01*
X1470219D02*
Y831877D01*
X1465221D01*
X1463555Y833543D01*
Y840208D01*
X1465221Y841874D01*
X1470219D01*
X1460222Y831877D02*
X1456890D01*
X1458556D01*
Y841874D01*
X1460222Y840208D01*
X1445227Y831877D02*
X1451892D01*
X1445227Y838542D01*
Y840208D01*
X1446893Y841874D01*
X1450226D01*
X1451892Y840208D01*
X1165130Y841874D02*
Y835209D01*
X1161798Y831877D01*
X1158465Y835209D01*
Y841874D01*
X1155133D02*
Y831877D01*
X1150135D01*
X1148469Y833543D01*
Y840208D01*
X1150135Y841874D01*
X1155133D01*
X1145136Y831877D02*
X1141804D01*
X1143470D01*
Y841874D01*
X1145136Y840208D01*
X1136806Y831877D02*
X1133474D01*
X1135140D01*
Y841874D01*
X1136806Y840208D01*
X850298Y841874D02*
Y835209D01*
X846966Y831877D01*
X843634Y835209D01*
Y841874D01*
X840301D02*
Y831877D01*
X835303D01*
X833637Y833543D01*
Y840208D01*
X835303Y841874D01*
X840301D01*
X830305Y831877D02*
X826972D01*
X828638D01*
Y841874D01*
X830305Y840208D01*
X821974D02*
X820308Y841874D01*
X816975D01*
X815309Y840208D01*
Y833543D01*
X816975Y831877D01*
X820308D01*
X821974Y833543D01*
Y840208D01*
X535212Y841874D02*
Y835209D01*
X531880Y831877D01*
X528548Y835209D01*
Y841874D01*
X525215D02*
Y831877D01*
X520217D01*
X518551Y833543D01*
Y840208D01*
X520217Y841874D01*
X525215D01*
X515219Y833543D02*
X513553Y831877D01*
X510220D01*
X508554Y833543D01*
Y840208D01*
X510220Y841874D01*
X513553D01*
X515219Y840208D01*
Y838542D01*
X513553Y836875D01*
X508554D01*
X2215130Y841874D02*
Y835209D01*
X2211797Y831877D01*
X2208465Y835209D01*
Y841874D01*
X2205133D02*
Y831877D01*
X2200134D01*
X2198468Y833543D01*
Y840208D01*
X2200134Y841874D01*
X2205133D01*
X2195136D02*
X2188471D01*
Y840208D01*
X2195136Y833543D01*
Y831877D01*
X1900298Y841874D02*
Y835209D01*
X1896965Y831877D01*
X1893633Y835209D01*
Y841874D01*
X1890301D02*
Y831877D01*
X1885302D01*
X1883636Y833543D01*
Y840208D01*
X1885302Y841874D01*
X1890301D01*
X1873640D02*
X1876972Y840208D01*
X1880304Y836875D01*
Y833543D01*
X1878638Y831877D01*
X1875306D01*
X1873640Y833543D01*
Y835209D01*
X1875306Y836875D01*
X1880304D01*
X1585212Y841874D02*
Y835209D01*
X1581879Y831877D01*
X1578547Y835209D01*
Y841874D01*
X1575215D02*
Y831877D01*
X1570217D01*
X1568551Y833543D01*
Y840208D01*
X1570217Y841874D01*
X1575215D01*
X1558554D02*
X1565218D01*
Y836875D01*
X1561886Y838542D01*
X1560220D01*
X1558554Y836875D01*
Y833543D01*
X1560220Y831877D01*
X1563552D01*
X1565218Y833543D01*
X1270126Y841874D02*
Y835209D01*
X1266794Y831877D01*
X1263461Y835209D01*
Y841874D01*
X1260129D02*
Y831877D01*
X1255131D01*
X1253465Y833543D01*
Y840208D01*
X1255131Y841874D01*
X1260129D01*
X1245134Y831877D02*
Y841874D01*
X1250132Y836875D01*
X1243468D01*
X955294Y841874D02*
Y835209D01*
X951962Y831877D01*
X948630Y835209D01*
Y841874D01*
X945297D02*
Y831877D01*
X940299D01*
X938633Y833543D01*
Y840208D01*
X940299Y841874D01*
X945297D01*
X935301Y840208D02*
X933634Y841874D01*
X930302D01*
X928636Y840208D01*
Y838542D01*
X930302Y836875D01*
X931968D01*
X930302D01*
X928636Y835209D01*
Y833543D01*
X930302Y831877D01*
X933634D01*
X935301Y833543D01*
X640174Y842001D02*
Y835336D01*
X636842Y832004D01*
X633509Y835336D01*
Y842001D01*
X630177D02*
Y832004D01*
X625179D01*
X623513Y833670D01*
Y840335D01*
X625179Y842001D01*
X630177D01*
X613516Y832004D02*
X620180D01*
X613516Y838669D01*
Y840335D01*
X615182Y842001D01*
X618514D01*
X620180Y840335D01*
X640250Y821118D02*
X630093D01*
X635172Y826196D02*
Y816039D01*
X955250Y821118D02*
X945093D01*
X950172Y826196D02*
Y816039D01*
X1270250Y821118D02*
X1260093D01*
X1265172Y826196D02*
Y816039D01*
X1585250Y821118D02*
X1575093D01*
X1580172Y826196D02*
Y816039D01*
X1900250Y821118D02*
X1890093D01*
X1895172Y826196D02*
Y816039D01*
X2215250Y821118D02*
X2205093D01*
X2210172Y826196D02*
Y816039D01*
X535250Y821118D02*
X525093D01*
X530172Y826196D02*
Y816039D01*
X850250Y821118D02*
X840093D01*
X845172Y826196D02*
Y816039D01*
X1165250Y821118D02*
X1155093D01*
X1160172Y826196D02*
Y816039D01*
X1480250Y821118D02*
X1470093D01*
X1475172Y826196D02*
Y816039D01*
X1795250Y821118D02*
X1785093D01*
X1790172Y826196D02*
Y816039D01*
X2110250Y821118D02*
X2100093D01*
X2105172Y826196D02*
Y816039D01*
X430250Y821118D02*
X420093D01*
X425172Y826196D02*
Y816039D01*
X745250Y821118D02*
X735093D01*
X740172Y826196D02*
Y816039D01*
X1060250Y821118D02*
X1050093D01*
X1055172Y826196D02*
Y816039D01*
X1375250Y821118D02*
X1365093D01*
X1370172Y826196D02*
Y816039D01*
X1690250Y821118D02*
X1680093D01*
X1685172Y826196D02*
Y816039D01*
X2005250Y821118D02*
X1995093D01*
X2000172Y826196D02*
Y816039D01*
X586500Y931500D02*
X616500D01*
X586500Y965500D02*
X616500D01*
X901500Y931500D02*
X931500D01*
X901500Y965500D02*
X931500D01*
X1216500Y931500D02*
X1246500D01*
X1216500Y965500D02*
X1246500D01*
X1531500Y931500D02*
X1561500D01*
X1531500Y965500D02*
X1561500D01*
X1846500Y931500D02*
X1876500D01*
X1846500Y965500D02*
X1876500D01*
X2161500Y931500D02*
X2191500D01*
X2161500Y965500D02*
X2191500D01*
X481500Y931500D02*
X511500D01*
X481500Y965500D02*
X511500D01*
X796500Y931500D02*
X826500D01*
X796500Y965500D02*
X826500D01*
X1111500Y931500D02*
X1141500D01*
X1111500Y965500D02*
X1141500D01*
X1426500Y931500D02*
X1456500D01*
X1426500Y965500D02*
X1456500D01*
X1741500Y931500D02*
X1771500D01*
X1741500Y965500D02*
X1771500D01*
X2056500Y931500D02*
X2086500D01*
X2056500Y965500D02*
X2086500D01*
X376500Y931500D02*
X406500D01*
X376500Y965500D02*
X406500D01*
X691500Y931500D02*
X721500D01*
X691500Y965500D02*
X721500D01*
X1006500Y931500D02*
X1036500D01*
X1006500Y965500D02*
X1036500D01*
X1321500Y931500D02*
X1351500D01*
X1321500Y965500D02*
X1351500D01*
X1636500Y931500D02*
X1666500D01*
X1636500Y965500D02*
X1666500D01*
X1951500Y931500D02*
X1981500D01*
X1951500Y965500D02*
X1981500D01*
X314000Y987000D02*
X321000D01*
X339000D02*
X346000D01*
X330000Y971000D02*
Y978000D01*
Y996000D02*
Y1003000D01*
X2240000Y876000D02*
Y883000D01*
X2249000Y892000D02*
X2256000D01*
X2224000D02*
X2231000D01*
X2240000Y901000D02*
Y908000D01*
X2005213Y994874D02*
Y988209D01*
X2001881Y984877D01*
X1998549Y988209D01*
Y994874D01*
X1995217D02*
Y984877D01*
X1990218D01*
X1988552Y986543D01*
Y993208D01*
X1990218Y994874D01*
X1995217D01*
X1978555Y984877D02*
X1985220D01*
X1978555Y991542D01*
Y993208D01*
X1980221Y994874D01*
X1983554D01*
X1985220Y993208D01*
X1975223D02*
X1973557Y994874D01*
X1970225D01*
X1968559Y993208D01*
Y986543D01*
X1970225Y984877D01*
X1973557D01*
X1975223Y986543D01*
Y993208D01*
X1690128Y994874D02*
Y988209D01*
X1686795Y984877D01*
X1683463Y988209D01*
Y994874D01*
X1680131D02*
Y984877D01*
X1675132D01*
X1673466Y986543D01*
Y993208D01*
X1675132Y994874D01*
X1680131D01*
X1670134Y984877D02*
X1666802D01*
X1668468D01*
Y994874D01*
X1670134Y993208D01*
X1661803Y986543D02*
X1660137Y984877D01*
X1656805D01*
X1655139Y986543D01*
Y993208D01*
X1656805Y994874D01*
X1660137D01*
X1661803Y993208D01*
Y991542D01*
X1660137Y989875D01*
X1655139D01*
X1375296Y994874D02*
Y988209D01*
X1371963Y984877D01*
X1368631Y988209D01*
Y994874D01*
X1365299D02*
Y984877D01*
X1360300D01*
X1358634Y986543D01*
Y993208D01*
X1360300Y994874D01*
X1365299D01*
X1355302Y984877D02*
X1351970D01*
X1353636D01*
Y994874D01*
X1355302Y993208D01*
X1346971D02*
X1345305Y994874D01*
X1341973D01*
X1340307Y993208D01*
Y991542D01*
X1341973Y989875D01*
X1340307Y988209D01*
Y986543D01*
X1341973Y984877D01*
X1345305D01*
X1346971Y986543D01*
Y988209D01*
X1345305Y989875D01*
X1346971Y991542D01*
Y993208D01*
X1345305Y989875D02*
X1341973D01*
X1060210Y994874D02*
Y988209D01*
X1056878Y984877D01*
X1053545Y988209D01*
Y994874D01*
X1050213D02*
Y984877D01*
X1045215D01*
X1043549Y986543D01*
Y993208D01*
X1045215Y994874D01*
X1050213D01*
X1040216Y984877D02*
X1036884D01*
X1038550D01*
Y994874D01*
X1040216Y993208D01*
X1031886Y994874D02*
X1025221D01*
Y993208D01*
X1031886Y986543D01*
Y984877D01*
X745124Y994874D02*
Y988209D01*
X741792Y984877D01*
X738459Y988209D01*
Y994874D01*
X735127D02*
Y984877D01*
X730129D01*
X728463Y986543D01*
Y993208D01*
X730129Y994874D01*
X735127D01*
X725130Y984877D02*
X721798D01*
X723464D01*
Y994874D01*
X725130Y993208D01*
X710135Y994874D02*
X713467Y993208D01*
X716800Y989875D01*
Y986543D01*
X715134Y984877D01*
X711801D01*
X710135Y986543D01*
Y988209D01*
X711801Y989875D01*
X716800D01*
X430292Y994874D02*
Y988209D01*
X426960Y984877D01*
X423628Y988209D01*
Y994874D01*
X420295D02*
Y984877D01*
X415297D01*
X413631Y986543D01*
Y993208D01*
X415297Y994874D01*
X420295D01*
X410299Y984877D02*
X406966D01*
X408632D01*
Y994874D01*
X410299Y993208D01*
X395303Y994874D02*
X401968D01*
Y989875D01*
X398636Y991542D01*
X396969D01*
X395303Y989875D01*
Y986543D01*
X396969Y984877D01*
X400302D01*
X401968Y986543D01*
X2110138Y994874D02*
Y988209D01*
X2106805Y984877D01*
X2103473Y988209D01*
Y994874D01*
X2100141D02*
Y984877D01*
X2095142D01*
X2093476Y986543D01*
Y993208D01*
X2095142Y994874D01*
X2100141D01*
X2090144Y984877D02*
X2086812D01*
X2088478D01*
Y994874D01*
X2090144Y993208D01*
X2076815Y984877D02*
Y994874D01*
X2081813Y989875D01*
X2075149D01*
X1795306Y994874D02*
Y988209D01*
X1791974Y984877D01*
X1788641Y988209D01*
Y994874D01*
X1785309D02*
Y984877D01*
X1780311D01*
X1778644Y986543D01*
Y993208D01*
X1780311Y994874D01*
X1785309D01*
X1775312Y984877D02*
X1771980D01*
X1773646D01*
Y994874D01*
X1775312Y993208D01*
X1766982D02*
X1765315Y994874D01*
X1761983D01*
X1760317Y993208D01*
Y991542D01*
X1761983Y989875D01*
X1763649D01*
X1761983D01*
X1760317Y988209D01*
Y986543D01*
X1761983Y984877D01*
X1765315D01*
X1766982Y986543D01*
X1480216Y994874D02*
Y988209D01*
X1476884Y984877D01*
X1473551Y988209D01*
Y994874D01*
X1470219D02*
Y984877D01*
X1465221D01*
X1463555Y986543D01*
Y993208D01*
X1465221Y994874D01*
X1470219D01*
X1460222Y984877D02*
X1456890D01*
X1458556D01*
Y994874D01*
X1460222Y993208D01*
X1445227Y984877D02*
X1451892D01*
X1445227Y991542D01*
Y993208D01*
X1446893Y994874D01*
X1450226D01*
X1451892Y993208D01*
X1165130Y994874D02*
Y988209D01*
X1161798Y984877D01*
X1158465Y988209D01*
Y994874D01*
X1155133D02*
Y984877D01*
X1150135D01*
X1148469Y986543D01*
Y993208D01*
X1150135Y994874D01*
X1155133D01*
X1145136Y984877D02*
X1141804D01*
X1143470D01*
Y994874D01*
X1145136Y993208D01*
X1136806Y984877D02*
X1133474D01*
X1135140D01*
Y994874D01*
X1136806Y993208D01*
X850298Y994874D02*
Y988209D01*
X846966Y984877D01*
X843634Y988209D01*
Y994874D01*
X840301D02*
Y984877D01*
X835303D01*
X833637Y986543D01*
Y993208D01*
X835303Y994874D01*
X840301D01*
X830305Y984877D02*
X826972D01*
X828638D01*
Y994874D01*
X830305Y993208D01*
X821974D02*
X820308Y994874D01*
X816975D01*
X815309Y993208D01*
Y986543D01*
X816975Y984877D01*
X820308D01*
X821974Y986543D01*
Y993208D01*
X535212Y994874D02*
Y988209D01*
X531880Y984877D01*
X528548Y988209D01*
Y994874D01*
X525215D02*
Y984877D01*
X520217D01*
X518551Y986543D01*
Y993208D01*
X520217Y994874D01*
X525215D01*
X515219Y986543D02*
X513553Y984877D01*
X510220D01*
X508554Y986543D01*
Y993208D01*
X510220Y994874D01*
X513553D01*
X515219Y993208D01*
Y991542D01*
X513553Y989875D01*
X508554D01*
X2215130Y994874D02*
Y988209D01*
X2211797Y984877D01*
X2208465Y988209D01*
Y994874D01*
X2205133D02*
Y984877D01*
X2200134D01*
X2198468Y986543D01*
Y993208D01*
X2200134Y994874D01*
X2205133D01*
X2195136D02*
X2188471D01*
Y993208D01*
X2195136Y986543D01*
Y984877D01*
X1900298Y994874D02*
Y988209D01*
X1896965Y984877D01*
X1893633Y988209D01*
Y994874D01*
X1890301D02*
Y984877D01*
X1885302D01*
X1883636Y986543D01*
Y993208D01*
X1885302Y994874D01*
X1890301D01*
X1873640D02*
X1876972Y993208D01*
X1880304Y989875D01*
Y986543D01*
X1878638Y984877D01*
X1875306D01*
X1873640Y986543D01*
Y988209D01*
X1875306Y989875D01*
X1880304D01*
X1585212Y994874D02*
Y988209D01*
X1581879Y984877D01*
X1578547Y988209D01*
Y994874D01*
X1575215D02*
Y984877D01*
X1570217D01*
X1568551Y986543D01*
Y993208D01*
X1570217Y994874D01*
X1575215D01*
X1558554D02*
X1565218D01*
Y989875D01*
X1561886Y991542D01*
X1560220D01*
X1558554Y989875D01*
Y986543D01*
X1560220Y984877D01*
X1563552D01*
X1565218Y986543D01*
X1270126Y994874D02*
Y988209D01*
X1266794Y984877D01*
X1263461Y988209D01*
Y994874D01*
X1260129D02*
Y984877D01*
X1255131D01*
X1253465Y986543D01*
Y993208D01*
X1255131Y994874D01*
X1260129D01*
X1245134Y984877D02*
Y994874D01*
X1250132Y989875D01*
X1243468D01*
X955294Y994874D02*
Y988209D01*
X951962Y984877D01*
X948630Y988209D01*
Y994874D01*
X945297D02*
Y984877D01*
X940299D01*
X938633Y986543D01*
Y993208D01*
X940299Y994874D01*
X945297D01*
X935301Y993208D02*
X933634Y994874D01*
X930302D01*
X928636Y993208D01*
Y991542D01*
X930302Y989875D01*
X931968D01*
X930302D01*
X928636Y988209D01*
Y986543D01*
X930302Y984877D01*
X933634D01*
X935301Y986543D01*
X640174Y995001D02*
Y988336D01*
X636842Y985004D01*
X633509Y988336D01*
Y995001D01*
X630177D02*
Y985004D01*
X625179D01*
X623513Y986670D01*
Y993335D01*
X625179Y995001D01*
X630177D01*
X613516Y985004D02*
X620180D01*
X613516Y991669D01*
Y993335D01*
X615182Y995001D01*
X618514D01*
X620180Y993335D01*
X640250Y974118D02*
X630093D01*
X635172Y979196D02*
Y969039D01*
X955250Y974118D02*
X945093D01*
X950172Y979196D02*
Y969039D01*
X1270250Y974118D02*
X1260093D01*
X1265172Y979196D02*
Y969039D01*
X1585250Y974118D02*
X1575093D01*
X1580172Y979196D02*
Y969039D01*
X1900250Y974118D02*
X1890093D01*
X1895172Y979196D02*
Y969039D01*
X2215250Y974118D02*
X2205093D01*
X2210172Y979196D02*
Y969039D01*
X535250Y974118D02*
X525093D01*
X530172Y979196D02*
Y969039D01*
X850250Y974118D02*
X840093D01*
X845172Y979196D02*
Y969039D01*
X1165250Y974118D02*
X1155093D01*
X1160172Y979196D02*
Y969039D01*
X1480250Y974118D02*
X1470093D01*
X1475172Y979196D02*
Y969039D01*
X1795250Y974118D02*
X1785093D01*
X1790172Y979196D02*
Y969039D01*
X2110250Y974118D02*
X2100093D01*
X2105172Y979196D02*
Y969039D01*
X430250Y974118D02*
X420093D01*
X425172Y979196D02*
Y969039D01*
X745250Y974118D02*
X735093D01*
X740172Y979196D02*
Y969039D01*
X1060250Y974118D02*
X1050093D01*
X1055172Y979196D02*
Y969039D01*
X1375250Y974118D02*
X1365093D01*
X1370172Y979196D02*
Y969039D01*
X1690250Y974118D02*
X1680093D01*
X1685172Y979196D02*
Y969039D01*
X2005250Y974118D02*
X1995093D01*
X2000172Y979196D02*
Y969039D01*
X586500Y1084500D02*
X616500D01*
X586500Y1118500D02*
X616500D01*
X901500Y1084500D02*
X931500D01*
X901500Y1118500D02*
X931500D01*
X1216500Y1084500D02*
X1246500D01*
X1216500Y1118500D02*
X1246500D01*
X1531500Y1084500D02*
X1561500D01*
X1531500Y1118500D02*
X1561500D01*
X1846500Y1084500D02*
X1876500D01*
X1846500Y1118500D02*
X1876500D01*
X2161500Y1084500D02*
X2191500D01*
X2161500Y1118500D02*
X2191500D01*
X481500Y1084500D02*
X511500D01*
X481500Y1118500D02*
X511500D01*
X796500Y1084500D02*
X826500D01*
X796500Y1118500D02*
X826500D01*
X1111500Y1084500D02*
X1141500D01*
X1111500Y1118500D02*
X1141500D01*
X1426500Y1084500D02*
X1456500D01*
X1426500Y1118500D02*
X1456500D01*
X1741500Y1084500D02*
X1771500D01*
X1741500Y1118500D02*
X1771500D01*
X2056500Y1084500D02*
X2086500D01*
X2056500Y1118500D02*
X2086500D01*
X376500Y1084500D02*
X406500D01*
X376500Y1118500D02*
X406500D01*
X691500Y1084500D02*
X721500D01*
X691500Y1118500D02*
X721500D01*
X1006500Y1084500D02*
X1036500D01*
X1006500Y1118500D02*
X1036500D01*
X1321500Y1084500D02*
X1351500D01*
X1321500Y1118500D02*
X1351500D01*
X1636500Y1084500D02*
X1666500D01*
X1636500Y1118500D02*
X1666500D01*
X1951500Y1084500D02*
X1981500D01*
X1951500Y1118500D02*
X1981500D01*
X314000Y1140000D02*
X321000D01*
X339000D02*
X346000D01*
X330000Y1124000D02*
Y1131000D01*
Y1149000D02*
Y1156000D01*
X2240000Y1029000D02*
Y1036000D01*
X2249000Y1045000D02*
X2256000D01*
X2224000D02*
X2231000D01*
X2240000Y1054000D02*
Y1061000D01*
X2005213Y1147874D02*
Y1141209D01*
X2001881Y1137877D01*
X1998549Y1141209D01*
Y1147874D01*
X1995217D02*
Y1137877D01*
X1990218D01*
X1988552Y1139543D01*
Y1146208D01*
X1990218Y1147874D01*
X1995217D01*
X1978555Y1137877D02*
X1985220D01*
X1978555Y1144542D01*
Y1146208D01*
X1980221Y1147874D01*
X1983554D01*
X1985220Y1146208D01*
X1975223D02*
X1973557Y1147874D01*
X1970225D01*
X1968559Y1146208D01*
Y1139543D01*
X1970225Y1137877D01*
X1973557D01*
X1975223Y1139543D01*
Y1146208D01*
X1690128Y1147874D02*
Y1141209D01*
X1686795Y1137877D01*
X1683463Y1141209D01*
Y1147874D01*
X1680131D02*
Y1137877D01*
X1675132D01*
X1673466Y1139543D01*
Y1146208D01*
X1675132Y1147874D01*
X1680131D01*
X1670134Y1137877D02*
X1666802D01*
X1668468D01*
Y1147874D01*
X1670134Y1146208D01*
X1661803Y1139543D02*
X1660137Y1137877D01*
X1656805D01*
X1655139Y1139543D01*
Y1146208D01*
X1656805Y1147874D01*
X1660137D01*
X1661803Y1146208D01*
Y1144542D01*
X1660137Y1142876D01*
X1655139D01*
X1375296Y1147874D02*
Y1141209D01*
X1371963Y1137877D01*
X1368631Y1141209D01*
Y1147874D01*
X1365299D02*
Y1137877D01*
X1360300D01*
X1358634Y1139543D01*
Y1146208D01*
X1360300Y1147874D01*
X1365299D01*
X1355302Y1137877D02*
X1351970D01*
X1353636D01*
Y1147874D01*
X1355302Y1146208D01*
X1346971D02*
X1345305Y1147874D01*
X1341973D01*
X1340307Y1146208D01*
Y1144542D01*
X1341973Y1142876D01*
X1340307Y1141209D01*
Y1139543D01*
X1341973Y1137877D01*
X1345305D01*
X1346971Y1139543D01*
Y1141209D01*
X1345305Y1142876D01*
X1346971Y1144542D01*
Y1146208D01*
X1345305Y1142876D02*
X1341973D01*
X1060210Y1147874D02*
Y1141209D01*
X1056878Y1137877D01*
X1053545Y1141209D01*
Y1147874D01*
X1050213D02*
Y1137877D01*
X1045215D01*
X1043549Y1139543D01*
Y1146208D01*
X1045215Y1147874D01*
X1050213D01*
X1040216Y1137877D02*
X1036884D01*
X1038550D01*
Y1147874D01*
X1040216Y1146208D01*
X1031886Y1147874D02*
X1025221D01*
Y1146208D01*
X1031886Y1139543D01*
Y1137877D01*
X745124Y1147874D02*
Y1141209D01*
X741792Y1137877D01*
X738459Y1141209D01*
Y1147874D01*
X735127D02*
Y1137877D01*
X730129D01*
X728463Y1139543D01*
Y1146208D01*
X730129Y1147874D01*
X735127D01*
X725130Y1137877D02*
X721798D01*
X723464D01*
Y1147874D01*
X725130Y1146208D01*
X710135Y1147874D02*
X713467Y1146208D01*
X716800Y1142876D01*
Y1139543D01*
X715134Y1137877D01*
X711801D01*
X710135Y1139543D01*
Y1141209D01*
X711801Y1142876D01*
X716800D01*
X430292Y1147874D02*
Y1141209D01*
X426960Y1137877D01*
X423628Y1141209D01*
Y1147874D01*
X420295D02*
Y1137877D01*
X415297D01*
X413631Y1139543D01*
Y1146208D01*
X415297Y1147874D01*
X420295D01*
X410299Y1137877D02*
X406966D01*
X408632D01*
Y1147874D01*
X410299Y1146208D01*
X395303Y1147874D02*
X401968D01*
Y1142876D01*
X398636Y1144542D01*
X396969D01*
X395303Y1142876D01*
Y1139543D01*
X396969Y1137877D01*
X400302D01*
X401968Y1139543D01*
X2110138Y1147874D02*
Y1141209D01*
X2106805Y1137877D01*
X2103473Y1141209D01*
Y1147874D01*
X2100141D02*
Y1137877D01*
X2095142D01*
X2093476Y1139543D01*
Y1146208D01*
X2095142Y1147874D01*
X2100141D01*
X2090144Y1137877D02*
X2086812D01*
X2088478D01*
Y1147874D01*
X2090144Y1146208D01*
X2076815Y1137877D02*
Y1147874D01*
X2081813Y1142876D01*
X2075149D01*
X1795306Y1147874D02*
Y1141209D01*
X1791974Y1137877D01*
X1788641Y1141209D01*
Y1147874D01*
X1785309D02*
Y1137877D01*
X1780311D01*
X1778644Y1139543D01*
Y1146208D01*
X1780311Y1147874D01*
X1785309D01*
X1775312Y1137877D02*
X1771980D01*
X1773646D01*
Y1147874D01*
X1775312Y1146208D01*
X1766982D02*
X1765315Y1147874D01*
X1761983D01*
X1760317Y1146208D01*
Y1144542D01*
X1761983Y1142876D01*
X1763649D01*
X1761983D01*
X1760317Y1141209D01*
Y1139543D01*
X1761983Y1137877D01*
X1765315D01*
X1766982Y1139543D01*
X1480216Y1147874D02*
Y1141209D01*
X1476884Y1137877D01*
X1473551Y1141209D01*
Y1147874D01*
X1470219D02*
Y1137877D01*
X1465221D01*
X1463555Y1139543D01*
Y1146208D01*
X1465221Y1147874D01*
X1470219D01*
X1460222Y1137877D02*
X1456890D01*
X1458556D01*
Y1147874D01*
X1460222Y1146208D01*
X1445227Y1137877D02*
X1451892D01*
X1445227Y1144542D01*
Y1146208D01*
X1446893Y1147874D01*
X1450226D01*
X1451892Y1146208D01*
X1165130Y1147874D02*
Y1141209D01*
X1161798Y1137877D01*
X1158465Y1141209D01*
Y1147874D01*
X1155133D02*
Y1137877D01*
X1150135D01*
X1148469Y1139543D01*
Y1146208D01*
X1150135Y1147874D01*
X1155133D01*
X1145136Y1137877D02*
X1141804D01*
X1143470D01*
Y1147874D01*
X1145136Y1146208D01*
X1136806Y1137877D02*
X1133474D01*
X1135140D01*
Y1147874D01*
X1136806Y1146208D01*
X850298Y1147874D02*
Y1141209D01*
X846966Y1137877D01*
X843634Y1141209D01*
Y1147874D01*
X840301D02*
Y1137877D01*
X835303D01*
X833637Y1139543D01*
Y1146208D01*
X835303Y1147874D01*
X840301D01*
X830305Y1137877D02*
X826972D01*
X828638D01*
Y1147874D01*
X830305Y1146208D01*
X821974D02*
X820308Y1147874D01*
X816975D01*
X815309Y1146208D01*
Y1139543D01*
X816975Y1137877D01*
X820308D01*
X821974Y1139543D01*
Y1146208D01*
X535212Y1147874D02*
Y1141209D01*
X531880Y1137877D01*
X528548Y1141209D01*
Y1147874D01*
X525215D02*
Y1137877D01*
X520217D01*
X518551Y1139543D01*
Y1146208D01*
X520217Y1147874D01*
X525215D01*
X515219Y1139543D02*
X513553Y1137877D01*
X510220D01*
X508554Y1139543D01*
Y1146208D01*
X510220Y1147874D01*
X513553D01*
X515219Y1146208D01*
Y1144542D01*
X513553Y1142876D01*
X508554D01*
X2215130Y1147874D02*
Y1141209D01*
X2211797Y1137877D01*
X2208465Y1141209D01*
Y1147874D01*
X2205133D02*
Y1137877D01*
X2200134D01*
X2198468Y1139543D01*
Y1146208D01*
X2200134Y1147874D01*
X2205133D01*
X2195136D02*
X2188471D01*
Y1146208D01*
X2195136Y1139543D01*
Y1137877D01*
X1900298Y1147874D02*
Y1141209D01*
X1896965Y1137877D01*
X1893633Y1141209D01*
Y1147874D01*
X1890301D02*
Y1137877D01*
X1885302D01*
X1883636Y1139543D01*
Y1146208D01*
X1885302Y1147874D01*
X1890301D01*
X1873640D02*
X1876972Y1146208D01*
X1880304Y1142876D01*
Y1139543D01*
X1878638Y1137877D01*
X1875306D01*
X1873640Y1139543D01*
Y1141209D01*
X1875306Y1142876D01*
X1880304D01*
X1585212Y1147874D02*
Y1141209D01*
X1581879Y1137877D01*
X1578547Y1141209D01*
Y1147874D01*
X1575215D02*
Y1137877D01*
X1570217D01*
X1568551Y1139543D01*
Y1146208D01*
X1570217Y1147874D01*
X1575215D01*
X1558554D02*
X1565218D01*
Y1142876D01*
X1561886Y1144542D01*
X1560220D01*
X1558554Y1142876D01*
Y1139543D01*
X1560220Y1137877D01*
X1563552D01*
X1565218Y1139543D01*
X1270126Y1147874D02*
Y1141209D01*
X1266794Y1137877D01*
X1263461Y1141209D01*
Y1147874D01*
X1260129D02*
Y1137877D01*
X1255131D01*
X1253465Y1139543D01*
Y1146208D01*
X1255131Y1147874D01*
X1260129D01*
X1245134Y1137877D02*
Y1147874D01*
X1250132Y1142876D01*
X1243468D01*
X955294Y1147874D02*
Y1141209D01*
X951962Y1137877D01*
X948630Y1141209D01*
Y1147874D01*
X945297D02*
Y1137877D01*
X940299D01*
X938633Y1139543D01*
Y1146208D01*
X940299Y1147874D01*
X945297D01*
X935301Y1146208D02*
X933634Y1147874D01*
X930302D01*
X928636Y1146208D01*
Y1144542D01*
X930302Y1142876D01*
X931968D01*
X930302D01*
X928636Y1141209D01*
Y1139543D01*
X930302Y1137877D01*
X933634D01*
X935301Y1139543D01*
X640174Y1148001D02*
Y1141336D01*
X636842Y1138004D01*
X633509Y1141336D01*
Y1148001D01*
X630177D02*
Y1138004D01*
X625179D01*
X623513Y1139670D01*
Y1146335D01*
X625179Y1148001D01*
X630177D01*
X613516Y1138004D02*
X620180D01*
X613516Y1144669D01*
Y1146335D01*
X615182Y1148001D01*
X618514D01*
X620180Y1146335D01*
X640250Y1127118D02*
X630093D01*
X635172Y1132196D02*
Y1122039D01*
X955250Y1127118D02*
X945093D01*
X950172Y1132196D02*
Y1122039D01*
X1270250Y1127118D02*
X1260093D01*
X1265172Y1132196D02*
Y1122039D01*
X1585250Y1127118D02*
X1575093D01*
X1580172Y1132196D02*
Y1122039D01*
X1900250Y1127118D02*
X1890093D01*
X1895172Y1132196D02*
Y1122039D01*
X2215250Y1127118D02*
X2205093D01*
X2210172Y1132196D02*
Y1122039D01*
X535250Y1127118D02*
X525093D01*
X530172Y1132196D02*
Y1122039D01*
X850250Y1127118D02*
X840093D01*
X845172Y1132196D02*
Y1122039D01*
X1165250Y1127118D02*
X1155093D01*
X1160172Y1132196D02*
Y1122039D01*
X1480250Y1127118D02*
X1470093D01*
X1475172Y1132196D02*
Y1122039D01*
X1795250Y1127118D02*
X1785093D01*
X1790172Y1132196D02*
Y1122039D01*
X2110250Y1127118D02*
X2100093D01*
X2105172Y1132196D02*
Y1122039D01*
X430250Y1127118D02*
X420093D01*
X425172Y1132196D02*
Y1122039D01*
X745250Y1127118D02*
X735093D01*
X740172Y1132196D02*
Y1122039D01*
X1060250Y1127118D02*
X1050093D01*
X1055172Y1132196D02*
Y1122039D01*
X1375250Y1127118D02*
X1365093D01*
X1370172Y1132196D02*
Y1122039D01*
X1690250Y1127118D02*
X1680093D01*
X1685172Y1132196D02*
Y1122039D01*
X2005250Y1127118D02*
X1995093D01*
X2000172Y1132196D02*
Y1122039D01*
X586500Y1237500D02*
X616500D01*
X586500Y1271500D02*
X616500D01*
X901500Y1237500D02*
X931500D01*
X901500Y1271500D02*
X931500D01*
X1216500Y1237500D02*
X1246500D01*
X1216500Y1271500D02*
X1246500D01*
X1531500Y1237500D02*
X1561500D01*
X1531500Y1271500D02*
X1561500D01*
X1846500Y1237500D02*
X1876500D01*
X1846500Y1271500D02*
X1876500D01*
X2161500Y1237500D02*
X2191500D01*
X2161500Y1271500D02*
X2191500D01*
X481500Y1237500D02*
X511500D01*
X481500Y1271500D02*
X511500D01*
X796500Y1237500D02*
X826500D01*
X796500Y1271500D02*
X826500D01*
X1111500Y1237500D02*
X1141500D01*
X1111500Y1271500D02*
X1141500D01*
X1426500Y1237500D02*
X1456500D01*
X1426500Y1271500D02*
X1456500D01*
X1741500Y1237500D02*
X1771500D01*
X1741500Y1271500D02*
X1771500D01*
X2056500Y1237500D02*
X2086500D01*
X2056500Y1271500D02*
X2086500D01*
X376500Y1237500D02*
X406500D01*
X376500Y1271500D02*
X406500D01*
X691500Y1237500D02*
X721500D01*
X691500Y1271500D02*
X721500D01*
X1006500Y1237500D02*
X1036500D01*
X1006500Y1271500D02*
X1036500D01*
X1321500Y1237500D02*
X1351500D01*
X1321500Y1271500D02*
X1351500D01*
X1636500Y1237500D02*
X1666500D01*
X1636500Y1271500D02*
X1666500D01*
X1951500Y1237500D02*
X1981500D01*
X1951500Y1271500D02*
X1981500D01*
X314000Y1293000D02*
X321000D01*
X339000D02*
X346000D01*
X330000Y1277000D02*
Y1284000D01*
Y1302000D02*
Y1309000D01*
X2240000Y1182000D02*
Y1189000D01*
X2249000Y1198000D02*
X2256000D01*
X2224000D02*
X2231000D01*
X2240000Y1207000D02*
Y1214000D01*
X2005213Y1300874D02*
Y1294209D01*
X2001881Y1290877D01*
X1998549Y1294209D01*
Y1300874D01*
X1995217D02*
Y1290877D01*
X1990218D01*
X1988552Y1292543D01*
Y1299208D01*
X1990218Y1300874D01*
X1995217D01*
X1978555Y1290877D02*
X1985220D01*
X1978555Y1297542D01*
Y1299208D01*
X1980221Y1300874D01*
X1983554D01*
X1985220Y1299208D01*
X1975223D02*
X1973557Y1300874D01*
X1970225D01*
X1968559Y1299208D01*
Y1292543D01*
X1970225Y1290877D01*
X1973557D01*
X1975223Y1292543D01*
Y1299208D01*
X1690128Y1300874D02*
Y1294209D01*
X1686795Y1290877D01*
X1683463Y1294209D01*
Y1300874D01*
X1680131D02*
Y1290877D01*
X1675132D01*
X1673466Y1292543D01*
Y1299208D01*
X1675132Y1300874D01*
X1680131D01*
X1670134Y1290877D02*
X1666802D01*
X1668468D01*
Y1300874D01*
X1670134Y1299208D01*
X1661803Y1292543D02*
X1660137Y1290877D01*
X1656805D01*
X1655139Y1292543D01*
Y1299208D01*
X1656805Y1300874D01*
X1660137D01*
X1661803Y1299208D01*
Y1297542D01*
X1660137Y1295876D01*
X1655139D01*
X1375296Y1300874D02*
Y1294209D01*
X1371963Y1290877D01*
X1368631Y1294209D01*
Y1300874D01*
X1365299D02*
Y1290877D01*
X1360300D01*
X1358634Y1292543D01*
Y1299208D01*
X1360300Y1300874D01*
X1365299D01*
X1355302Y1290877D02*
X1351970D01*
X1353636D01*
Y1300874D01*
X1355302Y1299208D01*
X1346971D02*
X1345305Y1300874D01*
X1341973D01*
X1340307Y1299208D01*
Y1297542D01*
X1341973Y1295876D01*
X1340307Y1294209D01*
Y1292543D01*
X1341973Y1290877D01*
X1345305D01*
X1346971Y1292543D01*
Y1294209D01*
X1345305Y1295876D01*
X1346971Y1297542D01*
Y1299208D01*
X1345305Y1295876D02*
X1341973D01*
X1060210Y1300874D02*
Y1294209D01*
X1056878Y1290877D01*
X1053545Y1294209D01*
Y1300874D01*
X1050213D02*
Y1290877D01*
X1045215D01*
X1043549Y1292543D01*
Y1299208D01*
X1045215Y1300874D01*
X1050213D01*
X1040216Y1290877D02*
X1036884D01*
X1038550D01*
Y1300874D01*
X1040216Y1299208D01*
X1031886Y1300874D02*
X1025221D01*
Y1299208D01*
X1031886Y1292543D01*
Y1290877D01*
X745124Y1300874D02*
Y1294209D01*
X741792Y1290877D01*
X738459Y1294209D01*
Y1300874D01*
X735127D02*
Y1290877D01*
X730129D01*
X728463Y1292543D01*
Y1299208D01*
X730129Y1300874D01*
X735127D01*
X725130Y1290877D02*
X721798D01*
X723464D01*
Y1300874D01*
X725130Y1299208D01*
X710135Y1300874D02*
X713467Y1299208D01*
X716800Y1295876D01*
Y1292543D01*
X715134Y1290877D01*
X711801D01*
X710135Y1292543D01*
Y1294209D01*
X711801Y1295876D01*
X716800D01*
X430292Y1300874D02*
Y1294209D01*
X426960Y1290877D01*
X423628Y1294209D01*
Y1300874D01*
X420295D02*
Y1290877D01*
X415297D01*
X413631Y1292543D01*
Y1299208D01*
X415297Y1300874D01*
X420295D01*
X410299Y1290877D02*
X406966D01*
X408632D01*
Y1300874D01*
X410299Y1299208D01*
X395303Y1300874D02*
X401968D01*
Y1295876D01*
X398636Y1297542D01*
X396969D01*
X395303Y1295876D01*
Y1292543D01*
X396969Y1290877D01*
X400302D01*
X401968Y1292543D01*
X2110138Y1300874D02*
Y1294209D01*
X2106805Y1290877D01*
X2103473Y1294209D01*
Y1300874D01*
X2100141D02*
Y1290877D01*
X2095142D01*
X2093476Y1292543D01*
Y1299208D01*
X2095142Y1300874D01*
X2100141D01*
X2090144Y1290877D02*
X2086812D01*
X2088478D01*
Y1300874D01*
X2090144Y1299208D01*
X2076815Y1290877D02*
Y1300874D01*
X2081813Y1295876D01*
X2075149D01*
X1795306Y1300874D02*
Y1294209D01*
X1791974Y1290877D01*
X1788641Y1294209D01*
Y1300874D01*
X1785309D02*
Y1290877D01*
X1780311D01*
X1778644Y1292543D01*
Y1299208D01*
X1780311Y1300874D01*
X1785309D01*
X1775312Y1290877D02*
X1771980D01*
X1773646D01*
Y1300874D01*
X1775312Y1299208D01*
X1766982D02*
X1765315Y1300874D01*
X1761983D01*
X1760317Y1299208D01*
Y1297542D01*
X1761983Y1295876D01*
X1763649D01*
X1761983D01*
X1760317Y1294209D01*
Y1292543D01*
X1761983Y1290877D01*
X1765315D01*
X1766982Y1292543D01*
X1480216Y1300874D02*
Y1294209D01*
X1476884Y1290877D01*
X1473551Y1294209D01*
Y1300874D01*
X1470219D02*
Y1290877D01*
X1465221D01*
X1463555Y1292543D01*
Y1299208D01*
X1465221Y1300874D01*
X1470219D01*
X1460222Y1290877D02*
X1456890D01*
X1458556D01*
Y1300874D01*
X1460222Y1299208D01*
X1445227Y1290877D02*
X1451892D01*
X1445227Y1297542D01*
Y1299208D01*
X1446893Y1300874D01*
X1450226D01*
X1451892Y1299208D01*
X1165130Y1300874D02*
Y1294209D01*
X1161798Y1290877D01*
X1158465Y1294209D01*
Y1300874D01*
X1155133D02*
Y1290877D01*
X1150135D01*
X1148469Y1292543D01*
Y1299208D01*
X1150135Y1300874D01*
X1155133D01*
X1145136Y1290877D02*
X1141804D01*
X1143470D01*
Y1300874D01*
X1145136Y1299208D01*
X1136806Y1290877D02*
X1133474D01*
X1135140D01*
Y1300874D01*
X1136806Y1299208D01*
X850298Y1300874D02*
Y1294209D01*
X846966Y1290877D01*
X843634Y1294209D01*
Y1300874D01*
X840301D02*
Y1290877D01*
X835303D01*
X833637Y1292543D01*
Y1299208D01*
X835303Y1300874D01*
X840301D01*
X830305Y1290877D02*
X826972D01*
X828638D01*
Y1300874D01*
X830305Y1299208D01*
X821974D02*
X820308Y1300874D01*
X816975D01*
X815309Y1299208D01*
Y1292543D01*
X816975Y1290877D01*
X820308D01*
X821974Y1292543D01*
Y1299208D01*
X535212Y1300874D02*
Y1294209D01*
X531880Y1290877D01*
X528548Y1294209D01*
Y1300874D01*
X525215D02*
Y1290877D01*
X520217D01*
X518551Y1292543D01*
Y1299208D01*
X520217Y1300874D01*
X525215D01*
X515219Y1292543D02*
X513553Y1290877D01*
X510220D01*
X508554Y1292543D01*
Y1299208D01*
X510220Y1300874D01*
X513553D01*
X515219Y1299208D01*
Y1297542D01*
X513553Y1295876D01*
X508554D01*
X2215130Y1300874D02*
Y1294209D01*
X2211797Y1290877D01*
X2208465Y1294209D01*
Y1300874D01*
X2205133D02*
Y1290877D01*
X2200134D01*
X2198468Y1292543D01*
Y1299208D01*
X2200134Y1300874D01*
X2205133D01*
X2195136D02*
X2188471D01*
Y1299208D01*
X2195136Y1292543D01*
Y1290877D01*
X1900298Y1300874D02*
Y1294209D01*
X1896965Y1290877D01*
X1893633Y1294209D01*
Y1300874D01*
X1890301D02*
Y1290877D01*
X1885302D01*
X1883636Y1292543D01*
Y1299208D01*
X1885302Y1300874D01*
X1890301D01*
X1873640D02*
X1876972Y1299208D01*
X1880304Y1295876D01*
Y1292543D01*
X1878638Y1290877D01*
X1875306D01*
X1873640Y1292543D01*
Y1294209D01*
X1875306Y1295876D01*
X1880304D01*
X1585212Y1300874D02*
Y1294209D01*
X1581879Y1290877D01*
X1578547Y1294209D01*
Y1300874D01*
X1575215D02*
Y1290877D01*
X1570217D01*
X1568551Y1292543D01*
Y1299208D01*
X1570217Y1300874D01*
X1575215D01*
X1558554D02*
X1565218D01*
Y1295876D01*
X1561886Y1297542D01*
X1560220D01*
X1558554Y1295876D01*
Y1292543D01*
X1560220Y1290877D01*
X1563552D01*
X1565218Y1292543D01*
X1270126Y1300874D02*
Y1294209D01*
X1266794Y1290877D01*
X1263461Y1294209D01*
Y1300874D01*
X1260129D02*
Y1290877D01*
X1255131D01*
X1253465Y1292543D01*
Y1299208D01*
X1255131Y1300874D01*
X1260129D01*
X1245134Y1290877D02*
Y1300874D01*
X1250132Y1295876D01*
X1243468D01*
X955294Y1300874D02*
Y1294209D01*
X951962Y1290877D01*
X948630Y1294209D01*
Y1300874D01*
X945297D02*
Y1290877D01*
X940299D01*
X938633Y1292543D01*
Y1299208D01*
X940299Y1300874D01*
X945297D01*
X935301Y1299208D02*
X933634Y1300874D01*
X930302D01*
X928636Y1299208D01*
Y1297542D01*
X930302Y1295876D01*
X931968D01*
X930302D01*
X928636Y1294209D01*
Y1292543D01*
X930302Y1290877D01*
X933634D01*
X935301Y1292543D01*
X640174Y1301001D02*
Y1294336D01*
X636842Y1291004D01*
X633509Y1294336D01*
Y1301001D01*
X630177D02*
Y1291004D01*
X625179D01*
X623513Y1292670D01*
Y1299335D01*
X625179Y1301001D01*
X630177D01*
X613516Y1291004D02*
X620180D01*
X613516Y1297669D01*
Y1299335D01*
X615182Y1301001D01*
X618514D01*
X620180Y1299335D01*
X640250Y1280118D02*
X630093D01*
X635172Y1285196D02*
Y1275039D01*
X955250Y1280118D02*
X945093D01*
X950172Y1285196D02*
Y1275039D01*
X1270250Y1280118D02*
X1260093D01*
X1265172Y1285196D02*
Y1275039D01*
X1585250Y1280118D02*
X1575093D01*
X1580172Y1285196D02*
Y1275039D01*
X1900250Y1280118D02*
X1890093D01*
X1895172Y1285196D02*
Y1275039D01*
X2215250Y1280118D02*
X2205093D01*
X2210172Y1285196D02*
Y1275039D01*
X535250Y1280118D02*
X525093D01*
X530172Y1285196D02*
Y1275039D01*
X850250Y1280118D02*
X840093D01*
X845172Y1285196D02*
Y1275039D01*
X1165250Y1280118D02*
X1155093D01*
X1160172Y1285196D02*
Y1275039D01*
X1480250Y1280118D02*
X1470093D01*
X1475172Y1285196D02*
Y1275039D01*
X1795250Y1280118D02*
X1785093D01*
X1790172Y1285196D02*
Y1275039D01*
X2110250Y1280118D02*
X2100093D01*
X2105172Y1285196D02*
Y1275039D01*
X430250Y1280118D02*
X420093D01*
X425172Y1285196D02*
Y1275039D01*
X745250Y1280118D02*
X735093D01*
X740172Y1285196D02*
Y1275039D01*
X1060250Y1280118D02*
X1050093D01*
X1055172Y1285196D02*
Y1275039D01*
X1375250Y1280118D02*
X1365093D01*
X1370172Y1285196D02*
Y1275039D01*
X1690250Y1280118D02*
X1680093D01*
X1685172Y1285196D02*
Y1275039D01*
X2005250Y1280118D02*
X1995093D01*
X2000172Y1285196D02*
Y1275039D01*
X586500Y1390500D02*
X616500D01*
X586500Y1424500D02*
X616500D01*
X901500Y1390500D02*
X931500D01*
X901500Y1424500D02*
X931500D01*
X1216500Y1390500D02*
X1246500D01*
X1216500Y1424500D02*
X1246500D01*
X1531500Y1390500D02*
X1561500D01*
X1531500Y1424500D02*
X1561500D01*
X1846500Y1390500D02*
X1876500D01*
X1846500Y1424500D02*
X1876500D01*
X2161500Y1390500D02*
X2191500D01*
X2161500Y1424500D02*
X2191500D01*
X481500Y1390500D02*
X511500D01*
X481500Y1424500D02*
X511500D01*
X796500Y1390500D02*
X826500D01*
X796500Y1424500D02*
X826500D01*
X1111500Y1390500D02*
X1141500D01*
X1111500Y1424500D02*
X1141500D01*
X1426500Y1390500D02*
X1456500D01*
X1426500Y1424500D02*
X1456500D01*
X1741500Y1390500D02*
X1771500D01*
X1741500Y1424500D02*
X1771500D01*
X2056500Y1390500D02*
X2086500D01*
X2056500Y1424500D02*
X2086500D01*
X376500Y1390500D02*
X406500D01*
X376500Y1424500D02*
X406500D01*
X691500Y1390500D02*
X721500D01*
X691500Y1424500D02*
X721500D01*
X1006500Y1390500D02*
X1036500D01*
X1006500Y1424500D02*
X1036500D01*
X1321500Y1390500D02*
X1351500D01*
X1321500Y1424500D02*
X1351500D01*
X1636500Y1390500D02*
X1666500D01*
X1636500Y1424500D02*
X1666500D01*
X1951500Y1390500D02*
X1981500D01*
X1951500Y1424500D02*
X1981500D01*
X314000Y1446000D02*
X321000D01*
X339000D02*
X346000D01*
X330000Y1430000D02*
Y1437000D01*
Y1455000D02*
Y1462000D01*
X2240000Y1335000D02*
Y1342000D01*
X2249000Y1351000D02*
X2256000D01*
X2224000D02*
X2231000D01*
X2240000Y1360000D02*
Y1367000D01*
X2005213Y1453874D02*
Y1447209D01*
X2001881Y1443877D01*
X1998549Y1447209D01*
Y1453874D01*
X1995217D02*
Y1443877D01*
X1990218D01*
X1988552Y1445543D01*
Y1452208D01*
X1990218Y1453874D01*
X1995217D01*
X1978555Y1443877D02*
X1985220D01*
X1978555Y1450542D01*
Y1452208D01*
X1980221Y1453874D01*
X1983554D01*
X1985220Y1452208D01*
X1975223D02*
X1973557Y1453874D01*
X1970225D01*
X1968559Y1452208D01*
Y1445543D01*
X1970225Y1443877D01*
X1973557D01*
X1975223Y1445543D01*
Y1452208D01*
X1690128Y1453874D02*
Y1447209D01*
X1686795Y1443877D01*
X1683463Y1447209D01*
Y1453874D01*
X1680131D02*
Y1443877D01*
X1675132D01*
X1673466Y1445543D01*
Y1452208D01*
X1675132Y1453874D01*
X1680131D01*
X1670134Y1443877D02*
X1666802D01*
X1668468D01*
Y1453874D01*
X1670134Y1452208D01*
X1661803Y1445543D02*
X1660137Y1443877D01*
X1656805D01*
X1655139Y1445543D01*
Y1452208D01*
X1656805Y1453874D01*
X1660137D01*
X1661803Y1452208D01*
Y1450542D01*
X1660137Y1448875D01*
X1655139D01*
X1375296Y1453874D02*
Y1447209D01*
X1371963Y1443877D01*
X1368631Y1447209D01*
Y1453874D01*
X1365299D02*
Y1443877D01*
X1360300D01*
X1358634Y1445543D01*
Y1452208D01*
X1360300Y1453874D01*
X1365299D01*
X1355302Y1443877D02*
X1351970D01*
X1353636D01*
Y1453874D01*
X1355302Y1452208D01*
X1346971D02*
X1345305Y1453874D01*
X1341973D01*
X1340307Y1452208D01*
Y1450542D01*
X1341973Y1448875D01*
X1340307Y1447209D01*
Y1445543D01*
X1341973Y1443877D01*
X1345305D01*
X1346971Y1445543D01*
Y1447209D01*
X1345305Y1448875D01*
X1346971Y1450542D01*
Y1452208D01*
X1345305Y1448875D02*
X1341973D01*
X1060210Y1453874D02*
Y1447209D01*
X1056878Y1443877D01*
X1053545Y1447209D01*
Y1453874D01*
X1050213D02*
Y1443877D01*
X1045215D01*
X1043549Y1445543D01*
Y1452208D01*
X1045215Y1453874D01*
X1050213D01*
X1040216Y1443877D02*
X1036884D01*
X1038550D01*
Y1453874D01*
X1040216Y1452208D01*
X1031886Y1453874D02*
X1025221D01*
Y1452208D01*
X1031886Y1445543D01*
Y1443877D01*
X745124Y1453874D02*
Y1447209D01*
X741792Y1443877D01*
X738459Y1447209D01*
Y1453874D01*
X735127D02*
Y1443877D01*
X730129D01*
X728463Y1445543D01*
Y1452208D01*
X730129Y1453874D01*
X735127D01*
X725130Y1443877D02*
X721798D01*
X723464D01*
Y1453874D01*
X725130Y1452208D01*
X710135Y1453874D02*
X713467Y1452208D01*
X716800Y1448875D01*
Y1445543D01*
X715134Y1443877D01*
X711801D01*
X710135Y1445543D01*
Y1447209D01*
X711801Y1448875D01*
X716800D01*
X430292Y1453874D02*
Y1447209D01*
X426960Y1443877D01*
X423628Y1447209D01*
Y1453874D01*
X420295D02*
Y1443877D01*
X415297D01*
X413631Y1445543D01*
Y1452208D01*
X415297Y1453874D01*
X420295D01*
X410299Y1443877D02*
X406966D01*
X408632D01*
Y1453874D01*
X410299Y1452208D01*
X395303Y1453874D02*
X401968D01*
Y1448875D01*
X398636Y1450542D01*
X396969D01*
X395303Y1448875D01*
Y1445543D01*
X396969Y1443877D01*
X400302D01*
X401968Y1445543D01*
X2110138Y1453874D02*
Y1447209D01*
X2106805Y1443877D01*
X2103473Y1447209D01*
Y1453874D01*
X2100141D02*
Y1443877D01*
X2095142D01*
X2093476Y1445543D01*
Y1452208D01*
X2095142Y1453874D01*
X2100141D01*
X2090144Y1443877D02*
X2086812D01*
X2088478D01*
Y1453874D01*
X2090144Y1452208D01*
X2076815Y1443877D02*
Y1453874D01*
X2081813Y1448875D01*
X2075149D01*
X1795306Y1453874D02*
Y1447209D01*
X1791974Y1443877D01*
X1788641Y1447209D01*
Y1453874D01*
X1785309D02*
Y1443877D01*
X1780311D01*
X1778644Y1445543D01*
Y1452208D01*
X1780311Y1453874D01*
X1785309D01*
X1775312Y1443877D02*
X1771980D01*
X1773646D01*
Y1453874D01*
X1775312Y1452208D01*
X1766982D02*
X1765315Y1453874D01*
X1761983D01*
X1760317Y1452208D01*
Y1450542D01*
X1761983Y1448875D01*
X1763649D01*
X1761983D01*
X1760317Y1447209D01*
Y1445543D01*
X1761983Y1443877D01*
X1765315D01*
X1766982Y1445543D01*
X1480216Y1453874D02*
Y1447209D01*
X1476884Y1443877D01*
X1473551Y1447209D01*
Y1453874D01*
X1470219D02*
Y1443877D01*
X1465221D01*
X1463555Y1445543D01*
Y1452208D01*
X1465221Y1453874D01*
X1470219D01*
X1460222Y1443877D02*
X1456890D01*
X1458556D01*
Y1453874D01*
X1460222Y1452208D01*
X1445227Y1443877D02*
X1451892D01*
X1445227Y1450542D01*
Y1452208D01*
X1446893Y1453874D01*
X1450226D01*
X1451892Y1452208D01*
X1165130Y1453874D02*
Y1447209D01*
X1161798Y1443877D01*
X1158465Y1447209D01*
Y1453874D01*
X1155133D02*
Y1443877D01*
X1150135D01*
X1148469Y1445543D01*
Y1452208D01*
X1150135Y1453874D01*
X1155133D01*
X1145136Y1443877D02*
X1141804D01*
X1143470D01*
Y1453874D01*
X1145136Y1452208D01*
X1136806Y1443877D02*
X1133474D01*
X1135140D01*
Y1453874D01*
X1136806Y1452208D01*
X850298Y1453874D02*
Y1447209D01*
X846966Y1443877D01*
X843634Y1447209D01*
Y1453874D01*
X840301D02*
Y1443877D01*
X835303D01*
X833637Y1445543D01*
Y1452208D01*
X835303Y1453874D01*
X840301D01*
X830305Y1443877D02*
X826972D01*
X828638D01*
Y1453874D01*
X830305Y1452208D01*
X821974D02*
X820308Y1453874D01*
X816975D01*
X815309Y1452208D01*
Y1445543D01*
X816975Y1443877D01*
X820308D01*
X821974Y1445543D01*
Y1452208D01*
X535212Y1453874D02*
Y1447209D01*
X531880Y1443877D01*
X528548Y1447209D01*
Y1453874D01*
X525215D02*
Y1443877D01*
X520217D01*
X518551Y1445543D01*
Y1452208D01*
X520217Y1453874D01*
X525215D01*
X515219Y1445543D02*
X513553Y1443877D01*
X510220D01*
X508554Y1445543D01*
Y1452208D01*
X510220Y1453874D01*
X513553D01*
X515219Y1452208D01*
Y1450542D01*
X513553Y1448875D01*
X508554D01*
X2215130Y1453874D02*
Y1447209D01*
X2211797Y1443877D01*
X2208465Y1447209D01*
Y1453874D01*
X2205133D02*
Y1443877D01*
X2200134D01*
X2198468Y1445543D01*
Y1452208D01*
X2200134Y1453874D01*
X2205133D01*
X2195136D02*
X2188471D01*
Y1452208D01*
X2195136Y1445543D01*
Y1443877D01*
X1900298Y1453874D02*
Y1447209D01*
X1896965Y1443877D01*
X1893633Y1447209D01*
Y1453874D01*
X1890301D02*
Y1443877D01*
X1885302D01*
X1883636Y1445543D01*
Y1452208D01*
X1885302Y1453874D01*
X1890301D01*
X1873640D02*
X1876972Y1452208D01*
X1880304Y1448875D01*
Y1445543D01*
X1878638Y1443877D01*
X1875306D01*
X1873640Y1445543D01*
Y1447209D01*
X1875306Y1448875D01*
X1880304D01*
X1585212Y1453874D02*
Y1447209D01*
X1581879Y1443877D01*
X1578547Y1447209D01*
Y1453874D01*
X1575215D02*
Y1443877D01*
X1570217D01*
X1568551Y1445543D01*
Y1452208D01*
X1570217Y1453874D01*
X1575215D01*
X1558554D02*
X1565218D01*
Y1448875D01*
X1561886Y1450542D01*
X1560220D01*
X1558554Y1448875D01*
Y1445543D01*
X1560220Y1443877D01*
X1563552D01*
X1565218Y1445543D01*
X1270126Y1453874D02*
Y1447209D01*
X1266794Y1443877D01*
X1263461Y1447209D01*
Y1453874D01*
X1260129D02*
Y1443877D01*
X1255131D01*
X1253465Y1445543D01*
Y1452208D01*
X1255131Y1453874D01*
X1260129D01*
X1245134Y1443877D02*
Y1453874D01*
X1250132Y1448875D01*
X1243468D01*
X955294Y1453874D02*
Y1447209D01*
X951962Y1443877D01*
X948630Y1447209D01*
Y1453874D01*
X945297D02*
Y1443877D01*
X940299D01*
X938633Y1445543D01*
Y1452208D01*
X940299Y1453874D01*
X945297D01*
X935301Y1452208D02*
X933634Y1453874D01*
X930302D01*
X928636Y1452208D01*
Y1450542D01*
X930302Y1448875D01*
X931968D01*
X930302D01*
X928636Y1447209D01*
Y1445543D01*
X930302Y1443877D01*
X933634D01*
X935301Y1445543D01*
X640174Y1454001D02*
Y1447336D01*
X636842Y1444004D01*
X633509Y1447336D01*
Y1454001D01*
X630177D02*
Y1444004D01*
X625179D01*
X623513Y1445670D01*
Y1452335D01*
X625179Y1454001D01*
X630177D01*
X613516Y1444004D02*
X620180D01*
X613516Y1450669D01*
Y1452335D01*
X615182Y1454001D01*
X618514D01*
X620180Y1452335D01*
X640250Y1433118D02*
X630093D01*
X635172Y1438196D02*
Y1428039D01*
X955250Y1433118D02*
X945093D01*
X950172Y1438196D02*
Y1428039D01*
X1270250Y1433118D02*
X1260093D01*
X1265172Y1438196D02*
Y1428039D01*
X1585250Y1433118D02*
X1575093D01*
X1580172Y1438196D02*
Y1428039D01*
X1900250Y1433118D02*
X1890093D01*
X1895172Y1438196D02*
Y1428039D01*
X2215250Y1433118D02*
X2205093D01*
X2210172Y1438196D02*
Y1428039D01*
X535250Y1433118D02*
X525093D01*
X530172Y1438196D02*
Y1428039D01*
X850250Y1433118D02*
X840093D01*
X845172Y1438196D02*
Y1428039D01*
X1165250Y1433118D02*
X1155093D01*
X1160172Y1438196D02*
Y1428039D01*
X1480250Y1433118D02*
X1470093D01*
X1475172Y1438196D02*
Y1428039D01*
X1795250Y1433118D02*
X1785093D01*
X1790172Y1438196D02*
Y1428039D01*
X2110250Y1433118D02*
X2100093D01*
X2105172Y1438196D02*
Y1428039D01*
X430250Y1433118D02*
X420093D01*
X425172Y1438196D02*
Y1428039D01*
X745250Y1433118D02*
X735093D01*
X740172Y1438196D02*
Y1428039D01*
X1060250Y1433118D02*
X1050093D01*
X1055172Y1438196D02*
Y1428039D01*
X1375250Y1433118D02*
X1365093D01*
X1370172Y1438196D02*
Y1428039D01*
X1690250Y1433118D02*
X1680093D01*
X1685172Y1438196D02*
Y1428039D01*
X2005250Y1433118D02*
X1995093D01*
X2000172Y1438196D02*
Y1428039D01*
X586500Y1543500D02*
X616500D01*
X586500Y1577500D02*
X616500D01*
X901500Y1543500D02*
X931500D01*
X901500Y1577500D02*
X931500D01*
X1216500Y1543500D02*
X1246500D01*
X1216500Y1577500D02*
X1246500D01*
X1531500Y1543500D02*
X1561500D01*
X1531500Y1577500D02*
X1561500D01*
X1846500Y1543500D02*
X1876500D01*
X1846500Y1577500D02*
X1876500D01*
X2161500Y1543500D02*
X2191500D01*
X2161500Y1577500D02*
X2191500D01*
X481500Y1543500D02*
X511500D01*
X481500Y1577500D02*
X511500D01*
X796500Y1543500D02*
X826500D01*
X796500Y1577500D02*
X826500D01*
X1111500Y1543500D02*
X1141500D01*
X1111500Y1577500D02*
X1141500D01*
X1426500Y1543500D02*
X1456500D01*
X1426500Y1577500D02*
X1456500D01*
X1741500Y1543500D02*
X1771500D01*
X1741500Y1577500D02*
X1771500D01*
X2056500Y1543500D02*
X2086500D01*
X2056500Y1577500D02*
X2086500D01*
X376500Y1543500D02*
X406500D01*
X376500Y1577500D02*
X406500D01*
X691500Y1543500D02*
X721500D01*
X691500Y1577500D02*
X721500D01*
X1006500Y1543500D02*
X1036500D01*
X1006500Y1577500D02*
X1036500D01*
X1321500Y1543500D02*
X1351500D01*
X1321500Y1577500D02*
X1351500D01*
X1636500Y1543500D02*
X1666500D01*
X1636500Y1577500D02*
X1666500D01*
X1951500Y1543500D02*
X1981500D01*
X1951500Y1577500D02*
X1981500D01*
X314000Y1599000D02*
X321000D01*
X339000D02*
X346000D01*
X330000Y1583000D02*
Y1590000D01*
Y1608000D02*
Y1615000D01*
X2240000Y1488000D02*
Y1495000D01*
X2249000Y1504000D02*
X2256000D01*
X2224000D02*
X2231000D01*
X2240000Y1513000D02*
Y1520000D01*
X2005213Y1606874D02*
Y1600209D01*
X2001881Y1596877D01*
X1998549Y1600209D01*
Y1606874D01*
X1995217D02*
Y1596877D01*
X1990218D01*
X1988552Y1598543D01*
Y1605208D01*
X1990218Y1606874D01*
X1995217D01*
X1978555Y1596877D02*
X1985220D01*
X1978555Y1603542D01*
Y1605208D01*
X1980221Y1606874D01*
X1983554D01*
X1985220Y1605208D01*
X1975223D02*
X1973557Y1606874D01*
X1970225D01*
X1968559Y1605208D01*
Y1598543D01*
X1970225Y1596877D01*
X1973557D01*
X1975223Y1598543D01*
Y1605208D01*
X1690128Y1606874D02*
Y1600209D01*
X1686795Y1596877D01*
X1683463Y1600209D01*
Y1606874D01*
X1680131D02*
Y1596877D01*
X1675132D01*
X1673466Y1598543D01*
Y1605208D01*
X1675132Y1606874D01*
X1680131D01*
X1670134Y1596877D02*
X1666802D01*
X1668468D01*
Y1606874D01*
X1670134Y1605208D01*
X1661803Y1598543D02*
X1660137Y1596877D01*
X1656805D01*
X1655139Y1598543D01*
Y1605208D01*
X1656805Y1606874D01*
X1660137D01*
X1661803Y1605208D01*
Y1603542D01*
X1660137Y1601876D01*
X1655139D01*
X1375296Y1606874D02*
Y1600209D01*
X1371963Y1596877D01*
X1368631Y1600209D01*
Y1606874D01*
X1365299D02*
Y1596877D01*
X1360300D01*
X1358634Y1598543D01*
Y1605208D01*
X1360300Y1606874D01*
X1365299D01*
X1355302Y1596877D02*
X1351970D01*
X1353636D01*
Y1606874D01*
X1355302Y1605208D01*
X1346971D02*
X1345305Y1606874D01*
X1341973D01*
X1340307Y1605208D01*
Y1603542D01*
X1341973Y1601876D01*
X1340307Y1600209D01*
Y1598543D01*
X1341973Y1596877D01*
X1345305D01*
X1346971Y1598543D01*
Y1600209D01*
X1345305Y1601876D01*
X1346971Y1603542D01*
Y1605208D01*
X1345305Y1601876D02*
X1341973D01*
X1060210Y1606874D02*
Y1600209D01*
X1056878Y1596877D01*
X1053545Y1600209D01*
Y1606874D01*
X1050213D02*
Y1596877D01*
X1045215D01*
X1043549Y1598543D01*
Y1605208D01*
X1045215Y1606874D01*
X1050213D01*
X1040216Y1596877D02*
X1036884D01*
X1038550D01*
Y1606874D01*
X1040216Y1605208D01*
X1031886Y1606874D02*
X1025221D01*
Y1605208D01*
X1031886Y1598543D01*
Y1596877D01*
X745124Y1606874D02*
Y1600209D01*
X741792Y1596877D01*
X738459Y1600209D01*
Y1606874D01*
X735127D02*
Y1596877D01*
X730129D01*
X728463Y1598543D01*
Y1605208D01*
X730129Y1606874D01*
X735127D01*
X725130Y1596877D02*
X721798D01*
X723464D01*
Y1606874D01*
X725130Y1605208D01*
X710135Y1606874D02*
X713467Y1605208D01*
X716800Y1601876D01*
Y1598543D01*
X715134Y1596877D01*
X711801D01*
X710135Y1598543D01*
Y1600209D01*
X711801Y1601876D01*
X716800D01*
X430292Y1606874D02*
Y1600209D01*
X426960Y1596877D01*
X423628Y1600209D01*
Y1606874D01*
X420295D02*
Y1596877D01*
X415297D01*
X413631Y1598543D01*
Y1605208D01*
X415297Y1606874D01*
X420295D01*
X410299Y1596877D02*
X406966D01*
X408632D01*
Y1606874D01*
X410299Y1605208D01*
X395303Y1606874D02*
X401968D01*
Y1601876D01*
X398636Y1603542D01*
X396969D01*
X395303Y1601876D01*
Y1598543D01*
X396969Y1596877D01*
X400302D01*
X401968Y1598543D01*
X2110138Y1606874D02*
Y1600209D01*
X2106805Y1596877D01*
X2103473Y1600209D01*
Y1606874D01*
X2100141D02*
Y1596877D01*
X2095142D01*
X2093476Y1598543D01*
Y1605208D01*
X2095142Y1606874D01*
X2100141D01*
X2090144Y1596877D02*
X2086812D01*
X2088478D01*
Y1606874D01*
X2090144Y1605208D01*
X2076815Y1596877D02*
Y1606874D01*
X2081813Y1601876D01*
X2075149D01*
X1795306Y1606874D02*
Y1600209D01*
X1791974Y1596877D01*
X1788641Y1600209D01*
Y1606874D01*
X1785309D02*
Y1596877D01*
X1780311D01*
X1778644Y1598543D01*
Y1605208D01*
X1780311Y1606874D01*
X1785309D01*
X1775312Y1596877D02*
X1771980D01*
X1773646D01*
Y1606874D01*
X1775312Y1605208D01*
X1766982D02*
X1765315Y1606874D01*
X1761983D01*
X1760317Y1605208D01*
Y1603542D01*
X1761983Y1601876D01*
X1763649D01*
X1761983D01*
X1760317Y1600209D01*
Y1598543D01*
X1761983Y1596877D01*
X1765315D01*
X1766982Y1598543D01*
X1480216Y1606874D02*
Y1600209D01*
X1476884Y1596877D01*
X1473551Y1600209D01*
Y1606874D01*
X1470219D02*
Y1596877D01*
X1465221D01*
X1463555Y1598543D01*
Y1605208D01*
X1465221Y1606874D01*
X1470219D01*
X1460222Y1596877D02*
X1456890D01*
X1458556D01*
Y1606874D01*
X1460222Y1605208D01*
X1445227Y1596877D02*
X1451892D01*
X1445227Y1603542D01*
Y1605208D01*
X1446893Y1606874D01*
X1450226D01*
X1451892Y1605208D01*
X1165130Y1606874D02*
Y1600209D01*
X1161798Y1596877D01*
X1158465Y1600209D01*
Y1606874D01*
X1155133D02*
Y1596877D01*
X1150135D01*
X1148469Y1598543D01*
Y1605208D01*
X1150135Y1606874D01*
X1155133D01*
X1145136Y1596877D02*
X1141804D01*
X1143470D01*
Y1606874D01*
X1145136Y1605208D01*
X1136806Y1596877D02*
X1133474D01*
X1135140D01*
Y1606874D01*
X1136806Y1605208D01*
X850298Y1606874D02*
Y1600209D01*
X846966Y1596877D01*
X843634Y1600209D01*
Y1606874D01*
X840301D02*
Y1596877D01*
X835303D01*
X833637Y1598543D01*
Y1605208D01*
X835303Y1606874D01*
X840301D01*
X830305Y1596877D02*
X826972D01*
X828638D01*
Y1606874D01*
X830305Y1605208D01*
X821974D02*
X820308Y1606874D01*
X816975D01*
X815309Y1605208D01*
Y1598543D01*
X816975Y1596877D01*
X820308D01*
X821974Y1598543D01*
Y1605208D01*
X535212Y1606874D02*
Y1600209D01*
X531880Y1596877D01*
X528548Y1600209D01*
Y1606874D01*
X525215D02*
Y1596877D01*
X520217D01*
X518551Y1598543D01*
Y1605208D01*
X520217Y1606874D01*
X525215D01*
X515219Y1598543D02*
X513553Y1596877D01*
X510220D01*
X508554Y1598543D01*
Y1605208D01*
X510220Y1606874D01*
X513553D01*
X515219Y1605208D01*
Y1603542D01*
X513553Y1601876D01*
X508554D01*
X2215130Y1606874D02*
Y1600209D01*
X2211797Y1596877D01*
X2208465Y1600209D01*
Y1606874D01*
X2205133D02*
Y1596877D01*
X2200134D01*
X2198468Y1598543D01*
Y1605208D01*
X2200134Y1606874D01*
X2205133D01*
X2195136D02*
X2188471D01*
Y1605208D01*
X2195136Y1598543D01*
Y1596877D01*
X1900298Y1606874D02*
Y1600209D01*
X1896965Y1596877D01*
X1893633Y1600209D01*
Y1606874D01*
X1890301D02*
Y1596877D01*
X1885302D01*
X1883636Y1598543D01*
Y1605208D01*
X1885302Y1606874D01*
X1890301D01*
X1873640D02*
X1876972Y1605208D01*
X1880304Y1601876D01*
Y1598543D01*
X1878638Y1596877D01*
X1875306D01*
X1873640Y1598543D01*
Y1600209D01*
X1875306Y1601876D01*
X1880304D01*
X1585212Y1606874D02*
Y1600209D01*
X1581879Y1596877D01*
X1578547Y1600209D01*
Y1606874D01*
X1575215D02*
Y1596877D01*
X1570217D01*
X1568551Y1598543D01*
Y1605208D01*
X1570217Y1606874D01*
X1575215D01*
X1558554D02*
X1565218D01*
Y1601876D01*
X1561886Y1603542D01*
X1560220D01*
X1558554Y1601876D01*
Y1598543D01*
X1560220Y1596877D01*
X1563552D01*
X1565218Y1598543D01*
X1270126Y1606874D02*
Y1600209D01*
X1266794Y1596877D01*
X1263461Y1600209D01*
Y1606874D01*
X1260129D02*
Y1596877D01*
X1255131D01*
X1253465Y1598543D01*
Y1605208D01*
X1255131Y1606874D01*
X1260129D01*
X1245134Y1596877D02*
Y1606874D01*
X1250132Y1601876D01*
X1243468D01*
X955294Y1606874D02*
Y1600209D01*
X951962Y1596877D01*
X948630Y1600209D01*
Y1606874D01*
X945297D02*
Y1596877D01*
X940299D01*
X938633Y1598543D01*
Y1605208D01*
X940299Y1606874D01*
X945297D01*
X935301Y1605208D02*
X933634Y1606874D01*
X930302D01*
X928636Y1605208D01*
Y1603542D01*
X930302Y1601876D01*
X931968D01*
X930302D01*
X928636Y1600209D01*
Y1598543D01*
X930302Y1596877D01*
X933634D01*
X935301Y1598543D01*
X640174Y1607001D02*
Y1600336D01*
X636842Y1597004D01*
X633509Y1600336D01*
Y1607001D01*
X630177D02*
Y1597004D01*
X625179D01*
X623513Y1598670D01*
Y1605335D01*
X625179Y1607001D01*
X630177D01*
X613516Y1597004D02*
X620180D01*
X613516Y1603669D01*
Y1605335D01*
X615182Y1607001D01*
X618514D01*
X620180Y1605335D01*
X640250Y1586118D02*
X630093D01*
X635172Y1591196D02*
Y1581039D01*
X955250Y1586118D02*
X945093D01*
X950172Y1591196D02*
Y1581039D01*
X1270250Y1586118D02*
X1260093D01*
X1265172Y1591196D02*
Y1581039D01*
X1585250Y1586118D02*
X1575093D01*
X1580172Y1591196D02*
Y1581039D01*
X1900250Y1586118D02*
X1890093D01*
X1895172Y1591196D02*
Y1581039D01*
X2215250Y1586118D02*
X2205093D01*
X2210172Y1591196D02*
Y1581039D01*
X535250Y1586118D02*
X525093D01*
X530172Y1591196D02*
Y1581039D01*
X850250Y1586118D02*
X840093D01*
X845172Y1591196D02*
Y1581039D01*
X1165250Y1586118D02*
X1155093D01*
X1160172Y1591196D02*
Y1581039D01*
X1480250Y1586118D02*
X1470093D01*
X1475172Y1591196D02*
Y1581039D01*
X1795250Y1586118D02*
X1785093D01*
X1790172Y1591196D02*
Y1581039D01*
X2110250Y1586118D02*
X2100093D01*
X2105172Y1591196D02*
Y1581039D01*
X430250Y1586118D02*
X420093D01*
X425172Y1591196D02*
Y1581039D01*
X745250Y1586118D02*
X735093D01*
X740172Y1591196D02*
Y1581039D01*
X1060250Y1586118D02*
X1050093D01*
X1055172Y1591196D02*
Y1581039D01*
X1375250Y1586118D02*
X1365093D01*
X1370172Y1591196D02*
Y1581039D01*
X1690250Y1586118D02*
X1680093D01*
X1685172Y1591196D02*
Y1581039D01*
X2005250Y1586118D02*
X1995093D01*
X2000172Y1591196D02*
Y1581039D01*
X586500Y1696500D02*
X616500D01*
X586500Y1730500D02*
X616500D01*
X901500Y1696500D02*
X931500D01*
X901500Y1730500D02*
X931500D01*
X1216500Y1696500D02*
X1246500D01*
X1216500Y1730500D02*
X1246500D01*
X1531500Y1696500D02*
X1561500D01*
X1531500Y1730500D02*
X1561500D01*
X1846500Y1696500D02*
X1876500D01*
X1846500Y1730500D02*
X1876500D01*
X2161500Y1696500D02*
X2191500D01*
X2161500Y1730500D02*
X2191500D01*
X481500Y1696500D02*
X511500D01*
X481500Y1730500D02*
X511500D01*
X796500Y1696500D02*
X826500D01*
X796500Y1730500D02*
X826500D01*
X1111500Y1696500D02*
X1141500D01*
X1111500Y1730500D02*
X1141500D01*
X1426500Y1696500D02*
X1456500D01*
X1426500Y1730500D02*
X1456500D01*
X1741500Y1696500D02*
X1771500D01*
X1741500Y1730500D02*
X1771500D01*
X2056500Y1696500D02*
X2086500D01*
X2056500Y1730500D02*
X2086500D01*
X376500Y1696500D02*
X406500D01*
X376500Y1730500D02*
X406500D01*
X691500Y1696500D02*
X721500D01*
X691500Y1730500D02*
X721500D01*
X1006500Y1696500D02*
X1036500D01*
X1006500Y1730500D02*
X1036500D01*
X1321500Y1696500D02*
X1351500D01*
X1321500Y1730500D02*
X1351500D01*
X1636500Y1696500D02*
X1666500D01*
X1636500Y1730500D02*
X1666500D01*
X1951500Y1696500D02*
X1981500D01*
X1951500Y1730500D02*
X1981500D01*
X314000Y1752000D02*
X321000D01*
X339000D02*
X346000D01*
X330000Y1736000D02*
Y1743000D01*
Y1761000D02*
Y1768000D01*
X2240000Y1641000D02*
Y1648000D01*
X2249000Y1657000D02*
X2256000D01*
X2224000D02*
X2231000D01*
X2240000Y1666000D02*
Y1673000D01*
X2005213Y1759874D02*
Y1753209D01*
X2001881Y1749877D01*
X1998549Y1753209D01*
Y1759874D01*
X1995217D02*
Y1749877D01*
X1990218D01*
X1988552Y1751543D01*
Y1758208D01*
X1990218Y1759874D01*
X1995217D01*
X1978555Y1749877D02*
X1985220D01*
X1978555Y1756542D01*
Y1758208D01*
X1980221Y1759874D01*
X1983554D01*
X1985220Y1758208D01*
X1975223D02*
X1973557Y1759874D01*
X1970225D01*
X1968559Y1758208D01*
Y1751543D01*
X1970225Y1749877D01*
X1973557D01*
X1975223Y1751543D01*
Y1758208D01*
X1690128Y1759874D02*
Y1753209D01*
X1686795Y1749877D01*
X1683463Y1753209D01*
Y1759874D01*
X1680131D02*
Y1749877D01*
X1675132D01*
X1673466Y1751543D01*
Y1758208D01*
X1675132Y1759874D01*
X1680131D01*
X1670134Y1749877D02*
X1666802D01*
X1668468D01*
Y1759874D01*
X1670134Y1758208D01*
X1661803Y1751543D02*
X1660137Y1749877D01*
X1656805D01*
X1655139Y1751543D01*
Y1758208D01*
X1656805Y1759874D01*
X1660137D01*
X1661803Y1758208D01*
Y1756542D01*
X1660137Y1754876D01*
X1655139D01*
X1375296Y1759874D02*
Y1753209D01*
X1371963Y1749877D01*
X1368631Y1753209D01*
Y1759874D01*
X1365299D02*
Y1749877D01*
X1360300D01*
X1358634Y1751543D01*
Y1758208D01*
X1360300Y1759874D01*
X1365299D01*
X1355302Y1749877D02*
X1351970D01*
X1353636D01*
Y1759874D01*
X1355302Y1758208D01*
X1346971D02*
X1345305Y1759874D01*
X1341973D01*
X1340307Y1758208D01*
Y1756542D01*
X1341973Y1754876D01*
X1340307Y1753209D01*
Y1751543D01*
X1341973Y1749877D01*
X1345305D01*
X1346971Y1751543D01*
Y1753209D01*
X1345305Y1754876D01*
X1346971Y1756542D01*
Y1758208D01*
X1345305Y1754876D02*
X1341973D01*
X1060210Y1759874D02*
Y1753209D01*
X1056878Y1749877D01*
X1053545Y1753209D01*
Y1759874D01*
X1050213D02*
Y1749877D01*
X1045215D01*
X1043549Y1751543D01*
Y1758208D01*
X1045215Y1759874D01*
X1050213D01*
X1040216Y1749877D02*
X1036884D01*
X1038550D01*
Y1759874D01*
X1040216Y1758208D01*
X1031886Y1759874D02*
X1025221D01*
Y1758208D01*
X1031886Y1751543D01*
Y1749877D01*
X745124Y1759874D02*
Y1753209D01*
X741792Y1749877D01*
X738459Y1753209D01*
Y1759874D01*
X735127D02*
Y1749877D01*
X730129D01*
X728463Y1751543D01*
Y1758208D01*
X730129Y1759874D01*
X735127D01*
X725130Y1749877D02*
X721798D01*
X723464D01*
Y1759874D01*
X725130Y1758208D01*
X710135Y1759874D02*
X713467Y1758208D01*
X716800Y1754876D01*
Y1751543D01*
X715134Y1749877D01*
X711801D01*
X710135Y1751543D01*
Y1753209D01*
X711801Y1754876D01*
X716800D01*
X430292Y1759874D02*
Y1753209D01*
X426960Y1749877D01*
X423628Y1753209D01*
Y1759874D01*
X420295D02*
Y1749877D01*
X415297D01*
X413631Y1751543D01*
Y1758208D01*
X415297Y1759874D01*
X420295D01*
X410299Y1749877D02*
X406966D01*
X408632D01*
Y1759874D01*
X410299Y1758208D01*
X395303Y1759874D02*
X401968D01*
Y1754876D01*
X398636Y1756542D01*
X396969D01*
X395303Y1754876D01*
Y1751543D01*
X396969Y1749877D01*
X400302D01*
X401968Y1751543D01*
X2110138Y1759874D02*
Y1753209D01*
X2106805Y1749877D01*
X2103473Y1753209D01*
Y1759874D01*
X2100141D02*
Y1749877D01*
X2095142D01*
X2093476Y1751543D01*
Y1758208D01*
X2095142Y1759874D01*
X2100141D01*
X2090144Y1749877D02*
X2086812D01*
X2088478D01*
Y1759874D01*
X2090144Y1758208D01*
X2076815Y1749877D02*
Y1759874D01*
X2081813Y1754876D01*
X2075149D01*
X1795306Y1759874D02*
Y1753209D01*
X1791974Y1749877D01*
X1788641Y1753209D01*
Y1759874D01*
X1785309D02*
Y1749877D01*
X1780311D01*
X1778644Y1751543D01*
Y1758208D01*
X1780311Y1759874D01*
X1785309D01*
X1775312Y1749877D02*
X1771980D01*
X1773646D01*
Y1759874D01*
X1775312Y1758208D01*
X1766982D02*
X1765315Y1759874D01*
X1761983D01*
X1760317Y1758208D01*
Y1756542D01*
X1761983Y1754876D01*
X1763649D01*
X1761983D01*
X1760317Y1753209D01*
Y1751543D01*
X1761983Y1749877D01*
X1765315D01*
X1766982Y1751543D01*
X1480216Y1759874D02*
Y1753209D01*
X1476884Y1749877D01*
X1473551Y1753209D01*
Y1759874D01*
X1470219D02*
Y1749877D01*
X1465221D01*
X1463555Y1751543D01*
Y1758208D01*
X1465221Y1759874D01*
X1470219D01*
X1460222Y1749877D02*
X1456890D01*
X1458556D01*
Y1759874D01*
X1460222Y1758208D01*
X1445227Y1749877D02*
X1451892D01*
X1445227Y1756542D01*
Y1758208D01*
X1446893Y1759874D01*
X1450226D01*
X1451892Y1758208D01*
X1165130Y1759874D02*
Y1753209D01*
X1161798Y1749877D01*
X1158465Y1753209D01*
Y1759874D01*
X1155133D02*
Y1749877D01*
X1150135D01*
X1148469Y1751543D01*
Y1758208D01*
X1150135Y1759874D01*
X1155133D01*
X1145136Y1749877D02*
X1141804D01*
X1143470D01*
Y1759874D01*
X1145136Y1758208D01*
X1136806Y1749877D02*
X1133474D01*
X1135140D01*
Y1759874D01*
X1136806Y1758208D01*
X850298Y1759874D02*
Y1753209D01*
X846966Y1749877D01*
X843634Y1753209D01*
Y1759874D01*
X840301D02*
Y1749877D01*
X835303D01*
X833637Y1751543D01*
Y1758208D01*
X835303Y1759874D01*
X840301D01*
X830305Y1749877D02*
X826972D01*
X828638D01*
Y1759874D01*
X830305Y1758208D01*
X821974D02*
X820308Y1759874D01*
X816975D01*
X815309Y1758208D01*
Y1751543D01*
X816975Y1749877D01*
X820308D01*
X821974Y1751543D01*
Y1758208D01*
X535212Y1759874D02*
Y1753209D01*
X531880Y1749877D01*
X528548Y1753209D01*
Y1759874D01*
X525215D02*
Y1749877D01*
X520217D01*
X518551Y1751543D01*
Y1758208D01*
X520217Y1759874D01*
X525215D01*
X515219Y1751543D02*
X513553Y1749877D01*
X510220D01*
X508554Y1751543D01*
Y1758208D01*
X510220Y1759874D01*
X513553D01*
X515219Y1758208D01*
Y1756542D01*
X513553Y1754876D01*
X508554D01*
X2215130Y1759874D02*
Y1753209D01*
X2211797Y1749877D01*
X2208465Y1753209D01*
Y1759874D01*
X2205133D02*
Y1749877D01*
X2200134D01*
X2198468Y1751543D01*
Y1758208D01*
X2200134Y1759874D01*
X2205133D01*
X2195136D02*
X2188471D01*
Y1758208D01*
X2195136Y1751543D01*
Y1749877D01*
X1900298Y1759874D02*
Y1753209D01*
X1896965Y1749877D01*
X1893633Y1753209D01*
Y1759874D01*
X1890301D02*
Y1749877D01*
X1885302D01*
X1883636Y1751543D01*
Y1758208D01*
X1885302Y1759874D01*
X1890301D01*
X1873640D02*
X1876972Y1758208D01*
X1880304Y1754876D01*
Y1751543D01*
X1878638Y1749877D01*
X1875306D01*
X1873640Y1751543D01*
Y1753209D01*
X1875306Y1754876D01*
X1880304D01*
X1585212Y1759874D02*
Y1753209D01*
X1581879Y1749877D01*
X1578547Y1753209D01*
Y1759874D01*
X1575215D02*
Y1749877D01*
X1570217D01*
X1568551Y1751543D01*
Y1758208D01*
X1570217Y1759874D01*
X1575215D01*
X1558554D02*
X1565218D01*
Y1754876D01*
X1561886Y1756542D01*
X1560220D01*
X1558554Y1754876D01*
Y1751543D01*
X1560220Y1749877D01*
X1563552D01*
X1565218Y1751543D01*
X1270126Y1759874D02*
Y1753209D01*
X1266794Y1749877D01*
X1263461Y1753209D01*
Y1759874D01*
X1260129D02*
Y1749877D01*
X1255131D01*
X1253465Y1751543D01*
Y1758208D01*
X1255131Y1759874D01*
X1260129D01*
X1245134Y1749877D02*
Y1759874D01*
X1250132Y1754876D01*
X1243468D01*
X955294Y1759874D02*
Y1753209D01*
X951962Y1749877D01*
X948630Y1753209D01*
Y1759874D01*
X945297D02*
Y1749877D01*
X940299D01*
X938633Y1751543D01*
Y1758208D01*
X940299Y1759874D01*
X945297D01*
X935301Y1758208D02*
X933634Y1759874D01*
X930302D01*
X928636Y1758208D01*
Y1756542D01*
X930302Y1754876D01*
X931968D01*
X930302D01*
X928636Y1753209D01*
Y1751543D01*
X930302Y1749877D01*
X933634D01*
X935301Y1751543D01*
X640174Y1760001D02*
Y1753336D01*
X636842Y1750004D01*
X633509Y1753336D01*
Y1760001D01*
X630177D02*
Y1750004D01*
X625179D01*
X623513Y1751670D01*
Y1758335D01*
X625179Y1760001D01*
X630177D01*
X613516Y1750004D02*
X620180D01*
X613516Y1756669D01*
Y1758335D01*
X615182Y1760001D01*
X618514D01*
X620180Y1758335D01*
X640250Y1739118D02*
X630093D01*
X635172Y1744196D02*
Y1734039D01*
X955250Y1739118D02*
X945093D01*
X950172Y1744196D02*
Y1734039D01*
X1270250Y1739118D02*
X1260093D01*
X1265172Y1744196D02*
Y1734039D01*
X1585250Y1739118D02*
X1575093D01*
X1580172Y1744196D02*
Y1734039D01*
X1900250Y1739118D02*
X1890093D01*
X1895172Y1744196D02*
Y1734039D01*
X2215250Y1739118D02*
X2205093D01*
X2210172Y1744196D02*
Y1734039D01*
X535250Y1739118D02*
X525093D01*
X530172Y1744196D02*
Y1734039D01*
X850250Y1739118D02*
X840093D01*
X845172Y1744196D02*
Y1734039D01*
X1165250Y1739118D02*
X1155093D01*
X1160172Y1744196D02*
Y1734039D01*
X1480250Y1739118D02*
X1470093D01*
X1475172Y1744196D02*
Y1734039D01*
X1795250Y1739118D02*
X1785093D01*
X1790172Y1744196D02*
Y1734039D01*
X2110250Y1739118D02*
X2100093D01*
X2105172Y1744196D02*
Y1734039D01*
X430250Y1739118D02*
X420093D01*
X425172Y1744196D02*
Y1734039D01*
X745250Y1739118D02*
X735093D01*
X740172Y1744196D02*
Y1734039D01*
X1060250Y1739118D02*
X1050093D01*
X1055172Y1744196D02*
Y1734039D01*
X1375250Y1739118D02*
X1365093D01*
X1370172Y1744196D02*
Y1734039D01*
X1690250Y1739118D02*
X1680093D01*
X1685172Y1744196D02*
Y1734039D01*
X2005250Y1739118D02*
X1995093D01*
X2000172Y1744196D02*
Y1734039D01*
X586500Y1849500D02*
X616500D01*
X586500Y1883500D02*
X616500D01*
X901500Y1849500D02*
X931500D01*
X901500Y1883500D02*
X931500D01*
X1216500Y1849500D02*
X1246500D01*
X1216500Y1883500D02*
X1246500D01*
X1531500Y1849500D02*
X1561500D01*
X1531500Y1883500D02*
X1561500D01*
X1846500Y1849500D02*
X1876500D01*
X1846500Y1883500D02*
X1876500D01*
X2161500Y1849500D02*
X2191500D01*
X2161500Y1883500D02*
X2191500D01*
X481500Y1849500D02*
X511500D01*
X481500Y1883500D02*
X511500D01*
X796500Y1849500D02*
X826500D01*
X796500Y1883500D02*
X826500D01*
X1111500Y1849500D02*
X1141500D01*
X1111500Y1883500D02*
X1141500D01*
X1426500Y1849500D02*
X1456500D01*
X1426500Y1883500D02*
X1456500D01*
X1741500Y1849500D02*
X1771500D01*
X1741500Y1883500D02*
X1771500D01*
X2056500Y1849500D02*
X2086500D01*
X2056500Y1883500D02*
X2086500D01*
X376500Y1849500D02*
X406500D01*
X376500Y1883500D02*
X406500D01*
X691500Y1849500D02*
X721500D01*
X691500Y1883500D02*
X721500D01*
X1006500Y1849500D02*
X1036500D01*
X1006500Y1883500D02*
X1036500D01*
X1321500Y1849500D02*
X1351500D01*
X1321500Y1883500D02*
X1351500D01*
X1636500Y1849500D02*
X1666500D01*
X1636500Y1883500D02*
X1666500D01*
X1951500Y1849500D02*
X1981500D01*
X1951500Y1883500D02*
X1981500D01*
X314000Y1905000D02*
X321000D01*
X339000D02*
X346000D01*
X330000Y1889000D02*
Y1896000D01*
Y1914000D02*
Y1921000D01*
X2240000Y1794000D02*
Y1801000D01*
X2249000Y1810000D02*
X2256000D01*
X2224000D02*
X2231000D01*
X2240000Y1819000D02*
Y1826000D01*
X2005213Y1912874D02*
Y1906210D01*
X2001881Y1902877D01*
X1998549Y1906210D01*
Y1912874D01*
X1995217D02*
Y1902877D01*
X1990218D01*
X1988552Y1904543D01*
Y1911208D01*
X1990218Y1912874D01*
X1995217D01*
X1978555Y1902877D02*
X1985220D01*
X1978555Y1909542D01*
Y1911208D01*
X1980221Y1912874D01*
X1983554D01*
X1985220Y1911208D01*
X1975223D02*
X1973557Y1912874D01*
X1970225D01*
X1968559Y1911208D01*
Y1904543D01*
X1970225Y1902877D01*
X1973557D01*
X1975223Y1904543D01*
Y1911208D01*
X1690128Y1912874D02*
Y1906210D01*
X1686795Y1902877D01*
X1683463Y1906210D01*
Y1912874D01*
X1680131D02*
Y1902877D01*
X1675132D01*
X1673466Y1904543D01*
Y1911208D01*
X1675132Y1912874D01*
X1680131D01*
X1670134Y1902877D02*
X1666802D01*
X1668468D01*
Y1912874D01*
X1670134Y1911208D01*
X1661803Y1904543D02*
X1660137Y1902877D01*
X1656805D01*
X1655139Y1904543D01*
Y1911208D01*
X1656805Y1912874D01*
X1660137D01*
X1661803Y1911208D01*
Y1909542D01*
X1660137Y1907876D01*
X1655139D01*
X1375296Y1912874D02*
Y1906210D01*
X1371963Y1902877D01*
X1368631Y1906210D01*
Y1912874D01*
X1365299D02*
Y1902877D01*
X1360300D01*
X1358634Y1904543D01*
Y1911208D01*
X1360300Y1912874D01*
X1365299D01*
X1355302Y1902877D02*
X1351970D01*
X1353636D01*
Y1912874D01*
X1355302Y1911208D01*
X1346971D02*
X1345305Y1912874D01*
X1341973D01*
X1340307Y1911208D01*
Y1909542D01*
X1341973Y1907876D01*
X1340307Y1906210D01*
Y1904543D01*
X1341973Y1902877D01*
X1345305D01*
X1346971Y1904543D01*
Y1906210D01*
X1345305Y1907876D01*
X1346971Y1909542D01*
Y1911208D01*
X1345305Y1907876D02*
X1341973D01*
X1060210Y1912874D02*
Y1906210D01*
X1056878Y1902877D01*
X1053545Y1906210D01*
Y1912874D01*
X1050213D02*
Y1902877D01*
X1045215D01*
X1043549Y1904543D01*
Y1911208D01*
X1045215Y1912874D01*
X1050213D01*
X1040216Y1902877D02*
X1036884D01*
X1038550D01*
Y1912874D01*
X1040216Y1911208D01*
X1031886Y1912874D02*
X1025221D01*
Y1911208D01*
X1031886Y1904543D01*
Y1902877D01*
X745124Y1912874D02*
Y1906210D01*
X741792Y1902877D01*
X738459Y1906210D01*
Y1912874D01*
X735127D02*
Y1902877D01*
X730129D01*
X728463Y1904543D01*
Y1911208D01*
X730129Y1912874D01*
X735127D01*
X725130Y1902877D02*
X721798D01*
X723464D01*
Y1912874D01*
X725130Y1911208D01*
X710135Y1912874D02*
X713467Y1911208D01*
X716800Y1907876D01*
Y1904543D01*
X715134Y1902877D01*
X711801D01*
X710135Y1904543D01*
Y1906210D01*
X711801Y1907876D01*
X716800D01*
X430292Y1912874D02*
Y1906210D01*
X426960Y1902877D01*
X423628Y1906210D01*
Y1912874D01*
X420295D02*
Y1902877D01*
X415297D01*
X413631Y1904543D01*
Y1911208D01*
X415297Y1912874D01*
X420295D01*
X410299Y1902877D02*
X406966D01*
X408632D01*
Y1912874D01*
X410299Y1911208D01*
X395303Y1912874D02*
X401968D01*
Y1907876D01*
X398636Y1909542D01*
X396969D01*
X395303Y1907876D01*
Y1904543D01*
X396969Y1902877D01*
X400302D01*
X401968Y1904543D01*
X2110138Y1912874D02*
Y1906210D01*
X2106805Y1902877D01*
X2103473Y1906210D01*
Y1912874D01*
X2100141D02*
Y1902877D01*
X2095142D01*
X2093476Y1904543D01*
Y1911208D01*
X2095142Y1912874D01*
X2100141D01*
X2090144Y1902877D02*
X2086812D01*
X2088478D01*
Y1912874D01*
X2090144Y1911208D01*
X2076815Y1902877D02*
Y1912874D01*
X2081813Y1907876D01*
X2075149D01*
X1795306Y1912874D02*
Y1906210D01*
X1791974Y1902877D01*
X1788641Y1906210D01*
Y1912874D01*
X1785309D02*
Y1902877D01*
X1780311D01*
X1778644Y1904543D01*
Y1911208D01*
X1780311Y1912874D01*
X1785309D01*
X1775312Y1902877D02*
X1771980D01*
X1773646D01*
Y1912874D01*
X1775312Y1911208D01*
X1766982D02*
X1765315Y1912874D01*
X1761983D01*
X1760317Y1911208D01*
Y1909542D01*
X1761983Y1907876D01*
X1763649D01*
X1761983D01*
X1760317Y1906210D01*
Y1904543D01*
X1761983Y1902877D01*
X1765315D01*
X1766982Y1904543D01*
X1480216Y1912874D02*
Y1906210D01*
X1476884Y1902877D01*
X1473551Y1906210D01*
Y1912874D01*
X1470219D02*
Y1902877D01*
X1465221D01*
X1463555Y1904543D01*
Y1911208D01*
X1465221Y1912874D01*
X1470219D01*
X1460222Y1902877D02*
X1456890D01*
X1458556D01*
Y1912874D01*
X1460222Y1911208D01*
X1445227Y1902877D02*
X1451892D01*
X1445227Y1909542D01*
Y1911208D01*
X1446893Y1912874D01*
X1450226D01*
X1451892Y1911208D01*
X1165130Y1912874D02*
Y1906210D01*
X1161798Y1902877D01*
X1158465Y1906210D01*
Y1912874D01*
X1155133D02*
Y1902877D01*
X1150135D01*
X1148469Y1904543D01*
Y1911208D01*
X1150135Y1912874D01*
X1155133D01*
X1145136Y1902877D02*
X1141804D01*
X1143470D01*
Y1912874D01*
X1145136Y1911208D01*
X1136806Y1902877D02*
X1133474D01*
X1135140D01*
Y1912874D01*
X1136806Y1911208D01*
X850298Y1912874D02*
Y1906210D01*
X846966Y1902877D01*
X843634Y1906210D01*
Y1912874D01*
X840301D02*
Y1902877D01*
X835303D01*
X833637Y1904543D01*
Y1911208D01*
X835303Y1912874D01*
X840301D01*
X830305Y1902877D02*
X826972D01*
X828638D01*
Y1912874D01*
X830305Y1911208D01*
X821974D02*
X820308Y1912874D01*
X816975D01*
X815309Y1911208D01*
Y1904543D01*
X816975Y1902877D01*
X820308D01*
X821974Y1904543D01*
Y1911208D01*
X535212Y1912874D02*
Y1906210D01*
X531880Y1902877D01*
X528548Y1906210D01*
Y1912874D01*
X525215D02*
Y1902877D01*
X520217D01*
X518551Y1904543D01*
Y1911208D01*
X520217Y1912874D01*
X525215D01*
X515219Y1904543D02*
X513553Y1902877D01*
X510220D01*
X508554Y1904543D01*
Y1911208D01*
X510220Y1912874D01*
X513553D01*
X515219Y1911208D01*
Y1909542D01*
X513553Y1907876D01*
X508554D01*
X2215130Y1912874D02*
Y1906210D01*
X2211797Y1902877D01*
X2208465Y1906210D01*
Y1912874D01*
X2205133D02*
Y1902877D01*
X2200134D01*
X2198468Y1904543D01*
Y1911208D01*
X2200134Y1912874D01*
X2205133D01*
X2195136D02*
X2188471D01*
Y1911208D01*
X2195136Y1904543D01*
Y1902877D01*
X1900298Y1912874D02*
Y1906210D01*
X1896965Y1902877D01*
X1893633Y1906210D01*
Y1912874D01*
X1890301D02*
Y1902877D01*
X1885302D01*
X1883636Y1904543D01*
Y1911208D01*
X1885302Y1912874D01*
X1890301D01*
X1873640D02*
X1876972Y1911208D01*
X1880304Y1907876D01*
Y1904543D01*
X1878638Y1902877D01*
X1875306D01*
X1873640Y1904543D01*
Y1906210D01*
X1875306Y1907876D01*
X1880304D01*
X1585212Y1912874D02*
Y1906210D01*
X1581879Y1902877D01*
X1578547Y1906210D01*
Y1912874D01*
X1575215D02*
Y1902877D01*
X1570217D01*
X1568551Y1904543D01*
Y1911208D01*
X1570217Y1912874D01*
X1575215D01*
X1558554D02*
X1565218D01*
Y1907876D01*
X1561886Y1909542D01*
X1560220D01*
X1558554Y1907876D01*
Y1904543D01*
X1560220Y1902877D01*
X1563552D01*
X1565218Y1904543D01*
X1270126Y1912874D02*
Y1906210D01*
X1266794Y1902877D01*
X1263461Y1906210D01*
Y1912874D01*
X1260129D02*
Y1902877D01*
X1255131D01*
X1253465Y1904543D01*
Y1911208D01*
X1255131Y1912874D01*
X1260129D01*
X1245134Y1902877D02*
Y1912874D01*
X1250132Y1907876D01*
X1243468D01*
X955294Y1912874D02*
Y1906210D01*
X951962Y1902877D01*
X948630Y1906210D01*
Y1912874D01*
X945297D02*
Y1902877D01*
X940299D01*
X938633Y1904543D01*
Y1911208D01*
X940299Y1912874D01*
X945297D01*
X935301Y1911208D02*
X933634Y1912874D01*
X930302D01*
X928636Y1911208D01*
Y1909542D01*
X930302Y1907876D01*
X931968D01*
X930302D01*
X928636Y1906210D01*
Y1904543D01*
X930302Y1902877D01*
X933634D01*
X935301Y1904543D01*
X640174Y1913001D02*
Y1906337D01*
X636842Y1903004D01*
X633509Y1906337D01*
Y1913001D01*
X630177D02*
Y1903004D01*
X625179D01*
X623513Y1904670D01*
Y1911335D01*
X625179Y1913001D01*
X630177D01*
X613516Y1903004D02*
X620180D01*
X613516Y1909669D01*
Y1911335D01*
X615182Y1913001D01*
X618514D01*
X620180Y1911335D01*
X640250Y1892118D02*
X630093D01*
X635172Y1897196D02*
Y1887039D01*
X955250Y1892118D02*
X945093D01*
X950172Y1897196D02*
Y1887039D01*
X1270250Y1892118D02*
X1260093D01*
X1265172Y1897196D02*
Y1887039D01*
X1585250Y1892118D02*
X1575093D01*
X1580172Y1897196D02*
Y1887039D01*
X1900250Y1892118D02*
X1890093D01*
X1895172Y1897196D02*
Y1887039D01*
X2215250Y1892118D02*
X2205093D01*
X2210172Y1897196D02*
Y1887039D01*
X535250Y1892118D02*
X525093D01*
X530172Y1897196D02*
Y1887039D01*
X850250Y1892118D02*
X840093D01*
X845172Y1897196D02*
Y1887039D01*
X1165250Y1892118D02*
X1155093D01*
X1160172Y1897196D02*
Y1887039D01*
X1480250Y1892118D02*
X1470093D01*
X1475172Y1897196D02*
Y1887039D01*
X1795250Y1892118D02*
X1785093D01*
X1790172Y1897196D02*
Y1887039D01*
X2110250Y1892118D02*
X2100093D01*
X2105172Y1897196D02*
Y1887039D01*
X430250Y1892118D02*
X420093D01*
X425172Y1897196D02*
Y1887039D01*
X745250Y1892118D02*
X735093D01*
X740172Y1897196D02*
Y1887039D01*
X1060250Y1892118D02*
X1050093D01*
X1055172Y1897196D02*
Y1887039D01*
X1375250Y1892118D02*
X1365093D01*
X1370172Y1897196D02*
Y1887039D01*
X1690250Y1892118D02*
X1680093D01*
X1685172Y1897196D02*
Y1887039D01*
X2005250Y1892118D02*
X1995093D01*
X2000172Y1897196D02*
Y1887039D01*
X586500Y2002500D02*
X616500D01*
X586500Y2036500D02*
X616500D01*
X901500Y2002500D02*
X931500D01*
X901500Y2036500D02*
X931500D01*
X1216500Y2002500D02*
X1246500D01*
X1216500Y2036500D02*
X1246500D01*
X1531500Y2002500D02*
X1561500D01*
X1531500Y2036500D02*
X1561500D01*
X1846500Y2002500D02*
X1876500D01*
X1846500Y2036500D02*
X1876500D01*
X2161500Y2002500D02*
X2191500D01*
X2161500Y2036500D02*
X2191500D01*
X481500Y2002500D02*
X511500D01*
X481500Y2036500D02*
X511500D01*
X796500Y2002500D02*
X826500D01*
X796500Y2036500D02*
X826500D01*
X1111500Y2002500D02*
X1141500D01*
X1111500Y2036500D02*
X1141500D01*
X1426500Y2002500D02*
X1456500D01*
X1426500Y2036500D02*
X1456500D01*
X1741500Y2002500D02*
X1771500D01*
X1741500Y2036500D02*
X1771500D01*
X2056500Y2002500D02*
X2086500D01*
X2056500Y2036500D02*
X2086500D01*
X376500Y2002500D02*
X406500D01*
X376500Y2036500D02*
X406500D01*
X691500Y2002500D02*
X721500D01*
X691500Y2036500D02*
X721500D01*
X1006500Y2002500D02*
X1036500D01*
X1006500Y2036500D02*
X1036500D01*
X1321500Y2002500D02*
X1351500D01*
X1321500Y2036500D02*
X1351500D01*
X1636500Y2002500D02*
X1666500D01*
X1636500Y2036500D02*
X1666500D01*
X1951500Y2002500D02*
X1981500D01*
X1951500Y2036500D02*
X1981500D01*
X314000Y2058000D02*
X321000D01*
X339000D02*
X346000D01*
X330000Y2042000D02*
Y2049000D01*
Y2067000D02*
Y2074000D01*
X2240000Y1947000D02*
Y1954000D01*
X2249000Y1963000D02*
X2256000D01*
X2224000D02*
X2231000D01*
X2240000Y1972000D02*
Y1979000D01*
X2005213Y2065874D02*
Y2059209D01*
X2001881Y2055877D01*
X1998549Y2059209D01*
Y2065874D01*
X1995217D02*
Y2055877D01*
X1990218D01*
X1988552Y2057543D01*
Y2064208D01*
X1990218Y2065874D01*
X1995217D01*
X1978555Y2055877D02*
X1985220D01*
X1978555Y2062542D01*
Y2064208D01*
X1980221Y2065874D01*
X1983554D01*
X1985220Y2064208D01*
X1975223D02*
X1973557Y2065874D01*
X1970225D01*
X1968559Y2064208D01*
Y2057543D01*
X1970225Y2055877D01*
X1973557D01*
X1975223Y2057543D01*
Y2064208D01*
X1690128Y2065874D02*
Y2059209D01*
X1686795Y2055877D01*
X1683463Y2059209D01*
Y2065874D01*
X1680131D02*
Y2055877D01*
X1675132D01*
X1673466Y2057543D01*
Y2064208D01*
X1675132Y2065874D01*
X1680131D01*
X1670134Y2055877D02*
X1666802D01*
X1668468D01*
Y2065874D01*
X1670134Y2064208D01*
X1661803Y2057543D02*
X1660137Y2055877D01*
X1656805D01*
X1655139Y2057543D01*
Y2064208D01*
X1656805Y2065874D01*
X1660137D01*
X1661803Y2064208D01*
Y2062542D01*
X1660137Y2060876D01*
X1655139D01*
X1375296Y2065874D02*
Y2059209D01*
X1371963Y2055877D01*
X1368631Y2059209D01*
Y2065874D01*
X1365299D02*
Y2055877D01*
X1360300D01*
X1358634Y2057543D01*
Y2064208D01*
X1360300Y2065874D01*
X1365299D01*
X1355302Y2055877D02*
X1351970D01*
X1353636D01*
Y2065874D01*
X1355302Y2064208D01*
X1346971D02*
X1345305Y2065874D01*
X1341973D01*
X1340307Y2064208D01*
Y2062542D01*
X1341973Y2060876D01*
X1340307Y2059209D01*
Y2057543D01*
X1341973Y2055877D01*
X1345305D01*
X1346971Y2057543D01*
Y2059209D01*
X1345305Y2060876D01*
X1346971Y2062542D01*
Y2064208D01*
X1345305Y2060876D02*
X1341973D01*
X1060210Y2065874D02*
Y2059209D01*
X1056878Y2055877D01*
X1053545Y2059209D01*
Y2065874D01*
X1050213D02*
Y2055877D01*
X1045215D01*
X1043549Y2057543D01*
Y2064208D01*
X1045215Y2065874D01*
X1050213D01*
X1040216Y2055877D02*
X1036884D01*
X1038550D01*
Y2065874D01*
X1040216Y2064208D01*
X1031886Y2065874D02*
X1025221D01*
Y2064208D01*
X1031886Y2057543D01*
Y2055877D01*
X745124Y2065874D02*
Y2059209D01*
X741792Y2055877D01*
X738459Y2059209D01*
Y2065874D01*
X735127D02*
Y2055877D01*
X730129D01*
X728463Y2057543D01*
Y2064208D01*
X730129Y2065874D01*
X735127D01*
X725130Y2055877D02*
X721798D01*
X723464D01*
Y2065874D01*
X725130Y2064208D01*
X710135Y2065874D02*
X713467Y2064208D01*
X716800Y2060876D01*
Y2057543D01*
X715134Y2055877D01*
X711801D01*
X710135Y2057543D01*
Y2059209D01*
X711801Y2060876D01*
X716800D01*
X430292Y2065874D02*
Y2059209D01*
X426960Y2055877D01*
X423628Y2059209D01*
Y2065874D01*
X420295D02*
Y2055877D01*
X415297D01*
X413631Y2057543D01*
Y2064208D01*
X415297Y2065874D01*
X420295D01*
X410299Y2055877D02*
X406966D01*
X408632D01*
Y2065874D01*
X410299Y2064208D01*
X395303Y2065874D02*
X401968D01*
Y2060876D01*
X398636Y2062542D01*
X396969D01*
X395303Y2060876D01*
Y2057543D01*
X396969Y2055877D01*
X400302D01*
X401968Y2057543D01*
X2110138Y2065874D02*
Y2059209D01*
X2106805Y2055877D01*
X2103473Y2059209D01*
Y2065874D01*
X2100141D02*
Y2055877D01*
X2095142D01*
X2093476Y2057543D01*
Y2064208D01*
X2095142Y2065874D01*
X2100141D01*
X2090144Y2055877D02*
X2086812D01*
X2088478D01*
Y2065874D01*
X2090144Y2064208D01*
X2076815Y2055877D02*
Y2065874D01*
X2081813Y2060876D01*
X2075149D01*
X1795306Y2065874D02*
Y2059209D01*
X1791974Y2055877D01*
X1788641Y2059209D01*
Y2065874D01*
X1785309D02*
Y2055877D01*
X1780311D01*
X1778644Y2057543D01*
Y2064208D01*
X1780311Y2065874D01*
X1785309D01*
X1775312Y2055877D02*
X1771980D01*
X1773646D01*
Y2065874D01*
X1775312Y2064208D01*
X1766982D02*
X1765315Y2065874D01*
X1761983D01*
X1760317Y2064208D01*
Y2062542D01*
X1761983Y2060876D01*
X1763649D01*
X1761983D01*
X1760317Y2059209D01*
Y2057543D01*
X1761983Y2055877D01*
X1765315D01*
X1766982Y2057543D01*
X1480216Y2065874D02*
Y2059209D01*
X1476884Y2055877D01*
X1473551Y2059209D01*
Y2065874D01*
X1470219D02*
Y2055877D01*
X1465221D01*
X1463555Y2057543D01*
Y2064208D01*
X1465221Y2065874D01*
X1470219D01*
X1460222Y2055877D02*
X1456890D01*
X1458556D01*
Y2065874D01*
X1460222Y2064208D01*
X1445227Y2055877D02*
X1451892D01*
X1445227Y2062542D01*
Y2064208D01*
X1446893Y2065874D01*
X1450226D01*
X1451892Y2064208D01*
X1165130Y2065874D02*
Y2059209D01*
X1161798Y2055877D01*
X1158465Y2059209D01*
Y2065874D01*
X1155133D02*
Y2055877D01*
X1150135D01*
X1148469Y2057543D01*
Y2064208D01*
X1150135Y2065874D01*
X1155133D01*
X1145136Y2055877D02*
X1141804D01*
X1143470D01*
Y2065874D01*
X1145136Y2064208D01*
X1136806Y2055877D02*
X1133474D01*
X1135140D01*
Y2065874D01*
X1136806Y2064208D01*
X850298Y2065874D02*
Y2059209D01*
X846966Y2055877D01*
X843634Y2059209D01*
Y2065874D01*
X840301D02*
Y2055877D01*
X835303D01*
X833637Y2057543D01*
Y2064208D01*
X835303Y2065874D01*
X840301D01*
X830305Y2055877D02*
X826972D01*
X828638D01*
Y2065874D01*
X830305Y2064208D01*
X821974D02*
X820308Y2065874D01*
X816975D01*
X815309Y2064208D01*
Y2057543D01*
X816975Y2055877D01*
X820308D01*
X821974Y2057543D01*
Y2064208D01*
X535212Y2065874D02*
Y2059209D01*
X531880Y2055877D01*
X528548Y2059209D01*
Y2065874D01*
X525215D02*
Y2055877D01*
X520217D01*
X518551Y2057543D01*
Y2064208D01*
X520217Y2065874D01*
X525215D01*
X515219Y2057543D02*
X513553Y2055877D01*
X510220D01*
X508554Y2057543D01*
Y2064208D01*
X510220Y2065874D01*
X513553D01*
X515219Y2064208D01*
Y2062542D01*
X513553Y2060876D01*
X508554D01*
X2215130Y2065874D02*
Y2059209D01*
X2211797Y2055877D01*
X2208465Y2059209D01*
Y2065874D01*
X2205133D02*
Y2055877D01*
X2200134D01*
X2198468Y2057543D01*
Y2064208D01*
X2200134Y2065874D01*
X2205133D01*
X2195136D02*
X2188471D01*
Y2064208D01*
X2195136Y2057543D01*
Y2055877D01*
X1900298Y2065874D02*
Y2059209D01*
X1896965Y2055877D01*
X1893633Y2059209D01*
Y2065874D01*
X1890301D02*
Y2055877D01*
X1885302D01*
X1883636Y2057543D01*
Y2064208D01*
X1885302Y2065874D01*
X1890301D01*
X1873640D02*
X1876972Y2064208D01*
X1880304Y2060876D01*
Y2057543D01*
X1878638Y2055877D01*
X1875306D01*
X1873640Y2057543D01*
Y2059209D01*
X1875306Y2060876D01*
X1880304D01*
X1585212Y2065874D02*
Y2059209D01*
X1581879Y2055877D01*
X1578547Y2059209D01*
Y2065874D01*
X1575215D02*
Y2055877D01*
X1570217D01*
X1568551Y2057543D01*
Y2064208D01*
X1570217Y2065874D01*
X1575215D01*
X1558554D02*
X1565218D01*
Y2060876D01*
X1561886Y2062542D01*
X1560220D01*
X1558554Y2060876D01*
Y2057543D01*
X1560220Y2055877D01*
X1563552D01*
X1565218Y2057543D01*
X1270126Y2065874D02*
Y2059209D01*
X1266794Y2055877D01*
X1263461Y2059209D01*
Y2065874D01*
X1260129D02*
Y2055877D01*
X1255131D01*
X1253465Y2057543D01*
Y2064208D01*
X1255131Y2065874D01*
X1260129D01*
X1245134Y2055877D02*
Y2065874D01*
X1250132Y2060876D01*
X1243468D01*
X955294Y2065874D02*
Y2059209D01*
X951962Y2055877D01*
X948630Y2059209D01*
Y2065874D01*
X945297D02*
Y2055877D01*
X940299D01*
X938633Y2057543D01*
Y2064208D01*
X940299Y2065874D01*
X945297D01*
X935301Y2064208D02*
X933634Y2065874D01*
X930302D01*
X928636Y2064208D01*
Y2062542D01*
X930302Y2060876D01*
X931968D01*
X930302D01*
X928636Y2059209D01*
Y2057543D01*
X930302Y2055877D01*
X933634D01*
X935301Y2057543D01*
X640174Y2066001D02*
Y2059337D01*
X636842Y2056004D01*
X633509Y2059337D01*
Y2066001D01*
X630177D02*
Y2056004D01*
X625179D01*
X623513Y2057670D01*
Y2064335D01*
X625179Y2066001D01*
X630177D01*
X613516Y2056004D02*
X620180D01*
X613516Y2062669D01*
Y2064335D01*
X615182Y2066001D01*
X618514D01*
X620180Y2064335D01*
X640250Y2045118D02*
X630093D01*
X635172Y2050196D02*
Y2040039D01*
X955250Y2045118D02*
X945093D01*
X950172Y2050196D02*
Y2040039D01*
X1270250Y2045118D02*
X1260093D01*
X1265172Y2050196D02*
Y2040039D01*
X1585250Y2045118D02*
X1575093D01*
X1580172Y2050196D02*
Y2040039D01*
X1900250Y2045118D02*
X1890093D01*
X1895172Y2050196D02*
Y2040039D01*
X2215250Y2045118D02*
X2205093D01*
X2210172Y2050196D02*
Y2040039D01*
X535250Y2045118D02*
X525093D01*
X530172Y2050196D02*
Y2040039D01*
X850250Y2045118D02*
X840093D01*
X845172Y2050196D02*
Y2040039D01*
X1165250Y2045118D02*
X1155093D01*
X1160172Y2050196D02*
Y2040039D01*
X1480250Y2045118D02*
X1470093D01*
X1475172Y2050196D02*
Y2040039D01*
X1795250Y2045118D02*
X1785093D01*
X1790172Y2050196D02*
Y2040039D01*
X2110250Y2045118D02*
X2100093D01*
X2105172Y2050196D02*
Y2040039D01*
X430250Y2045118D02*
X420093D01*
X425172Y2050196D02*
Y2040039D01*
X745250Y2045118D02*
X735093D01*
X740172Y2050196D02*
Y2040039D01*
X1060250Y2045118D02*
X1050093D01*
X1055172Y2050196D02*
Y2040039D01*
X1375250Y2045118D02*
X1365093D01*
X1370172Y2050196D02*
Y2040039D01*
X1690250Y2045118D02*
X1680093D01*
X1685172Y2050196D02*
Y2040039D01*
X2005250Y2045118D02*
X1995093D01*
X2000172Y2050196D02*
Y2040039D01*
X586500Y2155500D02*
X616500D01*
X586500Y2189500D02*
X616500D01*
X901500Y2155500D02*
X931500D01*
X901500Y2189500D02*
X931500D01*
X1216500Y2155500D02*
X1246500D01*
X1216500Y2189500D02*
X1246500D01*
X1531500Y2155500D02*
X1561500D01*
X1531500Y2189500D02*
X1561500D01*
X1846500Y2155500D02*
X1876500D01*
X1846500Y2189500D02*
X1876500D01*
X2161500Y2155500D02*
X2191500D01*
X2161500Y2189500D02*
X2191500D01*
X481500Y2155500D02*
X511500D01*
X481500Y2189500D02*
X511500D01*
X796500Y2155500D02*
X826500D01*
X796500Y2189500D02*
X826500D01*
X1111500Y2155500D02*
X1141500D01*
X1111500Y2189500D02*
X1141500D01*
X1426500Y2155500D02*
X1456500D01*
X1426500Y2189500D02*
X1456500D01*
X1741500Y2155500D02*
X1771500D01*
X1741500Y2189500D02*
X1771500D01*
X2056500Y2155500D02*
X2086500D01*
X2056500Y2189500D02*
X2086500D01*
X376500Y2155500D02*
X406500D01*
X376500Y2189500D02*
X406500D01*
X691500Y2155500D02*
X721500D01*
X691500Y2189500D02*
X721500D01*
X1006500Y2155500D02*
X1036500D01*
X1006500Y2189500D02*
X1036500D01*
X1321500Y2155500D02*
X1351500D01*
X1321500Y2189500D02*
X1351500D01*
X1636500Y2155500D02*
X1666500D01*
X1636500Y2189500D02*
X1666500D01*
X1951500Y2155500D02*
X1981500D01*
X1951500Y2189500D02*
X1981500D01*
X314000Y2211000D02*
X321000D01*
X339000D02*
X346000D01*
X330000Y2195000D02*
Y2202000D01*
Y2220000D02*
Y2227000D01*
X2240000Y2100000D02*
Y2107000D01*
X2249000Y2116000D02*
X2256000D01*
X2224000D02*
X2231000D01*
X2240000Y2125000D02*
Y2132000D01*
X2005213Y2218874D02*
Y2212209D01*
X2001881Y2208877D01*
X1998549Y2212209D01*
Y2218874D01*
X1995217D02*
Y2208877D01*
X1990218D01*
X1988552Y2210543D01*
Y2217208D01*
X1990218Y2218874D01*
X1995217D01*
X1978555Y2208877D02*
X1985220D01*
X1978555Y2215542D01*
Y2217208D01*
X1980221Y2218874D01*
X1983554D01*
X1985220Y2217208D01*
X1975223D02*
X1973557Y2218874D01*
X1970225D01*
X1968559Y2217208D01*
Y2210543D01*
X1970225Y2208877D01*
X1973557D01*
X1975223Y2210543D01*
Y2217208D01*
X1690128Y2218874D02*
Y2212209D01*
X1686795Y2208877D01*
X1683463Y2212209D01*
Y2218874D01*
X1680131D02*
Y2208877D01*
X1675132D01*
X1673466Y2210543D01*
Y2217208D01*
X1675132Y2218874D01*
X1680131D01*
X1670134Y2208877D02*
X1666802D01*
X1668468D01*
Y2218874D01*
X1670134Y2217208D01*
X1661803Y2210543D02*
X1660137Y2208877D01*
X1656805D01*
X1655139Y2210543D01*
Y2217208D01*
X1656805Y2218874D01*
X1660137D01*
X1661803Y2217208D01*
Y2215542D01*
X1660137Y2213876D01*
X1655139D01*
X1375296Y2218874D02*
Y2212209D01*
X1371963Y2208877D01*
X1368631Y2212209D01*
Y2218874D01*
X1365299D02*
Y2208877D01*
X1360300D01*
X1358634Y2210543D01*
Y2217208D01*
X1360300Y2218874D01*
X1365299D01*
X1355302Y2208877D02*
X1351970D01*
X1353636D01*
Y2218874D01*
X1355302Y2217208D01*
X1346971D02*
X1345305Y2218874D01*
X1341973D01*
X1340307Y2217208D01*
Y2215542D01*
X1341973Y2213876D01*
X1340307Y2212209D01*
Y2210543D01*
X1341973Y2208877D01*
X1345305D01*
X1346971Y2210543D01*
Y2212209D01*
X1345305Y2213876D01*
X1346971Y2215542D01*
Y2217208D01*
X1345305Y2213876D02*
X1341973D01*
X1060210Y2218874D02*
Y2212209D01*
X1056878Y2208877D01*
X1053545Y2212209D01*
Y2218874D01*
X1050213D02*
Y2208877D01*
X1045215D01*
X1043549Y2210543D01*
Y2217208D01*
X1045215Y2218874D01*
X1050213D01*
X1040216Y2208877D02*
X1036884D01*
X1038550D01*
Y2218874D01*
X1040216Y2217208D01*
X1031886Y2218874D02*
X1025221D01*
Y2217208D01*
X1031886Y2210543D01*
Y2208877D01*
X745124Y2218874D02*
Y2212209D01*
X741792Y2208877D01*
X738459Y2212209D01*
Y2218874D01*
X735127D02*
Y2208877D01*
X730129D01*
X728463Y2210543D01*
Y2217208D01*
X730129Y2218874D01*
X735127D01*
X725130Y2208877D02*
X721798D01*
X723464D01*
Y2218874D01*
X725130Y2217208D01*
X710135Y2218874D02*
X713467Y2217208D01*
X716800Y2213876D01*
Y2210543D01*
X715134Y2208877D01*
X711801D01*
X710135Y2210543D01*
Y2212209D01*
X711801Y2213876D01*
X716800D01*
X430292Y2218874D02*
Y2212209D01*
X426960Y2208877D01*
X423628Y2212209D01*
Y2218874D01*
X420295D02*
Y2208877D01*
X415297D01*
X413631Y2210543D01*
Y2217208D01*
X415297Y2218874D01*
X420295D01*
X410299Y2208877D02*
X406966D01*
X408632D01*
Y2218874D01*
X410299Y2217208D01*
X395303Y2218874D02*
X401968D01*
Y2213876D01*
X398636Y2215542D01*
X396969D01*
X395303Y2213876D01*
Y2210543D01*
X396969Y2208877D01*
X400302D01*
X401968Y2210543D01*
X2110138Y2218874D02*
Y2212209D01*
X2106805Y2208877D01*
X2103473Y2212209D01*
Y2218874D01*
X2100141D02*
Y2208877D01*
X2095142D01*
X2093476Y2210543D01*
Y2217208D01*
X2095142Y2218874D01*
X2100141D01*
X2090144Y2208877D02*
X2086812D01*
X2088478D01*
Y2218874D01*
X2090144Y2217208D01*
X2076815Y2208877D02*
Y2218874D01*
X2081813Y2213876D01*
X2075149D01*
X1795306Y2218874D02*
Y2212209D01*
X1791974Y2208877D01*
X1788641Y2212209D01*
Y2218874D01*
X1785309D02*
Y2208877D01*
X1780311D01*
X1778644Y2210543D01*
Y2217208D01*
X1780311Y2218874D01*
X1785309D01*
X1775312Y2208877D02*
X1771980D01*
X1773646D01*
Y2218874D01*
X1775312Y2217208D01*
X1766982D02*
X1765315Y2218874D01*
X1761983D01*
X1760317Y2217208D01*
Y2215542D01*
X1761983Y2213876D01*
X1763649D01*
X1761983D01*
X1760317Y2212209D01*
Y2210543D01*
X1761983Y2208877D01*
X1765315D01*
X1766982Y2210543D01*
X1480216Y2218874D02*
Y2212209D01*
X1476884Y2208877D01*
X1473551Y2212209D01*
Y2218874D01*
X1470219D02*
Y2208877D01*
X1465221D01*
X1463555Y2210543D01*
Y2217208D01*
X1465221Y2218874D01*
X1470219D01*
X1460222Y2208877D02*
X1456890D01*
X1458556D01*
Y2218874D01*
X1460222Y2217208D01*
X1445227Y2208877D02*
X1451892D01*
X1445227Y2215542D01*
Y2217208D01*
X1446893Y2218874D01*
X1450226D01*
X1451892Y2217208D01*
X1165130Y2218874D02*
Y2212209D01*
X1161798Y2208877D01*
X1158465Y2212209D01*
Y2218874D01*
X1155133D02*
Y2208877D01*
X1150135D01*
X1148469Y2210543D01*
Y2217208D01*
X1150135Y2218874D01*
X1155133D01*
X1145136Y2208877D02*
X1141804D01*
X1143470D01*
Y2218874D01*
X1145136Y2217208D01*
X1136806Y2208877D02*
X1133474D01*
X1135140D01*
Y2218874D01*
X1136806Y2217208D01*
X850298Y2218874D02*
Y2212209D01*
X846966Y2208877D01*
X843634Y2212209D01*
Y2218874D01*
X840301D02*
Y2208877D01*
X835303D01*
X833637Y2210543D01*
Y2217208D01*
X835303Y2218874D01*
X840301D01*
X830305Y2208877D02*
X826972D01*
X828638D01*
Y2218874D01*
X830305Y2217208D01*
X821974D02*
X820308Y2218874D01*
X816975D01*
X815309Y2217208D01*
Y2210543D01*
X816975Y2208877D01*
X820308D01*
X821974Y2210543D01*
Y2217208D01*
X535212Y2218874D02*
Y2212209D01*
X531880Y2208877D01*
X528548Y2212209D01*
Y2218874D01*
X525215D02*
Y2208877D01*
X520217D01*
X518551Y2210543D01*
Y2217208D01*
X520217Y2218874D01*
X525215D01*
X515219Y2210543D02*
X513553Y2208877D01*
X510220D01*
X508554Y2210543D01*
Y2217208D01*
X510220Y2218874D01*
X513553D01*
X515219Y2217208D01*
Y2215542D01*
X513553Y2213876D01*
X508554D01*
X2215130Y2218874D02*
Y2212209D01*
X2211797Y2208877D01*
X2208465Y2212209D01*
Y2218874D01*
X2205133D02*
Y2208877D01*
X2200134D01*
X2198468Y2210543D01*
Y2217208D01*
X2200134Y2218874D01*
X2205133D01*
X2195136D02*
X2188471D01*
Y2217208D01*
X2195136Y2210543D01*
Y2208877D01*
X1900298Y2218874D02*
Y2212209D01*
X1896965Y2208877D01*
X1893633Y2212209D01*
Y2218874D01*
X1890301D02*
Y2208877D01*
X1885302D01*
X1883636Y2210543D01*
Y2217208D01*
X1885302Y2218874D01*
X1890301D01*
X1873640D02*
X1876972Y2217208D01*
X1880304Y2213876D01*
Y2210543D01*
X1878638Y2208877D01*
X1875306D01*
X1873640Y2210543D01*
Y2212209D01*
X1875306Y2213876D01*
X1880304D01*
X1585212Y2218874D02*
Y2212209D01*
X1581879Y2208877D01*
X1578547Y2212209D01*
Y2218874D01*
X1575215D02*
Y2208877D01*
X1570217D01*
X1568551Y2210543D01*
Y2217208D01*
X1570217Y2218874D01*
X1575215D01*
X1558554D02*
X1565218D01*
Y2213876D01*
X1561886Y2215542D01*
X1560220D01*
X1558554Y2213876D01*
Y2210543D01*
X1560220Y2208877D01*
X1563552D01*
X1565218Y2210543D01*
X1270126Y2218874D02*
Y2212209D01*
X1266794Y2208877D01*
X1263461Y2212209D01*
Y2218874D01*
X1260129D02*
Y2208877D01*
X1255131D01*
X1253465Y2210543D01*
Y2217208D01*
X1255131Y2218874D01*
X1260129D01*
X1245134Y2208877D02*
Y2218874D01*
X1250132Y2213876D01*
X1243468D01*
X955294Y2218874D02*
Y2212209D01*
X951962Y2208877D01*
X948630Y2212209D01*
Y2218874D01*
X945297D02*
Y2208877D01*
X940299D01*
X938633Y2210543D01*
Y2217208D01*
X940299Y2218874D01*
X945297D01*
X935301Y2217208D02*
X933634Y2218874D01*
X930302D01*
X928636Y2217208D01*
Y2215542D01*
X930302Y2213876D01*
X931968D01*
X930302D01*
X928636Y2212209D01*
Y2210543D01*
X930302Y2208877D01*
X933634D01*
X935301Y2210543D01*
X640174Y2219001D02*
Y2212336D01*
X636842Y2209004D01*
X633509Y2212336D01*
Y2219001D01*
X630177D02*
Y2209004D01*
X625179D01*
X623513Y2210670D01*
Y2217335D01*
X625179Y2219001D01*
X630177D01*
X613516Y2209004D02*
X620180D01*
X613516Y2215669D01*
Y2217335D01*
X615182Y2219001D01*
X618514D01*
X620180Y2217335D01*
X640250Y2198118D02*
X630093D01*
X635172Y2203196D02*
Y2193040D01*
X955250Y2198118D02*
X945093D01*
X950172Y2203196D02*
Y2193040D01*
X1270250Y2198118D02*
X1260093D01*
X1265172Y2203196D02*
Y2193040D01*
X1585250Y2198118D02*
X1575093D01*
X1580172Y2203196D02*
Y2193040D01*
X1900250Y2198118D02*
X1890093D01*
X1895172Y2203196D02*
Y2193040D01*
X2215250Y2198118D02*
X2205093D01*
X2210172Y2203196D02*
Y2193040D01*
X535250Y2198118D02*
X525093D01*
X530172Y2203196D02*
Y2193040D01*
X850250Y2198118D02*
X840093D01*
X845172Y2203196D02*
Y2193040D01*
X1165250Y2198118D02*
X1155093D01*
X1160172Y2203196D02*
Y2193040D01*
X1480250Y2198118D02*
X1470093D01*
X1475172Y2203196D02*
Y2193040D01*
X1795250Y2198118D02*
X1785093D01*
X1790172Y2203196D02*
Y2193040D01*
X2110250Y2198118D02*
X2100093D01*
X2105172Y2203196D02*
Y2193040D01*
X430250Y2198118D02*
X420093D01*
X425172Y2203196D02*
Y2193040D01*
X745250Y2198118D02*
X735093D01*
X740172Y2203196D02*
Y2193040D01*
X1060250Y2198118D02*
X1050093D01*
X1055172Y2203196D02*
Y2193040D01*
X1375250Y2198118D02*
X1365093D01*
X1370172Y2203196D02*
Y2193040D01*
X1690250Y2198118D02*
X1680093D01*
X1685172Y2203196D02*
Y2193040D01*
X2005250Y2198118D02*
X1995093D01*
X2000172Y2203196D02*
Y2193040D01*
X586500Y2308500D02*
X616500D01*
X586500Y2342500D02*
X616500D01*
X901500Y2308500D02*
X931500D01*
X901500Y2342500D02*
X931500D01*
X1216500Y2308500D02*
X1246500D01*
X1216500Y2342500D02*
X1246500D01*
X1531500Y2308500D02*
X1561500D01*
X1531500Y2342500D02*
X1561500D01*
X1846500Y2308500D02*
X1876500D01*
X1846500Y2342500D02*
X1876500D01*
X2161500Y2308500D02*
X2191500D01*
X2161500Y2342500D02*
X2191500D01*
X481500Y2308500D02*
X511500D01*
X481500Y2342500D02*
X511500D01*
X796500Y2308500D02*
X826500D01*
X796500Y2342500D02*
X826500D01*
X1111500Y2308500D02*
X1141500D01*
X1111500Y2342500D02*
X1141500D01*
X1426500Y2308500D02*
X1456500D01*
X1426500Y2342500D02*
X1456500D01*
X1741500Y2308500D02*
X1771500D01*
X1741500Y2342500D02*
X1771500D01*
X2056500Y2308500D02*
X2086500D01*
X2056500Y2342500D02*
X2086500D01*
X376500Y2308500D02*
X406500D01*
X376500Y2342500D02*
X406500D01*
X691500Y2308500D02*
X721500D01*
X691500Y2342500D02*
X721500D01*
X1006500Y2308500D02*
X1036500D01*
X1006500Y2342500D02*
X1036500D01*
X1321500Y2308500D02*
X1351500D01*
X1321500Y2342500D02*
X1351500D01*
X1636500Y2308500D02*
X1666500D01*
X1636500Y2342500D02*
X1666500D01*
X1951500Y2308500D02*
X1981500D01*
X1951500Y2342500D02*
X1981500D01*
X314000Y2364000D02*
X321000D01*
X339000D02*
X346000D01*
X330000Y2348000D02*
Y2355000D01*
Y2373000D02*
Y2380000D01*
X2240000Y2253000D02*
Y2260000D01*
X2249000Y2269000D02*
X2256000D01*
X2224000D02*
X2231000D01*
X2240000Y2278000D02*
Y2285000D01*
X2005213Y2371874D02*
Y2365210D01*
X2001881Y2361877D01*
X1998549Y2365210D01*
Y2371874D01*
X1995217D02*
Y2361877D01*
X1990218D01*
X1988552Y2363543D01*
Y2370208D01*
X1990218Y2371874D01*
X1995217D01*
X1978555Y2361877D02*
X1985220D01*
X1978555Y2368542D01*
Y2370208D01*
X1980221Y2371874D01*
X1983554D01*
X1985220Y2370208D01*
X1975223D02*
X1973557Y2371874D01*
X1970225D01*
X1968559Y2370208D01*
Y2363543D01*
X1970225Y2361877D01*
X1973557D01*
X1975223Y2363543D01*
Y2370208D01*
X1690128Y2371874D02*
Y2365210D01*
X1686795Y2361877D01*
X1683463Y2365210D01*
Y2371874D01*
X1680131D02*
Y2361877D01*
X1675132D01*
X1673466Y2363543D01*
Y2370208D01*
X1675132Y2371874D01*
X1680131D01*
X1670134Y2361877D02*
X1666802D01*
X1668468D01*
Y2371874D01*
X1670134Y2370208D01*
X1661803Y2363543D02*
X1660137Y2361877D01*
X1656805D01*
X1655139Y2363543D01*
Y2370208D01*
X1656805Y2371874D01*
X1660137D01*
X1661803Y2370208D01*
Y2368542D01*
X1660137Y2366876D01*
X1655139D01*
X1375296Y2371874D02*
Y2365210D01*
X1371963Y2361877D01*
X1368631Y2365210D01*
Y2371874D01*
X1365299D02*
Y2361877D01*
X1360300D01*
X1358634Y2363543D01*
Y2370208D01*
X1360300Y2371874D01*
X1365299D01*
X1355302Y2361877D02*
X1351970D01*
X1353636D01*
Y2371874D01*
X1355302Y2370208D01*
X1346971D02*
X1345305Y2371874D01*
X1341973D01*
X1340307Y2370208D01*
Y2368542D01*
X1341973Y2366876D01*
X1340307Y2365210D01*
Y2363543D01*
X1341973Y2361877D01*
X1345305D01*
X1346971Y2363543D01*
Y2365210D01*
X1345305Y2366876D01*
X1346971Y2368542D01*
Y2370208D01*
X1345305Y2366876D02*
X1341973D01*
X1060210Y2371874D02*
Y2365210D01*
X1056878Y2361877D01*
X1053545Y2365210D01*
Y2371874D01*
X1050213D02*
Y2361877D01*
X1045215D01*
X1043549Y2363543D01*
Y2370208D01*
X1045215Y2371874D01*
X1050213D01*
X1040216Y2361877D02*
X1036884D01*
X1038550D01*
Y2371874D01*
X1040216Y2370208D01*
X1031886Y2371874D02*
X1025221D01*
Y2370208D01*
X1031886Y2363543D01*
Y2361877D01*
X745124Y2371874D02*
Y2365210D01*
X741792Y2361877D01*
X738459Y2365210D01*
Y2371874D01*
X735127D02*
Y2361877D01*
X730129D01*
X728463Y2363543D01*
Y2370208D01*
X730129Y2371874D01*
X735127D01*
X725130Y2361877D02*
X721798D01*
X723464D01*
Y2371874D01*
X725130Y2370208D01*
X710135Y2371874D02*
X713467Y2370208D01*
X716800Y2366876D01*
Y2363543D01*
X715134Y2361877D01*
X711801D01*
X710135Y2363543D01*
Y2365210D01*
X711801Y2366876D01*
X716800D01*
X430292Y2371874D02*
Y2365210D01*
X426960Y2361877D01*
X423628Y2365210D01*
Y2371874D01*
X420295D02*
Y2361877D01*
X415297D01*
X413631Y2363543D01*
Y2370208D01*
X415297Y2371874D01*
X420295D01*
X410299Y2361877D02*
X406966D01*
X408632D01*
Y2371874D01*
X410299Y2370208D01*
X395303Y2371874D02*
X401968D01*
Y2366876D01*
X398636Y2368542D01*
X396969D01*
X395303Y2366876D01*
Y2363543D01*
X396969Y2361877D01*
X400302D01*
X401968Y2363543D01*
X2110138Y2371874D02*
Y2365210D01*
X2106805Y2361877D01*
X2103473Y2365210D01*
Y2371874D01*
X2100141D02*
Y2361877D01*
X2095142D01*
X2093476Y2363543D01*
Y2370208D01*
X2095142Y2371874D01*
X2100141D01*
X2090144Y2361877D02*
X2086812D01*
X2088478D01*
Y2371874D01*
X2090144Y2370208D01*
X2076815Y2361877D02*
Y2371874D01*
X2081813Y2366876D01*
X2075149D01*
X1795306Y2371874D02*
Y2365210D01*
X1791974Y2361877D01*
X1788641Y2365210D01*
Y2371874D01*
X1785309D02*
Y2361877D01*
X1780311D01*
X1778644Y2363543D01*
Y2370208D01*
X1780311Y2371874D01*
X1785309D01*
X1775312Y2361877D02*
X1771980D01*
X1773646D01*
Y2371874D01*
X1775312Y2370208D01*
X1766982D02*
X1765315Y2371874D01*
X1761983D01*
X1760317Y2370208D01*
Y2368542D01*
X1761983Y2366876D01*
X1763649D01*
X1761983D01*
X1760317Y2365210D01*
Y2363543D01*
X1761983Y2361877D01*
X1765315D01*
X1766982Y2363543D01*
X1480216Y2371874D02*
Y2365210D01*
X1476884Y2361877D01*
X1473551Y2365210D01*
Y2371874D01*
X1470219D02*
Y2361877D01*
X1465221D01*
X1463555Y2363543D01*
Y2370208D01*
X1465221Y2371874D01*
X1470219D01*
X1460222Y2361877D02*
X1456890D01*
X1458556D01*
Y2371874D01*
X1460222Y2370208D01*
X1445227Y2361877D02*
X1451892D01*
X1445227Y2368542D01*
Y2370208D01*
X1446893Y2371874D01*
X1450226D01*
X1451892Y2370208D01*
X1165130Y2371874D02*
Y2365210D01*
X1161798Y2361877D01*
X1158465Y2365210D01*
Y2371874D01*
X1155133D02*
Y2361877D01*
X1150135D01*
X1148469Y2363543D01*
Y2370208D01*
X1150135Y2371874D01*
X1155133D01*
X1145136Y2361877D02*
X1141804D01*
X1143470D01*
Y2371874D01*
X1145136Y2370208D01*
X1136806Y2361877D02*
X1133474D01*
X1135140D01*
Y2371874D01*
X1136806Y2370208D01*
X850298Y2371874D02*
Y2365210D01*
X846966Y2361877D01*
X843634Y2365210D01*
Y2371874D01*
X840301D02*
Y2361877D01*
X835303D01*
X833637Y2363543D01*
Y2370208D01*
X835303Y2371874D01*
X840301D01*
X830305Y2361877D02*
X826972D01*
X828638D01*
Y2371874D01*
X830305Y2370208D01*
X821974D02*
X820308Y2371874D01*
X816975D01*
X815309Y2370208D01*
Y2363543D01*
X816975Y2361877D01*
X820308D01*
X821974Y2363543D01*
Y2370208D01*
X535212Y2371874D02*
Y2365210D01*
X531880Y2361877D01*
X528548Y2365210D01*
Y2371874D01*
X525215D02*
Y2361877D01*
X520217D01*
X518551Y2363543D01*
Y2370208D01*
X520217Y2371874D01*
X525215D01*
X515219Y2363543D02*
X513553Y2361877D01*
X510220D01*
X508554Y2363543D01*
Y2370208D01*
X510220Y2371874D01*
X513553D01*
X515219Y2370208D01*
Y2368542D01*
X513553Y2366876D01*
X508554D01*
X2215130Y2371874D02*
Y2365210D01*
X2211797Y2361877D01*
X2208465Y2365210D01*
Y2371874D01*
X2205133D02*
Y2361877D01*
X2200134D01*
X2198468Y2363543D01*
Y2370208D01*
X2200134Y2371874D01*
X2205133D01*
X2195136D02*
X2188471D01*
Y2370208D01*
X2195136Y2363543D01*
Y2361877D01*
X1900298Y2371874D02*
Y2365210D01*
X1896965Y2361877D01*
X1893633Y2365210D01*
Y2371874D01*
X1890301D02*
Y2361877D01*
X1885302D01*
X1883636Y2363543D01*
Y2370208D01*
X1885302Y2371874D01*
X1890301D01*
X1873640D02*
X1876972Y2370208D01*
X1880304Y2366876D01*
Y2363543D01*
X1878638Y2361877D01*
X1875306D01*
X1873640Y2363543D01*
Y2365210D01*
X1875306Y2366876D01*
X1880304D01*
X1585212Y2371874D02*
Y2365210D01*
X1581879Y2361877D01*
X1578547Y2365210D01*
Y2371874D01*
X1575215D02*
Y2361877D01*
X1570217D01*
X1568551Y2363543D01*
Y2370208D01*
X1570217Y2371874D01*
X1575215D01*
X1558554D02*
X1565218D01*
Y2366876D01*
X1561886Y2368542D01*
X1560220D01*
X1558554Y2366876D01*
Y2363543D01*
X1560220Y2361877D01*
X1563552D01*
X1565218Y2363543D01*
X1270126Y2371874D02*
Y2365210D01*
X1266794Y2361877D01*
X1263461Y2365210D01*
Y2371874D01*
X1260129D02*
Y2361877D01*
X1255131D01*
X1253465Y2363543D01*
Y2370208D01*
X1255131Y2371874D01*
X1260129D01*
X1245134Y2361877D02*
Y2371874D01*
X1250132Y2366876D01*
X1243468D01*
X955294Y2371874D02*
Y2365210D01*
X951962Y2361877D01*
X948630Y2365210D01*
Y2371874D01*
X945297D02*
Y2361877D01*
X940299D01*
X938633Y2363543D01*
Y2370208D01*
X940299Y2371874D01*
X945297D01*
X935301Y2370208D02*
X933634Y2371874D01*
X930302D01*
X928636Y2370208D01*
Y2368542D01*
X930302Y2366876D01*
X931968D01*
X930302D01*
X928636Y2365210D01*
Y2363543D01*
X930302Y2361877D01*
X933634D01*
X935301Y2363543D01*
X640174Y2372001D02*
Y2365336D01*
X636842Y2362004D01*
X633509Y2365336D01*
Y2372001D01*
X630177D02*
Y2362004D01*
X625179D01*
X623513Y2363670D01*
Y2370335D01*
X625179Y2372001D01*
X630177D01*
X613516Y2362004D02*
X620180D01*
X613516Y2368669D01*
Y2370335D01*
X615182Y2372001D01*
X618514D01*
X620180Y2370335D01*
X640250Y2351118D02*
X630093D01*
X635172Y2356196D02*
Y2346039D01*
X955250Y2351118D02*
X945093D01*
X950172Y2356196D02*
Y2346039D01*
X1270250Y2351118D02*
X1260093D01*
X1265172Y2356196D02*
Y2346039D01*
X1585250Y2351118D02*
X1575093D01*
X1580172Y2356196D02*
Y2346039D01*
X1900250Y2351118D02*
X1890093D01*
X1895172Y2356196D02*
Y2346039D01*
X2215250Y2351118D02*
X2205093D01*
X2210172Y2356196D02*
Y2346039D01*
X535250Y2351118D02*
X525093D01*
X530172Y2356196D02*
Y2346039D01*
X850250Y2351118D02*
X840093D01*
X845172Y2356196D02*
Y2346039D01*
X1165250Y2351118D02*
X1155093D01*
X1160172Y2356196D02*
Y2346039D01*
X1480250Y2351118D02*
X1470093D01*
X1475172Y2356196D02*
Y2346039D01*
X1795250Y2351118D02*
X1785093D01*
X1790172Y2356196D02*
Y2346039D01*
X2110250Y2351118D02*
X2100093D01*
X2105172Y2356196D02*
Y2346039D01*
X430250Y2351118D02*
X420093D01*
X425172Y2356196D02*
Y2346039D01*
X745250Y2351118D02*
X735093D01*
X740172Y2356196D02*
Y2346039D01*
X1060250Y2351118D02*
X1050093D01*
X1055172Y2356196D02*
Y2346039D01*
X1375250Y2351118D02*
X1365093D01*
X1370172Y2356196D02*
Y2346039D01*
X1690250Y2351118D02*
X1680093D01*
X1685172Y2356196D02*
Y2346039D01*
X2005250Y2351118D02*
X1995093D01*
X2000172Y2356196D02*
Y2346039D01*
M02*
