G04 Layer_Color=16711935*
%FSLAX44Y44*%
%MOMM*%
G71*
G01*
G75*
%ADD32C,0.2540*%
%ADD49C,0.3000*%
D32*
X260000Y2402000D02*
X2310000D01*
X260000Y260000D02*
Y2402000D01*
Y260000D02*
X2310000D01*
Y2402000D01*
D49*
X310000Y413000D02*
X2258000D01*
Y260000D02*
Y413000D01*
X310000Y260000D02*
X2258000D01*
X310000D02*
Y413000D01*
Y566000D02*
X2258000D01*
Y413000D02*
Y566000D01*
X310000Y413000D02*
X2258000D01*
X310000D02*
Y566000D01*
Y719000D02*
X2258000D01*
Y566000D02*
Y719000D01*
X310000Y566000D02*
X2258000D01*
X310000D02*
Y719000D01*
Y872000D02*
X2258000D01*
Y719000D02*
Y872000D01*
X310000Y719000D02*
X2258000D01*
X310000D02*
Y872000D01*
Y1025000D02*
X2258000D01*
Y872000D02*
Y1025000D01*
X310000Y872000D02*
X2258000D01*
X310000D02*
Y1025000D01*
Y1178000D02*
X2258000D01*
Y1025000D02*
Y1178000D01*
X310000Y1025000D02*
X2258000D01*
X310000D02*
Y1178000D01*
Y1331000D02*
X2258000D01*
Y1178000D02*
Y1331000D01*
X310000Y1178000D02*
X2258000D01*
X310000D02*
Y1331000D01*
Y1484000D02*
X2258000D01*
Y1331000D02*
Y1484000D01*
X310000Y1331000D02*
X2258000D01*
X310000D02*
Y1484000D01*
Y1637000D02*
X2258000D01*
Y1484000D02*
Y1637000D01*
X310000Y1484000D02*
X2258000D01*
X310000D02*
Y1637000D01*
Y1790000D02*
X2258000D01*
Y1637000D02*
Y1790000D01*
X310000Y1637000D02*
X2258000D01*
X310000D02*
Y1790000D01*
Y1943000D02*
X2258000D01*
Y1790000D02*
Y1943000D01*
X310000Y1790000D02*
X2258000D01*
X310000D02*
Y1943000D01*
Y2096000D02*
X2258000D01*
Y1943000D02*
Y2096000D01*
X310000Y1943000D02*
X2258000D01*
X310000D02*
Y2096000D01*
Y2249000D02*
X2258000D01*
Y2096000D02*
Y2249000D01*
X310000Y2096000D02*
X2258000D01*
X310000D02*
Y2249000D01*
Y2402000D02*
X2258000D01*
Y2249000D02*
Y2402000D01*
X310000Y2249000D02*
X2258000D01*
X310000D02*
Y2402000D01*
M02*
