G04 Layer_Color=128*
%FSLAX44Y44*%
%MOMM*%
G71*
G01*
G75*
%ADD50C,0.0508*%
D50*
X987750Y317000D02*
X990750D01*
X989250Y315500D02*
Y318500D01*
X979250Y322750D02*
X982250D01*
X980750Y321250D02*
Y324250D01*
X979000Y310750D02*
X982000D01*
X980500Y309250D02*
Y312250D01*
X2219000Y336250D02*
X2222000D01*
X2220500Y334750D02*
Y337750D01*
X2227000Y332250D02*
X2230000D01*
X2228500Y330750D02*
Y333750D01*
X2227000Y340750D02*
X2230000D01*
X2228500Y339250D02*
Y342250D01*
X987750Y470000D02*
X990750D01*
X989250Y468500D02*
Y471500D01*
X979250Y475750D02*
X982250D01*
X980750Y474250D02*
Y477250D01*
X979000Y463750D02*
X982000D01*
X980500Y462250D02*
Y465250D01*
X2219000Y489250D02*
X2222000D01*
X2220500Y487750D02*
Y490750D01*
X2227000Y485250D02*
X2230000D01*
X2228500Y483750D02*
Y486750D01*
X2227000Y493750D02*
X2230000D01*
X2228500Y492250D02*
Y495250D01*
X987750Y623000D02*
X990750D01*
X989250Y621500D02*
Y624500D01*
X979250Y628750D02*
X982250D01*
X980750Y627250D02*
Y630250D01*
X979000Y616750D02*
X982000D01*
X980500Y615250D02*
Y618250D01*
X2219000Y642250D02*
X2222000D01*
X2220500Y640750D02*
Y643750D01*
X2227000Y638250D02*
X2230000D01*
X2228500Y636750D02*
Y639750D01*
X2227000Y646750D02*
X2230000D01*
X2228500Y645250D02*
Y648250D01*
X987750Y776000D02*
X990750D01*
X989250Y774500D02*
Y777500D01*
X979250Y781750D02*
X982250D01*
X980750Y780250D02*
Y783250D01*
X979000Y769750D02*
X982000D01*
X980500Y768250D02*
Y771250D01*
X2219000Y795250D02*
X2222000D01*
X2220500Y793750D02*
Y796750D01*
X2227000Y791250D02*
X2230000D01*
X2228500Y789750D02*
Y792750D01*
X2227000Y799750D02*
X2230000D01*
X2228500Y798250D02*
Y801250D01*
X987750Y929000D02*
X990750D01*
X989250Y927500D02*
Y930500D01*
X979250Y934750D02*
X982250D01*
X980750Y933250D02*
Y936250D01*
X979000Y922750D02*
X982000D01*
X980500Y921250D02*
Y924250D01*
X2219000Y948250D02*
X2222000D01*
X2220500Y946750D02*
Y949750D01*
X2227000Y944250D02*
X2230000D01*
X2228500Y942750D02*
Y945750D01*
X2227000Y952750D02*
X2230000D01*
X2228500Y951250D02*
Y954250D01*
X987750Y1082000D02*
X990750D01*
X989250Y1080500D02*
Y1083500D01*
X979250Y1087750D02*
X982250D01*
X980750Y1086250D02*
Y1089250D01*
X979000Y1075750D02*
X982000D01*
X980500Y1074250D02*
Y1077250D01*
X2219000Y1101250D02*
X2222000D01*
X2220500Y1099750D02*
Y1102750D01*
X2227000Y1097250D02*
X2230000D01*
X2228500Y1095750D02*
Y1098750D01*
X2227000Y1105750D02*
X2230000D01*
X2228500Y1104250D02*
Y1107250D01*
X987750Y1235000D02*
X990750D01*
X989250Y1233500D02*
Y1236500D01*
X979250Y1240750D02*
X982250D01*
X980750Y1239250D02*
Y1242250D01*
X979000Y1228750D02*
X982000D01*
X980500Y1227250D02*
Y1230250D01*
X2219000Y1254250D02*
X2222000D01*
X2220500Y1252750D02*
Y1255750D01*
X2227000Y1250250D02*
X2230000D01*
X2228500Y1248750D02*
Y1251750D01*
X2227000Y1258750D02*
X2230000D01*
X2228500Y1257250D02*
Y1260250D01*
X987750Y1388000D02*
X990750D01*
X989250Y1386500D02*
Y1389500D01*
X979250Y1393750D02*
X982250D01*
X980750Y1392250D02*
Y1395250D01*
X979000Y1381750D02*
X982000D01*
X980500Y1380250D02*
Y1383250D01*
X2219000Y1407250D02*
X2222000D01*
X2220500Y1405750D02*
Y1408750D01*
X2227000Y1403250D02*
X2230000D01*
X2228500Y1401750D02*
Y1404750D01*
X2227000Y1411750D02*
X2230000D01*
X2228500Y1410250D02*
Y1413250D01*
X987750Y1541000D02*
X990750D01*
X989250Y1539500D02*
Y1542500D01*
X979250Y1546750D02*
X982250D01*
X980750Y1545250D02*
Y1548250D01*
X979000Y1534750D02*
X982000D01*
X980500Y1533250D02*
Y1536250D01*
X2219000Y1560250D02*
X2222000D01*
X2220500Y1558750D02*
Y1561750D01*
X2227000Y1556250D02*
X2230000D01*
X2228500Y1554750D02*
Y1557750D01*
X2227000Y1564750D02*
X2230000D01*
X2228500Y1563250D02*
Y1566250D01*
X987750Y1694000D02*
X990750D01*
X989250Y1692500D02*
Y1695500D01*
X979250Y1699750D02*
X982250D01*
X980750Y1698250D02*
Y1701250D01*
X979000Y1687750D02*
X982000D01*
X980500Y1686250D02*
Y1689250D01*
X2219000Y1713250D02*
X2222000D01*
X2220500Y1711750D02*
Y1714750D01*
X2227000Y1709250D02*
X2230000D01*
X2228500Y1707750D02*
Y1710750D01*
X2227000Y1717750D02*
X2230000D01*
X2228500Y1716250D02*
Y1719250D01*
X987750Y1847000D02*
X990750D01*
X989250Y1845500D02*
Y1848500D01*
X979250Y1852750D02*
X982250D01*
X980750Y1851250D02*
Y1854250D01*
X979000Y1840750D02*
X982000D01*
X980500Y1839250D02*
Y1842250D01*
X2219000Y1866250D02*
X2222000D01*
X2220500Y1864750D02*
Y1867750D01*
X2227000Y1862250D02*
X2230000D01*
X2228500Y1860750D02*
Y1863750D01*
X2227000Y1870750D02*
X2230000D01*
X2228500Y1869250D02*
Y1872250D01*
X987750Y2000000D02*
X990750D01*
X989250Y1998500D02*
Y2001500D01*
X979250Y2005750D02*
X982250D01*
X980750Y2004250D02*
Y2007250D01*
X979000Y1993750D02*
X982000D01*
X980500Y1992250D02*
Y1995250D01*
X2219000Y2019250D02*
X2222000D01*
X2220500Y2017750D02*
Y2020750D01*
X2227000Y2015250D02*
X2230000D01*
X2228500Y2013750D02*
Y2016750D01*
X2227000Y2023750D02*
X2230000D01*
X2228500Y2022250D02*
Y2025250D01*
X987750Y2153000D02*
X990750D01*
X989250Y2151500D02*
Y2154500D01*
X979250Y2158750D02*
X982250D01*
X980750Y2157250D02*
Y2160250D01*
X979000Y2146750D02*
X982000D01*
X980500Y2145250D02*
Y2148250D01*
X2219000Y2172250D02*
X2222000D01*
X2220500Y2170750D02*
Y2173750D01*
X2227000Y2168250D02*
X2230000D01*
X2228500Y2166750D02*
Y2169750D01*
X2227000Y2176750D02*
X2230000D01*
X2228500Y2175250D02*
Y2178250D01*
X987750Y2306000D02*
X990750D01*
X989250Y2304500D02*
Y2307500D01*
X979250Y2311750D02*
X982250D01*
X980750Y2310250D02*
Y2313250D01*
X979000Y2299750D02*
X982000D01*
X980500Y2298250D02*
Y2301250D01*
X2219000Y2325250D02*
X2222000D01*
X2220500Y2323750D02*
Y2326750D01*
X2227000Y2321250D02*
X2230000D01*
X2228500Y2319750D02*
Y2322750D01*
X2227000Y2329750D02*
X2230000D01*
X2228500Y2328250D02*
Y2331250D01*
M02*
