G04 Layer_Color=128*
%FSLAX44Y44*%
%MOMM*%
G71*
G01*
G75*
%ADD10C,1.0000*%
%ADD28R,2.0000X2.8000*%
D10*
X2285000Y290000D02*
D03*
Y2370000D02*
D03*
X285000D02*
D03*
Y300000D02*
D03*
X2240000Y280000D02*
D03*
Y395000D02*
D03*
X330000Y375000D02*
D03*
Y280000D02*
D03*
X2240000Y433000D02*
D03*
Y548000D02*
D03*
X330000Y528000D02*
D03*
Y433000D02*
D03*
X2240000Y586000D02*
D03*
Y701000D02*
D03*
X330000Y681000D02*
D03*
Y586000D02*
D03*
X2240000Y739000D02*
D03*
Y854000D02*
D03*
X330000Y834000D02*
D03*
Y739000D02*
D03*
X2240000Y892000D02*
D03*
Y1007000D02*
D03*
X330000Y987000D02*
D03*
Y892000D02*
D03*
X2240000Y1045000D02*
D03*
Y1160000D02*
D03*
X330000Y1140000D02*
D03*
Y1045000D02*
D03*
X2240000Y1198000D02*
D03*
Y1313000D02*
D03*
X330000Y1293000D02*
D03*
Y1198000D02*
D03*
X2240000Y1351000D02*
D03*
Y1466000D02*
D03*
X330000Y1446000D02*
D03*
Y1351000D02*
D03*
X2240000Y1504000D02*
D03*
Y1619000D02*
D03*
X330000Y1599000D02*
D03*
Y1504000D02*
D03*
X2240000Y1657000D02*
D03*
Y1772000D02*
D03*
X330000Y1752000D02*
D03*
Y1657000D02*
D03*
X2240000Y1810000D02*
D03*
Y1925000D02*
D03*
X330000Y1905000D02*
D03*
Y1810000D02*
D03*
X2240000Y1963000D02*
D03*
Y2078000D02*
D03*
X330000Y2058000D02*
D03*
Y1963000D02*
D03*
X2240000Y2116000D02*
D03*
Y2231000D02*
D03*
X330000Y2211000D02*
D03*
Y2116000D02*
D03*
X2240000Y2269000D02*
D03*
Y2384000D02*
D03*
X330000Y2364000D02*
D03*
Y2269000D02*
D03*
D28*
X618010Y336500D02*
D03*
X584990D02*
D03*
X899990D02*
D03*
X933010D02*
D03*
X1248010D02*
D03*
X1214990D02*
D03*
X1529990D02*
D03*
X1563010D02*
D03*
X1878010D02*
D03*
X1844990D02*
D03*
X2159990D02*
D03*
X2193010D02*
D03*
X513010D02*
D03*
X479990D02*
D03*
X794990D02*
D03*
X828010D02*
D03*
X1143010D02*
D03*
X1109990D02*
D03*
X1424990D02*
D03*
X1458010D02*
D03*
X1773010D02*
D03*
X1739990D02*
D03*
X2054990D02*
D03*
X2088010D02*
D03*
X408010D02*
D03*
X374990D02*
D03*
X689990D02*
D03*
X723010D02*
D03*
X1038010D02*
D03*
X1004990D02*
D03*
X1319990D02*
D03*
X1353010D02*
D03*
X1668010D02*
D03*
X1634990D02*
D03*
X1949990D02*
D03*
X1983010D02*
D03*
X618010Y489500D02*
D03*
X584990D02*
D03*
X899990D02*
D03*
X933010D02*
D03*
X1248010D02*
D03*
X1214990D02*
D03*
X1529990D02*
D03*
X1563010D02*
D03*
X1878010D02*
D03*
X1844990D02*
D03*
X2159990D02*
D03*
X2193010D02*
D03*
X513010D02*
D03*
X479990D02*
D03*
X794990D02*
D03*
X828010D02*
D03*
X1143010D02*
D03*
X1109990D02*
D03*
X1424990D02*
D03*
X1458010D02*
D03*
X1773010D02*
D03*
X1739990D02*
D03*
X2054990D02*
D03*
X2088010D02*
D03*
X408010D02*
D03*
X374990D02*
D03*
X689990D02*
D03*
X723010D02*
D03*
X1038010D02*
D03*
X1004990D02*
D03*
X1319990D02*
D03*
X1353010D02*
D03*
X1668010D02*
D03*
X1634990D02*
D03*
X1949990D02*
D03*
X1983010D02*
D03*
X618010Y642500D02*
D03*
X584990D02*
D03*
X899990D02*
D03*
X933010D02*
D03*
X1248010D02*
D03*
X1214990D02*
D03*
X1529990D02*
D03*
X1563010D02*
D03*
X1878010D02*
D03*
X1844990D02*
D03*
X2159990D02*
D03*
X2193010D02*
D03*
X513010D02*
D03*
X479990D02*
D03*
X794990D02*
D03*
X828010D02*
D03*
X1143010D02*
D03*
X1109990D02*
D03*
X1424990D02*
D03*
X1458010D02*
D03*
X1773010D02*
D03*
X1739990D02*
D03*
X2054990D02*
D03*
X2088010D02*
D03*
X408010D02*
D03*
X374990D02*
D03*
X689990D02*
D03*
X723010D02*
D03*
X1038010D02*
D03*
X1004990D02*
D03*
X1319990D02*
D03*
X1353010D02*
D03*
X1668010D02*
D03*
X1634990D02*
D03*
X1949990D02*
D03*
X1983010D02*
D03*
X618010Y795500D02*
D03*
X584990D02*
D03*
X899990D02*
D03*
X933010D02*
D03*
X1248010D02*
D03*
X1214990D02*
D03*
X1529990D02*
D03*
X1563010D02*
D03*
X1878010D02*
D03*
X1844990D02*
D03*
X2159990D02*
D03*
X2193010D02*
D03*
X513010D02*
D03*
X479990D02*
D03*
X794990D02*
D03*
X828010D02*
D03*
X1143010D02*
D03*
X1109990D02*
D03*
X1424990D02*
D03*
X1458010D02*
D03*
X1773010D02*
D03*
X1739990D02*
D03*
X2054990D02*
D03*
X2088010D02*
D03*
X408010D02*
D03*
X374990D02*
D03*
X689990D02*
D03*
X723010D02*
D03*
X1038010D02*
D03*
X1004990D02*
D03*
X1319990D02*
D03*
X1353010D02*
D03*
X1668010D02*
D03*
X1634990D02*
D03*
X1949990D02*
D03*
X1983010D02*
D03*
X618010Y948500D02*
D03*
X584990D02*
D03*
X899990D02*
D03*
X933010D02*
D03*
X1248010D02*
D03*
X1214990D02*
D03*
X1529990D02*
D03*
X1563010D02*
D03*
X1878010D02*
D03*
X1844990D02*
D03*
X2159990D02*
D03*
X2193010D02*
D03*
X513010D02*
D03*
X479990D02*
D03*
X794990D02*
D03*
X828010D02*
D03*
X1143010D02*
D03*
X1109990D02*
D03*
X1424990D02*
D03*
X1458010D02*
D03*
X1773010D02*
D03*
X1739990D02*
D03*
X2054990D02*
D03*
X2088010D02*
D03*
X408010D02*
D03*
X374990D02*
D03*
X689990D02*
D03*
X723010D02*
D03*
X1038010D02*
D03*
X1004990D02*
D03*
X1319990D02*
D03*
X1353010D02*
D03*
X1668010D02*
D03*
X1634990D02*
D03*
X1949990D02*
D03*
X1983010D02*
D03*
X618010Y1101500D02*
D03*
X584990D02*
D03*
X899990D02*
D03*
X933010D02*
D03*
X1248010D02*
D03*
X1214990D02*
D03*
X1529990D02*
D03*
X1563010D02*
D03*
X1878010D02*
D03*
X1844990D02*
D03*
X2159990D02*
D03*
X2193010D02*
D03*
X513010D02*
D03*
X479990D02*
D03*
X794990D02*
D03*
X828010D02*
D03*
X1143010D02*
D03*
X1109990D02*
D03*
X1424990D02*
D03*
X1458010D02*
D03*
X1773010D02*
D03*
X1739990D02*
D03*
X2054990D02*
D03*
X2088010D02*
D03*
X408010D02*
D03*
X374990D02*
D03*
X689990D02*
D03*
X723010D02*
D03*
X1038010D02*
D03*
X1004990D02*
D03*
X1319990D02*
D03*
X1353010D02*
D03*
X1668010D02*
D03*
X1634990D02*
D03*
X1949990D02*
D03*
X1983010D02*
D03*
X618010Y1254500D02*
D03*
X584990D02*
D03*
X899990D02*
D03*
X933010D02*
D03*
X1248010D02*
D03*
X1214990D02*
D03*
X1529990D02*
D03*
X1563010D02*
D03*
X1878010D02*
D03*
X1844990D02*
D03*
X2159990D02*
D03*
X2193010D02*
D03*
X513010D02*
D03*
X479990D02*
D03*
X794990D02*
D03*
X828010D02*
D03*
X1143010D02*
D03*
X1109990D02*
D03*
X1424990D02*
D03*
X1458010D02*
D03*
X1773010D02*
D03*
X1739990D02*
D03*
X2054990D02*
D03*
X2088010D02*
D03*
X408010D02*
D03*
X374990D02*
D03*
X689990D02*
D03*
X723010D02*
D03*
X1038010D02*
D03*
X1004990D02*
D03*
X1319990D02*
D03*
X1353010D02*
D03*
X1668010D02*
D03*
X1634990D02*
D03*
X1949990D02*
D03*
X1983010D02*
D03*
X618010Y1407500D02*
D03*
X584990D02*
D03*
X899990D02*
D03*
X933010D02*
D03*
X1248010D02*
D03*
X1214990D02*
D03*
X1529990D02*
D03*
X1563010D02*
D03*
X1878010D02*
D03*
X1844990D02*
D03*
X2159990D02*
D03*
X2193010D02*
D03*
X513010D02*
D03*
X479990D02*
D03*
X794990D02*
D03*
X828010D02*
D03*
X1143010D02*
D03*
X1109990D02*
D03*
X1424990D02*
D03*
X1458010D02*
D03*
X1773010D02*
D03*
X1739990D02*
D03*
X2054990D02*
D03*
X2088010D02*
D03*
X408010D02*
D03*
X374990D02*
D03*
X689990D02*
D03*
X723010D02*
D03*
X1038010D02*
D03*
X1004990D02*
D03*
X1319990D02*
D03*
X1353010D02*
D03*
X1668010D02*
D03*
X1634990D02*
D03*
X1949990D02*
D03*
X1983010D02*
D03*
X618010Y1560500D02*
D03*
X584990D02*
D03*
X899990D02*
D03*
X933010D02*
D03*
X1248010D02*
D03*
X1214990D02*
D03*
X1529990D02*
D03*
X1563010D02*
D03*
X1878010D02*
D03*
X1844990D02*
D03*
X2159990D02*
D03*
X2193010D02*
D03*
X513010D02*
D03*
X479990D02*
D03*
X794990D02*
D03*
X828010D02*
D03*
X1143010D02*
D03*
X1109990D02*
D03*
X1424990D02*
D03*
X1458010D02*
D03*
X1773010D02*
D03*
X1739990D02*
D03*
X2054990D02*
D03*
X2088010D02*
D03*
X408010D02*
D03*
X374990D02*
D03*
X689990D02*
D03*
X723010D02*
D03*
X1038010D02*
D03*
X1004990D02*
D03*
X1319990D02*
D03*
X1353010D02*
D03*
X1668010D02*
D03*
X1634990D02*
D03*
X1949990D02*
D03*
X1983010D02*
D03*
X618010Y1713500D02*
D03*
X584990D02*
D03*
X899990D02*
D03*
X933010D02*
D03*
X1248010D02*
D03*
X1214990D02*
D03*
X1529990D02*
D03*
X1563010D02*
D03*
X1878010D02*
D03*
X1844990D02*
D03*
X2159990D02*
D03*
X2193010D02*
D03*
X513010D02*
D03*
X479990D02*
D03*
X794990D02*
D03*
X828010D02*
D03*
X1143010D02*
D03*
X1109990D02*
D03*
X1424990D02*
D03*
X1458010D02*
D03*
X1773010D02*
D03*
X1739990D02*
D03*
X2054990D02*
D03*
X2088010D02*
D03*
X408010D02*
D03*
X374990D02*
D03*
X689990D02*
D03*
X723010D02*
D03*
X1038010D02*
D03*
X1004990D02*
D03*
X1319990D02*
D03*
X1353010D02*
D03*
X1668010D02*
D03*
X1634990D02*
D03*
X1949990D02*
D03*
X1983010D02*
D03*
X618010Y1866500D02*
D03*
X584990D02*
D03*
X899990D02*
D03*
X933010D02*
D03*
X1248010D02*
D03*
X1214990D02*
D03*
X1529990D02*
D03*
X1563010D02*
D03*
X1878010D02*
D03*
X1844990D02*
D03*
X2159990D02*
D03*
X2193010D02*
D03*
X513010D02*
D03*
X479990D02*
D03*
X794990D02*
D03*
X828010D02*
D03*
X1143010D02*
D03*
X1109990D02*
D03*
X1424990D02*
D03*
X1458010D02*
D03*
X1773010D02*
D03*
X1739990D02*
D03*
X2054990D02*
D03*
X2088010D02*
D03*
X408010D02*
D03*
X374990D02*
D03*
X689990D02*
D03*
X723010D02*
D03*
X1038010D02*
D03*
X1004990D02*
D03*
X1319990D02*
D03*
X1353010D02*
D03*
X1668010D02*
D03*
X1634990D02*
D03*
X1949990D02*
D03*
X1983010D02*
D03*
X618010Y2019500D02*
D03*
X584990D02*
D03*
X899990D02*
D03*
X933010D02*
D03*
X1248010D02*
D03*
X1214990D02*
D03*
X1529990D02*
D03*
X1563010D02*
D03*
X1878010D02*
D03*
X1844990D02*
D03*
X2159990D02*
D03*
X2193010D02*
D03*
X513010D02*
D03*
X479990D02*
D03*
X794990D02*
D03*
X828010D02*
D03*
X1143010D02*
D03*
X1109990D02*
D03*
X1424990D02*
D03*
X1458010D02*
D03*
X1773010D02*
D03*
X1739990D02*
D03*
X2054990D02*
D03*
X2088010D02*
D03*
X408010D02*
D03*
X374990D02*
D03*
X689990D02*
D03*
X723010D02*
D03*
X1038010D02*
D03*
X1004990D02*
D03*
X1319990D02*
D03*
X1353010D02*
D03*
X1668010D02*
D03*
X1634990D02*
D03*
X1949990D02*
D03*
X1983010D02*
D03*
X618010Y2172500D02*
D03*
X584990D02*
D03*
X899990D02*
D03*
X933010D02*
D03*
X1248010D02*
D03*
X1214990D02*
D03*
X1529990D02*
D03*
X1563010D02*
D03*
X1878010D02*
D03*
X1844990D02*
D03*
X2159990D02*
D03*
X2193010D02*
D03*
X513010D02*
D03*
X479990D02*
D03*
X794990D02*
D03*
X828010D02*
D03*
X1143010D02*
D03*
X1109990D02*
D03*
X1424990D02*
D03*
X1458010D02*
D03*
X1773010D02*
D03*
X1739990D02*
D03*
X2054990D02*
D03*
X2088010D02*
D03*
X408010D02*
D03*
X374990D02*
D03*
X689990D02*
D03*
X723010D02*
D03*
X1038010D02*
D03*
X1004990D02*
D03*
X1319990D02*
D03*
X1353010D02*
D03*
X1668010D02*
D03*
X1634990D02*
D03*
X1949990D02*
D03*
X1983010D02*
D03*
X618010Y2325500D02*
D03*
X584990D02*
D03*
X899990D02*
D03*
X933010D02*
D03*
X1248010D02*
D03*
X1214990D02*
D03*
X1529990D02*
D03*
X1563010D02*
D03*
X1878010D02*
D03*
X1844990D02*
D03*
X2159990D02*
D03*
X2193010D02*
D03*
X513010D02*
D03*
X479990D02*
D03*
X794990D02*
D03*
X828010D02*
D03*
X1143010D02*
D03*
X1109990D02*
D03*
X1424990D02*
D03*
X1458010D02*
D03*
X1773010D02*
D03*
X1739990D02*
D03*
X2054990D02*
D03*
X2088010D02*
D03*
X408010D02*
D03*
X374990D02*
D03*
X689990D02*
D03*
X723010D02*
D03*
X1038010D02*
D03*
X1004990D02*
D03*
X1319990D02*
D03*
X1353010D02*
D03*
X1668010D02*
D03*
X1634990D02*
D03*
X1949990D02*
D03*
X1983010D02*
D03*
M02*
