G04 Layer_Color=128*
%FSLAX44Y44*%
%MOMM*%
G71*
G01*
G75*
%ADD10C,1.0000*%
%ADD28R,2.0000X2.8000*%
D10*
X285000Y300000D02*
D03*
Y2370000D02*
D03*
X2285000D02*
D03*
Y290000D02*
D03*
D28*
X1983010Y336500D02*
D03*
X1949990D02*
D03*
X1634990D02*
D03*
X1668010D02*
D03*
X1353010D02*
D03*
X1319990D02*
D03*
X1004990D02*
D03*
X1038010D02*
D03*
X723010D02*
D03*
X689990D02*
D03*
X374990D02*
D03*
X408010D02*
D03*
X2088010D02*
D03*
X2054990D02*
D03*
X1739990D02*
D03*
X1773010D02*
D03*
X1458010D02*
D03*
X1424990D02*
D03*
X1109990D02*
D03*
X1143010D02*
D03*
X828010D02*
D03*
X794990D02*
D03*
X479990D02*
D03*
X513010D02*
D03*
X2193010D02*
D03*
X2159990D02*
D03*
X1844990D02*
D03*
X1878010D02*
D03*
X1563010D02*
D03*
X1529990D02*
D03*
X1214990D02*
D03*
X1248010D02*
D03*
X933010D02*
D03*
X899990D02*
D03*
X584990D02*
D03*
X618010D02*
D03*
X1983010Y489500D02*
D03*
X1949990D02*
D03*
X1634990D02*
D03*
X1668010D02*
D03*
X1353010D02*
D03*
X1319990D02*
D03*
X1004990D02*
D03*
X1038010D02*
D03*
X723010D02*
D03*
X689990D02*
D03*
X374990D02*
D03*
X408010D02*
D03*
X2088010D02*
D03*
X2054990D02*
D03*
X1739990D02*
D03*
X1773010D02*
D03*
X1458010D02*
D03*
X1424990D02*
D03*
X1109990D02*
D03*
X1143010D02*
D03*
X828010D02*
D03*
X794990D02*
D03*
X479990D02*
D03*
X513010D02*
D03*
X2193010D02*
D03*
X2159990D02*
D03*
X1844990D02*
D03*
X1878010D02*
D03*
X1563010D02*
D03*
X1529990D02*
D03*
X1214990D02*
D03*
X1248010D02*
D03*
X933010D02*
D03*
X899990D02*
D03*
X584990D02*
D03*
X618010D02*
D03*
X1983010Y642500D02*
D03*
X1949990D02*
D03*
X1634990D02*
D03*
X1668010D02*
D03*
X1353010D02*
D03*
X1319990D02*
D03*
X1004990D02*
D03*
X1038010D02*
D03*
X723010D02*
D03*
X689990D02*
D03*
X374990D02*
D03*
X408010D02*
D03*
X2088010D02*
D03*
X2054990D02*
D03*
X1739990D02*
D03*
X1773010D02*
D03*
X1458010D02*
D03*
X1424990D02*
D03*
X1109990D02*
D03*
X1143010D02*
D03*
X828010D02*
D03*
X794990D02*
D03*
X479990D02*
D03*
X513010D02*
D03*
X2193010D02*
D03*
X2159990D02*
D03*
X1844990D02*
D03*
X1878010D02*
D03*
X1563010D02*
D03*
X1529990D02*
D03*
X1214990D02*
D03*
X1248010D02*
D03*
X933010D02*
D03*
X899990D02*
D03*
X584990D02*
D03*
X618010D02*
D03*
X1983010Y795500D02*
D03*
X1949990D02*
D03*
X1634990D02*
D03*
X1668010D02*
D03*
X1353010D02*
D03*
X1319990D02*
D03*
X1004990D02*
D03*
X1038010D02*
D03*
X723010D02*
D03*
X689990D02*
D03*
X374990D02*
D03*
X408010D02*
D03*
X2088010D02*
D03*
X2054990D02*
D03*
X1739990D02*
D03*
X1773010D02*
D03*
X1458010D02*
D03*
X1424990D02*
D03*
X1109990D02*
D03*
X1143010D02*
D03*
X828010D02*
D03*
X794990D02*
D03*
X479990D02*
D03*
X513010D02*
D03*
X2193010D02*
D03*
X2159990D02*
D03*
X1844990D02*
D03*
X1878010D02*
D03*
X1563010D02*
D03*
X1529990D02*
D03*
X1214990D02*
D03*
X1248010D02*
D03*
X933010D02*
D03*
X899990D02*
D03*
X584990D02*
D03*
X618010D02*
D03*
X1983010Y948500D02*
D03*
X1949990D02*
D03*
X1634990D02*
D03*
X1668010D02*
D03*
X1353010D02*
D03*
X1319990D02*
D03*
X1004990D02*
D03*
X1038010D02*
D03*
X723010D02*
D03*
X689990D02*
D03*
X374990D02*
D03*
X408010D02*
D03*
X2088010D02*
D03*
X2054990D02*
D03*
X1739990D02*
D03*
X1773010D02*
D03*
X1458010D02*
D03*
X1424990D02*
D03*
X1109990D02*
D03*
X1143010D02*
D03*
X828010D02*
D03*
X794990D02*
D03*
X479990D02*
D03*
X513010D02*
D03*
X2193010D02*
D03*
X2159990D02*
D03*
X1844990D02*
D03*
X1878010D02*
D03*
X1563010D02*
D03*
X1529990D02*
D03*
X1214990D02*
D03*
X1248010D02*
D03*
X933010D02*
D03*
X899990D02*
D03*
X584990D02*
D03*
X618010D02*
D03*
X1983010Y1101500D02*
D03*
X1949990D02*
D03*
X1634990D02*
D03*
X1668010D02*
D03*
X1353010D02*
D03*
X1319990D02*
D03*
X1004990D02*
D03*
X1038010D02*
D03*
X723010D02*
D03*
X689990D02*
D03*
X374990D02*
D03*
X408010D02*
D03*
X2088010D02*
D03*
X2054990D02*
D03*
X1739990D02*
D03*
X1773010D02*
D03*
X1458010D02*
D03*
X1424990D02*
D03*
X1109990D02*
D03*
X1143010D02*
D03*
X828010D02*
D03*
X794990D02*
D03*
X479990D02*
D03*
X513010D02*
D03*
X2193010D02*
D03*
X2159990D02*
D03*
X1844990D02*
D03*
X1878010D02*
D03*
X1563010D02*
D03*
X1529990D02*
D03*
X1214990D02*
D03*
X1248010D02*
D03*
X933010D02*
D03*
X899990D02*
D03*
X584990D02*
D03*
X618010D02*
D03*
X1983010Y1254500D02*
D03*
X1949990D02*
D03*
X1634990D02*
D03*
X1668010D02*
D03*
X1353010D02*
D03*
X1319990D02*
D03*
X1004990D02*
D03*
X1038010D02*
D03*
X723010D02*
D03*
X689990D02*
D03*
X374990D02*
D03*
X408010D02*
D03*
X2088010D02*
D03*
X2054990D02*
D03*
X1739990D02*
D03*
X1773010D02*
D03*
X1458010D02*
D03*
X1424990D02*
D03*
X1109990D02*
D03*
X1143010D02*
D03*
X828010D02*
D03*
X794990D02*
D03*
X479990D02*
D03*
X513010D02*
D03*
X2193010D02*
D03*
X2159990D02*
D03*
X1844990D02*
D03*
X1878010D02*
D03*
X1563010D02*
D03*
X1529990D02*
D03*
X1214990D02*
D03*
X1248010D02*
D03*
X933010D02*
D03*
X899990D02*
D03*
X584990D02*
D03*
X618010D02*
D03*
X1983010Y1407500D02*
D03*
X1949990D02*
D03*
X1634990D02*
D03*
X1668010D02*
D03*
X1353010D02*
D03*
X1319990D02*
D03*
X1004990D02*
D03*
X1038010D02*
D03*
X723010D02*
D03*
X689990D02*
D03*
X374990D02*
D03*
X408010D02*
D03*
X2088010D02*
D03*
X2054990D02*
D03*
X1739990D02*
D03*
X1773010D02*
D03*
X1458010D02*
D03*
X1424990D02*
D03*
X1109990D02*
D03*
X1143010D02*
D03*
X828010D02*
D03*
X794990D02*
D03*
X479990D02*
D03*
X513010D02*
D03*
X2193010D02*
D03*
X2159990D02*
D03*
X1844990D02*
D03*
X1878010D02*
D03*
X1563010D02*
D03*
X1529990D02*
D03*
X1214990D02*
D03*
X1248010D02*
D03*
X933010D02*
D03*
X899990D02*
D03*
X584990D02*
D03*
X618010D02*
D03*
X1983010Y1560500D02*
D03*
X1949990D02*
D03*
X1634990D02*
D03*
X1668010D02*
D03*
X1353010D02*
D03*
X1319990D02*
D03*
X1004990D02*
D03*
X1038010D02*
D03*
X723010D02*
D03*
X689990D02*
D03*
X374990D02*
D03*
X408010D02*
D03*
X2088010D02*
D03*
X2054990D02*
D03*
X1739990D02*
D03*
X1773010D02*
D03*
X1458010D02*
D03*
X1424990D02*
D03*
X1109990D02*
D03*
X1143010D02*
D03*
X828010D02*
D03*
X794990D02*
D03*
X479990D02*
D03*
X513010D02*
D03*
X2193010D02*
D03*
X2159990D02*
D03*
X1844990D02*
D03*
X1878010D02*
D03*
X1563010D02*
D03*
X1529990D02*
D03*
X1214990D02*
D03*
X1248010D02*
D03*
X933010D02*
D03*
X899990D02*
D03*
X584990D02*
D03*
X618010D02*
D03*
X1983010Y1713500D02*
D03*
X1949990D02*
D03*
X1634990D02*
D03*
X1668010D02*
D03*
X1353010D02*
D03*
X1319990D02*
D03*
X1004990D02*
D03*
X1038010D02*
D03*
X723010D02*
D03*
X689990D02*
D03*
X374990D02*
D03*
X408010D02*
D03*
X2088010D02*
D03*
X2054990D02*
D03*
X1739990D02*
D03*
X1773010D02*
D03*
X1458010D02*
D03*
X1424990D02*
D03*
X1109990D02*
D03*
X1143010D02*
D03*
X828010D02*
D03*
X794990D02*
D03*
X479990D02*
D03*
X513010D02*
D03*
X2193010D02*
D03*
X2159990D02*
D03*
X1844990D02*
D03*
X1878010D02*
D03*
X1563010D02*
D03*
X1529990D02*
D03*
X1214990D02*
D03*
X1248010D02*
D03*
X933010D02*
D03*
X899990D02*
D03*
X584990D02*
D03*
X618010D02*
D03*
X1983010Y1866500D02*
D03*
X1949990D02*
D03*
X1634990D02*
D03*
X1668010D02*
D03*
X1353010D02*
D03*
X1319990D02*
D03*
X1004990D02*
D03*
X1038010D02*
D03*
X723010D02*
D03*
X689990D02*
D03*
X374990D02*
D03*
X408010D02*
D03*
X2088010D02*
D03*
X2054990D02*
D03*
X1739990D02*
D03*
X1773010D02*
D03*
X1458010D02*
D03*
X1424990D02*
D03*
X1109990D02*
D03*
X1143010D02*
D03*
X828010D02*
D03*
X794990D02*
D03*
X479990D02*
D03*
X513010D02*
D03*
X2193010D02*
D03*
X2159990D02*
D03*
X1844990D02*
D03*
X1878010D02*
D03*
X1563010D02*
D03*
X1529990D02*
D03*
X1214990D02*
D03*
X1248010D02*
D03*
X933010D02*
D03*
X899990D02*
D03*
X584990D02*
D03*
X618010D02*
D03*
X1983010Y2019500D02*
D03*
X1949990D02*
D03*
X1634990D02*
D03*
X1668010D02*
D03*
X1353010D02*
D03*
X1319990D02*
D03*
X1004990D02*
D03*
X1038010D02*
D03*
X723010D02*
D03*
X689990D02*
D03*
X374990D02*
D03*
X408010D02*
D03*
X2088010D02*
D03*
X2054990D02*
D03*
X1739990D02*
D03*
X1773010D02*
D03*
X1458010D02*
D03*
X1424990D02*
D03*
X1109990D02*
D03*
X1143010D02*
D03*
X828010D02*
D03*
X794990D02*
D03*
X479990D02*
D03*
X513010D02*
D03*
X2193010D02*
D03*
X2159990D02*
D03*
X1844990D02*
D03*
X1878010D02*
D03*
X1563010D02*
D03*
X1529990D02*
D03*
X1214990D02*
D03*
X1248010D02*
D03*
X933010D02*
D03*
X899990D02*
D03*
X584990D02*
D03*
X618010D02*
D03*
X1983010Y2172500D02*
D03*
X1949990D02*
D03*
X1634990D02*
D03*
X1668010D02*
D03*
X1353010D02*
D03*
X1319990D02*
D03*
X1004990D02*
D03*
X1038010D02*
D03*
X723010D02*
D03*
X689990D02*
D03*
X374990D02*
D03*
X408010D02*
D03*
X2088010D02*
D03*
X2054990D02*
D03*
X1739990D02*
D03*
X1773010D02*
D03*
X1458010D02*
D03*
X1424990D02*
D03*
X1109990D02*
D03*
X1143010D02*
D03*
X828010D02*
D03*
X794990D02*
D03*
X479990D02*
D03*
X513010D02*
D03*
X2193010D02*
D03*
X2159990D02*
D03*
X1844990D02*
D03*
X1878010D02*
D03*
X1563010D02*
D03*
X1529990D02*
D03*
X1214990D02*
D03*
X1248010D02*
D03*
X933010D02*
D03*
X899990D02*
D03*
X584990D02*
D03*
X618010D02*
D03*
X1983010Y2325500D02*
D03*
X1949990D02*
D03*
X1634990D02*
D03*
X1668010D02*
D03*
X1353010D02*
D03*
X1319990D02*
D03*
X1004990D02*
D03*
X1038010D02*
D03*
X723010D02*
D03*
X689990D02*
D03*
X374990D02*
D03*
X408010D02*
D03*
X2088010D02*
D03*
X2054990D02*
D03*
X1739990D02*
D03*
X1773010D02*
D03*
X1458010D02*
D03*
X1424990D02*
D03*
X1109990D02*
D03*
X1143010D02*
D03*
X828010D02*
D03*
X794990D02*
D03*
X479990D02*
D03*
X513010D02*
D03*
X2193010D02*
D03*
X2159990D02*
D03*
X1844990D02*
D03*
X1878010D02*
D03*
X1563010D02*
D03*
X1529990D02*
D03*
X1214990D02*
D03*
X1248010D02*
D03*
X933010D02*
D03*
X899990D02*
D03*
X584990D02*
D03*
X618010D02*
D03*
M02*
