G04 Layer_Color=16711935*
%FSLAX44Y44*%
%MOMM*%
G71*
G01*
G75*
%ADD34C,1.2032*%
%ADD35C,1.4000*%
%ADD48R,2.2032X3.0032*%
D34*
X285000Y300000D02*
D03*
Y2370000D02*
D03*
X2285000D02*
D03*
Y290000D02*
D03*
D35*
X330000Y280000D02*
D03*
Y375000D02*
D03*
X2240000Y395000D02*
D03*
Y280000D02*
D03*
X330000Y433000D02*
D03*
Y528000D02*
D03*
X2240000Y548000D02*
D03*
Y433000D02*
D03*
X330000Y586000D02*
D03*
Y681000D02*
D03*
X2240000Y701000D02*
D03*
Y586000D02*
D03*
X330000Y739000D02*
D03*
Y834000D02*
D03*
X2240000Y854000D02*
D03*
Y739000D02*
D03*
X330000Y892000D02*
D03*
Y987000D02*
D03*
X2240000Y1007000D02*
D03*
Y892000D02*
D03*
X330000Y1045000D02*
D03*
Y1140000D02*
D03*
X2240000Y1160000D02*
D03*
Y1045000D02*
D03*
X330000Y1198000D02*
D03*
Y1293000D02*
D03*
X2240000Y1313000D02*
D03*
Y1198000D02*
D03*
X330000Y1351000D02*
D03*
Y1446000D02*
D03*
X2240000Y1466000D02*
D03*
Y1351000D02*
D03*
X330000Y1504000D02*
D03*
Y1599000D02*
D03*
X2240000Y1619000D02*
D03*
Y1504000D02*
D03*
X330000Y1657000D02*
D03*
Y1752000D02*
D03*
X2240000Y1772000D02*
D03*
Y1657000D02*
D03*
X330000Y1810000D02*
D03*
Y1905000D02*
D03*
X2240000Y1925000D02*
D03*
Y1810000D02*
D03*
X330000Y1963000D02*
D03*
Y2058000D02*
D03*
X2240000Y2078000D02*
D03*
Y1963000D02*
D03*
X330000Y2116000D02*
D03*
Y2211000D02*
D03*
X2240000Y2231000D02*
D03*
Y2116000D02*
D03*
X330000Y2269000D02*
D03*
Y2364000D02*
D03*
X2240000Y2384000D02*
D03*
Y2269000D02*
D03*
D48*
X1983010Y336500D02*
D03*
X1949990D02*
D03*
X1634990D02*
D03*
X1668010D02*
D03*
X1353010D02*
D03*
X1319990D02*
D03*
X1004990D02*
D03*
X1038010D02*
D03*
X723010D02*
D03*
X689990D02*
D03*
X374990D02*
D03*
X408010D02*
D03*
X2088010D02*
D03*
X2054990D02*
D03*
X1739990D02*
D03*
X1773010D02*
D03*
X1458010D02*
D03*
X1424990D02*
D03*
X1109990D02*
D03*
X1143010D02*
D03*
X828010D02*
D03*
X794990D02*
D03*
X479990D02*
D03*
X513010D02*
D03*
X2193010D02*
D03*
X2159990D02*
D03*
X1844990D02*
D03*
X1878010D02*
D03*
X1563010D02*
D03*
X1529990D02*
D03*
X1214990D02*
D03*
X1248010D02*
D03*
X933010D02*
D03*
X899990D02*
D03*
X584990D02*
D03*
X618010D02*
D03*
X1983010Y489500D02*
D03*
X1949990D02*
D03*
X1634990D02*
D03*
X1668010D02*
D03*
X1353010D02*
D03*
X1319990D02*
D03*
X1004990D02*
D03*
X1038010D02*
D03*
X723010D02*
D03*
X689990D02*
D03*
X374990D02*
D03*
X408010D02*
D03*
X2088010D02*
D03*
X2054990D02*
D03*
X1739990D02*
D03*
X1773010D02*
D03*
X1458010D02*
D03*
X1424990D02*
D03*
X1109990D02*
D03*
X1143010D02*
D03*
X828010D02*
D03*
X794990D02*
D03*
X479990D02*
D03*
X513010D02*
D03*
X2193010D02*
D03*
X2159990D02*
D03*
X1844990D02*
D03*
X1878010D02*
D03*
X1563010D02*
D03*
X1529990D02*
D03*
X1214990D02*
D03*
X1248010D02*
D03*
X933010D02*
D03*
X899990D02*
D03*
X584990D02*
D03*
X618010D02*
D03*
X1983010Y642500D02*
D03*
X1949990D02*
D03*
X1634990D02*
D03*
X1668010D02*
D03*
X1353010D02*
D03*
X1319990D02*
D03*
X1004990D02*
D03*
X1038010D02*
D03*
X723010D02*
D03*
X689990D02*
D03*
X374990D02*
D03*
X408010D02*
D03*
X2088010D02*
D03*
X2054990D02*
D03*
X1739990D02*
D03*
X1773010D02*
D03*
X1458010D02*
D03*
X1424990D02*
D03*
X1109990D02*
D03*
X1143010D02*
D03*
X828010D02*
D03*
X794990D02*
D03*
X479990D02*
D03*
X513010D02*
D03*
X2193010D02*
D03*
X2159990D02*
D03*
X1844990D02*
D03*
X1878010D02*
D03*
X1563010D02*
D03*
X1529990D02*
D03*
X1214990D02*
D03*
X1248010D02*
D03*
X933010D02*
D03*
X899990D02*
D03*
X584990D02*
D03*
X618010D02*
D03*
X1983010Y795500D02*
D03*
X1949990D02*
D03*
X1634990D02*
D03*
X1668010D02*
D03*
X1353010D02*
D03*
X1319990D02*
D03*
X1004990D02*
D03*
X1038010D02*
D03*
X723010D02*
D03*
X689990D02*
D03*
X374990D02*
D03*
X408010D02*
D03*
X2088010D02*
D03*
X2054990D02*
D03*
X1739990D02*
D03*
X1773010D02*
D03*
X1458010D02*
D03*
X1424990D02*
D03*
X1109990D02*
D03*
X1143010D02*
D03*
X828010D02*
D03*
X794990D02*
D03*
X479990D02*
D03*
X513010D02*
D03*
X2193010D02*
D03*
X2159990D02*
D03*
X1844990D02*
D03*
X1878010D02*
D03*
X1563010D02*
D03*
X1529990D02*
D03*
X1214990D02*
D03*
X1248010D02*
D03*
X933010D02*
D03*
X899990D02*
D03*
X584990D02*
D03*
X618010D02*
D03*
X1983010Y948500D02*
D03*
X1949990D02*
D03*
X1634990D02*
D03*
X1668010D02*
D03*
X1353010D02*
D03*
X1319990D02*
D03*
X1004990D02*
D03*
X1038010D02*
D03*
X723010D02*
D03*
X689990D02*
D03*
X374990D02*
D03*
X408010D02*
D03*
X2088010D02*
D03*
X2054990D02*
D03*
X1739990D02*
D03*
X1773010D02*
D03*
X1458010D02*
D03*
X1424990D02*
D03*
X1109990D02*
D03*
X1143010D02*
D03*
X828010D02*
D03*
X794990D02*
D03*
X479990D02*
D03*
X513010D02*
D03*
X2193010D02*
D03*
X2159990D02*
D03*
X1844990D02*
D03*
X1878010D02*
D03*
X1563010D02*
D03*
X1529990D02*
D03*
X1214990D02*
D03*
X1248010D02*
D03*
X933010D02*
D03*
X899990D02*
D03*
X584990D02*
D03*
X618010D02*
D03*
X1983010Y1101500D02*
D03*
X1949990D02*
D03*
X1634990D02*
D03*
X1668010D02*
D03*
X1353010D02*
D03*
X1319990D02*
D03*
X1004990D02*
D03*
X1038010D02*
D03*
X723010D02*
D03*
X689990D02*
D03*
X374990D02*
D03*
X408010D02*
D03*
X2088010D02*
D03*
X2054990D02*
D03*
X1739990D02*
D03*
X1773010D02*
D03*
X1458010D02*
D03*
X1424990D02*
D03*
X1109990D02*
D03*
X1143010D02*
D03*
X828010D02*
D03*
X794990D02*
D03*
X479990D02*
D03*
X513010D02*
D03*
X2193010D02*
D03*
X2159990D02*
D03*
X1844990D02*
D03*
X1878010D02*
D03*
X1563010D02*
D03*
X1529990D02*
D03*
X1214990D02*
D03*
X1248010D02*
D03*
X933010D02*
D03*
X899990D02*
D03*
X584990D02*
D03*
X618010D02*
D03*
X1983010Y1254500D02*
D03*
X1949990D02*
D03*
X1634990D02*
D03*
X1668010D02*
D03*
X1353010D02*
D03*
X1319990D02*
D03*
X1004990D02*
D03*
X1038010D02*
D03*
X723010D02*
D03*
X689990D02*
D03*
X374990D02*
D03*
X408010D02*
D03*
X2088010D02*
D03*
X2054990D02*
D03*
X1739990D02*
D03*
X1773010D02*
D03*
X1458010D02*
D03*
X1424990D02*
D03*
X1109990D02*
D03*
X1143010D02*
D03*
X828010D02*
D03*
X794990D02*
D03*
X479990D02*
D03*
X513010D02*
D03*
X2193010D02*
D03*
X2159990D02*
D03*
X1844990D02*
D03*
X1878010D02*
D03*
X1563010D02*
D03*
X1529990D02*
D03*
X1214990D02*
D03*
X1248010D02*
D03*
X933010D02*
D03*
X899990D02*
D03*
X584990D02*
D03*
X618010D02*
D03*
X1983010Y1407500D02*
D03*
X1949990D02*
D03*
X1634990D02*
D03*
X1668010D02*
D03*
X1353010D02*
D03*
X1319990D02*
D03*
X1004990D02*
D03*
X1038010D02*
D03*
X723010D02*
D03*
X689990D02*
D03*
X374990D02*
D03*
X408010D02*
D03*
X2088010D02*
D03*
X2054990D02*
D03*
X1739990D02*
D03*
X1773010D02*
D03*
X1458010D02*
D03*
X1424990D02*
D03*
X1109990D02*
D03*
X1143010D02*
D03*
X828010D02*
D03*
X794990D02*
D03*
X479990D02*
D03*
X513010D02*
D03*
X2193010D02*
D03*
X2159990D02*
D03*
X1844990D02*
D03*
X1878010D02*
D03*
X1563010D02*
D03*
X1529990D02*
D03*
X1214990D02*
D03*
X1248010D02*
D03*
X933010D02*
D03*
X899990D02*
D03*
X584990D02*
D03*
X618010D02*
D03*
X1983010Y1560500D02*
D03*
X1949990D02*
D03*
X1634990D02*
D03*
X1668010D02*
D03*
X1353010D02*
D03*
X1319990D02*
D03*
X1004990D02*
D03*
X1038010D02*
D03*
X723010D02*
D03*
X689990D02*
D03*
X374990D02*
D03*
X408010D02*
D03*
X2088010D02*
D03*
X2054990D02*
D03*
X1739990D02*
D03*
X1773010D02*
D03*
X1458010D02*
D03*
X1424990D02*
D03*
X1109990D02*
D03*
X1143010D02*
D03*
X828010D02*
D03*
X794990D02*
D03*
X479990D02*
D03*
X513010D02*
D03*
X2193010D02*
D03*
X2159990D02*
D03*
X1844990D02*
D03*
X1878010D02*
D03*
X1563010D02*
D03*
X1529990D02*
D03*
X1214990D02*
D03*
X1248010D02*
D03*
X933010D02*
D03*
X899990D02*
D03*
X584990D02*
D03*
X618010D02*
D03*
X1983010Y1713500D02*
D03*
X1949990D02*
D03*
X1634990D02*
D03*
X1668010D02*
D03*
X1353010D02*
D03*
X1319990D02*
D03*
X1004990D02*
D03*
X1038010D02*
D03*
X723010D02*
D03*
X689990D02*
D03*
X374990D02*
D03*
X408010D02*
D03*
X2088010D02*
D03*
X2054990D02*
D03*
X1739990D02*
D03*
X1773010D02*
D03*
X1458010D02*
D03*
X1424990D02*
D03*
X1109990D02*
D03*
X1143010D02*
D03*
X828010D02*
D03*
X794990D02*
D03*
X479990D02*
D03*
X513010D02*
D03*
X2193010D02*
D03*
X2159990D02*
D03*
X1844990D02*
D03*
X1878010D02*
D03*
X1563010D02*
D03*
X1529990D02*
D03*
X1214990D02*
D03*
X1248010D02*
D03*
X933010D02*
D03*
X899990D02*
D03*
X584990D02*
D03*
X618010D02*
D03*
X1983010Y1866500D02*
D03*
X1949990D02*
D03*
X1634990D02*
D03*
X1668010D02*
D03*
X1353010D02*
D03*
X1319990D02*
D03*
X1004990D02*
D03*
X1038010D02*
D03*
X723010D02*
D03*
X689990D02*
D03*
X374990D02*
D03*
X408010D02*
D03*
X2088010D02*
D03*
X2054990D02*
D03*
X1739990D02*
D03*
X1773010D02*
D03*
X1458010D02*
D03*
X1424990D02*
D03*
X1109990D02*
D03*
X1143010D02*
D03*
X828010D02*
D03*
X794990D02*
D03*
X479990D02*
D03*
X513010D02*
D03*
X2193010D02*
D03*
X2159990D02*
D03*
X1844990D02*
D03*
X1878010D02*
D03*
X1563010D02*
D03*
X1529990D02*
D03*
X1214990D02*
D03*
X1248010D02*
D03*
X933010D02*
D03*
X899990D02*
D03*
X584990D02*
D03*
X618010D02*
D03*
X1983010Y2019500D02*
D03*
X1949990D02*
D03*
X1634990D02*
D03*
X1668010D02*
D03*
X1353010D02*
D03*
X1319990D02*
D03*
X1004990D02*
D03*
X1038010D02*
D03*
X723010D02*
D03*
X689990D02*
D03*
X374990D02*
D03*
X408010D02*
D03*
X2088010D02*
D03*
X2054990D02*
D03*
X1739990D02*
D03*
X1773010D02*
D03*
X1458010D02*
D03*
X1424990D02*
D03*
X1109990D02*
D03*
X1143010D02*
D03*
X828010D02*
D03*
X794990D02*
D03*
X479990D02*
D03*
X513010D02*
D03*
X2193010D02*
D03*
X2159990D02*
D03*
X1844990D02*
D03*
X1878010D02*
D03*
X1563010D02*
D03*
X1529990D02*
D03*
X1214990D02*
D03*
X1248010D02*
D03*
X933010D02*
D03*
X899990D02*
D03*
X584990D02*
D03*
X618010D02*
D03*
X1983010Y2172500D02*
D03*
X1949990D02*
D03*
X1634990D02*
D03*
X1668010D02*
D03*
X1353010D02*
D03*
X1319990D02*
D03*
X1004990D02*
D03*
X1038010D02*
D03*
X723010D02*
D03*
X689990D02*
D03*
X374990D02*
D03*
X408010D02*
D03*
X2088010D02*
D03*
X2054990D02*
D03*
X1739990D02*
D03*
X1773010D02*
D03*
X1458010D02*
D03*
X1424990D02*
D03*
X1109990D02*
D03*
X1143010D02*
D03*
X828010D02*
D03*
X794990D02*
D03*
X479990D02*
D03*
X513010D02*
D03*
X2193010D02*
D03*
X2159990D02*
D03*
X1844990D02*
D03*
X1878010D02*
D03*
X1563010D02*
D03*
X1529990D02*
D03*
X1214990D02*
D03*
X1248010D02*
D03*
X933010D02*
D03*
X899990D02*
D03*
X584990D02*
D03*
X618010D02*
D03*
X1983010Y2325500D02*
D03*
X1949990D02*
D03*
X1634990D02*
D03*
X1668010D02*
D03*
X1353010D02*
D03*
X1319990D02*
D03*
X1004990D02*
D03*
X1038010D02*
D03*
X723010D02*
D03*
X689990D02*
D03*
X374990D02*
D03*
X408010D02*
D03*
X2088010D02*
D03*
X2054990D02*
D03*
X1739990D02*
D03*
X1773010D02*
D03*
X1458010D02*
D03*
X1424990D02*
D03*
X1109990D02*
D03*
X1143010D02*
D03*
X828010D02*
D03*
X794990D02*
D03*
X479990D02*
D03*
X513010D02*
D03*
X2193010D02*
D03*
X2159990D02*
D03*
X1844990D02*
D03*
X1878010D02*
D03*
X1563010D02*
D03*
X1529990D02*
D03*
X1214990D02*
D03*
X1248010D02*
D03*
X933010D02*
D03*
X899990D02*
D03*
X584990D02*
D03*
X618010D02*
D03*
M02*
