G04 Layer_Color=8421504*
%FSLAX44Y44*%
%MOMM*%
G71*
G01*
G75*
%ADD10C,1.0000*%
%ADD11R,1.1500X1.8500*%
%ADD12R,1.1500X1.0000*%
%ADD13R,1.9500X1.3500*%
%ADD14R,1.8500X1.1500*%
%ADD15R,1.8500X1.5500*%
%ADD16R,1.0000X1.1500*%
%ADD17R,2.0000X1.5000*%
%ADD18R,2.1500X2.1000*%
G04:AMPARAMS|DCode=19|XSize=10mm|YSize=4mm|CornerRadius=1mm|HoleSize=0mm|Usage=FLASHONLY|Rotation=180.000|XOffset=0mm|YOffset=0mm|HoleType=Round|Shape=RoundedRectangle|*
%AMROUNDEDRECTD19*
21,1,10.0000,2.0000,0,0,180.0*
21,1,8.0000,4.0000,0,0,180.0*
1,1,2.0000,-4.0000,1.0000*
1,1,2.0000,4.0000,1.0000*
1,1,2.0000,4.0000,-1.0000*
1,1,2.0000,-4.0000,-1.0000*
%
%ADD19ROUNDEDRECTD19*%
%ADD20R,2.0000X4.0000*%
%ADD21R,2.0000X1.2000*%
D10*
X2285000Y290000D02*
D03*
Y2370000D02*
D03*
X285000D02*
D03*
Y300000D02*
D03*
X1552250Y322500D02*
D03*
X2240000Y280000D02*
D03*
Y395000D02*
D03*
X330000Y375000D02*
D03*
Y280000D02*
D03*
X1552250Y475500D02*
D03*
X2240000Y433000D02*
D03*
Y548000D02*
D03*
X330000Y528000D02*
D03*
Y433000D02*
D03*
X1552250Y628500D02*
D03*
X2240000Y586000D02*
D03*
Y701000D02*
D03*
X330000Y681000D02*
D03*
Y586000D02*
D03*
X1552250Y781500D02*
D03*
X2240000Y739000D02*
D03*
Y854000D02*
D03*
X330000Y834000D02*
D03*
Y739000D02*
D03*
X1552250Y934500D02*
D03*
X2240000Y892000D02*
D03*
Y1007000D02*
D03*
X330000Y987000D02*
D03*
Y892000D02*
D03*
X1552250Y1087500D02*
D03*
X2240000Y1045000D02*
D03*
Y1160000D02*
D03*
X330000Y1140000D02*
D03*
Y1045000D02*
D03*
X1552250Y1240500D02*
D03*
X2240000Y1198000D02*
D03*
Y1313000D02*
D03*
X330000Y1293000D02*
D03*
Y1198000D02*
D03*
X1552250Y1393500D02*
D03*
X2240000Y1351000D02*
D03*
Y1466000D02*
D03*
X330000Y1446000D02*
D03*
Y1351000D02*
D03*
X1552250Y1546500D02*
D03*
X2240000Y1504000D02*
D03*
Y1619000D02*
D03*
X330000Y1599000D02*
D03*
Y1504000D02*
D03*
X1552250Y1699500D02*
D03*
X2240000Y1657000D02*
D03*
Y1772000D02*
D03*
X330000Y1752000D02*
D03*
Y1657000D02*
D03*
X1552250Y1852500D02*
D03*
X2240000Y1810000D02*
D03*
Y1925000D02*
D03*
X330000Y1905000D02*
D03*
Y1810000D02*
D03*
X1552250Y2005500D02*
D03*
X2240000Y1963000D02*
D03*
Y2078000D02*
D03*
X330000Y2058000D02*
D03*
Y1963000D02*
D03*
X1552250Y2158500D02*
D03*
X2240000Y2116000D02*
D03*
Y2231000D02*
D03*
X330000Y2211000D02*
D03*
Y2116000D02*
D03*
X1552250Y2311500D02*
D03*
X2240000Y2269000D02*
D03*
Y2384000D02*
D03*
X330000Y2364000D02*
D03*
Y2269000D02*
D03*
D11*
X1153750Y320250D02*
D03*
X1122750Y320250D02*
D03*
X1084250Y312000D02*
D03*
X1053250D02*
D03*
X1167250Y293750D02*
D03*
X1136250D02*
D03*
X1153750Y473250D02*
D03*
X1122750Y473250D02*
D03*
X1084250Y465000D02*
D03*
X1053250D02*
D03*
X1167250Y446750D02*
D03*
X1136250D02*
D03*
X1153750Y626250D02*
D03*
X1122750Y626250D02*
D03*
X1084250Y618000D02*
D03*
X1053250D02*
D03*
X1167250Y599750D02*
D03*
X1136250D02*
D03*
X1153750Y779250D02*
D03*
X1122750Y779250D02*
D03*
X1084250Y771000D02*
D03*
X1053250D02*
D03*
X1167250Y752750D02*
D03*
X1136250D02*
D03*
X1153750Y932250D02*
D03*
X1122750Y932250D02*
D03*
X1084250Y924000D02*
D03*
X1053250D02*
D03*
X1167250Y905750D02*
D03*
X1136250D02*
D03*
X1153750Y1085250D02*
D03*
X1122750Y1085250D02*
D03*
X1084250Y1077000D02*
D03*
X1053250D02*
D03*
X1167250Y1058750D02*
D03*
X1136250D02*
D03*
X1153750Y1238250D02*
D03*
X1122750Y1238250D02*
D03*
X1084250Y1230000D02*
D03*
X1053250D02*
D03*
X1167250Y1211750D02*
D03*
X1136250D02*
D03*
X1153750Y1391250D02*
D03*
X1122750Y1391250D02*
D03*
X1084250Y1383000D02*
D03*
X1053250D02*
D03*
X1167250Y1364750D02*
D03*
X1136250D02*
D03*
X1153750Y1544250D02*
D03*
X1122750Y1544250D02*
D03*
X1084250Y1536000D02*
D03*
X1053250D02*
D03*
X1167250Y1517750D02*
D03*
X1136250D02*
D03*
X1153750Y1697250D02*
D03*
X1122750Y1697250D02*
D03*
X1084250Y1689000D02*
D03*
X1053250D02*
D03*
X1167250Y1670750D02*
D03*
X1136250D02*
D03*
X1153750Y1850250D02*
D03*
X1122750Y1850250D02*
D03*
X1084250Y1842000D02*
D03*
X1053250D02*
D03*
X1167250Y1823750D02*
D03*
X1136250D02*
D03*
X1153750Y2003250D02*
D03*
X1122750Y2003250D02*
D03*
X1084250Y1995000D02*
D03*
X1053250D02*
D03*
X1167250Y1976750D02*
D03*
X1136250D02*
D03*
X1153750Y2156250D02*
D03*
X1122750Y2156250D02*
D03*
X1084250Y2148000D02*
D03*
X1053250D02*
D03*
X1167250Y2129750D02*
D03*
X1136250D02*
D03*
X1153750Y2309250D02*
D03*
X1122750Y2309250D02*
D03*
X1084250Y2301000D02*
D03*
X1053250D02*
D03*
X1167250Y2282750D02*
D03*
X1136250D02*
D03*
D12*
X1083500Y361500D02*
D03*
Y342500D02*
D03*
X1109000Y352000D02*
D03*
X1083500Y514500D02*
D03*
Y495500D02*
D03*
X1109000Y505000D02*
D03*
X1083500Y667500D02*
D03*
Y648500D02*
D03*
X1109000Y658000D02*
D03*
X1083500Y820500D02*
D03*
Y801500D02*
D03*
X1109000Y811000D02*
D03*
X1083500Y973500D02*
D03*
Y954500D02*
D03*
X1109000Y964000D02*
D03*
X1083500Y1126500D02*
D03*
Y1107500D02*
D03*
X1109000Y1117000D02*
D03*
X1083500Y1279500D02*
D03*
Y1260500D02*
D03*
X1109000Y1270000D02*
D03*
X1083500Y1432500D02*
D03*
Y1413500D02*
D03*
X1109000Y1423000D02*
D03*
X1083500Y1585500D02*
D03*
Y1566500D02*
D03*
X1109000Y1576000D02*
D03*
X1083500Y1738500D02*
D03*
Y1719500D02*
D03*
X1109000Y1729000D02*
D03*
X1083500Y1891500D02*
D03*
Y1872500D02*
D03*
X1109000Y1882000D02*
D03*
X1083500Y2044500D02*
D03*
Y2025500D02*
D03*
X1109000Y2035000D02*
D03*
X1083500Y2197500D02*
D03*
Y2178500D02*
D03*
X1109000Y2188000D02*
D03*
X1083500Y2350500D02*
D03*
Y2331500D02*
D03*
X1109000Y2341000D02*
D03*
D13*
X1599000Y331500D02*
D03*
X1599000Y301500D02*
D03*
X748250Y319750D02*
D03*
X748250Y349750D02*
D03*
X1599000Y484500D02*
D03*
X1599000Y454500D02*
D03*
X748250Y472750D02*
D03*
X748250Y502750D02*
D03*
X1599000Y637500D02*
D03*
X1599000Y607500D02*
D03*
X748250Y625750D02*
D03*
X748250Y655750D02*
D03*
X1599000Y790500D02*
D03*
X1599000Y760500D02*
D03*
X748250Y778750D02*
D03*
X748250Y808750D02*
D03*
X1599000Y943500D02*
D03*
X1599000Y913500D02*
D03*
X748250Y931750D02*
D03*
X748250Y961750D02*
D03*
X1599000Y1096500D02*
D03*
X1599000Y1066500D02*
D03*
X748250Y1084750D02*
D03*
X748250Y1114750D02*
D03*
X1599000Y1249500D02*
D03*
X1599000Y1219500D02*
D03*
X748250Y1237750D02*
D03*
X748250Y1267750D02*
D03*
X1599000Y1402500D02*
D03*
X1599000Y1372500D02*
D03*
X748250Y1390750D02*
D03*
X748250Y1420750D02*
D03*
X1599000Y1555500D02*
D03*
X1599000Y1525500D02*
D03*
X748250Y1543750D02*
D03*
X748250Y1573750D02*
D03*
X1599000Y1708500D02*
D03*
X1599000Y1678500D02*
D03*
X748250Y1696750D02*
D03*
X748250Y1726750D02*
D03*
X1599000Y1861500D02*
D03*
X1599000Y1831500D02*
D03*
X748250Y1849750D02*
D03*
X748250Y1879750D02*
D03*
X1599000Y2014500D02*
D03*
X1599000Y1984500D02*
D03*
X748250Y2002750D02*
D03*
X748250Y2032750D02*
D03*
X1599000Y2167500D02*
D03*
X1599000Y2137500D02*
D03*
X748250Y2155750D02*
D03*
X748250Y2185750D02*
D03*
X1599000Y2320500D02*
D03*
X1599000Y2290500D02*
D03*
X748250Y2308750D02*
D03*
X748250Y2338750D02*
D03*
D14*
X956750Y340000D02*
D03*
Y371000D02*
D03*
X986000Y340000D02*
D03*
Y371000D02*
D03*
X1014750Y340000D02*
D03*
Y371000D02*
D03*
X1213250Y348500D02*
D03*
Y317500D02*
D03*
X956750Y493000D02*
D03*
Y524000D02*
D03*
X986000Y493000D02*
D03*
Y524000D02*
D03*
X1014750Y493000D02*
D03*
Y524000D02*
D03*
X1213250Y501500D02*
D03*
Y470500D02*
D03*
X956750Y646000D02*
D03*
Y677000D02*
D03*
X986000Y646000D02*
D03*
Y677000D02*
D03*
X1014750Y646000D02*
D03*
Y677000D02*
D03*
X1213250Y654500D02*
D03*
Y623500D02*
D03*
X956750Y799000D02*
D03*
Y830000D02*
D03*
X986000Y799000D02*
D03*
Y830000D02*
D03*
X1014750Y799000D02*
D03*
Y830000D02*
D03*
X1213250Y807500D02*
D03*
Y776500D02*
D03*
X956750Y952000D02*
D03*
Y983000D02*
D03*
X986000Y952000D02*
D03*
Y983000D02*
D03*
X1014750Y952000D02*
D03*
Y983000D02*
D03*
X1213250Y960500D02*
D03*
Y929500D02*
D03*
X956750Y1105000D02*
D03*
Y1136000D02*
D03*
X986000Y1105000D02*
D03*
Y1136000D02*
D03*
X1014750Y1105000D02*
D03*
Y1136000D02*
D03*
X1213250Y1113500D02*
D03*
Y1082500D02*
D03*
X956750Y1258000D02*
D03*
Y1289000D02*
D03*
X986000Y1258000D02*
D03*
Y1289000D02*
D03*
X1014750Y1258000D02*
D03*
Y1289000D02*
D03*
X1213250Y1266500D02*
D03*
Y1235500D02*
D03*
X956750Y1411000D02*
D03*
Y1442000D02*
D03*
X986000Y1411000D02*
D03*
Y1442000D02*
D03*
X1014750Y1411000D02*
D03*
Y1442000D02*
D03*
X1213250Y1419500D02*
D03*
Y1388500D02*
D03*
X956750Y1564000D02*
D03*
Y1595000D02*
D03*
X986000Y1564000D02*
D03*
Y1595000D02*
D03*
X1014750Y1564000D02*
D03*
Y1595000D02*
D03*
X1213250Y1572500D02*
D03*
Y1541500D02*
D03*
X956750Y1717000D02*
D03*
Y1748000D02*
D03*
X986000Y1717000D02*
D03*
Y1748000D02*
D03*
X1014750Y1717000D02*
D03*
Y1748000D02*
D03*
X1213250Y1725500D02*
D03*
Y1694500D02*
D03*
X956750Y1870000D02*
D03*
Y1901000D02*
D03*
X986000Y1870000D02*
D03*
Y1901000D02*
D03*
X1014750Y1870000D02*
D03*
Y1901000D02*
D03*
X1213250Y1878500D02*
D03*
Y1847500D02*
D03*
X956750Y2023000D02*
D03*
Y2054000D02*
D03*
X986000Y2023000D02*
D03*
Y2054000D02*
D03*
X1014750Y2023000D02*
D03*
Y2054000D02*
D03*
X1213250Y2031500D02*
D03*
Y2000500D02*
D03*
X956750Y2176000D02*
D03*
Y2207000D02*
D03*
X986000Y2176000D02*
D03*
Y2207000D02*
D03*
X1014750Y2176000D02*
D03*
Y2207000D02*
D03*
X1213250Y2184500D02*
D03*
Y2153500D02*
D03*
X956750Y2329000D02*
D03*
Y2360000D02*
D03*
X986000Y2329000D02*
D03*
Y2360000D02*
D03*
X1014750Y2329000D02*
D03*
Y2360000D02*
D03*
X1213250Y2337500D02*
D03*
Y2306500D02*
D03*
D15*
X1052500Y340000D02*
D03*
Y373500D02*
D03*
Y493000D02*
D03*
Y526500D02*
D03*
Y646000D02*
D03*
Y679500D02*
D03*
Y799000D02*
D03*
Y832500D02*
D03*
Y952000D02*
D03*
Y985500D02*
D03*
Y1105000D02*
D03*
Y1138500D02*
D03*
Y1258000D02*
D03*
Y1291500D02*
D03*
Y1411000D02*
D03*
Y1444500D02*
D03*
Y1564000D02*
D03*
Y1597500D02*
D03*
Y1717000D02*
D03*
Y1750500D02*
D03*
Y1870000D02*
D03*
Y1903500D02*
D03*
Y2023000D02*
D03*
Y2056500D02*
D03*
Y2176000D02*
D03*
Y2209500D02*
D03*
Y2329000D02*
D03*
Y2362500D02*
D03*
D16*
X1132000Y352750D02*
D03*
X1151000Y352750D02*
D03*
X1141500Y378250D02*
D03*
X1132000Y505750D02*
D03*
X1151000Y505750D02*
D03*
X1141500Y531250D02*
D03*
X1132000Y658750D02*
D03*
X1151000Y658750D02*
D03*
X1141500Y684250D02*
D03*
X1132000Y811750D02*
D03*
X1151000Y811750D02*
D03*
X1141500Y837250D02*
D03*
X1132000Y964750D02*
D03*
X1151000Y964750D02*
D03*
X1141500Y990250D02*
D03*
X1132000Y1117750D02*
D03*
X1151000Y1117750D02*
D03*
X1141500Y1143250D02*
D03*
X1132000Y1270750D02*
D03*
X1151000Y1270750D02*
D03*
X1141500Y1296250D02*
D03*
X1132000Y1423750D02*
D03*
X1151000Y1423750D02*
D03*
X1141500Y1449250D02*
D03*
X1132000Y1576750D02*
D03*
X1151000Y1576750D02*
D03*
X1141500Y1602250D02*
D03*
X1132000Y1729750D02*
D03*
X1151000Y1729750D02*
D03*
X1141500Y1755250D02*
D03*
X1132000Y1882750D02*
D03*
X1151000Y1882750D02*
D03*
X1141500Y1908250D02*
D03*
X1132000Y2035750D02*
D03*
X1151000Y2035750D02*
D03*
X1141500Y2061250D02*
D03*
X1132000Y2188750D02*
D03*
X1151000Y2188750D02*
D03*
X1141500Y2214250D02*
D03*
X1132000Y2341750D02*
D03*
X1151000Y2341750D02*
D03*
X1141500Y2367250D02*
D03*
D17*
X713000Y348500D02*
D03*
X713000Y323500D02*
D03*
X643000Y348500D02*
D03*
X643000Y323500D02*
D03*
X713000Y501500D02*
D03*
X713000Y476500D02*
D03*
X643000Y501500D02*
D03*
X643000Y476500D02*
D03*
X713000Y654500D02*
D03*
X713000Y629500D02*
D03*
X643000Y654500D02*
D03*
X643000Y629500D02*
D03*
X713000Y807500D02*
D03*
X713000Y782500D02*
D03*
X643000Y807500D02*
D03*
X643000Y782500D02*
D03*
X713000Y960500D02*
D03*
X713000Y935500D02*
D03*
X643000Y960500D02*
D03*
X643000Y935500D02*
D03*
X713000Y1113500D02*
D03*
X713000Y1088500D02*
D03*
X643000Y1113500D02*
D03*
X643000Y1088500D02*
D03*
X713000Y1266500D02*
D03*
X713000Y1241500D02*
D03*
X643000Y1266500D02*
D03*
X643000Y1241500D02*
D03*
X713000Y1419500D02*
D03*
X713000Y1394500D02*
D03*
X643000Y1419500D02*
D03*
X643000Y1394500D02*
D03*
X713000Y1572500D02*
D03*
X713000Y1547500D02*
D03*
X643000Y1572500D02*
D03*
X643000Y1547500D02*
D03*
X713000Y1725500D02*
D03*
X713000Y1700500D02*
D03*
X643000Y1725500D02*
D03*
X643000Y1700500D02*
D03*
X713000Y1878500D02*
D03*
X713000Y1853500D02*
D03*
X643000Y1878500D02*
D03*
X643000Y1853500D02*
D03*
X713000Y2031500D02*
D03*
X713000Y2006500D02*
D03*
X643000Y2031500D02*
D03*
X643000Y2006500D02*
D03*
X713000Y2184500D02*
D03*
X713000Y2159500D02*
D03*
X643000Y2184500D02*
D03*
X643000Y2159500D02*
D03*
X713000Y2337500D02*
D03*
X713000Y2312500D02*
D03*
X643000Y2337500D02*
D03*
X643000Y2312500D02*
D03*
D18*
X1363250Y347000D02*
D03*
X1363250Y301000D02*
D03*
X1363250Y500000D02*
D03*
X1363250Y454000D02*
D03*
X1363250Y653000D02*
D03*
X1363250Y607000D02*
D03*
X1363250Y806000D02*
D03*
X1363250Y760000D02*
D03*
X1363250Y959000D02*
D03*
X1363250Y913000D02*
D03*
X1363250Y1112000D02*
D03*
X1363250Y1066000D02*
D03*
X1363250Y1265000D02*
D03*
X1363250Y1219000D02*
D03*
X1363250Y1418000D02*
D03*
X1363250Y1372000D02*
D03*
X1363250Y1571000D02*
D03*
X1363250Y1525000D02*
D03*
X1363250Y1724000D02*
D03*
X1363250Y1678000D02*
D03*
X1363250Y1877000D02*
D03*
X1363250Y1831000D02*
D03*
X1363250Y2030000D02*
D03*
X1363250Y1984000D02*
D03*
X1363250Y2183000D02*
D03*
X1363250Y2137000D02*
D03*
X1363250Y2336000D02*
D03*
X1363250Y2290000D02*
D03*
D19*
X1458250Y299000D02*
D03*
Y363000D02*
D03*
Y452000D02*
D03*
Y516000D02*
D03*
Y605000D02*
D03*
Y669000D02*
D03*
Y758000D02*
D03*
Y822000D02*
D03*
Y911000D02*
D03*
Y975000D02*
D03*
Y1064000D02*
D03*
Y1128000D02*
D03*
Y1217000D02*
D03*
Y1281000D02*
D03*
Y1370000D02*
D03*
Y1434000D02*
D03*
Y1523000D02*
D03*
Y1587000D02*
D03*
Y1676000D02*
D03*
Y1740000D02*
D03*
Y1829000D02*
D03*
Y1893000D02*
D03*
Y1982000D02*
D03*
Y2046000D02*
D03*
Y2135000D02*
D03*
Y2199000D02*
D03*
Y2288000D02*
D03*
Y2352000D02*
D03*
D20*
X1308250Y336000D02*
D03*
Y489000D02*
D03*
Y642000D02*
D03*
Y795000D02*
D03*
Y948000D02*
D03*
Y1101000D02*
D03*
Y1254000D02*
D03*
Y1407000D02*
D03*
Y1560000D02*
D03*
Y1713000D02*
D03*
Y1866000D02*
D03*
Y2019000D02*
D03*
Y2172000D02*
D03*
Y2325000D02*
D03*
D21*
X1245750Y313500D02*
D03*
X1245750Y336000D02*
D03*
X1245750Y358500D02*
D03*
Y466500D02*
D03*
X1245750Y489000D02*
D03*
X1245750Y511500D02*
D03*
Y619500D02*
D03*
X1245750Y642000D02*
D03*
X1245750Y664500D02*
D03*
Y772500D02*
D03*
X1245750Y795000D02*
D03*
X1245750Y817500D02*
D03*
Y925500D02*
D03*
X1245750Y948000D02*
D03*
X1245750Y970500D02*
D03*
Y1078500D02*
D03*
X1245750Y1101000D02*
D03*
X1245750Y1123500D02*
D03*
Y1231500D02*
D03*
X1245750Y1254000D02*
D03*
X1245750Y1276500D02*
D03*
Y1384500D02*
D03*
X1245750Y1407000D02*
D03*
X1245750Y1429500D02*
D03*
Y1537500D02*
D03*
X1245750Y1560000D02*
D03*
X1245750Y1582500D02*
D03*
Y1690500D02*
D03*
X1245750Y1713000D02*
D03*
X1245750Y1735500D02*
D03*
Y1843500D02*
D03*
X1245750Y1866000D02*
D03*
X1245750Y1888500D02*
D03*
Y1996500D02*
D03*
X1245750Y2019000D02*
D03*
X1245750Y2041500D02*
D03*
Y2149500D02*
D03*
X1245750Y2172000D02*
D03*
X1245750Y2194500D02*
D03*
Y2302500D02*
D03*
X1245750Y2325000D02*
D03*
X1245750Y2347500D02*
D03*
M02*
