G04 Layer_Color=65535*
%FSLAX44Y44*%
%MOMM*%
G71*
G01*
G75*
%ADD29C,0.2500*%
%ADD30C,0.2000*%
%ADD31C,0.5000*%
%ADD32C,0.2540*%
%ADD33R,1.6500X0.5500*%
D29*
X1084750Y370750D02*
G03*
X1084750Y370750I-1250J0D01*
G01*
X1124000Y352750D02*
G03*
X1124000Y352750I-1250J0D01*
G01*
X1348250Y295000D02*
G03*
X1348250Y295000I-1250J0D01*
G01*
X1084750Y523750D02*
G03*
X1084750Y523750I-1250J0D01*
G01*
X1124000Y505750D02*
G03*
X1124000Y505750I-1250J0D01*
G01*
X1348250Y448000D02*
G03*
X1348250Y448000I-1250J0D01*
G01*
X1084750Y676750D02*
G03*
X1084750Y676750I-1250J0D01*
G01*
X1124000Y658750D02*
G03*
X1124000Y658750I-1250J0D01*
G01*
X1348250Y601000D02*
G03*
X1348250Y601000I-1250J0D01*
G01*
X1084750Y829750D02*
G03*
X1084750Y829750I-1250J0D01*
G01*
X1124000Y811750D02*
G03*
X1124000Y811750I-1250J0D01*
G01*
X1348250Y754000D02*
G03*
X1348250Y754000I-1250J0D01*
G01*
X1084750Y982750D02*
G03*
X1084750Y982750I-1250J0D01*
G01*
X1124000Y964750D02*
G03*
X1124000Y964750I-1250J0D01*
G01*
X1348250Y907000D02*
G03*
X1348250Y907000I-1250J0D01*
G01*
X1084750Y1135750D02*
G03*
X1084750Y1135750I-1250J0D01*
G01*
X1124000Y1117750D02*
G03*
X1124000Y1117750I-1250J0D01*
G01*
X1348250Y1060000D02*
G03*
X1348250Y1060000I-1250J0D01*
G01*
X1084750Y1288750D02*
G03*
X1084750Y1288750I-1250J0D01*
G01*
X1124000Y1270750D02*
G03*
X1124000Y1270750I-1250J0D01*
G01*
X1348250Y1213000D02*
G03*
X1348250Y1213000I-1250J0D01*
G01*
X1084750Y1441750D02*
G03*
X1084750Y1441750I-1250J0D01*
G01*
X1124000Y1423750D02*
G03*
X1124000Y1423750I-1250J0D01*
G01*
X1348250Y1366000D02*
G03*
X1348250Y1366000I-1250J0D01*
G01*
X1084750Y1594750D02*
G03*
X1084750Y1594750I-1250J0D01*
G01*
X1124000Y1576750D02*
G03*
X1124000Y1576750I-1250J0D01*
G01*
X1348250Y1519000D02*
G03*
X1348250Y1519000I-1250J0D01*
G01*
X1084750Y1747750D02*
G03*
X1084750Y1747750I-1250J0D01*
G01*
X1124000Y1729750D02*
G03*
X1124000Y1729750I-1250J0D01*
G01*
X1348250Y1672000D02*
G03*
X1348250Y1672000I-1250J0D01*
G01*
X1084750Y1900750D02*
G03*
X1084750Y1900750I-1250J0D01*
G01*
X1124000Y1882750D02*
G03*
X1124000Y1882750I-1250J0D01*
G01*
X1348250Y1825000D02*
G03*
X1348250Y1825000I-1250J0D01*
G01*
X1084750Y2053750D02*
G03*
X1084750Y2053750I-1250J0D01*
G01*
X1124000Y2035750D02*
G03*
X1124000Y2035750I-1250J0D01*
G01*
X1348250Y1978000D02*
G03*
X1348250Y1978000I-1250J0D01*
G01*
X1084750Y2206750D02*
G03*
X1084750Y2206750I-1250J0D01*
G01*
X1124000Y2188750D02*
G03*
X1124000Y2188750I-1250J0D01*
G01*
X1348250Y2131000D02*
G03*
X1348250Y2131000I-1250J0D01*
G01*
X1084750Y2359750D02*
G03*
X1084750Y2359750I-1250J0D01*
G01*
X1124000Y2341750D02*
G03*
X1124000Y2341750I-1250J0D01*
G01*
X1348250Y2284000D02*
G03*
X1348250Y2284000I-1250J0D01*
G01*
D30*
X1132250Y312000D02*
X1144250Y312000D01*
X1132250Y328500D02*
X1144250Y328500D01*
X1062750Y303750D02*
X1074750D01*
X1062750Y320250D02*
X1074750D01*
X1093250Y367000D02*
X1103250D01*
X1103250Y359750D01*
X1093250Y337000D02*
X1103250Y337000D01*
X1103250Y344250D01*
X1145750Y285500D02*
X1157750D01*
X1145750Y302000D02*
X1157750D01*
X1607750Y321000D02*
X1607750Y312000D01*
X1590250Y321000D02*
X1590250Y312000D01*
X948500Y361500D02*
X948500Y349500D01*
X965000Y361500D02*
X965000Y349500D01*
X977750Y361500D02*
X977750Y349500D01*
X994250Y361500D02*
X994250Y349500D01*
X1006500Y361500D02*
X1006500Y349500D01*
X1023000Y361500D02*
X1023000Y349500D01*
X1044250Y361750D02*
X1044250Y351750D01*
X1060750Y361750D02*
X1060750Y351750D01*
X1044250Y351750D02*
X1060750Y351750D01*
X1126500Y362500D02*
Y372500D01*
X1133750Y372500D01*
X1156500Y362500D02*
X1156500Y372500D01*
X1149250Y372500D02*
X1156500Y372500D01*
X739500Y339250D02*
X739500Y330250D01*
X757000Y339250D02*
X757000Y330250D01*
X1221500Y339000D02*
X1221500Y327000D01*
X1205000Y339000D02*
X1205000Y327000D01*
X1378000Y346500D02*
X1382750Y346500D01*
X1378000Y301500D02*
X1382750D01*
X1343750Y346500D02*
X1348500Y346500D01*
X1343750Y301500D02*
X1348500D01*
X1382750Y346500D02*
X1382750Y301500D01*
X1343750Y301500D02*
X1343750Y346500D01*
X1132250Y465000D02*
X1144250Y465000D01*
X1132250Y481500D02*
X1144250Y481500D01*
X1062750Y456750D02*
X1074750D01*
X1062750Y473250D02*
X1074750D01*
X1093250Y520000D02*
X1103250D01*
X1103250Y512750D01*
X1093250Y490000D02*
X1103250Y490000D01*
X1103250Y497250D01*
X1145750Y438500D02*
X1157750D01*
X1145750Y455000D02*
X1157750D01*
X1607750Y474000D02*
X1607750Y465000D01*
X1590250Y474000D02*
X1590250Y465000D01*
X948500Y514500D02*
X948500Y502500D01*
X965000Y514500D02*
X965000Y502500D01*
X977750Y514500D02*
X977750Y502500D01*
X994250Y514500D02*
X994250Y502500D01*
X1006500Y514500D02*
X1006500Y502500D01*
X1023000Y514500D02*
X1023000Y502500D01*
X1044250Y514750D02*
X1044250Y504750D01*
X1060750Y514750D02*
X1060750Y504750D01*
X1044250Y504750D02*
X1060750Y504750D01*
X1126500Y515500D02*
Y525500D01*
X1133750Y525500D01*
X1156500Y515500D02*
X1156500Y525500D01*
X1149250Y525500D02*
X1156500Y525500D01*
X739500Y492250D02*
X739500Y483250D01*
X757000Y492250D02*
X757000Y483250D01*
X1221500Y492000D02*
X1221500Y480000D01*
X1205000Y492000D02*
X1205000Y480000D01*
X1378000Y499500D02*
X1382750Y499500D01*
X1378000Y454500D02*
X1382750D01*
X1343750Y499500D02*
X1348500Y499500D01*
X1343750Y454500D02*
X1348500D01*
X1382750Y499500D02*
X1382750Y454500D01*
X1343750Y454500D02*
X1343750Y499500D01*
X1132250Y618000D02*
X1144250Y618000D01*
X1132250Y634500D02*
X1144250Y634500D01*
X1062750Y609750D02*
X1074750D01*
X1062750Y626250D02*
X1074750D01*
X1093250Y673000D02*
X1103250D01*
X1103250Y665750D01*
X1093250Y643000D02*
X1103250Y643000D01*
X1103250Y650250D01*
X1145750Y591500D02*
X1157750D01*
X1145750Y608000D02*
X1157750D01*
X1607750Y627000D02*
X1607750Y618000D01*
X1590250Y627000D02*
X1590250Y618000D01*
X948500Y667500D02*
X948500Y655500D01*
X965000Y667500D02*
X965000Y655500D01*
X977750Y667500D02*
X977750Y655500D01*
X994250Y667500D02*
X994250Y655500D01*
X1006500Y667500D02*
X1006500Y655500D01*
X1023000Y667500D02*
X1023000Y655500D01*
X1044250Y667750D02*
X1044250Y657750D01*
X1060750Y667750D02*
X1060750Y657750D01*
X1044250Y657750D02*
X1060750Y657750D01*
X1126500Y668500D02*
Y678500D01*
X1133750Y678500D01*
X1156500Y668500D02*
X1156500Y678500D01*
X1149250Y678500D02*
X1156500Y678500D01*
X739500Y645250D02*
X739500Y636250D01*
X757000Y645250D02*
X757000Y636250D01*
X1221500Y645000D02*
X1221500Y633000D01*
X1205000Y645000D02*
X1205000Y633000D01*
X1378000Y652500D02*
X1382750Y652500D01*
X1378000Y607500D02*
X1382750D01*
X1343750Y652500D02*
X1348500Y652500D01*
X1343750Y607500D02*
X1348500D01*
X1382750Y652500D02*
X1382750Y607500D01*
X1343750Y607500D02*
X1343750Y652500D01*
X1132250Y771000D02*
X1144250Y771000D01*
X1132250Y787500D02*
X1144250Y787500D01*
X1062750Y762750D02*
X1074750D01*
X1062750Y779250D02*
X1074750D01*
X1093250Y826000D02*
X1103250D01*
X1103250Y818750D01*
X1093250Y796000D02*
X1103250Y796000D01*
X1103250Y803250D01*
X1145750Y744500D02*
X1157750D01*
X1145750Y761000D02*
X1157750D01*
X1607750Y780000D02*
X1607750Y771000D01*
X1590250Y780000D02*
X1590250Y771000D01*
X948500Y820500D02*
X948500Y808500D01*
X965000Y820500D02*
X965000Y808500D01*
X977750Y820500D02*
X977750Y808500D01*
X994250Y820500D02*
X994250Y808500D01*
X1006500Y820500D02*
X1006500Y808500D01*
X1023000Y820500D02*
X1023000Y808500D01*
X1044250Y820750D02*
X1044250Y810750D01*
X1060750Y820750D02*
X1060750Y810750D01*
X1044250Y810750D02*
X1060750Y810750D01*
X1126500Y821500D02*
Y831500D01*
X1133750Y831500D01*
X1156500Y821500D02*
X1156500Y831500D01*
X1149250Y831500D02*
X1156500Y831500D01*
X739500Y798250D02*
X739500Y789250D01*
X757000Y798250D02*
X757000Y789250D01*
X1221500Y798000D02*
X1221500Y786000D01*
X1205000Y798000D02*
X1205000Y786000D01*
X1378000Y805500D02*
X1382750Y805500D01*
X1378000Y760500D02*
X1382750D01*
X1343750Y805500D02*
X1348500Y805500D01*
X1343750Y760500D02*
X1348500D01*
X1382750Y805500D02*
X1382750Y760500D01*
X1343750Y760500D02*
X1343750Y805500D01*
X1132250Y924000D02*
X1144250Y924000D01*
X1132250Y940500D02*
X1144250Y940500D01*
X1062750Y915750D02*
X1074750D01*
X1062750Y932250D02*
X1074750D01*
X1093250Y979000D02*
X1103250D01*
X1103250Y971750D01*
X1093250Y949000D02*
X1103250Y949000D01*
X1103250Y956250D01*
X1145750Y897500D02*
X1157750D01*
X1145750Y914000D02*
X1157750D01*
X1607750Y933000D02*
X1607750Y924000D01*
X1590250Y933000D02*
X1590250Y924000D01*
X948500Y973500D02*
X948500Y961500D01*
X965000Y973500D02*
X965000Y961500D01*
X977750Y973500D02*
X977750Y961500D01*
X994250Y973500D02*
X994250Y961500D01*
X1006500Y973500D02*
X1006500Y961500D01*
X1023000Y973500D02*
X1023000Y961500D01*
X1044250Y973750D02*
X1044250Y963750D01*
X1060750Y973750D02*
X1060750Y963750D01*
X1044250Y963750D02*
X1060750Y963750D01*
X1126500Y974500D02*
Y984500D01*
X1133750Y984500D01*
X1156500Y974500D02*
X1156500Y984500D01*
X1149250Y984500D02*
X1156500Y984500D01*
X739500Y951250D02*
X739500Y942250D01*
X757000Y951250D02*
X757000Y942250D01*
X1221500Y951000D02*
X1221500Y939000D01*
X1205000Y951000D02*
X1205000Y939000D01*
X1378000Y958500D02*
X1382750Y958500D01*
X1378000Y913500D02*
X1382750D01*
X1343750Y958500D02*
X1348500Y958500D01*
X1343750Y913500D02*
X1348500D01*
X1382750Y958500D02*
X1382750Y913500D01*
X1343750Y913500D02*
X1343750Y958500D01*
X1132250Y1077000D02*
X1144250Y1077000D01*
X1132250Y1093500D02*
X1144250Y1093500D01*
X1062750Y1068750D02*
X1074750D01*
X1062750Y1085250D02*
X1074750D01*
X1093250Y1132000D02*
X1103250D01*
X1103250Y1124750D01*
X1093250Y1102000D02*
X1103250Y1102000D01*
X1103250Y1109250D01*
X1145750Y1050500D02*
X1157750D01*
X1145750Y1067000D02*
X1157750D01*
X1607750Y1086000D02*
X1607750Y1077000D01*
X1590250Y1086000D02*
X1590250Y1077000D01*
X948500Y1126500D02*
X948500Y1114500D01*
X965000Y1126500D02*
X965000Y1114500D01*
X977750Y1126500D02*
X977750Y1114500D01*
X994250Y1126500D02*
X994250Y1114500D01*
X1006500Y1126500D02*
X1006500Y1114500D01*
X1023000Y1126500D02*
X1023000Y1114500D01*
X1044250Y1126750D02*
X1044250Y1116750D01*
X1060750Y1126750D02*
X1060750Y1116750D01*
X1044250Y1116750D02*
X1060750Y1116750D01*
X1126500Y1127500D02*
Y1137500D01*
X1133750Y1137500D01*
X1156500Y1127500D02*
X1156500Y1137500D01*
X1149250Y1137500D02*
X1156500Y1137500D01*
X739500Y1104250D02*
X739500Y1095250D01*
X757000Y1104250D02*
X757000Y1095250D01*
X1221500Y1104000D02*
X1221500Y1092000D01*
X1205000Y1104000D02*
X1205000Y1092000D01*
X1378000Y1111500D02*
X1382750Y1111500D01*
X1378000Y1066500D02*
X1382750D01*
X1343750Y1111500D02*
X1348500Y1111500D01*
X1343750Y1066500D02*
X1348500D01*
X1382750Y1111500D02*
X1382750Y1066500D01*
X1343750Y1066500D02*
X1343750Y1111500D01*
X1132250Y1230000D02*
X1144250Y1230000D01*
X1132250Y1246500D02*
X1144250Y1246500D01*
X1062750Y1221750D02*
X1074750D01*
X1062750Y1238250D02*
X1074750D01*
X1093250Y1285000D02*
X1103250D01*
X1103250Y1277750D01*
X1093250Y1255000D02*
X1103250Y1255000D01*
X1103250Y1262250D01*
X1145750Y1203500D02*
X1157750D01*
X1145750Y1220000D02*
X1157750D01*
X1607750Y1239000D02*
X1607750Y1230000D01*
X1590250Y1239000D02*
X1590250Y1230000D01*
X948500Y1279500D02*
X948500Y1267500D01*
X965000Y1279500D02*
X965000Y1267500D01*
X977750Y1279500D02*
X977750Y1267500D01*
X994250Y1279500D02*
X994250Y1267500D01*
X1006500Y1279500D02*
X1006500Y1267500D01*
X1023000Y1279500D02*
X1023000Y1267500D01*
X1044250Y1279750D02*
X1044250Y1269750D01*
X1060750Y1279750D02*
X1060750Y1269750D01*
X1044250Y1269750D02*
X1060750Y1269750D01*
X1126500Y1280500D02*
Y1290500D01*
X1133750Y1290500D01*
X1156500Y1280500D02*
X1156500Y1290500D01*
X1149250Y1290500D02*
X1156500Y1290500D01*
X739500Y1257250D02*
X739500Y1248250D01*
X757000Y1257250D02*
X757000Y1248250D01*
X1221500Y1257000D02*
X1221500Y1245000D01*
X1205000Y1257000D02*
X1205000Y1245000D01*
X1378000Y1264500D02*
X1382750Y1264500D01*
X1378000Y1219500D02*
X1382750D01*
X1343750Y1264500D02*
X1348500Y1264500D01*
X1343750Y1219500D02*
X1348500D01*
X1382750Y1264500D02*
X1382750Y1219500D01*
X1343750Y1219500D02*
X1343750Y1264500D01*
X1132250Y1383000D02*
X1144250Y1383000D01*
X1132250Y1399500D02*
X1144250Y1399500D01*
X1062750Y1374750D02*
X1074750D01*
X1062750Y1391250D02*
X1074750D01*
X1093250Y1438000D02*
X1103250D01*
X1103250Y1430750D01*
X1093250Y1408000D02*
X1103250Y1408000D01*
X1103250Y1415250D01*
X1145750Y1356500D02*
X1157750D01*
X1145750Y1373000D02*
X1157750D01*
X1607750Y1392000D02*
X1607750Y1383000D01*
X1590250Y1392000D02*
X1590250Y1383000D01*
X948500Y1432500D02*
X948500Y1420500D01*
X965000Y1432500D02*
X965000Y1420500D01*
X977750Y1432500D02*
X977750Y1420500D01*
X994250Y1432500D02*
X994250Y1420500D01*
X1006500Y1432500D02*
X1006500Y1420500D01*
X1023000Y1432500D02*
X1023000Y1420500D01*
X1044250Y1432750D02*
X1044250Y1422750D01*
X1060750Y1432750D02*
X1060750Y1422750D01*
X1044250Y1422750D02*
X1060750Y1422750D01*
X1126500Y1433500D02*
Y1443500D01*
X1133750Y1443500D01*
X1156500Y1433500D02*
X1156500Y1443500D01*
X1149250Y1443500D02*
X1156500Y1443500D01*
X739500Y1410250D02*
X739500Y1401250D01*
X757000Y1410250D02*
X757000Y1401250D01*
X1221500Y1410000D02*
X1221500Y1398000D01*
X1205000Y1410000D02*
X1205000Y1398000D01*
X1378000Y1417500D02*
X1382750Y1417500D01*
X1378000Y1372500D02*
X1382750D01*
X1343750Y1417500D02*
X1348500Y1417500D01*
X1343750Y1372500D02*
X1348500D01*
X1382750Y1417500D02*
X1382750Y1372500D01*
X1343750Y1372500D02*
X1343750Y1417500D01*
X1132250Y1536000D02*
X1144250Y1536000D01*
X1132250Y1552500D02*
X1144250Y1552500D01*
X1062750Y1527750D02*
X1074750D01*
X1062750Y1544250D02*
X1074750D01*
X1093250Y1591000D02*
X1103250D01*
X1103250Y1583750D01*
X1093250Y1561000D02*
X1103250Y1561000D01*
X1103250Y1568250D01*
X1145750Y1509500D02*
X1157750D01*
X1145750Y1526000D02*
X1157750D01*
X1607750Y1545000D02*
X1607750Y1536000D01*
X1590250Y1545000D02*
X1590250Y1536000D01*
X948500Y1585500D02*
X948500Y1573500D01*
X965000Y1585500D02*
X965000Y1573500D01*
X977750Y1585500D02*
X977750Y1573500D01*
X994250Y1585500D02*
X994250Y1573500D01*
X1006500Y1585500D02*
X1006500Y1573500D01*
X1023000Y1585500D02*
X1023000Y1573500D01*
X1044250Y1585750D02*
X1044250Y1575750D01*
X1060750Y1585750D02*
X1060750Y1575750D01*
X1044250Y1575750D02*
X1060750Y1575750D01*
X1126500Y1586500D02*
Y1596500D01*
X1133750Y1596500D01*
X1156500Y1586500D02*
X1156500Y1596500D01*
X1149250Y1596500D02*
X1156500Y1596500D01*
X739500Y1563250D02*
X739500Y1554250D01*
X757000Y1563250D02*
X757000Y1554250D01*
X1221500Y1563000D02*
X1221500Y1551000D01*
X1205000Y1563000D02*
X1205000Y1551000D01*
X1378000Y1570500D02*
X1382750Y1570500D01*
X1378000Y1525500D02*
X1382750D01*
X1343750Y1570500D02*
X1348500Y1570500D01*
X1343750Y1525500D02*
X1348500D01*
X1382750Y1570500D02*
X1382750Y1525500D01*
X1343750Y1525500D02*
X1343750Y1570500D01*
X1132250Y1689000D02*
X1144250Y1689000D01*
X1132250Y1705500D02*
X1144250Y1705500D01*
X1062750Y1680750D02*
X1074750D01*
X1062750Y1697250D02*
X1074750D01*
X1093250Y1744000D02*
X1103250D01*
X1103250Y1736750D01*
X1093250Y1714000D02*
X1103250Y1714000D01*
X1103250Y1721250D01*
X1145750Y1662500D02*
X1157750D01*
X1145750Y1679000D02*
X1157750D01*
X1607750Y1698000D02*
X1607750Y1689000D01*
X1590250Y1698000D02*
X1590250Y1689000D01*
X948500Y1738500D02*
X948500Y1726500D01*
X965000Y1738500D02*
X965000Y1726500D01*
X977750Y1738500D02*
X977750Y1726500D01*
X994250Y1738500D02*
X994250Y1726500D01*
X1006500Y1738500D02*
X1006500Y1726500D01*
X1023000Y1738500D02*
X1023000Y1726500D01*
X1044250Y1738750D02*
X1044250Y1728750D01*
X1060750Y1738750D02*
X1060750Y1728750D01*
X1044250Y1728750D02*
X1060750Y1728750D01*
X1126500Y1739500D02*
Y1749500D01*
X1133750Y1749500D01*
X1156500Y1739500D02*
X1156500Y1749500D01*
X1149250Y1749500D02*
X1156500Y1749500D01*
X739500Y1716250D02*
X739500Y1707250D01*
X757000Y1716250D02*
X757000Y1707250D01*
X1221500Y1716000D02*
X1221500Y1704000D01*
X1205000Y1716000D02*
X1205000Y1704000D01*
X1378000Y1723500D02*
X1382750Y1723500D01*
X1378000Y1678500D02*
X1382750D01*
X1343750Y1723500D02*
X1348500Y1723500D01*
X1343750Y1678500D02*
X1348500D01*
X1382750Y1723500D02*
X1382750Y1678500D01*
X1343750Y1678500D02*
X1343750Y1723500D01*
X1132250Y1842000D02*
X1144250Y1842000D01*
X1132250Y1858500D02*
X1144250Y1858500D01*
X1062750Y1833750D02*
X1074750D01*
X1062750Y1850250D02*
X1074750D01*
X1093250Y1897000D02*
X1103250D01*
X1103250Y1889750D01*
X1093250Y1867000D02*
X1103250Y1867000D01*
X1103250Y1874250D01*
X1145750Y1815500D02*
X1157750D01*
X1145750Y1832000D02*
X1157750D01*
X1607750Y1851000D02*
X1607750Y1842000D01*
X1590250Y1851000D02*
X1590250Y1842000D01*
X948500Y1891500D02*
X948500Y1879500D01*
X965000Y1891500D02*
X965000Y1879500D01*
X977750Y1891500D02*
X977750Y1879500D01*
X994250Y1891500D02*
X994250Y1879500D01*
X1006500Y1891500D02*
X1006500Y1879500D01*
X1023000Y1891500D02*
X1023000Y1879500D01*
X1044250Y1891750D02*
X1044250Y1881750D01*
X1060750Y1891750D02*
X1060750Y1881750D01*
X1044250Y1881750D02*
X1060750Y1881750D01*
X1126500Y1892500D02*
Y1902500D01*
X1133750Y1902500D01*
X1156500Y1892500D02*
X1156500Y1902500D01*
X1149250Y1902500D02*
X1156500Y1902500D01*
X739500Y1869250D02*
X739500Y1860250D01*
X757000Y1869250D02*
X757000Y1860250D01*
X1221500Y1869000D02*
X1221500Y1857000D01*
X1205000Y1869000D02*
X1205000Y1857000D01*
X1378000Y1876500D02*
X1382750Y1876500D01*
X1378000Y1831500D02*
X1382750D01*
X1343750Y1876500D02*
X1348500Y1876500D01*
X1343750Y1831500D02*
X1348500D01*
X1382750Y1876500D02*
X1382750Y1831500D01*
X1343750Y1831500D02*
X1343750Y1876500D01*
X1132250Y1995000D02*
X1144250Y1995000D01*
X1132250Y2011500D02*
X1144250Y2011500D01*
X1062750Y1986750D02*
X1074750D01*
X1062750Y2003250D02*
X1074750D01*
X1093250Y2050000D02*
X1103250D01*
X1103250Y2042750D01*
X1093250Y2020000D02*
X1103250Y2020000D01*
X1103250Y2027250D01*
X1145750Y1968500D02*
X1157750D01*
X1145750Y1985000D02*
X1157750D01*
X1607750Y2004000D02*
X1607750Y1995000D01*
X1590250Y2004000D02*
X1590250Y1995000D01*
X948500Y2044500D02*
X948500Y2032500D01*
X965000Y2044500D02*
X965000Y2032500D01*
X977750Y2044500D02*
X977750Y2032500D01*
X994250Y2044500D02*
X994250Y2032500D01*
X1006500Y2044500D02*
X1006500Y2032500D01*
X1023000Y2044500D02*
X1023000Y2032500D01*
X1044250Y2044750D02*
X1044250Y2034750D01*
X1060750Y2044750D02*
X1060750Y2034750D01*
X1044250Y2034750D02*
X1060750Y2034750D01*
X1126500Y2045500D02*
Y2055500D01*
X1133750Y2055500D01*
X1156500Y2045500D02*
X1156500Y2055500D01*
X1149250Y2055500D02*
X1156500Y2055500D01*
X739500Y2022250D02*
X739500Y2013250D01*
X757000Y2022250D02*
X757000Y2013250D01*
X1221500Y2022000D02*
X1221500Y2010000D01*
X1205000Y2022000D02*
X1205000Y2010000D01*
X1378000Y2029500D02*
X1382750Y2029500D01*
X1378000Y1984500D02*
X1382750D01*
X1343750Y2029500D02*
X1348500Y2029500D01*
X1343750Y1984500D02*
X1348500D01*
X1382750Y2029500D02*
X1382750Y1984500D01*
X1343750Y1984500D02*
X1343750Y2029500D01*
X1132250Y2148000D02*
X1144250Y2148000D01*
X1132250Y2164500D02*
X1144250Y2164500D01*
X1062750Y2139750D02*
X1074750D01*
X1062750Y2156250D02*
X1074750D01*
X1093250Y2203000D02*
X1103250D01*
X1103250Y2195750D01*
X1093250Y2173000D02*
X1103250Y2173000D01*
X1103250Y2180250D01*
X1145750Y2121500D02*
X1157750D01*
X1145750Y2138000D02*
X1157750D01*
X1607750Y2157000D02*
X1607750Y2148000D01*
X1590250Y2157000D02*
X1590250Y2148000D01*
X948500Y2197500D02*
X948500Y2185500D01*
X965000Y2197500D02*
X965000Y2185500D01*
X977750Y2197500D02*
X977750Y2185500D01*
X994250Y2197500D02*
X994250Y2185500D01*
X1006500Y2197500D02*
X1006500Y2185500D01*
X1023000Y2197500D02*
X1023000Y2185500D01*
X1044250Y2197750D02*
X1044250Y2187750D01*
X1060750Y2197750D02*
X1060750Y2187750D01*
X1044250Y2187750D02*
X1060750Y2187750D01*
X1126500Y2198500D02*
Y2208500D01*
X1133750Y2208500D01*
X1156500Y2198500D02*
X1156500Y2208500D01*
X1149250Y2208500D02*
X1156500Y2208500D01*
X739500Y2175250D02*
X739500Y2166250D01*
X757000Y2175250D02*
X757000Y2166250D01*
X1221500Y2175000D02*
X1221500Y2163000D01*
X1205000Y2175000D02*
X1205000Y2163000D01*
X1378000Y2182500D02*
X1382750Y2182500D01*
X1378000Y2137500D02*
X1382750D01*
X1343750Y2182500D02*
X1348500Y2182500D01*
X1343750Y2137500D02*
X1348500D01*
X1382750Y2182500D02*
X1382750Y2137500D01*
X1343750Y2137500D02*
X1343750Y2182500D01*
X1132250Y2301000D02*
X1144250Y2301000D01*
X1132250Y2317500D02*
X1144250Y2317500D01*
X1062750Y2292750D02*
X1074750D01*
X1062750Y2309250D02*
X1074750D01*
X1093250Y2356000D02*
X1103250D01*
X1103250Y2348750D01*
X1093250Y2326000D02*
X1103250Y2326000D01*
X1103250Y2333250D01*
X1145750Y2274500D02*
X1157750D01*
X1145750Y2291000D02*
X1157750D01*
X1607750Y2310000D02*
X1607750Y2301000D01*
X1590250Y2310000D02*
X1590250Y2301000D01*
X948500Y2350500D02*
X948500Y2338500D01*
X965000Y2350500D02*
X965000Y2338500D01*
X977750Y2350500D02*
X977750Y2338500D01*
X994250Y2350500D02*
X994250Y2338500D01*
X1006500Y2350500D02*
X1006500Y2338500D01*
X1023000Y2350500D02*
X1023000Y2338500D01*
X1044250Y2350750D02*
X1044250Y2340750D01*
X1060750Y2350750D02*
X1060750Y2340750D01*
X1044250Y2340750D02*
X1060750Y2340750D01*
X1126500Y2351500D02*
Y2361500D01*
X1133750Y2361500D01*
X1156500Y2351500D02*
X1156500Y2361500D01*
X1149250Y2361500D02*
X1156500Y2361500D01*
X739500Y2328250D02*
X739500Y2319250D01*
X757000Y2328250D02*
X757000Y2319250D01*
X1221500Y2328000D02*
X1221500Y2316000D01*
X1205000Y2328000D02*
X1205000Y2316000D01*
X1378000Y2335500D02*
X1382750Y2335500D01*
X1378000Y2290500D02*
X1382750D01*
X1343750Y2335500D02*
X1348500Y2335500D01*
X1343750Y2290500D02*
X1348500D01*
X1382750Y2335500D02*
X1382750Y2290500D01*
X1343750Y2290500D02*
X1343750Y2335500D01*
D31*
X660500Y361000D02*
X695500Y361000D01*
X695500Y311000D01*
X660500Y311000D02*
X695500Y311000D01*
X660500Y361000D02*
X660500Y311000D01*
X713000Y298500D02*
X723000D01*
X718000Y293500D02*
X718000Y303500D01*
X1265750Y303500D02*
X1303250Y303500D01*
X1303250Y311000D02*
X1303250Y303500D01*
X1303250Y368500D02*
X1303250Y361000D01*
X1265750Y368500D02*
X1303250Y368500D01*
X660500Y514000D02*
X695500Y514000D01*
X695500Y464000D01*
X660500Y464000D02*
X695500Y464000D01*
X660500Y514000D02*
X660500Y464000D01*
X713000Y451500D02*
X723000D01*
X718000Y446500D02*
X718000Y456500D01*
X1265750Y456500D02*
X1303250Y456500D01*
X1303250Y464000D02*
X1303250Y456500D01*
X1303250Y521500D02*
X1303250Y514000D01*
X1265750Y521500D02*
X1303250Y521500D01*
X660500Y667000D02*
X695500Y667000D01*
X695500Y617000D01*
X660500Y617000D02*
X695500Y617000D01*
X660500Y667000D02*
X660500Y617000D01*
X713000Y604500D02*
X723000D01*
X718000Y599500D02*
X718000Y609500D01*
X1265750Y609500D02*
X1303250Y609500D01*
X1303250Y617000D02*
X1303250Y609500D01*
X1303250Y674500D02*
X1303250Y667000D01*
X1265750Y674500D02*
X1303250Y674500D01*
X660500Y820000D02*
X695500Y820000D01*
X695500Y770000D01*
X660500Y770000D02*
X695500Y770000D01*
X660500Y820000D02*
X660500Y770000D01*
X713000Y757500D02*
X723000D01*
X718000Y752500D02*
X718000Y762500D01*
X1265750Y762500D02*
X1303250Y762500D01*
X1303250Y770000D02*
X1303250Y762500D01*
X1303250Y827500D02*
X1303250Y820000D01*
X1265750Y827500D02*
X1303250Y827500D01*
X660500Y973000D02*
X695500Y973000D01*
X695500Y923000D01*
X660500Y923000D02*
X695500Y923000D01*
X660500Y973000D02*
X660500Y923000D01*
X713000Y910500D02*
X723000D01*
X718000Y905500D02*
X718000Y915500D01*
X1265750Y915500D02*
X1303250Y915500D01*
X1303250Y923000D02*
X1303250Y915500D01*
X1303250Y980500D02*
X1303250Y973000D01*
X1265750Y980500D02*
X1303250Y980500D01*
X660500Y1126000D02*
X695500Y1126000D01*
X695500Y1076000D01*
X660500Y1076000D02*
X695500Y1076000D01*
X660500Y1126000D02*
X660500Y1076000D01*
X713000Y1063500D02*
X723000D01*
X718000Y1058500D02*
X718000Y1068500D01*
X1265750Y1068500D02*
X1303250Y1068500D01*
X1303250Y1076000D02*
X1303250Y1068500D01*
X1303250Y1133500D02*
X1303250Y1126000D01*
X1265750Y1133500D02*
X1303250Y1133500D01*
X660500Y1279000D02*
X695500Y1279000D01*
X695500Y1229000D01*
X660500Y1229000D02*
X695500Y1229000D01*
X660500Y1279000D02*
X660500Y1229000D01*
X713000Y1216500D02*
X723000D01*
X718000Y1211500D02*
X718000Y1221500D01*
X1265750Y1221500D02*
X1303250Y1221500D01*
X1303250Y1229000D02*
X1303250Y1221500D01*
X1303250Y1286500D02*
X1303250Y1279000D01*
X1265750Y1286500D02*
X1303250Y1286500D01*
X660500Y1432000D02*
X695500Y1432000D01*
X695500Y1382000D01*
X660500Y1382000D02*
X695500Y1382000D01*
X660500Y1432000D02*
X660500Y1382000D01*
X713000Y1369500D02*
X723000D01*
X718000Y1364500D02*
X718000Y1374500D01*
X1265750Y1374500D02*
X1303250Y1374500D01*
X1303250Y1382000D02*
X1303250Y1374500D01*
X1303250Y1439500D02*
X1303250Y1432000D01*
X1265750Y1439500D02*
X1303250Y1439500D01*
X660500Y1585000D02*
X695500Y1585000D01*
X695500Y1535000D01*
X660500Y1535000D02*
X695500Y1535000D01*
X660500Y1585000D02*
X660500Y1535000D01*
X713000Y1522500D02*
X723000D01*
X718000Y1517500D02*
X718000Y1527500D01*
X1265750Y1527500D02*
X1303250Y1527500D01*
X1303250Y1535000D02*
X1303250Y1527500D01*
X1303250Y1592500D02*
X1303250Y1585000D01*
X1265750Y1592500D02*
X1303250Y1592500D01*
X660500Y1738000D02*
X695500Y1738000D01*
X695500Y1688000D01*
X660500Y1688000D02*
X695500Y1688000D01*
X660500Y1738000D02*
X660500Y1688000D01*
X713000Y1675500D02*
X723000D01*
X718000Y1670500D02*
X718000Y1680500D01*
X1265750Y1680500D02*
X1303250Y1680500D01*
X1303250Y1688000D02*
X1303250Y1680500D01*
X1303250Y1745500D02*
X1303250Y1738000D01*
X1265750Y1745500D02*
X1303250Y1745500D01*
X660500Y1891000D02*
X695500Y1891000D01*
X695500Y1841000D01*
X660500Y1841000D02*
X695500Y1841000D01*
X660500Y1891000D02*
X660500Y1841000D01*
X713000Y1828500D02*
X723000D01*
X718000Y1823500D02*
X718000Y1833500D01*
X1265750Y1833500D02*
X1303250Y1833500D01*
X1303250Y1841000D02*
X1303250Y1833500D01*
X1303250Y1898500D02*
X1303250Y1891000D01*
X1265750Y1898500D02*
X1303250Y1898500D01*
X660500Y2044000D02*
X695500Y2044000D01*
X695500Y1994000D01*
X660500Y1994000D02*
X695500Y1994000D01*
X660500Y2044000D02*
X660500Y1994000D01*
X713000Y1981500D02*
X723000D01*
X718000Y1976500D02*
X718000Y1986500D01*
X1265750Y1986500D02*
X1303250Y1986500D01*
X1303250Y1994000D02*
X1303250Y1986500D01*
X1303250Y2051500D02*
X1303250Y2044000D01*
X1265750Y2051500D02*
X1303250Y2051500D01*
X660500Y2197000D02*
X695500Y2197000D01*
X695500Y2147000D01*
X660500Y2147000D02*
X695500Y2147000D01*
X660500Y2197000D02*
X660500Y2147000D01*
X713000Y2134500D02*
X723000D01*
X718000Y2129500D02*
X718000Y2139500D01*
X1265750Y2139500D02*
X1303250Y2139500D01*
X1303250Y2147000D02*
X1303250Y2139500D01*
X1303250Y2204500D02*
X1303250Y2197000D01*
X1265750Y2204500D02*
X1303250Y2204500D01*
X660500Y2350000D02*
X695500Y2350000D01*
X695500Y2300000D01*
X660500Y2300000D02*
X695500Y2300000D01*
X660500Y2350000D02*
X660500Y2300000D01*
X713000Y2287500D02*
X723000D01*
X718000Y2282500D02*
X718000Y2292500D01*
X1265750Y2292500D02*
X1303250Y2292500D01*
X1303250Y2300000D02*
X1303250Y2292500D01*
X1303250Y2357500D02*
X1303250Y2350000D01*
X1265750Y2357500D02*
X1303250Y2357500D01*
D32*
X2224000Y280000D02*
X2231000D01*
X2240000Y264000D02*
Y271000D01*
X2249000Y280000D02*
X2256000D01*
X2240000Y289000D02*
Y296000D01*
X330000Y359000D02*
Y366000D01*
X314000Y375000D02*
X321000D01*
X339000D02*
X346000D01*
X330000Y384000D02*
Y391000D01*
X1595531Y357231D02*
X1593864Y358897D01*
X1590532D01*
X1588866Y357231D01*
Y350566D01*
X1590532Y348900D01*
X1593864D01*
X1595531Y350566D01*
X1605527Y348900D02*
X1598863D01*
X1605527Y355564D01*
Y357231D01*
X1603861Y358897D01*
X1600529D01*
X1598863Y357231D01*
X1079000Y385497D02*
Y378832D01*
X1082332Y375500D01*
X1085665Y378832D01*
Y385497D01*
X1088997D02*
X1095661D01*
X1092329D01*
Y375500D01*
X1098994Y383831D02*
X1100660Y385497D01*
X1103992D01*
X1105658Y383831D01*
Y382164D01*
X1103992Y380498D01*
X1102326D01*
X1103992D01*
X1105658Y378832D01*
Y377166D01*
X1103992Y375500D01*
X1100660D01*
X1098994Y377166D01*
X1122732Y404028D02*
Y397364D01*
X1126064Y394032D01*
X1129396Y397364D01*
Y404028D01*
X1132728D02*
X1139393D01*
X1136061D01*
Y394032D01*
X1149390D02*
X1142725D01*
X1149390Y400696D01*
Y402362D01*
X1147724Y404028D01*
X1144391D01*
X1142725Y402362D01*
X1237382Y388717D02*
Y382052D01*
X1240714Y378720D01*
X1244046Y382052D01*
Y388717D01*
X1247379D02*
X1254043D01*
X1250711D01*
Y378720D01*
X1257376D02*
X1260708D01*
X1259042D01*
Y388717D01*
X1257376Y387051D01*
X1035510Y401683D02*
Y395018D01*
X1038842Y391686D01*
X1042175Y395018D01*
Y401683D01*
X1045507D02*
Y391686D01*
X1050505D01*
X1052171Y393352D01*
Y400017D01*
X1050505Y401683D01*
X1045507D01*
X1062168Y391686D02*
X1055504D01*
X1062168Y398350D01*
Y400017D01*
X1060502Y401683D01*
X1057170D01*
X1055504Y400017D01*
X1065500Y391686D02*
X1068833D01*
X1067167D01*
Y401683D01*
X1065500Y400017D01*
X634608Y381127D02*
Y374462D01*
X637940Y371130D01*
X641273Y374462D01*
Y381127D01*
X644605D02*
Y371130D01*
X649603D01*
X651269Y372796D01*
Y379461D01*
X649603Y381127D01*
X644605D01*
X654602Y379461D02*
X656268Y381127D01*
X659600D01*
X661266Y379461D01*
Y377794D01*
X659600Y376128D01*
X661266Y374462D01*
Y372796D01*
X659600Y371130D01*
X656268D01*
X654602Y372796D01*
Y374462D01*
X656268Y376128D01*
X654602Y377794D01*
Y379461D01*
X656268Y376128D02*
X659600D01*
X1343424Y376191D02*
Y369526D01*
X1346756Y366194D01*
X1350089Y369526D01*
Y376191D01*
X1353421D02*
Y366194D01*
X1358419D01*
X1360085Y367860D01*
Y374525D01*
X1358419Y376191D01*
X1353421D01*
X1363418Y366194D02*
X1366750D01*
X1365084D01*
Y376191D01*
X1363418Y374525D01*
X1005000Y387326D02*
Y397323D01*
X1009998D01*
X1011665Y395657D01*
Y392324D01*
X1009998Y390658D01*
X1005000D01*
X1008332D02*
X1011665Y387326D01*
X1014997Y397323D02*
X1021661D01*
Y395657D01*
X1014997Y388992D01*
Y387326D01*
X976238Y387316D02*
Y397313D01*
X981236D01*
X982903Y395647D01*
Y392314D01*
X981236Y390648D01*
X976238D01*
X979570D02*
X982903Y387316D01*
X992899Y397313D02*
X989567Y395647D01*
X986235Y392314D01*
Y388982D01*
X987901Y387316D01*
X991233D01*
X992899Y388982D01*
Y390648D01*
X991233Y392314D01*
X986235D01*
X947062Y387418D02*
Y397415D01*
X952060D01*
X953727Y395749D01*
Y392416D01*
X952060Y390750D01*
X947062D01*
X950394D02*
X953727Y387418D01*
X963723Y397415D02*
X957059D01*
Y392416D01*
X960391Y394082D01*
X962057D01*
X963723Y392416D01*
Y389084D01*
X962057Y387418D01*
X958725D01*
X957059Y389084D01*
X1023250Y303500D02*
Y313497D01*
X1028248D01*
X1029914Y311831D01*
Y308498D01*
X1028248Y306832D01*
X1023250D01*
X1026582D02*
X1029914Y303500D01*
X1038245D02*
Y313497D01*
X1033247Y308498D01*
X1039911D01*
X1170250Y313750D02*
Y323747D01*
X1175248D01*
X1176915Y322081D01*
Y318748D01*
X1175248Y317082D01*
X1170250D01*
X1173582D02*
X1176915Y313750D01*
X1180247Y322081D02*
X1181913Y323747D01*
X1185245D01*
X1186911Y322081D01*
Y320415D01*
X1185245Y318748D01*
X1183579D01*
X1185245D01*
X1186911Y317082D01*
Y315416D01*
X1185245Y313750D01*
X1181913D01*
X1180247Y315416D01*
X1203532Y364766D02*
Y374763D01*
X1208530D01*
X1210197Y373097D01*
Y369764D01*
X1208530Y368098D01*
X1203532D01*
X1206864D02*
X1210197Y364766D01*
X1220193D02*
X1213529D01*
X1220193Y371431D01*
Y373097D01*
X1218527Y374763D01*
X1215195D01*
X1213529Y373097D01*
X1181750Y287750D02*
Y297747D01*
X1186748D01*
X1188415Y296081D01*
Y292748D01*
X1186748Y291082D01*
X1181750D01*
X1185082D02*
X1188415Y287750D01*
X1191747D02*
X1195079D01*
X1193413D01*
Y297747D01*
X1191747Y296081D01*
X1409798Y401529D02*
Y391532D01*
X1416463D01*
X1419795D02*
X1423127D01*
X1421461D01*
Y401529D01*
X1419795Y399863D01*
X744640Y375513D02*
X742974Y377179D01*
X739642D01*
X737976Y375513D01*
Y368848D01*
X739642Y367182D01*
X742974D01*
X744640Y368848D01*
X747973Y367182D02*
X751305D01*
X749639D01*
Y377179D01*
X747973Y375513D01*
X1037260Y333890D02*
Y332224D01*
X1035594D01*
Y333890D01*
X1037260D01*
X2224000Y433000D02*
X2231000D01*
X2240000Y417000D02*
Y424000D01*
X2249000Y433000D02*
X2256000D01*
X2240000Y442000D02*
Y449000D01*
X330000Y512000D02*
Y519000D01*
X314000Y528000D02*
X321000D01*
X339000D02*
X346000D01*
X330000Y537000D02*
Y544000D01*
X1595531Y510231D02*
X1593864Y511897D01*
X1590532D01*
X1588866Y510231D01*
Y503566D01*
X1590532Y501900D01*
X1593864D01*
X1595531Y503566D01*
X1605527Y501900D02*
X1598863D01*
X1605527Y508564D01*
Y510231D01*
X1603861Y511897D01*
X1600529D01*
X1598863Y510231D01*
X1079000Y538497D02*
Y531832D01*
X1082332Y528500D01*
X1085665Y531832D01*
Y538497D01*
X1088997D02*
X1095661D01*
X1092329D01*
Y528500D01*
X1098994Y536831D02*
X1100660Y538497D01*
X1103992D01*
X1105658Y536831D01*
Y535164D01*
X1103992Y533498D01*
X1102326D01*
X1103992D01*
X1105658Y531832D01*
Y530166D01*
X1103992Y528500D01*
X1100660D01*
X1098994Y530166D01*
X1122732Y557028D02*
Y550364D01*
X1126064Y547032D01*
X1129396Y550364D01*
Y557028D01*
X1132728D02*
X1139393D01*
X1136061D01*
Y547032D01*
X1149390D02*
X1142725D01*
X1149390Y553696D01*
Y555362D01*
X1147724Y557028D01*
X1144391D01*
X1142725Y555362D01*
X1237382Y541717D02*
Y535052D01*
X1240714Y531720D01*
X1244046Y535052D01*
Y541717D01*
X1247379D02*
X1254043D01*
X1250711D01*
Y531720D01*
X1257376D02*
X1260708D01*
X1259042D01*
Y541717D01*
X1257376Y540051D01*
X1035510Y554683D02*
Y548018D01*
X1038842Y544686D01*
X1042175Y548018D01*
Y554683D01*
X1045507D02*
Y544686D01*
X1050505D01*
X1052171Y546352D01*
Y553017D01*
X1050505Y554683D01*
X1045507D01*
X1062168Y544686D02*
X1055504D01*
X1062168Y551351D01*
Y553017D01*
X1060502Y554683D01*
X1057170D01*
X1055504Y553017D01*
X1065500Y544686D02*
X1068833D01*
X1067167D01*
Y554683D01*
X1065500Y553017D01*
X634608Y534127D02*
Y527462D01*
X637940Y524130D01*
X641273Y527462D01*
Y534127D01*
X644605D02*
Y524130D01*
X649603D01*
X651269Y525796D01*
Y532461D01*
X649603Y534127D01*
X644605D01*
X654602Y532461D02*
X656268Y534127D01*
X659600D01*
X661266Y532461D01*
Y530794D01*
X659600Y529128D01*
X661266Y527462D01*
Y525796D01*
X659600Y524130D01*
X656268D01*
X654602Y525796D01*
Y527462D01*
X656268Y529128D01*
X654602Y530794D01*
Y532461D01*
X656268Y529128D02*
X659600D01*
X1343424Y529191D02*
Y522526D01*
X1346756Y519194D01*
X1350089Y522526D01*
Y529191D01*
X1353421D02*
Y519194D01*
X1358419D01*
X1360085Y520860D01*
Y527525D01*
X1358419Y529191D01*
X1353421D01*
X1363418Y519194D02*
X1366750D01*
X1365084D01*
Y529191D01*
X1363418Y527525D01*
X1005000Y540326D02*
Y550323D01*
X1009998D01*
X1011665Y548657D01*
Y545324D01*
X1009998Y543658D01*
X1005000D01*
X1008332D02*
X1011665Y540326D01*
X1014997Y550323D02*
X1021661D01*
Y548657D01*
X1014997Y541992D01*
Y540326D01*
X976238Y540316D02*
Y550313D01*
X981236D01*
X982903Y548647D01*
Y545314D01*
X981236Y543648D01*
X976238D01*
X979570D02*
X982903Y540316D01*
X992899Y550313D02*
X989567Y548647D01*
X986235Y545314D01*
Y541982D01*
X987901Y540316D01*
X991233D01*
X992899Y541982D01*
Y543648D01*
X991233Y545314D01*
X986235D01*
X947062Y540418D02*
Y550415D01*
X952060D01*
X953727Y548749D01*
Y545416D01*
X952060Y543750D01*
X947062D01*
X950394D02*
X953727Y540418D01*
X963723Y550415D02*
X957059D01*
Y545416D01*
X960391Y547082D01*
X962057D01*
X963723Y545416D01*
Y542084D01*
X962057Y540418D01*
X958725D01*
X957059Y542084D01*
X1023250Y456500D02*
Y466497D01*
X1028248D01*
X1029914Y464831D01*
Y461498D01*
X1028248Y459832D01*
X1023250D01*
X1026582D02*
X1029914Y456500D01*
X1038245D02*
Y466497D01*
X1033247Y461498D01*
X1039911D01*
X1170250Y466750D02*
Y476747D01*
X1175248D01*
X1176915Y475081D01*
Y471748D01*
X1175248Y470082D01*
X1170250D01*
X1173582D02*
X1176915Y466750D01*
X1180247Y475081D02*
X1181913Y476747D01*
X1185245D01*
X1186911Y475081D01*
Y473414D01*
X1185245Y471748D01*
X1183579D01*
X1185245D01*
X1186911Y470082D01*
Y468416D01*
X1185245Y466750D01*
X1181913D01*
X1180247Y468416D01*
X1203532Y517766D02*
Y527763D01*
X1208530D01*
X1210197Y526097D01*
Y522764D01*
X1208530Y521098D01*
X1203532D01*
X1206864D02*
X1210197Y517766D01*
X1220193D02*
X1213529D01*
X1220193Y524431D01*
Y526097D01*
X1218527Y527763D01*
X1215195D01*
X1213529Y526097D01*
X1181750Y440750D02*
Y450747D01*
X1186748D01*
X1188415Y449081D01*
Y445748D01*
X1186748Y444082D01*
X1181750D01*
X1185082D02*
X1188415Y440750D01*
X1191747D02*
X1195079D01*
X1193413D01*
Y450747D01*
X1191747Y449081D01*
X1409798Y554529D02*
Y544532D01*
X1416463D01*
X1419795D02*
X1423127D01*
X1421461D01*
Y554529D01*
X1419795Y552863D01*
X744640Y528513D02*
X742974Y530179D01*
X739642D01*
X737976Y528513D01*
Y521848D01*
X739642Y520182D01*
X742974D01*
X744640Y521848D01*
X747973Y520182D02*
X751305D01*
X749639D01*
Y530179D01*
X747973Y528513D01*
X1037260Y486890D02*
Y485224D01*
X1035594D01*
Y486890D01*
X1037260D01*
X2224000Y586000D02*
X2231000D01*
X2240000Y570000D02*
Y577000D01*
X2249000Y586000D02*
X2256000D01*
X2240000Y595000D02*
Y602000D01*
X330000Y665000D02*
Y672000D01*
X314000Y681000D02*
X321000D01*
X339000D02*
X346000D01*
X330000Y690000D02*
Y697000D01*
X1595531Y663231D02*
X1593864Y664897D01*
X1590532D01*
X1588866Y663231D01*
Y656566D01*
X1590532Y654900D01*
X1593864D01*
X1595531Y656566D01*
X1605527Y654900D02*
X1598863D01*
X1605527Y661564D01*
Y663231D01*
X1603861Y664897D01*
X1600529D01*
X1598863Y663231D01*
X1079000Y691497D02*
Y684832D01*
X1082332Y681500D01*
X1085665Y684832D01*
Y691497D01*
X1088997D02*
X1095661D01*
X1092329D01*
Y681500D01*
X1098994Y689831D02*
X1100660Y691497D01*
X1103992D01*
X1105658Y689831D01*
Y688165D01*
X1103992Y686498D01*
X1102326D01*
X1103992D01*
X1105658Y684832D01*
Y683166D01*
X1103992Y681500D01*
X1100660D01*
X1098994Y683166D01*
X1122732Y710029D02*
Y703364D01*
X1126064Y700032D01*
X1129396Y703364D01*
Y710029D01*
X1132728D02*
X1139393D01*
X1136061D01*
Y700032D01*
X1149390D02*
X1142725D01*
X1149390Y706696D01*
Y708362D01*
X1147724Y710029D01*
X1144391D01*
X1142725Y708362D01*
X1237382Y694717D02*
Y688052D01*
X1240714Y684720D01*
X1244046Y688052D01*
Y694717D01*
X1247379D02*
X1254043D01*
X1250711D01*
Y684720D01*
X1257376D02*
X1260708D01*
X1259042D01*
Y694717D01*
X1257376Y693051D01*
X1035510Y707683D02*
Y701018D01*
X1038842Y697686D01*
X1042175Y701018D01*
Y707683D01*
X1045507D02*
Y697686D01*
X1050505D01*
X1052171Y699352D01*
Y706017D01*
X1050505Y707683D01*
X1045507D01*
X1062168Y697686D02*
X1055504D01*
X1062168Y704351D01*
Y706017D01*
X1060502Y707683D01*
X1057170D01*
X1055504Y706017D01*
X1065500Y697686D02*
X1068833D01*
X1067167D01*
Y707683D01*
X1065500Y706017D01*
X634608Y687127D02*
Y680462D01*
X637940Y677130D01*
X641273Y680462D01*
Y687127D01*
X644605D02*
Y677130D01*
X649603D01*
X651269Y678796D01*
Y685461D01*
X649603Y687127D01*
X644605D01*
X654602Y685461D02*
X656268Y687127D01*
X659600D01*
X661266Y685461D01*
Y683794D01*
X659600Y682128D01*
X661266Y680462D01*
Y678796D01*
X659600Y677130D01*
X656268D01*
X654602Y678796D01*
Y680462D01*
X656268Y682128D01*
X654602Y683794D01*
Y685461D01*
X656268Y682128D02*
X659600D01*
X1343424Y682191D02*
Y675526D01*
X1346756Y672194D01*
X1350089Y675526D01*
Y682191D01*
X1353421D02*
Y672194D01*
X1358419D01*
X1360085Y673860D01*
Y680525D01*
X1358419Y682191D01*
X1353421D01*
X1363418Y672194D02*
X1366750D01*
X1365084D01*
Y682191D01*
X1363418Y680525D01*
X1005000Y693326D02*
Y703323D01*
X1009998D01*
X1011665Y701657D01*
Y698324D01*
X1009998Y696658D01*
X1005000D01*
X1008332D02*
X1011665Y693326D01*
X1014997Y703323D02*
X1021661D01*
Y701657D01*
X1014997Y694992D01*
Y693326D01*
X976238Y693316D02*
Y703313D01*
X981236D01*
X982903Y701647D01*
Y698314D01*
X981236Y696648D01*
X976238D01*
X979570D02*
X982903Y693316D01*
X992899Y703313D02*
X989567Y701647D01*
X986235Y698314D01*
Y694982D01*
X987901Y693316D01*
X991233D01*
X992899Y694982D01*
Y696648D01*
X991233Y698314D01*
X986235D01*
X947062Y693418D02*
Y703415D01*
X952060D01*
X953727Y701749D01*
Y698416D01*
X952060Y696750D01*
X947062D01*
X950394D02*
X953727Y693418D01*
X963723Y703415D02*
X957059D01*
Y698416D01*
X960391Y700082D01*
X962057D01*
X963723Y698416D01*
Y695084D01*
X962057Y693418D01*
X958725D01*
X957059Y695084D01*
X1023250Y609500D02*
Y619497D01*
X1028248D01*
X1029914Y617831D01*
Y614498D01*
X1028248Y612832D01*
X1023250D01*
X1026582D02*
X1029914Y609500D01*
X1038245D02*
Y619497D01*
X1033247Y614498D01*
X1039911D01*
X1170250Y619750D02*
Y629747D01*
X1175248D01*
X1176915Y628081D01*
Y624748D01*
X1175248Y623082D01*
X1170250D01*
X1173582D02*
X1176915Y619750D01*
X1180247Y628081D02*
X1181913Y629747D01*
X1185245D01*
X1186911Y628081D01*
Y626414D01*
X1185245Y624748D01*
X1183579D01*
X1185245D01*
X1186911Y623082D01*
Y621416D01*
X1185245Y619750D01*
X1181913D01*
X1180247Y621416D01*
X1203532Y670766D02*
Y680763D01*
X1208530D01*
X1210197Y679097D01*
Y675764D01*
X1208530Y674098D01*
X1203532D01*
X1206864D02*
X1210197Y670766D01*
X1220193D02*
X1213529D01*
X1220193Y677430D01*
Y679097D01*
X1218527Y680763D01*
X1215195D01*
X1213529Y679097D01*
X1181750Y593750D02*
Y603747D01*
X1186748D01*
X1188415Y602081D01*
Y598748D01*
X1186748Y597082D01*
X1181750D01*
X1185082D02*
X1188415Y593750D01*
X1191747D02*
X1195079D01*
X1193413D01*
Y603747D01*
X1191747Y602081D01*
X1409798Y707529D02*
Y697532D01*
X1416463D01*
X1419795D02*
X1423127D01*
X1421461D01*
Y707529D01*
X1419795Y705863D01*
X744640Y681513D02*
X742974Y683179D01*
X739642D01*
X737976Y681513D01*
Y674848D01*
X739642Y673182D01*
X742974D01*
X744640Y674848D01*
X747973Y673182D02*
X751305D01*
X749639D01*
Y683179D01*
X747973Y681513D01*
X1037260Y639890D02*
Y638224D01*
X1035594D01*
Y639890D01*
X1037260D01*
X2224000Y739000D02*
X2231000D01*
X2240000Y723000D02*
Y730000D01*
X2249000Y739000D02*
X2256000D01*
X2240000Y748000D02*
Y755000D01*
X330000Y818000D02*
Y825000D01*
X314000Y834000D02*
X321000D01*
X339000D02*
X346000D01*
X330000Y843000D02*
Y850000D01*
X1595531Y816231D02*
X1593864Y817897D01*
X1590532D01*
X1588866Y816231D01*
Y809566D01*
X1590532Y807900D01*
X1593864D01*
X1595531Y809566D01*
X1605527Y807900D02*
X1598863D01*
X1605527Y814565D01*
Y816231D01*
X1603861Y817897D01*
X1600529D01*
X1598863Y816231D01*
X1079000Y844497D02*
Y837832D01*
X1082332Y834500D01*
X1085665Y837832D01*
Y844497D01*
X1088997D02*
X1095661D01*
X1092329D01*
Y834500D01*
X1098994Y842831D02*
X1100660Y844497D01*
X1103992D01*
X1105658Y842831D01*
Y841164D01*
X1103992Y839498D01*
X1102326D01*
X1103992D01*
X1105658Y837832D01*
Y836166D01*
X1103992Y834500D01*
X1100660D01*
X1098994Y836166D01*
X1122732Y863028D02*
Y856364D01*
X1126064Y853032D01*
X1129396Y856364D01*
Y863028D01*
X1132728D02*
X1139393D01*
X1136061D01*
Y853032D01*
X1149390D02*
X1142725D01*
X1149390Y859696D01*
Y861362D01*
X1147724Y863028D01*
X1144391D01*
X1142725Y861362D01*
X1237382Y847717D02*
Y841052D01*
X1240714Y837720D01*
X1244046Y841052D01*
Y847717D01*
X1247379D02*
X1254043D01*
X1250711D01*
Y837720D01*
X1257376D02*
X1260708D01*
X1259042D01*
Y847717D01*
X1257376Y846051D01*
X1035510Y860683D02*
Y854018D01*
X1038842Y850686D01*
X1042175Y854018D01*
Y860683D01*
X1045507D02*
Y850686D01*
X1050505D01*
X1052171Y852352D01*
Y859017D01*
X1050505Y860683D01*
X1045507D01*
X1062168Y850686D02*
X1055504D01*
X1062168Y857351D01*
Y859017D01*
X1060502Y860683D01*
X1057170D01*
X1055504Y859017D01*
X1065500Y850686D02*
X1068833D01*
X1067167D01*
Y860683D01*
X1065500Y859017D01*
X634608Y840127D02*
Y833462D01*
X637940Y830130D01*
X641273Y833462D01*
Y840127D01*
X644605D02*
Y830130D01*
X649603D01*
X651269Y831796D01*
Y838461D01*
X649603Y840127D01*
X644605D01*
X654602Y838461D02*
X656268Y840127D01*
X659600D01*
X661266Y838461D01*
Y836795D01*
X659600Y835128D01*
X661266Y833462D01*
Y831796D01*
X659600Y830130D01*
X656268D01*
X654602Y831796D01*
Y833462D01*
X656268Y835128D01*
X654602Y836795D01*
Y838461D01*
X656268Y835128D02*
X659600D01*
X1343424Y835191D02*
Y828526D01*
X1346756Y825194D01*
X1350089Y828526D01*
Y835191D01*
X1353421D02*
Y825194D01*
X1358419D01*
X1360085Y826860D01*
Y833525D01*
X1358419Y835191D01*
X1353421D01*
X1363418Y825194D02*
X1366750D01*
X1365084D01*
Y835191D01*
X1363418Y833525D01*
X1005000Y846326D02*
Y856323D01*
X1009998D01*
X1011665Y854657D01*
Y851324D01*
X1009998Y849658D01*
X1005000D01*
X1008332D02*
X1011665Y846326D01*
X1014997Y856323D02*
X1021661D01*
Y854657D01*
X1014997Y847992D01*
Y846326D01*
X976238Y846316D02*
Y856313D01*
X981236D01*
X982903Y854647D01*
Y851314D01*
X981236Y849648D01*
X976238D01*
X979570D02*
X982903Y846316D01*
X992899Y856313D02*
X989567Y854647D01*
X986235Y851314D01*
Y847982D01*
X987901Y846316D01*
X991233D01*
X992899Y847982D01*
Y849648D01*
X991233Y851314D01*
X986235D01*
X947062Y846418D02*
Y856415D01*
X952060D01*
X953727Y854749D01*
Y851416D01*
X952060Y849750D01*
X947062D01*
X950394D02*
X953727Y846418D01*
X963723Y856415D02*
X957059D01*
Y851416D01*
X960391Y853083D01*
X962057D01*
X963723Y851416D01*
Y848084D01*
X962057Y846418D01*
X958725D01*
X957059Y848084D01*
X1023250Y762500D02*
Y772497D01*
X1028248D01*
X1029914Y770831D01*
Y767498D01*
X1028248Y765832D01*
X1023250D01*
X1026582D02*
X1029914Y762500D01*
X1038245D02*
Y772497D01*
X1033247Y767498D01*
X1039911D01*
X1170250Y772750D02*
Y782747D01*
X1175248D01*
X1176915Y781081D01*
Y777748D01*
X1175248Y776082D01*
X1170250D01*
X1173582D02*
X1176915Y772750D01*
X1180247Y781081D02*
X1181913Y782747D01*
X1185245D01*
X1186911Y781081D01*
Y779415D01*
X1185245Y777748D01*
X1183579D01*
X1185245D01*
X1186911Y776082D01*
Y774416D01*
X1185245Y772750D01*
X1181913D01*
X1180247Y774416D01*
X1203532Y823766D02*
Y833763D01*
X1208530D01*
X1210197Y832097D01*
Y828764D01*
X1208530Y827098D01*
X1203532D01*
X1206864D02*
X1210197Y823766D01*
X1220193D02*
X1213529D01*
X1220193Y830431D01*
Y832097D01*
X1218527Y833763D01*
X1215195D01*
X1213529Y832097D01*
X1181750Y746750D02*
Y756747D01*
X1186748D01*
X1188415Y755081D01*
Y751748D01*
X1186748Y750082D01*
X1181750D01*
X1185082D02*
X1188415Y746750D01*
X1191747D02*
X1195079D01*
X1193413D01*
Y756747D01*
X1191747Y755081D01*
X1409798Y860529D02*
Y850532D01*
X1416463D01*
X1419795D02*
X1423127D01*
X1421461D01*
Y860529D01*
X1419795Y858863D01*
X744640Y834513D02*
X742974Y836179D01*
X739642D01*
X737976Y834513D01*
Y827848D01*
X739642Y826182D01*
X742974D01*
X744640Y827848D01*
X747973Y826182D02*
X751305D01*
X749639D01*
Y836179D01*
X747973Y834513D01*
X1037260Y792890D02*
Y791224D01*
X1035594D01*
Y792890D01*
X1037260D01*
X2224000Y892000D02*
X2231000D01*
X2240000Y876000D02*
Y883000D01*
X2249000Y892000D02*
X2256000D01*
X2240000Y901000D02*
Y908000D01*
X330000Y971000D02*
Y978000D01*
X314000Y987000D02*
X321000D01*
X339000D02*
X346000D01*
X330000Y996000D02*
Y1003000D01*
X1595531Y969231D02*
X1593864Y970897D01*
X1590532D01*
X1588866Y969231D01*
Y962566D01*
X1590532Y960900D01*
X1593864D01*
X1595531Y962566D01*
X1605527Y960900D02*
X1598863D01*
X1605527Y967564D01*
Y969231D01*
X1603861Y970897D01*
X1600529D01*
X1598863Y969231D01*
X1079000Y997497D02*
Y990832D01*
X1082332Y987500D01*
X1085665Y990832D01*
Y997497D01*
X1088997D02*
X1095661D01*
X1092329D01*
Y987500D01*
X1098994Y995831D02*
X1100660Y997497D01*
X1103992D01*
X1105658Y995831D01*
Y994165D01*
X1103992Y992498D01*
X1102326D01*
X1103992D01*
X1105658Y990832D01*
Y989166D01*
X1103992Y987500D01*
X1100660D01*
X1098994Y989166D01*
X1122732Y1016029D02*
Y1009364D01*
X1126064Y1006032D01*
X1129396Y1009364D01*
Y1016029D01*
X1132728D02*
X1139393D01*
X1136061D01*
Y1006032D01*
X1149390D02*
X1142725D01*
X1149390Y1012696D01*
Y1014362D01*
X1147724Y1016029D01*
X1144391D01*
X1142725Y1014362D01*
X1237382Y1000717D02*
Y994052D01*
X1240714Y990720D01*
X1244046Y994052D01*
Y1000717D01*
X1247379D02*
X1254043D01*
X1250711D01*
Y990720D01*
X1257376D02*
X1260708D01*
X1259042D01*
Y1000717D01*
X1257376Y999051D01*
X1035510Y1013683D02*
Y1007018D01*
X1038842Y1003686D01*
X1042175Y1007018D01*
Y1013683D01*
X1045507D02*
Y1003686D01*
X1050505D01*
X1052171Y1005352D01*
Y1012017D01*
X1050505Y1013683D01*
X1045507D01*
X1062168Y1003686D02*
X1055504D01*
X1062168Y1010351D01*
Y1012017D01*
X1060502Y1013683D01*
X1057170D01*
X1055504Y1012017D01*
X1065500Y1003686D02*
X1068833D01*
X1067167D01*
Y1013683D01*
X1065500Y1012017D01*
X634608Y993127D02*
Y986462D01*
X637940Y983130D01*
X641273Y986462D01*
Y993127D01*
X644605D02*
Y983130D01*
X649603D01*
X651269Y984796D01*
Y991461D01*
X649603Y993127D01*
X644605D01*
X654602Y991461D02*
X656268Y993127D01*
X659600D01*
X661266Y991461D01*
Y989795D01*
X659600Y988129D01*
X661266Y986462D01*
Y984796D01*
X659600Y983130D01*
X656268D01*
X654602Y984796D01*
Y986462D01*
X656268Y988129D01*
X654602Y989795D01*
Y991461D01*
X656268Y988129D02*
X659600D01*
X1343424Y988191D02*
Y981526D01*
X1346756Y978194D01*
X1350089Y981526D01*
Y988191D01*
X1353421D02*
Y978194D01*
X1358419D01*
X1360085Y979860D01*
Y986525D01*
X1358419Y988191D01*
X1353421D01*
X1363418Y978194D02*
X1366750D01*
X1365084D01*
Y988191D01*
X1363418Y986525D01*
X1005000Y999326D02*
Y1009323D01*
X1009998D01*
X1011665Y1007657D01*
Y1004324D01*
X1009998Y1002658D01*
X1005000D01*
X1008332D02*
X1011665Y999326D01*
X1014997Y1009323D02*
X1021661D01*
Y1007657D01*
X1014997Y1000992D01*
Y999326D01*
X976238Y999316D02*
Y1009313D01*
X981236D01*
X982903Y1007647D01*
Y1004314D01*
X981236Y1002648D01*
X976238D01*
X979570D02*
X982903Y999316D01*
X992899Y1009313D02*
X989567Y1007647D01*
X986235Y1004314D01*
Y1000982D01*
X987901Y999316D01*
X991233D01*
X992899Y1000982D01*
Y1002648D01*
X991233Y1004314D01*
X986235D01*
X947062Y999418D02*
Y1009415D01*
X952060D01*
X953727Y1007749D01*
Y1004417D01*
X952060Y1002750D01*
X947062D01*
X950394D02*
X953727Y999418D01*
X963723Y1009415D02*
X957059D01*
Y1004417D01*
X960391Y1006083D01*
X962057D01*
X963723Y1004417D01*
Y1001084D01*
X962057Y999418D01*
X958725D01*
X957059Y1001084D01*
X1023250Y915500D02*
Y925497D01*
X1028248D01*
X1029914Y923831D01*
Y920499D01*
X1028248Y918832D01*
X1023250D01*
X1026582D02*
X1029914Y915500D01*
X1038245D02*
Y925497D01*
X1033247Y920499D01*
X1039911D01*
X1170250Y925750D02*
Y935747D01*
X1175248D01*
X1176915Y934081D01*
Y930749D01*
X1175248Y929082D01*
X1170250D01*
X1173582D02*
X1176915Y925750D01*
X1180247Y934081D02*
X1181913Y935747D01*
X1185245D01*
X1186911Y934081D01*
Y932415D01*
X1185245Y930749D01*
X1183579D01*
X1185245D01*
X1186911Y929082D01*
Y927416D01*
X1185245Y925750D01*
X1181913D01*
X1180247Y927416D01*
X1203532Y976766D02*
Y986763D01*
X1208530D01*
X1210197Y985097D01*
Y981765D01*
X1208530Y980098D01*
X1203532D01*
X1206864D02*
X1210197Y976766D01*
X1220193D02*
X1213529D01*
X1220193Y983431D01*
Y985097D01*
X1218527Y986763D01*
X1215195D01*
X1213529Y985097D01*
X1181750Y899750D02*
Y909747D01*
X1186748D01*
X1188415Y908081D01*
Y904749D01*
X1186748Y903082D01*
X1181750D01*
X1185082D02*
X1188415Y899750D01*
X1191747D02*
X1195079D01*
X1193413D01*
Y909747D01*
X1191747Y908081D01*
X1409798Y1013529D02*
Y1003532D01*
X1416463D01*
X1419795D02*
X1423127D01*
X1421461D01*
Y1013529D01*
X1419795Y1011863D01*
X744640Y987513D02*
X742974Y989179D01*
X739642D01*
X737976Y987513D01*
Y980848D01*
X739642Y979182D01*
X742974D01*
X744640Y980848D01*
X747973Y979182D02*
X751305D01*
X749639D01*
Y989179D01*
X747973Y987513D01*
X1037260Y945890D02*
Y944224D01*
X1035594D01*
Y945890D01*
X1037260D01*
X2224000Y1045000D02*
X2231000D01*
X2240000Y1029000D02*
Y1036000D01*
X2249000Y1045000D02*
X2256000D01*
X2240000Y1054000D02*
Y1061000D01*
X330000Y1124000D02*
Y1131000D01*
X314000Y1140000D02*
X321000D01*
X339000D02*
X346000D01*
X330000Y1149000D02*
Y1156000D01*
X1595531Y1122231D02*
X1593864Y1123897D01*
X1590532D01*
X1588866Y1122231D01*
Y1115566D01*
X1590532Y1113900D01*
X1593864D01*
X1595531Y1115566D01*
X1605527Y1113900D02*
X1598863D01*
X1605527Y1120565D01*
Y1122231D01*
X1603861Y1123897D01*
X1600529D01*
X1598863Y1122231D01*
X1079000Y1150497D02*
Y1143832D01*
X1082332Y1140500D01*
X1085665Y1143832D01*
Y1150497D01*
X1088997D02*
X1095661D01*
X1092329D01*
Y1140500D01*
X1098994Y1148831D02*
X1100660Y1150497D01*
X1103992D01*
X1105658Y1148831D01*
Y1147165D01*
X1103992Y1145498D01*
X1102326D01*
X1103992D01*
X1105658Y1143832D01*
Y1142166D01*
X1103992Y1140500D01*
X1100660D01*
X1098994Y1142166D01*
X1122732Y1169028D02*
Y1162364D01*
X1126064Y1159032D01*
X1129396Y1162364D01*
Y1169028D01*
X1132728D02*
X1139393D01*
X1136061D01*
Y1159032D01*
X1149390D02*
X1142725D01*
X1149390Y1165696D01*
Y1167362D01*
X1147724Y1169028D01*
X1144391D01*
X1142725Y1167362D01*
X1237382Y1153717D02*
Y1147052D01*
X1240714Y1143720D01*
X1244046Y1147052D01*
Y1153717D01*
X1247379D02*
X1254043D01*
X1250711D01*
Y1143720D01*
X1257376D02*
X1260708D01*
X1259042D01*
Y1153717D01*
X1257376Y1152051D01*
X1035510Y1166683D02*
Y1160018D01*
X1038842Y1156686D01*
X1042175Y1160018D01*
Y1166683D01*
X1045507D02*
Y1156686D01*
X1050505D01*
X1052171Y1158352D01*
Y1165017D01*
X1050505Y1166683D01*
X1045507D01*
X1062168Y1156686D02*
X1055504D01*
X1062168Y1163351D01*
Y1165017D01*
X1060502Y1166683D01*
X1057170D01*
X1055504Y1165017D01*
X1065500Y1156686D02*
X1068833D01*
X1067167D01*
Y1166683D01*
X1065500Y1165017D01*
X634608Y1146127D02*
Y1139462D01*
X637940Y1136130D01*
X641273Y1139462D01*
Y1146127D01*
X644605D02*
Y1136130D01*
X649603D01*
X651269Y1137796D01*
Y1144461D01*
X649603Y1146127D01*
X644605D01*
X654602Y1144461D02*
X656268Y1146127D01*
X659600D01*
X661266Y1144461D01*
Y1142795D01*
X659600Y1141128D01*
X661266Y1139462D01*
Y1137796D01*
X659600Y1136130D01*
X656268D01*
X654602Y1137796D01*
Y1139462D01*
X656268Y1141128D01*
X654602Y1142795D01*
Y1144461D01*
X656268Y1141128D02*
X659600D01*
X1343424Y1141191D02*
Y1134526D01*
X1346756Y1131194D01*
X1350089Y1134526D01*
Y1141191D01*
X1353421D02*
Y1131194D01*
X1358419D01*
X1360085Y1132860D01*
Y1139525D01*
X1358419Y1141191D01*
X1353421D01*
X1363418Y1131194D02*
X1366750D01*
X1365084D01*
Y1141191D01*
X1363418Y1139525D01*
X1005000Y1152326D02*
Y1162323D01*
X1009998D01*
X1011665Y1160657D01*
Y1157325D01*
X1009998Y1155658D01*
X1005000D01*
X1008332D02*
X1011665Y1152326D01*
X1014997Y1162323D02*
X1021661D01*
Y1160657D01*
X1014997Y1153992D01*
Y1152326D01*
X976238Y1152316D02*
Y1162313D01*
X981236D01*
X982903Y1160647D01*
Y1157315D01*
X981236Y1155648D01*
X976238D01*
X979570D02*
X982903Y1152316D01*
X992899Y1162313D02*
X989567Y1160647D01*
X986235Y1157315D01*
Y1153982D01*
X987901Y1152316D01*
X991233D01*
X992899Y1153982D01*
Y1155648D01*
X991233Y1157315D01*
X986235D01*
X947062Y1152418D02*
Y1162415D01*
X952060D01*
X953727Y1160749D01*
Y1157417D01*
X952060Y1155750D01*
X947062D01*
X950394D02*
X953727Y1152418D01*
X963723Y1162415D02*
X957059D01*
Y1157417D01*
X960391Y1159083D01*
X962057D01*
X963723Y1157417D01*
Y1154084D01*
X962057Y1152418D01*
X958725D01*
X957059Y1154084D01*
X1023250Y1068500D02*
Y1078497D01*
X1028248D01*
X1029914Y1076831D01*
Y1073499D01*
X1028248Y1071832D01*
X1023250D01*
X1026582D02*
X1029914Y1068500D01*
X1038245D02*
Y1078497D01*
X1033247Y1073499D01*
X1039911D01*
X1170250Y1078750D02*
Y1088747D01*
X1175248D01*
X1176915Y1087081D01*
Y1083748D01*
X1175248Y1082082D01*
X1170250D01*
X1173582D02*
X1176915Y1078750D01*
X1180247Y1087081D02*
X1181913Y1088747D01*
X1185245D01*
X1186911Y1087081D01*
Y1085415D01*
X1185245Y1083748D01*
X1183579D01*
X1185245D01*
X1186911Y1082082D01*
Y1080416D01*
X1185245Y1078750D01*
X1181913D01*
X1180247Y1080416D01*
X1203532Y1129766D02*
Y1139763D01*
X1208530D01*
X1210197Y1138097D01*
Y1134764D01*
X1208530Y1133098D01*
X1203532D01*
X1206864D02*
X1210197Y1129766D01*
X1220193D02*
X1213529D01*
X1220193Y1136431D01*
Y1138097D01*
X1218527Y1139763D01*
X1215195D01*
X1213529Y1138097D01*
X1181750Y1052750D02*
Y1062747D01*
X1186748D01*
X1188415Y1061081D01*
Y1057748D01*
X1186748Y1056082D01*
X1181750D01*
X1185082D02*
X1188415Y1052750D01*
X1191747D02*
X1195079D01*
X1193413D01*
Y1062747D01*
X1191747Y1061081D01*
X1409798Y1166529D02*
Y1156532D01*
X1416463D01*
X1419795D02*
X1423127D01*
X1421461D01*
Y1166529D01*
X1419795Y1164863D01*
X744640Y1140513D02*
X742974Y1142179D01*
X739642D01*
X737976Y1140513D01*
Y1133848D01*
X739642Y1132182D01*
X742974D01*
X744640Y1133848D01*
X747973Y1132182D02*
X751305D01*
X749639D01*
Y1142179D01*
X747973Y1140513D01*
X1037260Y1098890D02*
Y1097224D01*
X1035594D01*
Y1098890D01*
X1037260D01*
X2224000Y1198000D02*
X2231000D01*
X2240000Y1182000D02*
Y1189000D01*
X2249000Y1198000D02*
X2256000D01*
X2240000Y1207000D02*
Y1214000D01*
X330000Y1277000D02*
Y1284000D01*
X314000Y1293000D02*
X321000D01*
X339000D02*
X346000D01*
X330000Y1302000D02*
Y1309000D01*
X1595531Y1275231D02*
X1593864Y1276897D01*
X1590532D01*
X1588866Y1275231D01*
Y1268566D01*
X1590532Y1266900D01*
X1593864D01*
X1595531Y1268566D01*
X1605527Y1266900D02*
X1598863D01*
X1605527Y1273565D01*
Y1275231D01*
X1603861Y1276897D01*
X1600529D01*
X1598863Y1275231D01*
X1079000Y1303497D02*
Y1296832D01*
X1082332Y1293500D01*
X1085665Y1296832D01*
Y1303497D01*
X1088997D02*
X1095661D01*
X1092329D01*
Y1293500D01*
X1098994Y1301831D02*
X1100660Y1303497D01*
X1103992D01*
X1105658Y1301831D01*
Y1300165D01*
X1103992Y1298499D01*
X1102326D01*
X1103992D01*
X1105658Y1296832D01*
Y1295166D01*
X1103992Y1293500D01*
X1100660D01*
X1098994Y1295166D01*
X1122732Y1322029D02*
Y1315364D01*
X1126064Y1312032D01*
X1129396Y1315364D01*
Y1322029D01*
X1132728D02*
X1139393D01*
X1136061D01*
Y1312032D01*
X1149390D02*
X1142725D01*
X1149390Y1318696D01*
Y1320362D01*
X1147724Y1322029D01*
X1144391D01*
X1142725Y1320362D01*
X1237382Y1306717D02*
Y1300052D01*
X1240714Y1296720D01*
X1244046Y1300052D01*
Y1306717D01*
X1247379D02*
X1254043D01*
X1250711D01*
Y1296720D01*
X1257376D02*
X1260708D01*
X1259042D01*
Y1306717D01*
X1257376Y1305051D01*
X1035510Y1319683D02*
Y1313018D01*
X1038842Y1309686D01*
X1042175Y1313018D01*
Y1319683D01*
X1045507D02*
Y1309686D01*
X1050505D01*
X1052171Y1311352D01*
Y1318017D01*
X1050505Y1319683D01*
X1045507D01*
X1062168Y1309686D02*
X1055504D01*
X1062168Y1316351D01*
Y1318017D01*
X1060502Y1319683D01*
X1057170D01*
X1055504Y1318017D01*
X1065500Y1309686D02*
X1068833D01*
X1067167D01*
Y1319683D01*
X1065500Y1318017D01*
X634608Y1299127D02*
Y1292462D01*
X637940Y1289130D01*
X641273Y1292462D01*
Y1299127D01*
X644605D02*
Y1289130D01*
X649603D01*
X651269Y1290796D01*
Y1297461D01*
X649603Y1299127D01*
X644605D01*
X654602Y1297461D02*
X656268Y1299127D01*
X659600D01*
X661266Y1297461D01*
Y1295795D01*
X659600Y1294129D01*
X661266Y1292462D01*
Y1290796D01*
X659600Y1289130D01*
X656268D01*
X654602Y1290796D01*
Y1292462D01*
X656268Y1294129D01*
X654602Y1295795D01*
Y1297461D01*
X656268Y1294129D02*
X659600D01*
X1343424Y1294191D02*
Y1287526D01*
X1346756Y1284194D01*
X1350089Y1287526D01*
Y1294191D01*
X1353421D02*
Y1284194D01*
X1358419D01*
X1360085Y1285860D01*
Y1292525D01*
X1358419Y1294191D01*
X1353421D01*
X1363418Y1284194D02*
X1366750D01*
X1365084D01*
Y1294191D01*
X1363418Y1292525D01*
X1005000Y1305326D02*
Y1315323D01*
X1009998D01*
X1011665Y1313657D01*
Y1310325D01*
X1009998Y1308658D01*
X1005000D01*
X1008332D02*
X1011665Y1305326D01*
X1014997Y1315323D02*
X1021661D01*
Y1313657D01*
X1014997Y1306992D01*
Y1305326D01*
X976238Y1305316D02*
Y1315313D01*
X981236D01*
X982903Y1313647D01*
Y1310314D01*
X981236Y1308648D01*
X976238D01*
X979570D02*
X982903Y1305316D01*
X992899Y1315313D02*
X989567Y1313647D01*
X986235Y1310314D01*
Y1306982D01*
X987901Y1305316D01*
X991233D01*
X992899Y1306982D01*
Y1308648D01*
X991233Y1310314D01*
X986235D01*
X947062Y1305418D02*
Y1315415D01*
X952060D01*
X953727Y1313749D01*
Y1310417D01*
X952060Y1308750D01*
X947062D01*
X950394D02*
X953727Y1305418D01*
X963723Y1315415D02*
X957059D01*
Y1310417D01*
X960391Y1312083D01*
X962057D01*
X963723Y1310417D01*
Y1307084D01*
X962057Y1305418D01*
X958725D01*
X957059Y1307084D01*
X1023250Y1221500D02*
Y1231497D01*
X1028248D01*
X1029914Y1229831D01*
Y1226498D01*
X1028248Y1224832D01*
X1023250D01*
X1026582D02*
X1029914Y1221500D01*
X1038245D02*
Y1231497D01*
X1033247Y1226498D01*
X1039911D01*
X1170250Y1231750D02*
Y1241747D01*
X1175248D01*
X1176915Y1240081D01*
Y1236749D01*
X1175248Y1235082D01*
X1170250D01*
X1173582D02*
X1176915Y1231750D01*
X1180247Y1240081D02*
X1181913Y1241747D01*
X1185245D01*
X1186911Y1240081D01*
Y1238415D01*
X1185245Y1236749D01*
X1183579D01*
X1185245D01*
X1186911Y1235082D01*
Y1233416D01*
X1185245Y1231750D01*
X1181913D01*
X1180247Y1233416D01*
X1203532Y1282766D02*
Y1292763D01*
X1208530D01*
X1210197Y1291097D01*
Y1287764D01*
X1208530Y1286098D01*
X1203532D01*
X1206864D02*
X1210197Y1282766D01*
X1220193D02*
X1213529D01*
X1220193Y1289431D01*
Y1291097D01*
X1218527Y1292763D01*
X1215195D01*
X1213529Y1291097D01*
X1181750Y1205750D02*
Y1215747D01*
X1186748D01*
X1188415Y1214081D01*
Y1210749D01*
X1186748Y1209082D01*
X1181750D01*
X1185082D02*
X1188415Y1205750D01*
X1191747D02*
X1195079D01*
X1193413D01*
Y1215747D01*
X1191747Y1214081D01*
X1409798Y1319529D02*
Y1309532D01*
X1416463D01*
X1419795D02*
X1423127D01*
X1421461D01*
Y1319529D01*
X1419795Y1317863D01*
X744640Y1293513D02*
X742974Y1295179D01*
X739642D01*
X737976Y1293513D01*
Y1286848D01*
X739642Y1285182D01*
X742974D01*
X744640Y1286848D01*
X747973Y1285182D02*
X751305D01*
X749639D01*
Y1295179D01*
X747973Y1293513D01*
X1037260Y1251890D02*
Y1250224D01*
X1035594D01*
Y1251890D01*
X1037260D01*
X2224000Y1351000D02*
X2231000D01*
X2240000Y1335000D02*
Y1342000D01*
X2249000Y1351000D02*
X2256000D01*
X2240000Y1360000D02*
Y1367000D01*
X330000Y1430000D02*
Y1437000D01*
X314000Y1446000D02*
X321000D01*
X339000D02*
X346000D01*
X330000Y1455000D02*
Y1462000D01*
X1595531Y1428231D02*
X1593864Y1429897D01*
X1590532D01*
X1588866Y1428231D01*
Y1421566D01*
X1590532Y1419900D01*
X1593864D01*
X1595531Y1421566D01*
X1605527Y1419900D02*
X1598863D01*
X1605527Y1426565D01*
Y1428231D01*
X1603861Y1429897D01*
X1600529D01*
X1598863Y1428231D01*
X1079000Y1456497D02*
Y1449832D01*
X1082332Y1446500D01*
X1085665Y1449832D01*
Y1456497D01*
X1088997D02*
X1095661D01*
X1092329D01*
Y1446500D01*
X1098994Y1454831D02*
X1100660Y1456497D01*
X1103992D01*
X1105658Y1454831D01*
Y1453165D01*
X1103992Y1451499D01*
X1102326D01*
X1103992D01*
X1105658Y1449832D01*
Y1448166D01*
X1103992Y1446500D01*
X1100660D01*
X1098994Y1448166D01*
X1122732Y1475029D02*
Y1468364D01*
X1126064Y1465032D01*
X1129396Y1468364D01*
Y1475029D01*
X1132728D02*
X1139393D01*
X1136061D01*
Y1465032D01*
X1149390D02*
X1142725D01*
X1149390Y1471696D01*
Y1473362D01*
X1147724Y1475029D01*
X1144391D01*
X1142725Y1473362D01*
X1237382Y1459717D02*
Y1453052D01*
X1240714Y1449720D01*
X1244046Y1453052D01*
Y1459717D01*
X1247379D02*
X1254043D01*
X1250711D01*
Y1449720D01*
X1257376D02*
X1260708D01*
X1259042D01*
Y1459717D01*
X1257376Y1458051D01*
X1035510Y1472683D02*
Y1466018D01*
X1038842Y1462686D01*
X1042175Y1466018D01*
Y1472683D01*
X1045507D02*
Y1462686D01*
X1050505D01*
X1052171Y1464352D01*
Y1471017D01*
X1050505Y1472683D01*
X1045507D01*
X1062168Y1462686D02*
X1055504D01*
X1062168Y1469351D01*
Y1471017D01*
X1060502Y1472683D01*
X1057170D01*
X1055504Y1471017D01*
X1065500Y1462686D02*
X1068833D01*
X1067167D01*
Y1472683D01*
X1065500Y1471017D01*
X634608Y1452127D02*
Y1445462D01*
X637940Y1442130D01*
X641273Y1445462D01*
Y1452127D01*
X644605D02*
Y1442130D01*
X649603D01*
X651269Y1443796D01*
Y1450461D01*
X649603Y1452127D01*
X644605D01*
X654602Y1450461D02*
X656268Y1452127D01*
X659600D01*
X661266Y1450461D01*
Y1448795D01*
X659600Y1447128D01*
X661266Y1445462D01*
Y1443796D01*
X659600Y1442130D01*
X656268D01*
X654602Y1443796D01*
Y1445462D01*
X656268Y1447128D01*
X654602Y1448795D01*
Y1450461D01*
X656268Y1447128D02*
X659600D01*
X1343424Y1447191D02*
Y1440526D01*
X1346756Y1437194D01*
X1350089Y1440526D01*
Y1447191D01*
X1353421D02*
Y1437194D01*
X1358419D01*
X1360085Y1438860D01*
Y1445525D01*
X1358419Y1447191D01*
X1353421D01*
X1363418Y1437194D02*
X1366750D01*
X1365084D01*
Y1447191D01*
X1363418Y1445525D01*
X1005000Y1458326D02*
Y1468323D01*
X1009998D01*
X1011665Y1466657D01*
Y1463324D01*
X1009998Y1461658D01*
X1005000D01*
X1008332D02*
X1011665Y1458326D01*
X1014997Y1468323D02*
X1021661D01*
Y1466657D01*
X1014997Y1459992D01*
Y1458326D01*
X976238Y1458316D02*
Y1468313D01*
X981236D01*
X982903Y1466647D01*
Y1463315D01*
X981236Y1461648D01*
X976238D01*
X979570D02*
X982903Y1458316D01*
X992899Y1468313D02*
X989567Y1466647D01*
X986235Y1463315D01*
Y1459982D01*
X987901Y1458316D01*
X991233D01*
X992899Y1459982D01*
Y1461648D01*
X991233Y1463315D01*
X986235D01*
X947062Y1458418D02*
Y1468415D01*
X952060D01*
X953727Y1466749D01*
Y1463416D01*
X952060Y1461750D01*
X947062D01*
X950394D02*
X953727Y1458418D01*
X963723Y1468415D02*
X957059D01*
Y1463416D01*
X960391Y1465083D01*
X962057D01*
X963723Y1463416D01*
Y1460084D01*
X962057Y1458418D01*
X958725D01*
X957059Y1460084D01*
X1023250Y1374500D02*
Y1384497D01*
X1028248D01*
X1029914Y1382831D01*
Y1379498D01*
X1028248Y1377832D01*
X1023250D01*
X1026582D02*
X1029914Y1374500D01*
X1038245D02*
Y1384497D01*
X1033247Y1379498D01*
X1039911D01*
X1170250Y1384750D02*
Y1394747D01*
X1175248D01*
X1176915Y1393081D01*
Y1389749D01*
X1175248Y1388082D01*
X1170250D01*
X1173582D02*
X1176915Y1384750D01*
X1180247Y1393081D02*
X1181913Y1394747D01*
X1185245D01*
X1186911Y1393081D01*
Y1391415D01*
X1185245Y1389749D01*
X1183579D01*
X1185245D01*
X1186911Y1388082D01*
Y1386416D01*
X1185245Y1384750D01*
X1181913D01*
X1180247Y1386416D01*
X1203532Y1435766D02*
Y1445763D01*
X1208530D01*
X1210197Y1444097D01*
Y1440764D01*
X1208530Y1439098D01*
X1203532D01*
X1206864D02*
X1210197Y1435766D01*
X1220193D02*
X1213529D01*
X1220193Y1442431D01*
Y1444097D01*
X1218527Y1445763D01*
X1215195D01*
X1213529Y1444097D01*
X1181750Y1358750D02*
Y1368747D01*
X1186748D01*
X1188415Y1367081D01*
Y1363748D01*
X1186748Y1362082D01*
X1181750D01*
X1185082D02*
X1188415Y1358750D01*
X1191747D02*
X1195079D01*
X1193413D01*
Y1368747D01*
X1191747Y1367081D01*
X1409798Y1472529D02*
Y1462532D01*
X1416463D01*
X1419795D02*
X1423127D01*
X1421461D01*
Y1472529D01*
X1419795Y1470863D01*
X744640Y1446513D02*
X742974Y1448179D01*
X739642D01*
X737976Y1446513D01*
Y1439848D01*
X739642Y1438182D01*
X742974D01*
X744640Y1439848D01*
X747973Y1438182D02*
X751305D01*
X749639D01*
Y1448179D01*
X747973Y1446513D01*
X1037260Y1404890D02*
Y1403224D01*
X1035594D01*
Y1404890D01*
X1037260D01*
X2224000Y1504000D02*
X2231000D01*
X2240000Y1488000D02*
Y1495000D01*
X2249000Y1504000D02*
X2256000D01*
X2240000Y1513000D02*
Y1520000D01*
X330000Y1583000D02*
Y1590000D01*
X314000Y1599000D02*
X321000D01*
X339000D02*
X346000D01*
X330000Y1608000D02*
Y1615000D01*
X1595531Y1581231D02*
X1593864Y1582897D01*
X1590532D01*
X1588866Y1581231D01*
Y1574566D01*
X1590532Y1572900D01*
X1593864D01*
X1595531Y1574566D01*
X1605527Y1572900D02*
X1598863D01*
X1605527Y1579565D01*
Y1581231D01*
X1603861Y1582897D01*
X1600529D01*
X1598863Y1581231D01*
X1079000Y1609497D02*
Y1602832D01*
X1082332Y1599500D01*
X1085665Y1602832D01*
Y1609497D01*
X1088997D02*
X1095661D01*
X1092329D01*
Y1599500D01*
X1098994Y1607831D02*
X1100660Y1609497D01*
X1103992D01*
X1105658Y1607831D01*
Y1606165D01*
X1103992Y1604498D01*
X1102326D01*
X1103992D01*
X1105658Y1602832D01*
Y1601166D01*
X1103992Y1599500D01*
X1100660D01*
X1098994Y1601166D01*
X1122732Y1628029D02*
Y1621364D01*
X1126064Y1618032D01*
X1129396Y1621364D01*
Y1628029D01*
X1132728D02*
X1139393D01*
X1136061D01*
Y1618032D01*
X1149390D02*
X1142725D01*
X1149390Y1624696D01*
Y1626362D01*
X1147724Y1628029D01*
X1144391D01*
X1142725Y1626362D01*
X1237382Y1612717D02*
Y1606052D01*
X1240714Y1602720D01*
X1244046Y1606052D01*
Y1612717D01*
X1247379D02*
X1254043D01*
X1250711D01*
Y1602720D01*
X1257376D02*
X1260708D01*
X1259042D01*
Y1612717D01*
X1257376Y1611051D01*
X1035510Y1625683D02*
Y1619018D01*
X1038842Y1615686D01*
X1042175Y1619018D01*
Y1625683D01*
X1045507D02*
Y1615686D01*
X1050505D01*
X1052171Y1617352D01*
Y1624017D01*
X1050505Y1625683D01*
X1045507D01*
X1062168Y1615686D02*
X1055504D01*
X1062168Y1622351D01*
Y1624017D01*
X1060502Y1625683D01*
X1057170D01*
X1055504Y1624017D01*
X1065500Y1615686D02*
X1068833D01*
X1067167D01*
Y1625683D01*
X1065500Y1624017D01*
X634608Y1605127D02*
Y1598462D01*
X637940Y1595130D01*
X641273Y1598462D01*
Y1605127D01*
X644605D02*
Y1595130D01*
X649603D01*
X651269Y1596796D01*
Y1603461D01*
X649603Y1605127D01*
X644605D01*
X654602Y1603461D02*
X656268Y1605127D01*
X659600D01*
X661266Y1603461D01*
Y1601795D01*
X659600Y1600128D01*
X661266Y1598462D01*
Y1596796D01*
X659600Y1595130D01*
X656268D01*
X654602Y1596796D01*
Y1598462D01*
X656268Y1600128D01*
X654602Y1601795D01*
Y1603461D01*
X656268Y1600128D02*
X659600D01*
X1343424Y1600191D02*
Y1593526D01*
X1346756Y1590194D01*
X1350089Y1593526D01*
Y1600191D01*
X1353421D02*
Y1590194D01*
X1358419D01*
X1360085Y1591860D01*
Y1598525D01*
X1358419Y1600191D01*
X1353421D01*
X1363418Y1590194D02*
X1366750D01*
X1365084D01*
Y1600191D01*
X1363418Y1598525D01*
X1005000Y1611326D02*
Y1621323D01*
X1009998D01*
X1011665Y1619657D01*
Y1616325D01*
X1009998Y1614658D01*
X1005000D01*
X1008332D02*
X1011665Y1611326D01*
X1014997Y1621323D02*
X1021661D01*
Y1619657D01*
X1014997Y1612992D01*
Y1611326D01*
X976238Y1611316D02*
Y1621313D01*
X981236D01*
X982903Y1619647D01*
Y1616315D01*
X981236Y1614648D01*
X976238D01*
X979570D02*
X982903Y1611316D01*
X992899Y1621313D02*
X989567Y1619647D01*
X986235Y1616315D01*
Y1612982D01*
X987901Y1611316D01*
X991233D01*
X992899Y1612982D01*
Y1614648D01*
X991233Y1616315D01*
X986235D01*
X947062Y1611418D02*
Y1621415D01*
X952060D01*
X953727Y1619749D01*
Y1616417D01*
X952060Y1614750D01*
X947062D01*
X950394D02*
X953727Y1611418D01*
X963723Y1621415D02*
X957059D01*
Y1616417D01*
X960391Y1618083D01*
X962057D01*
X963723Y1616417D01*
Y1613084D01*
X962057Y1611418D01*
X958725D01*
X957059Y1613084D01*
X1023250Y1527500D02*
Y1537497D01*
X1028248D01*
X1029914Y1535831D01*
Y1532499D01*
X1028248Y1530832D01*
X1023250D01*
X1026582D02*
X1029914Y1527500D01*
X1038245D02*
Y1537497D01*
X1033247Y1532499D01*
X1039911D01*
X1170250Y1537750D02*
Y1547747D01*
X1175248D01*
X1176915Y1546081D01*
Y1542749D01*
X1175248Y1541082D01*
X1170250D01*
X1173582D02*
X1176915Y1537750D01*
X1180247Y1546081D02*
X1181913Y1547747D01*
X1185245D01*
X1186911Y1546081D01*
Y1544415D01*
X1185245Y1542749D01*
X1183579D01*
X1185245D01*
X1186911Y1541082D01*
Y1539416D01*
X1185245Y1537750D01*
X1181913D01*
X1180247Y1539416D01*
X1203532Y1588766D02*
Y1598763D01*
X1208530D01*
X1210197Y1597097D01*
Y1593765D01*
X1208530Y1592098D01*
X1203532D01*
X1206864D02*
X1210197Y1588766D01*
X1220193D02*
X1213529D01*
X1220193Y1595431D01*
Y1597097D01*
X1218527Y1598763D01*
X1215195D01*
X1213529Y1597097D01*
X1181750Y1511750D02*
Y1521747D01*
X1186748D01*
X1188415Y1520081D01*
Y1516749D01*
X1186748Y1515082D01*
X1181750D01*
X1185082D02*
X1188415Y1511750D01*
X1191747D02*
X1195079D01*
X1193413D01*
Y1521747D01*
X1191747Y1520081D01*
X1409798Y1625529D02*
Y1615532D01*
X1416463D01*
X1419795D02*
X1423127D01*
X1421461D01*
Y1625529D01*
X1419795Y1623863D01*
X744640Y1599513D02*
X742974Y1601179D01*
X739642D01*
X737976Y1599513D01*
Y1592848D01*
X739642Y1591182D01*
X742974D01*
X744640Y1592848D01*
X747973Y1591182D02*
X751305D01*
X749639D01*
Y1601179D01*
X747973Y1599513D01*
X1037260Y1557890D02*
Y1556224D01*
X1035594D01*
Y1557890D01*
X1037260D01*
X2224000Y1657000D02*
X2231000D01*
X2240000Y1641000D02*
Y1648000D01*
X2249000Y1657000D02*
X2256000D01*
X2240000Y1666000D02*
Y1673000D01*
X330000Y1736000D02*
Y1743000D01*
X314000Y1752000D02*
X321000D01*
X339000D02*
X346000D01*
X330000Y1761000D02*
Y1768000D01*
X1595531Y1734231D02*
X1593864Y1735897D01*
X1590532D01*
X1588866Y1734231D01*
Y1727566D01*
X1590532Y1725900D01*
X1593864D01*
X1595531Y1727566D01*
X1605527Y1725900D02*
X1598863D01*
X1605527Y1732565D01*
Y1734231D01*
X1603861Y1735897D01*
X1600529D01*
X1598863Y1734231D01*
X1079000Y1762497D02*
Y1755832D01*
X1082332Y1752500D01*
X1085665Y1755832D01*
Y1762497D01*
X1088997D02*
X1095661D01*
X1092329D01*
Y1752500D01*
X1098994Y1760831D02*
X1100660Y1762497D01*
X1103992D01*
X1105658Y1760831D01*
Y1759165D01*
X1103992Y1757498D01*
X1102326D01*
X1103992D01*
X1105658Y1755832D01*
Y1754166D01*
X1103992Y1752500D01*
X1100660D01*
X1098994Y1754166D01*
X1122732Y1781029D02*
Y1774364D01*
X1126064Y1771032D01*
X1129396Y1774364D01*
Y1781029D01*
X1132728D02*
X1139393D01*
X1136061D01*
Y1771032D01*
X1149390D02*
X1142725D01*
X1149390Y1777696D01*
Y1779362D01*
X1147724Y1781029D01*
X1144391D01*
X1142725Y1779362D01*
X1237382Y1765717D02*
Y1759052D01*
X1240714Y1755720D01*
X1244046Y1759052D01*
Y1765717D01*
X1247379D02*
X1254043D01*
X1250711D01*
Y1755720D01*
X1257376D02*
X1260708D01*
X1259042D01*
Y1765717D01*
X1257376Y1764051D01*
X1035510Y1778683D02*
Y1772018D01*
X1038842Y1768686D01*
X1042175Y1772018D01*
Y1778683D01*
X1045507D02*
Y1768686D01*
X1050505D01*
X1052171Y1770352D01*
Y1777017D01*
X1050505Y1778683D01*
X1045507D01*
X1062168Y1768686D02*
X1055504D01*
X1062168Y1775351D01*
Y1777017D01*
X1060502Y1778683D01*
X1057170D01*
X1055504Y1777017D01*
X1065500Y1768686D02*
X1068833D01*
X1067167D01*
Y1778683D01*
X1065500Y1777017D01*
X634608Y1758127D02*
Y1751462D01*
X637940Y1748130D01*
X641273Y1751462D01*
Y1758127D01*
X644605D02*
Y1748130D01*
X649603D01*
X651269Y1749796D01*
Y1756461D01*
X649603Y1758127D01*
X644605D01*
X654602Y1756461D02*
X656268Y1758127D01*
X659600D01*
X661266Y1756461D01*
Y1754795D01*
X659600Y1753129D01*
X661266Y1751462D01*
Y1749796D01*
X659600Y1748130D01*
X656268D01*
X654602Y1749796D01*
Y1751462D01*
X656268Y1753129D01*
X654602Y1754795D01*
Y1756461D01*
X656268Y1753129D02*
X659600D01*
X1343424Y1753191D02*
Y1746526D01*
X1346756Y1743194D01*
X1350089Y1746526D01*
Y1753191D01*
X1353421D02*
Y1743194D01*
X1358419D01*
X1360085Y1744860D01*
Y1751525D01*
X1358419Y1753191D01*
X1353421D01*
X1363418Y1743194D02*
X1366750D01*
X1365084D01*
Y1753191D01*
X1363418Y1751525D01*
X1005000Y1764326D02*
Y1774323D01*
X1009998D01*
X1011665Y1772657D01*
Y1769325D01*
X1009998Y1767658D01*
X1005000D01*
X1008332D02*
X1011665Y1764326D01*
X1014997Y1774323D02*
X1021661D01*
Y1772657D01*
X1014997Y1765992D01*
Y1764326D01*
X976238Y1764316D02*
Y1774313D01*
X981236D01*
X982903Y1772647D01*
Y1769315D01*
X981236Y1767648D01*
X976238D01*
X979570D02*
X982903Y1764316D01*
X992899Y1774313D02*
X989567Y1772647D01*
X986235Y1769315D01*
Y1765982D01*
X987901Y1764316D01*
X991233D01*
X992899Y1765982D01*
Y1767648D01*
X991233Y1769315D01*
X986235D01*
X947062Y1764418D02*
Y1774415D01*
X952060D01*
X953727Y1772749D01*
Y1769417D01*
X952060Y1767750D01*
X947062D01*
X950394D02*
X953727Y1764418D01*
X963723Y1774415D02*
X957059D01*
Y1769417D01*
X960391Y1771083D01*
X962057D01*
X963723Y1769417D01*
Y1766084D01*
X962057Y1764418D01*
X958725D01*
X957059Y1766084D01*
X1023250Y1680500D02*
Y1690497D01*
X1028248D01*
X1029914Y1688831D01*
Y1685499D01*
X1028248Y1683832D01*
X1023250D01*
X1026582D02*
X1029914Y1680500D01*
X1038245D02*
Y1690497D01*
X1033247Y1685499D01*
X1039911D01*
X1170250Y1690750D02*
Y1700747D01*
X1175248D01*
X1176915Y1699081D01*
Y1695749D01*
X1175248Y1694082D01*
X1170250D01*
X1173582D02*
X1176915Y1690750D01*
X1180247Y1699081D02*
X1181913Y1700747D01*
X1185245D01*
X1186911Y1699081D01*
Y1697415D01*
X1185245Y1695749D01*
X1183579D01*
X1185245D01*
X1186911Y1694082D01*
Y1692416D01*
X1185245Y1690750D01*
X1181913D01*
X1180247Y1692416D01*
X1203532Y1741766D02*
Y1751763D01*
X1208530D01*
X1210197Y1750097D01*
Y1746765D01*
X1208530Y1745098D01*
X1203532D01*
X1206864D02*
X1210197Y1741766D01*
X1220193D02*
X1213529D01*
X1220193Y1748431D01*
Y1750097D01*
X1218527Y1751763D01*
X1215195D01*
X1213529Y1750097D01*
X1181750Y1664750D02*
Y1674747D01*
X1186748D01*
X1188415Y1673081D01*
Y1669749D01*
X1186748Y1668082D01*
X1181750D01*
X1185082D02*
X1188415Y1664750D01*
X1191747D02*
X1195079D01*
X1193413D01*
Y1674747D01*
X1191747Y1673081D01*
X1409798Y1778529D02*
Y1768532D01*
X1416463D01*
X1419795D02*
X1423127D01*
X1421461D01*
Y1778529D01*
X1419795Y1776863D01*
X744640Y1752513D02*
X742974Y1754179D01*
X739642D01*
X737976Y1752513D01*
Y1745848D01*
X739642Y1744182D01*
X742974D01*
X744640Y1745848D01*
X747973Y1744182D02*
X751305D01*
X749639D01*
Y1754179D01*
X747973Y1752513D01*
X1037260Y1710890D02*
Y1709224D01*
X1035594D01*
Y1710890D01*
X1037260D01*
X2224000Y1810000D02*
X2231000D01*
X2240000Y1794000D02*
Y1801000D01*
X2249000Y1810000D02*
X2256000D01*
X2240000Y1819000D02*
Y1826000D01*
X330000Y1889000D02*
Y1896000D01*
X314000Y1905000D02*
X321000D01*
X339000D02*
X346000D01*
X330000Y1914000D02*
Y1921000D01*
X1595531Y1887231D02*
X1593864Y1888897D01*
X1590532D01*
X1588866Y1887231D01*
Y1880566D01*
X1590532Y1878900D01*
X1593864D01*
X1595531Y1880566D01*
X1605527Y1878900D02*
X1598863D01*
X1605527Y1885565D01*
Y1887231D01*
X1603861Y1888897D01*
X1600529D01*
X1598863Y1887231D01*
X1079000Y1915497D02*
Y1908832D01*
X1082332Y1905500D01*
X1085665Y1908832D01*
Y1915497D01*
X1088997D02*
X1095661D01*
X1092329D01*
Y1905500D01*
X1098994Y1913831D02*
X1100660Y1915497D01*
X1103992D01*
X1105658Y1913831D01*
Y1912165D01*
X1103992Y1910499D01*
X1102326D01*
X1103992D01*
X1105658Y1908832D01*
Y1907166D01*
X1103992Y1905500D01*
X1100660D01*
X1098994Y1907166D01*
X1122732Y1934029D02*
Y1927364D01*
X1126064Y1924032D01*
X1129396Y1927364D01*
Y1934029D01*
X1132728D02*
X1139393D01*
X1136061D01*
Y1924032D01*
X1149390D02*
X1142725D01*
X1149390Y1930696D01*
Y1932363D01*
X1147724Y1934029D01*
X1144391D01*
X1142725Y1932363D01*
X1237382Y1918717D02*
Y1912052D01*
X1240714Y1908720D01*
X1244046Y1912052D01*
Y1918717D01*
X1247379D02*
X1254043D01*
X1250711D01*
Y1908720D01*
X1257376D02*
X1260708D01*
X1259042D01*
Y1918717D01*
X1257376Y1917051D01*
X1035510Y1931683D02*
Y1925018D01*
X1038842Y1921686D01*
X1042175Y1925018D01*
Y1931683D01*
X1045507D02*
Y1921686D01*
X1050505D01*
X1052171Y1923352D01*
Y1930017D01*
X1050505Y1931683D01*
X1045507D01*
X1062168Y1921686D02*
X1055504D01*
X1062168Y1928351D01*
Y1930017D01*
X1060502Y1931683D01*
X1057170D01*
X1055504Y1930017D01*
X1065500Y1921686D02*
X1068833D01*
X1067167D01*
Y1931683D01*
X1065500Y1930017D01*
X634608Y1911127D02*
Y1904462D01*
X637940Y1901130D01*
X641273Y1904462D01*
Y1911127D01*
X644605D02*
Y1901130D01*
X649603D01*
X651269Y1902796D01*
Y1909461D01*
X649603Y1911127D01*
X644605D01*
X654602Y1909461D02*
X656268Y1911127D01*
X659600D01*
X661266Y1909461D01*
Y1907795D01*
X659600Y1906129D01*
X661266Y1904462D01*
Y1902796D01*
X659600Y1901130D01*
X656268D01*
X654602Y1902796D01*
Y1904462D01*
X656268Y1906129D01*
X654602Y1907795D01*
Y1909461D01*
X656268Y1906129D02*
X659600D01*
X1343424Y1906191D02*
Y1899527D01*
X1346756Y1896194D01*
X1350089Y1899527D01*
Y1906191D01*
X1353421D02*
Y1896194D01*
X1358419D01*
X1360085Y1897860D01*
Y1904525D01*
X1358419Y1906191D01*
X1353421D01*
X1363418Y1896194D02*
X1366750D01*
X1365084D01*
Y1906191D01*
X1363418Y1904525D01*
X1005000Y1917326D02*
Y1927323D01*
X1009998D01*
X1011665Y1925657D01*
Y1922325D01*
X1009998Y1920659D01*
X1005000D01*
X1008332D02*
X1011665Y1917326D01*
X1014997Y1927323D02*
X1021661D01*
Y1925657D01*
X1014997Y1918992D01*
Y1917326D01*
X976238Y1917316D02*
Y1927313D01*
X981236D01*
X982903Y1925647D01*
Y1922315D01*
X981236Y1920648D01*
X976238D01*
X979570D02*
X982903Y1917316D01*
X992899Y1927313D02*
X989567Y1925647D01*
X986235Y1922315D01*
Y1918982D01*
X987901Y1917316D01*
X991233D01*
X992899Y1918982D01*
Y1920648D01*
X991233Y1922315D01*
X986235D01*
X947062Y1917418D02*
Y1927415D01*
X952060D01*
X953727Y1925749D01*
Y1922417D01*
X952060Y1920750D01*
X947062D01*
X950394D02*
X953727Y1917418D01*
X963723Y1927415D02*
X957059D01*
Y1922417D01*
X960391Y1924083D01*
X962057D01*
X963723Y1922417D01*
Y1919084D01*
X962057Y1917418D01*
X958725D01*
X957059Y1919084D01*
X1023250Y1833500D02*
Y1843497D01*
X1028248D01*
X1029914Y1841831D01*
Y1838499D01*
X1028248Y1836832D01*
X1023250D01*
X1026582D02*
X1029914Y1833500D01*
X1038245D02*
Y1843497D01*
X1033247Y1838499D01*
X1039911D01*
X1170250Y1843750D02*
Y1853747D01*
X1175248D01*
X1176915Y1852081D01*
Y1848749D01*
X1175248Y1847083D01*
X1170250D01*
X1173582D02*
X1176915Y1843750D01*
X1180247Y1852081D02*
X1181913Y1853747D01*
X1185245D01*
X1186911Y1852081D01*
Y1850415D01*
X1185245Y1848749D01*
X1183579D01*
X1185245D01*
X1186911Y1847083D01*
Y1845416D01*
X1185245Y1843750D01*
X1181913D01*
X1180247Y1845416D01*
X1203532Y1894766D02*
Y1904763D01*
X1208530D01*
X1210197Y1903097D01*
Y1899765D01*
X1208530Y1898098D01*
X1203532D01*
X1206864D02*
X1210197Y1894766D01*
X1220193D02*
X1213529D01*
X1220193Y1901431D01*
Y1903097D01*
X1218527Y1904763D01*
X1215195D01*
X1213529Y1903097D01*
X1181750Y1817750D02*
Y1827747D01*
X1186748D01*
X1188415Y1826081D01*
Y1822749D01*
X1186748Y1821082D01*
X1181750D01*
X1185082D02*
X1188415Y1817750D01*
X1191747D02*
X1195079D01*
X1193413D01*
Y1827747D01*
X1191747Y1826081D01*
X1409798Y1931529D02*
Y1921532D01*
X1416463D01*
X1419795D02*
X1423127D01*
X1421461D01*
Y1931529D01*
X1419795Y1929863D01*
X744640Y1905513D02*
X742974Y1907179D01*
X739642D01*
X737976Y1905513D01*
Y1898848D01*
X739642Y1897182D01*
X742974D01*
X744640Y1898848D01*
X747973Y1897182D02*
X751305D01*
X749639D01*
Y1907179D01*
X747973Y1905513D01*
X1037260Y1863890D02*
Y1862224D01*
X1035594D01*
Y1863890D01*
X1037260D01*
X2224000Y1963000D02*
X2231000D01*
X2240000Y1947000D02*
Y1954000D01*
X2249000Y1963000D02*
X2256000D01*
X2240000Y1972000D02*
Y1979000D01*
X330000Y2042000D02*
Y2049000D01*
X314000Y2058000D02*
X321000D01*
X339000D02*
X346000D01*
X330000Y2067000D02*
Y2074000D01*
X1595531Y2040231D02*
X1593864Y2041897D01*
X1590532D01*
X1588866Y2040231D01*
Y2033566D01*
X1590532Y2031900D01*
X1593864D01*
X1595531Y2033566D01*
X1605527Y2031900D02*
X1598863D01*
X1605527Y2038565D01*
Y2040231D01*
X1603861Y2041897D01*
X1600529D01*
X1598863Y2040231D01*
X1079000Y2068497D02*
Y2061832D01*
X1082332Y2058500D01*
X1085665Y2061832D01*
Y2068497D01*
X1088997D02*
X1095661D01*
X1092329D01*
Y2058500D01*
X1098994Y2066831D02*
X1100660Y2068497D01*
X1103992D01*
X1105658Y2066831D01*
Y2065165D01*
X1103992Y2063499D01*
X1102326D01*
X1103992D01*
X1105658Y2061832D01*
Y2060166D01*
X1103992Y2058500D01*
X1100660D01*
X1098994Y2060166D01*
X1122732Y2087029D02*
Y2080364D01*
X1126064Y2077032D01*
X1129396Y2080364D01*
Y2087029D01*
X1132728D02*
X1139393D01*
X1136061D01*
Y2077032D01*
X1149390D02*
X1142725D01*
X1149390Y2083696D01*
Y2085363D01*
X1147724Y2087029D01*
X1144391D01*
X1142725Y2085363D01*
X1237382Y2071717D02*
Y2065052D01*
X1240714Y2061720D01*
X1244046Y2065052D01*
Y2071717D01*
X1247379D02*
X1254043D01*
X1250711D01*
Y2061720D01*
X1257376D02*
X1260708D01*
X1259042D01*
Y2071717D01*
X1257376Y2070051D01*
X1035510Y2084683D02*
Y2078018D01*
X1038842Y2074686D01*
X1042175Y2078018D01*
Y2084683D01*
X1045507D02*
Y2074686D01*
X1050505D01*
X1052171Y2076352D01*
Y2083017D01*
X1050505Y2084683D01*
X1045507D01*
X1062168Y2074686D02*
X1055504D01*
X1062168Y2081351D01*
Y2083017D01*
X1060502Y2084683D01*
X1057170D01*
X1055504Y2083017D01*
X1065500Y2074686D02*
X1068833D01*
X1067167D01*
Y2084683D01*
X1065500Y2083017D01*
X634608Y2064127D02*
Y2057462D01*
X637940Y2054130D01*
X641273Y2057462D01*
Y2064127D01*
X644605D02*
Y2054130D01*
X649603D01*
X651269Y2055796D01*
Y2062461D01*
X649603Y2064127D01*
X644605D01*
X654602Y2062461D02*
X656268Y2064127D01*
X659600D01*
X661266Y2062461D01*
Y2060795D01*
X659600Y2059129D01*
X661266Y2057462D01*
Y2055796D01*
X659600Y2054130D01*
X656268D01*
X654602Y2055796D01*
Y2057462D01*
X656268Y2059129D01*
X654602Y2060795D01*
Y2062461D01*
X656268Y2059129D02*
X659600D01*
X1343424Y2059191D02*
Y2052527D01*
X1346756Y2049194D01*
X1350089Y2052527D01*
Y2059191D01*
X1353421D02*
Y2049194D01*
X1358419D01*
X1360085Y2050860D01*
Y2057525D01*
X1358419Y2059191D01*
X1353421D01*
X1363418Y2049194D02*
X1366750D01*
X1365084D01*
Y2059191D01*
X1363418Y2057525D01*
X1005000Y2070326D02*
Y2080323D01*
X1009998D01*
X1011665Y2078657D01*
Y2075325D01*
X1009998Y2073658D01*
X1005000D01*
X1008332D02*
X1011665Y2070326D01*
X1014997Y2080323D02*
X1021661D01*
Y2078657D01*
X1014997Y2071992D01*
Y2070326D01*
X976238Y2070316D02*
Y2080313D01*
X981236D01*
X982903Y2078647D01*
Y2075315D01*
X981236Y2073649D01*
X976238D01*
X979570D02*
X982903Y2070316D01*
X992899Y2080313D02*
X989567Y2078647D01*
X986235Y2075315D01*
Y2071982D01*
X987901Y2070316D01*
X991233D01*
X992899Y2071982D01*
Y2073649D01*
X991233Y2075315D01*
X986235D01*
X947062Y2070418D02*
Y2080415D01*
X952060D01*
X953727Y2078749D01*
Y2075417D01*
X952060Y2073750D01*
X947062D01*
X950394D02*
X953727Y2070418D01*
X963723Y2080415D02*
X957059D01*
Y2075417D01*
X960391Y2077083D01*
X962057D01*
X963723Y2075417D01*
Y2072084D01*
X962057Y2070418D01*
X958725D01*
X957059Y2072084D01*
X1023250Y1986500D02*
Y1996497D01*
X1028248D01*
X1029914Y1994831D01*
Y1991499D01*
X1028248Y1989832D01*
X1023250D01*
X1026582D02*
X1029914Y1986500D01*
X1038245D02*
Y1996497D01*
X1033247Y1991499D01*
X1039911D01*
X1170250Y1996750D02*
Y2006747D01*
X1175248D01*
X1176915Y2005081D01*
Y2001749D01*
X1175248Y2000083D01*
X1170250D01*
X1173582D02*
X1176915Y1996750D01*
X1180247Y2005081D02*
X1181913Y2006747D01*
X1185245D01*
X1186911Y2005081D01*
Y2003415D01*
X1185245Y2001749D01*
X1183579D01*
X1185245D01*
X1186911Y2000083D01*
Y1998416D01*
X1185245Y1996750D01*
X1181913D01*
X1180247Y1998416D01*
X1203532Y2047766D02*
Y2057763D01*
X1208530D01*
X1210197Y2056097D01*
Y2052765D01*
X1208530Y2051098D01*
X1203532D01*
X1206864D02*
X1210197Y2047766D01*
X1220193D02*
X1213529D01*
X1220193Y2054431D01*
Y2056097D01*
X1218527Y2057763D01*
X1215195D01*
X1213529Y2056097D01*
X1181750Y1970750D02*
Y1980747D01*
X1186748D01*
X1188415Y1979081D01*
Y1975749D01*
X1186748Y1974082D01*
X1181750D01*
X1185082D02*
X1188415Y1970750D01*
X1191747D02*
X1195079D01*
X1193413D01*
Y1980747D01*
X1191747Y1979081D01*
X1409798Y2084529D02*
Y2074532D01*
X1416463D01*
X1419795D02*
X1423127D01*
X1421461D01*
Y2084529D01*
X1419795Y2082863D01*
X744640Y2058513D02*
X742974Y2060179D01*
X739642D01*
X737976Y2058513D01*
Y2051848D01*
X739642Y2050182D01*
X742974D01*
X744640Y2051848D01*
X747973Y2050182D02*
X751305D01*
X749639D01*
Y2060179D01*
X747973Y2058513D01*
X1037260Y2016890D02*
Y2015224D01*
X1035594D01*
Y2016890D01*
X1037260D01*
X2224000Y2116000D02*
X2231000D01*
X2240000Y2100000D02*
Y2107000D01*
X2249000Y2116000D02*
X2256000D01*
X2240000Y2125000D02*
Y2132000D01*
X330000Y2195000D02*
Y2202000D01*
X314000Y2211000D02*
X321000D01*
X339000D02*
X346000D01*
X330000Y2220000D02*
Y2227000D01*
X1595531Y2193231D02*
X1593864Y2194897D01*
X1590532D01*
X1588866Y2193231D01*
Y2186566D01*
X1590532Y2184900D01*
X1593864D01*
X1595531Y2186566D01*
X1605527Y2184900D02*
X1598863D01*
X1605527Y2191565D01*
Y2193231D01*
X1603861Y2194897D01*
X1600529D01*
X1598863Y2193231D01*
X1079000Y2221497D02*
Y2214832D01*
X1082332Y2211500D01*
X1085665Y2214832D01*
Y2221497D01*
X1088997D02*
X1095661D01*
X1092329D01*
Y2211500D01*
X1098994Y2219831D02*
X1100660Y2221497D01*
X1103992D01*
X1105658Y2219831D01*
Y2218165D01*
X1103992Y2216499D01*
X1102326D01*
X1103992D01*
X1105658Y2214832D01*
Y2213166D01*
X1103992Y2211500D01*
X1100660D01*
X1098994Y2213166D01*
X1122732Y2240029D02*
Y2233364D01*
X1126064Y2230032D01*
X1129396Y2233364D01*
Y2240029D01*
X1132728D02*
X1139393D01*
X1136061D01*
Y2230032D01*
X1149390D02*
X1142725D01*
X1149390Y2236696D01*
Y2238363D01*
X1147724Y2240029D01*
X1144391D01*
X1142725Y2238363D01*
X1237382Y2224717D02*
Y2218053D01*
X1240714Y2214720D01*
X1244046Y2218053D01*
Y2224717D01*
X1247379D02*
X1254043D01*
X1250711D01*
Y2214720D01*
X1257376D02*
X1260708D01*
X1259042D01*
Y2224717D01*
X1257376Y2223051D01*
X1035510Y2237683D02*
Y2231019D01*
X1038842Y2227686D01*
X1042175Y2231019D01*
Y2237683D01*
X1045507D02*
Y2227686D01*
X1050505D01*
X1052171Y2229352D01*
Y2236017D01*
X1050505Y2237683D01*
X1045507D01*
X1062168Y2227686D02*
X1055504D01*
X1062168Y2234351D01*
Y2236017D01*
X1060502Y2237683D01*
X1057170D01*
X1055504Y2236017D01*
X1065500Y2227686D02*
X1068833D01*
X1067167D01*
Y2237683D01*
X1065500Y2236017D01*
X634608Y2217127D02*
Y2210462D01*
X637940Y2207130D01*
X641273Y2210462D01*
Y2217127D01*
X644605D02*
Y2207130D01*
X649603D01*
X651269Y2208796D01*
Y2215461D01*
X649603Y2217127D01*
X644605D01*
X654602Y2215461D02*
X656268Y2217127D01*
X659600D01*
X661266Y2215461D01*
Y2213795D01*
X659600Y2212129D01*
X661266Y2210462D01*
Y2208796D01*
X659600Y2207130D01*
X656268D01*
X654602Y2208796D01*
Y2210462D01*
X656268Y2212129D01*
X654602Y2213795D01*
Y2215461D01*
X656268Y2212129D02*
X659600D01*
X1343424Y2212191D02*
Y2205526D01*
X1346756Y2202194D01*
X1350089Y2205526D01*
Y2212191D01*
X1353421D02*
Y2202194D01*
X1358419D01*
X1360085Y2203860D01*
Y2210525D01*
X1358419Y2212191D01*
X1353421D01*
X1363418Y2202194D02*
X1366750D01*
X1365084D01*
Y2212191D01*
X1363418Y2210525D01*
X1005000Y2223326D02*
Y2233323D01*
X1009998D01*
X1011665Y2231657D01*
Y2228325D01*
X1009998Y2226658D01*
X1005000D01*
X1008332D02*
X1011665Y2223326D01*
X1014997Y2233323D02*
X1021661D01*
Y2231657D01*
X1014997Y2224992D01*
Y2223326D01*
X976238Y2223316D02*
Y2233313D01*
X981236D01*
X982903Y2231647D01*
Y2228315D01*
X981236Y2226649D01*
X976238D01*
X979570D02*
X982903Y2223316D01*
X992899Y2233313D02*
X989567Y2231647D01*
X986235Y2228315D01*
Y2224982D01*
X987901Y2223316D01*
X991233D01*
X992899Y2224982D01*
Y2226649D01*
X991233Y2228315D01*
X986235D01*
X947062Y2223418D02*
Y2233415D01*
X952060D01*
X953727Y2231749D01*
Y2228417D01*
X952060Y2226750D01*
X947062D01*
X950394D02*
X953727Y2223418D01*
X963723Y2233415D02*
X957059D01*
Y2228417D01*
X960391Y2230083D01*
X962057D01*
X963723Y2228417D01*
Y2225084D01*
X962057Y2223418D01*
X958725D01*
X957059Y2225084D01*
X1023250Y2139500D02*
Y2149497D01*
X1028248D01*
X1029914Y2147831D01*
Y2144499D01*
X1028248Y2142832D01*
X1023250D01*
X1026582D02*
X1029914Y2139500D01*
X1038245D02*
Y2149497D01*
X1033247Y2144499D01*
X1039911D01*
X1170250Y2149750D02*
Y2159747D01*
X1175248D01*
X1176915Y2158081D01*
Y2154749D01*
X1175248Y2153082D01*
X1170250D01*
X1173582D02*
X1176915Y2149750D01*
X1180247Y2158081D02*
X1181913Y2159747D01*
X1185245D01*
X1186911Y2158081D01*
Y2156415D01*
X1185245Y2154749D01*
X1183579D01*
X1185245D01*
X1186911Y2153082D01*
Y2151416D01*
X1185245Y2149750D01*
X1181913D01*
X1180247Y2151416D01*
X1203532Y2200766D02*
Y2210763D01*
X1208530D01*
X1210197Y2209097D01*
Y2205765D01*
X1208530Y2204099D01*
X1203532D01*
X1206864D02*
X1210197Y2200766D01*
X1220193D02*
X1213529D01*
X1220193Y2207431D01*
Y2209097D01*
X1218527Y2210763D01*
X1215195D01*
X1213529Y2209097D01*
X1181750Y2123750D02*
Y2133747D01*
X1186748D01*
X1188415Y2132081D01*
Y2128749D01*
X1186748Y2127083D01*
X1181750D01*
X1185082D02*
X1188415Y2123750D01*
X1191747D02*
X1195079D01*
X1193413D01*
Y2133747D01*
X1191747Y2132081D01*
X1409798Y2237529D02*
Y2227532D01*
X1416463D01*
X1419795D02*
X1423127D01*
X1421461D01*
Y2237529D01*
X1419795Y2235863D01*
X744640Y2211513D02*
X742974Y2213179D01*
X739642D01*
X737976Y2211513D01*
Y2204848D01*
X739642Y2203182D01*
X742974D01*
X744640Y2204848D01*
X747973Y2203182D02*
X751305D01*
X749639D01*
Y2213179D01*
X747973Y2211513D01*
X1037260Y2169890D02*
Y2168224D01*
X1035594D01*
Y2169890D01*
X1037260D01*
X2224000Y2269000D02*
X2231000D01*
X2240000Y2253000D02*
Y2260000D01*
X2249000Y2269000D02*
X2256000D01*
X2240000Y2278000D02*
Y2285000D01*
X330000Y2348000D02*
Y2355000D01*
X314000Y2364000D02*
X321000D01*
X339000D02*
X346000D01*
X330000Y2373000D02*
Y2380000D01*
X1595531Y2346231D02*
X1593864Y2347897D01*
X1590532D01*
X1588866Y2346231D01*
Y2339566D01*
X1590532Y2337900D01*
X1593864D01*
X1595531Y2339566D01*
X1605527Y2337900D02*
X1598863D01*
X1605527Y2344565D01*
Y2346231D01*
X1603861Y2347897D01*
X1600529D01*
X1598863Y2346231D01*
X1079000Y2374497D02*
Y2367832D01*
X1082332Y2364500D01*
X1085665Y2367832D01*
Y2374497D01*
X1088997D02*
X1095661D01*
X1092329D01*
Y2364500D01*
X1098994Y2372831D02*
X1100660Y2374497D01*
X1103992D01*
X1105658Y2372831D01*
Y2371165D01*
X1103992Y2369499D01*
X1102326D01*
X1103992D01*
X1105658Y2367832D01*
Y2366166D01*
X1103992Y2364500D01*
X1100660D01*
X1098994Y2366166D01*
X1122732Y2393029D02*
Y2386364D01*
X1126064Y2383032D01*
X1129396Y2386364D01*
Y2393029D01*
X1132728D02*
X1139393D01*
X1136061D01*
Y2383032D01*
X1149390D02*
X1142725D01*
X1149390Y2389696D01*
Y2391363D01*
X1147724Y2393029D01*
X1144391D01*
X1142725Y2391363D01*
X1237382Y2377717D02*
Y2371053D01*
X1240714Y2367720D01*
X1244046Y2371053D01*
Y2377717D01*
X1247379D02*
X1254043D01*
X1250711D01*
Y2367720D01*
X1257376D02*
X1260708D01*
X1259042D01*
Y2377717D01*
X1257376Y2376051D01*
X1035510Y2390683D02*
Y2384019D01*
X1038842Y2380686D01*
X1042175Y2384019D01*
Y2390683D01*
X1045507D02*
Y2380686D01*
X1050505D01*
X1052171Y2382352D01*
Y2389017D01*
X1050505Y2390683D01*
X1045507D01*
X1062168Y2380686D02*
X1055504D01*
X1062168Y2387351D01*
Y2389017D01*
X1060502Y2390683D01*
X1057170D01*
X1055504Y2389017D01*
X1065500Y2380686D02*
X1068833D01*
X1067167D01*
Y2390683D01*
X1065500Y2389017D01*
X634608Y2370127D02*
Y2363463D01*
X637940Y2360130D01*
X641273Y2363463D01*
Y2370127D01*
X644605D02*
Y2360130D01*
X649603D01*
X651269Y2361796D01*
Y2368461D01*
X649603Y2370127D01*
X644605D01*
X654602Y2368461D02*
X656268Y2370127D01*
X659600D01*
X661266Y2368461D01*
Y2366795D01*
X659600Y2365129D01*
X661266Y2363463D01*
Y2361796D01*
X659600Y2360130D01*
X656268D01*
X654602Y2361796D01*
Y2363463D01*
X656268Y2365129D01*
X654602Y2366795D01*
Y2368461D01*
X656268Y2365129D02*
X659600D01*
X1343424Y2365191D02*
Y2358526D01*
X1346756Y2355194D01*
X1350089Y2358526D01*
Y2365191D01*
X1353421D02*
Y2355194D01*
X1358419D01*
X1360085Y2356860D01*
Y2363525D01*
X1358419Y2365191D01*
X1353421D01*
X1363418Y2355194D02*
X1366750D01*
X1365084D01*
Y2365191D01*
X1363418Y2363525D01*
X1005000Y2376326D02*
Y2386323D01*
X1009998D01*
X1011665Y2384657D01*
Y2381325D01*
X1009998Y2379659D01*
X1005000D01*
X1008332D02*
X1011665Y2376326D01*
X1014997Y2386323D02*
X1021661D01*
Y2384657D01*
X1014997Y2377992D01*
Y2376326D01*
X976238Y2376316D02*
Y2386313D01*
X981236D01*
X982903Y2384647D01*
Y2381315D01*
X981236Y2379648D01*
X976238D01*
X979570D02*
X982903Y2376316D01*
X992899Y2386313D02*
X989567Y2384647D01*
X986235Y2381315D01*
Y2377982D01*
X987901Y2376316D01*
X991233D01*
X992899Y2377982D01*
Y2379648D01*
X991233Y2381315D01*
X986235D01*
X947062Y2376418D02*
Y2386415D01*
X952060D01*
X953727Y2384749D01*
Y2381417D01*
X952060Y2379751D01*
X947062D01*
X950394D02*
X953727Y2376418D01*
X963723Y2386415D02*
X957059D01*
Y2381417D01*
X960391Y2383083D01*
X962057D01*
X963723Y2381417D01*
Y2378084D01*
X962057Y2376418D01*
X958725D01*
X957059Y2378084D01*
X1023250Y2292500D02*
Y2302497D01*
X1028248D01*
X1029914Y2300831D01*
Y2297499D01*
X1028248Y2295833D01*
X1023250D01*
X1026582D02*
X1029914Y2292500D01*
X1038245D02*
Y2302497D01*
X1033247Y2297499D01*
X1039911D01*
X1170250Y2302750D02*
Y2312747D01*
X1175248D01*
X1176915Y2311081D01*
Y2307749D01*
X1175248Y2306082D01*
X1170250D01*
X1173582D02*
X1176915Y2302750D01*
X1180247Y2311081D02*
X1181913Y2312747D01*
X1185245D01*
X1186911Y2311081D01*
Y2309415D01*
X1185245Y2307749D01*
X1183579D01*
X1185245D01*
X1186911Y2306082D01*
Y2304416D01*
X1185245Y2302750D01*
X1181913D01*
X1180247Y2304416D01*
X1203532Y2353766D02*
Y2363763D01*
X1208530D01*
X1210197Y2362097D01*
Y2358765D01*
X1208530Y2357099D01*
X1203532D01*
X1206864D02*
X1210197Y2353766D01*
X1220193D02*
X1213529D01*
X1220193Y2360431D01*
Y2362097D01*
X1218527Y2363763D01*
X1215195D01*
X1213529Y2362097D01*
X1181750Y2276750D02*
Y2286747D01*
X1186748D01*
X1188415Y2285081D01*
Y2281749D01*
X1186748Y2280083D01*
X1181750D01*
X1185082D02*
X1188415Y2276750D01*
X1191747D02*
X1195079D01*
X1193413D01*
Y2286747D01*
X1191747Y2285081D01*
X1409798Y2390529D02*
Y2380532D01*
X1416463D01*
X1419795D02*
X1423127D01*
X1421461D01*
Y2390529D01*
X1419795Y2388863D01*
X744640Y2364513D02*
X742974Y2366179D01*
X739642D01*
X737976Y2364513D01*
Y2357848D01*
X739642Y2356182D01*
X742974D01*
X744640Y2357848D01*
X747973Y2356182D02*
X751305D01*
X749639D01*
Y2366179D01*
X747973Y2364513D01*
X1037260Y2322890D02*
Y2321224D01*
X1035594D01*
Y2322890D01*
X1037260D01*
D33*
X1052499Y354500D02*
D03*
Y507500D02*
D03*
Y660499D02*
D03*
Y813500D02*
D03*
Y966500D02*
D03*
Y1119500D02*
D03*
Y1272500D02*
D03*
Y1425500D02*
D03*
Y1578500D02*
D03*
Y1731500D02*
D03*
Y1884500D02*
D03*
Y2037500D02*
D03*
Y2190500D02*
D03*
Y2343500D02*
D03*
M02*
