M48
;Layer_Color=9474304
;FILE_FORMAT=4:4
METRIC,LZ
;TYPE=PLATED
T1F00S00C0.3000
%
T01
X009805Y0031075
X0098075Y0032275
X0098925Y00317
X015925Y002775
X016
X016075
X022205Y0033625
X022285Y0033225
Y0034075
Y0048525
Y0049375
X022205Y0048925
Y0064225
X022285Y0063825
Y0064675
Y0079125
X016075Y007365
X016
X015925
Y005835
X016
X016075
Y004305
X016
X015925
X0098925Y0047
X0098075Y0047575
X009805Y0046375
Y0061675
X0098075Y0062875
X0098925Y00623
Y00776
X0098075Y0078175
X009805Y0076975
Y0092275
X0098075Y0093475
X0098925Y00929
Y01082
X0098075Y0108775
X009805Y0107575
X015925Y010425
X016
X016075
Y008895
X016
X015925
X022205Y0094825
X022285Y0094425
Y0095275
Y0109725
Y0110575
X022205Y0110125
Y0079525
X022285Y0079975
Y0125025
Y0125875
X022205Y0125425
Y0140725
X022285Y0140325
Y0141175
Y0155625
Y0156475
X022205Y0156025
X016075Y015015
X016
X015925
Y013485
X016
X016075
Y011955
X016
X015925
X0098925Y01235
X0098075Y0124075
X009805Y0122875
Y0138175
X0098075Y0139375
X0098925Y01388
Y01541
X0098075Y0154675
X009805Y0153475
Y0168775
X0098075Y0169975
X0098925Y01694
Y01847
X0098075Y0185275
X009805Y0184075
X015925Y018075
X016
X016075
Y016545
X016
X015925
Y019605
X016
X016075
X022205Y0186625
X022285Y0186225
Y0187075
Y0171775
Y0170925
X022205Y0171325
Y0201925
X022285Y0201525
Y0202375
Y0216825
Y0217675
X022205Y0217225
Y0232525
X022285Y0232125
Y0232975
X016075Y022665
X016
X015925
Y021135
X016
X016075
X0098925Y02153
X0098075Y0215875
X009805Y0214675
X0098075Y0200575
X009805Y0199375
X0098925Y02
Y02306
X0098075Y0231175
X009805Y0229975
M30
