G04 Layer_Color=8421504*
%FSLAX44Y44*%
%MOMM*%
G71*
G01*
G75*
%ADD10C,2.0000*%
%ADD11C,1.0000*%
%ADD13R,2.0000X1.5000*%
%ADD14R,1.0000X1.4000*%
%ADD15R,1.4000X1.0000*%
%ADD16R,2.0000X4.0000*%
%ADD17R,2.3000X1.2000*%
%ADD18R,1.8500X1.9500*%
%ADD19R,1.8500X1.8500*%
%ADD20R,1.8500X1.8500*%
D10*
X25000Y1975000D02*
D03*
Y2025000D02*
D03*
X2025000Y45000D02*
D03*
X25000Y50000D02*
D03*
X2025000Y2000000D02*
D03*
Y2050000D02*
D03*
D11*
X1006500Y74000D02*
D03*
X1980000Y20000D02*
D03*
Y135000D02*
D03*
X70000Y115000D02*
D03*
Y20000D02*
D03*
X1006500Y227000D02*
D03*
X1980000Y173000D02*
D03*
Y288000D02*
D03*
X70000Y268000D02*
D03*
Y173000D02*
D03*
X1006500Y380000D02*
D03*
X1980000Y326000D02*
D03*
Y441000D02*
D03*
X70000Y421000D02*
D03*
Y326000D02*
D03*
X1006500Y533000D02*
D03*
X1980000Y479000D02*
D03*
Y594000D02*
D03*
X70000Y574000D02*
D03*
Y479000D02*
D03*
X1006500Y686000D02*
D03*
X1980000Y632000D02*
D03*
Y747000D02*
D03*
X70000Y727000D02*
D03*
Y632000D02*
D03*
X1006500Y839000D02*
D03*
X1980000Y785000D02*
D03*
Y900000D02*
D03*
X70000Y880000D02*
D03*
Y785000D02*
D03*
X1006500Y992000D02*
D03*
X1980000Y938000D02*
D03*
Y1053000D02*
D03*
X70000Y1033000D02*
D03*
Y938000D02*
D03*
X1006500Y1145000D02*
D03*
X1980000Y1091000D02*
D03*
Y1206000D02*
D03*
X70000Y1186000D02*
D03*
Y1091000D02*
D03*
X1006500Y1298000D02*
D03*
X1980000Y1244000D02*
D03*
Y1359000D02*
D03*
X70000Y1339000D02*
D03*
Y1244000D02*
D03*
X1006500Y1451000D02*
D03*
X1980000Y1397000D02*
D03*
Y1512000D02*
D03*
X70000Y1492000D02*
D03*
Y1397000D02*
D03*
X1006500Y1604000D02*
D03*
X1980000Y1550000D02*
D03*
Y1665000D02*
D03*
X70000Y1645000D02*
D03*
Y1550000D02*
D03*
X1006500Y1757000D02*
D03*
X1980000Y1703000D02*
D03*
Y1818000D02*
D03*
X70000Y1798000D02*
D03*
Y1703000D02*
D03*
X1006500Y1910000D02*
D03*
X1980000Y1856000D02*
D03*
Y1971000D02*
D03*
X70000Y1951000D02*
D03*
Y1856000D02*
D03*
X1006500Y2063000D02*
D03*
X1980000Y2009000D02*
D03*
Y2124000D02*
D03*
X70000Y2104000D02*
D03*
Y2009000D02*
D03*
D13*
X595000Y102500D02*
D03*
Y127500D02*
D03*
X665000Y102500D02*
D03*
Y127500D02*
D03*
X595000Y255500D02*
D03*
Y280500D02*
D03*
X665000Y255500D02*
D03*
Y280500D02*
D03*
X595000Y408500D02*
D03*
Y433500D02*
D03*
X665000Y408500D02*
D03*
Y433500D02*
D03*
X595000Y561500D02*
D03*
Y586500D02*
D03*
X665000Y561500D02*
D03*
Y586500D02*
D03*
X595000Y714500D02*
D03*
Y739500D02*
D03*
X665000Y714500D02*
D03*
Y739500D02*
D03*
X595000Y867500D02*
D03*
Y892500D02*
D03*
X665000Y867500D02*
D03*
Y892500D02*
D03*
X595000Y1020500D02*
D03*
Y1045500D02*
D03*
X665000Y1020500D02*
D03*
Y1045500D02*
D03*
X595000Y1173500D02*
D03*
Y1198500D02*
D03*
X665000Y1173500D02*
D03*
Y1198500D02*
D03*
X595000Y1326500D02*
D03*
Y1351500D02*
D03*
X665000Y1326500D02*
D03*
Y1351500D02*
D03*
X595000Y1479500D02*
D03*
Y1504500D02*
D03*
X665000Y1479500D02*
D03*
Y1504500D02*
D03*
X595000Y1632500D02*
D03*
Y1657500D02*
D03*
X665000Y1632500D02*
D03*
Y1657500D02*
D03*
X595000Y1785500D02*
D03*
Y1810500D02*
D03*
X665000Y1785500D02*
D03*
Y1810500D02*
D03*
X595000Y1938500D02*
D03*
Y1963500D02*
D03*
X665000Y1938500D02*
D03*
Y1963500D02*
D03*
X595000Y2091500D02*
D03*
Y2116500D02*
D03*
X665000Y2091500D02*
D03*
Y2116500D02*
D03*
D14*
X1498250Y84500D02*
D03*
X1517250D02*
D03*
X1507750Y110000D02*
D03*
X1498250Y237500D02*
D03*
X1517250D02*
D03*
X1507750Y263000D02*
D03*
X1498250Y390500D02*
D03*
X1517250D02*
D03*
X1507750Y416000D02*
D03*
X1498250Y543500D02*
D03*
X1517250D02*
D03*
X1507750Y569000D02*
D03*
X1498250Y696500D02*
D03*
X1517250D02*
D03*
X1507750Y722000D02*
D03*
X1498250Y849500D02*
D03*
X1517250D02*
D03*
X1507750Y875000D02*
D03*
X1498250Y1002500D02*
D03*
X1517250D02*
D03*
X1507750Y1028000D02*
D03*
X1498250Y1155500D02*
D03*
X1517250D02*
D03*
X1507750Y1181000D02*
D03*
X1498250Y1308500D02*
D03*
X1517250D02*
D03*
X1507750Y1334000D02*
D03*
X1498250Y1461500D02*
D03*
X1517250D02*
D03*
X1507750Y1487000D02*
D03*
X1498250Y1614500D02*
D03*
X1517250D02*
D03*
X1507750Y1640000D02*
D03*
X1498250Y1767500D02*
D03*
X1517250D02*
D03*
X1507750Y1793000D02*
D03*
X1498250Y1920500D02*
D03*
X1517250D02*
D03*
X1507750Y1946000D02*
D03*
X1498250Y2073500D02*
D03*
X1517250D02*
D03*
X1507750Y2099000D02*
D03*
D15*
X1428000Y58250D02*
D03*
Y39250D02*
D03*
X1453500Y48750D02*
D03*
X913750Y59750D02*
D03*
Y40750D02*
D03*
X939250Y50250D02*
D03*
X1428000Y211250D02*
D03*
Y192250D02*
D03*
X1453500Y201750D02*
D03*
X913750Y212750D02*
D03*
Y193750D02*
D03*
X939250Y203250D02*
D03*
X1428000Y364250D02*
D03*
Y345250D02*
D03*
X1453500Y354750D02*
D03*
X913750Y365750D02*
D03*
Y346750D02*
D03*
X939250Y356250D02*
D03*
X1428000Y517250D02*
D03*
Y498250D02*
D03*
X1453500Y507750D02*
D03*
X913750Y518750D02*
D03*
Y499750D02*
D03*
X939250Y509250D02*
D03*
X1428000Y670250D02*
D03*
Y651250D02*
D03*
X1453500Y660750D02*
D03*
X913750Y671750D02*
D03*
Y652750D02*
D03*
X939250Y662250D02*
D03*
X1428000Y823250D02*
D03*
Y804250D02*
D03*
X1453500Y813750D02*
D03*
X913750Y824750D02*
D03*
Y805750D02*
D03*
X939250Y815250D02*
D03*
X1428000Y976250D02*
D03*
Y957250D02*
D03*
X1453500Y966750D02*
D03*
X913750Y977750D02*
D03*
Y958750D02*
D03*
X939250Y968250D02*
D03*
X1428000Y1129250D02*
D03*
Y1110250D02*
D03*
X1453500Y1119750D02*
D03*
X913750Y1130750D02*
D03*
Y1111750D02*
D03*
X939250Y1121250D02*
D03*
X1428000Y1282250D02*
D03*
Y1263250D02*
D03*
X1453500Y1272750D02*
D03*
X913750Y1283750D02*
D03*
Y1264750D02*
D03*
X939250Y1274250D02*
D03*
X1428000Y1435250D02*
D03*
Y1416250D02*
D03*
X1453500Y1425750D02*
D03*
X913750Y1436750D02*
D03*
Y1417750D02*
D03*
X939250Y1427250D02*
D03*
X1428000Y1588250D02*
D03*
Y1569250D02*
D03*
X1453500Y1578750D02*
D03*
X913750Y1589750D02*
D03*
Y1570750D02*
D03*
X939250Y1580250D02*
D03*
X1428000Y1741250D02*
D03*
Y1722250D02*
D03*
X1453500Y1731750D02*
D03*
X913750Y1742750D02*
D03*
Y1723750D02*
D03*
X939250Y1733250D02*
D03*
X1428000Y1894250D02*
D03*
Y1875250D02*
D03*
X1453500Y1884750D02*
D03*
X913750Y1895750D02*
D03*
Y1876750D02*
D03*
X939250Y1886250D02*
D03*
X1428000Y2047250D02*
D03*
Y2028250D02*
D03*
X1453500Y2037750D02*
D03*
X913750Y2048750D02*
D03*
Y2029750D02*
D03*
X939250Y2039250D02*
D03*
D16*
X1646000Y85000D02*
D03*
X1290000Y60000D02*
D03*
X775000D02*
D03*
X1646000Y238000D02*
D03*
X1290000Y213000D02*
D03*
X775000D02*
D03*
X1646000Y391000D02*
D03*
X1290000Y366000D02*
D03*
X775000D02*
D03*
X1646000Y544000D02*
D03*
X1290000Y519000D02*
D03*
X775000D02*
D03*
X1646000Y697000D02*
D03*
X1290000Y672000D02*
D03*
X775000D02*
D03*
X1646000Y850000D02*
D03*
X1290000Y825000D02*
D03*
X775000D02*
D03*
X1646000Y1003000D02*
D03*
X1290000Y978000D02*
D03*
X775000D02*
D03*
X1646000Y1156000D02*
D03*
X1290000Y1131000D02*
D03*
X775000D02*
D03*
X1646000Y1309000D02*
D03*
X1290000Y1284000D02*
D03*
X775000D02*
D03*
X1646000Y1462000D02*
D03*
X1290000Y1437000D02*
D03*
X775000D02*
D03*
X1646000Y1615000D02*
D03*
X1290000Y1590000D02*
D03*
X775000D02*
D03*
X1646000Y1768000D02*
D03*
X1290000Y1743000D02*
D03*
X775000D02*
D03*
X1646000Y1921000D02*
D03*
X1290000Y1896000D02*
D03*
X775000D02*
D03*
X1646000Y2074000D02*
D03*
X1290000Y2049000D02*
D03*
X775000D02*
D03*
D17*
X1583500Y62500D02*
D03*
Y85000D02*
D03*
Y107500D02*
D03*
X1352500Y82500D02*
D03*
Y60000D02*
D03*
Y37500D02*
D03*
X837500Y82500D02*
D03*
Y60000D02*
D03*
Y37500D02*
D03*
X1583500Y215500D02*
D03*
Y238000D02*
D03*
Y260500D02*
D03*
X1352500Y235500D02*
D03*
Y213000D02*
D03*
Y190500D02*
D03*
X837500Y235500D02*
D03*
Y213000D02*
D03*
Y190500D02*
D03*
X1583500Y368500D02*
D03*
Y391000D02*
D03*
Y413500D02*
D03*
X1352500Y388500D02*
D03*
Y366000D02*
D03*
Y343500D02*
D03*
X837500Y388500D02*
D03*
Y366000D02*
D03*
Y343500D02*
D03*
X1583500Y521500D02*
D03*
Y544000D02*
D03*
Y566500D02*
D03*
X1352500Y541500D02*
D03*
Y519000D02*
D03*
Y496500D02*
D03*
X837500Y541500D02*
D03*
Y519000D02*
D03*
Y496500D02*
D03*
X1583500Y674500D02*
D03*
Y697000D02*
D03*
Y719500D02*
D03*
X1352500Y694500D02*
D03*
Y672000D02*
D03*
Y649500D02*
D03*
X837500Y694500D02*
D03*
Y672000D02*
D03*
Y649500D02*
D03*
X1583500Y827500D02*
D03*
Y850000D02*
D03*
Y872500D02*
D03*
X1352500Y847500D02*
D03*
Y825000D02*
D03*
Y802500D02*
D03*
X837500Y847500D02*
D03*
Y825000D02*
D03*
Y802500D02*
D03*
X1583500Y980500D02*
D03*
Y1003000D02*
D03*
Y1025500D02*
D03*
X1352500Y1000500D02*
D03*
Y978000D02*
D03*
Y955500D02*
D03*
X837500Y1000500D02*
D03*
Y978000D02*
D03*
Y955500D02*
D03*
X1583500Y1133500D02*
D03*
Y1156000D02*
D03*
Y1178500D02*
D03*
X1352500Y1153500D02*
D03*
Y1131000D02*
D03*
Y1108500D02*
D03*
X837500Y1153500D02*
D03*
Y1131000D02*
D03*
Y1108500D02*
D03*
X1583500Y1286500D02*
D03*
Y1309000D02*
D03*
Y1331500D02*
D03*
X1352500Y1306500D02*
D03*
Y1284000D02*
D03*
Y1261500D02*
D03*
X837500Y1306500D02*
D03*
Y1284000D02*
D03*
Y1261500D02*
D03*
X1583500Y1439500D02*
D03*
Y1462000D02*
D03*
Y1484500D02*
D03*
X1352500Y1459500D02*
D03*
Y1437000D02*
D03*
Y1414500D02*
D03*
X837500Y1459500D02*
D03*
Y1437000D02*
D03*
Y1414500D02*
D03*
X1583500Y1592500D02*
D03*
Y1615000D02*
D03*
Y1637500D02*
D03*
X1352500Y1612500D02*
D03*
Y1590000D02*
D03*
Y1567500D02*
D03*
X837500Y1612500D02*
D03*
Y1590000D02*
D03*
Y1567500D02*
D03*
X1583500Y1745500D02*
D03*
Y1768000D02*
D03*
Y1790500D02*
D03*
X1352500Y1765500D02*
D03*
Y1743000D02*
D03*
Y1720500D02*
D03*
X837500Y1765500D02*
D03*
Y1743000D02*
D03*
Y1720500D02*
D03*
X1583500Y1898500D02*
D03*
Y1921000D02*
D03*
Y1943500D02*
D03*
X1352500Y1918500D02*
D03*
Y1896000D02*
D03*
Y1873500D02*
D03*
X837500Y1918500D02*
D03*
Y1896000D02*
D03*
Y1873500D02*
D03*
X1583500Y2051500D02*
D03*
Y2074000D02*
D03*
Y2096500D02*
D03*
X1352500Y2071500D02*
D03*
Y2049000D02*
D03*
Y2026500D02*
D03*
X837500Y2071500D02*
D03*
Y2049000D02*
D03*
Y2026500D02*
D03*
D18*
X775000Y130000D02*
D03*
X745000D02*
D03*
X775000Y283000D02*
D03*
X745000D02*
D03*
X775000Y436000D02*
D03*
X745000D02*
D03*
X775000Y589000D02*
D03*
X745000D02*
D03*
X775000Y742000D02*
D03*
X745000D02*
D03*
X775000Y895000D02*
D03*
X745000D02*
D03*
X775000Y1048000D02*
D03*
X745000D02*
D03*
X775000Y1201000D02*
D03*
X745000D02*
D03*
X775000Y1354000D02*
D03*
X745000D02*
D03*
X775000Y1507000D02*
D03*
X745000D02*
D03*
X775000Y1660000D02*
D03*
X745000D02*
D03*
X775000Y1813000D02*
D03*
X745000D02*
D03*
X775000Y1966000D02*
D03*
X745000D02*
D03*
X775000Y2119000D02*
D03*
X745000D02*
D03*
D19*
X1545000Y114500D02*
D03*
Y83500D02*
D03*
X1388000Y64000D02*
D03*
Y33000D02*
D03*
X874500Y64250D02*
D03*
Y33250D02*
D03*
X1545000Y267500D02*
D03*
Y236500D02*
D03*
X1388000Y217000D02*
D03*
Y186000D02*
D03*
X874500Y217250D02*
D03*
Y186250D02*
D03*
X1545000Y420500D02*
D03*
Y389500D02*
D03*
X1388000Y370000D02*
D03*
Y339000D02*
D03*
X874500Y370250D02*
D03*
Y339250D02*
D03*
X1545000Y573500D02*
D03*
Y542500D02*
D03*
X1388000Y523000D02*
D03*
Y492000D02*
D03*
X874500Y523250D02*
D03*
Y492250D02*
D03*
X1545000Y726500D02*
D03*
Y695500D02*
D03*
X1388000Y676000D02*
D03*
Y645000D02*
D03*
X874500Y676250D02*
D03*
Y645250D02*
D03*
X1545000Y879500D02*
D03*
Y848500D02*
D03*
X1388000Y829000D02*
D03*
Y798000D02*
D03*
X874500Y829250D02*
D03*
Y798250D02*
D03*
X1545000Y1032500D02*
D03*
Y1001500D02*
D03*
X1388000Y982000D02*
D03*
Y951000D02*
D03*
X874500Y982250D02*
D03*
Y951250D02*
D03*
X1545000Y1185500D02*
D03*
Y1154500D02*
D03*
X1388000Y1135000D02*
D03*
Y1104000D02*
D03*
X874500Y1135250D02*
D03*
Y1104250D02*
D03*
X1545000Y1338500D02*
D03*
Y1307500D02*
D03*
X1388000Y1288000D02*
D03*
Y1257000D02*
D03*
X874500Y1288250D02*
D03*
Y1257250D02*
D03*
X1545000Y1491500D02*
D03*
Y1460500D02*
D03*
X1388000Y1441000D02*
D03*
Y1410000D02*
D03*
X874500Y1441250D02*
D03*
Y1410250D02*
D03*
X1545000Y1644500D02*
D03*
Y1613500D02*
D03*
X1388000Y1594000D02*
D03*
Y1563000D02*
D03*
X874500Y1594250D02*
D03*
Y1563250D02*
D03*
X1545000Y1797500D02*
D03*
Y1766500D02*
D03*
X1388000Y1747000D02*
D03*
Y1716000D02*
D03*
X874500Y1747250D02*
D03*
Y1716250D02*
D03*
X1545000Y1950500D02*
D03*
Y1919500D02*
D03*
X1388000Y1900000D02*
D03*
Y1869000D02*
D03*
X874500Y1900250D02*
D03*
Y1869250D02*
D03*
X1545000Y2103500D02*
D03*
Y2072500D02*
D03*
X1388000Y2053000D02*
D03*
Y2022000D02*
D03*
X874500Y2053250D02*
D03*
Y2022250D02*
D03*
D20*
X1517107Y55259D02*
D03*
X1548107D02*
D03*
X699500Y80000D02*
D03*
X730500D02*
D03*
X1430000Y96250D02*
D03*
X1399000D02*
D03*
X897000Y95250D02*
D03*
X866000D02*
D03*
X1517107Y208259D02*
D03*
X1548107D02*
D03*
X699500Y233000D02*
D03*
X730500D02*
D03*
X1430000Y249250D02*
D03*
X1399000D02*
D03*
X897000Y248250D02*
D03*
X866000D02*
D03*
X1517107Y361259D02*
D03*
X1548107D02*
D03*
X699500Y386000D02*
D03*
X730500D02*
D03*
X1430000Y402250D02*
D03*
X1399000D02*
D03*
X897000Y401250D02*
D03*
X866000D02*
D03*
X1517107Y514259D02*
D03*
X1548107D02*
D03*
X699500Y539000D02*
D03*
X730500D02*
D03*
X1430000Y555250D02*
D03*
X1399000D02*
D03*
X897000Y554250D02*
D03*
X866000D02*
D03*
X1517107Y667259D02*
D03*
X1548107D02*
D03*
X699500Y692000D02*
D03*
X730500D02*
D03*
X1430000Y708250D02*
D03*
X1399000D02*
D03*
X897000Y707250D02*
D03*
X866000D02*
D03*
X1517107Y820259D02*
D03*
X1548107D02*
D03*
X699500Y845000D02*
D03*
X730500D02*
D03*
X1430000Y861250D02*
D03*
X1399000D02*
D03*
X897000Y860250D02*
D03*
X866000D02*
D03*
X1517107Y973259D02*
D03*
X1548107D02*
D03*
X699500Y998000D02*
D03*
X730500D02*
D03*
X1430000Y1014250D02*
D03*
X1399000D02*
D03*
X897000Y1013250D02*
D03*
X866000D02*
D03*
X1517107Y1126259D02*
D03*
X1548107D02*
D03*
X699500Y1151000D02*
D03*
X730500D02*
D03*
X1430000Y1167250D02*
D03*
X1399000D02*
D03*
X897000Y1166250D02*
D03*
X866000D02*
D03*
X1517107Y1279259D02*
D03*
X1548107D02*
D03*
X699500Y1304000D02*
D03*
X730500D02*
D03*
X1430000Y1320250D02*
D03*
X1399000D02*
D03*
X897000Y1319250D02*
D03*
X866000D02*
D03*
X1517107Y1432259D02*
D03*
X1548107D02*
D03*
X699500Y1457000D02*
D03*
X730500D02*
D03*
X1430000Y1473250D02*
D03*
X1399000D02*
D03*
X897000Y1472250D02*
D03*
X866000D02*
D03*
X1517107Y1585259D02*
D03*
X1548107D02*
D03*
X699500Y1610000D02*
D03*
X730500D02*
D03*
X1430000Y1626250D02*
D03*
X1399000D02*
D03*
X897000Y1625250D02*
D03*
X866000D02*
D03*
X1517107Y1738259D02*
D03*
X1548107D02*
D03*
X699500Y1763000D02*
D03*
X730500D02*
D03*
X1430000Y1779250D02*
D03*
X1399000D02*
D03*
X897000Y1778250D02*
D03*
X866000D02*
D03*
X1517107Y1891259D02*
D03*
X1548107D02*
D03*
X699500Y1916000D02*
D03*
X730500D02*
D03*
X1430000Y1932250D02*
D03*
X1399000D02*
D03*
X897000Y1931250D02*
D03*
X866000D02*
D03*
X1517107Y2044259D02*
D03*
X1548107D02*
D03*
X699500Y2069000D02*
D03*
X730500D02*
D03*
X1430000Y2085250D02*
D03*
X1399000D02*
D03*
X897000Y2084250D02*
D03*
X866000D02*
D03*
M02*
