G04 Layer_Color=255*
%FSLAX44Y44*%
%MOMM*%
G71*
G01*
G75*
%ADD10C,2.0000*%
%ADD21C,1.0000*%
%ADD26R,2.0000X2.8000*%
D10*
X2025000Y2050000D02*
D03*
Y2000000D02*
D03*
X25000Y50000D02*
D03*
X2025000Y45000D02*
D03*
X25000Y2025000D02*
D03*
Y1975000D02*
D03*
D21*
X70000Y20000D02*
D03*
Y115000D02*
D03*
X1980000Y135000D02*
D03*
Y20000D02*
D03*
X70000Y173000D02*
D03*
Y268000D02*
D03*
X1980000Y288000D02*
D03*
Y173000D02*
D03*
X70000Y326000D02*
D03*
Y421000D02*
D03*
X1980000Y441000D02*
D03*
Y326000D02*
D03*
X70000Y479000D02*
D03*
Y574000D02*
D03*
X1980000Y594000D02*
D03*
Y479000D02*
D03*
X70000Y632000D02*
D03*
Y727000D02*
D03*
X1980000Y747000D02*
D03*
Y632000D02*
D03*
X70000Y785000D02*
D03*
Y880000D02*
D03*
X1980000Y900000D02*
D03*
Y785000D02*
D03*
X70000Y938000D02*
D03*
Y1033000D02*
D03*
X1980000Y1053000D02*
D03*
Y938000D02*
D03*
X70000Y1091000D02*
D03*
Y1186000D02*
D03*
X1980000Y1206000D02*
D03*
Y1091000D02*
D03*
X70000Y1244000D02*
D03*
Y1339000D02*
D03*
X1980000Y1359000D02*
D03*
Y1244000D02*
D03*
X70000Y1397000D02*
D03*
Y1492000D02*
D03*
X1980000Y1512000D02*
D03*
Y1397000D02*
D03*
X70000Y1550000D02*
D03*
Y1645000D02*
D03*
X1980000Y1665000D02*
D03*
Y1550000D02*
D03*
X70000Y1703000D02*
D03*
Y1798000D02*
D03*
X1980000Y1818000D02*
D03*
Y1703000D02*
D03*
X70000Y1856000D02*
D03*
Y1951000D02*
D03*
X1980000Y1971000D02*
D03*
Y1856000D02*
D03*
X70000Y2009000D02*
D03*
Y2104000D02*
D03*
X1980000Y2124000D02*
D03*
Y2009000D02*
D03*
X1867000Y119000D02*
D03*
X1854000D02*
D03*
X1841000D02*
D03*
X1830000D02*
D03*
X1867000Y272000D02*
D03*
X1854000D02*
D03*
X1841000D02*
D03*
X1830000D02*
D03*
X1867000Y425000D02*
D03*
X1854000D02*
D03*
X1841000D02*
D03*
X1830000D02*
D03*
X1867000Y578000D02*
D03*
X1854000D02*
D03*
X1841000D02*
D03*
X1830000D02*
D03*
X1867000Y731000D02*
D03*
X1854000D02*
D03*
X1841000D02*
D03*
X1830000D02*
D03*
X1867000Y884000D02*
D03*
X1854000D02*
D03*
X1841000D02*
D03*
X1830000D02*
D03*
X1867000Y1037000D02*
D03*
X1854000D02*
D03*
X1841000D02*
D03*
X1830000D02*
D03*
X1867000Y1190000D02*
D03*
X1854000D02*
D03*
X1841000D02*
D03*
X1830000D02*
D03*
X1867000Y1343000D02*
D03*
X1854000D02*
D03*
X1841000D02*
D03*
X1830000D02*
D03*
X1867000Y1496000D02*
D03*
X1854000D02*
D03*
X1841000D02*
D03*
X1830000D02*
D03*
X1867000Y1649000D02*
D03*
X1854000D02*
D03*
X1841000D02*
D03*
X1830000D02*
D03*
X1867000Y1802000D02*
D03*
X1854000D02*
D03*
X1841000D02*
D03*
X1830000D02*
D03*
X1867000Y1955000D02*
D03*
X1854000D02*
D03*
X1841000D02*
D03*
X1830000D02*
D03*
X1867000Y2108000D02*
D03*
X1854000D02*
D03*
X1841000D02*
D03*
X1830000D02*
D03*
D26*
X1899990Y76500D02*
D03*
X1933010D02*
D03*
X1828010Y76500D02*
D03*
X1794990D02*
D03*
X1689990Y76500D02*
D03*
X1723010D02*
D03*
X1618010Y76500D02*
D03*
X1584990D02*
D03*
X1479990D02*
D03*
X1513010D02*
D03*
X1408010Y76500D02*
D03*
X1374990D02*
D03*
X1269990D02*
D03*
X1303010D02*
D03*
X1198010D02*
D03*
X1164990D02*
D03*
X1059990D02*
D03*
X1093010D02*
D03*
X988010D02*
D03*
X954990D02*
D03*
X849990Y76500D02*
D03*
X883010D02*
D03*
X778010Y76500D02*
D03*
X744990D02*
D03*
X639990Y76500D02*
D03*
X673010D02*
D03*
X568010Y76500D02*
D03*
X534990D02*
D03*
X429990D02*
D03*
X463010D02*
D03*
X358010D02*
D03*
X324990D02*
D03*
X114990D02*
D03*
X148010D02*
D03*
X1899990Y229500D02*
D03*
X1933010D02*
D03*
X1828010Y229500D02*
D03*
X1794990D02*
D03*
X1689990Y229500D02*
D03*
X1723010D02*
D03*
X1618010Y229500D02*
D03*
X1584990D02*
D03*
X1479990D02*
D03*
X1513010D02*
D03*
X1408010Y229500D02*
D03*
X1374990D02*
D03*
X1269990D02*
D03*
X1303010D02*
D03*
X1198010D02*
D03*
X1164990D02*
D03*
X1059990D02*
D03*
X1093010D02*
D03*
X988010D02*
D03*
X954990D02*
D03*
X849990Y229500D02*
D03*
X883010D02*
D03*
X778010Y229500D02*
D03*
X744990D02*
D03*
X639990Y229500D02*
D03*
X673010D02*
D03*
X568010Y229500D02*
D03*
X534990D02*
D03*
X429990D02*
D03*
X463010D02*
D03*
X358010D02*
D03*
X324990D02*
D03*
X114990D02*
D03*
X148010D02*
D03*
X1899990Y382500D02*
D03*
X1933010D02*
D03*
X1828010Y382500D02*
D03*
X1794990D02*
D03*
X1689990Y382500D02*
D03*
X1723010D02*
D03*
X1618010Y382500D02*
D03*
X1584990D02*
D03*
X1479990D02*
D03*
X1513010D02*
D03*
X1408010Y382500D02*
D03*
X1374990D02*
D03*
X1269990D02*
D03*
X1303010D02*
D03*
X1198010D02*
D03*
X1164990D02*
D03*
X1059990D02*
D03*
X1093010D02*
D03*
X988010D02*
D03*
X954990D02*
D03*
X849990Y382500D02*
D03*
X883010D02*
D03*
X778010Y382500D02*
D03*
X744990D02*
D03*
X639990Y382500D02*
D03*
X673010D02*
D03*
X568010Y382500D02*
D03*
X534990D02*
D03*
X429990D02*
D03*
X463010D02*
D03*
X358010D02*
D03*
X324990D02*
D03*
X114990D02*
D03*
X148010D02*
D03*
X1899990Y535500D02*
D03*
X1933010D02*
D03*
X1828010Y535500D02*
D03*
X1794990D02*
D03*
X1689990Y535500D02*
D03*
X1723010D02*
D03*
X1618010Y535500D02*
D03*
X1584990D02*
D03*
X1479990D02*
D03*
X1513010D02*
D03*
X1408010Y535500D02*
D03*
X1374990D02*
D03*
X1269990D02*
D03*
X1303010D02*
D03*
X1198010D02*
D03*
X1164990D02*
D03*
X1059990D02*
D03*
X1093010D02*
D03*
X988010D02*
D03*
X954990D02*
D03*
X849990Y535500D02*
D03*
X883010D02*
D03*
X778010Y535500D02*
D03*
X744990D02*
D03*
X639990Y535500D02*
D03*
X673010D02*
D03*
X568010Y535500D02*
D03*
X534990D02*
D03*
X429990D02*
D03*
X463010D02*
D03*
X358010D02*
D03*
X324990D02*
D03*
X114990D02*
D03*
X148010D02*
D03*
X1899990Y688500D02*
D03*
X1933010D02*
D03*
X1828010Y688500D02*
D03*
X1794990D02*
D03*
X1689990Y688500D02*
D03*
X1723010D02*
D03*
X1618010Y688500D02*
D03*
X1584990D02*
D03*
X1479990D02*
D03*
X1513010D02*
D03*
X1408010Y688500D02*
D03*
X1374990D02*
D03*
X1269990D02*
D03*
X1303010D02*
D03*
X1198010D02*
D03*
X1164990D02*
D03*
X1059990D02*
D03*
X1093010D02*
D03*
X988010D02*
D03*
X954990D02*
D03*
X849990Y688500D02*
D03*
X883010D02*
D03*
X778010Y688500D02*
D03*
X744990D02*
D03*
X639990Y688500D02*
D03*
X673010D02*
D03*
X568010Y688500D02*
D03*
X534990D02*
D03*
X429990D02*
D03*
X463010D02*
D03*
X358010D02*
D03*
X324990D02*
D03*
X114990D02*
D03*
X148010D02*
D03*
X1899990Y841500D02*
D03*
X1933010D02*
D03*
X1828010Y841500D02*
D03*
X1794990D02*
D03*
X1689990Y841500D02*
D03*
X1723010D02*
D03*
X1618010Y841500D02*
D03*
X1584990D02*
D03*
X1479990D02*
D03*
X1513010D02*
D03*
X1408010Y841500D02*
D03*
X1374990D02*
D03*
X1269990D02*
D03*
X1303010D02*
D03*
X1198010D02*
D03*
X1164990D02*
D03*
X1059990D02*
D03*
X1093010D02*
D03*
X988010D02*
D03*
X954990D02*
D03*
X849990Y841500D02*
D03*
X883010D02*
D03*
X778010Y841500D02*
D03*
X744990D02*
D03*
X639990Y841500D02*
D03*
X673010D02*
D03*
X568010Y841500D02*
D03*
X534990D02*
D03*
X429990D02*
D03*
X463010D02*
D03*
X358010D02*
D03*
X324990D02*
D03*
X114990D02*
D03*
X148010D02*
D03*
X1899990Y994500D02*
D03*
X1933010D02*
D03*
X1828010Y994500D02*
D03*
X1794990D02*
D03*
X1689990Y994500D02*
D03*
X1723010D02*
D03*
X1618010Y994500D02*
D03*
X1584990D02*
D03*
X1479990D02*
D03*
X1513010D02*
D03*
X1408010Y994500D02*
D03*
X1374990D02*
D03*
X1269990D02*
D03*
X1303010D02*
D03*
X1198010D02*
D03*
X1164990D02*
D03*
X1059990D02*
D03*
X1093010D02*
D03*
X988010D02*
D03*
X954990D02*
D03*
X849990Y994500D02*
D03*
X883010D02*
D03*
X778010Y994500D02*
D03*
X744990D02*
D03*
X639990Y994500D02*
D03*
X673010D02*
D03*
X568010Y994500D02*
D03*
X534990D02*
D03*
X429990D02*
D03*
X463010D02*
D03*
X358010D02*
D03*
X324990D02*
D03*
X114990D02*
D03*
X148010D02*
D03*
X1899990Y1147500D02*
D03*
X1933010D02*
D03*
X1828010Y1147500D02*
D03*
X1794990D02*
D03*
X1689990Y1147500D02*
D03*
X1723010D02*
D03*
X1618010Y1147500D02*
D03*
X1584990D02*
D03*
X1479990D02*
D03*
X1513010D02*
D03*
X1408010Y1147500D02*
D03*
X1374990D02*
D03*
X1269990D02*
D03*
X1303010D02*
D03*
X1198010D02*
D03*
X1164990D02*
D03*
X1059990D02*
D03*
X1093010D02*
D03*
X988010D02*
D03*
X954990D02*
D03*
X849990Y1147500D02*
D03*
X883010D02*
D03*
X778010Y1147500D02*
D03*
X744990D02*
D03*
X639990Y1147500D02*
D03*
X673010D02*
D03*
X568010Y1147500D02*
D03*
X534990D02*
D03*
X429990D02*
D03*
X463010D02*
D03*
X358010D02*
D03*
X324990D02*
D03*
X114990D02*
D03*
X148010D02*
D03*
X1899990Y1300500D02*
D03*
X1933010D02*
D03*
X1828010Y1300500D02*
D03*
X1794990D02*
D03*
X1689990Y1300500D02*
D03*
X1723010D02*
D03*
X1618010Y1300500D02*
D03*
X1584990D02*
D03*
X1479990D02*
D03*
X1513010D02*
D03*
X1408010Y1300500D02*
D03*
X1374990D02*
D03*
X1269990D02*
D03*
X1303010D02*
D03*
X1198010D02*
D03*
X1164990D02*
D03*
X1059990D02*
D03*
X1093010D02*
D03*
X988010D02*
D03*
X954990D02*
D03*
X849990Y1300500D02*
D03*
X883010D02*
D03*
X778010Y1300500D02*
D03*
X744990D02*
D03*
X639990Y1300500D02*
D03*
X673010D02*
D03*
X568010Y1300500D02*
D03*
X534990D02*
D03*
X429990D02*
D03*
X463010D02*
D03*
X358010D02*
D03*
X324990D02*
D03*
X114990D02*
D03*
X148010D02*
D03*
X1899990Y1453500D02*
D03*
X1933010D02*
D03*
X1828010Y1453500D02*
D03*
X1794990D02*
D03*
X1689990Y1453500D02*
D03*
X1723010D02*
D03*
X1618010Y1453500D02*
D03*
X1584990D02*
D03*
X1479990D02*
D03*
X1513010D02*
D03*
X1408010Y1453500D02*
D03*
X1374990D02*
D03*
X1269990D02*
D03*
X1303010D02*
D03*
X1198010D02*
D03*
X1164990D02*
D03*
X1059990D02*
D03*
X1093010D02*
D03*
X988010D02*
D03*
X954990D02*
D03*
X849990Y1453500D02*
D03*
X883010D02*
D03*
X778010Y1453500D02*
D03*
X744990D02*
D03*
X639990Y1453500D02*
D03*
X673010D02*
D03*
X568010Y1453500D02*
D03*
X534990D02*
D03*
X429990D02*
D03*
X463010D02*
D03*
X358010D02*
D03*
X324990D02*
D03*
X114990D02*
D03*
X148010D02*
D03*
X1899990Y1606500D02*
D03*
X1933010D02*
D03*
X1828010Y1606500D02*
D03*
X1794990D02*
D03*
X1689990Y1606500D02*
D03*
X1723010D02*
D03*
X1618010Y1606500D02*
D03*
X1584990D02*
D03*
X1479990D02*
D03*
X1513010D02*
D03*
X1408010Y1606500D02*
D03*
X1374990D02*
D03*
X1269990D02*
D03*
X1303010D02*
D03*
X1198010D02*
D03*
X1164990D02*
D03*
X1059990D02*
D03*
X1093010D02*
D03*
X988010D02*
D03*
X954990D02*
D03*
X849990Y1606500D02*
D03*
X883010D02*
D03*
X778010Y1606500D02*
D03*
X744990D02*
D03*
X639990Y1606500D02*
D03*
X673010D02*
D03*
X568010Y1606500D02*
D03*
X534990D02*
D03*
X429990D02*
D03*
X463010D02*
D03*
X358010D02*
D03*
X324990D02*
D03*
X114990D02*
D03*
X148010D02*
D03*
X1899990Y1759500D02*
D03*
X1933010D02*
D03*
X1828010Y1759500D02*
D03*
X1794990D02*
D03*
X1689990Y1759500D02*
D03*
X1723010D02*
D03*
X1618010Y1759500D02*
D03*
X1584990D02*
D03*
X1479990D02*
D03*
X1513010D02*
D03*
X1408010Y1759500D02*
D03*
X1374990D02*
D03*
X1269990D02*
D03*
X1303010D02*
D03*
X1198010D02*
D03*
X1164990D02*
D03*
X1059990D02*
D03*
X1093010D02*
D03*
X988010D02*
D03*
X954990D02*
D03*
X849990Y1759500D02*
D03*
X883010D02*
D03*
X778010Y1759500D02*
D03*
X744990D02*
D03*
X639990Y1759500D02*
D03*
X673010D02*
D03*
X568010Y1759500D02*
D03*
X534990D02*
D03*
X429990D02*
D03*
X463010D02*
D03*
X358010D02*
D03*
X324990D02*
D03*
X114990D02*
D03*
X148010D02*
D03*
X1899990Y1912500D02*
D03*
X1933010D02*
D03*
X1828010Y1912500D02*
D03*
X1794990D02*
D03*
X1689990Y1912500D02*
D03*
X1723010D02*
D03*
X1618010Y1912500D02*
D03*
X1584990D02*
D03*
X1479990D02*
D03*
X1513010D02*
D03*
X1408010Y1912500D02*
D03*
X1374990D02*
D03*
X1269990D02*
D03*
X1303010D02*
D03*
X1198010D02*
D03*
X1164990D02*
D03*
X1059990D02*
D03*
X1093010D02*
D03*
X988010D02*
D03*
X954990D02*
D03*
X849990Y1912500D02*
D03*
X883010D02*
D03*
X778010Y1912500D02*
D03*
X744990D02*
D03*
X639990Y1912500D02*
D03*
X673010D02*
D03*
X568010Y1912500D02*
D03*
X534990D02*
D03*
X429990D02*
D03*
X463010D02*
D03*
X358010D02*
D03*
X324990D02*
D03*
X114990D02*
D03*
X148010D02*
D03*
X1899990Y2065500D02*
D03*
X1933010D02*
D03*
X1828010Y2065500D02*
D03*
X1794990D02*
D03*
X1689990Y2065500D02*
D03*
X1723010D02*
D03*
X1618010Y2065500D02*
D03*
X1584990D02*
D03*
X1479990D02*
D03*
X1513010D02*
D03*
X1408010Y2065500D02*
D03*
X1374990D02*
D03*
X1269990D02*
D03*
X1303010D02*
D03*
X1198010D02*
D03*
X1164990D02*
D03*
X1059990D02*
D03*
X1093010D02*
D03*
X988010D02*
D03*
X954990D02*
D03*
X849990Y2065500D02*
D03*
X883010D02*
D03*
X778010Y2065500D02*
D03*
X744990D02*
D03*
X639990Y2065500D02*
D03*
X673010D02*
D03*
X568010Y2065500D02*
D03*
X534990D02*
D03*
X429990D02*
D03*
X463010D02*
D03*
X358010D02*
D03*
X324990D02*
D03*
X114990D02*
D03*
X148010D02*
D03*
M02*
