G04 Layer_Color=255*
%FSLAX44Y44*%
%MOMM*%
G71*
G01*
G75*
%ADD10C,2.0000*%
%ADD11C,1.0000*%
%ADD26R,2.0000X2.8000*%
D10*
X25000Y1975000D02*
D03*
Y2025000D02*
D03*
X2025000Y45000D02*
D03*
X25000Y50000D02*
D03*
X2025000Y2000000D02*
D03*
Y2050000D02*
D03*
D11*
X1980000Y20000D02*
D03*
Y135000D02*
D03*
X70000Y115000D02*
D03*
Y20000D02*
D03*
X1980000Y173000D02*
D03*
Y288000D02*
D03*
X70000Y268000D02*
D03*
Y173000D02*
D03*
X1980000Y326000D02*
D03*
Y441000D02*
D03*
X70000Y421000D02*
D03*
Y326000D02*
D03*
X1980000Y479000D02*
D03*
Y594000D02*
D03*
X70000Y574000D02*
D03*
Y479000D02*
D03*
X1980000Y632000D02*
D03*
Y747000D02*
D03*
X70000Y727000D02*
D03*
Y632000D02*
D03*
X1980000Y785000D02*
D03*
Y900000D02*
D03*
X70000Y880000D02*
D03*
Y785000D02*
D03*
X1980000Y938000D02*
D03*
Y1053000D02*
D03*
X70000Y1033000D02*
D03*
Y938000D02*
D03*
X1980000Y1091000D02*
D03*
Y1206000D02*
D03*
X70000Y1186000D02*
D03*
Y1091000D02*
D03*
X1980000Y1244000D02*
D03*
Y1359000D02*
D03*
X70000Y1339000D02*
D03*
Y1244000D02*
D03*
X1980000Y1397000D02*
D03*
Y1512000D02*
D03*
X70000Y1492000D02*
D03*
Y1397000D02*
D03*
X1980000Y1550000D02*
D03*
Y1665000D02*
D03*
X70000Y1645000D02*
D03*
Y1550000D02*
D03*
X1980000Y1703000D02*
D03*
Y1818000D02*
D03*
X70000Y1798000D02*
D03*
Y1703000D02*
D03*
X1980000Y1856000D02*
D03*
Y1971000D02*
D03*
X70000Y1951000D02*
D03*
Y1856000D02*
D03*
X1980000Y2009000D02*
D03*
Y2124000D02*
D03*
X70000Y2104000D02*
D03*
Y2009000D02*
D03*
X1830000Y119000D02*
D03*
X1841000D02*
D03*
X1854000D02*
D03*
X1867000D02*
D03*
X1830000Y272000D02*
D03*
X1841000D02*
D03*
X1854000D02*
D03*
X1867000D02*
D03*
X1830000Y425000D02*
D03*
X1841000D02*
D03*
X1854000D02*
D03*
X1867000D02*
D03*
X1830000Y578000D02*
D03*
X1841000D02*
D03*
X1854000D02*
D03*
X1867000D02*
D03*
X1830000Y731000D02*
D03*
X1841000D02*
D03*
X1854000D02*
D03*
X1867000D02*
D03*
X1830000Y884000D02*
D03*
X1841000D02*
D03*
X1854000D02*
D03*
X1867000D02*
D03*
X1830000Y1037000D02*
D03*
X1841000D02*
D03*
X1854000D02*
D03*
X1867000D02*
D03*
X1830000Y1190000D02*
D03*
X1841000D02*
D03*
X1854000D02*
D03*
X1867000D02*
D03*
X1830000Y1343000D02*
D03*
X1841000D02*
D03*
X1854000D02*
D03*
X1867000D02*
D03*
X1830000Y1496000D02*
D03*
X1841000D02*
D03*
X1854000D02*
D03*
X1867000D02*
D03*
X1830000Y1649000D02*
D03*
X1841000D02*
D03*
X1854000D02*
D03*
X1867000D02*
D03*
X1830000Y1802000D02*
D03*
X1841000D02*
D03*
X1854000D02*
D03*
X1867000D02*
D03*
X1830000Y1955000D02*
D03*
X1841000D02*
D03*
X1854000D02*
D03*
X1867000D02*
D03*
X1830000Y2108000D02*
D03*
X1841000D02*
D03*
X1854000D02*
D03*
X1867000D02*
D03*
D26*
X148010Y76500D02*
D03*
X114990D02*
D03*
X324990D02*
D03*
X358010D02*
D03*
X463010D02*
D03*
X429990D02*
D03*
X534990D02*
D03*
X568010D02*
D03*
X673010Y76500D02*
D03*
X639990D02*
D03*
X744990Y76500D02*
D03*
X778010D02*
D03*
X883010Y76500D02*
D03*
X849990D02*
D03*
X954990Y76500D02*
D03*
X988010D02*
D03*
X1093010D02*
D03*
X1059990D02*
D03*
X1164990D02*
D03*
X1198010D02*
D03*
X1303010D02*
D03*
X1269990D02*
D03*
X1374990D02*
D03*
X1408010D02*
D03*
X1513010Y76500D02*
D03*
X1479990D02*
D03*
X1584990D02*
D03*
X1618010D02*
D03*
X1723010Y76500D02*
D03*
X1689990D02*
D03*
X1794990Y76500D02*
D03*
X1828010D02*
D03*
X1933010Y76500D02*
D03*
X1899990D02*
D03*
X148010Y229500D02*
D03*
X114990D02*
D03*
X324990D02*
D03*
X358010D02*
D03*
X463010D02*
D03*
X429990D02*
D03*
X534990D02*
D03*
X568010D02*
D03*
X673010Y229500D02*
D03*
X639990D02*
D03*
X744990Y229500D02*
D03*
X778010D02*
D03*
X883010Y229500D02*
D03*
X849990D02*
D03*
X954990Y229500D02*
D03*
X988010D02*
D03*
X1093010D02*
D03*
X1059990D02*
D03*
X1164990D02*
D03*
X1198010D02*
D03*
X1303010D02*
D03*
X1269990D02*
D03*
X1374990D02*
D03*
X1408010D02*
D03*
X1513010Y229500D02*
D03*
X1479990D02*
D03*
X1584990D02*
D03*
X1618010D02*
D03*
X1723010Y229500D02*
D03*
X1689990D02*
D03*
X1794990Y229500D02*
D03*
X1828010D02*
D03*
X1933010Y229500D02*
D03*
X1899990D02*
D03*
X148010Y382500D02*
D03*
X114990D02*
D03*
X324990D02*
D03*
X358010D02*
D03*
X463010D02*
D03*
X429990D02*
D03*
X534990D02*
D03*
X568010D02*
D03*
X673010Y382500D02*
D03*
X639990D02*
D03*
X744990Y382500D02*
D03*
X778010D02*
D03*
X883010Y382500D02*
D03*
X849990D02*
D03*
X954990Y382500D02*
D03*
X988010D02*
D03*
X1093010D02*
D03*
X1059990D02*
D03*
X1164990D02*
D03*
X1198010D02*
D03*
X1303010D02*
D03*
X1269990D02*
D03*
X1374990D02*
D03*
X1408010D02*
D03*
X1513010Y382500D02*
D03*
X1479990D02*
D03*
X1584990D02*
D03*
X1618010D02*
D03*
X1723010Y382500D02*
D03*
X1689990D02*
D03*
X1794990Y382500D02*
D03*
X1828010D02*
D03*
X1933010Y382500D02*
D03*
X1899990D02*
D03*
X148010Y535500D02*
D03*
X114990D02*
D03*
X324990D02*
D03*
X358010D02*
D03*
X463010D02*
D03*
X429990D02*
D03*
X534990D02*
D03*
X568010D02*
D03*
X673010Y535500D02*
D03*
X639990D02*
D03*
X744990Y535500D02*
D03*
X778010D02*
D03*
X883010Y535500D02*
D03*
X849990D02*
D03*
X954990Y535500D02*
D03*
X988010D02*
D03*
X1093010D02*
D03*
X1059990D02*
D03*
X1164990D02*
D03*
X1198010D02*
D03*
X1303010D02*
D03*
X1269990D02*
D03*
X1374990D02*
D03*
X1408010D02*
D03*
X1513010Y535500D02*
D03*
X1479990D02*
D03*
X1584990D02*
D03*
X1618010D02*
D03*
X1723010Y535500D02*
D03*
X1689990D02*
D03*
X1794990Y535500D02*
D03*
X1828010D02*
D03*
X1933010Y535500D02*
D03*
X1899990D02*
D03*
X148010Y688500D02*
D03*
X114990D02*
D03*
X324990D02*
D03*
X358010D02*
D03*
X463010D02*
D03*
X429990D02*
D03*
X534990D02*
D03*
X568010D02*
D03*
X673010Y688500D02*
D03*
X639990D02*
D03*
X744990Y688500D02*
D03*
X778010D02*
D03*
X883010Y688500D02*
D03*
X849990D02*
D03*
X954990Y688500D02*
D03*
X988010D02*
D03*
X1093010D02*
D03*
X1059990D02*
D03*
X1164990D02*
D03*
X1198010D02*
D03*
X1303010D02*
D03*
X1269990D02*
D03*
X1374990D02*
D03*
X1408010D02*
D03*
X1513010Y688500D02*
D03*
X1479990D02*
D03*
X1584990D02*
D03*
X1618010D02*
D03*
X1723010Y688500D02*
D03*
X1689990D02*
D03*
X1794990Y688500D02*
D03*
X1828010D02*
D03*
X1933010Y688500D02*
D03*
X1899990D02*
D03*
X148010Y841500D02*
D03*
X114990D02*
D03*
X324990D02*
D03*
X358010D02*
D03*
X463010D02*
D03*
X429990D02*
D03*
X534990D02*
D03*
X568010D02*
D03*
X673010Y841500D02*
D03*
X639990D02*
D03*
X744990Y841500D02*
D03*
X778010D02*
D03*
X883010Y841500D02*
D03*
X849990D02*
D03*
X954990Y841500D02*
D03*
X988010D02*
D03*
X1093010D02*
D03*
X1059990D02*
D03*
X1164990D02*
D03*
X1198010D02*
D03*
X1303010D02*
D03*
X1269990D02*
D03*
X1374990D02*
D03*
X1408010D02*
D03*
X1513010Y841500D02*
D03*
X1479990D02*
D03*
X1584990D02*
D03*
X1618010D02*
D03*
X1723010Y841500D02*
D03*
X1689990D02*
D03*
X1794990Y841500D02*
D03*
X1828010D02*
D03*
X1933010Y841500D02*
D03*
X1899990D02*
D03*
X148010Y994500D02*
D03*
X114990D02*
D03*
X324990D02*
D03*
X358010D02*
D03*
X463010D02*
D03*
X429990D02*
D03*
X534990D02*
D03*
X568010D02*
D03*
X673010Y994500D02*
D03*
X639990D02*
D03*
X744990Y994500D02*
D03*
X778010D02*
D03*
X883010Y994500D02*
D03*
X849990D02*
D03*
X954990Y994500D02*
D03*
X988010D02*
D03*
X1093010D02*
D03*
X1059990D02*
D03*
X1164990D02*
D03*
X1198010D02*
D03*
X1303010D02*
D03*
X1269990D02*
D03*
X1374990D02*
D03*
X1408010D02*
D03*
X1513010Y994500D02*
D03*
X1479990D02*
D03*
X1584990D02*
D03*
X1618010D02*
D03*
X1723010Y994500D02*
D03*
X1689990D02*
D03*
X1794990Y994500D02*
D03*
X1828010D02*
D03*
X1933010Y994500D02*
D03*
X1899990D02*
D03*
X148010Y1147500D02*
D03*
X114990D02*
D03*
X324990D02*
D03*
X358010D02*
D03*
X463010D02*
D03*
X429990D02*
D03*
X534990D02*
D03*
X568010D02*
D03*
X673010Y1147500D02*
D03*
X639990D02*
D03*
X744990Y1147500D02*
D03*
X778010D02*
D03*
X883010Y1147500D02*
D03*
X849990D02*
D03*
X954990Y1147500D02*
D03*
X988010D02*
D03*
X1093010D02*
D03*
X1059990D02*
D03*
X1164990D02*
D03*
X1198010D02*
D03*
X1303010D02*
D03*
X1269990D02*
D03*
X1374990D02*
D03*
X1408010D02*
D03*
X1513010Y1147500D02*
D03*
X1479990D02*
D03*
X1584990D02*
D03*
X1618010D02*
D03*
X1723010Y1147500D02*
D03*
X1689990D02*
D03*
X1794990Y1147500D02*
D03*
X1828010D02*
D03*
X1933010Y1147500D02*
D03*
X1899990D02*
D03*
X148010Y1300500D02*
D03*
X114990D02*
D03*
X324990D02*
D03*
X358010D02*
D03*
X463010D02*
D03*
X429990D02*
D03*
X534990D02*
D03*
X568010D02*
D03*
X673010Y1300500D02*
D03*
X639990D02*
D03*
X744990Y1300500D02*
D03*
X778010D02*
D03*
X883010Y1300500D02*
D03*
X849990D02*
D03*
X954990Y1300500D02*
D03*
X988010D02*
D03*
X1093010D02*
D03*
X1059990D02*
D03*
X1164990D02*
D03*
X1198010D02*
D03*
X1303010D02*
D03*
X1269990D02*
D03*
X1374990D02*
D03*
X1408010D02*
D03*
X1513010Y1300500D02*
D03*
X1479990D02*
D03*
X1584990D02*
D03*
X1618010D02*
D03*
X1723010Y1300500D02*
D03*
X1689990D02*
D03*
X1794990Y1300500D02*
D03*
X1828010D02*
D03*
X1933010Y1300500D02*
D03*
X1899990D02*
D03*
X148010Y1453500D02*
D03*
X114990D02*
D03*
X324990D02*
D03*
X358010D02*
D03*
X463010D02*
D03*
X429990D02*
D03*
X534990D02*
D03*
X568010D02*
D03*
X673010Y1453500D02*
D03*
X639990D02*
D03*
X744990Y1453500D02*
D03*
X778010D02*
D03*
X883010Y1453500D02*
D03*
X849990D02*
D03*
X954990Y1453500D02*
D03*
X988010D02*
D03*
X1093010D02*
D03*
X1059990D02*
D03*
X1164990D02*
D03*
X1198010D02*
D03*
X1303010D02*
D03*
X1269990D02*
D03*
X1374990D02*
D03*
X1408010D02*
D03*
X1513010Y1453500D02*
D03*
X1479990D02*
D03*
X1584990D02*
D03*
X1618010D02*
D03*
X1723010Y1453500D02*
D03*
X1689990D02*
D03*
X1794990Y1453500D02*
D03*
X1828010D02*
D03*
X1933010Y1453500D02*
D03*
X1899990D02*
D03*
X148010Y1606500D02*
D03*
X114990D02*
D03*
X324990D02*
D03*
X358010D02*
D03*
X463010D02*
D03*
X429990D02*
D03*
X534990D02*
D03*
X568010D02*
D03*
X673010Y1606500D02*
D03*
X639990D02*
D03*
X744990Y1606500D02*
D03*
X778010D02*
D03*
X883010Y1606500D02*
D03*
X849990D02*
D03*
X954990Y1606500D02*
D03*
X988010D02*
D03*
X1093010D02*
D03*
X1059990D02*
D03*
X1164990D02*
D03*
X1198010D02*
D03*
X1303010D02*
D03*
X1269990D02*
D03*
X1374990D02*
D03*
X1408010D02*
D03*
X1513010Y1606500D02*
D03*
X1479990D02*
D03*
X1584990D02*
D03*
X1618010D02*
D03*
X1723010Y1606500D02*
D03*
X1689990D02*
D03*
X1794990Y1606500D02*
D03*
X1828010D02*
D03*
X1933010Y1606500D02*
D03*
X1899990D02*
D03*
X148010Y1759500D02*
D03*
X114990D02*
D03*
X324990D02*
D03*
X358010D02*
D03*
X463010D02*
D03*
X429990D02*
D03*
X534990D02*
D03*
X568010D02*
D03*
X673010Y1759500D02*
D03*
X639990D02*
D03*
X744990Y1759500D02*
D03*
X778010D02*
D03*
X883010Y1759500D02*
D03*
X849990D02*
D03*
X954990Y1759500D02*
D03*
X988010D02*
D03*
X1093010D02*
D03*
X1059990D02*
D03*
X1164990D02*
D03*
X1198010D02*
D03*
X1303010D02*
D03*
X1269990D02*
D03*
X1374990D02*
D03*
X1408010D02*
D03*
X1513010Y1759500D02*
D03*
X1479990D02*
D03*
X1584990D02*
D03*
X1618010D02*
D03*
X1723010Y1759500D02*
D03*
X1689990D02*
D03*
X1794990Y1759500D02*
D03*
X1828010D02*
D03*
X1933010Y1759500D02*
D03*
X1899990D02*
D03*
X148010Y1912500D02*
D03*
X114990D02*
D03*
X324990D02*
D03*
X358010D02*
D03*
X463010D02*
D03*
X429990D02*
D03*
X534990D02*
D03*
X568010D02*
D03*
X673010Y1912500D02*
D03*
X639990D02*
D03*
X744990Y1912500D02*
D03*
X778010D02*
D03*
X883010Y1912500D02*
D03*
X849990D02*
D03*
X954990Y1912500D02*
D03*
X988010D02*
D03*
X1093010D02*
D03*
X1059990D02*
D03*
X1164990D02*
D03*
X1198010D02*
D03*
X1303010D02*
D03*
X1269990D02*
D03*
X1374990D02*
D03*
X1408010D02*
D03*
X1513010Y1912500D02*
D03*
X1479990D02*
D03*
X1584990D02*
D03*
X1618010D02*
D03*
X1723010Y1912500D02*
D03*
X1689990D02*
D03*
X1794990Y1912500D02*
D03*
X1828010D02*
D03*
X1933010Y1912500D02*
D03*
X1899990D02*
D03*
X148010Y2065500D02*
D03*
X114990D02*
D03*
X324990D02*
D03*
X358010D02*
D03*
X463010D02*
D03*
X429990D02*
D03*
X534990D02*
D03*
X568010D02*
D03*
X673010Y2065500D02*
D03*
X639990D02*
D03*
X744990Y2065500D02*
D03*
X778010D02*
D03*
X883010Y2065500D02*
D03*
X849990D02*
D03*
X954990Y2065500D02*
D03*
X988010D02*
D03*
X1093010D02*
D03*
X1059990D02*
D03*
X1164990D02*
D03*
X1198010D02*
D03*
X1303010D02*
D03*
X1269990D02*
D03*
X1374990D02*
D03*
X1408010D02*
D03*
X1513010Y2065500D02*
D03*
X1479990D02*
D03*
X1584990D02*
D03*
X1618010D02*
D03*
X1723010Y2065500D02*
D03*
X1689990D02*
D03*
X1794990Y2065500D02*
D03*
X1828010D02*
D03*
X1933010Y2065500D02*
D03*
X1899990D02*
D03*
M02*
