G04 Layer_Color=255*
%FSLAX44Y44*%
%MOMM*%
G71*
G01*
G75*
%ADD10C,2.0000*%
G04:AMPARAMS|DCode=11|XSize=6mm|YSize=3mm|CornerRadius=0.75mm|HoleSize=0mm|Usage=FLASHONLY|Rotation=0.000|XOffset=0mm|YOffset=0mm|HoleType=Round|Shape=RoundedRectangle|*
%AMROUNDEDRECTD11*
21,1,6.0000,1.5000,0,0,0.0*
21,1,4.5000,3.0000,0,0,0.0*
1,1,1.5000,2.2500,-0.7500*
1,1,1.5000,-2.2500,-0.7500*
1,1,1.5000,-2.2500,0.7500*
1,1,1.5000,2.2500,0.7500*
%
%ADD11ROUNDEDRECTD11*%
%ADD12C,1.0000*%
%ADD13R,1.8500X1.9500*%
%ADD14R,1.8500X1.8500*%
%ADD15R,1.8500X1.8500*%
%ADD16R,1.4000X1.0000*%
%ADD17R,2.0000X1.5000*%
%ADD18R,2.3000X1.2000*%
%ADD19R,2.0000X4.0000*%
D10*
X25000Y175000D02*
D03*
Y2025000D02*
D03*
Y1975000D02*
D03*
X2025000Y50000D02*
D03*
Y2025000D02*
D03*
Y2075000D02*
D03*
D11*
X200000Y35000D02*
D03*
Y125000D02*
D03*
Y188000D02*
D03*
Y278000D02*
D03*
Y341000D02*
D03*
Y431000D02*
D03*
Y494000D02*
D03*
Y584000D02*
D03*
Y647000D02*
D03*
Y737000D02*
D03*
Y800000D02*
D03*
Y890000D02*
D03*
Y953000D02*
D03*
Y1043000D02*
D03*
Y1106000D02*
D03*
Y1196000D02*
D03*
Y1259000D02*
D03*
Y1349000D02*
D03*
Y1412000D02*
D03*
Y1502000D02*
D03*
Y1565000D02*
D03*
Y1655000D02*
D03*
Y1718000D02*
D03*
Y1808000D02*
D03*
Y1871000D02*
D03*
Y1961000D02*
D03*
Y2024000D02*
D03*
Y2114000D02*
D03*
D12*
X1006500Y74000D02*
D03*
X1980000Y20000D02*
D03*
Y135000D02*
D03*
X70000Y115000D02*
D03*
Y20000D02*
D03*
X1006500Y227000D02*
D03*
X1980000Y173000D02*
D03*
Y288000D02*
D03*
X70000Y268000D02*
D03*
Y173000D02*
D03*
X1006500Y380000D02*
D03*
X1980000Y326000D02*
D03*
Y441000D02*
D03*
X70000Y421000D02*
D03*
Y326000D02*
D03*
X1006500Y533000D02*
D03*
X1980000Y479000D02*
D03*
Y594000D02*
D03*
X70000Y574000D02*
D03*
Y479000D02*
D03*
X1006500Y686000D02*
D03*
X1980000Y632000D02*
D03*
Y747000D02*
D03*
X70000Y727000D02*
D03*
Y632000D02*
D03*
X1006500Y839000D02*
D03*
X1980000Y785000D02*
D03*
Y900000D02*
D03*
X70000Y880000D02*
D03*
Y785000D02*
D03*
X1006500Y992000D02*
D03*
X1980000Y938000D02*
D03*
Y1053000D02*
D03*
X70000Y1033000D02*
D03*
Y938000D02*
D03*
X1006500Y1145000D02*
D03*
X1980000Y1091000D02*
D03*
Y1206000D02*
D03*
X70000Y1186000D02*
D03*
Y1091000D02*
D03*
X1006500Y1298000D02*
D03*
X1980000Y1244000D02*
D03*
Y1359000D02*
D03*
X70000Y1339000D02*
D03*
Y1244000D02*
D03*
X1006500Y1451000D02*
D03*
X1980000Y1397000D02*
D03*
Y1512000D02*
D03*
X70000Y1492000D02*
D03*
Y1397000D02*
D03*
X1006500Y1604000D02*
D03*
X1980000Y1550000D02*
D03*
Y1665000D02*
D03*
X70000Y1645000D02*
D03*
Y1550000D02*
D03*
X1006500Y1757000D02*
D03*
X1980000Y1703000D02*
D03*
Y1818000D02*
D03*
X70000Y1798000D02*
D03*
Y1703000D02*
D03*
X1006500Y1910000D02*
D03*
X1980000Y1856000D02*
D03*
Y1971000D02*
D03*
X70000Y1951000D02*
D03*
Y1856000D02*
D03*
X1006500Y2063000D02*
D03*
X1980000Y2009000D02*
D03*
Y2124000D02*
D03*
X70000Y2104000D02*
D03*
Y2009000D02*
D03*
D13*
X745000Y130000D02*
D03*
X775000D02*
D03*
X745000Y283000D02*
D03*
X775000D02*
D03*
X745000Y436000D02*
D03*
X775000D02*
D03*
X745000Y589000D02*
D03*
X775000D02*
D03*
X745000Y742000D02*
D03*
X775000D02*
D03*
X745000Y895000D02*
D03*
X775000D02*
D03*
X745000Y1048000D02*
D03*
X775000D02*
D03*
X745000Y1201000D02*
D03*
X775000D02*
D03*
X745000Y1354000D02*
D03*
X775000D02*
D03*
X745000Y1507000D02*
D03*
X775000D02*
D03*
X745000Y1660000D02*
D03*
X775000D02*
D03*
X745000Y1813000D02*
D03*
X775000D02*
D03*
X745000Y1966000D02*
D03*
X775000D02*
D03*
X745000Y2119000D02*
D03*
X775000D02*
D03*
D14*
X866000Y95250D02*
D03*
X897000D02*
D03*
X1399000Y96250D02*
D03*
X1430000D02*
D03*
X730500Y80000D02*
D03*
X699500D02*
D03*
X1630250Y38000D02*
D03*
X1599250D02*
D03*
X866000Y248250D02*
D03*
X897000D02*
D03*
X1399000Y249250D02*
D03*
X1430000D02*
D03*
X730500Y233000D02*
D03*
X699500D02*
D03*
X1630250Y191000D02*
D03*
X1599250D02*
D03*
X866000Y401250D02*
D03*
X897000D02*
D03*
X1399000Y402250D02*
D03*
X1430000D02*
D03*
X730500Y386000D02*
D03*
X699500D02*
D03*
X1630250Y344000D02*
D03*
X1599250D02*
D03*
X866000Y554250D02*
D03*
X897000D02*
D03*
X1399000Y555250D02*
D03*
X1430000D02*
D03*
X730500Y539000D02*
D03*
X699500D02*
D03*
X1630250Y497000D02*
D03*
X1599250D02*
D03*
X866000Y707250D02*
D03*
X897000D02*
D03*
X1399000Y708250D02*
D03*
X1430000D02*
D03*
X730500Y692000D02*
D03*
X699500D02*
D03*
X1630250Y650000D02*
D03*
X1599250D02*
D03*
X866000Y860250D02*
D03*
X897000D02*
D03*
X1399000Y861250D02*
D03*
X1430000D02*
D03*
X730500Y845000D02*
D03*
X699500D02*
D03*
X1630250Y803000D02*
D03*
X1599250D02*
D03*
X866000Y1013250D02*
D03*
X897000D02*
D03*
X1399000Y1014250D02*
D03*
X1430000D02*
D03*
X730500Y998000D02*
D03*
X699500D02*
D03*
X1630250Y956000D02*
D03*
X1599250D02*
D03*
X866000Y1166250D02*
D03*
X897000D02*
D03*
X1399000Y1167250D02*
D03*
X1430000D02*
D03*
X730500Y1151000D02*
D03*
X699500D02*
D03*
X1630250Y1109000D02*
D03*
X1599250D02*
D03*
X866000Y1319250D02*
D03*
X897000D02*
D03*
X1399000Y1320250D02*
D03*
X1430000D02*
D03*
X730500Y1304000D02*
D03*
X699500D02*
D03*
X1630250Y1262000D02*
D03*
X1599250D02*
D03*
X866000Y1472250D02*
D03*
X897000D02*
D03*
X1399000Y1473250D02*
D03*
X1430000D02*
D03*
X730500Y1457000D02*
D03*
X699500D02*
D03*
X1630250Y1415000D02*
D03*
X1599250D02*
D03*
X866000Y1625250D02*
D03*
X897000D02*
D03*
X1399000Y1626250D02*
D03*
X1430000D02*
D03*
X730500Y1610000D02*
D03*
X699500D02*
D03*
X1630250Y1568000D02*
D03*
X1599250D02*
D03*
X866000Y1778250D02*
D03*
X897000D02*
D03*
X1399000Y1779250D02*
D03*
X1430000D02*
D03*
X730500Y1763000D02*
D03*
X699500D02*
D03*
X1630250Y1721000D02*
D03*
X1599250D02*
D03*
X866000Y1931250D02*
D03*
X897000D02*
D03*
X1399000Y1932250D02*
D03*
X1430000D02*
D03*
X730500Y1916000D02*
D03*
X699500D02*
D03*
X1630250Y1874000D02*
D03*
X1599250D02*
D03*
X866000Y2084250D02*
D03*
X897000D02*
D03*
X1399000Y2085250D02*
D03*
X1430000D02*
D03*
X730500Y2069000D02*
D03*
X699500D02*
D03*
X1630250Y2027000D02*
D03*
X1599250D02*
D03*
D15*
X875250Y23250D02*
D03*
Y54250D02*
D03*
X1388000Y24750D02*
D03*
Y55750D02*
D03*
X1627500Y101250D02*
D03*
Y70250D02*
D03*
X875250Y176250D02*
D03*
Y207250D02*
D03*
X1388000Y177750D02*
D03*
Y208750D02*
D03*
X1627500Y254250D02*
D03*
Y223250D02*
D03*
X875250Y329250D02*
D03*
Y360250D02*
D03*
X1388000Y330750D02*
D03*
Y361750D02*
D03*
X1627500Y407250D02*
D03*
Y376250D02*
D03*
X875250Y482250D02*
D03*
Y513250D02*
D03*
X1388000Y483750D02*
D03*
Y514750D02*
D03*
X1627500Y560250D02*
D03*
Y529250D02*
D03*
X875250Y635250D02*
D03*
Y666250D02*
D03*
X1388000Y636750D02*
D03*
Y667750D02*
D03*
X1627500Y713250D02*
D03*
Y682250D02*
D03*
X875250Y788250D02*
D03*
Y819250D02*
D03*
X1388000Y789750D02*
D03*
Y820750D02*
D03*
X1627500Y866250D02*
D03*
Y835250D02*
D03*
X875250Y941250D02*
D03*
Y972250D02*
D03*
X1388000Y942750D02*
D03*
Y973750D02*
D03*
X1627500Y1019250D02*
D03*
Y988250D02*
D03*
X875250Y1094250D02*
D03*
Y1125250D02*
D03*
X1388000Y1095750D02*
D03*
Y1126750D02*
D03*
X1627500Y1172250D02*
D03*
Y1141250D02*
D03*
X875250Y1247250D02*
D03*
Y1278250D02*
D03*
X1388000Y1248750D02*
D03*
Y1279750D02*
D03*
X1627500Y1325250D02*
D03*
Y1294250D02*
D03*
X875250Y1400250D02*
D03*
Y1431250D02*
D03*
X1388000Y1401750D02*
D03*
Y1432750D02*
D03*
X1627500Y1478250D02*
D03*
Y1447250D02*
D03*
X875250Y1553250D02*
D03*
Y1584250D02*
D03*
X1388000Y1554750D02*
D03*
Y1585750D02*
D03*
X1627500Y1631250D02*
D03*
Y1600250D02*
D03*
X875250Y1706250D02*
D03*
Y1737250D02*
D03*
X1388000Y1707750D02*
D03*
Y1738750D02*
D03*
X1627500Y1784250D02*
D03*
Y1753250D02*
D03*
X875250Y1859250D02*
D03*
Y1890250D02*
D03*
X1388000Y1860750D02*
D03*
Y1891750D02*
D03*
X1627500Y1937250D02*
D03*
Y1906250D02*
D03*
X875250Y2012250D02*
D03*
Y2043250D02*
D03*
X1388000Y2013750D02*
D03*
Y2044750D02*
D03*
X1627500Y2090250D02*
D03*
Y2059250D02*
D03*
D16*
X937750Y45000D02*
D03*
X912250Y35500D02*
D03*
Y54500D02*
D03*
X1453500Y48750D02*
D03*
X1428000Y39250D02*
D03*
Y58250D02*
D03*
X1564500Y77000D02*
D03*
X1590000Y86500D02*
D03*
Y67500D02*
D03*
X937750Y198000D02*
D03*
X912250Y188500D02*
D03*
Y207500D02*
D03*
X1453500Y201750D02*
D03*
X1428000Y192250D02*
D03*
Y211250D02*
D03*
X1564500Y230000D02*
D03*
X1590000Y239500D02*
D03*
Y220500D02*
D03*
X937750Y351000D02*
D03*
X912250Y341500D02*
D03*
Y360500D02*
D03*
X1453500Y354750D02*
D03*
X1428000Y345250D02*
D03*
Y364250D02*
D03*
X1564500Y383000D02*
D03*
X1590000Y392500D02*
D03*
Y373500D02*
D03*
X937750Y504000D02*
D03*
X912250Y494500D02*
D03*
Y513500D02*
D03*
X1453500Y507750D02*
D03*
X1428000Y498250D02*
D03*
Y517250D02*
D03*
X1564500Y536000D02*
D03*
X1590000Y545500D02*
D03*
Y526500D02*
D03*
X937750Y657000D02*
D03*
X912250Y647500D02*
D03*
Y666500D02*
D03*
X1453500Y660750D02*
D03*
X1428000Y651250D02*
D03*
Y670250D02*
D03*
X1564500Y689000D02*
D03*
X1590000Y698500D02*
D03*
Y679500D02*
D03*
X937750Y810000D02*
D03*
X912250Y800500D02*
D03*
Y819500D02*
D03*
X1453500Y813750D02*
D03*
X1428000Y804250D02*
D03*
Y823250D02*
D03*
X1564500Y842000D02*
D03*
X1590000Y851500D02*
D03*
Y832500D02*
D03*
X937750Y963000D02*
D03*
X912250Y953500D02*
D03*
Y972500D02*
D03*
X1453500Y966750D02*
D03*
X1428000Y957250D02*
D03*
Y976250D02*
D03*
X1564500Y995000D02*
D03*
X1590000Y1004500D02*
D03*
Y985500D02*
D03*
X937750Y1116000D02*
D03*
X912250Y1106500D02*
D03*
Y1125500D02*
D03*
X1453500Y1119750D02*
D03*
X1428000Y1110250D02*
D03*
Y1129250D02*
D03*
X1564500Y1148000D02*
D03*
X1590000Y1157500D02*
D03*
Y1138500D02*
D03*
X937750Y1269000D02*
D03*
X912250Y1259500D02*
D03*
Y1278500D02*
D03*
X1453500Y1272750D02*
D03*
X1428000Y1263250D02*
D03*
Y1282250D02*
D03*
X1564500Y1301000D02*
D03*
X1590000Y1310500D02*
D03*
Y1291500D02*
D03*
X937750Y1422000D02*
D03*
X912250Y1412500D02*
D03*
Y1431500D02*
D03*
X1453500Y1425750D02*
D03*
X1428000Y1416250D02*
D03*
Y1435250D02*
D03*
X1564500Y1454000D02*
D03*
X1590000Y1463500D02*
D03*
Y1444500D02*
D03*
X937750Y1575000D02*
D03*
X912250Y1565500D02*
D03*
Y1584500D02*
D03*
X1453500Y1578750D02*
D03*
X1428000Y1569250D02*
D03*
Y1588250D02*
D03*
X1564500Y1607000D02*
D03*
X1590000Y1616500D02*
D03*
Y1597500D02*
D03*
X937750Y1728000D02*
D03*
X912250Y1718500D02*
D03*
Y1737500D02*
D03*
X1453500Y1731750D02*
D03*
X1428000Y1722250D02*
D03*
Y1741250D02*
D03*
X1564500Y1760000D02*
D03*
X1590000Y1769500D02*
D03*
Y1750500D02*
D03*
X937750Y1881000D02*
D03*
X912250Y1871500D02*
D03*
Y1890500D02*
D03*
X1453500Y1884750D02*
D03*
X1428000Y1875250D02*
D03*
Y1894250D02*
D03*
X1564500Y1913000D02*
D03*
X1590000Y1922500D02*
D03*
Y1903500D02*
D03*
X937750Y2034000D02*
D03*
X912250Y2024500D02*
D03*
Y2043500D02*
D03*
X1453500Y2037750D02*
D03*
X1428000Y2028250D02*
D03*
Y2047250D02*
D03*
X1564500Y2066000D02*
D03*
X1590000Y2075500D02*
D03*
Y2056500D02*
D03*
D17*
X665000Y127500D02*
D03*
Y102500D02*
D03*
X595000Y127500D02*
D03*
Y102500D02*
D03*
X665000Y280500D02*
D03*
Y255500D02*
D03*
X595000Y280500D02*
D03*
Y255500D02*
D03*
X665000Y433500D02*
D03*
Y408500D02*
D03*
X595000Y433500D02*
D03*
Y408500D02*
D03*
X665000Y586500D02*
D03*
Y561500D02*
D03*
X595000Y586500D02*
D03*
Y561500D02*
D03*
X665000Y739500D02*
D03*
Y714500D02*
D03*
X595000Y739500D02*
D03*
Y714500D02*
D03*
X665000Y892500D02*
D03*
Y867500D02*
D03*
X595000Y892500D02*
D03*
Y867500D02*
D03*
X665000Y1045500D02*
D03*
Y1020500D02*
D03*
X595000Y1045500D02*
D03*
Y1020500D02*
D03*
X665000Y1198500D02*
D03*
Y1173500D02*
D03*
X595000Y1198500D02*
D03*
Y1173500D02*
D03*
X665000Y1351500D02*
D03*
Y1326500D02*
D03*
X595000Y1351500D02*
D03*
Y1326500D02*
D03*
X665000Y1504500D02*
D03*
Y1479500D02*
D03*
X595000Y1504500D02*
D03*
Y1479500D02*
D03*
X665000Y1657500D02*
D03*
Y1632500D02*
D03*
X595000Y1657500D02*
D03*
Y1632500D02*
D03*
X665000Y1810500D02*
D03*
Y1785500D02*
D03*
X595000Y1810500D02*
D03*
Y1785500D02*
D03*
X665000Y1963500D02*
D03*
Y1938500D02*
D03*
X595000Y1963500D02*
D03*
Y1938500D02*
D03*
X665000Y2116500D02*
D03*
Y2091500D02*
D03*
X595000Y2116500D02*
D03*
Y2091500D02*
D03*
D18*
X837500Y37500D02*
D03*
Y60000D02*
D03*
Y82500D02*
D03*
X1352500Y37500D02*
D03*
Y60000D02*
D03*
Y82500D02*
D03*
X1662500Y80000D02*
D03*
Y57500D02*
D03*
Y35000D02*
D03*
X837500Y190500D02*
D03*
Y213000D02*
D03*
Y235500D02*
D03*
X1352500Y190500D02*
D03*
Y213000D02*
D03*
Y235500D02*
D03*
X1662500Y233000D02*
D03*
Y210500D02*
D03*
Y188000D02*
D03*
X837500Y343500D02*
D03*
Y366000D02*
D03*
Y388500D02*
D03*
X1352500Y343500D02*
D03*
Y366000D02*
D03*
Y388500D02*
D03*
X1662500Y386000D02*
D03*
Y363500D02*
D03*
Y341000D02*
D03*
X837500Y496500D02*
D03*
Y519000D02*
D03*
Y541500D02*
D03*
X1352500Y496500D02*
D03*
Y519000D02*
D03*
Y541500D02*
D03*
X1662500Y539000D02*
D03*
Y516500D02*
D03*
Y494000D02*
D03*
X837500Y649500D02*
D03*
Y672000D02*
D03*
Y694500D02*
D03*
X1352500Y649500D02*
D03*
Y672000D02*
D03*
Y694500D02*
D03*
X1662500Y692000D02*
D03*
Y669500D02*
D03*
Y647000D02*
D03*
X837500Y802500D02*
D03*
Y825000D02*
D03*
Y847500D02*
D03*
X1352500Y802500D02*
D03*
Y825000D02*
D03*
Y847500D02*
D03*
X1662500Y845000D02*
D03*
Y822500D02*
D03*
Y800000D02*
D03*
X837500Y955500D02*
D03*
Y978000D02*
D03*
Y1000500D02*
D03*
X1352500Y955500D02*
D03*
Y978000D02*
D03*
Y1000500D02*
D03*
X1662500Y998000D02*
D03*
Y975500D02*
D03*
Y953000D02*
D03*
X837500Y1108500D02*
D03*
Y1131000D02*
D03*
Y1153500D02*
D03*
X1352500Y1108500D02*
D03*
Y1131000D02*
D03*
Y1153500D02*
D03*
X1662500Y1151000D02*
D03*
Y1128500D02*
D03*
Y1106000D02*
D03*
X837500Y1261500D02*
D03*
Y1284000D02*
D03*
Y1306500D02*
D03*
X1352500Y1261500D02*
D03*
Y1284000D02*
D03*
Y1306500D02*
D03*
X1662500Y1304000D02*
D03*
Y1281500D02*
D03*
Y1259000D02*
D03*
X837500Y1414500D02*
D03*
Y1437000D02*
D03*
Y1459500D02*
D03*
X1352500Y1414500D02*
D03*
Y1437000D02*
D03*
Y1459500D02*
D03*
X1662500Y1457000D02*
D03*
Y1434500D02*
D03*
Y1412000D02*
D03*
X837500Y1567500D02*
D03*
Y1590000D02*
D03*
Y1612500D02*
D03*
X1352500Y1567500D02*
D03*
Y1590000D02*
D03*
Y1612500D02*
D03*
X1662500Y1610000D02*
D03*
Y1587500D02*
D03*
Y1565000D02*
D03*
X837500Y1720500D02*
D03*
Y1743000D02*
D03*
Y1765500D02*
D03*
X1352500Y1720500D02*
D03*
Y1743000D02*
D03*
Y1765500D02*
D03*
X1662500Y1763000D02*
D03*
Y1740500D02*
D03*
Y1718000D02*
D03*
X837500Y1873500D02*
D03*
Y1896000D02*
D03*
Y1918500D02*
D03*
X1352500Y1873500D02*
D03*
Y1896000D02*
D03*
Y1918500D02*
D03*
X1662500Y1916000D02*
D03*
Y1893500D02*
D03*
Y1871000D02*
D03*
X837500Y2026500D02*
D03*
Y2049000D02*
D03*
Y2071500D02*
D03*
X1352500Y2026500D02*
D03*
Y2049000D02*
D03*
Y2071500D02*
D03*
X1662500Y2069000D02*
D03*
Y2046500D02*
D03*
Y2024000D02*
D03*
D19*
X775000Y60000D02*
D03*
X1290000D02*
D03*
X1725000Y57500D02*
D03*
X775000Y213000D02*
D03*
X1290000D02*
D03*
X1725000Y210500D02*
D03*
X775000Y366000D02*
D03*
X1290000D02*
D03*
X1725000Y363500D02*
D03*
X775000Y519000D02*
D03*
X1290000D02*
D03*
X1725000Y516500D02*
D03*
X775000Y672000D02*
D03*
X1290000D02*
D03*
X1725000Y669500D02*
D03*
X775000Y825000D02*
D03*
X1290000D02*
D03*
X1725000Y822500D02*
D03*
X775000Y978000D02*
D03*
X1290000D02*
D03*
X1725000Y975500D02*
D03*
X775000Y1131000D02*
D03*
X1290000D02*
D03*
X1725000Y1128500D02*
D03*
X775000Y1284000D02*
D03*
X1290000D02*
D03*
X1725000Y1281500D02*
D03*
X775000Y1437000D02*
D03*
X1290000D02*
D03*
X1725000Y1434500D02*
D03*
X775000Y1590000D02*
D03*
X1290000D02*
D03*
X1725000Y1587500D02*
D03*
X775000Y1743000D02*
D03*
X1290000D02*
D03*
X1725000Y1740500D02*
D03*
X775000Y1896000D02*
D03*
X1290000D02*
D03*
X1725000Y1893500D02*
D03*
X775000Y2049000D02*
D03*
X1290000D02*
D03*
X1725000Y2046500D02*
D03*
M02*
