G04 Layer_Color=128*
%FSLAX44Y44*%
%MOMM*%
G71*
G01*
G75*
%ADD164C,0.0508*%
D164*
X15000Y75000D02*
X35000D01*
X25000Y65000D02*
Y85000D01*
X15000Y2100000D02*
X35000D01*
X25000Y2090000D02*
Y2110000D01*
X2015000Y975000D02*
X2035000D01*
X2025000Y965000D02*
Y985000D01*
X681500Y49250D02*
X684500D01*
X683000Y47750D02*
Y50750D01*
X670250Y49500D02*
X673250D01*
X671750Y48000D02*
Y51000D01*
X1313500Y75000D02*
X1316500D01*
X1315000Y73500D02*
Y76500D01*
X1313500Y50000D02*
X1316500D01*
X1315000Y48500D02*
Y51500D01*
X728500Y115000D02*
X731500D01*
X730000Y113500D02*
Y116500D01*
X68500Y140000D02*
X71500D01*
X70000Y138500D02*
Y141500D01*
X86000Y140000D02*
X89000D01*
X87500Y138500D02*
Y141500D01*
X728500Y100000D02*
X731500D01*
X730000Y98500D02*
Y101500D01*
X1368500Y100000D02*
X1371500D01*
X1370000Y98500D02*
Y101500D01*
X1353500Y100000D02*
X1356500D01*
X1355000Y98500D02*
Y101500D01*
X1973500Y80000D02*
X1976500D01*
X1975000Y78500D02*
Y81500D01*
X1958500Y80000D02*
X1961500D01*
X1960000Y78500D02*
Y81500D01*
X681500Y202250D02*
X684500D01*
X683000Y200750D02*
Y203750D01*
X670250Y202500D02*
X673250D01*
X671750Y201000D02*
Y204000D01*
X1313500Y228000D02*
X1316500D01*
X1315000Y226500D02*
Y229500D01*
X1313500Y203000D02*
X1316500D01*
X1315000Y201500D02*
Y204500D01*
X728500Y268000D02*
X731500D01*
X730000Y266500D02*
Y269500D01*
X68500Y293000D02*
X71500D01*
X70000Y291500D02*
Y294500D01*
X86000Y293000D02*
X89000D01*
X87500Y291500D02*
Y294500D01*
X728500Y253000D02*
X731500D01*
X730000Y251500D02*
Y254500D01*
X1368500Y253000D02*
X1371500D01*
X1370000Y251500D02*
Y254500D01*
X1353500Y253000D02*
X1356500D01*
X1355000Y251500D02*
Y254500D01*
X1973500Y233000D02*
X1976500D01*
X1975000Y231500D02*
Y234500D01*
X1958500Y233000D02*
X1961500D01*
X1960000Y231500D02*
Y234500D01*
X681500Y355250D02*
X684500D01*
X683000Y353750D02*
Y356750D01*
X670250Y355500D02*
X673250D01*
X671750Y354000D02*
Y357000D01*
X1313500Y381000D02*
X1316500D01*
X1315000Y379500D02*
Y382500D01*
X1313500Y356000D02*
X1316500D01*
X1315000Y354500D02*
Y357500D01*
X728500Y421000D02*
X731500D01*
X730000Y419500D02*
Y422500D01*
X68500Y446000D02*
X71500D01*
X70000Y444500D02*
Y447500D01*
X86000Y446000D02*
X89000D01*
X87500Y444500D02*
Y447500D01*
X728500Y406000D02*
X731500D01*
X730000Y404500D02*
Y407500D01*
X1368500Y406000D02*
X1371500D01*
X1370000Y404500D02*
Y407500D01*
X1353500Y406000D02*
X1356500D01*
X1355000Y404500D02*
Y407500D01*
X1973500Y386000D02*
X1976500D01*
X1975000Y384500D02*
Y387500D01*
X1958500Y386000D02*
X1961500D01*
X1960000Y384500D02*
Y387500D01*
X681500Y508250D02*
X684500D01*
X683000Y506750D02*
Y509750D01*
X670250Y508500D02*
X673250D01*
X671750Y507000D02*
Y510000D01*
X1313500Y534000D02*
X1316500D01*
X1315000Y532500D02*
Y535500D01*
X1313500Y509000D02*
X1316500D01*
X1315000Y507500D02*
Y510500D01*
X728500Y574000D02*
X731500D01*
X730000Y572500D02*
Y575500D01*
X68500Y599000D02*
X71500D01*
X70000Y597500D02*
Y600500D01*
X86000Y599000D02*
X89000D01*
X87500Y597500D02*
Y600500D01*
X728500Y559000D02*
X731500D01*
X730000Y557500D02*
Y560500D01*
X1368500Y559000D02*
X1371500D01*
X1370000Y557500D02*
Y560500D01*
X1353500Y559000D02*
X1356500D01*
X1355000Y557500D02*
Y560500D01*
X1973500Y539000D02*
X1976500D01*
X1975000Y537500D02*
Y540500D01*
X1958500Y539000D02*
X1961500D01*
X1960000Y537500D02*
Y540500D01*
X681500Y661250D02*
X684500D01*
X683000Y659750D02*
Y662750D01*
X670250Y661500D02*
X673250D01*
X671750Y660000D02*
Y663000D01*
X1313500Y687000D02*
X1316500D01*
X1315000Y685500D02*
Y688500D01*
X1313500Y662000D02*
X1316500D01*
X1315000Y660500D02*
Y663500D01*
X728500Y727000D02*
X731500D01*
X730000Y725500D02*
Y728500D01*
X68500Y752000D02*
X71500D01*
X70000Y750500D02*
Y753500D01*
X86000Y752000D02*
X89000D01*
X87500Y750500D02*
Y753500D01*
X728500Y712000D02*
X731500D01*
X730000Y710500D02*
Y713500D01*
X1368500Y712000D02*
X1371500D01*
X1370000Y710500D02*
Y713500D01*
X1353500Y712000D02*
X1356500D01*
X1355000Y710500D02*
Y713500D01*
X1973500Y692000D02*
X1976500D01*
X1975000Y690500D02*
Y693500D01*
X1958500Y692000D02*
X1961500D01*
X1960000Y690500D02*
Y693500D01*
X681500Y814250D02*
X684500D01*
X683000Y812750D02*
Y815750D01*
X670250Y814500D02*
X673250D01*
X671750Y813000D02*
Y816000D01*
X1313500Y840000D02*
X1316500D01*
X1315000Y838500D02*
Y841500D01*
X1313500Y815000D02*
X1316500D01*
X1315000Y813500D02*
Y816500D01*
X728500Y880000D02*
X731500D01*
X730000Y878500D02*
Y881500D01*
X68500Y905000D02*
X71500D01*
X70000Y903500D02*
Y906500D01*
X86000Y905000D02*
X89000D01*
X87500Y903500D02*
Y906500D01*
X728500Y865000D02*
X731500D01*
X730000Y863500D02*
Y866500D01*
X1368500Y865000D02*
X1371500D01*
X1370000Y863500D02*
Y866500D01*
X1353500Y865000D02*
X1356500D01*
X1355000Y863500D02*
Y866500D01*
X1973500Y845000D02*
X1976500D01*
X1975000Y843500D02*
Y846500D01*
X1958500Y845000D02*
X1961500D01*
X1960000Y843500D02*
Y846500D01*
X681500Y967250D02*
X684500D01*
X683000Y965750D02*
Y968750D01*
X670250Y967500D02*
X673250D01*
X671750Y966000D02*
Y969000D01*
X1313500Y993000D02*
X1316500D01*
X1315000Y991500D02*
Y994500D01*
X1313500Y968000D02*
X1316500D01*
X1315000Y966500D02*
Y969500D01*
X728500Y1033000D02*
X731500D01*
X730000Y1031500D02*
Y1034500D01*
X68500Y1058000D02*
X71500D01*
X70000Y1056500D02*
Y1059500D01*
X86000Y1058000D02*
X89000D01*
X87500Y1056500D02*
Y1059500D01*
X728500Y1018000D02*
X731500D01*
X730000Y1016500D02*
Y1019500D01*
X1368500Y1018000D02*
X1371500D01*
X1370000Y1016500D02*
Y1019500D01*
X1353500Y1018000D02*
X1356500D01*
X1355000Y1016500D02*
Y1019500D01*
X1973500Y998000D02*
X1976500D01*
X1975000Y996500D02*
Y999500D01*
X1958500Y998000D02*
X1961500D01*
X1960000Y996500D02*
Y999500D01*
X681500Y1120250D02*
X684500D01*
X683000Y1118750D02*
Y1121750D01*
X670250Y1120500D02*
X673250D01*
X671750Y1119000D02*
Y1122000D01*
X1313500Y1146000D02*
X1316500D01*
X1315000Y1144500D02*
Y1147500D01*
X1313500Y1121000D02*
X1316500D01*
X1315000Y1119500D02*
Y1122500D01*
X728500Y1186000D02*
X731500D01*
X730000Y1184500D02*
Y1187500D01*
X68500Y1211000D02*
X71500D01*
X70000Y1209500D02*
Y1212500D01*
X86000Y1211000D02*
X89000D01*
X87500Y1209500D02*
Y1212500D01*
X728500Y1171000D02*
X731500D01*
X730000Y1169500D02*
Y1172500D01*
X1368500Y1171000D02*
X1371500D01*
X1370000Y1169500D02*
Y1172500D01*
X1353500Y1171000D02*
X1356500D01*
X1355000Y1169500D02*
Y1172500D01*
X1973500Y1151000D02*
X1976500D01*
X1975000Y1149500D02*
Y1152500D01*
X1958500Y1151000D02*
X1961500D01*
X1960000Y1149500D02*
Y1152500D01*
X681500Y1273250D02*
X684500D01*
X683000Y1271750D02*
Y1274750D01*
X670250Y1273500D02*
X673250D01*
X671750Y1272000D02*
Y1275000D01*
X1313500Y1299000D02*
X1316500D01*
X1315000Y1297500D02*
Y1300500D01*
X1313500Y1274000D02*
X1316500D01*
X1315000Y1272500D02*
Y1275500D01*
X728500Y1339000D02*
X731500D01*
X730000Y1337500D02*
Y1340500D01*
X68500Y1364000D02*
X71500D01*
X70000Y1362500D02*
Y1365500D01*
X86000Y1364000D02*
X89000D01*
X87500Y1362500D02*
Y1365500D01*
X728500Y1324000D02*
X731500D01*
X730000Y1322500D02*
Y1325500D01*
X1368500Y1324000D02*
X1371500D01*
X1370000Y1322500D02*
Y1325500D01*
X1353500Y1324000D02*
X1356500D01*
X1355000Y1322500D02*
Y1325500D01*
X1973500Y1304000D02*
X1976500D01*
X1975000Y1302500D02*
Y1305500D01*
X1958500Y1304000D02*
X1961500D01*
X1960000Y1302500D02*
Y1305500D01*
X681500Y1426250D02*
X684500D01*
X683000Y1424750D02*
Y1427750D01*
X670250Y1426500D02*
X673250D01*
X671750Y1425000D02*
Y1428000D01*
X1313500Y1452000D02*
X1316500D01*
X1315000Y1450500D02*
Y1453500D01*
X1313500Y1427000D02*
X1316500D01*
X1315000Y1425500D02*
Y1428500D01*
X728500Y1492000D02*
X731500D01*
X730000Y1490500D02*
Y1493500D01*
X68500Y1517000D02*
X71500D01*
X70000Y1515500D02*
Y1518500D01*
X86000Y1517000D02*
X89000D01*
X87500Y1515500D02*
Y1518500D01*
X728500Y1477000D02*
X731500D01*
X730000Y1475500D02*
Y1478500D01*
X1368500Y1477000D02*
X1371500D01*
X1370000Y1475500D02*
Y1478500D01*
X1353500Y1477000D02*
X1356500D01*
X1355000Y1475500D02*
Y1478500D01*
X1973500Y1457000D02*
X1976500D01*
X1975000Y1455500D02*
Y1458500D01*
X1958500Y1457000D02*
X1961500D01*
X1960000Y1455500D02*
Y1458500D01*
X681500Y1579250D02*
X684500D01*
X683000Y1577750D02*
Y1580750D01*
X670250Y1579500D02*
X673250D01*
X671750Y1578000D02*
Y1581000D01*
X1313500Y1605000D02*
X1316500D01*
X1315000Y1603500D02*
Y1606500D01*
X1313500Y1580000D02*
X1316500D01*
X1315000Y1578500D02*
Y1581500D01*
X728500Y1645000D02*
X731500D01*
X730000Y1643500D02*
Y1646500D01*
X68500Y1670000D02*
X71500D01*
X70000Y1668500D02*
Y1671500D01*
X86000Y1670000D02*
X89000D01*
X87500Y1668500D02*
Y1671500D01*
X728500Y1630000D02*
X731500D01*
X730000Y1628500D02*
Y1631500D01*
X1368500Y1630000D02*
X1371500D01*
X1370000Y1628500D02*
Y1631500D01*
X1353500Y1630000D02*
X1356500D01*
X1355000Y1628500D02*
Y1631500D01*
X1973500Y1610000D02*
X1976500D01*
X1975000Y1608500D02*
Y1611500D01*
X1958500Y1610000D02*
X1961500D01*
X1960000Y1608500D02*
Y1611500D01*
X681500Y1732250D02*
X684500D01*
X683000Y1730750D02*
Y1733750D01*
X670250Y1732500D02*
X673250D01*
X671750Y1731000D02*
Y1734000D01*
X1313500Y1758000D02*
X1316500D01*
X1315000Y1756500D02*
Y1759500D01*
X1313500Y1733000D02*
X1316500D01*
X1315000Y1731500D02*
Y1734500D01*
X728500Y1798000D02*
X731500D01*
X730000Y1796500D02*
Y1799500D01*
X68500Y1823000D02*
X71500D01*
X70000Y1821500D02*
Y1824500D01*
X86000Y1823000D02*
X89000D01*
X87500Y1821500D02*
Y1824500D01*
X728500Y1783000D02*
X731500D01*
X730000Y1781500D02*
Y1784500D01*
X1368500Y1783000D02*
X1371500D01*
X1370000Y1781500D02*
Y1784500D01*
X1353500Y1783000D02*
X1356500D01*
X1355000Y1781500D02*
Y1784500D01*
X1973500Y1763000D02*
X1976500D01*
X1975000Y1761500D02*
Y1764500D01*
X1958500Y1763000D02*
X1961500D01*
X1960000Y1761500D02*
Y1764500D01*
X681500Y1885250D02*
X684500D01*
X683000Y1883750D02*
Y1886750D01*
X670250Y1885500D02*
X673250D01*
X671750Y1884000D02*
Y1887000D01*
X1313500Y1911000D02*
X1316500D01*
X1315000Y1909500D02*
Y1912500D01*
X1313500Y1886000D02*
X1316500D01*
X1315000Y1884500D02*
Y1887500D01*
X728500Y1951000D02*
X731500D01*
X730000Y1949500D02*
Y1952500D01*
X68500Y1976000D02*
X71500D01*
X70000Y1974500D02*
Y1977500D01*
X86000Y1976000D02*
X89000D01*
X87500Y1974500D02*
Y1977500D01*
X728500Y1936000D02*
X731500D01*
X730000Y1934500D02*
Y1937500D01*
X1368500Y1936000D02*
X1371500D01*
X1370000Y1934500D02*
Y1937500D01*
X1353500Y1936000D02*
X1356500D01*
X1355000Y1934500D02*
Y1937500D01*
X1973500Y1916000D02*
X1976500D01*
X1975000Y1914500D02*
Y1917500D01*
X1958500Y1916000D02*
X1961500D01*
X1960000Y1914500D02*
Y1917500D01*
X681500Y2038250D02*
X684500D01*
X683000Y2036750D02*
Y2039750D01*
X670250Y2038500D02*
X673250D01*
X671750Y2037000D02*
Y2040000D01*
X1313500Y2064000D02*
X1316500D01*
X1315000Y2062500D02*
Y2065500D01*
X1313500Y2039000D02*
X1316500D01*
X1315000Y2037500D02*
Y2040500D01*
X728500Y2104000D02*
X731500D01*
X730000Y2102500D02*
Y2105500D01*
X68500Y2129000D02*
X71500D01*
X70000Y2127500D02*
Y2130500D01*
X86000Y2129000D02*
X89000D01*
X87500Y2127500D02*
Y2130500D01*
X728500Y2089000D02*
X731500D01*
X730000Y2087500D02*
Y2090500D01*
X1368500Y2089000D02*
X1371500D01*
X1370000Y2087500D02*
Y2090500D01*
X1353500Y2089000D02*
X1356500D01*
X1355000Y2087500D02*
Y2090500D01*
X1973500Y2069000D02*
X1976500D01*
X1975000Y2067500D02*
Y2070500D01*
X1958500Y2069000D02*
X1961500D01*
X1960000Y2067500D02*
Y2070500D01*
M02*
