G04 Layer_Color=2752767*
%FSLAX44Y44*%
%MOMM*%
G71*
G01*
G75*
%ADD171C,0.0508*%
%ADD172C,0.0677*%
D171*
X22968Y2097968D02*
Y2102032D01*
X27032D01*
Y2097968D01*
X22968D01*
Y122968D02*
Y127032D01*
X27032D01*
Y122968D01*
X22968D01*
X2022968Y1017968D02*
Y1022032D01*
X2027032D01*
Y1017968D01*
X2022968D01*
X236750Y74468D02*
X234718Y78532D01*
X238782D01*
X236750Y74468D01*
Y227468D02*
X234718Y231532D01*
X238782D01*
X236750Y227468D01*
Y380468D02*
X234718Y384532D01*
X238782D01*
X236750Y380468D01*
Y533468D02*
X234718Y537532D01*
X238782D01*
X236750Y533468D01*
Y686468D02*
X234718Y690532D01*
X238782D01*
X236750Y686468D01*
Y839468D02*
X234718Y843532D01*
X238782D01*
X236750Y839468D01*
Y992468D02*
X234718Y996532D01*
X238782D01*
X236750Y992468D01*
Y1145468D02*
X234718Y1149532D01*
X238782D01*
X236750Y1145468D01*
Y1298468D02*
X234718Y1302532D01*
X238782D01*
X236750Y1298468D01*
Y1451468D02*
X234718Y1455532D01*
X238782D01*
X236750Y1451468D01*
Y1604468D02*
X234718Y1608532D01*
X238782D01*
X236750Y1604468D01*
Y1757468D02*
X234718Y1761532D01*
X238782D01*
X236750Y1757468D01*
Y1910468D02*
X234718Y1914532D01*
X238782D01*
X236750Y1910468D01*
Y2063468D02*
X234718Y2067532D01*
X238782D01*
X236750Y2063468D01*
D172*
X1832032Y119000D02*
G03*
X1832032Y119000I-2032J0D01*
G01*
X1843032D02*
G03*
X1843032Y119000I-2032J0D01*
G01*
X1856032D02*
G03*
X1856032Y119000I-2032J0D01*
G01*
X1869032D02*
G03*
X1869032Y119000I-2032J0D01*
G01*
X1317782Y95000D02*
G03*
X1317782Y95000I-2032J0D01*
G01*
X685032Y49250D02*
G03*
X685032Y49250I-2032J0D01*
G01*
X673782Y49500D02*
G03*
X673782Y49500I-2032J0D01*
G01*
X1317032Y40750D02*
G03*
X1317032Y40750I-2032J0D01*
G01*
X732032Y115000D02*
G03*
X732032Y115000I-2032J0D01*
G01*
X72032Y140000D02*
G03*
X72032Y140000I-2032J0D01*
G01*
X89532D02*
G03*
X89532Y140000I-2032J0D01*
G01*
X732032Y100000D02*
G03*
X732032Y100000I-2032J0D01*
G01*
X1372032D02*
G03*
X1372032Y100000I-2032J0D01*
G01*
X1357032D02*
G03*
X1357032Y100000I-2032J0D01*
G01*
X1977032Y80000D02*
G03*
X1977032Y80000I-2032J0D01*
G01*
X1962032D02*
G03*
X1962032Y80000I-2032J0D01*
G01*
X567032Y125000D02*
G03*
X567032Y125000I-2032J0D01*
G01*
X577032Y135000D02*
G03*
X577032Y135000I-2032J0D01*
G01*
X1832032Y272000D02*
G03*
X1832032Y272000I-2032J0D01*
G01*
X1843032D02*
G03*
X1843032Y272000I-2032J0D01*
G01*
X1856032D02*
G03*
X1856032Y272000I-2032J0D01*
G01*
X1869032D02*
G03*
X1869032Y272000I-2032J0D01*
G01*
X1317782Y248000D02*
G03*
X1317782Y248000I-2032J0D01*
G01*
X685032Y202250D02*
G03*
X685032Y202250I-2032J0D01*
G01*
X673782Y202500D02*
G03*
X673782Y202500I-2032J0D01*
G01*
X1317032Y193750D02*
G03*
X1317032Y193750I-2032J0D01*
G01*
X732032Y268000D02*
G03*
X732032Y268000I-2032J0D01*
G01*
X72032Y293000D02*
G03*
X72032Y293000I-2032J0D01*
G01*
X89532D02*
G03*
X89532Y293000I-2032J0D01*
G01*
X732032Y253000D02*
G03*
X732032Y253000I-2032J0D01*
G01*
X1372032D02*
G03*
X1372032Y253000I-2032J0D01*
G01*
X1357032D02*
G03*
X1357032Y253000I-2032J0D01*
G01*
X1977032Y233000D02*
G03*
X1977032Y233000I-2032J0D01*
G01*
X1962032D02*
G03*
X1962032Y233000I-2032J0D01*
G01*
X567032Y278000D02*
G03*
X567032Y278000I-2032J0D01*
G01*
X577032Y288000D02*
G03*
X577032Y288000I-2032J0D01*
G01*
X1832032Y425000D02*
G03*
X1832032Y425000I-2032J0D01*
G01*
X1843032D02*
G03*
X1843032Y425000I-2032J0D01*
G01*
X1856032D02*
G03*
X1856032Y425000I-2032J0D01*
G01*
X1869032D02*
G03*
X1869032Y425000I-2032J0D01*
G01*
X1317782Y401000D02*
G03*
X1317782Y401000I-2032J0D01*
G01*
X685032Y355250D02*
G03*
X685032Y355250I-2032J0D01*
G01*
X673782Y355500D02*
G03*
X673782Y355500I-2032J0D01*
G01*
X1317032Y346750D02*
G03*
X1317032Y346750I-2032J0D01*
G01*
X732032Y421000D02*
G03*
X732032Y421000I-2032J0D01*
G01*
X72032Y446000D02*
G03*
X72032Y446000I-2032J0D01*
G01*
X89532D02*
G03*
X89532Y446000I-2032J0D01*
G01*
X732032Y406000D02*
G03*
X732032Y406000I-2032J0D01*
G01*
X1372032D02*
G03*
X1372032Y406000I-2032J0D01*
G01*
X1357032D02*
G03*
X1357032Y406000I-2032J0D01*
G01*
X1977032Y386000D02*
G03*
X1977032Y386000I-2032J0D01*
G01*
X1962032D02*
G03*
X1962032Y386000I-2032J0D01*
G01*
X567032Y431000D02*
G03*
X567032Y431000I-2032J0D01*
G01*
X577032Y441000D02*
G03*
X577032Y441000I-2032J0D01*
G01*
X1832032Y578000D02*
G03*
X1832032Y578000I-2032J0D01*
G01*
X1843032D02*
G03*
X1843032Y578000I-2032J0D01*
G01*
X1856032D02*
G03*
X1856032Y578000I-2032J0D01*
G01*
X1869032D02*
G03*
X1869032Y578000I-2032J0D01*
G01*
X1317782Y554000D02*
G03*
X1317782Y554000I-2032J0D01*
G01*
X685032Y508250D02*
G03*
X685032Y508250I-2032J0D01*
G01*
X673782Y508500D02*
G03*
X673782Y508500I-2032J0D01*
G01*
X1317032Y499750D02*
G03*
X1317032Y499750I-2032J0D01*
G01*
X732032Y574000D02*
G03*
X732032Y574000I-2032J0D01*
G01*
X72032Y599000D02*
G03*
X72032Y599000I-2032J0D01*
G01*
X89532D02*
G03*
X89532Y599000I-2032J0D01*
G01*
X732032Y559000D02*
G03*
X732032Y559000I-2032J0D01*
G01*
X1372032D02*
G03*
X1372032Y559000I-2032J0D01*
G01*
X1357032D02*
G03*
X1357032Y559000I-2032J0D01*
G01*
X1977032Y539000D02*
G03*
X1977032Y539000I-2032J0D01*
G01*
X1962032D02*
G03*
X1962032Y539000I-2032J0D01*
G01*
X567032Y584000D02*
G03*
X567032Y584000I-2032J0D01*
G01*
X577032Y594000D02*
G03*
X577032Y594000I-2032J0D01*
G01*
X1832032Y731000D02*
G03*
X1832032Y731000I-2032J0D01*
G01*
X1843032D02*
G03*
X1843032Y731000I-2032J0D01*
G01*
X1856032D02*
G03*
X1856032Y731000I-2032J0D01*
G01*
X1869032D02*
G03*
X1869032Y731000I-2032J0D01*
G01*
X1317782Y707000D02*
G03*
X1317782Y707000I-2032J0D01*
G01*
X685032Y661250D02*
G03*
X685032Y661250I-2032J0D01*
G01*
X673782Y661500D02*
G03*
X673782Y661500I-2032J0D01*
G01*
X1317032Y652750D02*
G03*
X1317032Y652750I-2032J0D01*
G01*
X732032Y727000D02*
G03*
X732032Y727000I-2032J0D01*
G01*
X72032Y752000D02*
G03*
X72032Y752000I-2032J0D01*
G01*
X89532D02*
G03*
X89532Y752000I-2032J0D01*
G01*
X732032Y712000D02*
G03*
X732032Y712000I-2032J0D01*
G01*
X1372032D02*
G03*
X1372032Y712000I-2032J0D01*
G01*
X1357032D02*
G03*
X1357032Y712000I-2032J0D01*
G01*
X1977032Y692000D02*
G03*
X1977032Y692000I-2032J0D01*
G01*
X1962032D02*
G03*
X1962032Y692000I-2032J0D01*
G01*
X567032Y737000D02*
G03*
X567032Y737000I-2032J0D01*
G01*
X577032Y747000D02*
G03*
X577032Y747000I-2032J0D01*
G01*
X1832032Y884000D02*
G03*
X1832032Y884000I-2032J0D01*
G01*
X1843032D02*
G03*
X1843032Y884000I-2032J0D01*
G01*
X1856032D02*
G03*
X1856032Y884000I-2032J0D01*
G01*
X1869032D02*
G03*
X1869032Y884000I-2032J0D01*
G01*
X1317782Y860000D02*
G03*
X1317782Y860000I-2032J0D01*
G01*
X685032Y814250D02*
G03*
X685032Y814250I-2032J0D01*
G01*
X673782Y814500D02*
G03*
X673782Y814500I-2032J0D01*
G01*
X1317032Y805750D02*
G03*
X1317032Y805750I-2032J0D01*
G01*
X732032Y880000D02*
G03*
X732032Y880000I-2032J0D01*
G01*
X72032Y905000D02*
G03*
X72032Y905000I-2032J0D01*
G01*
X89532D02*
G03*
X89532Y905000I-2032J0D01*
G01*
X732032Y865000D02*
G03*
X732032Y865000I-2032J0D01*
G01*
X1372032D02*
G03*
X1372032Y865000I-2032J0D01*
G01*
X1357032D02*
G03*
X1357032Y865000I-2032J0D01*
G01*
X1977032Y845000D02*
G03*
X1977032Y845000I-2032J0D01*
G01*
X1962032D02*
G03*
X1962032Y845000I-2032J0D01*
G01*
X567032Y890000D02*
G03*
X567032Y890000I-2032J0D01*
G01*
X577032Y900000D02*
G03*
X577032Y900000I-2032J0D01*
G01*
X1832032Y1037000D02*
G03*
X1832032Y1037000I-2032J0D01*
G01*
X1843032D02*
G03*
X1843032Y1037000I-2032J0D01*
G01*
X1856032D02*
G03*
X1856032Y1037000I-2032J0D01*
G01*
X1869032D02*
G03*
X1869032Y1037000I-2032J0D01*
G01*
X1317782Y1013000D02*
G03*
X1317782Y1013000I-2032J0D01*
G01*
X685032Y967250D02*
G03*
X685032Y967250I-2032J0D01*
G01*
X673782Y967500D02*
G03*
X673782Y967500I-2032J0D01*
G01*
X1317032Y958750D02*
G03*
X1317032Y958750I-2032J0D01*
G01*
X732032Y1033000D02*
G03*
X732032Y1033000I-2032J0D01*
G01*
X72032Y1058000D02*
G03*
X72032Y1058000I-2032J0D01*
G01*
X89532D02*
G03*
X89532Y1058000I-2032J0D01*
G01*
X732032Y1018000D02*
G03*
X732032Y1018000I-2032J0D01*
G01*
X1372032D02*
G03*
X1372032Y1018000I-2032J0D01*
G01*
X1357032D02*
G03*
X1357032Y1018000I-2032J0D01*
G01*
X1977032Y998000D02*
G03*
X1977032Y998000I-2032J0D01*
G01*
X1962032D02*
G03*
X1962032Y998000I-2032J0D01*
G01*
X567032Y1043000D02*
G03*
X567032Y1043000I-2032J0D01*
G01*
X577032Y1053000D02*
G03*
X577032Y1053000I-2032J0D01*
G01*
X1832032Y1190000D02*
G03*
X1832032Y1190000I-2032J0D01*
G01*
X1843032D02*
G03*
X1843032Y1190000I-2032J0D01*
G01*
X1856032D02*
G03*
X1856032Y1190000I-2032J0D01*
G01*
X1869032D02*
G03*
X1869032Y1190000I-2032J0D01*
G01*
X1317782Y1166000D02*
G03*
X1317782Y1166000I-2032J0D01*
G01*
X685032Y1120250D02*
G03*
X685032Y1120250I-2032J0D01*
G01*
X673782Y1120500D02*
G03*
X673782Y1120500I-2032J0D01*
G01*
X1317032Y1111750D02*
G03*
X1317032Y1111750I-2032J0D01*
G01*
X732032Y1186000D02*
G03*
X732032Y1186000I-2032J0D01*
G01*
X72032Y1211000D02*
G03*
X72032Y1211000I-2032J0D01*
G01*
X89532D02*
G03*
X89532Y1211000I-2032J0D01*
G01*
X732032Y1171000D02*
G03*
X732032Y1171000I-2032J0D01*
G01*
X1372032D02*
G03*
X1372032Y1171000I-2032J0D01*
G01*
X1357032D02*
G03*
X1357032Y1171000I-2032J0D01*
G01*
X1977032Y1151000D02*
G03*
X1977032Y1151000I-2032J0D01*
G01*
X1962032D02*
G03*
X1962032Y1151000I-2032J0D01*
G01*
X567032Y1196000D02*
G03*
X567032Y1196000I-2032J0D01*
G01*
X577032Y1206000D02*
G03*
X577032Y1206000I-2032J0D01*
G01*
X1832032Y1343000D02*
G03*
X1832032Y1343000I-2032J0D01*
G01*
X1843032D02*
G03*
X1843032Y1343000I-2032J0D01*
G01*
X1856032D02*
G03*
X1856032Y1343000I-2032J0D01*
G01*
X1869032D02*
G03*
X1869032Y1343000I-2032J0D01*
G01*
X1317782Y1319000D02*
G03*
X1317782Y1319000I-2032J0D01*
G01*
X685032Y1273250D02*
G03*
X685032Y1273250I-2032J0D01*
G01*
X673782Y1273500D02*
G03*
X673782Y1273500I-2032J0D01*
G01*
X1317032Y1264750D02*
G03*
X1317032Y1264750I-2032J0D01*
G01*
X732032Y1339000D02*
G03*
X732032Y1339000I-2032J0D01*
G01*
X72032Y1364000D02*
G03*
X72032Y1364000I-2032J0D01*
G01*
X89532D02*
G03*
X89532Y1364000I-2032J0D01*
G01*
X732032Y1324000D02*
G03*
X732032Y1324000I-2032J0D01*
G01*
X1372032D02*
G03*
X1372032Y1324000I-2032J0D01*
G01*
X1357032D02*
G03*
X1357032Y1324000I-2032J0D01*
G01*
X1977032Y1304000D02*
G03*
X1977032Y1304000I-2032J0D01*
G01*
X1962032D02*
G03*
X1962032Y1304000I-2032J0D01*
G01*
X567032Y1349000D02*
G03*
X567032Y1349000I-2032J0D01*
G01*
X577032Y1359000D02*
G03*
X577032Y1359000I-2032J0D01*
G01*
X1832032Y1496000D02*
G03*
X1832032Y1496000I-2032J0D01*
G01*
X1843032D02*
G03*
X1843032Y1496000I-2032J0D01*
G01*
X1856032D02*
G03*
X1856032Y1496000I-2032J0D01*
G01*
X1869032D02*
G03*
X1869032Y1496000I-2032J0D01*
G01*
X1317782Y1472000D02*
G03*
X1317782Y1472000I-2032J0D01*
G01*
X685032Y1426250D02*
G03*
X685032Y1426250I-2032J0D01*
G01*
X673782Y1426500D02*
G03*
X673782Y1426500I-2032J0D01*
G01*
X1317032Y1417750D02*
G03*
X1317032Y1417750I-2032J0D01*
G01*
X732032Y1492000D02*
G03*
X732032Y1492000I-2032J0D01*
G01*
X72032Y1517000D02*
G03*
X72032Y1517000I-2032J0D01*
G01*
X89532D02*
G03*
X89532Y1517000I-2032J0D01*
G01*
X732032Y1477000D02*
G03*
X732032Y1477000I-2032J0D01*
G01*
X1372032D02*
G03*
X1372032Y1477000I-2032J0D01*
G01*
X1357032D02*
G03*
X1357032Y1477000I-2032J0D01*
G01*
X1977032Y1457000D02*
G03*
X1977032Y1457000I-2032J0D01*
G01*
X1962032D02*
G03*
X1962032Y1457000I-2032J0D01*
G01*
X567032Y1502000D02*
G03*
X567032Y1502000I-2032J0D01*
G01*
X577032Y1512000D02*
G03*
X577032Y1512000I-2032J0D01*
G01*
X1832032Y1649000D02*
G03*
X1832032Y1649000I-2032J0D01*
G01*
X1843032D02*
G03*
X1843032Y1649000I-2032J0D01*
G01*
X1856032D02*
G03*
X1856032Y1649000I-2032J0D01*
G01*
X1869032D02*
G03*
X1869032Y1649000I-2032J0D01*
G01*
X1317782Y1625000D02*
G03*
X1317782Y1625000I-2032J0D01*
G01*
X685032Y1579250D02*
G03*
X685032Y1579250I-2032J0D01*
G01*
X673782Y1579500D02*
G03*
X673782Y1579500I-2032J0D01*
G01*
X1317032Y1570750D02*
G03*
X1317032Y1570750I-2032J0D01*
G01*
X732032Y1645000D02*
G03*
X732032Y1645000I-2032J0D01*
G01*
X72032Y1670000D02*
G03*
X72032Y1670000I-2032J0D01*
G01*
X89532D02*
G03*
X89532Y1670000I-2032J0D01*
G01*
X732032Y1630000D02*
G03*
X732032Y1630000I-2032J0D01*
G01*
X1372032D02*
G03*
X1372032Y1630000I-2032J0D01*
G01*
X1357032D02*
G03*
X1357032Y1630000I-2032J0D01*
G01*
X1977032Y1610000D02*
G03*
X1977032Y1610000I-2032J0D01*
G01*
X1962032D02*
G03*
X1962032Y1610000I-2032J0D01*
G01*
X567032Y1655000D02*
G03*
X567032Y1655000I-2032J0D01*
G01*
X577032Y1665000D02*
G03*
X577032Y1665000I-2032J0D01*
G01*
X1832032Y1802000D02*
G03*
X1832032Y1802000I-2032J0D01*
G01*
X1843032D02*
G03*
X1843032Y1802000I-2032J0D01*
G01*
X1856032D02*
G03*
X1856032Y1802000I-2032J0D01*
G01*
X1869032D02*
G03*
X1869032Y1802000I-2032J0D01*
G01*
X1317782Y1778000D02*
G03*
X1317782Y1778000I-2032J0D01*
G01*
X685032Y1732250D02*
G03*
X685032Y1732250I-2032J0D01*
G01*
X673782Y1732500D02*
G03*
X673782Y1732500I-2032J0D01*
G01*
X1317032Y1723750D02*
G03*
X1317032Y1723750I-2032J0D01*
G01*
X732032Y1798000D02*
G03*
X732032Y1798000I-2032J0D01*
G01*
X72032Y1823000D02*
G03*
X72032Y1823000I-2032J0D01*
G01*
X89532D02*
G03*
X89532Y1823000I-2032J0D01*
G01*
X732032Y1783000D02*
G03*
X732032Y1783000I-2032J0D01*
G01*
X1372032D02*
G03*
X1372032Y1783000I-2032J0D01*
G01*
X1357032D02*
G03*
X1357032Y1783000I-2032J0D01*
G01*
X1977032Y1763000D02*
G03*
X1977032Y1763000I-2032J0D01*
G01*
X1962032D02*
G03*
X1962032Y1763000I-2032J0D01*
G01*
X567032Y1808000D02*
G03*
X567032Y1808000I-2032J0D01*
G01*
X577032Y1818000D02*
G03*
X577032Y1818000I-2032J0D01*
G01*
X1832032Y1955000D02*
G03*
X1832032Y1955000I-2032J0D01*
G01*
X1843032D02*
G03*
X1843032Y1955000I-2032J0D01*
G01*
X1856032D02*
G03*
X1856032Y1955000I-2032J0D01*
G01*
X1869032D02*
G03*
X1869032Y1955000I-2032J0D01*
G01*
X1317782Y1931000D02*
G03*
X1317782Y1931000I-2032J0D01*
G01*
X685032Y1885250D02*
G03*
X685032Y1885250I-2032J0D01*
G01*
X673782Y1885500D02*
G03*
X673782Y1885500I-2032J0D01*
G01*
X1317032Y1876750D02*
G03*
X1317032Y1876750I-2032J0D01*
G01*
X732032Y1951000D02*
G03*
X732032Y1951000I-2032J0D01*
G01*
X72032Y1976000D02*
G03*
X72032Y1976000I-2032J0D01*
G01*
X89532D02*
G03*
X89532Y1976000I-2032J0D01*
G01*
X732032Y1936000D02*
G03*
X732032Y1936000I-2032J0D01*
G01*
X1372032D02*
G03*
X1372032Y1936000I-2032J0D01*
G01*
X1357032D02*
G03*
X1357032Y1936000I-2032J0D01*
G01*
X1977032Y1916000D02*
G03*
X1977032Y1916000I-2032J0D01*
G01*
X1962032D02*
G03*
X1962032Y1916000I-2032J0D01*
G01*
X567032Y1961000D02*
G03*
X567032Y1961000I-2032J0D01*
G01*
X577032Y1971000D02*
G03*
X577032Y1971000I-2032J0D01*
G01*
X1832032Y2108000D02*
G03*
X1832032Y2108000I-2032J0D01*
G01*
X1843032D02*
G03*
X1843032Y2108000I-2032J0D01*
G01*
X1856032D02*
G03*
X1856032Y2108000I-2032J0D01*
G01*
X1869032D02*
G03*
X1869032Y2108000I-2032J0D01*
G01*
X1317782Y2084000D02*
G03*
X1317782Y2084000I-2032J0D01*
G01*
X685032Y2038250D02*
G03*
X685032Y2038250I-2032J0D01*
G01*
X673782Y2038500D02*
G03*
X673782Y2038500I-2032J0D01*
G01*
X1317032Y2029750D02*
G03*
X1317032Y2029750I-2032J0D01*
G01*
X732032Y2104000D02*
G03*
X732032Y2104000I-2032J0D01*
G01*
X72032Y2129000D02*
G03*
X72032Y2129000I-2032J0D01*
G01*
X89532D02*
G03*
X89532Y2129000I-2032J0D01*
G01*
X732032Y2089000D02*
G03*
X732032Y2089000I-2032J0D01*
G01*
X1372032D02*
G03*
X1372032Y2089000I-2032J0D01*
G01*
X1357032D02*
G03*
X1357032Y2089000I-2032J0D01*
G01*
X1977032Y2069000D02*
G03*
X1977032Y2069000I-2032J0D01*
G01*
X1962032D02*
G03*
X1962032Y2069000I-2032J0D01*
G01*
X567032Y2114000D02*
G03*
X567032Y2114000I-2032J0D01*
G01*
X577032Y2124000D02*
G03*
X577032Y2124000I-2032J0D01*
G01*
M02*
