G04 Layer_Color=128*
%FSLAX44Y44*%
%MOMM*%
G71*
G01*
G75*
%ADD10C,2.0000*%
%ADD25R,2.0000X2.8000*%
D10*
X2025000Y2050000D02*
D03*
Y2000000D02*
D03*
X25000Y50000D02*
D03*
X2025000Y45000D02*
D03*
X25000Y2025000D02*
D03*
Y1975000D02*
D03*
D25*
X1899990Y76500D02*
D03*
X1933010D02*
D03*
X1828010Y76500D02*
D03*
X1794990D02*
D03*
X1689990Y76500D02*
D03*
X1723010D02*
D03*
X1618010Y76500D02*
D03*
X1584990D02*
D03*
X1479990D02*
D03*
X1513010D02*
D03*
X1408010Y76500D02*
D03*
X1374990D02*
D03*
X1269990D02*
D03*
X1303010D02*
D03*
X1198010D02*
D03*
X1164990D02*
D03*
X1059990D02*
D03*
X1093010D02*
D03*
X988010D02*
D03*
X954990D02*
D03*
X849990Y76500D02*
D03*
X883010D02*
D03*
X778010Y76500D02*
D03*
X744990D02*
D03*
X639990Y76500D02*
D03*
X673010D02*
D03*
X568010Y76500D02*
D03*
X534990D02*
D03*
X429990D02*
D03*
X463010D02*
D03*
X358010D02*
D03*
X324990D02*
D03*
X114990D02*
D03*
X148010D02*
D03*
X1899990Y229500D02*
D03*
X1933010D02*
D03*
X1828010Y229500D02*
D03*
X1794990D02*
D03*
X1689990Y229500D02*
D03*
X1723010D02*
D03*
X1618010Y229500D02*
D03*
X1584990D02*
D03*
X1479990D02*
D03*
X1513010D02*
D03*
X1408010Y229500D02*
D03*
X1374990D02*
D03*
X1269990D02*
D03*
X1303010D02*
D03*
X1198010D02*
D03*
X1164990D02*
D03*
X1059990D02*
D03*
X1093010D02*
D03*
X988010D02*
D03*
X954990D02*
D03*
X849990Y229500D02*
D03*
X883010D02*
D03*
X778010Y229500D02*
D03*
X744990D02*
D03*
X639990Y229500D02*
D03*
X673010D02*
D03*
X568010Y229500D02*
D03*
X534990D02*
D03*
X429990D02*
D03*
X463010D02*
D03*
X358010D02*
D03*
X324990D02*
D03*
X114990D02*
D03*
X148010D02*
D03*
X1899990Y382500D02*
D03*
X1933010D02*
D03*
X1828010Y382500D02*
D03*
X1794990D02*
D03*
X1689990Y382500D02*
D03*
X1723010D02*
D03*
X1618010Y382500D02*
D03*
X1584990D02*
D03*
X1479990D02*
D03*
X1513010D02*
D03*
X1408010Y382500D02*
D03*
X1374990D02*
D03*
X1269990D02*
D03*
X1303010D02*
D03*
X1198010D02*
D03*
X1164990D02*
D03*
X1059990D02*
D03*
X1093010D02*
D03*
X988010D02*
D03*
X954990D02*
D03*
X849990Y382500D02*
D03*
X883010D02*
D03*
X778010Y382500D02*
D03*
X744990D02*
D03*
X639990Y382500D02*
D03*
X673010D02*
D03*
X568010Y382500D02*
D03*
X534990D02*
D03*
X429990D02*
D03*
X463010D02*
D03*
X358010D02*
D03*
X324990D02*
D03*
X114990D02*
D03*
X148010D02*
D03*
X1899990Y535500D02*
D03*
X1933010D02*
D03*
X1828010Y535500D02*
D03*
X1794990D02*
D03*
X1689990Y535500D02*
D03*
X1723010D02*
D03*
X1618010Y535500D02*
D03*
X1584990D02*
D03*
X1479990D02*
D03*
X1513010D02*
D03*
X1408010Y535500D02*
D03*
X1374990D02*
D03*
X1269990D02*
D03*
X1303010D02*
D03*
X1198010D02*
D03*
X1164990D02*
D03*
X1059990D02*
D03*
X1093010D02*
D03*
X988010D02*
D03*
X954990D02*
D03*
X849990Y535500D02*
D03*
X883010D02*
D03*
X778010Y535500D02*
D03*
X744990D02*
D03*
X639990Y535500D02*
D03*
X673010D02*
D03*
X568010Y535500D02*
D03*
X534990D02*
D03*
X429990D02*
D03*
X463010D02*
D03*
X358010D02*
D03*
X324990D02*
D03*
X114990D02*
D03*
X148010D02*
D03*
X1899990Y688500D02*
D03*
X1933010D02*
D03*
X1828010Y688500D02*
D03*
X1794990D02*
D03*
X1689990Y688500D02*
D03*
X1723010D02*
D03*
X1618010Y688500D02*
D03*
X1584990D02*
D03*
X1479990D02*
D03*
X1513010D02*
D03*
X1408010Y688500D02*
D03*
X1374990D02*
D03*
X1269990D02*
D03*
X1303010D02*
D03*
X1198010D02*
D03*
X1164990D02*
D03*
X1059990D02*
D03*
X1093010D02*
D03*
X988010D02*
D03*
X954990D02*
D03*
X849990Y688500D02*
D03*
X883010D02*
D03*
X778010Y688500D02*
D03*
X744990D02*
D03*
X639990Y688500D02*
D03*
X673010D02*
D03*
X568010Y688500D02*
D03*
X534990D02*
D03*
X429990D02*
D03*
X463010D02*
D03*
X358010D02*
D03*
X324990D02*
D03*
X114990D02*
D03*
X148010D02*
D03*
X1899990Y841500D02*
D03*
X1933010D02*
D03*
X1828010Y841500D02*
D03*
X1794990D02*
D03*
X1689990Y841500D02*
D03*
X1723010D02*
D03*
X1618010Y841500D02*
D03*
X1584990D02*
D03*
X1479990D02*
D03*
X1513010D02*
D03*
X1408010Y841500D02*
D03*
X1374990D02*
D03*
X1269990D02*
D03*
X1303010D02*
D03*
X1198010D02*
D03*
X1164990D02*
D03*
X1059990D02*
D03*
X1093010D02*
D03*
X988010D02*
D03*
X954990D02*
D03*
X849990Y841500D02*
D03*
X883010D02*
D03*
X778010Y841500D02*
D03*
X744990D02*
D03*
X639990Y841500D02*
D03*
X673010D02*
D03*
X568010Y841500D02*
D03*
X534990D02*
D03*
X429990D02*
D03*
X463010D02*
D03*
X358010D02*
D03*
X324990D02*
D03*
X114990D02*
D03*
X148010D02*
D03*
X1899990Y994500D02*
D03*
X1933010D02*
D03*
X1828010Y994500D02*
D03*
X1794990D02*
D03*
X1689990Y994500D02*
D03*
X1723010D02*
D03*
X1618010Y994500D02*
D03*
X1584990D02*
D03*
X1479990D02*
D03*
X1513010D02*
D03*
X1408010Y994500D02*
D03*
X1374990D02*
D03*
X1269990D02*
D03*
X1303010D02*
D03*
X1198010D02*
D03*
X1164990D02*
D03*
X1059990D02*
D03*
X1093010D02*
D03*
X988010D02*
D03*
X954990D02*
D03*
X849990Y994500D02*
D03*
X883010D02*
D03*
X778010Y994500D02*
D03*
X744990D02*
D03*
X639990Y994500D02*
D03*
X673010D02*
D03*
X568010Y994500D02*
D03*
X534990D02*
D03*
X429990D02*
D03*
X463010D02*
D03*
X358010D02*
D03*
X324990D02*
D03*
X114990D02*
D03*
X148010D02*
D03*
X1899990Y1147500D02*
D03*
X1933010D02*
D03*
X1828010Y1147500D02*
D03*
X1794990D02*
D03*
X1689990Y1147500D02*
D03*
X1723010D02*
D03*
X1618010Y1147500D02*
D03*
X1584990D02*
D03*
X1479990D02*
D03*
X1513010D02*
D03*
X1408010Y1147500D02*
D03*
X1374990D02*
D03*
X1269990D02*
D03*
X1303010D02*
D03*
X1198010D02*
D03*
X1164990D02*
D03*
X1059990D02*
D03*
X1093010D02*
D03*
X988010D02*
D03*
X954990D02*
D03*
X849990Y1147500D02*
D03*
X883010D02*
D03*
X778010Y1147500D02*
D03*
X744990D02*
D03*
X639990Y1147500D02*
D03*
X673010D02*
D03*
X568010Y1147500D02*
D03*
X534990D02*
D03*
X429990D02*
D03*
X463010D02*
D03*
X358010D02*
D03*
X324990D02*
D03*
X114990D02*
D03*
X148010D02*
D03*
X1899990Y1300500D02*
D03*
X1933010D02*
D03*
X1828010Y1300500D02*
D03*
X1794990D02*
D03*
X1689990Y1300500D02*
D03*
X1723010D02*
D03*
X1618010Y1300500D02*
D03*
X1584990D02*
D03*
X1479990D02*
D03*
X1513010D02*
D03*
X1408010Y1300500D02*
D03*
X1374990D02*
D03*
X1269990D02*
D03*
X1303010D02*
D03*
X1198010D02*
D03*
X1164990D02*
D03*
X1059990D02*
D03*
X1093010D02*
D03*
X988010D02*
D03*
X954990D02*
D03*
X849990Y1300500D02*
D03*
X883010D02*
D03*
X778010Y1300500D02*
D03*
X744990D02*
D03*
X639990Y1300500D02*
D03*
X673010D02*
D03*
X568010Y1300500D02*
D03*
X534990D02*
D03*
X429990D02*
D03*
X463010D02*
D03*
X358010D02*
D03*
X324990D02*
D03*
X114990D02*
D03*
X148010D02*
D03*
X1899990Y1453500D02*
D03*
X1933010D02*
D03*
X1828010Y1453500D02*
D03*
X1794990D02*
D03*
X1689990Y1453500D02*
D03*
X1723010D02*
D03*
X1618010Y1453500D02*
D03*
X1584990D02*
D03*
X1479990D02*
D03*
X1513010D02*
D03*
X1408010Y1453500D02*
D03*
X1374990D02*
D03*
X1269990D02*
D03*
X1303010D02*
D03*
X1198010D02*
D03*
X1164990D02*
D03*
X1059990D02*
D03*
X1093010D02*
D03*
X988010D02*
D03*
X954990D02*
D03*
X849990Y1453500D02*
D03*
X883010D02*
D03*
X778010Y1453500D02*
D03*
X744990D02*
D03*
X639990Y1453500D02*
D03*
X673010D02*
D03*
X568010Y1453500D02*
D03*
X534990D02*
D03*
X429990D02*
D03*
X463010D02*
D03*
X358010D02*
D03*
X324990D02*
D03*
X114990D02*
D03*
X148010D02*
D03*
X1899990Y1606500D02*
D03*
X1933010D02*
D03*
X1828010Y1606500D02*
D03*
X1794990D02*
D03*
X1689990Y1606500D02*
D03*
X1723010D02*
D03*
X1618010Y1606500D02*
D03*
X1584990D02*
D03*
X1479990D02*
D03*
X1513010D02*
D03*
X1408010Y1606500D02*
D03*
X1374990D02*
D03*
X1269990D02*
D03*
X1303010D02*
D03*
X1198010D02*
D03*
X1164990D02*
D03*
X1059990D02*
D03*
X1093010D02*
D03*
X988010D02*
D03*
X954990D02*
D03*
X849990Y1606500D02*
D03*
X883010D02*
D03*
X778010Y1606500D02*
D03*
X744990D02*
D03*
X639990Y1606500D02*
D03*
X673010D02*
D03*
X568010Y1606500D02*
D03*
X534990D02*
D03*
X429990D02*
D03*
X463010D02*
D03*
X358010D02*
D03*
X324990D02*
D03*
X114990D02*
D03*
X148010D02*
D03*
X1899990Y1759500D02*
D03*
X1933010D02*
D03*
X1828010Y1759500D02*
D03*
X1794990D02*
D03*
X1689990Y1759500D02*
D03*
X1723010D02*
D03*
X1618010Y1759500D02*
D03*
X1584990D02*
D03*
X1479990D02*
D03*
X1513010D02*
D03*
X1408010Y1759500D02*
D03*
X1374990D02*
D03*
X1269990D02*
D03*
X1303010D02*
D03*
X1198010D02*
D03*
X1164990D02*
D03*
X1059990D02*
D03*
X1093010D02*
D03*
X988010D02*
D03*
X954990D02*
D03*
X849990Y1759500D02*
D03*
X883010D02*
D03*
X778010Y1759500D02*
D03*
X744990D02*
D03*
X639990Y1759500D02*
D03*
X673010D02*
D03*
X568010Y1759500D02*
D03*
X534990D02*
D03*
X429990D02*
D03*
X463010D02*
D03*
X358010D02*
D03*
X324990D02*
D03*
X114990D02*
D03*
X148010D02*
D03*
X1899990Y1912500D02*
D03*
X1933010D02*
D03*
X1828010Y1912500D02*
D03*
X1794990D02*
D03*
X1689990Y1912500D02*
D03*
X1723010D02*
D03*
X1618010Y1912500D02*
D03*
X1584990D02*
D03*
X1479990D02*
D03*
X1513010D02*
D03*
X1408010Y1912500D02*
D03*
X1374990D02*
D03*
X1269990D02*
D03*
X1303010D02*
D03*
X1198010D02*
D03*
X1164990D02*
D03*
X1059990D02*
D03*
X1093010D02*
D03*
X988010D02*
D03*
X954990D02*
D03*
X849990Y1912500D02*
D03*
X883010D02*
D03*
X778010Y1912500D02*
D03*
X744990D02*
D03*
X639990Y1912500D02*
D03*
X673010D02*
D03*
X568010Y1912500D02*
D03*
X534990D02*
D03*
X429990D02*
D03*
X463010D02*
D03*
X358010D02*
D03*
X324990D02*
D03*
X114990D02*
D03*
X148010D02*
D03*
X1899990Y2065500D02*
D03*
X1933010D02*
D03*
X1828010Y2065500D02*
D03*
X1794990D02*
D03*
X1689990Y2065500D02*
D03*
X1723010D02*
D03*
X1618010Y2065500D02*
D03*
X1584990D02*
D03*
X1479990D02*
D03*
X1513010D02*
D03*
X1408010Y2065500D02*
D03*
X1374990D02*
D03*
X1269990D02*
D03*
X1303010D02*
D03*
X1198010D02*
D03*
X1164990D02*
D03*
X1059990D02*
D03*
X1093010D02*
D03*
X988010D02*
D03*
X954990D02*
D03*
X849990Y2065500D02*
D03*
X883010D02*
D03*
X778010Y2065500D02*
D03*
X744990D02*
D03*
X639990Y2065500D02*
D03*
X673010D02*
D03*
X568010Y2065500D02*
D03*
X534990D02*
D03*
X429990D02*
D03*
X463010D02*
D03*
X358010D02*
D03*
X324990D02*
D03*
X114990D02*
D03*
X148010D02*
D03*
M02*
