G04 Layer_Color=2752767*
%FSLAX44Y44*%
%MOMM*%
G71*
G01*
G75*
%ADD170C,0.0508*%
%ADD171C,0.0677*%
D170*
X2022968Y1017968D02*
Y1022032D01*
X2027032D01*
Y1017968D01*
X2022968D01*
X22968Y122968D02*
Y127032D01*
X27032D01*
Y122968D01*
X22968D01*
Y2097968D02*
Y2102032D01*
X27032D01*
Y2097968D01*
X22968D01*
X236750Y74468D02*
X234718Y78532D01*
X238782D01*
X236750Y74468D01*
X156000Y11968D02*
X157016Y12984D01*
X158032D01*
X157016Y14000D01*
X158032Y15016D01*
X157016D01*
X156000Y16032D01*
X154984Y15016D01*
X153968D01*
X154984Y14000D01*
X153968Y12984D01*
X154984D01*
X156000Y11968D01*
X145000D02*
X146016Y12984D01*
X147032D01*
X146016Y14000D01*
X147032Y15016D01*
X146016D01*
X145000Y16032D01*
X143984Y15016D01*
X142968D01*
X143984Y14000D01*
X142968Y12984D01*
X143984D01*
X145000Y11968D01*
X134000D02*
X135016Y12984D01*
X136032D01*
X135016Y14000D01*
X136032Y15016D01*
X135016D01*
X134000Y16032D01*
X132984Y15016D01*
X131968D01*
X132984Y14000D01*
X131968Y12984D01*
X132984D01*
X134000Y11968D01*
X575000Y132968D02*
X576016Y133984D01*
X577032D01*
X576016Y135000D01*
X577032Y136016D01*
X576016D01*
X575000Y137032D01*
X573984Y136016D01*
X572968D01*
X573984Y135000D01*
X572968Y133984D01*
X573984D01*
X575000Y132968D01*
X565000Y122968D02*
X566016Y123984D01*
X567032D01*
X566016Y125000D01*
X567032Y126016D01*
X566016D01*
X565000Y127032D01*
X563984Y126016D01*
X562968D01*
X563984Y125000D01*
X562968Y123984D01*
X563984D01*
X565000Y122968D01*
X1960000Y77968D02*
X1961016Y78984D01*
X1962032D01*
X1961016Y80000D01*
X1962032Y81016D01*
X1961016D01*
X1960000Y82032D01*
X1958984Y81016D01*
X1957968D01*
X1958984Y80000D01*
X1957968Y78984D01*
X1958984D01*
X1960000Y77968D01*
X1975000D02*
X1976016Y78984D01*
X1977032D01*
X1976016Y80000D01*
X1977032Y81016D01*
X1976016D01*
X1975000Y82032D01*
X1973984Y81016D01*
X1972968D01*
X1973984Y80000D01*
X1972968Y78984D01*
X1973984D01*
X1975000Y77968D01*
X1355000Y97968D02*
X1356016Y98984D01*
X1357032D01*
X1356016Y100000D01*
X1357032Y101016D01*
X1356016D01*
X1355000Y102032D01*
X1353984Y101016D01*
X1352968D01*
X1353984Y100000D01*
X1352968Y98984D01*
X1353984D01*
X1355000Y97968D01*
X1370000D02*
X1371016Y98984D01*
X1372032D01*
X1371016Y100000D01*
X1372032Y101016D01*
X1371016D01*
X1370000Y102032D01*
X1368984Y101016D01*
X1367968D01*
X1368984Y100000D01*
X1367968Y98984D01*
X1368984D01*
X1370000Y97968D01*
X730000D02*
X731016Y98984D01*
X732032D01*
X731016Y100000D01*
X732032Y101016D01*
X731016D01*
X730000Y102032D01*
X728984Y101016D01*
X727968D01*
X728984Y100000D01*
X727968Y98984D01*
X728984D01*
X730000Y97968D01*
X87500Y137968D02*
X88516Y138984D01*
X89532D01*
X88516Y140000D01*
X89532Y141016D01*
X88516D01*
X87500Y142032D01*
X86484Y141016D01*
X85468D01*
X86484Y140000D01*
X85468Y138984D01*
X86484D01*
X87500Y137968D01*
X70000D02*
X71016Y138984D01*
X72032D01*
X71016Y140000D01*
X72032Y141016D01*
X71016D01*
X70000Y142032D01*
X68984Y141016D01*
X67968D01*
X68984Y140000D01*
X67968Y138984D01*
X68984D01*
X70000Y137968D01*
X730000Y112968D02*
X731016Y113984D01*
X732032D01*
X731016Y115000D01*
X732032Y116016D01*
X731016D01*
X730000Y117032D01*
X728984Y116016D01*
X727968D01*
X728984Y115000D01*
X727968Y113984D01*
X728984D01*
X730000Y112968D01*
X1315000Y38718D02*
X1316016Y39734D01*
X1317032D01*
X1316016Y40750D01*
X1317032Y41766D01*
X1316016D01*
X1315000Y42782D01*
X1313984Y41766D01*
X1312968D01*
X1313984Y40750D01*
X1312968Y39734D01*
X1313984D01*
X1315000Y38718D01*
X671750Y47468D02*
X672766Y48484D01*
X673782D01*
X672766Y49500D01*
X673782Y50516D01*
X672766D01*
X671750Y51532D01*
X670734Y50516D01*
X669718D01*
X670734Y49500D01*
X669718Y48484D01*
X670734D01*
X671750Y47468D01*
X683000Y47218D02*
X684016Y48234D01*
X685032D01*
X684016Y49250D01*
X685032Y50266D01*
X684016D01*
X683000Y51282D01*
X681984Y50266D01*
X680968D01*
X681984Y49250D01*
X680968Y48234D01*
X681984D01*
X683000Y47218D01*
X1315750Y92968D02*
X1316766Y93984D01*
X1317782D01*
X1316766Y95000D01*
X1317782Y96016D01*
X1316766D01*
X1315750Y97032D01*
X1314734Y96016D01*
X1313718D01*
X1314734Y95000D01*
X1313718Y93984D01*
X1314734D01*
X1315750Y92968D01*
X236750Y227468D02*
X234718Y231532D01*
X238782D01*
X236750Y227468D01*
X156000Y164968D02*
X157016Y165984D01*
X158032D01*
X157016Y167000D01*
X158032Y168016D01*
X157016D01*
X156000Y169032D01*
X154984Y168016D01*
X153968D01*
X154984Y167000D01*
X153968Y165984D01*
X154984D01*
X156000Y164968D01*
X145000D02*
X146016Y165984D01*
X147032D01*
X146016Y167000D01*
X147032Y168016D01*
X146016D01*
X145000Y169032D01*
X143984Y168016D01*
X142968D01*
X143984Y167000D01*
X142968Y165984D01*
X143984D01*
X145000Y164968D01*
X134000D02*
X135016Y165984D01*
X136032D01*
X135016Y167000D01*
X136032Y168016D01*
X135016D01*
X134000Y169032D01*
X132984Y168016D01*
X131968D01*
X132984Y167000D01*
X131968Y165984D01*
X132984D01*
X134000Y164968D01*
X575000Y285968D02*
X576016Y286984D01*
X577032D01*
X576016Y288000D01*
X577032Y289016D01*
X576016D01*
X575000Y290032D01*
X573984Y289016D01*
X572968D01*
X573984Y288000D01*
X572968Y286984D01*
X573984D01*
X575000Y285968D01*
X565000Y275968D02*
X566016Y276984D01*
X567032D01*
X566016Y278000D01*
X567032Y279016D01*
X566016D01*
X565000Y280032D01*
X563984Y279016D01*
X562968D01*
X563984Y278000D01*
X562968Y276984D01*
X563984D01*
X565000Y275968D01*
X1960000Y230968D02*
X1961016Y231984D01*
X1962032D01*
X1961016Y233000D01*
X1962032Y234016D01*
X1961016D01*
X1960000Y235032D01*
X1958984Y234016D01*
X1957968D01*
X1958984Y233000D01*
X1957968Y231984D01*
X1958984D01*
X1960000Y230968D01*
X1975000D02*
X1976016Y231984D01*
X1977032D01*
X1976016Y233000D01*
X1977032Y234016D01*
X1976016D01*
X1975000Y235032D01*
X1973984Y234016D01*
X1972968D01*
X1973984Y233000D01*
X1972968Y231984D01*
X1973984D01*
X1975000Y230968D01*
X1355000Y250968D02*
X1356016Y251984D01*
X1357032D01*
X1356016Y253000D01*
X1357032Y254016D01*
X1356016D01*
X1355000Y255032D01*
X1353984Y254016D01*
X1352968D01*
X1353984Y253000D01*
X1352968Y251984D01*
X1353984D01*
X1355000Y250968D01*
X1370000D02*
X1371016Y251984D01*
X1372032D01*
X1371016Y253000D01*
X1372032Y254016D01*
X1371016D01*
X1370000Y255032D01*
X1368984Y254016D01*
X1367968D01*
X1368984Y253000D01*
X1367968Y251984D01*
X1368984D01*
X1370000Y250968D01*
X730000D02*
X731016Y251984D01*
X732032D01*
X731016Y253000D01*
X732032Y254016D01*
X731016D01*
X730000Y255032D01*
X728984Y254016D01*
X727968D01*
X728984Y253000D01*
X727968Y251984D01*
X728984D01*
X730000Y250968D01*
X87500Y290968D02*
X88516Y291984D01*
X89532D01*
X88516Y293000D01*
X89532Y294016D01*
X88516D01*
X87500Y295032D01*
X86484Y294016D01*
X85468D01*
X86484Y293000D01*
X85468Y291984D01*
X86484D01*
X87500Y290968D01*
X70000D02*
X71016Y291984D01*
X72032D01*
X71016Y293000D01*
X72032Y294016D01*
X71016D01*
X70000Y295032D01*
X68984Y294016D01*
X67968D01*
X68984Y293000D01*
X67968Y291984D01*
X68984D01*
X70000Y290968D01*
X730000Y265968D02*
X731016Y266984D01*
X732032D01*
X731016Y268000D01*
X732032Y269016D01*
X731016D01*
X730000Y270032D01*
X728984Y269016D01*
X727968D01*
X728984Y268000D01*
X727968Y266984D01*
X728984D01*
X730000Y265968D01*
X1315000Y191718D02*
X1316016Y192734D01*
X1317032D01*
X1316016Y193750D01*
X1317032Y194766D01*
X1316016D01*
X1315000Y195782D01*
X1313984Y194766D01*
X1312968D01*
X1313984Y193750D01*
X1312968Y192734D01*
X1313984D01*
X1315000Y191718D01*
X671750Y200468D02*
X672766Y201484D01*
X673782D01*
X672766Y202500D01*
X673782Y203516D01*
X672766D01*
X671750Y204532D01*
X670734Y203516D01*
X669718D01*
X670734Y202500D01*
X669718Y201484D01*
X670734D01*
X671750Y200468D01*
X683000Y200218D02*
X684016Y201234D01*
X685032D01*
X684016Y202250D01*
X685032Y203266D01*
X684016D01*
X683000Y204282D01*
X681984Y203266D01*
X680968D01*
X681984Y202250D01*
X680968Y201234D01*
X681984D01*
X683000Y200218D01*
X1315750Y245968D02*
X1316766Y246984D01*
X1317782D01*
X1316766Y248000D01*
X1317782Y249016D01*
X1316766D01*
X1315750Y250032D01*
X1314734Y249016D01*
X1313718D01*
X1314734Y248000D01*
X1313718Y246984D01*
X1314734D01*
X1315750Y245968D01*
X236750Y380468D02*
X234718Y384532D01*
X238782D01*
X236750Y380468D01*
X156000Y317968D02*
X157016Y318984D01*
X158032D01*
X157016Y320000D01*
X158032Y321016D01*
X157016D01*
X156000Y322032D01*
X154984Y321016D01*
X153968D01*
X154984Y320000D01*
X153968Y318984D01*
X154984D01*
X156000Y317968D01*
X145000D02*
X146016Y318984D01*
X147032D01*
X146016Y320000D01*
X147032Y321016D01*
X146016D01*
X145000Y322032D01*
X143984Y321016D01*
X142968D01*
X143984Y320000D01*
X142968Y318984D01*
X143984D01*
X145000Y317968D01*
X134000D02*
X135016Y318984D01*
X136032D01*
X135016Y320000D01*
X136032Y321016D01*
X135016D01*
X134000Y322032D01*
X132984Y321016D01*
X131968D01*
X132984Y320000D01*
X131968Y318984D01*
X132984D01*
X134000Y317968D01*
X575000Y438968D02*
X576016Y439984D01*
X577032D01*
X576016Y441000D01*
X577032Y442016D01*
X576016D01*
X575000Y443032D01*
X573984Y442016D01*
X572968D01*
X573984Y441000D01*
X572968Y439984D01*
X573984D01*
X575000Y438968D01*
X565000Y428968D02*
X566016Y429984D01*
X567032D01*
X566016Y431000D01*
X567032Y432016D01*
X566016D01*
X565000Y433032D01*
X563984Y432016D01*
X562968D01*
X563984Y431000D01*
X562968Y429984D01*
X563984D01*
X565000Y428968D01*
X1960000Y383968D02*
X1961016Y384984D01*
X1962032D01*
X1961016Y386000D01*
X1962032Y387016D01*
X1961016D01*
X1960000Y388032D01*
X1958984Y387016D01*
X1957968D01*
X1958984Y386000D01*
X1957968Y384984D01*
X1958984D01*
X1960000Y383968D01*
X1975000D02*
X1976016Y384984D01*
X1977032D01*
X1976016Y386000D01*
X1977032Y387016D01*
X1976016D01*
X1975000Y388032D01*
X1973984Y387016D01*
X1972968D01*
X1973984Y386000D01*
X1972968Y384984D01*
X1973984D01*
X1975000Y383968D01*
X1355000Y403968D02*
X1356016Y404984D01*
X1357032D01*
X1356016Y406000D01*
X1357032Y407016D01*
X1356016D01*
X1355000Y408032D01*
X1353984Y407016D01*
X1352968D01*
X1353984Y406000D01*
X1352968Y404984D01*
X1353984D01*
X1355000Y403968D01*
X1370000D02*
X1371016Y404984D01*
X1372032D01*
X1371016Y406000D01*
X1372032Y407016D01*
X1371016D01*
X1370000Y408032D01*
X1368984Y407016D01*
X1367968D01*
X1368984Y406000D01*
X1367968Y404984D01*
X1368984D01*
X1370000Y403968D01*
X730000D02*
X731016Y404984D01*
X732032D01*
X731016Y406000D01*
X732032Y407016D01*
X731016D01*
X730000Y408032D01*
X728984Y407016D01*
X727968D01*
X728984Y406000D01*
X727968Y404984D01*
X728984D01*
X730000Y403968D01*
X87500Y443968D02*
X88516Y444984D01*
X89532D01*
X88516Y446000D01*
X89532Y447016D01*
X88516D01*
X87500Y448032D01*
X86484Y447016D01*
X85468D01*
X86484Y446000D01*
X85468Y444984D01*
X86484D01*
X87500Y443968D01*
X70000D02*
X71016Y444984D01*
X72032D01*
X71016Y446000D01*
X72032Y447016D01*
X71016D01*
X70000Y448032D01*
X68984Y447016D01*
X67968D01*
X68984Y446000D01*
X67968Y444984D01*
X68984D01*
X70000Y443968D01*
X730000Y418968D02*
X731016Y419984D01*
X732032D01*
X731016Y421000D01*
X732032Y422016D01*
X731016D01*
X730000Y423032D01*
X728984Y422016D01*
X727968D01*
X728984Y421000D01*
X727968Y419984D01*
X728984D01*
X730000Y418968D01*
X1315000Y344718D02*
X1316016Y345734D01*
X1317032D01*
X1316016Y346750D01*
X1317032Y347766D01*
X1316016D01*
X1315000Y348782D01*
X1313984Y347766D01*
X1312968D01*
X1313984Y346750D01*
X1312968Y345734D01*
X1313984D01*
X1315000Y344718D01*
X671750Y353468D02*
X672766Y354484D01*
X673782D01*
X672766Y355500D01*
X673782Y356516D01*
X672766D01*
X671750Y357532D01*
X670734Y356516D01*
X669718D01*
X670734Y355500D01*
X669718Y354484D01*
X670734D01*
X671750Y353468D01*
X683000Y353218D02*
X684016Y354234D01*
X685032D01*
X684016Y355250D01*
X685032Y356266D01*
X684016D01*
X683000Y357282D01*
X681984Y356266D01*
X680968D01*
X681984Y355250D01*
X680968Y354234D01*
X681984D01*
X683000Y353218D01*
X1315750Y398968D02*
X1316766Y399984D01*
X1317782D01*
X1316766Y401000D01*
X1317782Y402016D01*
X1316766D01*
X1315750Y403032D01*
X1314734Y402016D01*
X1313718D01*
X1314734Y401000D01*
X1313718Y399984D01*
X1314734D01*
X1315750Y398968D01*
X236750Y533468D02*
X234718Y537532D01*
X238782D01*
X236750Y533468D01*
X156000Y470968D02*
X157016Y471984D01*
X158032D01*
X157016Y473000D01*
X158032Y474016D01*
X157016D01*
X156000Y475032D01*
X154984Y474016D01*
X153968D01*
X154984Y473000D01*
X153968Y471984D01*
X154984D01*
X156000Y470968D01*
X145000D02*
X146016Y471984D01*
X147032D01*
X146016Y473000D01*
X147032Y474016D01*
X146016D01*
X145000Y475032D01*
X143984Y474016D01*
X142968D01*
X143984Y473000D01*
X142968Y471984D01*
X143984D01*
X145000Y470968D01*
X134000D02*
X135016Y471984D01*
X136032D01*
X135016Y473000D01*
X136032Y474016D01*
X135016D01*
X134000Y475032D01*
X132984Y474016D01*
X131968D01*
X132984Y473000D01*
X131968Y471984D01*
X132984D01*
X134000Y470968D01*
X575000Y591968D02*
X576016Y592984D01*
X577032D01*
X576016Y594000D01*
X577032Y595016D01*
X576016D01*
X575000Y596032D01*
X573984Y595016D01*
X572968D01*
X573984Y594000D01*
X572968Y592984D01*
X573984D01*
X575000Y591968D01*
X565000Y581968D02*
X566016Y582984D01*
X567032D01*
X566016Y584000D01*
X567032Y585016D01*
X566016D01*
X565000Y586032D01*
X563984Y585016D01*
X562968D01*
X563984Y584000D01*
X562968Y582984D01*
X563984D01*
X565000Y581968D01*
X1960000Y536968D02*
X1961016Y537984D01*
X1962032D01*
X1961016Y539000D01*
X1962032Y540016D01*
X1961016D01*
X1960000Y541032D01*
X1958984Y540016D01*
X1957968D01*
X1958984Y539000D01*
X1957968Y537984D01*
X1958984D01*
X1960000Y536968D01*
X1975000D02*
X1976016Y537984D01*
X1977032D01*
X1976016Y539000D01*
X1977032Y540016D01*
X1976016D01*
X1975000Y541032D01*
X1973984Y540016D01*
X1972968D01*
X1973984Y539000D01*
X1972968Y537984D01*
X1973984D01*
X1975000Y536968D01*
X1355000Y556968D02*
X1356016Y557984D01*
X1357032D01*
X1356016Y559000D01*
X1357032Y560016D01*
X1356016D01*
X1355000Y561032D01*
X1353984Y560016D01*
X1352968D01*
X1353984Y559000D01*
X1352968Y557984D01*
X1353984D01*
X1355000Y556968D01*
X1370000D02*
X1371016Y557984D01*
X1372032D01*
X1371016Y559000D01*
X1372032Y560016D01*
X1371016D01*
X1370000Y561032D01*
X1368984Y560016D01*
X1367968D01*
X1368984Y559000D01*
X1367968Y557984D01*
X1368984D01*
X1370000Y556968D01*
X730000D02*
X731016Y557984D01*
X732032D01*
X731016Y559000D01*
X732032Y560016D01*
X731016D01*
X730000Y561032D01*
X728984Y560016D01*
X727968D01*
X728984Y559000D01*
X727968Y557984D01*
X728984D01*
X730000Y556968D01*
X87500Y596968D02*
X88516Y597984D01*
X89532D01*
X88516Y599000D01*
X89532Y600016D01*
X88516D01*
X87500Y601032D01*
X86484Y600016D01*
X85468D01*
X86484Y599000D01*
X85468Y597984D01*
X86484D01*
X87500Y596968D01*
X70000D02*
X71016Y597984D01*
X72032D01*
X71016Y599000D01*
X72032Y600016D01*
X71016D01*
X70000Y601032D01*
X68984Y600016D01*
X67968D01*
X68984Y599000D01*
X67968Y597984D01*
X68984D01*
X70000Y596968D01*
X730000Y571968D02*
X731016Y572984D01*
X732032D01*
X731016Y574000D01*
X732032Y575016D01*
X731016D01*
X730000Y576032D01*
X728984Y575016D01*
X727968D01*
X728984Y574000D01*
X727968Y572984D01*
X728984D01*
X730000Y571968D01*
X1315000Y497718D02*
X1316016Y498734D01*
X1317032D01*
X1316016Y499750D01*
X1317032Y500766D01*
X1316016D01*
X1315000Y501782D01*
X1313984Y500766D01*
X1312968D01*
X1313984Y499750D01*
X1312968Y498734D01*
X1313984D01*
X1315000Y497718D01*
X671750Y506468D02*
X672766Y507484D01*
X673782D01*
X672766Y508500D01*
X673782Y509516D01*
X672766D01*
X671750Y510532D01*
X670734Y509516D01*
X669718D01*
X670734Y508500D01*
X669718Y507484D01*
X670734D01*
X671750Y506468D01*
X683000Y506218D02*
X684016Y507234D01*
X685032D01*
X684016Y508250D01*
X685032Y509266D01*
X684016D01*
X683000Y510282D01*
X681984Y509266D01*
X680968D01*
X681984Y508250D01*
X680968Y507234D01*
X681984D01*
X683000Y506218D01*
X1315750Y551968D02*
X1316766Y552984D01*
X1317782D01*
X1316766Y554000D01*
X1317782Y555016D01*
X1316766D01*
X1315750Y556032D01*
X1314734Y555016D01*
X1313718D01*
X1314734Y554000D01*
X1313718Y552984D01*
X1314734D01*
X1315750Y551968D01*
X236750Y686468D02*
X234718Y690532D01*
X238782D01*
X236750Y686468D01*
X156000Y623968D02*
X157016Y624984D01*
X158032D01*
X157016Y626000D01*
X158032Y627016D01*
X157016D01*
X156000Y628032D01*
X154984Y627016D01*
X153968D01*
X154984Y626000D01*
X153968Y624984D01*
X154984D01*
X156000Y623968D01*
X145000D02*
X146016Y624984D01*
X147032D01*
X146016Y626000D01*
X147032Y627016D01*
X146016D01*
X145000Y628032D01*
X143984Y627016D01*
X142968D01*
X143984Y626000D01*
X142968Y624984D01*
X143984D01*
X145000Y623968D01*
X134000D02*
X135016Y624984D01*
X136032D01*
X135016Y626000D01*
X136032Y627016D01*
X135016D01*
X134000Y628032D01*
X132984Y627016D01*
X131968D01*
X132984Y626000D01*
X131968Y624984D01*
X132984D01*
X134000Y623968D01*
X575000Y744968D02*
X576016Y745984D01*
X577032D01*
X576016Y747000D01*
X577032Y748016D01*
X576016D01*
X575000Y749032D01*
X573984Y748016D01*
X572968D01*
X573984Y747000D01*
X572968Y745984D01*
X573984D01*
X575000Y744968D01*
X565000Y734968D02*
X566016Y735984D01*
X567032D01*
X566016Y737000D01*
X567032Y738016D01*
X566016D01*
X565000Y739032D01*
X563984Y738016D01*
X562968D01*
X563984Y737000D01*
X562968Y735984D01*
X563984D01*
X565000Y734968D01*
X1960000Y689968D02*
X1961016Y690984D01*
X1962032D01*
X1961016Y692000D01*
X1962032Y693016D01*
X1961016D01*
X1960000Y694032D01*
X1958984Y693016D01*
X1957968D01*
X1958984Y692000D01*
X1957968Y690984D01*
X1958984D01*
X1960000Y689968D01*
X1975000D02*
X1976016Y690984D01*
X1977032D01*
X1976016Y692000D01*
X1977032Y693016D01*
X1976016D01*
X1975000Y694032D01*
X1973984Y693016D01*
X1972968D01*
X1973984Y692000D01*
X1972968Y690984D01*
X1973984D01*
X1975000Y689968D01*
X1355000Y709968D02*
X1356016Y710984D01*
X1357032D01*
X1356016Y712000D01*
X1357032Y713016D01*
X1356016D01*
X1355000Y714032D01*
X1353984Y713016D01*
X1352968D01*
X1353984Y712000D01*
X1352968Y710984D01*
X1353984D01*
X1355000Y709968D01*
X1370000D02*
X1371016Y710984D01*
X1372032D01*
X1371016Y712000D01*
X1372032Y713016D01*
X1371016D01*
X1370000Y714032D01*
X1368984Y713016D01*
X1367968D01*
X1368984Y712000D01*
X1367968Y710984D01*
X1368984D01*
X1370000Y709968D01*
X730000D02*
X731016Y710984D01*
X732032D01*
X731016Y712000D01*
X732032Y713016D01*
X731016D01*
X730000Y714032D01*
X728984Y713016D01*
X727968D01*
X728984Y712000D01*
X727968Y710984D01*
X728984D01*
X730000Y709968D01*
X87500Y749968D02*
X88516Y750984D01*
X89532D01*
X88516Y752000D01*
X89532Y753016D01*
X88516D01*
X87500Y754032D01*
X86484Y753016D01*
X85468D01*
X86484Y752000D01*
X85468Y750984D01*
X86484D01*
X87500Y749968D01*
X70000D02*
X71016Y750984D01*
X72032D01*
X71016Y752000D01*
X72032Y753016D01*
X71016D01*
X70000Y754032D01*
X68984Y753016D01*
X67968D01*
X68984Y752000D01*
X67968Y750984D01*
X68984D01*
X70000Y749968D01*
X730000Y724968D02*
X731016Y725984D01*
X732032D01*
X731016Y727000D01*
X732032Y728016D01*
X731016D01*
X730000Y729032D01*
X728984Y728016D01*
X727968D01*
X728984Y727000D01*
X727968Y725984D01*
X728984D01*
X730000Y724968D01*
X1315000Y650718D02*
X1316016Y651734D01*
X1317032D01*
X1316016Y652750D01*
X1317032Y653766D01*
X1316016D01*
X1315000Y654782D01*
X1313984Y653766D01*
X1312968D01*
X1313984Y652750D01*
X1312968Y651734D01*
X1313984D01*
X1315000Y650718D01*
X671750Y659468D02*
X672766Y660484D01*
X673782D01*
X672766Y661500D01*
X673782Y662516D01*
X672766D01*
X671750Y663532D01*
X670734Y662516D01*
X669718D01*
X670734Y661500D01*
X669718Y660484D01*
X670734D01*
X671750Y659468D01*
X683000Y659218D02*
X684016Y660234D01*
X685032D01*
X684016Y661250D01*
X685032Y662266D01*
X684016D01*
X683000Y663282D01*
X681984Y662266D01*
X680968D01*
X681984Y661250D01*
X680968Y660234D01*
X681984D01*
X683000Y659218D01*
X1315750Y704968D02*
X1316766Y705984D01*
X1317782D01*
X1316766Y707000D01*
X1317782Y708016D01*
X1316766D01*
X1315750Y709032D01*
X1314734Y708016D01*
X1313718D01*
X1314734Y707000D01*
X1313718Y705984D01*
X1314734D01*
X1315750Y704968D01*
X236750Y839468D02*
X234718Y843532D01*
X238782D01*
X236750Y839468D01*
X156000Y776968D02*
X157016Y777984D01*
X158032D01*
X157016Y779000D01*
X158032Y780016D01*
X157016D01*
X156000Y781032D01*
X154984Y780016D01*
X153968D01*
X154984Y779000D01*
X153968Y777984D01*
X154984D01*
X156000Y776968D01*
X145000D02*
X146016Y777984D01*
X147032D01*
X146016Y779000D01*
X147032Y780016D01*
X146016D01*
X145000Y781032D01*
X143984Y780016D01*
X142968D01*
X143984Y779000D01*
X142968Y777984D01*
X143984D01*
X145000Y776968D01*
X134000D02*
X135016Y777984D01*
X136032D01*
X135016Y779000D01*
X136032Y780016D01*
X135016D01*
X134000Y781032D01*
X132984Y780016D01*
X131968D01*
X132984Y779000D01*
X131968Y777984D01*
X132984D01*
X134000Y776968D01*
X575000Y897968D02*
X576016Y898984D01*
X577032D01*
X576016Y900000D01*
X577032Y901016D01*
X576016D01*
X575000Y902032D01*
X573984Y901016D01*
X572968D01*
X573984Y900000D01*
X572968Y898984D01*
X573984D01*
X575000Y897968D01*
X565000Y887968D02*
X566016Y888984D01*
X567032D01*
X566016Y890000D01*
X567032Y891016D01*
X566016D01*
X565000Y892032D01*
X563984Y891016D01*
X562968D01*
X563984Y890000D01*
X562968Y888984D01*
X563984D01*
X565000Y887968D01*
X1960000Y842968D02*
X1961016Y843984D01*
X1962032D01*
X1961016Y845000D01*
X1962032Y846016D01*
X1961016D01*
X1960000Y847032D01*
X1958984Y846016D01*
X1957968D01*
X1958984Y845000D01*
X1957968Y843984D01*
X1958984D01*
X1960000Y842968D01*
X1975000D02*
X1976016Y843984D01*
X1977032D01*
X1976016Y845000D01*
X1977032Y846016D01*
X1976016D01*
X1975000Y847032D01*
X1973984Y846016D01*
X1972968D01*
X1973984Y845000D01*
X1972968Y843984D01*
X1973984D01*
X1975000Y842968D01*
X1355000Y862968D02*
X1356016Y863984D01*
X1357032D01*
X1356016Y865000D01*
X1357032Y866016D01*
X1356016D01*
X1355000Y867032D01*
X1353984Y866016D01*
X1352968D01*
X1353984Y865000D01*
X1352968Y863984D01*
X1353984D01*
X1355000Y862968D01*
X1370000D02*
X1371016Y863984D01*
X1372032D01*
X1371016Y865000D01*
X1372032Y866016D01*
X1371016D01*
X1370000Y867032D01*
X1368984Y866016D01*
X1367968D01*
X1368984Y865000D01*
X1367968Y863984D01*
X1368984D01*
X1370000Y862968D01*
X730000D02*
X731016Y863984D01*
X732032D01*
X731016Y865000D01*
X732032Y866016D01*
X731016D01*
X730000Y867032D01*
X728984Y866016D01*
X727968D01*
X728984Y865000D01*
X727968Y863984D01*
X728984D01*
X730000Y862968D01*
X87500Y902968D02*
X88516Y903984D01*
X89532D01*
X88516Y905000D01*
X89532Y906016D01*
X88516D01*
X87500Y907032D01*
X86484Y906016D01*
X85468D01*
X86484Y905000D01*
X85468Y903984D01*
X86484D01*
X87500Y902968D01*
X70000D02*
X71016Y903984D01*
X72032D01*
X71016Y905000D01*
X72032Y906016D01*
X71016D01*
X70000Y907032D01*
X68984Y906016D01*
X67968D01*
X68984Y905000D01*
X67968Y903984D01*
X68984D01*
X70000Y902968D01*
X730000Y877968D02*
X731016Y878984D01*
X732032D01*
X731016Y880000D01*
X732032Y881016D01*
X731016D01*
X730000Y882032D01*
X728984Y881016D01*
X727968D01*
X728984Y880000D01*
X727968Y878984D01*
X728984D01*
X730000Y877968D01*
X1315000Y803718D02*
X1316016Y804734D01*
X1317032D01*
X1316016Y805750D01*
X1317032Y806766D01*
X1316016D01*
X1315000Y807782D01*
X1313984Y806766D01*
X1312968D01*
X1313984Y805750D01*
X1312968Y804734D01*
X1313984D01*
X1315000Y803718D01*
X671750Y812468D02*
X672766Y813484D01*
X673782D01*
X672766Y814500D01*
X673782Y815516D01*
X672766D01*
X671750Y816532D01*
X670734Y815516D01*
X669718D01*
X670734Y814500D01*
X669718Y813484D01*
X670734D01*
X671750Y812468D01*
X683000Y812218D02*
X684016Y813234D01*
X685032D01*
X684016Y814250D01*
X685032Y815266D01*
X684016D01*
X683000Y816282D01*
X681984Y815266D01*
X680968D01*
X681984Y814250D01*
X680968Y813234D01*
X681984D01*
X683000Y812218D01*
X1315750Y857968D02*
X1316766Y858984D01*
X1317782D01*
X1316766Y860000D01*
X1317782Y861016D01*
X1316766D01*
X1315750Y862032D01*
X1314734Y861016D01*
X1313718D01*
X1314734Y860000D01*
X1313718Y858984D01*
X1314734D01*
X1315750Y857968D01*
X236750Y992468D02*
X234718Y996532D01*
X238782D01*
X236750Y992468D01*
X156000Y929968D02*
X157016Y930984D01*
X158032D01*
X157016Y932000D01*
X158032Y933016D01*
X157016D01*
X156000Y934032D01*
X154984Y933016D01*
X153968D01*
X154984Y932000D01*
X153968Y930984D01*
X154984D01*
X156000Y929968D01*
X145000D02*
X146016Y930984D01*
X147032D01*
X146016Y932000D01*
X147032Y933016D01*
X146016D01*
X145000Y934032D01*
X143984Y933016D01*
X142968D01*
X143984Y932000D01*
X142968Y930984D01*
X143984D01*
X145000Y929968D01*
X134000D02*
X135016Y930984D01*
X136032D01*
X135016Y932000D01*
X136032Y933016D01*
X135016D01*
X134000Y934032D01*
X132984Y933016D01*
X131968D01*
X132984Y932000D01*
X131968Y930984D01*
X132984D01*
X134000Y929968D01*
X575000Y1050968D02*
X576016Y1051984D01*
X577032D01*
X576016Y1053000D01*
X577032Y1054016D01*
X576016D01*
X575000Y1055032D01*
X573984Y1054016D01*
X572968D01*
X573984Y1053000D01*
X572968Y1051984D01*
X573984D01*
X575000Y1050968D01*
X565000Y1040968D02*
X566016Y1041984D01*
X567032D01*
X566016Y1043000D01*
X567032Y1044016D01*
X566016D01*
X565000Y1045032D01*
X563984Y1044016D01*
X562968D01*
X563984Y1043000D01*
X562968Y1041984D01*
X563984D01*
X565000Y1040968D01*
X1960000Y995968D02*
X1961016Y996984D01*
X1962032D01*
X1961016Y998000D01*
X1962032Y999016D01*
X1961016D01*
X1960000Y1000032D01*
X1958984Y999016D01*
X1957968D01*
X1958984Y998000D01*
X1957968Y996984D01*
X1958984D01*
X1960000Y995968D01*
X1975000D02*
X1976016Y996984D01*
X1977032D01*
X1976016Y998000D01*
X1977032Y999016D01*
X1976016D01*
X1975000Y1000032D01*
X1973984Y999016D01*
X1972968D01*
X1973984Y998000D01*
X1972968Y996984D01*
X1973984D01*
X1975000Y995968D01*
X1355000Y1015968D02*
X1356016Y1016984D01*
X1357032D01*
X1356016Y1018000D01*
X1357032Y1019016D01*
X1356016D01*
X1355000Y1020032D01*
X1353984Y1019016D01*
X1352968D01*
X1353984Y1018000D01*
X1352968Y1016984D01*
X1353984D01*
X1355000Y1015968D01*
X1370000D02*
X1371016Y1016984D01*
X1372032D01*
X1371016Y1018000D01*
X1372032Y1019016D01*
X1371016D01*
X1370000Y1020032D01*
X1368984Y1019016D01*
X1367968D01*
X1368984Y1018000D01*
X1367968Y1016984D01*
X1368984D01*
X1370000Y1015968D01*
X730000D02*
X731016Y1016984D01*
X732032D01*
X731016Y1018000D01*
X732032Y1019016D01*
X731016D01*
X730000Y1020032D01*
X728984Y1019016D01*
X727968D01*
X728984Y1018000D01*
X727968Y1016984D01*
X728984D01*
X730000Y1015968D01*
X87500Y1055968D02*
X88516Y1056984D01*
X89532D01*
X88516Y1058000D01*
X89532Y1059016D01*
X88516D01*
X87500Y1060032D01*
X86484Y1059016D01*
X85468D01*
X86484Y1058000D01*
X85468Y1056984D01*
X86484D01*
X87500Y1055968D01*
X70000D02*
X71016Y1056984D01*
X72032D01*
X71016Y1058000D01*
X72032Y1059016D01*
X71016D01*
X70000Y1060032D01*
X68984Y1059016D01*
X67968D01*
X68984Y1058000D01*
X67968Y1056984D01*
X68984D01*
X70000Y1055968D01*
X730000Y1030968D02*
X731016Y1031984D01*
X732032D01*
X731016Y1033000D01*
X732032Y1034016D01*
X731016D01*
X730000Y1035032D01*
X728984Y1034016D01*
X727968D01*
X728984Y1033000D01*
X727968Y1031984D01*
X728984D01*
X730000Y1030968D01*
X1315000Y956718D02*
X1316016Y957734D01*
X1317032D01*
X1316016Y958750D01*
X1317032Y959766D01*
X1316016D01*
X1315000Y960782D01*
X1313984Y959766D01*
X1312968D01*
X1313984Y958750D01*
X1312968Y957734D01*
X1313984D01*
X1315000Y956718D01*
X671750Y965468D02*
X672766Y966484D01*
X673782D01*
X672766Y967500D01*
X673782Y968516D01*
X672766D01*
X671750Y969532D01*
X670734Y968516D01*
X669718D01*
X670734Y967500D01*
X669718Y966484D01*
X670734D01*
X671750Y965468D01*
X683000Y965218D02*
X684016Y966234D01*
X685032D01*
X684016Y967250D01*
X685032Y968266D01*
X684016D01*
X683000Y969282D01*
X681984Y968266D01*
X680968D01*
X681984Y967250D01*
X680968Y966234D01*
X681984D01*
X683000Y965218D01*
X1315750Y1010968D02*
X1316766Y1011984D01*
X1317782D01*
X1316766Y1013000D01*
X1317782Y1014016D01*
X1316766D01*
X1315750Y1015032D01*
X1314734Y1014016D01*
X1313718D01*
X1314734Y1013000D01*
X1313718Y1011984D01*
X1314734D01*
X1315750Y1010968D01*
X236750Y1145468D02*
X234718Y1149532D01*
X238782D01*
X236750Y1145468D01*
X156000Y1082968D02*
X157016Y1083984D01*
X158032D01*
X157016Y1085000D01*
X158032Y1086016D01*
X157016D01*
X156000Y1087032D01*
X154984Y1086016D01*
X153968D01*
X154984Y1085000D01*
X153968Y1083984D01*
X154984D01*
X156000Y1082968D01*
X145000D02*
X146016Y1083984D01*
X147032D01*
X146016Y1085000D01*
X147032Y1086016D01*
X146016D01*
X145000Y1087032D01*
X143984Y1086016D01*
X142968D01*
X143984Y1085000D01*
X142968Y1083984D01*
X143984D01*
X145000Y1082968D01*
X134000D02*
X135016Y1083984D01*
X136032D01*
X135016Y1085000D01*
X136032Y1086016D01*
X135016D01*
X134000Y1087032D01*
X132984Y1086016D01*
X131968D01*
X132984Y1085000D01*
X131968Y1083984D01*
X132984D01*
X134000Y1082968D01*
X575000Y1203968D02*
X576016Y1204984D01*
X577032D01*
X576016Y1206000D01*
X577032Y1207016D01*
X576016D01*
X575000Y1208032D01*
X573984Y1207016D01*
X572968D01*
X573984Y1206000D01*
X572968Y1204984D01*
X573984D01*
X575000Y1203968D01*
X565000Y1193968D02*
X566016Y1194984D01*
X567032D01*
X566016Y1196000D01*
X567032Y1197016D01*
X566016D01*
X565000Y1198032D01*
X563984Y1197016D01*
X562968D01*
X563984Y1196000D01*
X562968Y1194984D01*
X563984D01*
X565000Y1193968D01*
X1960000Y1148968D02*
X1961016Y1149984D01*
X1962032D01*
X1961016Y1151000D01*
X1962032Y1152016D01*
X1961016D01*
X1960000Y1153032D01*
X1958984Y1152016D01*
X1957968D01*
X1958984Y1151000D01*
X1957968Y1149984D01*
X1958984D01*
X1960000Y1148968D01*
X1975000D02*
X1976016Y1149984D01*
X1977032D01*
X1976016Y1151000D01*
X1977032Y1152016D01*
X1976016D01*
X1975000Y1153032D01*
X1973984Y1152016D01*
X1972968D01*
X1973984Y1151000D01*
X1972968Y1149984D01*
X1973984D01*
X1975000Y1148968D01*
X1355000Y1168968D02*
X1356016Y1169984D01*
X1357032D01*
X1356016Y1171000D01*
X1357032Y1172016D01*
X1356016D01*
X1355000Y1173032D01*
X1353984Y1172016D01*
X1352968D01*
X1353984Y1171000D01*
X1352968Y1169984D01*
X1353984D01*
X1355000Y1168968D01*
X1370000D02*
X1371016Y1169984D01*
X1372032D01*
X1371016Y1171000D01*
X1372032Y1172016D01*
X1371016D01*
X1370000Y1173032D01*
X1368984Y1172016D01*
X1367968D01*
X1368984Y1171000D01*
X1367968Y1169984D01*
X1368984D01*
X1370000Y1168968D01*
X730000D02*
X731016Y1169984D01*
X732032D01*
X731016Y1171000D01*
X732032Y1172016D01*
X731016D01*
X730000Y1173032D01*
X728984Y1172016D01*
X727968D01*
X728984Y1171000D01*
X727968Y1169984D01*
X728984D01*
X730000Y1168968D01*
X87500Y1208968D02*
X88516Y1209984D01*
X89532D01*
X88516Y1211000D01*
X89532Y1212016D01*
X88516D01*
X87500Y1213032D01*
X86484Y1212016D01*
X85468D01*
X86484Y1211000D01*
X85468Y1209984D01*
X86484D01*
X87500Y1208968D01*
X70000D02*
X71016Y1209984D01*
X72032D01*
X71016Y1211000D01*
X72032Y1212016D01*
X71016D01*
X70000Y1213032D01*
X68984Y1212016D01*
X67968D01*
X68984Y1211000D01*
X67968Y1209984D01*
X68984D01*
X70000Y1208968D01*
X730000Y1183968D02*
X731016Y1184984D01*
X732032D01*
X731016Y1186000D01*
X732032Y1187016D01*
X731016D01*
X730000Y1188032D01*
X728984Y1187016D01*
X727968D01*
X728984Y1186000D01*
X727968Y1184984D01*
X728984D01*
X730000Y1183968D01*
X1315000Y1109718D02*
X1316016Y1110734D01*
X1317032D01*
X1316016Y1111750D01*
X1317032Y1112766D01*
X1316016D01*
X1315000Y1113782D01*
X1313984Y1112766D01*
X1312968D01*
X1313984Y1111750D01*
X1312968Y1110734D01*
X1313984D01*
X1315000Y1109718D01*
X671750Y1118468D02*
X672766Y1119484D01*
X673782D01*
X672766Y1120500D01*
X673782Y1121516D01*
X672766D01*
X671750Y1122532D01*
X670734Y1121516D01*
X669718D01*
X670734Y1120500D01*
X669718Y1119484D01*
X670734D01*
X671750Y1118468D01*
X683000Y1118218D02*
X684016Y1119234D01*
X685032D01*
X684016Y1120250D01*
X685032Y1121266D01*
X684016D01*
X683000Y1122282D01*
X681984Y1121266D01*
X680968D01*
X681984Y1120250D01*
X680968Y1119234D01*
X681984D01*
X683000Y1118218D01*
X1315750Y1163968D02*
X1316766Y1164984D01*
X1317782D01*
X1316766Y1166000D01*
X1317782Y1167016D01*
X1316766D01*
X1315750Y1168032D01*
X1314734Y1167016D01*
X1313718D01*
X1314734Y1166000D01*
X1313718Y1164984D01*
X1314734D01*
X1315750Y1163968D01*
X236750Y1298468D02*
X234718Y1302532D01*
X238782D01*
X236750Y1298468D01*
X156000Y1235968D02*
X157016Y1236984D01*
X158032D01*
X157016Y1238000D01*
X158032Y1239016D01*
X157016D01*
X156000Y1240032D01*
X154984Y1239016D01*
X153968D01*
X154984Y1238000D01*
X153968Y1236984D01*
X154984D01*
X156000Y1235968D01*
X145000D02*
X146016Y1236984D01*
X147032D01*
X146016Y1238000D01*
X147032Y1239016D01*
X146016D01*
X145000Y1240032D01*
X143984Y1239016D01*
X142968D01*
X143984Y1238000D01*
X142968Y1236984D01*
X143984D01*
X145000Y1235968D01*
X134000D02*
X135016Y1236984D01*
X136032D01*
X135016Y1238000D01*
X136032Y1239016D01*
X135016D01*
X134000Y1240032D01*
X132984Y1239016D01*
X131968D01*
X132984Y1238000D01*
X131968Y1236984D01*
X132984D01*
X134000Y1235968D01*
X575000Y1356968D02*
X576016Y1357984D01*
X577032D01*
X576016Y1359000D01*
X577032Y1360016D01*
X576016D01*
X575000Y1361032D01*
X573984Y1360016D01*
X572968D01*
X573984Y1359000D01*
X572968Y1357984D01*
X573984D01*
X575000Y1356968D01*
X565000Y1346968D02*
X566016Y1347984D01*
X567032D01*
X566016Y1349000D01*
X567032Y1350016D01*
X566016D01*
X565000Y1351032D01*
X563984Y1350016D01*
X562968D01*
X563984Y1349000D01*
X562968Y1347984D01*
X563984D01*
X565000Y1346968D01*
X1960000Y1301968D02*
X1961016Y1302984D01*
X1962032D01*
X1961016Y1304000D01*
X1962032Y1305016D01*
X1961016D01*
X1960000Y1306032D01*
X1958984Y1305016D01*
X1957968D01*
X1958984Y1304000D01*
X1957968Y1302984D01*
X1958984D01*
X1960000Y1301968D01*
X1975000D02*
X1976016Y1302984D01*
X1977032D01*
X1976016Y1304000D01*
X1977032Y1305016D01*
X1976016D01*
X1975000Y1306032D01*
X1973984Y1305016D01*
X1972968D01*
X1973984Y1304000D01*
X1972968Y1302984D01*
X1973984D01*
X1975000Y1301968D01*
X1355000Y1321968D02*
X1356016Y1322984D01*
X1357032D01*
X1356016Y1324000D01*
X1357032Y1325016D01*
X1356016D01*
X1355000Y1326032D01*
X1353984Y1325016D01*
X1352968D01*
X1353984Y1324000D01*
X1352968Y1322984D01*
X1353984D01*
X1355000Y1321968D01*
X1370000D02*
X1371016Y1322984D01*
X1372032D01*
X1371016Y1324000D01*
X1372032Y1325016D01*
X1371016D01*
X1370000Y1326032D01*
X1368984Y1325016D01*
X1367968D01*
X1368984Y1324000D01*
X1367968Y1322984D01*
X1368984D01*
X1370000Y1321968D01*
X730000D02*
X731016Y1322984D01*
X732032D01*
X731016Y1324000D01*
X732032Y1325016D01*
X731016D01*
X730000Y1326032D01*
X728984Y1325016D01*
X727968D01*
X728984Y1324000D01*
X727968Y1322984D01*
X728984D01*
X730000Y1321968D01*
X87500Y1361968D02*
X88516Y1362984D01*
X89532D01*
X88516Y1364000D01*
X89532Y1365016D01*
X88516D01*
X87500Y1366032D01*
X86484Y1365016D01*
X85468D01*
X86484Y1364000D01*
X85468Y1362984D01*
X86484D01*
X87500Y1361968D01*
X70000D02*
X71016Y1362984D01*
X72032D01*
X71016Y1364000D01*
X72032Y1365016D01*
X71016D01*
X70000Y1366032D01*
X68984Y1365016D01*
X67968D01*
X68984Y1364000D01*
X67968Y1362984D01*
X68984D01*
X70000Y1361968D01*
X730000Y1336968D02*
X731016Y1337984D01*
X732032D01*
X731016Y1339000D01*
X732032Y1340016D01*
X731016D01*
X730000Y1341032D01*
X728984Y1340016D01*
X727968D01*
X728984Y1339000D01*
X727968Y1337984D01*
X728984D01*
X730000Y1336968D01*
X1315000Y1262718D02*
X1316016Y1263734D01*
X1317032D01*
X1316016Y1264750D01*
X1317032Y1265766D01*
X1316016D01*
X1315000Y1266782D01*
X1313984Y1265766D01*
X1312968D01*
X1313984Y1264750D01*
X1312968Y1263734D01*
X1313984D01*
X1315000Y1262718D01*
X671750Y1271468D02*
X672766Y1272484D01*
X673782D01*
X672766Y1273500D01*
X673782Y1274516D01*
X672766D01*
X671750Y1275532D01*
X670734Y1274516D01*
X669718D01*
X670734Y1273500D01*
X669718Y1272484D01*
X670734D01*
X671750Y1271468D01*
X683000Y1271218D02*
X684016Y1272234D01*
X685032D01*
X684016Y1273250D01*
X685032Y1274266D01*
X684016D01*
X683000Y1275282D01*
X681984Y1274266D01*
X680968D01*
X681984Y1273250D01*
X680968Y1272234D01*
X681984D01*
X683000Y1271218D01*
X1315750Y1316968D02*
X1316766Y1317984D01*
X1317782D01*
X1316766Y1319000D01*
X1317782Y1320016D01*
X1316766D01*
X1315750Y1321032D01*
X1314734Y1320016D01*
X1313718D01*
X1314734Y1319000D01*
X1313718Y1317984D01*
X1314734D01*
X1315750Y1316968D01*
X236750Y1451468D02*
X234718Y1455532D01*
X238782D01*
X236750Y1451468D01*
X156000Y1388968D02*
X157016Y1389984D01*
X158032D01*
X157016Y1391000D01*
X158032Y1392016D01*
X157016D01*
X156000Y1393032D01*
X154984Y1392016D01*
X153968D01*
X154984Y1391000D01*
X153968Y1389984D01*
X154984D01*
X156000Y1388968D01*
X145000D02*
X146016Y1389984D01*
X147032D01*
X146016Y1391000D01*
X147032Y1392016D01*
X146016D01*
X145000Y1393032D01*
X143984Y1392016D01*
X142968D01*
X143984Y1391000D01*
X142968Y1389984D01*
X143984D01*
X145000Y1388968D01*
X134000D02*
X135016Y1389984D01*
X136032D01*
X135016Y1391000D01*
X136032Y1392016D01*
X135016D01*
X134000Y1393032D01*
X132984Y1392016D01*
X131968D01*
X132984Y1391000D01*
X131968Y1389984D01*
X132984D01*
X134000Y1388968D01*
X575000Y1509968D02*
X576016Y1510984D01*
X577032D01*
X576016Y1512000D01*
X577032Y1513016D01*
X576016D01*
X575000Y1514032D01*
X573984Y1513016D01*
X572968D01*
X573984Y1512000D01*
X572968Y1510984D01*
X573984D01*
X575000Y1509968D01*
X565000Y1499968D02*
X566016Y1500984D01*
X567032D01*
X566016Y1502000D01*
X567032Y1503016D01*
X566016D01*
X565000Y1504032D01*
X563984Y1503016D01*
X562968D01*
X563984Y1502000D01*
X562968Y1500984D01*
X563984D01*
X565000Y1499968D01*
X1960000Y1454968D02*
X1961016Y1455984D01*
X1962032D01*
X1961016Y1457000D01*
X1962032Y1458016D01*
X1961016D01*
X1960000Y1459032D01*
X1958984Y1458016D01*
X1957968D01*
X1958984Y1457000D01*
X1957968Y1455984D01*
X1958984D01*
X1960000Y1454968D01*
X1975000D02*
X1976016Y1455984D01*
X1977032D01*
X1976016Y1457000D01*
X1977032Y1458016D01*
X1976016D01*
X1975000Y1459032D01*
X1973984Y1458016D01*
X1972968D01*
X1973984Y1457000D01*
X1972968Y1455984D01*
X1973984D01*
X1975000Y1454968D01*
X1355000Y1474968D02*
X1356016Y1475984D01*
X1357032D01*
X1356016Y1477000D01*
X1357032Y1478016D01*
X1356016D01*
X1355000Y1479032D01*
X1353984Y1478016D01*
X1352968D01*
X1353984Y1477000D01*
X1352968Y1475984D01*
X1353984D01*
X1355000Y1474968D01*
X1370000D02*
X1371016Y1475984D01*
X1372032D01*
X1371016Y1477000D01*
X1372032Y1478016D01*
X1371016D01*
X1370000Y1479032D01*
X1368984Y1478016D01*
X1367968D01*
X1368984Y1477000D01*
X1367968Y1475984D01*
X1368984D01*
X1370000Y1474968D01*
X730000D02*
X731016Y1475984D01*
X732032D01*
X731016Y1477000D01*
X732032Y1478016D01*
X731016D01*
X730000Y1479032D01*
X728984Y1478016D01*
X727968D01*
X728984Y1477000D01*
X727968Y1475984D01*
X728984D01*
X730000Y1474968D01*
X87500Y1514968D02*
X88516Y1515984D01*
X89532D01*
X88516Y1517000D01*
X89532Y1518016D01*
X88516D01*
X87500Y1519032D01*
X86484Y1518016D01*
X85468D01*
X86484Y1517000D01*
X85468Y1515984D01*
X86484D01*
X87500Y1514968D01*
X70000D02*
X71016Y1515984D01*
X72032D01*
X71016Y1517000D01*
X72032Y1518016D01*
X71016D01*
X70000Y1519032D01*
X68984Y1518016D01*
X67968D01*
X68984Y1517000D01*
X67968Y1515984D01*
X68984D01*
X70000Y1514968D01*
X730000Y1489968D02*
X731016Y1490984D01*
X732032D01*
X731016Y1492000D01*
X732032Y1493016D01*
X731016D01*
X730000Y1494032D01*
X728984Y1493016D01*
X727968D01*
X728984Y1492000D01*
X727968Y1490984D01*
X728984D01*
X730000Y1489968D01*
X1315000Y1415718D02*
X1316016Y1416734D01*
X1317032D01*
X1316016Y1417750D01*
X1317032Y1418766D01*
X1316016D01*
X1315000Y1419782D01*
X1313984Y1418766D01*
X1312968D01*
X1313984Y1417750D01*
X1312968Y1416734D01*
X1313984D01*
X1315000Y1415718D01*
X671750Y1424468D02*
X672766Y1425484D01*
X673782D01*
X672766Y1426500D01*
X673782Y1427516D01*
X672766D01*
X671750Y1428532D01*
X670734Y1427516D01*
X669718D01*
X670734Y1426500D01*
X669718Y1425484D01*
X670734D01*
X671750Y1424468D01*
X683000Y1424218D02*
X684016Y1425234D01*
X685032D01*
X684016Y1426250D01*
X685032Y1427266D01*
X684016D01*
X683000Y1428282D01*
X681984Y1427266D01*
X680968D01*
X681984Y1426250D01*
X680968Y1425234D01*
X681984D01*
X683000Y1424218D01*
X1315750Y1469968D02*
X1316766Y1470984D01*
X1317782D01*
X1316766Y1472000D01*
X1317782Y1473016D01*
X1316766D01*
X1315750Y1474032D01*
X1314734Y1473016D01*
X1313718D01*
X1314734Y1472000D01*
X1313718Y1470984D01*
X1314734D01*
X1315750Y1469968D01*
X236750Y1604468D02*
X234718Y1608532D01*
X238782D01*
X236750Y1604468D01*
X156000Y1541968D02*
X157016Y1542984D01*
X158032D01*
X157016Y1544000D01*
X158032Y1545016D01*
X157016D01*
X156000Y1546032D01*
X154984Y1545016D01*
X153968D01*
X154984Y1544000D01*
X153968Y1542984D01*
X154984D01*
X156000Y1541968D01*
X145000D02*
X146016Y1542984D01*
X147032D01*
X146016Y1544000D01*
X147032Y1545016D01*
X146016D01*
X145000Y1546032D01*
X143984Y1545016D01*
X142968D01*
X143984Y1544000D01*
X142968Y1542984D01*
X143984D01*
X145000Y1541968D01*
X134000D02*
X135016Y1542984D01*
X136032D01*
X135016Y1544000D01*
X136032Y1545016D01*
X135016D01*
X134000Y1546032D01*
X132984Y1545016D01*
X131968D01*
X132984Y1544000D01*
X131968Y1542984D01*
X132984D01*
X134000Y1541968D01*
X575000Y1662968D02*
X576016Y1663984D01*
X577032D01*
X576016Y1665000D01*
X577032Y1666016D01*
X576016D01*
X575000Y1667032D01*
X573984Y1666016D01*
X572968D01*
X573984Y1665000D01*
X572968Y1663984D01*
X573984D01*
X575000Y1662968D01*
X565000Y1652968D02*
X566016Y1653984D01*
X567032D01*
X566016Y1655000D01*
X567032Y1656016D01*
X566016D01*
X565000Y1657032D01*
X563984Y1656016D01*
X562968D01*
X563984Y1655000D01*
X562968Y1653984D01*
X563984D01*
X565000Y1652968D01*
X1960000Y1607968D02*
X1961016Y1608984D01*
X1962032D01*
X1961016Y1610000D01*
X1962032Y1611016D01*
X1961016D01*
X1960000Y1612032D01*
X1958984Y1611016D01*
X1957968D01*
X1958984Y1610000D01*
X1957968Y1608984D01*
X1958984D01*
X1960000Y1607968D01*
X1975000D02*
X1976016Y1608984D01*
X1977032D01*
X1976016Y1610000D01*
X1977032Y1611016D01*
X1976016D01*
X1975000Y1612032D01*
X1973984Y1611016D01*
X1972968D01*
X1973984Y1610000D01*
X1972968Y1608984D01*
X1973984D01*
X1975000Y1607968D01*
X1355000Y1627968D02*
X1356016Y1628984D01*
X1357032D01*
X1356016Y1630000D01*
X1357032Y1631016D01*
X1356016D01*
X1355000Y1632032D01*
X1353984Y1631016D01*
X1352968D01*
X1353984Y1630000D01*
X1352968Y1628984D01*
X1353984D01*
X1355000Y1627968D01*
X1370000D02*
X1371016Y1628984D01*
X1372032D01*
X1371016Y1630000D01*
X1372032Y1631016D01*
X1371016D01*
X1370000Y1632032D01*
X1368984Y1631016D01*
X1367968D01*
X1368984Y1630000D01*
X1367968Y1628984D01*
X1368984D01*
X1370000Y1627968D01*
X730000D02*
X731016Y1628984D01*
X732032D01*
X731016Y1630000D01*
X732032Y1631016D01*
X731016D01*
X730000Y1632032D01*
X728984Y1631016D01*
X727968D01*
X728984Y1630000D01*
X727968Y1628984D01*
X728984D01*
X730000Y1627968D01*
X87500Y1667968D02*
X88516Y1668984D01*
X89532D01*
X88516Y1670000D01*
X89532Y1671016D01*
X88516D01*
X87500Y1672032D01*
X86484Y1671016D01*
X85468D01*
X86484Y1670000D01*
X85468Y1668984D01*
X86484D01*
X87500Y1667968D01*
X70000D02*
X71016Y1668984D01*
X72032D01*
X71016Y1670000D01*
X72032Y1671016D01*
X71016D01*
X70000Y1672032D01*
X68984Y1671016D01*
X67968D01*
X68984Y1670000D01*
X67968Y1668984D01*
X68984D01*
X70000Y1667968D01*
X730000Y1642968D02*
X731016Y1643984D01*
X732032D01*
X731016Y1645000D01*
X732032Y1646016D01*
X731016D01*
X730000Y1647032D01*
X728984Y1646016D01*
X727968D01*
X728984Y1645000D01*
X727968Y1643984D01*
X728984D01*
X730000Y1642968D01*
X1315000Y1568718D02*
X1316016Y1569734D01*
X1317032D01*
X1316016Y1570750D01*
X1317032Y1571766D01*
X1316016D01*
X1315000Y1572782D01*
X1313984Y1571766D01*
X1312968D01*
X1313984Y1570750D01*
X1312968Y1569734D01*
X1313984D01*
X1315000Y1568718D01*
X671750Y1577468D02*
X672766Y1578484D01*
X673782D01*
X672766Y1579500D01*
X673782Y1580516D01*
X672766D01*
X671750Y1581532D01*
X670734Y1580516D01*
X669718D01*
X670734Y1579500D01*
X669718Y1578484D01*
X670734D01*
X671750Y1577468D01*
X683000Y1577218D02*
X684016Y1578234D01*
X685032D01*
X684016Y1579250D01*
X685032Y1580266D01*
X684016D01*
X683000Y1581282D01*
X681984Y1580266D01*
X680968D01*
X681984Y1579250D01*
X680968Y1578234D01*
X681984D01*
X683000Y1577218D01*
X1315750Y1622968D02*
X1316766Y1623984D01*
X1317782D01*
X1316766Y1625000D01*
X1317782Y1626016D01*
X1316766D01*
X1315750Y1627032D01*
X1314734Y1626016D01*
X1313718D01*
X1314734Y1625000D01*
X1313718Y1623984D01*
X1314734D01*
X1315750Y1622968D01*
X236750Y1757468D02*
X234718Y1761532D01*
X238782D01*
X236750Y1757468D01*
X156000Y1694968D02*
X157016Y1695984D01*
X158032D01*
X157016Y1697000D01*
X158032Y1698016D01*
X157016D01*
X156000Y1699032D01*
X154984Y1698016D01*
X153968D01*
X154984Y1697000D01*
X153968Y1695984D01*
X154984D01*
X156000Y1694968D01*
X145000D02*
X146016Y1695984D01*
X147032D01*
X146016Y1697000D01*
X147032Y1698016D01*
X146016D01*
X145000Y1699032D01*
X143984Y1698016D01*
X142968D01*
X143984Y1697000D01*
X142968Y1695984D01*
X143984D01*
X145000Y1694968D01*
X134000D02*
X135016Y1695984D01*
X136032D01*
X135016Y1697000D01*
X136032Y1698016D01*
X135016D01*
X134000Y1699032D01*
X132984Y1698016D01*
X131968D01*
X132984Y1697000D01*
X131968Y1695984D01*
X132984D01*
X134000Y1694968D01*
X575000Y1815968D02*
X576016Y1816984D01*
X577032D01*
X576016Y1818000D01*
X577032Y1819016D01*
X576016D01*
X575000Y1820032D01*
X573984Y1819016D01*
X572968D01*
X573984Y1818000D01*
X572968Y1816984D01*
X573984D01*
X575000Y1815968D01*
X565000Y1805968D02*
X566016Y1806984D01*
X567032D01*
X566016Y1808000D01*
X567032Y1809016D01*
X566016D01*
X565000Y1810032D01*
X563984Y1809016D01*
X562968D01*
X563984Y1808000D01*
X562968Y1806984D01*
X563984D01*
X565000Y1805968D01*
X1960000Y1760968D02*
X1961016Y1761984D01*
X1962032D01*
X1961016Y1763000D01*
X1962032Y1764016D01*
X1961016D01*
X1960000Y1765032D01*
X1958984Y1764016D01*
X1957968D01*
X1958984Y1763000D01*
X1957968Y1761984D01*
X1958984D01*
X1960000Y1760968D01*
X1975000D02*
X1976016Y1761984D01*
X1977032D01*
X1976016Y1763000D01*
X1977032Y1764016D01*
X1976016D01*
X1975000Y1765032D01*
X1973984Y1764016D01*
X1972968D01*
X1973984Y1763000D01*
X1972968Y1761984D01*
X1973984D01*
X1975000Y1760968D01*
X1355000Y1780968D02*
X1356016Y1781984D01*
X1357032D01*
X1356016Y1783000D01*
X1357032Y1784016D01*
X1356016D01*
X1355000Y1785032D01*
X1353984Y1784016D01*
X1352968D01*
X1353984Y1783000D01*
X1352968Y1781984D01*
X1353984D01*
X1355000Y1780968D01*
X1370000D02*
X1371016Y1781984D01*
X1372032D01*
X1371016Y1783000D01*
X1372032Y1784016D01*
X1371016D01*
X1370000Y1785032D01*
X1368984Y1784016D01*
X1367968D01*
X1368984Y1783000D01*
X1367968Y1781984D01*
X1368984D01*
X1370000Y1780968D01*
X730000D02*
X731016Y1781984D01*
X732032D01*
X731016Y1783000D01*
X732032Y1784016D01*
X731016D01*
X730000Y1785032D01*
X728984Y1784016D01*
X727968D01*
X728984Y1783000D01*
X727968Y1781984D01*
X728984D01*
X730000Y1780968D01*
X87500Y1820968D02*
X88516Y1821984D01*
X89532D01*
X88516Y1823000D01*
X89532Y1824016D01*
X88516D01*
X87500Y1825032D01*
X86484Y1824016D01*
X85468D01*
X86484Y1823000D01*
X85468Y1821984D01*
X86484D01*
X87500Y1820968D01*
X70000D02*
X71016Y1821984D01*
X72032D01*
X71016Y1823000D01*
X72032Y1824016D01*
X71016D01*
X70000Y1825032D01*
X68984Y1824016D01*
X67968D01*
X68984Y1823000D01*
X67968Y1821984D01*
X68984D01*
X70000Y1820968D01*
X730000Y1795968D02*
X731016Y1796984D01*
X732032D01*
X731016Y1798000D01*
X732032Y1799016D01*
X731016D01*
X730000Y1800032D01*
X728984Y1799016D01*
X727968D01*
X728984Y1798000D01*
X727968Y1796984D01*
X728984D01*
X730000Y1795968D01*
X1315000Y1721718D02*
X1316016Y1722734D01*
X1317032D01*
X1316016Y1723750D01*
X1317032Y1724766D01*
X1316016D01*
X1315000Y1725782D01*
X1313984Y1724766D01*
X1312968D01*
X1313984Y1723750D01*
X1312968Y1722734D01*
X1313984D01*
X1315000Y1721718D01*
X671750Y1730468D02*
X672766Y1731484D01*
X673782D01*
X672766Y1732500D01*
X673782Y1733516D01*
X672766D01*
X671750Y1734532D01*
X670734Y1733516D01*
X669718D01*
X670734Y1732500D01*
X669718Y1731484D01*
X670734D01*
X671750Y1730468D01*
X683000Y1730218D02*
X684016Y1731234D01*
X685032D01*
X684016Y1732250D01*
X685032Y1733266D01*
X684016D01*
X683000Y1734282D01*
X681984Y1733266D01*
X680968D01*
X681984Y1732250D01*
X680968Y1731234D01*
X681984D01*
X683000Y1730218D01*
X1315750Y1775968D02*
X1316766Y1776984D01*
X1317782D01*
X1316766Y1778000D01*
X1317782Y1779016D01*
X1316766D01*
X1315750Y1780032D01*
X1314734Y1779016D01*
X1313718D01*
X1314734Y1778000D01*
X1313718Y1776984D01*
X1314734D01*
X1315750Y1775968D01*
X236750Y1910468D02*
X234718Y1914532D01*
X238782D01*
X236750Y1910468D01*
X156000Y1847968D02*
X157016Y1848984D01*
X158032D01*
X157016Y1850000D01*
X158032Y1851016D01*
X157016D01*
X156000Y1852032D01*
X154984Y1851016D01*
X153968D01*
X154984Y1850000D01*
X153968Y1848984D01*
X154984D01*
X156000Y1847968D01*
X145000D02*
X146016Y1848984D01*
X147032D01*
X146016Y1850000D01*
X147032Y1851016D01*
X146016D01*
X145000Y1852032D01*
X143984Y1851016D01*
X142968D01*
X143984Y1850000D01*
X142968Y1848984D01*
X143984D01*
X145000Y1847968D01*
X134000D02*
X135016Y1848984D01*
X136032D01*
X135016Y1850000D01*
X136032Y1851016D01*
X135016D01*
X134000Y1852032D01*
X132984Y1851016D01*
X131968D01*
X132984Y1850000D01*
X131968Y1848984D01*
X132984D01*
X134000Y1847968D01*
X575000Y1968968D02*
X576016Y1969984D01*
X577032D01*
X576016Y1971000D01*
X577032Y1972016D01*
X576016D01*
X575000Y1973032D01*
X573984Y1972016D01*
X572968D01*
X573984Y1971000D01*
X572968Y1969984D01*
X573984D01*
X575000Y1968968D01*
X565000Y1958968D02*
X566016Y1959984D01*
X567032D01*
X566016Y1961000D01*
X567032Y1962016D01*
X566016D01*
X565000Y1963032D01*
X563984Y1962016D01*
X562968D01*
X563984Y1961000D01*
X562968Y1959984D01*
X563984D01*
X565000Y1958968D01*
X1960000Y1913968D02*
X1961016Y1914984D01*
X1962032D01*
X1961016Y1916000D01*
X1962032Y1917016D01*
X1961016D01*
X1960000Y1918032D01*
X1958984Y1917016D01*
X1957968D01*
X1958984Y1916000D01*
X1957968Y1914984D01*
X1958984D01*
X1960000Y1913968D01*
X1975000D02*
X1976016Y1914984D01*
X1977032D01*
X1976016Y1916000D01*
X1977032Y1917016D01*
X1976016D01*
X1975000Y1918032D01*
X1973984Y1917016D01*
X1972968D01*
X1973984Y1916000D01*
X1972968Y1914984D01*
X1973984D01*
X1975000Y1913968D01*
X1355000Y1933968D02*
X1356016Y1934984D01*
X1357032D01*
X1356016Y1936000D01*
X1357032Y1937016D01*
X1356016D01*
X1355000Y1938032D01*
X1353984Y1937016D01*
X1352968D01*
X1353984Y1936000D01*
X1352968Y1934984D01*
X1353984D01*
X1355000Y1933968D01*
X1370000D02*
X1371016Y1934984D01*
X1372032D01*
X1371016Y1936000D01*
X1372032Y1937016D01*
X1371016D01*
X1370000Y1938032D01*
X1368984Y1937016D01*
X1367968D01*
X1368984Y1936000D01*
X1367968Y1934984D01*
X1368984D01*
X1370000Y1933968D01*
X730000D02*
X731016Y1934984D01*
X732032D01*
X731016Y1936000D01*
X732032Y1937016D01*
X731016D01*
X730000Y1938032D01*
X728984Y1937016D01*
X727968D01*
X728984Y1936000D01*
X727968Y1934984D01*
X728984D01*
X730000Y1933968D01*
X87500Y1973968D02*
X88516Y1974984D01*
X89532D01*
X88516Y1976000D01*
X89532Y1977016D01*
X88516D01*
X87500Y1978032D01*
X86484Y1977016D01*
X85468D01*
X86484Y1976000D01*
X85468Y1974984D01*
X86484D01*
X87500Y1973968D01*
X70000D02*
X71016Y1974984D01*
X72032D01*
X71016Y1976000D01*
X72032Y1977016D01*
X71016D01*
X70000Y1978032D01*
X68984Y1977016D01*
X67968D01*
X68984Y1976000D01*
X67968Y1974984D01*
X68984D01*
X70000Y1973968D01*
X730000Y1948968D02*
X731016Y1949984D01*
X732032D01*
X731016Y1951000D01*
X732032Y1952016D01*
X731016D01*
X730000Y1953032D01*
X728984Y1952016D01*
X727968D01*
X728984Y1951000D01*
X727968Y1949984D01*
X728984D01*
X730000Y1948968D01*
X1315000Y1874718D02*
X1316016Y1875734D01*
X1317032D01*
X1316016Y1876750D01*
X1317032Y1877766D01*
X1316016D01*
X1315000Y1878782D01*
X1313984Y1877766D01*
X1312968D01*
X1313984Y1876750D01*
X1312968Y1875734D01*
X1313984D01*
X1315000Y1874718D01*
X671750Y1883468D02*
X672766Y1884484D01*
X673782D01*
X672766Y1885500D01*
X673782Y1886516D01*
X672766D01*
X671750Y1887532D01*
X670734Y1886516D01*
X669718D01*
X670734Y1885500D01*
X669718Y1884484D01*
X670734D01*
X671750Y1883468D01*
X683000Y1883218D02*
X684016Y1884234D01*
X685032D01*
X684016Y1885250D01*
X685032Y1886266D01*
X684016D01*
X683000Y1887282D01*
X681984Y1886266D01*
X680968D01*
X681984Y1885250D01*
X680968Y1884234D01*
X681984D01*
X683000Y1883218D01*
X1315750Y1928968D02*
X1316766Y1929984D01*
X1317782D01*
X1316766Y1931000D01*
X1317782Y1932016D01*
X1316766D01*
X1315750Y1933032D01*
X1314734Y1932016D01*
X1313718D01*
X1314734Y1931000D01*
X1313718Y1929984D01*
X1314734D01*
X1315750Y1928968D01*
X236750Y2063468D02*
X234718Y2067532D01*
X238782D01*
X236750Y2063468D01*
X156000Y2000968D02*
X157016Y2001984D01*
X158032D01*
X157016Y2003000D01*
X158032Y2004016D01*
X157016D01*
X156000Y2005032D01*
X154984Y2004016D01*
X153968D01*
X154984Y2003000D01*
X153968Y2001984D01*
X154984D01*
X156000Y2000968D01*
X145000D02*
X146016Y2001984D01*
X147032D01*
X146016Y2003000D01*
X147032Y2004016D01*
X146016D01*
X145000Y2005032D01*
X143984Y2004016D01*
X142968D01*
X143984Y2003000D01*
X142968Y2001984D01*
X143984D01*
X145000Y2000968D01*
X134000D02*
X135016Y2001984D01*
X136032D01*
X135016Y2003000D01*
X136032Y2004016D01*
X135016D01*
X134000Y2005032D01*
X132984Y2004016D01*
X131968D01*
X132984Y2003000D01*
X131968Y2001984D01*
X132984D01*
X134000Y2000968D01*
X575000Y2121968D02*
X576016Y2122984D01*
X577032D01*
X576016Y2124000D01*
X577032Y2125016D01*
X576016D01*
X575000Y2126032D01*
X573984Y2125016D01*
X572968D01*
X573984Y2124000D01*
X572968Y2122984D01*
X573984D01*
X575000Y2121968D01*
X565000Y2111968D02*
X566016Y2112984D01*
X567032D01*
X566016Y2114000D01*
X567032Y2115016D01*
X566016D01*
X565000Y2116032D01*
X563984Y2115016D01*
X562968D01*
X563984Y2114000D01*
X562968Y2112984D01*
X563984D01*
X565000Y2111968D01*
X1960000Y2066968D02*
X1961016Y2067984D01*
X1962032D01*
X1961016Y2069000D01*
X1962032Y2070016D01*
X1961016D01*
X1960000Y2071032D01*
X1958984Y2070016D01*
X1957968D01*
X1958984Y2069000D01*
X1957968Y2067984D01*
X1958984D01*
X1960000Y2066968D01*
X1975000D02*
X1976016Y2067984D01*
X1977032D01*
X1976016Y2069000D01*
X1977032Y2070016D01*
X1976016D01*
X1975000Y2071032D01*
X1973984Y2070016D01*
X1972968D01*
X1973984Y2069000D01*
X1972968Y2067984D01*
X1973984D01*
X1975000Y2066968D01*
X1355000Y2086968D02*
X1356016Y2087984D01*
X1357032D01*
X1356016Y2089000D01*
X1357032Y2090016D01*
X1356016D01*
X1355000Y2091032D01*
X1353984Y2090016D01*
X1352968D01*
X1353984Y2089000D01*
X1352968Y2087984D01*
X1353984D01*
X1355000Y2086968D01*
X1370000D02*
X1371016Y2087984D01*
X1372032D01*
X1371016Y2089000D01*
X1372032Y2090016D01*
X1371016D01*
X1370000Y2091032D01*
X1368984Y2090016D01*
X1367968D01*
X1368984Y2089000D01*
X1367968Y2087984D01*
X1368984D01*
X1370000Y2086968D01*
X730000D02*
X731016Y2087984D01*
X732032D01*
X731016Y2089000D01*
X732032Y2090016D01*
X731016D01*
X730000Y2091032D01*
X728984Y2090016D01*
X727968D01*
X728984Y2089000D01*
X727968Y2087984D01*
X728984D01*
X730000Y2086968D01*
X87500Y2126968D02*
X88516Y2127984D01*
X89532D01*
X88516Y2129000D01*
X89532Y2130016D01*
X88516D01*
X87500Y2131032D01*
X86484Y2130016D01*
X85468D01*
X86484Y2129000D01*
X85468Y2127984D01*
X86484D01*
X87500Y2126968D01*
X70000D02*
X71016Y2127984D01*
X72032D01*
X71016Y2129000D01*
X72032Y2130016D01*
X71016D01*
X70000Y2131032D01*
X68984Y2130016D01*
X67968D01*
X68984Y2129000D01*
X67968Y2127984D01*
X68984D01*
X70000Y2126968D01*
X730000Y2101968D02*
X731016Y2102984D01*
X732032D01*
X731016Y2104000D01*
X732032Y2105016D01*
X731016D01*
X730000Y2106032D01*
X728984Y2105016D01*
X727968D01*
X728984Y2104000D01*
X727968Y2102984D01*
X728984D01*
X730000Y2101968D01*
X1315000Y2027718D02*
X1316016Y2028734D01*
X1317032D01*
X1316016Y2029750D01*
X1317032Y2030766D01*
X1316016D01*
X1315000Y2031782D01*
X1313984Y2030766D01*
X1312968D01*
X1313984Y2029750D01*
X1312968Y2028734D01*
X1313984D01*
X1315000Y2027718D01*
X671750Y2036468D02*
X672766Y2037484D01*
X673782D01*
X672766Y2038500D01*
X673782Y2039516D01*
X672766D01*
X671750Y2040532D01*
X670734Y2039516D01*
X669718D01*
X670734Y2038500D01*
X669718Y2037484D01*
X670734D01*
X671750Y2036468D01*
X683000Y2036218D02*
X684016Y2037234D01*
X685032D01*
X684016Y2038250D01*
X685032Y2039266D01*
X684016D01*
X683000Y2040282D01*
X681984Y2039266D01*
X680968D01*
X681984Y2038250D01*
X680968Y2037234D01*
X681984D01*
X683000Y2036218D01*
X1315750Y2081968D02*
X1316766Y2082984D01*
X1317782D01*
X1316766Y2084000D01*
X1317782Y2085016D01*
X1316766D01*
X1315750Y2086032D01*
X1314734Y2085016D01*
X1313718D01*
X1314734Y2084000D01*
X1313718Y2082984D01*
X1314734D01*
X1315750Y2081968D01*
D171*
X1871032Y34000D02*
G03*
X1871032Y34000I-2032J0D01*
G01*
X1856032D02*
G03*
X1856032Y34000I-2032J0D01*
G01*
X1841032D02*
G03*
X1841032Y34000I-2032J0D01*
G01*
X1827032D02*
G03*
X1827032Y34000I-2032J0D01*
G01*
X1869032Y119000D02*
G03*
X1869032Y119000I-2032J0D01*
G01*
X1856032D02*
G03*
X1856032Y119000I-2032J0D01*
G01*
X1843032D02*
G03*
X1843032Y119000I-2032J0D01*
G01*
X1832032D02*
G03*
X1832032Y119000I-2032J0D01*
G01*
X1871032Y187000D02*
G03*
X1871032Y187000I-2032J0D01*
G01*
X1856032D02*
G03*
X1856032Y187000I-2032J0D01*
G01*
X1841032D02*
G03*
X1841032Y187000I-2032J0D01*
G01*
X1827032D02*
G03*
X1827032Y187000I-2032J0D01*
G01*
X1869032Y272000D02*
G03*
X1869032Y272000I-2032J0D01*
G01*
X1856032D02*
G03*
X1856032Y272000I-2032J0D01*
G01*
X1843032D02*
G03*
X1843032Y272000I-2032J0D01*
G01*
X1832032D02*
G03*
X1832032Y272000I-2032J0D01*
G01*
X1871032Y340000D02*
G03*
X1871032Y340000I-2032J0D01*
G01*
X1856032D02*
G03*
X1856032Y340000I-2032J0D01*
G01*
X1841032D02*
G03*
X1841032Y340000I-2032J0D01*
G01*
X1827032D02*
G03*
X1827032Y340000I-2032J0D01*
G01*
X1869032Y425000D02*
G03*
X1869032Y425000I-2032J0D01*
G01*
X1856032D02*
G03*
X1856032Y425000I-2032J0D01*
G01*
X1843032D02*
G03*
X1843032Y425000I-2032J0D01*
G01*
X1832032D02*
G03*
X1832032Y425000I-2032J0D01*
G01*
X1871032Y493000D02*
G03*
X1871032Y493000I-2032J0D01*
G01*
X1856032D02*
G03*
X1856032Y493000I-2032J0D01*
G01*
X1841032D02*
G03*
X1841032Y493000I-2032J0D01*
G01*
X1827032D02*
G03*
X1827032Y493000I-2032J0D01*
G01*
X1869032Y578000D02*
G03*
X1869032Y578000I-2032J0D01*
G01*
X1856032D02*
G03*
X1856032Y578000I-2032J0D01*
G01*
X1843032D02*
G03*
X1843032Y578000I-2032J0D01*
G01*
X1832032D02*
G03*
X1832032Y578000I-2032J0D01*
G01*
X1871032Y646000D02*
G03*
X1871032Y646000I-2032J0D01*
G01*
X1856032D02*
G03*
X1856032Y646000I-2032J0D01*
G01*
X1841032D02*
G03*
X1841032Y646000I-2032J0D01*
G01*
X1827032D02*
G03*
X1827032Y646000I-2032J0D01*
G01*
X1869032Y731000D02*
G03*
X1869032Y731000I-2032J0D01*
G01*
X1856032D02*
G03*
X1856032Y731000I-2032J0D01*
G01*
X1843032D02*
G03*
X1843032Y731000I-2032J0D01*
G01*
X1832032D02*
G03*
X1832032Y731000I-2032J0D01*
G01*
X1871032Y799000D02*
G03*
X1871032Y799000I-2032J0D01*
G01*
X1856032D02*
G03*
X1856032Y799000I-2032J0D01*
G01*
X1841032D02*
G03*
X1841032Y799000I-2032J0D01*
G01*
X1827032D02*
G03*
X1827032Y799000I-2032J0D01*
G01*
X1869032Y884000D02*
G03*
X1869032Y884000I-2032J0D01*
G01*
X1856032D02*
G03*
X1856032Y884000I-2032J0D01*
G01*
X1843032D02*
G03*
X1843032Y884000I-2032J0D01*
G01*
X1832032D02*
G03*
X1832032Y884000I-2032J0D01*
G01*
X1871032Y952000D02*
G03*
X1871032Y952000I-2032J0D01*
G01*
X1856032D02*
G03*
X1856032Y952000I-2032J0D01*
G01*
X1841032D02*
G03*
X1841032Y952000I-2032J0D01*
G01*
X1827032D02*
G03*
X1827032Y952000I-2032J0D01*
G01*
X1869032Y1037000D02*
G03*
X1869032Y1037000I-2032J0D01*
G01*
X1856032D02*
G03*
X1856032Y1037000I-2032J0D01*
G01*
X1843032D02*
G03*
X1843032Y1037000I-2032J0D01*
G01*
X1832032D02*
G03*
X1832032Y1037000I-2032J0D01*
G01*
X1871032Y1105000D02*
G03*
X1871032Y1105000I-2032J0D01*
G01*
X1856032D02*
G03*
X1856032Y1105000I-2032J0D01*
G01*
X1841032D02*
G03*
X1841032Y1105000I-2032J0D01*
G01*
X1827032D02*
G03*
X1827032Y1105000I-2032J0D01*
G01*
X1869032Y1190000D02*
G03*
X1869032Y1190000I-2032J0D01*
G01*
X1856032D02*
G03*
X1856032Y1190000I-2032J0D01*
G01*
X1843032D02*
G03*
X1843032Y1190000I-2032J0D01*
G01*
X1832032D02*
G03*
X1832032Y1190000I-2032J0D01*
G01*
X1871032Y1258000D02*
G03*
X1871032Y1258000I-2032J0D01*
G01*
X1856032D02*
G03*
X1856032Y1258000I-2032J0D01*
G01*
X1841032D02*
G03*
X1841032Y1258000I-2032J0D01*
G01*
X1827032D02*
G03*
X1827032Y1258000I-2032J0D01*
G01*
X1869032Y1343000D02*
G03*
X1869032Y1343000I-2032J0D01*
G01*
X1856032D02*
G03*
X1856032Y1343000I-2032J0D01*
G01*
X1843032D02*
G03*
X1843032Y1343000I-2032J0D01*
G01*
X1832032D02*
G03*
X1832032Y1343000I-2032J0D01*
G01*
X1871032Y1411000D02*
G03*
X1871032Y1411000I-2032J0D01*
G01*
X1856032D02*
G03*
X1856032Y1411000I-2032J0D01*
G01*
X1841032D02*
G03*
X1841032Y1411000I-2032J0D01*
G01*
X1827032D02*
G03*
X1827032Y1411000I-2032J0D01*
G01*
X1869032Y1496000D02*
G03*
X1869032Y1496000I-2032J0D01*
G01*
X1856032D02*
G03*
X1856032Y1496000I-2032J0D01*
G01*
X1843032D02*
G03*
X1843032Y1496000I-2032J0D01*
G01*
X1832032D02*
G03*
X1832032Y1496000I-2032J0D01*
G01*
X1871032Y1564000D02*
G03*
X1871032Y1564000I-2032J0D01*
G01*
X1856032D02*
G03*
X1856032Y1564000I-2032J0D01*
G01*
X1841032D02*
G03*
X1841032Y1564000I-2032J0D01*
G01*
X1827032D02*
G03*
X1827032Y1564000I-2032J0D01*
G01*
X1869032Y1649000D02*
G03*
X1869032Y1649000I-2032J0D01*
G01*
X1856032D02*
G03*
X1856032Y1649000I-2032J0D01*
G01*
X1843032D02*
G03*
X1843032Y1649000I-2032J0D01*
G01*
X1832032D02*
G03*
X1832032Y1649000I-2032J0D01*
G01*
X1871032Y1717000D02*
G03*
X1871032Y1717000I-2032J0D01*
G01*
X1856032D02*
G03*
X1856032Y1717000I-2032J0D01*
G01*
X1841032D02*
G03*
X1841032Y1717000I-2032J0D01*
G01*
X1827032D02*
G03*
X1827032Y1717000I-2032J0D01*
G01*
X1869032Y1802000D02*
G03*
X1869032Y1802000I-2032J0D01*
G01*
X1856032D02*
G03*
X1856032Y1802000I-2032J0D01*
G01*
X1843032D02*
G03*
X1843032Y1802000I-2032J0D01*
G01*
X1832032D02*
G03*
X1832032Y1802000I-2032J0D01*
G01*
X1871032Y1870000D02*
G03*
X1871032Y1870000I-2032J0D01*
G01*
X1856032D02*
G03*
X1856032Y1870000I-2032J0D01*
G01*
X1841032D02*
G03*
X1841032Y1870000I-2032J0D01*
G01*
X1827032D02*
G03*
X1827032Y1870000I-2032J0D01*
G01*
X1869032Y1955000D02*
G03*
X1869032Y1955000I-2032J0D01*
G01*
X1856032D02*
G03*
X1856032Y1955000I-2032J0D01*
G01*
X1843032D02*
G03*
X1843032Y1955000I-2032J0D01*
G01*
X1832032D02*
G03*
X1832032Y1955000I-2032J0D01*
G01*
X1871032Y2023000D02*
G03*
X1871032Y2023000I-2032J0D01*
G01*
X1856032D02*
G03*
X1856032Y2023000I-2032J0D01*
G01*
X1841032D02*
G03*
X1841032Y2023000I-2032J0D01*
G01*
X1827032D02*
G03*
X1827032Y2023000I-2032J0D01*
G01*
X1869032Y2108000D02*
G03*
X1869032Y2108000I-2032J0D01*
G01*
X1856032D02*
G03*
X1856032Y2108000I-2032J0D01*
G01*
X1843032D02*
G03*
X1843032Y2108000I-2032J0D01*
G01*
X1832032D02*
G03*
X1832032Y2108000I-2032J0D01*
G01*
M02*
