M48
;Layer_Color=9474304
;FILE_FORMAT=4:4
METRIC,LZ
;TYPE=PLATED
T1F00S00C0.3000
T2F00S00C0.5000
T3F00S00C2.0000
T4F00S00C7.2000
%
T01
X00134Y00014
X00145
X00156
X0067175Y000495
X00683Y0004925
X01315Y0004075
X0131575Y00095
X0196Y0008
X01975
Y00233
X0196
Y00386
X01975
X0137Y00406
X01355
X0131575Y00401
X01315Y0034675
X0131575Y00248
X01355Y00253
X0137
X01315Y0019375
X01355Y001
X0137
X0073
Y00115
X00683Y0020225
X0067175Y002025
X0073Y00253
Y00268
X00683Y0035525
X0067175Y003555
X0073Y00406
Y00421
X00565Y00431
X00575Y00441
Y00288
X00565Y00278
X00575Y00135
X00565Y00125
X00156Y00167
X00145
X00134
Y0032
X00145
X00156
Y00473
X00145
X00134
X000875Y00446
X0007
Y00293
X000875
Y0014
X0007
Y00599
X000875
Y00752
X0007
X00134Y00779
X00145
X00156
Y00626
X00145
X00134
X00575Y00594
X00565Y00584
Y00737
X00575Y00747
X00565Y0089
X0073Y0088
Y00865
X00683Y0081425
X0067175Y008145
X0073Y00727
Y00712
X00683Y0066125
X0067175Y006615
X0073Y00574
Y00559
X00683Y0050825
X0067175Y005085
X01315Y0049975
X0131575Y00554
X01355Y00559
X0137
X01315Y0065275
X0131575Y00707
X01355Y00712
X0137
X01315Y0080575
X0131575Y0086
X01355Y00865
X0137
X0196Y00845
X01975
Y00692
X0196
Y00539
X01975
Y00998
X0196
Y01151
X01975
X0137Y01171
X01355
X0131575Y01166
X01315Y0111175
X0131575Y01013
X01355Y01018
X0137
X01315Y0095875
Y0126475
X00683Y0127325
X0067175Y012735
X0073Y01186
Y01171
X00683Y0112025
X0067175Y011205
X0073Y01033
Y01018
X00683Y0096725
X0067175Y009675
X00575Y009
X00565Y01043
X00575Y01053
X00565Y01196
X00575Y01206
X00156Y01238
X00145
X00134
Y01085
X00145
X00156
Y00932
X00145
X00134
X000875Y00905
X0007
Y01058
X000875
Y01211
X0007
Y01364
X000875
Y01517
X0007
Y0167
X000875
X00134Y01544
X00145
X00156
Y01391
X00145
X00134
X00575Y01359
X00565Y01349
Y01502
X00575Y01512
X00565Y01655
X00575Y01665
X0073Y01645
Y0163
X00683Y0157925
X0067175Y015795
X0073Y01492
Y01477
X00683Y0142625
X0067175Y014265
X0073Y01339
Y01324
X0131575Y01319
X01355Y01324
X0137
X01315Y0141775
X0131575Y01472
X01355Y01477
X0137
X01315Y0157075
X0131575Y01625
X01355Y0163
X0137
X0196Y0161
X01975
Y01457
X0196
Y01304
X01975
Y01763
X0196
Y01916
X01975
Y02069
X0196
X01315Y0202975
X0131575Y01931
X01355Y01936
X0137
X01315Y0187675
X0131575Y01778
X01355Y01783
X0137
X01315Y0172375
X00683Y0173225
X0067175Y017325
X0073Y01783
Y01798
X00683Y0188525
X0067175Y018855
X0073Y01936
Y01951
X00683Y0203825
X0067175Y020385
X00575Y01971
X00565Y01961
X00575Y01818
X00565Y01808
X00156Y0185
X00145
X00134
Y01697
X00145
X00156
Y02003
X00145
X00134
X000875Y01976
X0007
Y01823
X000875
Y02129
X0007
X00575Y02124
X00565Y02114
X0073Y02104
Y02089
X0131575Y02084
X01355Y02089
X0137
T02
X01825Y00034
X01839
X01854
X01869
X01867Y00119
X01854
X01841
X0183
X01825Y00187
X01839
X01854
X01869
X01867Y00272
X01854
X01841
X0183
X01825Y0034
X01839
X01854
X01869
X01867Y00425
X01854
X01841
X0183
X01825Y00493
X01839
X01854
X01869
X01867Y00578
X01854
X01841
X0183
X01825Y00646
X01839
X01854
X01869
X01867Y00731
X01854
X01841
X0183
X01825Y00799
X01839
X01854
X01869
X01867Y00884
X01854
X01841
X0183
X01825Y00952
X01839
X01854
X01869
X01867Y01037
X01854
X01841
X0183
X01825Y01105
X01839
X01854
X01869
X01867Y0119
X01854
X01841
X0183
X01825Y01258
X01839
X01854
X01869
X01867Y01343
X01854
X01841
X0183
X01825Y01411
X01839
X01854
X01869
X01867Y01496
X01854
X01841
X0183
X01825Y01564
X01839
X01854
X01869
X01867Y01649
X01854
X01841
X0183
X01825Y01717
X01839
X01854
X01869
X01867Y01802
X01854
X01841
X0183
X01825Y0187
X01839
X01854
X01869
X01867Y01955
X01854
X01841
X0183
X01825Y02023
X01839
X01854
X01869
X01867Y02108
X01854
X01841
X0183
T03
X00025Y00125
X02025Y0102
X00025Y021
T04
X0023675Y000765
Y002295
Y003825
Y005355
Y006885
Y008415
Y009945
Y011475
Y013005
Y014535
Y016065
Y017595
Y019125
Y020655
M30
