G04 Layer_Color=128*
%FSLAX44Y44*%
%MOMM*%
G71*
G01*
G75*
%ADD170C,0.0508*%
D170*
X2015000Y1020000D02*
X2035000D01*
X2025000Y1010000D02*
Y1030000D01*
X15000Y125000D02*
X35000D01*
X25000Y115000D02*
Y135000D01*
X15000Y2100000D02*
X35000D01*
X25000Y2090000D02*
Y2110000D01*
X1866500Y34000D02*
X1871500D01*
X1869000Y31500D02*
Y36500D01*
X1851500Y34000D02*
X1856500D01*
X1854000Y31500D02*
Y36500D01*
X1836500Y34000D02*
X1841500D01*
X1839000Y31500D02*
Y36500D01*
X1822500Y34000D02*
X1827500D01*
X1825000Y31500D02*
Y36500D01*
X200750Y76500D02*
X272750D01*
X236750Y40500D02*
Y112500D01*
X1864500Y119000D02*
X1869500D01*
X1867000Y116500D02*
Y121500D01*
X1851500Y119000D02*
X1856500D01*
X1854000Y116500D02*
Y121500D01*
X1838500Y119000D02*
X1843500D01*
X1841000Y116500D02*
Y121500D01*
X1827500Y119000D02*
X1832500D01*
X1830000Y116500D02*
Y121500D01*
X154500Y14000D02*
X157500D01*
X156000Y12500D02*
Y15500D01*
X143500Y14000D02*
X146500D01*
X145000Y12500D02*
Y15500D01*
X132500Y14000D02*
X135500D01*
X134000Y12500D02*
Y15500D01*
X573500Y135000D02*
X576500D01*
X575000Y133500D02*
Y136500D01*
X563500Y125000D02*
X566500D01*
X565000Y123500D02*
Y126500D01*
X1958500Y80000D02*
X1961500D01*
X1960000Y78500D02*
Y81500D01*
X1973500Y80000D02*
X1976500D01*
X1975000Y78500D02*
Y81500D01*
X1353500Y100000D02*
X1356500D01*
X1355000Y98500D02*
Y101500D01*
X1368500Y100000D02*
X1371500D01*
X1370000Y98500D02*
Y101500D01*
X728500Y100000D02*
X731500D01*
X730000Y98500D02*
Y101500D01*
X86000Y140000D02*
X89000D01*
X87500Y138500D02*
Y141500D01*
X68500Y140000D02*
X71500D01*
X70000Y138500D02*
Y141500D01*
X728500Y115000D02*
X731500D01*
X730000Y113500D02*
Y116500D01*
X1313500Y40750D02*
X1316500D01*
X1315000Y39250D02*
Y42250D01*
X670250Y49500D02*
X673250D01*
X671750Y48000D02*
Y51000D01*
X681500Y49250D02*
X684500D01*
X683000Y47750D02*
Y50750D01*
X1314250Y95000D02*
X1317250D01*
X1315750Y93500D02*
Y96500D01*
X1866500Y187000D02*
X1871500D01*
X1869000Y184500D02*
Y189500D01*
X1851500Y187000D02*
X1856500D01*
X1854000Y184500D02*
Y189500D01*
X1836500Y187000D02*
X1841500D01*
X1839000Y184500D02*
Y189500D01*
X1822500Y187000D02*
X1827500D01*
X1825000Y184500D02*
Y189500D01*
X200750Y229500D02*
X272750D01*
X236750Y193500D02*
Y265500D01*
X1864500Y272000D02*
X1869500D01*
X1867000Y269500D02*
Y274500D01*
X1851500Y272000D02*
X1856500D01*
X1854000Y269500D02*
Y274500D01*
X1838500Y272000D02*
X1843500D01*
X1841000Y269500D02*
Y274500D01*
X1827500Y272000D02*
X1832500D01*
X1830000Y269500D02*
Y274500D01*
X154500Y167000D02*
X157500D01*
X156000Y165500D02*
Y168500D01*
X143500Y167000D02*
X146500D01*
X145000Y165500D02*
Y168500D01*
X132500Y167000D02*
X135500D01*
X134000Y165500D02*
Y168500D01*
X573500Y288000D02*
X576500D01*
X575000Y286500D02*
Y289500D01*
X563500Y278000D02*
X566500D01*
X565000Y276500D02*
Y279500D01*
X1958500Y233000D02*
X1961500D01*
X1960000Y231500D02*
Y234500D01*
X1973500Y233000D02*
X1976500D01*
X1975000Y231500D02*
Y234500D01*
X1353500Y253000D02*
X1356500D01*
X1355000Y251500D02*
Y254500D01*
X1368500Y253000D02*
X1371500D01*
X1370000Y251500D02*
Y254500D01*
X728500Y253000D02*
X731500D01*
X730000Y251500D02*
Y254500D01*
X86000Y293000D02*
X89000D01*
X87500Y291500D02*
Y294500D01*
X68500Y293000D02*
X71500D01*
X70000Y291500D02*
Y294500D01*
X728500Y268000D02*
X731500D01*
X730000Y266500D02*
Y269500D01*
X1313500Y193750D02*
X1316500D01*
X1315000Y192250D02*
Y195250D01*
X670250Y202500D02*
X673250D01*
X671750Y201000D02*
Y204000D01*
X681500Y202250D02*
X684500D01*
X683000Y200750D02*
Y203750D01*
X1314250Y248000D02*
X1317250D01*
X1315750Y246500D02*
Y249500D01*
X1866500Y340000D02*
X1871500D01*
X1869000Y337500D02*
Y342500D01*
X1851500Y340000D02*
X1856500D01*
X1854000Y337500D02*
Y342500D01*
X1836500Y340000D02*
X1841500D01*
X1839000Y337500D02*
Y342500D01*
X1822500Y340000D02*
X1827500D01*
X1825000Y337500D02*
Y342500D01*
X200750Y382500D02*
X272750D01*
X236750Y346500D02*
Y418500D01*
X1864500Y425000D02*
X1869500D01*
X1867000Y422500D02*
Y427500D01*
X1851500Y425000D02*
X1856500D01*
X1854000Y422500D02*
Y427500D01*
X1838500Y425000D02*
X1843500D01*
X1841000Y422500D02*
Y427500D01*
X1827500Y425000D02*
X1832500D01*
X1830000Y422500D02*
Y427500D01*
X154500Y320000D02*
X157500D01*
X156000Y318500D02*
Y321500D01*
X143500Y320000D02*
X146500D01*
X145000Y318500D02*
Y321500D01*
X132500Y320000D02*
X135500D01*
X134000Y318500D02*
Y321500D01*
X573500Y441000D02*
X576500D01*
X575000Y439500D02*
Y442500D01*
X563500Y431000D02*
X566500D01*
X565000Y429500D02*
Y432500D01*
X1958500Y386000D02*
X1961500D01*
X1960000Y384500D02*
Y387500D01*
X1973500Y386000D02*
X1976500D01*
X1975000Y384500D02*
Y387500D01*
X1353500Y406000D02*
X1356500D01*
X1355000Y404500D02*
Y407500D01*
X1368500Y406000D02*
X1371500D01*
X1370000Y404500D02*
Y407500D01*
X728500Y406000D02*
X731500D01*
X730000Y404500D02*
Y407500D01*
X86000Y446000D02*
X89000D01*
X87500Y444500D02*
Y447500D01*
X68500Y446000D02*
X71500D01*
X70000Y444500D02*
Y447500D01*
X728500Y421000D02*
X731500D01*
X730000Y419500D02*
Y422500D01*
X1313500Y346750D02*
X1316500D01*
X1315000Y345250D02*
Y348250D01*
X670250Y355500D02*
X673250D01*
X671750Y354000D02*
Y357000D01*
X681500Y355250D02*
X684500D01*
X683000Y353750D02*
Y356750D01*
X1314250Y401000D02*
X1317250D01*
X1315750Y399500D02*
Y402500D01*
X1866500Y493000D02*
X1871500D01*
X1869000Y490500D02*
Y495500D01*
X1851500Y493000D02*
X1856500D01*
X1854000Y490500D02*
Y495500D01*
X1836500Y493000D02*
X1841500D01*
X1839000Y490500D02*
Y495500D01*
X1822500Y493000D02*
X1827500D01*
X1825000Y490500D02*
Y495500D01*
X200750Y535500D02*
X272750D01*
X236750Y499500D02*
Y571500D01*
X1864500Y578000D02*
X1869500D01*
X1867000Y575500D02*
Y580500D01*
X1851500Y578000D02*
X1856500D01*
X1854000Y575500D02*
Y580500D01*
X1838500Y578000D02*
X1843500D01*
X1841000Y575500D02*
Y580500D01*
X1827500Y578000D02*
X1832500D01*
X1830000Y575500D02*
Y580500D01*
X154500Y473000D02*
X157500D01*
X156000Y471500D02*
Y474500D01*
X143500Y473000D02*
X146500D01*
X145000Y471500D02*
Y474500D01*
X132500Y473000D02*
X135500D01*
X134000Y471500D02*
Y474500D01*
X573500Y594000D02*
X576500D01*
X575000Y592500D02*
Y595500D01*
X563500Y584000D02*
X566500D01*
X565000Y582500D02*
Y585500D01*
X1958500Y539000D02*
X1961500D01*
X1960000Y537500D02*
Y540500D01*
X1973500Y539000D02*
X1976500D01*
X1975000Y537500D02*
Y540500D01*
X1353500Y559000D02*
X1356500D01*
X1355000Y557500D02*
Y560500D01*
X1368500Y559000D02*
X1371500D01*
X1370000Y557500D02*
Y560500D01*
X728500Y559000D02*
X731500D01*
X730000Y557500D02*
Y560500D01*
X86000Y599000D02*
X89000D01*
X87500Y597500D02*
Y600500D01*
X68500Y599000D02*
X71500D01*
X70000Y597500D02*
Y600500D01*
X728500Y574000D02*
X731500D01*
X730000Y572500D02*
Y575500D01*
X1313500Y499750D02*
X1316500D01*
X1315000Y498250D02*
Y501250D01*
X670250Y508500D02*
X673250D01*
X671750Y507000D02*
Y510000D01*
X681500Y508250D02*
X684500D01*
X683000Y506750D02*
Y509750D01*
X1314250Y554000D02*
X1317250D01*
X1315750Y552500D02*
Y555500D01*
X1866500Y646000D02*
X1871500D01*
X1869000Y643500D02*
Y648500D01*
X1851500Y646000D02*
X1856500D01*
X1854000Y643500D02*
Y648500D01*
X1836500Y646000D02*
X1841500D01*
X1839000Y643500D02*
Y648500D01*
X1822500Y646000D02*
X1827500D01*
X1825000Y643500D02*
Y648500D01*
X200750Y688500D02*
X272750D01*
X236750Y652500D02*
Y724500D01*
X1864500Y731000D02*
X1869500D01*
X1867000Y728500D02*
Y733500D01*
X1851500Y731000D02*
X1856500D01*
X1854000Y728500D02*
Y733500D01*
X1838500Y731000D02*
X1843500D01*
X1841000Y728500D02*
Y733500D01*
X1827500Y731000D02*
X1832500D01*
X1830000Y728500D02*
Y733500D01*
X154500Y626000D02*
X157500D01*
X156000Y624500D02*
Y627500D01*
X143500Y626000D02*
X146500D01*
X145000Y624500D02*
Y627500D01*
X132500Y626000D02*
X135500D01*
X134000Y624500D02*
Y627500D01*
X573500Y747000D02*
X576500D01*
X575000Y745500D02*
Y748500D01*
X563500Y737000D02*
X566500D01*
X565000Y735500D02*
Y738500D01*
X1958500Y692000D02*
X1961500D01*
X1960000Y690500D02*
Y693500D01*
X1973500Y692000D02*
X1976500D01*
X1975000Y690500D02*
Y693500D01*
X1353500Y712000D02*
X1356500D01*
X1355000Y710500D02*
Y713500D01*
X1368500Y712000D02*
X1371500D01*
X1370000Y710500D02*
Y713500D01*
X728500Y712000D02*
X731500D01*
X730000Y710500D02*
Y713500D01*
X86000Y752000D02*
X89000D01*
X87500Y750500D02*
Y753500D01*
X68500Y752000D02*
X71500D01*
X70000Y750500D02*
Y753500D01*
X728500Y727000D02*
X731500D01*
X730000Y725500D02*
Y728500D01*
X1313500Y652750D02*
X1316500D01*
X1315000Y651250D02*
Y654250D01*
X670250Y661500D02*
X673250D01*
X671750Y660000D02*
Y663000D01*
X681500Y661250D02*
X684500D01*
X683000Y659750D02*
Y662750D01*
X1314250Y707000D02*
X1317250D01*
X1315750Y705500D02*
Y708500D01*
X1866500Y799000D02*
X1871500D01*
X1869000Y796500D02*
Y801500D01*
X1851500Y799000D02*
X1856500D01*
X1854000Y796500D02*
Y801500D01*
X1836500Y799000D02*
X1841500D01*
X1839000Y796500D02*
Y801500D01*
X1822500Y799000D02*
X1827500D01*
X1825000Y796500D02*
Y801500D01*
X200750Y841500D02*
X272750D01*
X236750Y805500D02*
Y877500D01*
X1864500Y884000D02*
X1869500D01*
X1867000Y881500D02*
Y886500D01*
X1851500Y884000D02*
X1856500D01*
X1854000Y881500D02*
Y886500D01*
X1838500Y884000D02*
X1843500D01*
X1841000Y881500D02*
Y886500D01*
X1827500Y884000D02*
X1832500D01*
X1830000Y881500D02*
Y886500D01*
X154500Y779000D02*
X157500D01*
X156000Y777500D02*
Y780500D01*
X143500Y779000D02*
X146500D01*
X145000Y777500D02*
Y780500D01*
X132500Y779000D02*
X135500D01*
X134000Y777500D02*
Y780500D01*
X573500Y900000D02*
X576500D01*
X575000Y898500D02*
Y901500D01*
X563500Y890000D02*
X566500D01*
X565000Y888500D02*
Y891500D01*
X1958500Y845000D02*
X1961500D01*
X1960000Y843500D02*
Y846500D01*
X1973500Y845000D02*
X1976500D01*
X1975000Y843500D02*
Y846500D01*
X1353500Y865000D02*
X1356500D01*
X1355000Y863500D02*
Y866500D01*
X1368500Y865000D02*
X1371500D01*
X1370000Y863500D02*
Y866500D01*
X728500Y865000D02*
X731500D01*
X730000Y863500D02*
Y866500D01*
X86000Y905000D02*
X89000D01*
X87500Y903500D02*
Y906500D01*
X68500Y905000D02*
X71500D01*
X70000Y903500D02*
Y906500D01*
X728500Y880000D02*
X731500D01*
X730000Y878500D02*
Y881500D01*
X1313500Y805750D02*
X1316500D01*
X1315000Y804250D02*
Y807250D01*
X670250Y814500D02*
X673250D01*
X671750Y813000D02*
Y816000D01*
X681500Y814250D02*
X684500D01*
X683000Y812750D02*
Y815750D01*
X1314250Y860000D02*
X1317250D01*
X1315750Y858500D02*
Y861500D01*
X1866500Y952000D02*
X1871500D01*
X1869000Y949500D02*
Y954500D01*
X1851500Y952000D02*
X1856500D01*
X1854000Y949500D02*
Y954500D01*
X1836500Y952000D02*
X1841500D01*
X1839000Y949500D02*
Y954500D01*
X1822500Y952000D02*
X1827500D01*
X1825000Y949500D02*
Y954500D01*
X200750Y994500D02*
X272750D01*
X236750Y958500D02*
Y1030500D01*
X1864500Y1037000D02*
X1869500D01*
X1867000Y1034500D02*
Y1039500D01*
X1851500Y1037000D02*
X1856500D01*
X1854000Y1034500D02*
Y1039500D01*
X1838500Y1037000D02*
X1843500D01*
X1841000Y1034500D02*
Y1039500D01*
X1827500Y1037000D02*
X1832500D01*
X1830000Y1034500D02*
Y1039500D01*
X154500Y932000D02*
X157500D01*
X156000Y930500D02*
Y933500D01*
X143500Y932000D02*
X146500D01*
X145000Y930500D02*
Y933500D01*
X132500Y932000D02*
X135500D01*
X134000Y930500D02*
Y933500D01*
X573500Y1053000D02*
X576500D01*
X575000Y1051500D02*
Y1054500D01*
X563500Y1043000D02*
X566500D01*
X565000Y1041500D02*
Y1044500D01*
X1958500Y998000D02*
X1961500D01*
X1960000Y996500D02*
Y999500D01*
X1973500Y998000D02*
X1976500D01*
X1975000Y996500D02*
Y999500D01*
X1353500Y1018000D02*
X1356500D01*
X1355000Y1016500D02*
Y1019500D01*
X1368500Y1018000D02*
X1371500D01*
X1370000Y1016500D02*
Y1019500D01*
X728500Y1018000D02*
X731500D01*
X730000Y1016500D02*
Y1019500D01*
X86000Y1058000D02*
X89000D01*
X87500Y1056500D02*
Y1059500D01*
X68500Y1058000D02*
X71500D01*
X70000Y1056500D02*
Y1059500D01*
X728500Y1033000D02*
X731500D01*
X730000Y1031500D02*
Y1034500D01*
X1313500Y958750D02*
X1316500D01*
X1315000Y957250D02*
Y960250D01*
X670250Y967500D02*
X673250D01*
X671750Y966000D02*
Y969000D01*
X681500Y967250D02*
X684500D01*
X683000Y965750D02*
Y968750D01*
X1314250Y1013000D02*
X1317250D01*
X1315750Y1011500D02*
Y1014500D01*
X1866500Y1105000D02*
X1871500D01*
X1869000Y1102500D02*
Y1107500D01*
X1851500Y1105000D02*
X1856500D01*
X1854000Y1102500D02*
Y1107500D01*
X1836500Y1105000D02*
X1841500D01*
X1839000Y1102500D02*
Y1107500D01*
X1822500Y1105000D02*
X1827500D01*
X1825000Y1102500D02*
Y1107500D01*
X200750Y1147500D02*
X272750D01*
X236750Y1111500D02*
Y1183500D01*
X1864500Y1190000D02*
X1869500D01*
X1867000Y1187500D02*
Y1192500D01*
X1851500Y1190000D02*
X1856500D01*
X1854000Y1187500D02*
Y1192500D01*
X1838500Y1190000D02*
X1843500D01*
X1841000Y1187500D02*
Y1192500D01*
X1827500Y1190000D02*
X1832500D01*
X1830000Y1187500D02*
Y1192500D01*
X154500Y1085000D02*
X157500D01*
X156000Y1083500D02*
Y1086500D01*
X143500Y1085000D02*
X146500D01*
X145000Y1083500D02*
Y1086500D01*
X132500Y1085000D02*
X135500D01*
X134000Y1083500D02*
Y1086500D01*
X573500Y1206000D02*
X576500D01*
X575000Y1204500D02*
Y1207500D01*
X563500Y1196000D02*
X566500D01*
X565000Y1194500D02*
Y1197500D01*
X1958500Y1151000D02*
X1961500D01*
X1960000Y1149500D02*
Y1152500D01*
X1973500Y1151000D02*
X1976500D01*
X1975000Y1149500D02*
Y1152500D01*
X1353500Y1171000D02*
X1356500D01*
X1355000Y1169500D02*
Y1172500D01*
X1368500Y1171000D02*
X1371500D01*
X1370000Y1169500D02*
Y1172500D01*
X728500Y1171000D02*
X731500D01*
X730000Y1169500D02*
Y1172500D01*
X86000Y1211000D02*
X89000D01*
X87500Y1209500D02*
Y1212500D01*
X68500Y1211000D02*
X71500D01*
X70000Y1209500D02*
Y1212500D01*
X728500Y1186000D02*
X731500D01*
X730000Y1184500D02*
Y1187500D01*
X1313500Y1111750D02*
X1316500D01*
X1315000Y1110250D02*
Y1113250D01*
X670250Y1120500D02*
X673250D01*
X671750Y1119000D02*
Y1122000D01*
X681500Y1120250D02*
X684500D01*
X683000Y1118750D02*
Y1121750D01*
X1314250Y1166000D02*
X1317250D01*
X1315750Y1164500D02*
Y1167500D01*
X1866500Y1258000D02*
X1871500D01*
X1869000Y1255500D02*
Y1260500D01*
X1851500Y1258000D02*
X1856500D01*
X1854000Y1255500D02*
Y1260500D01*
X1836500Y1258000D02*
X1841500D01*
X1839000Y1255500D02*
Y1260500D01*
X1822500Y1258000D02*
X1827500D01*
X1825000Y1255500D02*
Y1260500D01*
X200750Y1300500D02*
X272750D01*
X236750Y1264500D02*
Y1336500D01*
X1864500Y1343000D02*
X1869500D01*
X1867000Y1340500D02*
Y1345500D01*
X1851500Y1343000D02*
X1856500D01*
X1854000Y1340500D02*
Y1345500D01*
X1838500Y1343000D02*
X1843500D01*
X1841000Y1340500D02*
Y1345500D01*
X1827500Y1343000D02*
X1832500D01*
X1830000Y1340500D02*
Y1345500D01*
X154500Y1238000D02*
X157500D01*
X156000Y1236500D02*
Y1239500D01*
X143500Y1238000D02*
X146500D01*
X145000Y1236500D02*
Y1239500D01*
X132500Y1238000D02*
X135500D01*
X134000Y1236500D02*
Y1239500D01*
X573500Y1359000D02*
X576500D01*
X575000Y1357500D02*
Y1360500D01*
X563500Y1349000D02*
X566500D01*
X565000Y1347500D02*
Y1350500D01*
X1958500Y1304000D02*
X1961500D01*
X1960000Y1302500D02*
Y1305500D01*
X1973500Y1304000D02*
X1976500D01*
X1975000Y1302500D02*
Y1305500D01*
X1353500Y1324000D02*
X1356500D01*
X1355000Y1322500D02*
Y1325500D01*
X1368500Y1324000D02*
X1371500D01*
X1370000Y1322500D02*
Y1325500D01*
X728500Y1324000D02*
X731500D01*
X730000Y1322500D02*
Y1325500D01*
X86000Y1364000D02*
X89000D01*
X87500Y1362500D02*
Y1365500D01*
X68500Y1364000D02*
X71500D01*
X70000Y1362500D02*
Y1365500D01*
X728500Y1339000D02*
X731500D01*
X730000Y1337500D02*
Y1340500D01*
X1313500Y1264750D02*
X1316500D01*
X1315000Y1263250D02*
Y1266250D01*
X670250Y1273500D02*
X673250D01*
X671750Y1272000D02*
Y1275000D01*
X681500Y1273250D02*
X684500D01*
X683000Y1271750D02*
Y1274750D01*
X1314250Y1319000D02*
X1317250D01*
X1315750Y1317500D02*
Y1320500D01*
X1866500Y1411000D02*
X1871500D01*
X1869000Y1408500D02*
Y1413500D01*
X1851500Y1411000D02*
X1856500D01*
X1854000Y1408500D02*
Y1413500D01*
X1836500Y1411000D02*
X1841500D01*
X1839000Y1408500D02*
Y1413500D01*
X1822500Y1411000D02*
X1827500D01*
X1825000Y1408500D02*
Y1413500D01*
X200750Y1453500D02*
X272750D01*
X236750Y1417500D02*
Y1489500D01*
X1864500Y1496000D02*
X1869500D01*
X1867000Y1493500D02*
Y1498500D01*
X1851500Y1496000D02*
X1856500D01*
X1854000Y1493500D02*
Y1498500D01*
X1838500Y1496000D02*
X1843500D01*
X1841000Y1493500D02*
Y1498500D01*
X1827500Y1496000D02*
X1832500D01*
X1830000Y1493500D02*
Y1498500D01*
X154500Y1391000D02*
X157500D01*
X156000Y1389500D02*
Y1392500D01*
X143500Y1391000D02*
X146500D01*
X145000Y1389500D02*
Y1392500D01*
X132500Y1391000D02*
X135500D01*
X134000Y1389500D02*
Y1392500D01*
X573500Y1512000D02*
X576500D01*
X575000Y1510500D02*
Y1513500D01*
X563500Y1502000D02*
X566500D01*
X565000Y1500500D02*
Y1503500D01*
X1958500Y1457000D02*
X1961500D01*
X1960000Y1455500D02*
Y1458500D01*
X1973500Y1457000D02*
X1976500D01*
X1975000Y1455500D02*
Y1458500D01*
X1353500Y1477000D02*
X1356500D01*
X1355000Y1475500D02*
Y1478500D01*
X1368500Y1477000D02*
X1371500D01*
X1370000Y1475500D02*
Y1478500D01*
X728500Y1477000D02*
X731500D01*
X730000Y1475500D02*
Y1478500D01*
X86000Y1517000D02*
X89000D01*
X87500Y1515500D02*
Y1518500D01*
X68500Y1517000D02*
X71500D01*
X70000Y1515500D02*
Y1518500D01*
X728500Y1492000D02*
X731500D01*
X730000Y1490500D02*
Y1493500D01*
X1313500Y1417750D02*
X1316500D01*
X1315000Y1416250D02*
Y1419250D01*
X670250Y1426500D02*
X673250D01*
X671750Y1425000D02*
Y1428000D01*
X681500Y1426250D02*
X684500D01*
X683000Y1424750D02*
Y1427750D01*
X1314250Y1472000D02*
X1317250D01*
X1315750Y1470500D02*
Y1473500D01*
X1866500Y1564000D02*
X1871500D01*
X1869000Y1561500D02*
Y1566500D01*
X1851500Y1564000D02*
X1856500D01*
X1854000Y1561500D02*
Y1566500D01*
X1836500Y1564000D02*
X1841500D01*
X1839000Y1561500D02*
Y1566500D01*
X1822500Y1564000D02*
X1827500D01*
X1825000Y1561500D02*
Y1566500D01*
X200750Y1606500D02*
X272750D01*
X236750Y1570500D02*
Y1642500D01*
X1864500Y1649000D02*
X1869500D01*
X1867000Y1646500D02*
Y1651500D01*
X1851500Y1649000D02*
X1856500D01*
X1854000Y1646500D02*
Y1651500D01*
X1838500Y1649000D02*
X1843500D01*
X1841000Y1646500D02*
Y1651500D01*
X1827500Y1649000D02*
X1832500D01*
X1830000Y1646500D02*
Y1651500D01*
X154500Y1544000D02*
X157500D01*
X156000Y1542500D02*
Y1545500D01*
X143500Y1544000D02*
X146500D01*
X145000Y1542500D02*
Y1545500D01*
X132500Y1544000D02*
X135500D01*
X134000Y1542500D02*
Y1545500D01*
X573500Y1665000D02*
X576500D01*
X575000Y1663500D02*
Y1666500D01*
X563500Y1655000D02*
X566500D01*
X565000Y1653500D02*
Y1656500D01*
X1958500Y1610000D02*
X1961500D01*
X1960000Y1608500D02*
Y1611500D01*
X1973500Y1610000D02*
X1976500D01*
X1975000Y1608500D02*
Y1611500D01*
X1353500Y1630000D02*
X1356500D01*
X1355000Y1628500D02*
Y1631500D01*
X1368500Y1630000D02*
X1371500D01*
X1370000Y1628500D02*
Y1631500D01*
X728500Y1630000D02*
X731500D01*
X730000Y1628500D02*
Y1631500D01*
X86000Y1670000D02*
X89000D01*
X87500Y1668500D02*
Y1671500D01*
X68500Y1670000D02*
X71500D01*
X70000Y1668500D02*
Y1671500D01*
X728500Y1645000D02*
X731500D01*
X730000Y1643500D02*
Y1646500D01*
X1313500Y1570750D02*
X1316500D01*
X1315000Y1569250D02*
Y1572250D01*
X670250Y1579500D02*
X673250D01*
X671750Y1578000D02*
Y1581000D01*
X681500Y1579250D02*
X684500D01*
X683000Y1577750D02*
Y1580750D01*
X1314250Y1625000D02*
X1317250D01*
X1315750Y1623500D02*
Y1626500D01*
X1866500Y1717000D02*
X1871500D01*
X1869000Y1714500D02*
Y1719500D01*
X1851500Y1717000D02*
X1856500D01*
X1854000Y1714500D02*
Y1719500D01*
X1836500Y1717000D02*
X1841500D01*
X1839000Y1714500D02*
Y1719500D01*
X1822500Y1717000D02*
X1827500D01*
X1825000Y1714500D02*
Y1719500D01*
X200750Y1759500D02*
X272750D01*
X236750Y1723500D02*
Y1795500D01*
X1864500Y1802000D02*
X1869500D01*
X1867000Y1799500D02*
Y1804500D01*
X1851500Y1802000D02*
X1856500D01*
X1854000Y1799500D02*
Y1804500D01*
X1838500Y1802000D02*
X1843500D01*
X1841000Y1799500D02*
Y1804500D01*
X1827500Y1802000D02*
X1832500D01*
X1830000Y1799500D02*
Y1804500D01*
X154500Y1697000D02*
X157500D01*
X156000Y1695500D02*
Y1698500D01*
X143500Y1697000D02*
X146500D01*
X145000Y1695500D02*
Y1698500D01*
X132500Y1697000D02*
X135500D01*
X134000Y1695500D02*
Y1698500D01*
X573500Y1818000D02*
X576500D01*
X575000Y1816500D02*
Y1819500D01*
X563500Y1808000D02*
X566500D01*
X565000Y1806500D02*
Y1809500D01*
X1958500Y1763000D02*
X1961500D01*
X1960000Y1761500D02*
Y1764500D01*
X1973500Y1763000D02*
X1976500D01*
X1975000Y1761500D02*
Y1764500D01*
X1353500Y1783000D02*
X1356500D01*
X1355000Y1781500D02*
Y1784500D01*
X1368500Y1783000D02*
X1371500D01*
X1370000Y1781500D02*
Y1784500D01*
X728500Y1783000D02*
X731500D01*
X730000Y1781500D02*
Y1784500D01*
X86000Y1823000D02*
X89000D01*
X87500Y1821500D02*
Y1824500D01*
X68500Y1823000D02*
X71500D01*
X70000Y1821500D02*
Y1824500D01*
X728500Y1798000D02*
X731500D01*
X730000Y1796500D02*
Y1799500D01*
X1313500Y1723750D02*
X1316500D01*
X1315000Y1722250D02*
Y1725250D01*
X670250Y1732500D02*
X673250D01*
X671750Y1731000D02*
Y1734000D01*
X681500Y1732250D02*
X684500D01*
X683000Y1730750D02*
Y1733750D01*
X1314250Y1778000D02*
X1317250D01*
X1315750Y1776500D02*
Y1779500D01*
X1866500Y1870000D02*
X1871500D01*
X1869000Y1867500D02*
Y1872500D01*
X1851500Y1870000D02*
X1856500D01*
X1854000Y1867500D02*
Y1872500D01*
X1836500Y1870000D02*
X1841500D01*
X1839000Y1867500D02*
Y1872500D01*
X1822500Y1870000D02*
X1827500D01*
X1825000Y1867500D02*
Y1872500D01*
X200750Y1912500D02*
X272750D01*
X236750Y1876500D02*
Y1948500D01*
X1864500Y1955000D02*
X1869500D01*
X1867000Y1952500D02*
Y1957500D01*
X1851500Y1955000D02*
X1856500D01*
X1854000Y1952500D02*
Y1957500D01*
X1838500Y1955000D02*
X1843500D01*
X1841000Y1952500D02*
Y1957500D01*
X1827500Y1955000D02*
X1832500D01*
X1830000Y1952500D02*
Y1957500D01*
X154500Y1850000D02*
X157500D01*
X156000Y1848500D02*
Y1851500D01*
X143500Y1850000D02*
X146500D01*
X145000Y1848500D02*
Y1851500D01*
X132500Y1850000D02*
X135500D01*
X134000Y1848500D02*
Y1851500D01*
X573500Y1971000D02*
X576500D01*
X575000Y1969500D02*
Y1972500D01*
X563500Y1961000D02*
X566500D01*
X565000Y1959500D02*
Y1962500D01*
X1958500Y1916000D02*
X1961500D01*
X1960000Y1914500D02*
Y1917500D01*
X1973500Y1916000D02*
X1976500D01*
X1975000Y1914500D02*
Y1917500D01*
X1353500Y1936000D02*
X1356500D01*
X1355000Y1934500D02*
Y1937500D01*
X1368500Y1936000D02*
X1371500D01*
X1370000Y1934500D02*
Y1937500D01*
X728500Y1936000D02*
X731500D01*
X730000Y1934500D02*
Y1937500D01*
X86000Y1976000D02*
X89000D01*
X87500Y1974500D02*
Y1977500D01*
X68500Y1976000D02*
X71500D01*
X70000Y1974500D02*
Y1977500D01*
X728500Y1951000D02*
X731500D01*
X730000Y1949500D02*
Y1952500D01*
X1313500Y1876750D02*
X1316500D01*
X1315000Y1875250D02*
Y1878250D01*
X670250Y1885500D02*
X673250D01*
X671750Y1884000D02*
Y1887000D01*
X681500Y1885250D02*
X684500D01*
X683000Y1883750D02*
Y1886750D01*
X1314250Y1931000D02*
X1317250D01*
X1315750Y1929500D02*
Y1932500D01*
X1866500Y2023000D02*
X1871500D01*
X1869000Y2020500D02*
Y2025500D01*
X1851500Y2023000D02*
X1856500D01*
X1854000Y2020500D02*
Y2025500D01*
X1836500Y2023000D02*
X1841500D01*
X1839000Y2020500D02*
Y2025500D01*
X1822500Y2023000D02*
X1827500D01*
X1825000Y2020500D02*
Y2025500D01*
X200750Y2065500D02*
X272750D01*
X236750Y2029500D02*
Y2101500D01*
X1864500Y2108000D02*
X1869500D01*
X1867000Y2105500D02*
Y2110500D01*
X1851500Y2108000D02*
X1856500D01*
X1854000Y2105500D02*
Y2110500D01*
X1838500Y2108000D02*
X1843500D01*
X1841000Y2105500D02*
Y2110500D01*
X1827500Y2108000D02*
X1832500D01*
X1830000Y2105500D02*
Y2110500D01*
X154500Y2003000D02*
X157500D01*
X156000Y2001500D02*
Y2004500D01*
X143500Y2003000D02*
X146500D01*
X145000Y2001500D02*
Y2004500D01*
X132500Y2003000D02*
X135500D01*
X134000Y2001500D02*
Y2004500D01*
X573500Y2124000D02*
X576500D01*
X575000Y2122500D02*
Y2125500D01*
X563500Y2114000D02*
X566500D01*
X565000Y2112500D02*
Y2115500D01*
X1958500Y2069000D02*
X1961500D01*
X1960000Y2067500D02*
Y2070500D01*
X1973500Y2069000D02*
X1976500D01*
X1975000Y2067500D02*
Y2070500D01*
X1353500Y2089000D02*
X1356500D01*
X1355000Y2087500D02*
Y2090500D01*
X1368500Y2089000D02*
X1371500D01*
X1370000Y2087500D02*
Y2090500D01*
X728500Y2089000D02*
X731500D01*
X730000Y2087500D02*
Y2090500D01*
X86000Y2129000D02*
X89000D01*
X87500Y2127500D02*
Y2130500D01*
X68500Y2129000D02*
X71500D01*
X70000Y2127500D02*
Y2130500D01*
X728500Y2104000D02*
X731500D01*
X730000Y2102500D02*
Y2105500D01*
X1313500Y2029750D02*
X1316500D01*
X1315000Y2028250D02*
Y2031250D01*
X670250Y2038500D02*
X673250D01*
X671750Y2037000D02*
Y2040000D01*
X681500Y2038250D02*
X684500D01*
X683000Y2036750D02*
Y2039750D01*
X1314250Y2084000D02*
X1317250D01*
X1315750Y2082500D02*
Y2085500D01*
M02*
