G04 Layer_Color=16711935*
%FSLAX44Y44*%
%MOMM*%
G71*
G01*
G75*
%ADD30C,0.3000*%
D30*
X0Y0D02*
Y2142000D01*
X2050000D01*
Y0D02*
Y2142000D01*
X0Y0D02*
X2050000D01*
X50000Y0D02*
Y153000D01*
Y0D02*
X1998000D01*
Y153000D01*
X50000D02*
X1998000D01*
X50000D02*
Y306000D01*
Y153000D02*
X1998000D01*
Y306000D01*
X50000D02*
X1998000D01*
X50000D02*
Y459000D01*
Y306000D02*
X1998000D01*
Y459000D01*
X50000D02*
X1998000D01*
X50000D02*
Y612000D01*
Y459000D02*
X1998000D01*
Y612000D01*
X50000D02*
X1998000D01*
X50000D02*
Y765000D01*
Y612000D02*
X1998000D01*
Y765000D01*
X50000D02*
X1998000D01*
X50000D02*
Y918000D01*
Y765000D02*
X1998000D01*
Y918000D01*
X50000D02*
X1998000D01*
X50000D02*
Y1071000D01*
Y918000D02*
X1998000D01*
Y1071000D01*
X50000D02*
X1998000D01*
X50000D02*
Y1224000D01*
Y1071000D02*
X1998000D01*
Y1224000D01*
X50000D02*
X1998000D01*
X50000D02*
Y1377000D01*
Y1224000D02*
X1998000D01*
Y1377000D01*
X50000D02*
X1998000D01*
X50000D02*
Y1530000D01*
Y1377000D02*
X1998000D01*
Y1530000D01*
X50000D02*
X1998000D01*
X50000D02*
Y1683000D01*
Y1530000D02*
X1998000D01*
Y1683000D01*
X50000D02*
X1998000D01*
X50000D02*
Y1836000D01*
Y1683000D02*
X1998000D01*
Y1836000D01*
X50000D02*
X1998000D01*
X50000D02*
Y1989000D01*
Y1836000D02*
X1998000D01*
Y1989000D01*
X50000D02*
X1998000D01*
X50000D02*
Y2142000D01*
Y1989000D02*
X1998000D01*
Y2142000D01*
X50000D02*
X1998000D01*
M02*
