G04 Layer_Color=32896*
%FSLAX44Y44*%
%MOMM*%
G71*
G01*
G75*
%ADD29C,0.2540*%
%ADD31C,0.2000*%
D29*
X70000Y4000D02*
Y11000D01*
X54000Y20000D02*
X61000D01*
X79000D02*
X86000D01*
X70000Y29000D02*
Y36000D01*
X1964000Y135000D02*
X1971000D01*
X1980000Y144000D02*
Y151000D01*
X1989000Y135000D02*
X1996000D01*
X1980000Y119000D02*
Y126000D01*
X116500Y59500D02*
X146500D01*
X116500Y93500D02*
X146500D01*
X326500Y59500D02*
X356500D01*
X326500Y93500D02*
X356500D01*
X431500D02*
X461500D01*
X431500Y59500D02*
X461500D01*
X536500D02*
X566500D01*
X536500Y93500D02*
X566500D01*
X641500Y93500D02*
X671500D01*
X641500Y59500D02*
X671500D01*
X746500Y59500D02*
X776500D01*
X746500Y93500D02*
X776500D01*
X851500Y93500D02*
X881500D01*
X851500Y59500D02*
X881500D01*
X956500Y59500D02*
X986500D01*
X956500Y93500D02*
X986500D01*
X1061500D02*
X1091500D01*
X1061500Y59500D02*
X1091500D01*
X1166500D02*
X1196500D01*
X1166500Y93500D02*
X1196500D01*
X1271500D02*
X1301500D01*
X1271500Y59500D02*
X1301500D01*
X1376500D02*
X1406500D01*
X1376500Y93500D02*
X1406500D01*
X1481500Y93500D02*
X1511500D01*
X1481500Y59500D02*
X1511500D01*
X1586500D02*
X1616500D01*
X1586500Y93500D02*
X1616500D01*
X1691500Y93500D02*
X1721500D01*
X1691500Y59500D02*
X1721500D01*
X1796500Y59500D02*
X1826500D01*
X1796500Y93500D02*
X1826500D01*
X1901500Y93500D02*
X1931500D01*
X1901500Y59500D02*
X1931500D01*
X170250Y102118D02*
X160093D01*
X165172Y107196D02*
Y97039D01*
X380250Y102118D02*
X370093D01*
X375172Y107196D02*
Y97039D01*
X485250Y102118D02*
X475093D01*
X480172Y107196D02*
Y97039D01*
X590250Y102118D02*
X580093D01*
X585172Y107196D02*
Y97039D01*
X695250Y102118D02*
X685093D01*
X690172Y107196D02*
Y97039D01*
X800250Y102118D02*
X790093D01*
X795172Y107196D02*
Y97039D01*
X905250Y102118D02*
X895093D01*
X900172Y107196D02*
Y97039D01*
X1010250Y102118D02*
X1000093D01*
X1005172Y107196D02*
Y97039D01*
X1115250Y102118D02*
X1105093D01*
X1110172Y107196D02*
Y97039D01*
X1220250Y102118D02*
X1210093D01*
X1215172Y107196D02*
Y97039D01*
X1325250Y102118D02*
X1315093D01*
X1320172Y107196D02*
Y97039D01*
X1430250Y102118D02*
X1420093D01*
X1425172Y107196D02*
Y97039D01*
X1535250Y102118D02*
X1525093D01*
X1530172Y107196D02*
Y97039D01*
X1640250Y102118D02*
X1630093D01*
X1635172Y107196D02*
Y97039D01*
X1745250Y102118D02*
X1735093D01*
X1740172Y107196D02*
Y97039D01*
X1850250Y102118D02*
X1840093D01*
X1845172Y107196D02*
Y97039D01*
X1955250Y102118D02*
X1945093D01*
X1950172Y107196D02*
Y97039D01*
X70000Y157000D02*
Y164000D01*
X54000Y173000D02*
X61000D01*
X79000D02*
X86000D01*
X70000Y182000D02*
Y189000D01*
X1964000Y288000D02*
X1971000D01*
X1980000Y297000D02*
Y304000D01*
X1989000Y288000D02*
X1996000D01*
X1980000Y272000D02*
Y279000D01*
X116500Y212500D02*
X146500D01*
X116500Y246500D02*
X146500D01*
X326500Y212500D02*
X356500D01*
X326500Y246500D02*
X356500D01*
X431500D02*
X461500D01*
X431500Y212500D02*
X461500D01*
X536500D02*
X566500D01*
X536500Y246500D02*
X566500D01*
X641500Y246500D02*
X671500D01*
X641500Y212500D02*
X671500D01*
X746500Y212500D02*
X776500D01*
X746500Y246500D02*
X776500D01*
X851500Y246500D02*
X881500D01*
X851500Y212500D02*
X881500D01*
X956500Y212500D02*
X986500D01*
X956500Y246500D02*
X986500D01*
X1061500D02*
X1091500D01*
X1061500Y212500D02*
X1091500D01*
X1166500D02*
X1196500D01*
X1166500Y246500D02*
X1196500D01*
X1271500D02*
X1301500D01*
X1271500Y212500D02*
X1301500D01*
X1376500D02*
X1406500D01*
X1376500Y246500D02*
X1406500D01*
X1481500Y246500D02*
X1511500D01*
X1481500Y212500D02*
X1511500D01*
X1586500D02*
X1616500D01*
X1586500Y246500D02*
X1616500D01*
X1691500Y246500D02*
X1721500D01*
X1691500Y212500D02*
X1721500D01*
X1796500Y212500D02*
X1826500D01*
X1796500Y246500D02*
X1826500D01*
X1901500Y246500D02*
X1931500D01*
X1901500Y212500D02*
X1931500D01*
X170250Y255118D02*
X160093D01*
X165172Y260196D02*
Y250039D01*
X380250Y255118D02*
X370093D01*
X375172Y260196D02*
Y250039D01*
X485250Y255118D02*
X475093D01*
X480172Y260196D02*
Y250039D01*
X590250Y255118D02*
X580093D01*
X585172Y260196D02*
Y250039D01*
X695250Y255117D02*
X685093D01*
X690172Y260196D02*
Y250039D01*
X800250Y255118D02*
X790093D01*
X795172Y260196D02*
Y250039D01*
X905250Y255117D02*
X895093D01*
X900172Y260196D02*
Y250039D01*
X1010250Y255118D02*
X1000093D01*
X1005172Y260196D02*
Y250039D01*
X1115250Y255118D02*
X1105093D01*
X1110172Y260196D02*
Y250039D01*
X1220250Y255118D02*
X1210093D01*
X1215172Y260196D02*
Y250039D01*
X1325250Y255118D02*
X1315093D01*
X1320172Y260196D02*
Y250039D01*
X1430250Y255118D02*
X1420093D01*
X1425172Y260196D02*
Y250039D01*
X1535250Y255117D02*
X1525093D01*
X1530172Y260196D02*
Y250039D01*
X1640250Y255117D02*
X1630093D01*
X1635172Y260196D02*
Y250039D01*
X1745250Y255118D02*
X1735093D01*
X1740172Y260196D02*
Y250039D01*
X1850250Y255117D02*
X1840093D01*
X1845172Y260196D02*
Y250039D01*
X1955250Y255118D02*
X1945093D01*
X1950172Y260196D02*
Y250039D01*
X70000Y310000D02*
Y317000D01*
X54000Y326000D02*
X61000D01*
X79000D02*
X86000D01*
X70000Y335000D02*
Y342000D01*
X1964000Y441000D02*
X1971000D01*
X1980000Y450000D02*
Y457000D01*
X1989000Y441000D02*
X1996000D01*
X1980000Y425000D02*
Y432000D01*
X116500Y365500D02*
X146500D01*
X116500Y399500D02*
X146500D01*
X326500Y365500D02*
X356500D01*
X326500Y399500D02*
X356500D01*
X431500D02*
X461500D01*
X431500Y365500D02*
X461500D01*
X536500D02*
X566500D01*
X536500Y399500D02*
X566500D01*
X641500Y399500D02*
X671500D01*
X641500Y365500D02*
X671500D01*
X746500Y365500D02*
X776500D01*
X746500Y399500D02*
X776500D01*
X851500Y399500D02*
X881500D01*
X851500Y365500D02*
X881500D01*
X956500Y365500D02*
X986500D01*
X956500Y399500D02*
X986500D01*
X1061500D02*
X1091500D01*
X1061500Y365500D02*
X1091500D01*
X1166500D02*
X1196500D01*
X1166500Y399500D02*
X1196500D01*
X1271500D02*
X1301500D01*
X1271500Y365500D02*
X1301500D01*
X1376500D02*
X1406500D01*
X1376500Y399500D02*
X1406500D01*
X1481500Y399500D02*
X1511500D01*
X1481500Y365500D02*
X1511500D01*
X1586500D02*
X1616500D01*
X1586500Y399500D02*
X1616500D01*
X1691500Y399500D02*
X1721500D01*
X1691500Y365500D02*
X1721500D01*
X1796500Y365500D02*
X1826500D01*
X1796500Y399500D02*
X1826500D01*
X1901500Y399500D02*
X1931500D01*
X1901500Y365500D02*
X1931500D01*
X170250Y408118D02*
X160093D01*
X165172Y413196D02*
Y403039D01*
X380250Y408118D02*
X370093D01*
X375172Y413196D02*
Y403039D01*
X485250Y408118D02*
X475093D01*
X480172Y413196D02*
Y403039D01*
X590250Y408118D02*
X580093D01*
X585172Y413196D02*
Y403039D01*
X695250Y408118D02*
X685093D01*
X690172Y413196D02*
Y403039D01*
X800250Y408118D02*
X790093D01*
X795172Y413196D02*
Y403039D01*
X905250Y408118D02*
X895093D01*
X900172Y413196D02*
Y403039D01*
X1010250Y408118D02*
X1000093D01*
X1005172Y413196D02*
Y403039D01*
X1115250Y408118D02*
X1105093D01*
X1110172Y413196D02*
Y403039D01*
X1220250Y408118D02*
X1210093D01*
X1215172Y413196D02*
Y403039D01*
X1325250Y408118D02*
X1315093D01*
X1320172Y413196D02*
Y403039D01*
X1430250Y408118D02*
X1420093D01*
X1425172Y413196D02*
Y403039D01*
X1535250Y408118D02*
X1525093D01*
X1530172Y413196D02*
Y403039D01*
X1640250Y408118D02*
X1630093D01*
X1635172Y413196D02*
Y403039D01*
X1745250Y408118D02*
X1735093D01*
X1740172Y413196D02*
Y403039D01*
X1850250Y408118D02*
X1840093D01*
X1845172Y413196D02*
Y403039D01*
X1955250Y408118D02*
X1945093D01*
X1950172Y413196D02*
Y403039D01*
X70000Y463000D02*
Y470000D01*
X54000Y479000D02*
X61000D01*
X79000D02*
X86000D01*
X70000Y488000D02*
Y495000D01*
X1964000Y594000D02*
X1971000D01*
X1980000Y603000D02*
Y610000D01*
X1989000Y594000D02*
X1996000D01*
X1980000Y578000D02*
Y585000D01*
X116500Y518500D02*
X146500D01*
X116500Y552500D02*
X146500D01*
X326500Y518500D02*
X356500D01*
X326500Y552500D02*
X356500D01*
X431500D02*
X461500D01*
X431500Y518500D02*
X461500D01*
X536500D02*
X566500D01*
X536500Y552500D02*
X566500D01*
X641500Y552500D02*
X671500D01*
X641500Y518500D02*
X671500D01*
X746500Y518500D02*
X776500D01*
X746500Y552500D02*
X776500D01*
X851500Y552500D02*
X881500D01*
X851500Y518500D02*
X881500D01*
X956500Y518500D02*
X986500D01*
X956500Y552500D02*
X986500D01*
X1061500D02*
X1091500D01*
X1061500Y518500D02*
X1091500D01*
X1166500D02*
X1196500D01*
X1166500Y552500D02*
X1196500D01*
X1271500D02*
X1301500D01*
X1271500Y518500D02*
X1301500D01*
X1376500D02*
X1406500D01*
X1376500Y552500D02*
X1406500D01*
X1481500Y552500D02*
X1511500D01*
X1481500Y518500D02*
X1511500D01*
X1586500D02*
X1616500D01*
X1586500Y552500D02*
X1616500D01*
X1691500Y552500D02*
X1721500D01*
X1691500Y518500D02*
X1721500D01*
X1796500Y518500D02*
X1826500D01*
X1796500Y552500D02*
X1826500D01*
X1901500Y552500D02*
X1931500D01*
X1901500Y518500D02*
X1931500D01*
X170250Y561118D02*
X160093D01*
X165172Y566196D02*
Y556039D01*
X380250Y561118D02*
X370093D01*
X375172Y566196D02*
Y556039D01*
X485250Y561118D02*
X475093D01*
X480172Y566196D02*
Y556039D01*
X590250Y561118D02*
X580093D01*
X585172Y566196D02*
Y556039D01*
X695250Y561118D02*
X685093D01*
X690172Y566196D02*
Y556039D01*
X800250Y561118D02*
X790093D01*
X795172Y566196D02*
Y556039D01*
X905250Y561118D02*
X895093D01*
X900172Y566196D02*
Y556039D01*
X1010250Y561118D02*
X1000093D01*
X1005172Y566196D02*
Y556039D01*
X1115250Y561118D02*
X1105093D01*
X1110172Y566196D02*
Y556039D01*
X1220250Y561118D02*
X1210093D01*
X1215172Y566196D02*
Y556039D01*
X1325250Y561118D02*
X1315093D01*
X1320172Y566196D02*
Y556039D01*
X1430250Y561118D02*
X1420093D01*
X1425172Y566196D02*
Y556039D01*
X1535250Y561118D02*
X1525093D01*
X1530172Y566196D02*
Y556039D01*
X1640250Y561118D02*
X1630093D01*
X1635172Y566196D02*
Y556039D01*
X1745250Y561118D02*
X1735093D01*
X1740172Y566196D02*
Y556039D01*
X1850250Y561118D02*
X1840093D01*
X1845172Y566196D02*
Y556039D01*
X1955250Y561118D02*
X1945093D01*
X1950172Y566196D02*
Y556039D01*
X70000Y616000D02*
Y623000D01*
X54000Y632000D02*
X61000D01*
X79000D02*
X86000D01*
X70000Y641000D02*
Y648000D01*
X1964000Y747000D02*
X1971000D01*
X1980000Y756000D02*
Y763000D01*
X1989000Y747000D02*
X1996000D01*
X1980000Y731000D02*
Y738000D01*
X116500Y671500D02*
X146500D01*
X116500Y705500D02*
X146500D01*
X326500Y671500D02*
X356500D01*
X326500Y705500D02*
X356500D01*
X431500D02*
X461500D01*
X431500Y671500D02*
X461500D01*
X536500D02*
X566500D01*
X536500Y705500D02*
X566500D01*
X641500Y705500D02*
X671500D01*
X641500Y671500D02*
X671500D01*
X746500Y671500D02*
X776500D01*
X746500Y705500D02*
X776500D01*
X851500Y705500D02*
X881500D01*
X851500Y671500D02*
X881500D01*
X956500Y671500D02*
X986500D01*
X956500Y705500D02*
X986500D01*
X1061500D02*
X1091500D01*
X1061500Y671500D02*
X1091500D01*
X1166500D02*
X1196500D01*
X1166500Y705500D02*
X1196500D01*
X1271500D02*
X1301500D01*
X1271500Y671500D02*
X1301500D01*
X1376500D02*
X1406500D01*
X1376500Y705500D02*
X1406500D01*
X1481500Y705500D02*
X1511500D01*
X1481500Y671500D02*
X1511500D01*
X1586500D02*
X1616500D01*
X1586500Y705500D02*
X1616500D01*
X1691500Y705500D02*
X1721500D01*
X1691500Y671500D02*
X1721500D01*
X1796500Y671500D02*
X1826500D01*
X1796500Y705500D02*
X1826500D01*
X1901500Y705500D02*
X1931500D01*
X1901500Y671500D02*
X1931500D01*
X170250Y714118D02*
X160093D01*
X165172Y719196D02*
Y709039D01*
X380250Y714118D02*
X370093D01*
X375172Y719196D02*
Y709039D01*
X485250Y714118D02*
X475093D01*
X480172Y719196D02*
Y709039D01*
X590250Y714118D02*
X580093D01*
X585172Y719196D02*
Y709039D01*
X695250Y714118D02*
X685093D01*
X690172Y719196D02*
Y709039D01*
X800250Y714118D02*
X790093D01*
X795172Y719196D02*
Y709039D01*
X905250Y714118D02*
X895093D01*
X900172Y719196D02*
Y709039D01*
X1010250Y714118D02*
X1000093D01*
X1005172Y719196D02*
Y709039D01*
X1115250Y714118D02*
X1105093D01*
X1110172Y719196D02*
Y709039D01*
X1220250Y714118D02*
X1210093D01*
X1215172Y719196D02*
Y709039D01*
X1325250Y714118D02*
X1315093D01*
X1320172Y719196D02*
Y709039D01*
X1430250Y714118D02*
X1420093D01*
X1425172Y719196D02*
Y709039D01*
X1535250Y714118D02*
X1525093D01*
X1530172Y719196D02*
Y709039D01*
X1640250Y714118D02*
X1630093D01*
X1635172Y719196D02*
Y709039D01*
X1745250Y714118D02*
X1735093D01*
X1740172Y719196D02*
Y709039D01*
X1850250Y714118D02*
X1840093D01*
X1845172Y719196D02*
Y709039D01*
X1955250Y714118D02*
X1945093D01*
X1950172Y719196D02*
Y709039D01*
X70000Y769000D02*
Y776000D01*
X54000Y785000D02*
X61000D01*
X79000D02*
X86000D01*
X70000Y794000D02*
Y801000D01*
X1964000Y900000D02*
X1971000D01*
X1980000Y909000D02*
Y916000D01*
X1989000Y900000D02*
X1996000D01*
X1980000Y884000D02*
Y891000D01*
X116500Y824500D02*
X146500D01*
X116500Y858500D02*
X146500D01*
X326500Y824500D02*
X356500D01*
X326500Y858500D02*
X356500D01*
X431500D02*
X461500D01*
X431500Y824500D02*
X461500D01*
X536500D02*
X566500D01*
X536500Y858500D02*
X566500D01*
X641500Y858500D02*
X671500D01*
X641500Y824500D02*
X671500D01*
X746500Y824500D02*
X776500D01*
X746500Y858500D02*
X776500D01*
X851500Y858500D02*
X881500D01*
X851500Y824500D02*
X881500D01*
X956500Y824500D02*
X986500D01*
X956500Y858500D02*
X986500D01*
X1061500D02*
X1091500D01*
X1061500Y824500D02*
X1091500D01*
X1166500D02*
X1196500D01*
X1166500Y858500D02*
X1196500D01*
X1271500D02*
X1301500D01*
X1271500Y824500D02*
X1301500D01*
X1376500D02*
X1406500D01*
X1376500Y858500D02*
X1406500D01*
X1481500Y858500D02*
X1511500D01*
X1481500Y824500D02*
X1511500D01*
X1586500D02*
X1616500D01*
X1586500Y858500D02*
X1616500D01*
X1691500Y858500D02*
X1721500D01*
X1691500Y824500D02*
X1721500D01*
X1796500Y824500D02*
X1826500D01*
X1796500Y858500D02*
X1826500D01*
X1901500Y858500D02*
X1931500D01*
X1901500Y824500D02*
X1931500D01*
X170250Y867118D02*
X160093D01*
X165172Y872196D02*
Y862039D01*
X380250Y867118D02*
X370093D01*
X375172Y872196D02*
Y862039D01*
X485250Y867118D02*
X475093D01*
X480172Y872196D02*
Y862039D01*
X590250Y867118D02*
X580093D01*
X585172Y872196D02*
Y862039D01*
X695250Y867118D02*
X685093D01*
X690172Y872196D02*
Y862039D01*
X800250Y867118D02*
X790093D01*
X795172Y872196D02*
Y862039D01*
X905250Y867118D02*
X895093D01*
X900172Y872196D02*
Y862039D01*
X1010250Y867118D02*
X1000093D01*
X1005172Y872196D02*
Y862039D01*
X1115250Y867118D02*
X1105093D01*
X1110172Y872196D02*
Y862039D01*
X1220250Y867118D02*
X1210093D01*
X1215172Y872196D02*
Y862039D01*
X1325250Y867118D02*
X1315093D01*
X1320172Y872196D02*
Y862039D01*
X1430250Y867118D02*
X1420093D01*
X1425172Y872196D02*
Y862039D01*
X1535250Y867118D02*
X1525093D01*
X1530172Y872196D02*
Y862039D01*
X1640250Y867118D02*
X1630093D01*
X1635172Y872196D02*
Y862039D01*
X1745250Y867118D02*
X1735093D01*
X1740172Y872196D02*
Y862039D01*
X1850250Y867118D02*
X1840093D01*
X1845172Y872196D02*
Y862039D01*
X1955250Y867118D02*
X1945093D01*
X1950172Y872196D02*
Y862039D01*
X70000Y922000D02*
Y929000D01*
X54000Y938000D02*
X61000D01*
X79000D02*
X86000D01*
X70000Y947000D02*
Y954000D01*
X1964000Y1053000D02*
X1971000D01*
X1980000Y1062000D02*
Y1069000D01*
X1989000Y1053000D02*
X1996000D01*
X1980000Y1037000D02*
Y1044000D01*
X116500Y977500D02*
X146500D01*
X116500Y1011500D02*
X146500D01*
X326500Y977500D02*
X356500D01*
X326500Y1011500D02*
X356500D01*
X431500D02*
X461500D01*
X431500Y977500D02*
X461500D01*
X536500D02*
X566500D01*
X536500Y1011500D02*
X566500D01*
X641500Y1011500D02*
X671500D01*
X641500Y977500D02*
X671500D01*
X746500Y977500D02*
X776500D01*
X746500Y1011500D02*
X776500D01*
X851500Y1011500D02*
X881500D01*
X851500Y977500D02*
X881500D01*
X956500Y977500D02*
X986500D01*
X956500Y1011500D02*
X986500D01*
X1061500D02*
X1091500D01*
X1061500Y977500D02*
X1091500D01*
X1166500D02*
X1196500D01*
X1166500Y1011500D02*
X1196500D01*
X1271500D02*
X1301500D01*
X1271500Y977500D02*
X1301500D01*
X1376500D02*
X1406500D01*
X1376500Y1011500D02*
X1406500D01*
X1481500Y1011500D02*
X1511500D01*
X1481500Y977500D02*
X1511500D01*
X1586500D02*
X1616500D01*
X1586500Y1011500D02*
X1616500D01*
X1691500Y1011500D02*
X1721500D01*
X1691500Y977500D02*
X1721500D01*
X1796500Y977500D02*
X1826500D01*
X1796500Y1011500D02*
X1826500D01*
X1901500Y1011500D02*
X1931500D01*
X1901500Y977500D02*
X1931500D01*
X170250Y1020118D02*
X160093D01*
X165172Y1025196D02*
Y1015039D01*
X380250Y1020118D02*
X370093D01*
X375172Y1025196D02*
Y1015039D01*
X485250Y1020118D02*
X475093D01*
X480172Y1025196D02*
Y1015039D01*
X590250Y1020118D02*
X580093D01*
X585172Y1025196D02*
Y1015039D01*
X695250Y1020118D02*
X685093D01*
X690172Y1025196D02*
Y1015039D01*
X800250Y1020118D02*
X790093D01*
X795172Y1025196D02*
Y1015039D01*
X905250Y1020118D02*
X895093D01*
X900172Y1025196D02*
Y1015039D01*
X1010250Y1020118D02*
X1000093D01*
X1005172Y1025196D02*
Y1015039D01*
X1115250Y1020118D02*
X1105093D01*
X1110172Y1025196D02*
Y1015039D01*
X1220250Y1020118D02*
X1210093D01*
X1215172Y1025196D02*
Y1015039D01*
X1325250Y1020118D02*
X1315093D01*
X1320172Y1025196D02*
Y1015039D01*
X1430250Y1020118D02*
X1420093D01*
X1425172Y1025196D02*
Y1015039D01*
X1535250Y1020118D02*
X1525093D01*
X1530172Y1025196D02*
Y1015039D01*
X1640250Y1020118D02*
X1630093D01*
X1635172Y1025196D02*
Y1015039D01*
X1745250Y1020118D02*
X1735093D01*
X1740172Y1025196D02*
Y1015039D01*
X1850250Y1020118D02*
X1840093D01*
X1845172Y1025196D02*
Y1015039D01*
X1955250Y1020118D02*
X1945093D01*
X1950172Y1025196D02*
Y1015039D01*
X70000Y1075000D02*
Y1082000D01*
X54000Y1091000D02*
X61000D01*
X79000D02*
X86000D01*
X70000Y1100000D02*
Y1107000D01*
X1964000Y1206000D02*
X1971000D01*
X1980000Y1215000D02*
Y1222000D01*
X1989000Y1206000D02*
X1996000D01*
X1980000Y1190000D02*
Y1197000D01*
X116500Y1130500D02*
X146500D01*
X116500Y1164500D02*
X146500D01*
X326500Y1130500D02*
X356500D01*
X326500Y1164500D02*
X356500D01*
X431500D02*
X461500D01*
X431500Y1130500D02*
X461500D01*
X536500D02*
X566500D01*
X536500Y1164500D02*
X566500D01*
X641500Y1164500D02*
X671500D01*
X641500Y1130500D02*
X671500D01*
X746500Y1130500D02*
X776500D01*
X746500Y1164500D02*
X776500D01*
X851500Y1164500D02*
X881500D01*
X851500Y1130500D02*
X881500D01*
X956500Y1130500D02*
X986500D01*
X956500Y1164500D02*
X986500D01*
X1061500D02*
X1091500D01*
X1061500Y1130500D02*
X1091500D01*
X1166500D02*
X1196500D01*
X1166500Y1164500D02*
X1196500D01*
X1271500D02*
X1301500D01*
X1271500Y1130500D02*
X1301500D01*
X1376500D02*
X1406500D01*
X1376500Y1164500D02*
X1406500D01*
X1481500Y1164500D02*
X1511500D01*
X1481500Y1130500D02*
X1511500D01*
X1586500D02*
X1616500D01*
X1586500Y1164500D02*
X1616500D01*
X1691500Y1164500D02*
X1721500D01*
X1691500Y1130500D02*
X1721500D01*
X1796500Y1130500D02*
X1826500D01*
X1796500Y1164500D02*
X1826500D01*
X1901500Y1164500D02*
X1931500D01*
X1901500Y1130500D02*
X1931500D01*
X170250Y1173118D02*
X160093D01*
X165172Y1178196D02*
Y1168039D01*
X380250Y1173118D02*
X370093D01*
X375172Y1178196D02*
Y1168039D01*
X485250Y1173118D02*
X475093D01*
X480172Y1178196D02*
Y1168039D01*
X590250Y1173118D02*
X580093D01*
X585172Y1178196D02*
Y1168039D01*
X695250Y1173118D02*
X685093D01*
X690172Y1178196D02*
Y1168039D01*
X800250Y1173118D02*
X790093D01*
X795172Y1178196D02*
Y1168039D01*
X905250Y1173118D02*
X895093D01*
X900172Y1178196D02*
Y1168039D01*
X1010250Y1173118D02*
X1000093D01*
X1005172Y1178196D02*
Y1168039D01*
X1115250Y1173118D02*
X1105093D01*
X1110172Y1178196D02*
Y1168039D01*
X1220250Y1173118D02*
X1210093D01*
X1215172Y1178196D02*
Y1168039D01*
X1325250Y1173118D02*
X1315093D01*
X1320172Y1178196D02*
Y1168039D01*
X1430250Y1173118D02*
X1420093D01*
X1425172Y1178196D02*
Y1168039D01*
X1535250Y1173118D02*
X1525093D01*
X1530172Y1178196D02*
Y1168039D01*
X1640250Y1173118D02*
X1630093D01*
X1635172Y1178196D02*
Y1168039D01*
X1745250Y1173118D02*
X1735093D01*
X1740172Y1178196D02*
Y1168039D01*
X1850250Y1173118D02*
X1840093D01*
X1845172Y1178196D02*
Y1168039D01*
X1955250Y1173118D02*
X1945093D01*
X1950172Y1178196D02*
Y1168039D01*
X70000Y1228000D02*
Y1235000D01*
X54000Y1244000D02*
X61000D01*
X79000D02*
X86000D01*
X70000Y1253000D02*
Y1260000D01*
X1964000Y1359000D02*
X1971000D01*
X1980000Y1368000D02*
Y1375000D01*
X1989000Y1359000D02*
X1996000D01*
X1980000Y1343000D02*
Y1350000D01*
X116500Y1283500D02*
X146500D01*
X116500Y1317500D02*
X146500D01*
X326500Y1283500D02*
X356500D01*
X326500Y1317500D02*
X356500D01*
X431500D02*
X461500D01*
X431500Y1283500D02*
X461500D01*
X536500D02*
X566500D01*
X536500Y1317500D02*
X566500D01*
X641500Y1317500D02*
X671500D01*
X641500Y1283500D02*
X671500D01*
X746500Y1283500D02*
X776500D01*
X746500Y1317500D02*
X776500D01*
X851500Y1317500D02*
X881500D01*
X851500Y1283500D02*
X881500D01*
X956500Y1283500D02*
X986500D01*
X956500Y1317500D02*
X986500D01*
X1061500D02*
X1091500D01*
X1061500Y1283500D02*
X1091500D01*
X1166500D02*
X1196500D01*
X1166500Y1317500D02*
X1196500D01*
X1271500D02*
X1301500D01*
X1271500Y1283500D02*
X1301500D01*
X1376500D02*
X1406500D01*
X1376500Y1317500D02*
X1406500D01*
X1481500Y1317500D02*
X1511500D01*
X1481500Y1283500D02*
X1511500D01*
X1586500D02*
X1616500D01*
X1586500Y1317500D02*
X1616500D01*
X1691500Y1317500D02*
X1721500D01*
X1691500Y1283500D02*
X1721500D01*
X1796500Y1283500D02*
X1826500D01*
X1796500Y1317500D02*
X1826500D01*
X1901500Y1317500D02*
X1931500D01*
X1901500Y1283500D02*
X1931500D01*
X170250Y1326118D02*
X160093D01*
X165172Y1331196D02*
Y1321039D01*
X380250Y1326118D02*
X370093D01*
X375172Y1331196D02*
Y1321039D01*
X485250Y1326118D02*
X475093D01*
X480172Y1331196D02*
Y1321039D01*
X590250Y1326118D02*
X580093D01*
X585172Y1331196D02*
Y1321039D01*
X695250Y1326118D02*
X685093D01*
X690172Y1331196D02*
Y1321039D01*
X800250Y1326118D02*
X790093D01*
X795172Y1331196D02*
Y1321039D01*
X905250Y1326118D02*
X895093D01*
X900172Y1331196D02*
Y1321039D01*
X1010250Y1326118D02*
X1000093D01*
X1005172Y1331196D02*
Y1321039D01*
X1115250Y1326118D02*
X1105093D01*
X1110172Y1331196D02*
Y1321039D01*
X1220250Y1326118D02*
X1210093D01*
X1215172Y1331196D02*
Y1321039D01*
X1325250Y1326118D02*
X1315093D01*
X1320172Y1331196D02*
Y1321039D01*
X1430250Y1326118D02*
X1420093D01*
X1425172Y1331196D02*
Y1321039D01*
X1535250Y1326118D02*
X1525093D01*
X1530172Y1331196D02*
Y1321039D01*
X1640250Y1326118D02*
X1630093D01*
X1635172Y1331196D02*
Y1321039D01*
X1745250Y1326118D02*
X1735093D01*
X1740172Y1331196D02*
Y1321039D01*
X1850250Y1326118D02*
X1840093D01*
X1845172Y1331196D02*
Y1321039D01*
X1955250Y1326118D02*
X1945093D01*
X1950172Y1331196D02*
Y1321039D01*
X70000Y1381000D02*
Y1388000D01*
X54000Y1397000D02*
X61000D01*
X79000D02*
X86000D01*
X70000Y1406000D02*
Y1413000D01*
X1964000Y1512000D02*
X1971000D01*
X1980000Y1521000D02*
Y1528000D01*
X1989000Y1512000D02*
X1996000D01*
X1980000Y1496000D02*
Y1503000D01*
X116500Y1436500D02*
X146500D01*
X116500Y1470500D02*
X146500D01*
X326500Y1436500D02*
X356500D01*
X326500Y1470500D02*
X356500D01*
X431500D02*
X461500D01*
X431500Y1436500D02*
X461500D01*
X536500D02*
X566500D01*
X536500Y1470500D02*
X566500D01*
X641500Y1470500D02*
X671500D01*
X641500Y1436500D02*
X671500D01*
X746500Y1436500D02*
X776500D01*
X746500Y1470500D02*
X776500D01*
X851500Y1470500D02*
X881500D01*
X851500Y1436500D02*
X881500D01*
X956500Y1436500D02*
X986500D01*
X956500Y1470500D02*
X986500D01*
X1061500D02*
X1091500D01*
X1061500Y1436500D02*
X1091500D01*
X1166500D02*
X1196500D01*
X1166500Y1470500D02*
X1196500D01*
X1271500D02*
X1301500D01*
X1271500Y1436500D02*
X1301500D01*
X1376500D02*
X1406500D01*
X1376500Y1470500D02*
X1406500D01*
X1481500Y1470500D02*
X1511500D01*
X1481500Y1436500D02*
X1511500D01*
X1586500D02*
X1616500D01*
X1586500Y1470500D02*
X1616500D01*
X1691500Y1470500D02*
X1721500D01*
X1691500Y1436500D02*
X1721500D01*
X1796500Y1436500D02*
X1826500D01*
X1796500Y1470500D02*
X1826500D01*
X1901500Y1470500D02*
X1931500D01*
X1901500Y1436500D02*
X1931500D01*
X170250Y1479118D02*
X160093D01*
X165172Y1484196D02*
Y1474039D01*
X380250Y1479118D02*
X370093D01*
X375172Y1484196D02*
Y1474039D01*
X485250Y1479118D02*
X475093D01*
X480172Y1484196D02*
Y1474039D01*
X590250Y1479118D02*
X580093D01*
X585172Y1484196D02*
Y1474039D01*
X695250Y1479118D02*
X685093D01*
X690172Y1484196D02*
Y1474039D01*
X800250Y1479118D02*
X790093D01*
X795172Y1484196D02*
Y1474039D01*
X905250Y1479118D02*
X895093D01*
X900172Y1484196D02*
Y1474039D01*
X1010250Y1479118D02*
X1000093D01*
X1005172Y1484196D02*
Y1474039D01*
X1115250Y1479118D02*
X1105093D01*
X1110172Y1484196D02*
Y1474039D01*
X1220250Y1479118D02*
X1210093D01*
X1215172Y1484196D02*
Y1474039D01*
X1325250Y1479118D02*
X1315093D01*
X1320172Y1484196D02*
Y1474039D01*
X1430250Y1479118D02*
X1420093D01*
X1425172Y1484196D02*
Y1474039D01*
X1535250Y1479118D02*
X1525093D01*
X1530172Y1484196D02*
Y1474039D01*
X1640250Y1479118D02*
X1630093D01*
X1635172Y1484196D02*
Y1474039D01*
X1745250Y1479118D02*
X1735093D01*
X1740172Y1484196D02*
Y1474039D01*
X1850250Y1479118D02*
X1840093D01*
X1845172Y1484196D02*
Y1474039D01*
X1955250Y1479118D02*
X1945093D01*
X1950172Y1484196D02*
Y1474039D01*
X70000Y1534000D02*
Y1541000D01*
X54000Y1550000D02*
X61000D01*
X79000D02*
X86000D01*
X70000Y1559000D02*
Y1566000D01*
X1964000Y1665000D02*
X1971000D01*
X1980000Y1674000D02*
Y1681000D01*
X1989000Y1665000D02*
X1996000D01*
X1980000Y1649000D02*
Y1656000D01*
X116500Y1589500D02*
X146500D01*
X116500Y1623500D02*
X146500D01*
X326500Y1589500D02*
X356500D01*
X326500Y1623500D02*
X356500D01*
X431500D02*
X461500D01*
X431500Y1589500D02*
X461500D01*
X536500D02*
X566500D01*
X536500Y1623500D02*
X566500D01*
X641500Y1623500D02*
X671500D01*
X641500Y1589500D02*
X671500D01*
X746500Y1589500D02*
X776500D01*
X746500Y1623500D02*
X776500D01*
X851500Y1623500D02*
X881500D01*
X851500Y1589500D02*
X881500D01*
X956500Y1589500D02*
X986500D01*
X956500Y1623500D02*
X986500D01*
X1061500D02*
X1091500D01*
X1061500Y1589500D02*
X1091500D01*
X1166500D02*
X1196500D01*
X1166500Y1623500D02*
X1196500D01*
X1271500D02*
X1301500D01*
X1271500Y1589500D02*
X1301500D01*
X1376500D02*
X1406500D01*
X1376500Y1623500D02*
X1406500D01*
X1481500Y1623500D02*
X1511500D01*
X1481500Y1589500D02*
X1511500D01*
X1586500D02*
X1616500D01*
X1586500Y1623500D02*
X1616500D01*
X1691500Y1623500D02*
X1721500D01*
X1691500Y1589500D02*
X1721500D01*
X1796500Y1589500D02*
X1826500D01*
X1796500Y1623500D02*
X1826500D01*
X1901500Y1623500D02*
X1931500D01*
X1901500Y1589500D02*
X1931500D01*
X170250Y1632118D02*
X160093D01*
X165172Y1637196D02*
Y1627039D01*
X380250Y1632118D02*
X370093D01*
X375172Y1637196D02*
Y1627039D01*
X485250Y1632118D02*
X475093D01*
X480172Y1637196D02*
Y1627039D01*
X590250Y1632118D02*
X580093D01*
X585172Y1637196D02*
Y1627039D01*
X695250Y1632118D02*
X685093D01*
X690172Y1637196D02*
Y1627039D01*
X800250Y1632118D02*
X790093D01*
X795172Y1637196D02*
Y1627039D01*
X905250Y1632118D02*
X895093D01*
X900172Y1637196D02*
Y1627039D01*
X1010250Y1632118D02*
X1000093D01*
X1005172Y1637196D02*
Y1627039D01*
X1115250Y1632118D02*
X1105093D01*
X1110172Y1637196D02*
Y1627039D01*
X1220250Y1632118D02*
X1210093D01*
X1215172Y1637196D02*
Y1627039D01*
X1325250Y1632118D02*
X1315093D01*
X1320172Y1637196D02*
Y1627039D01*
X1430250Y1632118D02*
X1420093D01*
X1425172Y1637196D02*
Y1627039D01*
X1535250Y1632118D02*
X1525093D01*
X1530172Y1637196D02*
Y1627039D01*
X1640250Y1632118D02*
X1630093D01*
X1635172Y1637196D02*
Y1627039D01*
X1745250Y1632118D02*
X1735093D01*
X1740172Y1637196D02*
Y1627039D01*
X1850250Y1632118D02*
X1840093D01*
X1845172Y1637196D02*
Y1627039D01*
X1955250Y1632118D02*
X1945093D01*
X1950172Y1637196D02*
Y1627039D01*
X70000Y1687000D02*
Y1694000D01*
X54000Y1703000D02*
X61000D01*
X79000D02*
X86000D01*
X70000Y1712000D02*
Y1719000D01*
X1964000Y1818000D02*
X1971000D01*
X1980000Y1827000D02*
Y1834000D01*
X1989000Y1818000D02*
X1996000D01*
X1980000Y1802000D02*
Y1809000D01*
X116500Y1742500D02*
X146500D01*
X116500Y1776500D02*
X146500D01*
X326500Y1742500D02*
X356500D01*
X326500Y1776500D02*
X356500D01*
X431500D02*
X461500D01*
X431500Y1742500D02*
X461500D01*
X536500D02*
X566500D01*
X536500Y1776500D02*
X566500D01*
X641500Y1776500D02*
X671500D01*
X641500Y1742500D02*
X671500D01*
X746500Y1742500D02*
X776500D01*
X746500Y1776500D02*
X776500D01*
X851500Y1776500D02*
X881500D01*
X851500Y1742500D02*
X881500D01*
X956500Y1742500D02*
X986500D01*
X956500Y1776500D02*
X986500D01*
X1061500D02*
X1091500D01*
X1061500Y1742500D02*
X1091500D01*
X1166500D02*
X1196500D01*
X1166500Y1776500D02*
X1196500D01*
X1271500D02*
X1301500D01*
X1271500Y1742500D02*
X1301500D01*
X1376500D02*
X1406500D01*
X1376500Y1776500D02*
X1406500D01*
X1481500Y1776500D02*
X1511500D01*
X1481500Y1742500D02*
X1511500D01*
X1586500D02*
X1616500D01*
X1586500Y1776500D02*
X1616500D01*
X1691500Y1776500D02*
X1721500D01*
X1691500Y1742500D02*
X1721500D01*
X1796500Y1742500D02*
X1826500D01*
X1796500Y1776500D02*
X1826500D01*
X1901500Y1776500D02*
X1931500D01*
X1901500Y1742500D02*
X1931500D01*
X170250Y1785118D02*
X160093D01*
X165172Y1790196D02*
Y1780040D01*
X380250Y1785118D02*
X370093D01*
X375172Y1790196D02*
Y1780040D01*
X485250Y1785118D02*
X475093D01*
X480172Y1790196D02*
Y1780040D01*
X590250Y1785118D02*
X580093D01*
X585172Y1790196D02*
Y1780040D01*
X695250Y1785118D02*
X685093D01*
X690172Y1790196D02*
Y1780039D01*
X800250Y1785118D02*
X790093D01*
X795172Y1790196D02*
Y1780040D01*
X905250Y1785118D02*
X895093D01*
X900172Y1790196D02*
Y1780039D01*
X1010250Y1785118D02*
X1000093D01*
X1005172Y1790196D02*
Y1780040D01*
X1115250Y1785118D02*
X1105093D01*
X1110172Y1790196D02*
Y1780040D01*
X1220250Y1785118D02*
X1210093D01*
X1215172Y1790196D02*
Y1780040D01*
X1325250Y1785118D02*
X1315093D01*
X1320172Y1790196D02*
Y1780040D01*
X1430250Y1785118D02*
X1420093D01*
X1425172Y1790196D02*
Y1780040D01*
X1535250Y1785118D02*
X1525093D01*
X1530172Y1790196D02*
Y1780039D01*
X1640250Y1785118D02*
X1630093D01*
X1635172Y1790196D02*
Y1780039D01*
X1745250Y1785118D02*
X1735093D01*
X1740172Y1790196D02*
Y1780040D01*
X1850250Y1785118D02*
X1840093D01*
X1845172Y1790196D02*
Y1780039D01*
X1955250Y1785118D02*
X1945093D01*
X1950172Y1790196D02*
Y1780040D01*
X70000Y1840000D02*
Y1847000D01*
X54000Y1856000D02*
X61000D01*
X79000D02*
X86000D01*
X70000Y1865000D02*
Y1872000D01*
X1964000Y1971000D02*
X1971000D01*
X1980000Y1980000D02*
Y1987000D01*
X1989000Y1971000D02*
X1996000D01*
X1980000Y1955000D02*
Y1962000D01*
X116500Y1895500D02*
X146500D01*
X116500Y1929500D02*
X146500D01*
X326500Y1895500D02*
X356500D01*
X326500Y1929500D02*
X356500D01*
X431500D02*
X461500D01*
X431500Y1895500D02*
X461500D01*
X536500D02*
X566500D01*
X536500Y1929500D02*
X566500D01*
X641500Y1929500D02*
X671500D01*
X641500Y1895500D02*
X671500D01*
X746500Y1895500D02*
X776500D01*
X746500Y1929500D02*
X776500D01*
X851500Y1929500D02*
X881500D01*
X851500Y1895500D02*
X881500D01*
X956500Y1895500D02*
X986500D01*
X956500Y1929500D02*
X986500D01*
X1061500D02*
X1091500D01*
X1061500Y1895500D02*
X1091500D01*
X1166500D02*
X1196500D01*
X1166500Y1929500D02*
X1196500D01*
X1271500D02*
X1301500D01*
X1271500Y1895500D02*
X1301500D01*
X1376500D02*
X1406500D01*
X1376500Y1929500D02*
X1406500D01*
X1481500Y1929500D02*
X1511500D01*
X1481500Y1895500D02*
X1511500D01*
X1586500D02*
X1616500D01*
X1586500Y1929500D02*
X1616500D01*
X1691500Y1929500D02*
X1721500D01*
X1691500Y1895500D02*
X1721500D01*
X1796500Y1895500D02*
X1826500D01*
X1796500Y1929500D02*
X1826500D01*
X1901500Y1929500D02*
X1931500D01*
X1901500Y1895500D02*
X1931500D01*
X170250Y1938118D02*
X160093D01*
X165172Y1943196D02*
Y1933040D01*
X380250Y1938118D02*
X370093D01*
X375172Y1943196D02*
Y1933040D01*
X485250Y1938118D02*
X475093D01*
X480172Y1943196D02*
Y1933040D01*
X590250Y1938118D02*
X580093D01*
X585172Y1943196D02*
Y1933040D01*
X695250Y1938118D02*
X685093D01*
X690172Y1943196D02*
Y1933040D01*
X800250Y1938118D02*
X790093D01*
X795172Y1943196D02*
Y1933040D01*
X905250Y1938118D02*
X895093D01*
X900172Y1943196D02*
Y1933040D01*
X1010250Y1938118D02*
X1000093D01*
X1005172Y1943196D02*
Y1933040D01*
X1115250Y1938118D02*
X1105093D01*
X1110172Y1943196D02*
Y1933040D01*
X1220250Y1938118D02*
X1210093D01*
X1215172Y1943196D02*
Y1933040D01*
X1325250Y1938118D02*
X1315093D01*
X1320172Y1943196D02*
Y1933040D01*
X1430250Y1938118D02*
X1420093D01*
X1425172Y1943196D02*
Y1933040D01*
X1535250Y1938118D02*
X1525093D01*
X1530172Y1943196D02*
Y1933040D01*
X1640250Y1938118D02*
X1630093D01*
X1635172Y1943196D02*
Y1933040D01*
X1745250Y1938118D02*
X1735093D01*
X1740172Y1943196D02*
Y1933040D01*
X1850250Y1938118D02*
X1840093D01*
X1845172Y1943196D02*
Y1933040D01*
X1955250Y1938118D02*
X1945093D01*
X1950172Y1943196D02*
Y1933040D01*
X70000Y1993000D02*
Y2000000D01*
X54000Y2009000D02*
X61000D01*
X79000D02*
X86000D01*
X70000Y2018000D02*
Y2025000D01*
X1964000Y2124000D02*
X1971000D01*
X1980000Y2133000D02*
Y2140000D01*
X1989000Y2124000D02*
X1996000D01*
X1980000Y2108000D02*
Y2115000D01*
X116500Y2048500D02*
X146500D01*
X116500Y2082500D02*
X146500D01*
X326500Y2048500D02*
X356500D01*
X326500Y2082500D02*
X356500D01*
X431500D02*
X461500D01*
X431500Y2048500D02*
X461500D01*
X536500D02*
X566500D01*
X536500Y2082500D02*
X566500D01*
X641500Y2082500D02*
X671500D01*
X641500Y2048500D02*
X671500D01*
X746500Y2048500D02*
X776500D01*
X746500Y2082500D02*
X776500D01*
X851500Y2082500D02*
X881500D01*
X851500Y2048500D02*
X881500D01*
X956500Y2048500D02*
X986500D01*
X956500Y2082500D02*
X986500D01*
X1061500D02*
X1091500D01*
X1061500Y2048500D02*
X1091500D01*
X1166500D02*
X1196500D01*
X1166500Y2082500D02*
X1196500D01*
X1271500D02*
X1301500D01*
X1271500Y2048500D02*
X1301500D01*
X1376500D02*
X1406500D01*
X1376500Y2082500D02*
X1406500D01*
X1481500Y2082500D02*
X1511500D01*
X1481500Y2048500D02*
X1511500D01*
X1586500D02*
X1616500D01*
X1586500Y2082500D02*
X1616500D01*
X1691500Y2082500D02*
X1721500D01*
X1691500Y2048500D02*
X1721500D01*
X1796500Y2048500D02*
X1826500D01*
X1796500Y2082500D02*
X1826500D01*
X1901500Y2082500D02*
X1931500D01*
X1901500Y2048500D02*
X1931500D01*
X170250Y2091118D02*
X160093D01*
X165172Y2096196D02*
Y2086039D01*
X380250Y2091118D02*
X370093D01*
X375172Y2096196D02*
Y2086039D01*
X485250Y2091118D02*
X475093D01*
X480172Y2096196D02*
Y2086039D01*
X590250Y2091118D02*
X580093D01*
X585172Y2096196D02*
Y2086039D01*
X695250Y2091118D02*
X685093D01*
X690172Y2096196D02*
Y2086039D01*
X800250Y2091118D02*
X790093D01*
X795172Y2096196D02*
Y2086039D01*
X905250Y2091118D02*
X895093D01*
X900172Y2096196D02*
Y2086039D01*
X1010250Y2091118D02*
X1000093D01*
X1005172Y2096196D02*
Y2086039D01*
X1115250Y2091118D02*
X1105093D01*
X1110172Y2096196D02*
Y2086039D01*
X1220250Y2091118D02*
X1210093D01*
X1215172Y2096196D02*
Y2086039D01*
X1325250Y2091118D02*
X1315093D01*
X1320172Y2096196D02*
Y2086039D01*
X1430250Y2091118D02*
X1420093D01*
X1425172Y2096196D02*
Y2086039D01*
X1535250Y2091118D02*
X1525093D01*
X1530172Y2096196D02*
Y2086039D01*
X1640250Y2091118D02*
X1630093D01*
X1635172Y2096196D02*
Y2086039D01*
X1745250Y2091118D02*
X1735093D01*
X1740172Y2096196D02*
Y2086039D01*
X1850250Y2091118D02*
X1840093D01*
X1845172Y2096196D02*
Y2086039D01*
X1955250Y2091118D02*
X1945093D01*
X1950172Y2096196D02*
Y2086039D01*
D31*
X1903250Y36495D02*
Y41827D01*
X1905916Y44492D01*
X1908582Y41827D01*
Y36495D01*
X1911248D02*
Y44492D01*
X1915246D01*
X1916579Y43159D01*
Y37828D01*
X1915246Y36495D01*
X1911248D01*
X1924577Y44492D02*
X1919245D01*
X1924577Y39161D01*
Y37828D01*
X1923244Y36495D01*
X1920578D01*
X1919245Y37828D01*
X1927242Y44492D02*
X1929908D01*
X1928575D01*
Y36495D01*
X1927242Y37828D01*
X1798500Y36495D02*
Y41827D01*
X1801166Y44492D01*
X1803832Y41827D01*
Y36495D01*
X1806497D02*
Y44492D01*
X1810496D01*
X1811829Y43159D01*
Y37828D01*
X1810496Y36495D01*
X1806497D01*
X1819826Y44492D02*
X1814495D01*
X1819826Y39161D01*
Y37828D01*
X1818493Y36495D01*
X1815828D01*
X1814495Y37828D01*
X1822492D02*
X1823825Y36495D01*
X1826491D01*
X1827824Y37828D01*
Y43159D01*
X1826491Y44492D01*
X1823825D01*
X1822492Y43159D01*
Y37828D01*
X1694500Y36495D02*
Y41827D01*
X1697166Y44492D01*
X1699832Y41827D01*
Y36495D01*
X1702497D02*
Y44492D01*
X1706496D01*
X1707829Y43159D01*
Y37828D01*
X1706496Y36495D01*
X1702497D01*
X1710495Y44492D02*
X1713161D01*
X1711828D01*
Y36495D01*
X1710495Y37828D01*
X1717159Y43159D02*
X1718492Y44492D01*
X1721158D01*
X1722491Y43159D01*
Y37828D01*
X1721158Y36495D01*
X1718492D01*
X1717159Y37828D01*
Y39161D01*
X1718492Y40494D01*
X1722491D01*
X1589250Y36495D02*
Y41827D01*
X1591916Y44492D01*
X1594582Y41827D01*
Y36495D01*
X1597247D02*
Y44492D01*
X1601246D01*
X1602579Y43159D01*
Y37828D01*
X1601246Y36495D01*
X1597247D01*
X1605245Y44492D02*
X1607911D01*
X1606578D01*
Y36495D01*
X1605245Y37828D01*
X1611909D02*
X1613242Y36495D01*
X1615908D01*
X1617241Y37828D01*
Y39161D01*
X1615908Y40494D01*
X1617241Y41827D01*
Y43159D01*
X1615908Y44492D01*
X1613242D01*
X1611909Y43159D01*
Y41827D01*
X1613242Y40494D01*
X1611909Y39161D01*
Y37828D01*
X1613242Y40494D02*
X1615908D01*
X1485250Y36495D02*
Y41827D01*
X1487916Y44492D01*
X1490582Y41827D01*
Y36495D01*
X1493247D02*
Y44492D01*
X1497246D01*
X1498579Y43159D01*
Y37828D01*
X1497246Y36495D01*
X1493247D01*
X1501245Y44492D02*
X1503911D01*
X1502578D01*
Y36495D01*
X1501245Y37828D01*
X1507909Y36495D02*
X1513241D01*
Y37828D01*
X1507909Y43159D01*
Y44492D01*
X1377500Y36495D02*
Y41827D01*
X1380166Y44492D01*
X1382832Y41827D01*
Y36495D01*
X1385497D02*
Y44492D01*
X1389496D01*
X1390829Y43159D01*
Y37828D01*
X1389496Y36495D01*
X1385497D01*
X1393495Y44492D02*
X1396161D01*
X1394828D01*
Y36495D01*
X1393495Y37828D01*
X1405491Y36495D02*
X1402825Y37828D01*
X1400159Y40494D01*
Y43159D01*
X1401492Y44492D01*
X1404158D01*
X1405491Y43159D01*
Y41827D01*
X1404158Y40494D01*
X1400159D01*
X1272000Y36495D02*
Y41827D01*
X1274666Y44492D01*
X1277332Y41827D01*
Y36495D01*
X1279997D02*
Y44492D01*
X1283996D01*
X1285329Y43159D01*
Y37828D01*
X1283996Y36495D01*
X1279997D01*
X1287995Y44492D02*
X1290661D01*
X1289328D01*
Y36495D01*
X1287995Y37828D01*
X1294659D02*
X1295992Y36495D01*
X1298658D01*
X1299991Y37828D01*
Y39161D01*
X1298658Y40494D01*
X1297325D01*
X1298658D01*
X1299991Y41827D01*
Y43159D01*
X1298658Y44492D01*
X1295992D01*
X1294659Y43159D01*
X1167500Y36495D02*
Y41827D01*
X1170166Y44492D01*
X1172832Y41827D01*
Y36495D01*
X1175497D02*
Y44492D01*
X1179496D01*
X1180829Y43159D01*
Y37828D01*
X1179496Y36495D01*
X1175497D01*
X1183495Y44492D02*
X1186161D01*
X1184828D01*
Y36495D01*
X1183495Y37828D01*
X1195491Y44492D02*
X1190159D01*
X1195491Y39161D01*
Y37828D01*
X1194158Y36495D01*
X1191492D01*
X1190159Y37828D01*
X1063750Y36495D02*
Y41827D01*
X1066416Y44492D01*
X1069082Y41827D01*
Y36495D01*
X1071748D02*
Y44492D01*
X1075746D01*
X1077079Y43159D01*
Y37828D01*
X1075746Y36495D01*
X1071748D01*
X1079745Y44492D02*
X1082411D01*
X1081078D01*
Y36495D01*
X1079745Y37828D01*
X1086409Y44492D02*
X1089075D01*
X1087742D01*
Y36495D01*
X1086409Y37828D01*
X955750Y36495D02*
Y41827D01*
X958416Y44492D01*
X961082Y41827D01*
Y36495D01*
X963747D02*
Y44492D01*
X967746D01*
X969079Y43159D01*
Y37828D01*
X967746Y36495D01*
X963747D01*
X971745Y44492D02*
X974411D01*
X973078D01*
Y36495D01*
X971745Y37828D01*
X978409D02*
X979742Y36495D01*
X982408D01*
X983741Y37828D01*
Y43159D01*
X982408Y44492D01*
X979742D01*
X978409Y43159D01*
Y37828D01*
X853750Y36495D02*
Y41827D01*
X856416Y44492D01*
X859082Y41827D01*
Y36495D01*
X861747D02*
Y44492D01*
X865746D01*
X867079Y43159D01*
Y37828D01*
X865746Y36495D01*
X861747D01*
X869745Y43159D02*
X871078Y44492D01*
X873744D01*
X875077Y43159D01*
Y37828D01*
X873744Y36495D01*
X871078D01*
X869745Y37828D01*
Y39161D01*
X871078Y40494D01*
X875077D01*
X746000Y36495D02*
Y41827D01*
X748666Y44492D01*
X751332Y41827D01*
Y36495D01*
X753997D02*
Y44492D01*
X757996D01*
X759329Y43159D01*
Y37828D01*
X757996Y36495D01*
X753997D01*
X761995Y37828D02*
X763328Y36495D01*
X765994D01*
X767327Y37828D01*
Y39161D01*
X765994Y40494D01*
X767327Y41827D01*
Y43159D01*
X765994Y44492D01*
X763328D01*
X761995Y43159D01*
Y41827D01*
X763328Y40494D01*
X761995Y39161D01*
Y37828D01*
X763328Y40494D02*
X765994D01*
X642750Y36495D02*
Y41827D01*
X645416Y44492D01*
X648082Y41827D01*
Y36495D01*
X650747D02*
Y44492D01*
X654746D01*
X656079Y43159D01*
Y37828D01*
X654746Y36495D01*
X650747D01*
X664076D02*
X661411Y37828D01*
X658745Y40494D01*
Y43159D01*
X660078Y44492D01*
X662744D01*
X664076Y43159D01*
Y41827D01*
X662744Y40494D01*
X658745D01*
X542250Y36495D02*
Y41827D01*
X544916Y44492D01*
X547582Y41827D01*
Y36495D01*
X550247D02*
Y44492D01*
X554246D01*
X555579Y43159D01*
Y37828D01*
X554246Y36495D01*
X550247D01*
X563576D02*
X558245D01*
Y40494D01*
X560911Y39161D01*
X562243D01*
X563576Y40494D01*
Y43159D01*
X562243Y44492D01*
X559578D01*
X558245Y43159D01*
X435750Y36495D02*
Y41827D01*
X438416Y44492D01*
X441082Y41827D01*
Y36495D01*
X443747D02*
Y44492D01*
X447746D01*
X449079Y43159D01*
Y37828D01*
X447746Y36495D01*
X443747D01*
X455744Y44492D02*
Y36495D01*
X451745Y40494D01*
X457076D01*
X331250Y36495D02*
Y41827D01*
X333916Y44492D01*
X336582Y41827D01*
Y36495D01*
X339248D02*
Y44492D01*
X343246D01*
X344579Y43159D01*
Y37828D01*
X343246Y36495D01*
X339248D01*
X347245Y37828D02*
X348578Y36495D01*
X351244D01*
X352576Y37828D01*
Y39161D01*
X351244Y40494D01*
X349911D01*
X351244D01*
X352576Y41827D01*
Y43159D01*
X351244Y44492D01*
X348578D01*
X347245Y43159D01*
X123000Y36495D02*
Y41827D01*
X125666Y44492D01*
X128332Y41827D01*
Y36495D01*
X130997D02*
Y44492D01*
X134996D01*
X136329Y43159D01*
Y37828D01*
X134996Y36495D01*
X130997D01*
X138995Y44492D02*
X141661D01*
X140328D01*
Y36495D01*
X138995Y37828D01*
X1903250Y189495D02*
Y194827D01*
X1905916Y197493D01*
X1908582Y194827D01*
Y189495D01*
X1911248D02*
Y197493D01*
X1915246D01*
X1916579Y196160D01*
Y190828D01*
X1915246Y189495D01*
X1911248D01*
X1924577Y197493D02*
X1919245D01*
X1924577Y192161D01*
Y190828D01*
X1923244Y189495D01*
X1920578D01*
X1919245Y190828D01*
X1927242Y197493D02*
X1929908D01*
X1928575D01*
Y189495D01*
X1927242Y190828D01*
X1798500Y189495D02*
Y194827D01*
X1801166Y197492D01*
X1803832Y194827D01*
Y189495D01*
X1806497D02*
Y197492D01*
X1810496D01*
X1811829Y196159D01*
Y190828D01*
X1810496Y189495D01*
X1806497D01*
X1819826Y197492D02*
X1814495D01*
X1819826Y192161D01*
Y190828D01*
X1818493Y189495D01*
X1815828D01*
X1814495Y190828D01*
X1822492D02*
X1823825Y189495D01*
X1826491D01*
X1827824Y190828D01*
Y196159D01*
X1826491Y197492D01*
X1823825D01*
X1822492Y196159D01*
Y190828D01*
X1694500Y189495D02*
Y194827D01*
X1697166Y197493D01*
X1699832Y194827D01*
Y189495D01*
X1702497D02*
Y197493D01*
X1706496D01*
X1707829Y196160D01*
Y190828D01*
X1706496Y189495D01*
X1702497D01*
X1710495Y197493D02*
X1713161D01*
X1711828D01*
Y189495D01*
X1710495Y190828D01*
X1717159Y196160D02*
X1718492Y197493D01*
X1721158D01*
X1722491Y196160D01*
Y190828D01*
X1721158Y189495D01*
X1718492D01*
X1717159Y190828D01*
Y192161D01*
X1718492Y193494D01*
X1722491D01*
X1589250Y189495D02*
Y194827D01*
X1591916Y197492D01*
X1594582Y194827D01*
Y189495D01*
X1597247D02*
Y197492D01*
X1601246D01*
X1602579Y196159D01*
Y190828D01*
X1601246Y189495D01*
X1597247D01*
X1605245Y197492D02*
X1607911D01*
X1606578D01*
Y189495D01*
X1605245Y190828D01*
X1611909D02*
X1613242Y189495D01*
X1615908D01*
X1617241Y190828D01*
Y192161D01*
X1615908Y193494D01*
X1617241Y194827D01*
Y196159D01*
X1615908Y197492D01*
X1613242D01*
X1611909Y196159D01*
Y194827D01*
X1613242Y193494D01*
X1611909Y192161D01*
Y190828D01*
X1613242Y193494D02*
X1615908D01*
X1485250Y189495D02*
Y194827D01*
X1487916Y197492D01*
X1490582Y194827D01*
Y189495D01*
X1493247D02*
Y197492D01*
X1497246D01*
X1498579Y196159D01*
Y190828D01*
X1497246Y189495D01*
X1493247D01*
X1501245Y197492D02*
X1503911D01*
X1502578D01*
Y189495D01*
X1501245Y190828D01*
X1507909Y189495D02*
X1513241D01*
Y190828D01*
X1507909Y196159D01*
Y197492D01*
X1377500Y189495D02*
Y194827D01*
X1380166Y197493D01*
X1382832Y194827D01*
Y189495D01*
X1385497D02*
Y197493D01*
X1389496D01*
X1390829Y196160D01*
Y190828D01*
X1389496Y189495D01*
X1385497D01*
X1393495Y197493D02*
X1396161D01*
X1394828D01*
Y189495D01*
X1393495Y190828D01*
X1405491Y189495D02*
X1402825Y190828D01*
X1400159Y193494D01*
Y196160D01*
X1401492Y197493D01*
X1404158D01*
X1405491Y196160D01*
Y194827D01*
X1404158Y193494D01*
X1400159D01*
X1272000Y189495D02*
Y194827D01*
X1274666Y197493D01*
X1277332Y194827D01*
Y189495D01*
X1279997D02*
Y197493D01*
X1283996D01*
X1285329Y196160D01*
Y190828D01*
X1283996Y189495D01*
X1279997D01*
X1287995Y197493D02*
X1290661D01*
X1289328D01*
Y189495D01*
X1287995Y190828D01*
X1294659D02*
X1295992Y189495D01*
X1298658D01*
X1299991Y190828D01*
Y192161D01*
X1298658Y193494D01*
X1297325D01*
X1298658D01*
X1299991Y194827D01*
Y196160D01*
X1298658Y197493D01*
X1295992D01*
X1294659Y196160D01*
X1167500Y189495D02*
Y194827D01*
X1170166Y197493D01*
X1172832Y194827D01*
Y189495D01*
X1175497D02*
Y197493D01*
X1179496D01*
X1180829Y196160D01*
Y190828D01*
X1179496Y189495D01*
X1175497D01*
X1183495Y197493D02*
X1186161D01*
X1184828D01*
Y189495D01*
X1183495Y190828D01*
X1195491Y197493D02*
X1190159D01*
X1195491Y192161D01*
Y190828D01*
X1194158Y189495D01*
X1191492D01*
X1190159Y190828D01*
X1063750Y189495D02*
Y194827D01*
X1066416Y197493D01*
X1069082Y194827D01*
Y189495D01*
X1071748D02*
Y197493D01*
X1075746D01*
X1077079Y196160D01*
Y190828D01*
X1075746Y189495D01*
X1071748D01*
X1079745Y197493D02*
X1082411D01*
X1081078D01*
Y189495D01*
X1079745Y190828D01*
X1086409Y197493D02*
X1089075D01*
X1087742D01*
Y189495D01*
X1086409Y190828D01*
X955750Y189495D02*
Y194827D01*
X958416Y197492D01*
X961082Y194827D01*
Y189495D01*
X963747D02*
Y197492D01*
X967746D01*
X969079Y196159D01*
Y190828D01*
X967746Y189495D01*
X963747D01*
X971745Y197492D02*
X974411D01*
X973078D01*
Y189495D01*
X971745Y190828D01*
X978409D02*
X979742Y189495D01*
X982408D01*
X983741Y190828D01*
Y196159D01*
X982408Y197492D01*
X979742D01*
X978409Y196159D01*
Y190828D01*
X853750Y189495D02*
Y194827D01*
X856416Y197492D01*
X859082Y194827D01*
Y189495D01*
X861747D02*
Y197492D01*
X865746D01*
X867079Y196159D01*
Y190828D01*
X865746Y189495D01*
X861747D01*
X869745Y196159D02*
X871078Y197492D01*
X873744D01*
X875077Y196159D01*
Y190828D01*
X873744Y189495D01*
X871078D01*
X869745Y190828D01*
Y192161D01*
X871078Y193494D01*
X875077D01*
X746000Y189495D02*
Y194827D01*
X748666Y197493D01*
X751332Y194827D01*
Y189495D01*
X753997D02*
Y197493D01*
X757996D01*
X759329Y196160D01*
Y190828D01*
X757996Y189495D01*
X753997D01*
X761995Y190828D02*
X763328Y189495D01*
X765994D01*
X767327Y190828D01*
Y192161D01*
X765994Y193494D01*
X767327Y194827D01*
Y196160D01*
X765994Y197493D01*
X763328D01*
X761995Y196160D01*
Y194827D01*
X763328Y193494D01*
X761995Y192161D01*
Y190828D01*
X763328Y193494D02*
X765994D01*
X642750Y189495D02*
Y194827D01*
X645416Y197492D01*
X648082Y194827D01*
Y189495D01*
X650747D02*
Y197492D01*
X654746D01*
X656079Y196159D01*
Y190828D01*
X654746Y189495D01*
X650747D01*
X664076D02*
X661411Y190828D01*
X658745Y193494D01*
Y196159D01*
X660078Y197492D01*
X662744D01*
X664076Y196159D01*
Y194827D01*
X662744Y193494D01*
X658745D01*
X542250Y189495D02*
Y194827D01*
X544916Y197492D01*
X547582Y194827D01*
Y189495D01*
X550247D02*
Y197492D01*
X554246D01*
X555579Y196159D01*
Y190828D01*
X554246Y189495D01*
X550247D01*
X563576D02*
X558245D01*
Y193494D01*
X560911Y192161D01*
X562243D01*
X563576Y193494D01*
Y196159D01*
X562243Y197492D01*
X559578D01*
X558245Y196159D01*
X435750Y189495D02*
Y194827D01*
X438416Y197493D01*
X441082Y194827D01*
Y189495D01*
X443747D02*
Y197493D01*
X447746D01*
X449079Y196160D01*
Y190828D01*
X447746Y189495D01*
X443747D01*
X455744Y197493D02*
Y189495D01*
X451745Y193494D01*
X457076D01*
X331250Y189495D02*
Y194827D01*
X333916Y197492D01*
X336582Y194827D01*
Y189495D01*
X339248D02*
Y197492D01*
X343246D01*
X344579Y196159D01*
Y190828D01*
X343246Y189495D01*
X339248D01*
X347245Y190828D02*
X348578Y189495D01*
X351244D01*
X352576Y190828D01*
Y192161D01*
X351244Y193494D01*
X349911D01*
X351244D01*
X352576Y194827D01*
Y196159D01*
X351244Y197492D01*
X348578D01*
X347245Y196159D01*
X123000Y189495D02*
Y194827D01*
X125666Y197493D01*
X128332Y194827D01*
Y189495D01*
X130997D02*
Y197493D01*
X134996D01*
X136329Y196160D01*
Y190828D01*
X134996Y189495D01*
X130997D01*
X138995Y197493D02*
X141661D01*
X140328D01*
Y189495D01*
X138995Y190828D01*
X1903250Y342495D02*
Y347827D01*
X1905916Y350493D01*
X1908582Y347827D01*
Y342495D01*
X1911248D02*
Y350493D01*
X1915246D01*
X1916579Y349160D01*
Y343828D01*
X1915246Y342495D01*
X1911248D01*
X1924577Y350493D02*
X1919245D01*
X1924577Y345161D01*
Y343828D01*
X1923244Y342495D01*
X1920578D01*
X1919245Y343828D01*
X1927242Y350493D02*
X1929908D01*
X1928575D01*
Y342495D01*
X1927242Y343828D01*
X1798500Y342495D02*
Y347827D01*
X1801166Y350492D01*
X1803832Y347827D01*
Y342495D01*
X1806497D02*
Y350492D01*
X1810496D01*
X1811829Y349160D01*
Y343828D01*
X1810496Y342495D01*
X1806497D01*
X1819826Y350492D02*
X1814495D01*
X1819826Y345161D01*
Y343828D01*
X1818493Y342495D01*
X1815828D01*
X1814495Y343828D01*
X1822492D02*
X1823825Y342495D01*
X1826491D01*
X1827824Y343828D01*
Y349160D01*
X1826491Y350492D01*
X1823825D01*
X1822492Y349160D01*
Y343828D01*
X1694500Y342495D02*
Y347827D01*
X1697166Y350493D01*
X1699832Y347827D01*
Y342495D01*
X1702497D02*
Y350493D01*
X1706496D01*
X1707829Y349160D01*
Y343828D01*
X1706496Y342495D01*
X1702497D01*
X1710495Y350493D02*
X1713161D01*
X1711828D01*
Y342495D01*
X1710495Y343828D01*
X1717159Y349160D02*
X1718492Y350493D01*
X1721158D01*
X1722491Y349160D01*
Y343828D01*
X1721158Y342495D01*
X1718492D01*
X1717159Y343828D01*
Y345161D01*
X1718492Y346494D01*
X1722491D01*
X1589250Y342495D02*
Y347827D01*
X1591916Y350492D01*
X1594582Y347827D01*
Y342495D01*
X1597247D02*
Y350492D01*
X1601246D01*
X1602579Y349160D01*
Y343828D01*
X1601246Y342495D01*
X1597247D01*
X1605245Y350492D02*
X1607911D01*
X1606578D01*
Y342495D01*
X1605245Y343828D01*
X1611909D02*
X1613242Y342495D01*
X1615908D01*
X1617241Y343828D01*
Y345161D01*
X1615908Y346494D01*
X1617241Y347827D01*
Y349160D01*
X1615908Y350492D01*
X1613242D01*
X1611909Y349160D01*
Y347827D01*
X1613242Y346494D01*
X1611909Y345161D01*
Y343828D01*
X1613242Y346494D02*
X1615908D01*
X1485250Y342495D02*
Y347827D01*
X1487916Y350492D01*
X1490582Y347827D01*
Y342495D01*
X1493247D02*
Y350492D01*
X1497246D01*
X1498579Y349160D01*
Y343828D01*
X1497246Y342495D01*
X1493247D01*
X1501245Y350492D02*
X1503911D01*
X1502578D01*
Y342495D01*
X1501245Y343828D01*
X1507909Y342495D02*
X1513241D01*
Y343828D01*
X1507909Y349160D01*
Y350492D01*
X1377500Y342495D02*
Y347827D01*
X1380166Y350493D01*
X1382832Y347827D01*
Y342495D01*
X1385497D02*
Y350493D01*
X1389496D01*
X1390829Y349160D01*
Y343828D01*
X1389496Y342495D01*
X1385497D01*
X1393495Y350493D02*
X1396161D01*
X1394828D01*
Y342495D01*
X1393495Y343828D01*
X1405491Y342495D02*
X1402825Y343828D01*
X1400159Y346494D01*
Y349160D01*
X1401492Y350493D01*
X1404158D01*
X1405491Y349160D01*
Y347827D01*
X1404158Y346494D01*
X1400159D01*
X1272000Y342495D02*
Y347827D01*
X1274666Y350493D01*
X1277332Y347827D01*
Y342495D01*
X1279997D02*
Y350493D01*
X1283996D01*
X1285329Y349160D01*
Y343828D01*
X1283996Y342495D01*
X1279997D01*
X1287995Y350493D02*
X1290661D01*
X1289328D01*
Y342495D01*
X1287995Y343828D01*
X1294659D02*
X1295992Y342495D01*
X1298658D01*
X1299991Y343828D01*
Y345161D01*
X1298658Y346494D01*
X1297325D01*
X1298658D01*
X1299991Y347827D01*
Y349160D01*
X1298658Y350493D01*
X1295992D01*
X1294659Y349160D01*
X1167500Y342495D02*
Y347827D01*
X1170166Y350493D01*
X1172832Y347827D01*
Y342495D01*
X1175497D02*
Y350493D01*
X1179496D01*
X1180829Y349160D01*
Y343828D01*
X1179496Y342495D01*
X1175497D01*
X1183495Y350493D02*
X1186161D01*
X1184828D01*
Y342495D01*
X1183495Y343828D01*
X1195491Y350493D02*
X1190159D01*
X1195491Y345161D01*
Y343828D01*
X1194158Y342495D01*
X1191492D01*
X1190159Y343828D01*
X1063750Y342495D02*
Y347827D01*
X1066416Y350493D01*
X1069082Y347827D01*
Y342495D01*
X1071748D02*
Y350493D01*
X1075746D01*
X1077079Y349160D01*
Y343828D01*
X1075746Y342495D01*
X1071748D01*
X1079745Y350493D02*
X1082411D01*
X1081078D01*
Y342495D01*
X1079745Y343828D01*
X1086409Y350493D02*
X1089075D01*
X1087742D01*
Y342495D01*
X1086409Y343828D01*
X955750Y342495D02*
Y347827D01*
X958416Y350493D01*
X961082Y347827D01*
Y342495D01*
X963747D02*
Y350493D01*
X967746D01*
X969079Y349160D01*
Y343828D01*
X967746Y342495D01*
X963747D01*
X971745Y350493D02*
X974411D01*
X973078D01*
Y342495D01*
X971745Y343828D01*
X978409D02*
X979742Y342495D01*
X982408D01*
X983741Y343828D01*
Y349160D01*
X982408Y350493D01*
X979742D01*
X978409Y349160D01*
Y343828D01*
X853750Y342495D02*
Y347827D01*
X856416Y350492D01*
X859082Y347827D01*
Y342495D01*
X861747D02*
Y350492D01*
X865746D01*
X867079Y349160D01*
Y343828D01*
X865746Y342495D01*
X861747D01*
X869745Y349160D02*
X871078Y350492D01*
X873744D01*
X875077Y349160D01*
Y343828D01*
X873744Y342495D01*
X871078D01*
X869745Y343828D01*
Y345161D01*
X871078Y346494D01*
X875077D01*
X746000Y342495D02*
Y347827D01*
X748666Y350493D01*
X751332Y347827D01*
Y342495D01*
X753997D02*
Y350493D01*
X757996D01*
X759329Y349160D01*
Y343828D01*
X757996Y342495D01*
X753997D01*
X761995Y343828D02*
X763328Y342495D01*
X765994D01*
X767327Y343828D01*
Y345161D01*
X765994Y346494D01*
X767327Y347827D01*
Y349160D01*
X765994Y350493D01*
X763328D01*
X761995Y349160D01*
Y347827D01*
X763328Y346494D01*
X761995Y345161D01*
Y343828D01*
X763328Y346494D02*
X765994D01*
X642750Y342495D02*
Y347827D01*
X645416Y350492D01*
X648082Y347827D01*
Y342495D01*
X650747D02*
Y350492D01*
X654746D01*
X656079Y349160D01*
Y343828D01*
X654746Y342495D01*
X650747D01*
X664076D02*
X661411Y343828D01*
X658745Y346494D01*
Y349160D01*
X660078Y350492D01*
X662744D01*
X664076Y349160D01*
Y347827D01*
X662744Y346494D01*
X658745D01*
X542250Y342495D02*
Y347827D01*
X544916Y350493D01*
X547582Y347827D01*
Y342495D01*
X550247D02*
Y350493D01*
X554246D01*
X555579Y349160D01*
Y343828D01*
X554246Y342495D01*
X550247D01*
X563576D02*
X558245D01*
Y346494D01*
X560911Y345161D01*
X562243D01*
X563576Y346494D01*
Y349160D01*
X562243Y350493D01*
X559578D01*
X558245Y349160D01*
X435750Y342495D02*
Y347827D01*
X438416Y350493D01*
X441082Y347827D01*
Y342495D01*
X443747D02*
Y350493D01*
X447746D01*
X449079Y349160D01*
Y343828D01*
X447746Y342495D01*
X443747D01*
X455744Y350493D02*
Y342495D01*
X451745Y346494D01*
X457076D01*
X331250Y342495D02*
Y347827D01*
X333916Y350493D01*
X336582Y347827D01*
Y342495D01*
X339248D02*
Y350493D01*
X343246D01*
X344579Y349160D01*
Y343828D01*
X343246Y342495D01*
X339248D01*
X347245Y343828D02*
X348578Y342495D01*
X351244D01*
X352576Y343828D01*
Y345161D01*
X351244Y346494D01*
X349911D01*
X351244D01*
X352576Y347827D01*
Y349160D01*
X351244Y350493D01*
X348578D01*
X347245Y349160D01*
X123000Y342495D02*
Y347827D01*
X125666Y350493D01*
X128332Y347827D01*
Y342495D01*
X130997D02*
Y350493D01*
X134996D01*
X136329Y349160D01*
Y343828D01*
X134996Y342495D01*
X130997D01*
X138995Y350493D02*
X141661D01*
X140328D01*
Y342495D01*
X138995Y343828D01*
X1903250Y495495D02*
Y500827D01*
X1905916Y503493D01*
X1908582Y500827D01*
Y495495D01*
X1911248D02*
Y503493D01*
X1915246D01*
X1916579Y502160D01*
Y496828D01*
X1915246Y495495D01*
X1911248D01*
X1924577Y503493D02*
X1919245D01*
X1924577Y498161D01*
Y496828D01*
X1923244Y495495D01*
X1920578D01*
X1919245Y496828D01*
X1927242Y503493D02*
X1929908D01*
X1928575D01*
Y495495D01*
X1927242Y496828D01*
X1798500Y495495D02*
Y500827D01*
X1801166Y503493D01*
X1803832Y500827D01*
Y495495D01*
X1806497D02*
Y503493D01*
X1810496D01*
X1811829Y502160D01*
Y496828D01*
X1810496Y495495D01*
X1806497D01*
X1819826Y503493D02*
X1814495D01*
X1819826Y498161D01*
Y496828D01*
X1818493Y495495D01*
X1815828D01*
X1814495Y496828D01*
X1822492D02*
X1823825Y495495D01*
X1826491D01*
X1827824Y496828D01*
Y502160D01*
X1826491Y503493D01*
X1823825D01*
X1822492Y502160D01*
Y496828D01*
X1694500Y495495D02*
Y500827D01*
X1697166Y503493D01*
X1699832Y500827D01*
Y495495D01*
X1702497D02*
Y503493D01*
X1706496D01*
X1707829Y502160D01*
Y496828D01*
X1706496Y495495D01*
X1702497D01*
X1710495Y503493D02*
X1713161D01*
X1711828D01*
Y495495D01*
X1710495Y496828D01*
X1717159Y502160D02*
X1718492Y503493D01*
X1721158D01*
X1722491Y502160D01*
Y496828D01*
X1721158Y495495D01*
X1718492D01*
X1717159Y496828D01*
Y498161D01*
X1718492Y499494D01*
X1722491D01*
X1589250Y495495D02*
Y500827D01*
X1591916Y503493D01*
X1594582Y500827D01*
Y495495D01*
X1597247D02*
Y503493D01*
X1601246D01*
X1602579Y502160D01*
Y496828D01*
X1601246Y495495D01*
X1597247D01*
X1605245Y503493D02*
X1607911D01*
X1606578D01*
Y495495D01*
X1605245Y496828D01*
X1611909D02*
X1613242Y495495D01*
X1615908D01*
X1617241Y496828D01*
Y498161D01*
X1615908Y499494D01*
X1617241Y500827D01*
Y502160D01*
X1615908Y503493D01*
X1613242D01*
X1611909Y502160D01*
Y500827D01*
X1613242Y499494D01*
X1611909Y498161D01*
Y496828D01*
X1613242Y499494D02*
X1615908D01*
X1485250Y495495D02*
Y500827D01*
X1487916Y503493D01*
X1490582Y500827D01*
Y495495D01*
X1493247D02*
Y503493D01*
X1497246D01*
X1498579Y502160D01*
Y496828D01*
X1497246Y495495D01*
X1493247D01*
X1501245Y503493D02*
X1503911D01*
X1502578D01*
Y495495D01*
X1501245Y496828D01*
X1507909Y495495D02*
X1513241D01*
Y496828D01*
X1507909Y502160D01*
Y503493D01*
X1377500Y495495D02*
Y500827D01*
X1380166Y503493D01*
X1382832Y500827D01*
Y495495D01*
X1385497D02*
Y503493D01*
X1389496D01*
X1390829Y502160D01*
Y496828D01*
X1389496Y495495D01*
X1385497D01*
X1393495Y503493D02*
X1396161D01*
X1394828D01*
Y495495D01*
X1393495Y496828D01*
X1405491Y495495D02*
X1402825Y496828D01*
X1400159Y499494D01*
Y502160D01*
X1401492Y503493D01*
X1404158D01*
X1405491Y502160D01*
Y500827D01*
X1404158Y499494D01*
X1400159D01*
X1272000Y495495D02*
Y500827D01*
X1274666Y503493D01*
X1277332Y500827D01*
Y495495D01*
X1279997D02*
Y503493D01*
X1283996D01*
X1285329Y502160D01*
Y496828D01*
X1283996Y495495D01*
X1279997D01*
X1287995Y503493D02*
X1290661D01*
X1289328D01*
Y495495D01*
X1287995Y496828D01*
X1294659D02*
X1295992Y495495D01*
X1298658D01*
X1299991Y496828D01*
Y498161D01*
X1298658Y499494D01*
X1297325D01*
X1298658D01*
X1299991Y500827D01*
Y502160D01*
X1298658Y503493D01*
X1295992D01*
X1294659Y502160D01*
X1167500Y495495D02*
Y500827D01*
X1170166Y503493D01*
X1172832Y500827D01*
Y495495D01*
X1175497D02*
Y503493D01*
X1179496D01*
X1180829Y502160D01*
Y496828D01*
X1179496Y495495D01*
X1175497D01*
X1183495Y503493D02*
X1186161D01*
X1184828D01*
Y495495D01*
X1183495Y496828D01*
X1195491Y503493D02*
X1190159D01*
X1195491Y498161D01*
Y496828D01*
X1194158Y495495D01*
X1191492D01*
X1190159Y496828D01*
X1063750Y495495D02*
Y500827D01*
X1066416Y503493D01*
X1069082Y500827D01*
Y495495D01*
X1071748D02*
Y503493D01*
X1075746D01*
X1077079Y502160D01*
Y496828D01*
X1075746Y495495D01*
X1071748D01*
X1079745Y503493D02*
X1082411D01*
X1081078D01*
Y495495D01*
X1079745Y496828D01*
X1086409Y503493D02*
X1089075D01*
X1087742D01*
Y495495D01*
X1086409Y496828D01*
X955750Y495495D02*
Y500827D01*
X958416Y503493D01*
X961082Y500827D01*
Y495495D01*
X963747D02*
Y503493D01*
X967746D01*
X969079Y502160D01*
Y496828D01*
X967746Y495495D01*
X963747D01*
X971745Y503493D02*
X974411D01*
X973078D01*
Y495495D01*
X971745Y496828D01*
X978409D02*
X979742Y495495D01*
X982408D01*
X983741Y496828D01*
Y502160D01*
X982408Y503493D01*
X979742D01*
X978409Y502160D01*
Y496828D01*
X853750Y495495D02*
Y500827D01*
X856416Y503493D01*
X859082Y500827D01*
Y495495D01*
X861747D02*
Y503493D01*
X865746D01*
X867079Y502160D01*
Y496828D01*
X865746Y495495D01*
X861747D01*
X869745Y502160D02*
X871078Y503493D01*
X873744D01*
X875077Y502160D01*
Y496828D01*
X873744Y495495D01*
X871078D01*
X869745Y496828D01*
Y498161D01*
X871078Y499494D01*
X875077D01*
X746000Y495495D02*
Y500827D01*
X748666Y503493D01*
X751332Y500827D01*
Y495495D01*
X753997D02*
Y503493D01*
X757996D01*
X759329Y502160D01*
Y496828D01*
X757996Y495495D01*
X753997D01*
X761995Y496828D02*
X763328Y495495D01*
X765994D01*
X767327Y496828D01*
Y498161D01*
X765994Y499494D01*
X767327Y500827D01*
Y502160D01*
X765994Y503493D01*
X763328D01*
X761995Y502160D01*
Y500827D01*
X763328Y499494D01*
X761995Y498161D01*
Y496828D01*
X763328Y499494D02*
X765994D01*
X642750Y495495D02*
Y500827D01*
X645416Y503493D01*
X648082Y500827D01*
Y495495D01*
X650747D02*
Y503493D01*
X654746D01*
X656079Y502160D01*
Y496828D01*
X654746Y495495D01*
X650747D01*
X664076D02*
X661411Y496828D01*
X658745Y499494D01*
Y502160D01*
X660078Y503493D01*
X662744D01*
X664076Y502160D01*
Y500827D01*
X662744Y499494D01*
X658745D01*
X542250Y495495D02*
Y500827D01*
X544916Y503493D01*
X547582Y500827D01*
Y495495D01*
X550247D02*
Y503493D01*
X554246D01*
X555579Y502160D01*
Y496828D01*
X554246Y495495D01*
X550247D01*
X563576D02*
X558245D01*
Y499494D01*
X560911Y498161D01*
X562243D01*
X563576Y499494D01*
Y502160D01*
X562243Y503493D01*
X559578D01*
X558245Y502160D01*
X435750Y495495D02*
Y500827D01*
X438416Y503493D01*
X441082Y500827D01*
Y495495D01*
X443747D02*
Y503493D01*
X447746D01*
X449079Y502160D01*
Y496828D01*
X447746Y495495D01*
X443747D01*
X455744Y503493D02*
Y495495D01*
X451745Y499494D01*
X457076D01*
X331250Y495495D02*
Y500827D01*
X333916Y503493D01*
X336582Y500827D01*
Y495495D01*
X339248D02*
Y503493D01*
X343246D01*
X344579Y502160D01*
Y496828D01*
X343246Y495495D01*
X339248D01*
X347245Y496828D02*
X348578Y495495D01*
X351244D01*
X352576Y496828D01*
Y498161D01*
X351244Y499494D01*
X349911D01*
X351244D01*
X352576Y500827D01*
Y502160D01*
X351244Y503493D01*
X348578D01*
X347245Y502160D01*
X123000Y495495D02*
Y500827D01*
X125666Y503493D01*
X128332Y500827D01*
Y495495D01*
X130997D02*
Y503493D01*
X134996D01*
X136329Y502160D01*
Y496828D01*
X134996Y495495D01*
X130997D01*
X138995Y503493D02*
X141661D01*
X140328D01*
Y495495D01*
X138995Y496828D01*
X1903250Y648495D02*
Y653827D01*
X1905916Y656492D01*
X1908582Y653827D01*
Y648495D01*
X1911248D02*
Y656492D01*
X1915246D01*
X1916579Y655160D01*
Y649828D01*
X1915246Y648495D01*
X1911248D01*
X1924577Y656492D02*
X1919245D01*
X1924577Y651161D01*
Y649828D01*
X1923244Y648495D01*
X1920578D01*
X1919245Y649828D01*
X1927242Y656492D02*
X1929908D01*
X1928575D01*
Y648495D01*
X1927242Y649828D01*
X1798500Y648495D02*
Y653827D01*
X1801166Y656492D01*
X1803832Y653827D01*
Y648495D01*
X1806497D02*
Y656492D01*
X1810496D01*
X1811829Y655160D01*
Y649828D01*
X1810496Y648495D01*
X1806497D01*
X1819826Y656492D02*
X1814495D01*
X1819826Y651161D01*
Y649828D01*
X1818493Y648495D01*
X1815828D01*
X1814495Y649828D01*
X1822492D02*
X1823825Y648495D01*
X1826491D01*
X1827824Y649828D01*
Y655160D01*
X1826491Y656492D01*
X1823825D01*
X1822492Y655160D01*
Y649828D01*
X1694500Y648495D02*
Y653827D01*
X1697166Y656492D01*
X1699832Y653827D01*
Y648495D01*
X1702497D02*
Y656492D01*
X1706496D01*
X1707829Y655160D01*
Y649828D01*
X1706496Y648495D01*
X1702497D01*
X1710495Y656492D02*
X1713161D01*
X1711828D01*
Y648495D01*
X1710495Y649828D01*
X1717159Y655160D02*
X1718492Y656492D01*
X1721158D01*
X1722491Y655160D01*
Y649828D01*
X1721158Y648495D01*
X1718492D01*
X1717159Y649828D01*
Y651161D01*
X1718492Y652494D01*
X1722491D01*
X1589250Y648495D02*
Y653827D01*
X1591916Y656492D01*
X1594582Y653827D01*
Y648495D01*
X1597247D02*
Y656492D01*
X1601246D01*
X1602579Y655160D01*
Y649828D01*
X1601246Y648495D01*
X1597247D01*
X1605245Y656492D02*
X1607911D01*
X1606578D01*
Y648495D01*
X1605245Y649828D01*
X1611909D02*
X1613242Y648495D01*
X1615908D01*
X1617241Y649828D01*
Y651161D01*
X1615908Y652494D01*
X1617241Y653827D01*
Y655160D01*
X1615908Y656492D01*
X1613242D01*
X1611909Y655160D01*
Y653827D01*
X1613242Y652494D01*
X1611909Y651161D01*
Y649828D01*
X1613242Y652494D02*
X1615908D01*
X1485250Y648495D02*
Y653827D01*
X1487916Y656492D01*
X1490582Y653827D01*
Y648495D01*
X1493247D02*
Y656492D01*
X1497246D01*
X1498579Y655160D01*
Y649828D01*
X1497246Y648495D01*
X1493247D01*
X1501245Y656492D02*
X1503911D01*
X1502578D01*
Y648495D01*
X1501245Y649828D01*
X1507909Y648495D02*
X1513241D01*
Y649828D01*
X1507909Y655160D01*
Y656492D01*
X1377500Y648495D02*
Y653827D01*
X1380166Y656492D01*
X1382832Y653827D01*
Y648495D01*
X1385497D02*
Y656492D01*
X1389496D01*
X1390829Y655160D01*
Y649828D01*
X1389496Y648495D01*
X1385497D01*
X1393495Y656492D02*
X1396161D01*
X1394828D01*
Y648495D01*
X1393495Y649828D01*
X1405491Y648495D02*
X1402825Y649828D01*
X1400159Y652494D01*
Y655160D01*
X1401492Y656492D01*
X1404158D01*
X1405491Y655160D01*
Y653827D01*
X1404158Y652494D01*
X1400159D01*
X1272000Y648495D02*
Y653827D01*
X1274666Y656492D01*
X1277332Y653827D01*
Y648495D01*
X1279997D02*
Y656492D01*
X1283996D01*
X1285329Y655160D01*
Y649828D01*
X1283996Y648495D01*
X1279997D01*
X1287995Y656492D02*
X1290661D01*
X1289328D01*
Y648495D01*
X1287995Y649828D01*
X1294659D02*
X1295992Y648495D01*
X1298658D01*
X1299991Y649828D01*
Y651161D01*
X1298658Y652494D01*
X1297325D01*
X1298658D01*
X1299991Y653827D01*
Y655160D01*
X1298658Y656492D01*
X1295992D01*
X1294659Y655160D01*
X1167500Y648495D02*
Y653827D01*
X1170166Y656492D01*
X1172832Y653827D01*
Y648495D01*
X1175497D02*
Y656492D01*
X1179496D01*
X1180829Y655160D01*
Y649828D01*
X1179496Y648495D01*
X1175497D01*
X1183495Y656492D02*
X1186161D01*
X1184828D01*
Y648495D01*
X1183495Y649828D01*
X1195491Y656492D02*
X1190159D01*
X1195491Y651161D01*
Y649828D01*
X1194158Y648495D01*
X1191492D01*
X1190159Y649828D01*
X1063750Y648495D02*
Y653827D01*
X1066416Y656492D01*
X1069082Y653827D01*
Y648495D01*
X1071748D02*
Y656492D01*
X1075746D01*
X1077079Y655160D01*
Y649828D01*
X1075746Y648495D01*
X1071748D01*
X1079745Y656492D02*
X1082411D01*
X1081078D01*
Y648495D01*
X1079745Y649828D01*
X1086409Y656492D02*
X1089075D01*
X1087742D01*
Y648495D01*
X1086409Y649828D01*
X955750Y648495D02*
Y653827D01*
X958416Y656492D01*
X961082Y653827D01*
Y648495D01*
X963747D02*
Y656492D01*
X967746D01*
X969079Y655160D01*
Y649828D01*
X967746Y648495D01*
X963747D01*
X971745Y656492D02*
X974411D01*
X973078D01*
Y648495D01*
X971745Y649828D01*
X978409D02*
X979742Y648495D01*
X982408D01*
X983741Y649828D01*
Y655160D01*
X982408Y656492D01*
X979742D01*
X978409Y655160D01*
Y649828D01*
X853750Y648495D02*
Y653827D01*
X856416Y656492D01*
X859082Y653827D01*
Y648495D01*
X861747D02*
Y656492D01*
X865746D01*
X867079Y655160D01*
Y649828D01*
X865746Y648495D01*
X861747D01*
X869745Y655160D02*
X871078Y656492D01*
X873744D01*
X875077Y655160D01*
Y649828D01*
X873744Y648495D01*
X871078D01*
X869745Y649828D01*
Y651161D01*
X871078Y652494D01*
X875077D01*
X746000Y648495D02*
Y653827D01*
X748666Y656492D01*
X751332Y653827D01*
Y648495D01*
X753997D02*
Y656492D01*
X757996D01*
X759329Y655160D01*
Y649828D01*
X757996Y648495D01*
X753997D01*
X761995Y649828D02*
X763328Y648495D01*
X765994D01*
X767327Y649828D01*
Y651161D01*
X765994Y652494D01*
X767327Y653827D01*
Y655160D01*
X765994Y656492D01*
X763328D01*
X761995Y655160D01*
Y653827D01*
X763328Y652494D01*
X761995Y651161D01*
Y649828D01*
X763328Y652494D02*
X765994D01*
X642750Y648495D02*
Y653827D01*
X645416Y656492D01*
X648082Y653827D01*
Y648495D01*
X650747D02*
Y656492D01*
X654746D01*
X656079Y655160D01*
Y649828D01*
X654746Y648495D01*
X650747D01*
X664076D02*
X661411Y649828D01*
X658745Y652494D01*
Y655160D01*
X660078Y656492D01*
X662744D01*
X664076Y655160D01*
Y653827D01*
X662744Y652494D01*
X658745D01*
X542250Y648495D02*
Y653827D01*
X544916Y656492D01*
X547582Y653827D01*
Y648495D01*
X550247D02*
Y656492D01*
X554246D01*
X555579Y655160D01*
Y649828D01*
X554246Y648495D01*
X550247D01*
X563576D02*
X558245D01*
Y652494D01*
X560911Y651161D01*
X562243D01*
X563576Y652494D01*
Y655160D01*
X562243Y656492D01*
X559578D01*
X558245Y655160D01*
X435750Y648495D02*
Y653827D01*
X438416Y656492D01*
X441082Y653827D01*
Y648495D01*
X443747D02*
Y656492D01*
X447746D01*
X449079Y655160D01*
Y649828D01*
X447746Y648495D01*
X443747D01*
X455744Y656492D02*
Y648495D01*
X451745Y652494D01*
X457076D01*
X331250Y648495D02*
Y653827D01*
X333916Y656492D01*
X336582Y653827D01*
Y648495D01*
X339248D02*
Y656492D01*
X343246D01*
X344579Y655160D01*
Y649828D01*
X343246Y648495D01*
X339248D01*
X347245Y649828D02*
X348578Y648495D01*
X351244D01*
X352576Y649828D01*
Y651161D01*
X351244Y652494D01*
X349911D01*
X351244D01*
X352576Y653827D01*
Y655160D01*
X351244Y656492D01*
X348578D01*
X347245Y655160D01*
X123000Y648495D02*
Y653827D01*
X125666Y656492D01*
X128332Y653827D01*
Y648495D01*
X130997D02*
Y656492D01*
X134996D01*
X136329Y655160D01*
Y649828D01*
X134996Y648495D01*
X130997D01*
X138995Y656492D02*
X141661D01*
X140328D01*
Y648495D01*
X138995Y649828D01*
X1903250Y801495D02*
Y806827D01*
X1905916Y809493D01*
X1908582Y806827D01*
Y801495D01*
X1911248D02*
Y809493D01*
X1915246D01*
X1916579Y808160D01*
Y802828D01*
X1915246Y801495D01*
X1911248D01*
X1924577Y809493D02*
X1919245D01*
X1924577Y804161D01*
Y802828D01*
X1923244Y801495D01*
X1920578D01*
X1919245Y802828D01*
X1927242Y809493D02*
X1929908D01*
X1928575D01*
Y801495D01*
X1927242Y802828D01*
X1798500Y801495D02*
Y806827D01*
X1801166Y809492D01*
X1803832Y806827D01*
Y801495D01*
X1806497D02*
Y809492D01*
X1810496D01*
X1811829Y808160D01*
Y802828D01*
X1810496Y801495D01*
X1806497D01*
X1819826Y809492D02*
X1814495D01*
X1819826Y804161D01*
Y802828D01*
X1818493Y801495D01*
X1815828D01*
X1814495Y802828D01*
X1822492D02*
X1823825Y801495D01*
X1826491D01*
X1827824Y802828D01*
Y808160D01*
X1826491Y809492D01*
X1823825D01*
X1822492Y808160D01*
Y802828D01*
X1694500Y801495D02*
Y806827D01*
X1697166Y809493D01*
X1699832Y806827D01*
Y801495D01*
X1702497D02*
Y809493D01*
X1706496D01*
X1707829Y808160D01*
Y802828D01*
X1706496Y801495D01*
X1702497D01*
X1710495Y809493D02*
X1713161D01*
X1711828D01*
Y801495D01*
X1710495Y802828D01*
X1717159Y808160D02*
X1718492Y809493D01*
X1721158D01*
X1722491Y808160D01*
Y802828D01*
X1721158Y801495D01*
X1718492D01*
X1717159Y802828D01*
Y804161D01*
X1718492Y805494D01*
X1722491D01*
X1589250Y801495D02*
Y806827D01*
X1591916Y809492D01*
X1594582Y806827D01*
Y801495D01*
X1597247D02*
Y809492D01*
X1601246D01*
X1602579Y808160D01*
Y802828D01*
X1601246Y801495D01*
X1597247D01*
X1605245Y809492D02*
X1607911D01*
X1606578D01*
Y801495D01*
X1605245Y802828D01*
X1611909D02*
X1613242Y801495D01*
X1615908D01*
X1617241Y802828D01*
Y804161D01*
X1615908Y805494D01*
X1617241Y806827D01*
Y808160D01*
X1615908Y809492D01*
X1613242D01*
X1611909Y808160D01*
Y806827D01*
X1613242Y805494D01*
X1611909Y804161D01*
Y802828D01*
X1613242Y805494D02*
X1615908D01*
X1485250Y801495D02*
Y806827D01*
X1487916Y809492D01*
X1490582Y806827D01*
Y801495D01*
X1493247D02*
Y809492D01*
X1497246D01*
X1498579Y808160D01*
Y802828D01*
X1497246Y801495D01*
X1493247D01*
X1501245Y809492D02*
X1503911D01*
X1502578D01*
Y801495D01*
X1501245Y802828D01*
X1507909Y801495D02*
X1513241D01*
Y802828D01*
X1507909Y808160D01*
Y809492D01*
X1377500Y801495D02*
Y806827D01*
X1380166Y809493D01*
X1382832Y806827D01*
Y801495D01*
X1385497D02*
Y809493D01*
X1389496D01*
X1390829Y808160D01*
Y802828D01*
X1389496Y801495D01*
X1385497D01*
X1393495Y809493D02*
X1396161D01*
X1394828D01*
Y801495D01*
X1393495Y802828D01*
X1405491Y801495D02*
X1402825Y802828D01*
X1400159Y805494D01*
Y808160D01*
X1401492Y809493D01*
X1404158D01*
X1405491Y808160D01*
Y806827D01*
X1404158Y805494D01*
X1400159D01*
X1272000Y801495D02*
Y806827D01*
X1274666Y809493D01*
X1277332Y806827D01*
Y801495D01*
X1279997D02*
Y809493D01*
X1283996D01*
X1285329Y808160D01*
Y802828D01*
X1283996Y801495D01*
X1279997D01*
X1287995Y809493D02*
X1290661D01*
X1289328D01*
Y801495D01*
X1287995Y802828D01*
X1294659D02*
X1295992Y801495D01*
X1298658D01*
X1299991Y802828D01*
Y804161D01*
X1298658Y805494D01*
X1297325D01*
X1298658D01*
X1299991Y806827D01*
Y808160D01*
X1298658Y809493D01*
X1295992D01*
X1294659Y808160D01*
X1167500Y801495D02*
Y806827D01*
X1170166Y809493D01*
X1172832Y806827D01*
Y801495D01*
X1175497D02*
Y809493D01*
X1179496D01*
X1180829Y808160D01*
Y802828D01*
X1179496Y801495D01*
X1175497D01*
X1183495Y809493D02*
X1186161D01*
X1184828D01*
Y801495D01*
X1183495Y802828D01*
X1195491Y809493D02*
X1190159D01*
X1195491Y804161D01*
Y802828D01*
X1194158Y801495D01*
X1191492D01*
X1190159Y802828D01*
X1063750Y801495D02*
Y806827D01*
X1066416Y809493D01*
X1069082Y806827D01*
Y801495D01*
X1071748D02*
Y809493D01*
X1075746D01*
X1077079Y808160D01*
Y802828D01*
X1075746Y801495D01*
X1071748D01*
X1079745Y809493D02*
X1082411D01*
X1081078D01*
Y801495D01*
X1079745Y802828D01*
X1086409Y809493D02*
X1089075D01*
X1087742D01*
Y801495D01*
X1086409Y802828D01*
X955750Y801495D02*
Y806827D01*
X958416Y809492D01*
X961082Y806827D01*
Y801495D01*
X963747D02*
Y809492D01*
X967746D01*
X969079Y808160D01*
Y802828D01*
X967746Y801495D01*
X963747D01*
X971745Y809492D02*
X974411D01*
X973078D01*
Y801495D01*
X971745Y802828D01*
X978409D02*
X979742Y801495D01*
X982408D01*
X983741Y802828D01*
Y808160D01*
X982408Y809492D01*
X979742D01*
X978409Y808160D01*
Y802828D01*
X853750Y801495D02*
Y806827D01*
X856416Y809492D01*
X859082Y806827D01*
Y801495D01*
X861747D02*
Y809492D01*
X865746D01*
X867079Y808160D01*
Y802828D01*
X865746Y801495D01*
X861747D01*
X869745Y808160D02*
X871078Y809492D01*
X873744D01*
X875077Y808160D01*
Y802828D01*
X873744Y801495D01*
X871078D01*
X869745Y802828D01*
Y804161D01*
X871078Y805494D01*
X875077D01*
X746000Y801495D02*
Y806827D01*
X748666Y809493D01*
X751332Y806827D01*
Y801495D01*
X753997D02*
Y809493D01*
X757996D01*
X759329Y808160D01*
Y802828D01*
X757996Y801495D01*
X753997D01*
X761995Y802828D02*
X763328Y801495D01*
X765994D01*
X767327Y802828D01*
Y804161D01*
X765994Y805494D01*
X767327Y806827D01*
Y808160D01*
X765994Y809493D01*
X763328D01*
X761995Y808160D01*
Y806827D01*
X763328Y805494D01*
X761995Y804161D01*
Y802828D01*
X763328Y805494D02*
X765994D01*
X642750Y801495D02*
Y806827D01*
X645416Y809492D01*
X648082Y806827D01*
Y801495D01*
X650747D02*
Y809492D01*
X654746D01*
X656079Y808160D01*
Y802828D01*
X654746Y801495D01*
X650747D01*
X664076D02*
X661411Y802828D01*
X658745Y805494D01*
Y808160D01*
X660078Y809492D01*
X662744D01*
X664076Y808160D01*
Y806827D01*
X662744Y805494D01*
X658745D01*
X542250Y801495D02*
Y806827D01*
X544916Y809492D01*
X547582Y806827D01*
Y801495D01*
X550247D02*
Y809492D01*
X554246D01*
X555579Y808160D01*
Y802828D01*
X554246Y801495D01*
X550247D01*
X563576D02*
X558245D01*
Y805494D01*
X560911Y804161D01*
X562243D01*
X563576Y805494D01*
Y808160D01*
X562243Y809492D01*
X559578D01*
X558245Y808160D01*
X435750Y801495D02*
Y806827D01*
X438416Y809493D01*
X441082Y806827D01*
Y801495D01*
X443747D02*
Y809493D01*
X447746D01*
X449079Y808160D01*
Y802828D01*
X447746Y801495D01*
X443747D01*
X455744Y809493D02*
Y801495D01*
X451745Y805494D01*
X457076D01*
X331250Y801495D02*
Y806827D01*
X333916Y809492D01*
X336582Y806827D01*
Y801495D01*
X339248D02*
Y809492D01*
X343246D01*
X344579Y808160D01*
Y802828D01*
X343246Y801495D01*
X339248D01*
X347245Y802828D02*
X348578Y801495D01*
X351244D01*
X352576Y802828D01*
Y804161D01*
X351244Y805494D01*
X349911D01*
X351244D01*
X352576Y806827D01*
Y808160D01*
X351244Y809492D01*
X348578D01*
X347245Y808160D01*
X123000Y801495D02*
Y806827D01*
X125666Y809493D01*
X128332Y806827D01*
Y801495D01*
X130997D02*
Y809493D01*
X134996D01*
X136329Y808160D01*
Y802828D01*
X134996Y801495D01*
X130997D01*
X138995Y809493D02*
X141661D01*
X140328D01*
Y801495D01*
X138995Y802828D01*
X1903250Y954495D02*
Y959827D01*
X1905916Y962493D01*
X1908582Y959827D01*
Y954495D01*
X1911248D02*
Y962493D01*
X1915246D01*
X1916579Y961160D01*
Y955828D01*
X1915246Y954495D01*
X1911248D01*
X1924577Y962493D02*
X1919245D01*
X1924577Y957161D01*
Y955828D01*
X1923244Y954495D01*
X1920578D01*
X1919245Y955828D01*
X1927242Y962493D02*
X1929908D01*
X1928575D01*
Y954495D01*
X1927242Y955828D01*
X1798500Y954495D02*
Y959827D01*
X1801166Y962493D01*
X1803832Y959827D01*
Y954495D01*
X1806497D02*
Y962493D01*
X1810496D01*
X1811829Y961160D01*
Y955828D01*
X1810496Y954495D01*
X1806497D01*
X1819826Y962493D02*
X1814495D01*
X1819826Y957161D01*
Y955828D01*
X1818493Y954495D01*
X1815828D01*
X1814495Y955828D01*
X1822492D02*
X1823825Y954495D01*
X1826491D01*
X1827824Y955828D01*
Y961160D01*
X1826491Y962493D01*
X1823825D01*
X1822492Y961160D01*
Y955828D01*
X1694500Y954495D02*
Y959827D01*
X1697166Y962493D01*
X1699832Y959827D01*
Y954495D01*
X1702497D02*
Y962493D01*
X1706496D01*
X1707829Y961160D01*
Y955828D01*
X1706496Y954495D01*
X1702497D01*
X1710495Y962493D02*
X1713161D01*
X1711828D01*
Y954495D01*
X1710495Y955828D01*
X1717159Y961160D02*
X1718492Y962493D01*
X1721158D01*
X1722491Y961160D01*
Y955828D01*
X1721158Y954495D01*
X1718492D01*
X1717159Y955828D01*
Y957161D01*
X1718492Y958494D01*
X1722491D01*
X1589250Y954495D02*
Y959827D01*
X1591916Y962493D01*
X1594582Y959827D01*
Y954495D01*
X1597247D02*
Y962493D01*
X1601246D01*
X1602579Y961160D01*
Y955828D01*
X1601246Y954495D01*
X1597247D01*
X1605245Y962493D02*
X1607911D01*
X1606578D01*
Y954495D01*
X1605245Y955828D01*
X1611909D02*
X1613242Y954495D01*
X1615908D01*
X1617241Y955828D01*
Y957161D01*
X1615908Y958494D01*
X1617241Y959827D01*
Y961160D01*
X1615908Y962493D01*
X1613242D01*
X1611909Y961160D01*
Y959827D01*
X1613242Y958494D01*
X1611909Y957161D01*
Y955828D01*
X1613242Y958494D02*
X1615908D01*
X1485250Y954495D02*
Y959827D01*
X1487916Y962493D01*
X1490582Y959827D01*
Y954495D01*
X1493247D02*
Y962493D01*
X1497246D01*
X1498579Y961160D01*
Y955828D01*
X1497246Y954495D01*
X1493247D01*
X1501245Y962493D02*
X1503911D01*
X1502578D01*
Y954495D01*
X1501245Y955828D01*
X1507909Y954495D02*
X1513241D01*
Y955828D01*
X1507909Y961160D01*
Y962493D01*
X1377500Y954495D02*
Y959827D01*
X1380166Y962493D01*
X1382832Y959827D01*
Y954495D01*
X1385497D02*
Y962493D01*
X1389496D01*
X1390829Y961160D01*
Y955828D01*
X1389496Y954495D01*
X1385497D01*
X1393495Y962493D02*
X1396161D01*
X1394828D01*
Y954495D01*
X1393495Y955828D01*
X1405491Y954495D02*
X1402825Y955828D01*
X1400159Y958494D01*
Y961160D01*
X1401492Y962493D01*
X1404158D01*
X1405491Y961160D01*
Y959827D01*
X1404158Y958494D01*
X1400159D01*
X1272000Y954495D02*
Y959827D01*
X1274666Y962493D01*
X1277332Y959827D01*
Y954495D01*
X1279997D02*
Y962493D01*
X1283996D01*
X1285329Y961160D01*
Y955828D01*
X1283996Y954495D01*
X1279997D01*
X1287995Y962493D02*
X1290661D01*
X1289328D01*
Y954495D01*
X1287995Y955828D01*
X1294659D02*
X1295992Y954495D01*
X1298658D01*
X1299991Y955828D01*
Y957161D01*
X1298658Y958494D01*
X1297325D01*
X1298658D01*
X1299991Y959827D01*
Y961160D01*
X1298658Y962493D01*
X1295992D01*
X1294659Y961160D01*
X1167500Y954495D02*
Y959827D01*
X1170166Y962493D01*
X1172832Y959827D01*
Y954495D01*
X1175497D02*
Y962493D01*
X1179496D01*
X1180829Y961160D01*
Y955828D01*
X1179496Y954495D01*
X1175497D01*
X1183495Y962493D02*
X1186161D01*
X1184828D01*
Y954495D01*
X1183495Y955828D01*
X1195491Y962493D02*
X1190159D01*
X1195491Y957161D01*
Y955828D01*
X1194158Y954495D01*
X1191492D01*
X1190159Y955828D01*
X1063750Y954495D02*
Y959827D01*
X1066416Y962493D01*
X1069082Y959827D01*
Y954495D01*
X1071748D02*
Y962493D01*
X1075746D01*
X1077079Y961160D01*
Y955828D01*
X1075746Y954495D01*
X1071748D01*
X1079745Y962493D02*
X1082411D01*
X1081078D01*
Y954495D01*
X1079745Y955828D01*
X1086409Y962493D02*
X1089075D01*
X1087742D01*
Y954495D01*
X1086409Y955828D01*
X955750Y954495D02*
Y959827D01*
X958416Y962493D01*
X961082Y959827D01*
Y954495D01*
X963747D02*
Y962493D01*
X967746D01*
X969079Y961160D01*
Y955828D01*
X967746Y954495D01*
X963747D01*
X971745Y962493D02*
X974411D01*
X973078D01*
Y954495D01*
X971745Y955828D01*
X978409D02*
X979742Y954495D01*
X982408D01*
X983741Y955828D01*
Y961160D01*
X982408Y962493D01*
X979742D01*
X978409Y961160D01*
Y955828D01*
X853750Y954495D02*
Y959827D01*
X856416Y962493D01*
X859082Y959827D01*
Y954495D01*
X861747D02*
Y962493D01*
X865746D01*
X867079Y961160D01*
Y955828D01*
X865746Y954495D01*
X861747D01*
X869745Y961160D02*
X871078Y962493D01*
X873744D01*
X875077Y961160D01*
Y955828D01*
X873744Y954495D01*
X871078D01*
X869745Y955828D01*
Y957161D01*
X871078Y958494D01*
X875077D01*
X746000Y954495D02*
Y959827D01*
X748666Y962493D01*
X751332Y959827D01*
Y954495D01*
X753997D02*
Y962493D01*
X757996D01*
X759329Y961160D01*
Y955828D01*
X757996Y954495D01*
X753997D01*
X761995Y955828D02*
X763328Y954495D01*
X765994D01*
X767327Y955828D01*
Y957161D01*
X765994Y958494D01*
X767327Y959827D01*
Y961160D01*
X765994Y962493D01*
X763328D01*
X761995Y961160D01*
Y959827D01*
X763328Y958494D01*
X761995Y957161D01*
Y955828D01*
X763328Y958494D02*
X765994D01*
X642750Y954495D02*
Y959827D01*
X645416Y962493D01*
X648082Y959827D01*
Y954495D01*
X650747D02*
Y962493D01*
X654746D01*
X656079Y961160D01*
Y955828D01*
X654746Y954495D01*
X650747D01*
X664076D02*
X661411Y955828D01*
X658745Y958494D01*
Y961160D01*
X660078Y962493D01*
X662744D01*
X664076Y961160D01*
Y959827D01*
X662744Y958494D01*
X658745D01*
X542250Y954495D02*
Y959827D01*
X544916Y962493D01*
X547582Y959827D01*
Y954495D01*
X550247D02*
Y962493D01*
X554246D01*
X555579Y961160D01*
Y955828D01*
X554246Y954495D01*
X550247D01*
X563576D02*
X558245D01*
Y958494D01*
X560911Y957161D01*
X562243D01*
X563576Y958494D01*
Y961160D01*
X562243Y962493D01*
X559578D01*
X558245Y961160D01*
X435750Y954495D02*
Y959827D01*
X438416Y962493D01*
X441082Y959827D01*
Y954495D01*
X443747D02*
Y962493D01*
X447746D01*
X449079Y961160D01*
Y955828D01*
X447746Y954495D01*
X443747D01*
X455744Y962493D02*
Y954495D01*
X451745Y958494D01*
X457076D01*
X331250Y954495D02*
Y959827D01*
X333916Y962493D01*
X336582Y959827D01*
Y954495D01*
X339248D02*
Y962493D01*
X343246D01*
X344579Y961160D01*
Y955828D01*
X343246Y954495D01*
X339248D01*
X347245Y955828D02*
X348578Y954495D01*
X351244D01*
X352576Y955828D01*
Y957161D01*
X351244Y958494D01*
X349911D01*
X351244D01*
X352576Y959827D01*
Y961160D01*
X351244Y962493D01*
X348578D01*
X347245Y961160D01*
X123000Y954495D02*
Y959827D01*
X125666Y962493D01*
X128332Y959827D01*
Y954495D01*
X130997D02*
Y962493D01*
X134996D01*
X136329Y961160D01*
Y955828D01*
X134996Y954495D01*
X130997D01*
X138995Y962493D02*
X141661D01*
X140328D01*
Y954495D01*
X138995Y955828D01*
X1903250Y1107495D02*
Y1112827D01*
X1905916Y1115493D01*
X1908582Y1112827D01*
Y1107495D01*
X1911248D02*
Y1115493D01*
X1915246D01*
X1916579Y1114160D01*
Y1108828D01*
X1915246Y1107495D01*
X1911248D01*
X1924577Y1115493D02*
X1919245D01*
X1924577Y1110161D01*
Y1108828D01*
X1923244Y1107495D01*
X1920578D01*
X1919245Y1108828D01*
X1927242Y1115493D02*
X1929908D01*
X1928575D01*
Y1107495D01*
X1927242Y1108828D01*
X1798500Y1107495D02*
Y1112827D01*
X1801166Y1115493D01*
X1803832Y1112827D01*
Y1107495D01*
X1806497D02*
Y1115493D01*
X1810496D01*
X1811829Y1114160D01*
Y1108828D01*
X1810496Y1107495D01*
X1806497D01*
X1819826Y1115493D02*
X1814495D01*
X1819826Y1110161D01*
Y1108828D01*
X1818493Y1107495D01*
X1815828D01*
X1814495Y1108828D01*
X1822492D02*
X1823825Y1107495D01*
X1826491D01*
X1827824Y1108828D01*
Y1114160D01*
X1826491Y1115493D01*
X1823825D01*
X1822492Y1114160D01*
Y1108828D01*
X1694500Y1107495D02*
Y1112827D01*
X1697166Y1115493D01*
X1699832Y1112827D01*
Y1107495D01*
X1702497D02*
Y1115493D01*
X1706496D01*
X1707829Y1114160D01*
Y1108828D01*
X1706496Y1107495D01*
X1702497D01*
X1710495Y1115493D02*
X1713161D01*
X1711828D01*
Y1107495D01*
X1710495Y1108828D01*
X1717159Y1114160D02*
X1718492Y1115493D01*
X1721158D01*
X1722491Y1114160D01*
Y1108828D01*
X1721158Y1107495D01*
X1718492D01*
X1717159Y1108828D01*
Y1110161D01*
X1718492Y1111494D01*
X1722491D01*
X1589250Y1107495D02*
Y1112827D01*
X1591916Y1115493D01*
X1594582Y1112827D01*
Y1107495D01*
X1597247D02*
Y1115493D01*
X1601246D01*
X1602579Y1114160D01*
Y1108828D01*
X1601246Y1107495D01*
X1597247D01*
X1605245Y1115493D02*
X1607911D01*
X1606578D01*
Y1107495D01*
X1605245Y1108828D01*
X1611909D02*
X1613242Y1107495D01*
X1615908D01*
X1617241Y1108828D01*
Y1110161D01*
X1615908Y1111494D01*
X1617241Y1112827D01*
Y1114160D01*
X1615908Y1115493D01*
X1613242D01*
X1611909Y1114160D01*
Y1112827D01*
X1613242Y1111494D01*
X1611909Y1110161D01*
Y1108828D01*
X1613242Y1111494D02*
X1615908D01*
X1485250Y1107495D02*
Y1112827D01*
X1487916Y1115493D01*
X1490582Y1112827D01*
Y1107495D01*
X1493247D02*
Y1115493D01*
X1497246D01*
X1498579Y1114160D01*
Y1108828D01*
X1497246Y1107495D01*
X1493247D01*
X1501245Y1115493D02*
X1503911D01*
X1502578D01*
Y1107495D01*
X1501245Y1108828D01*
X1507909Y1107495D02*
X1513241D01*
Y1108828D01*
X1507909Y1114160D01*
Y1115493D01*
X1377500Y1107495D02*
Y1112827D01*
X1380166Y1115493D01*
X1382832Y1112827D01*
Y1107495D01*
X1385497D02*
Y1115493D01*
X1389496D01*
X1390829Y1114160D01*
Y1108828D01*
X1389496Y1107495D01*
X1385497D01*
X1393495Y1115493D02*
X1396161D01*
X1394828D01*
Y1107495D01*
X1393495Y1108828D01*
X1405491Y1107495D02*
X1402825Y1108828D01*
X1400159Y1111494D01*
Y1114160D01*
X1401492Y1115493D01*
X1404158D01*
X1405491Y1114160D01*
Y1112827D01*
X1404158Y1111494D01*
X1400159D01*
X1272000Y1107495D02*
Y1112827D01*
X1274666Y1115493D01*
X1277332Y1112827D01*
Y1107495D01*
X1279997D02*
Y1115493D01*
X1283996D01*
X1285329Y1114160D01*
Y1108828D01*
X1283996Y1107495D01*
X1279997D01*
X1287995Y1115493D02*
X1290661D01*
X1289328D01*
Y1107495D01*
X1287995Y1108828D01*
X1294659D02*
X1295992Y1107495D01*
X1298658D01*
X1299991Y1108828D01*
Y1110161D01*
X1298658Y1111494D01*
X1297325D01*
X1298658D01*
X1299991Y1112827D01*
Y1114160D01*
X1298658Y1115493D01*
X1295992D01*
X1294659Y1114160D01*
X1167500Y1107495D02*
Y1112827D01*
X1170166Y1115493D01*
X1172832Y1112827D01*
Y1107495D01*
X1175497D02*
Y1115493D01*
X1179496D01*
X1180829Y1114160D01*
Y1108828D01*
X1179496Y1107495D01*
X1175497D01*
X1183495Y1115493D02*
X1186161D01*
X1184828D01*
Y1107495D01*
X1183495Y1108828D01*
X1195491Y1115493D02*
X1190159D01*
X1195491Y1110161D01*
Y1108828D01*
X1194158Y1107495D01*
X1191492D01*
X1190159Y1108828D01*
X1063750Y1107495D02*
Y1112827D01*
X1066416Y1115493D01*
X1069082Y1112827D01*
Y1107495D01*
X1071748D02*
Y1115493D01*
X1075746D01*
X1077079Y1114160D01*
Y1108828D01*
X1075746Y1107495D01*
X1071748D01*
X1079745Y1115493D02*
X1082411D01*
X1081078D01*
Y1107495D01*
X1079745Y1108828D01*
X1086409Y1115493D02*
X1089075D01*
X1087742D01*
Y1107495D01*
X1086409Y1108828D01*
X955750Y1107495D02*
Y1112827D01*
X958416Y1115493D01*
X961082Y1112827D01*
Y1107495D01*
X963747D02*
Y1115493D01*
X967746D01*
X969079Y1114160D01*
Y1108828D01*
X967746Y1107495D01*
X963747D01*
X971745Y1115493D02*
X974411D01*
X973078D01*
Y1107495D01*
X971745Y1108828D01*
X978409D02*
X979742Y1107495D01*
X982408D01*
X983741Y1108828D01*
Y1114160D01*
X982408Y1115493D01*
X979742D01*
X978409Y1114160D01*
Y1108828D01*
X853750Y1107495D02*
Y1112827D01*
X856416Y1115493D01*
X859082Y1112827D01*
Y1107495D01*
X861747D02*
Y1115493D01*
X865746D01*
X867079Y1114160D01*
Y1108828D01*
X865746Y1107495D01*
X861747D01*
X869745Y1114160D02*
X871078Y1115493D01*
X873744D01*
X875077Y1114160D01*
Y1108828D01*
X873744Y1107495D01*
X871078D01*
X869745Y1108828D01*
Y1110161D01*
X871078Y1111494D01*
X875077D01*
X746000Y1107495D02*
Y1112827D01*
X748666Y1115493D01*
X751332Y1112827D01*
Y1107495D01*
X753997D02*
Y1115493D01*
X757996D01*
X759329Y1114160D01*
Y1108828D01*
X757996Y1107495D01*
X753997D01*
X761995Y1108828D02*
X763328Y1107495D01*
X765994D01*
X767327Y1108828D01*
Y1110161D01*
X765994Y1111494D01*
X767327Y1112827D01*
Y1114160D01*
X765994Y1115493D01*
X763328D01*
X761995Y1114160D01*
Y1112827D01*
X763328Y1111494D01*
X761995Y1110161D01*
Y1108828D01*
X763328Y1111494D02*
X765994D01*
X642750Y1107495D02*
Y1112827D01*
X645416Y1115493D01*
X648082Y1112827D01*
Y1107495D01*
X650747D02*
Y1115493D01*
X654746D01*
X656079Y1114160D01*
Y1108828D01*
X654746Y1107495D01*
X650747D01*
X664076D02*
X661411Y1108828D01*
X658745Y1111494D01*
Y1114160D01*
X660078Y1115493D01*
X662744D01*
X664076Y1114160D01*
Y1112827D01*
X662744Y1111494D01*
X658745D01*
X542250Y1107495D02*
Y1112827D01*
X544916Y1115493D01*
X547582Y1112827D01*
Y1107495D01*
X550247D02*
Y1115493D01*
X554246D01*
X555579Y1114160D01*
Y1108828D01*
X554246Y1107495D01*
X550247D01*
X563576D02*
X558245D01*
Y1111494D01*
X560911Y1110161D01*
X562243D01*
X563576Y1111494D01*
Y1114160D01*
X562243Y1115493D01*
X559578D01*
X558245Y1114160D01*
X435750Y1107495D02*
Y1112827D01*
X438416Y1115493D01*
X441082Y1112827D01*
Y1107495D01*
X443747D02*
Y1115493D01*
X447746D01*
X449079Y1114160D01*
Y1108828D01*
X447746Y1107495D01*
X443747D01*
X455744Y1115493D02*
Y1107495D01*
X451745Y1111494D01*
X457076D01*
X331250Y1107495D02*
Y1112827D01*
X333916Y1115493D01*
X336582Y1112827D01*
Y1107495D01*
X339248D02*
Y1115493D01*
X343246D01*
X344579Y1114160D01*
Y1108828D01*
X343246Y1107495D01*
X339248D01*
X347245Y1108828D02*
X348578Y1107495D01*
X351244D01*
X352576Y1108828D01*
Y1110161D01*
X351244Y1111494D01*
X349911D01*
X351244D01*
X352576Y1112827D01*
Y1114160D01*
X351244Y1115493D01*
X348578D01*
X347245Y1114160D01*
X123000Y1107495D02*
Y1112827D01*
X125666Y1115493D01*
X128332Y1112827D01*
Y1107495D01*
X130997D02*
Y1115493D01*
X134996D01*
X136329Y1114160D01*
Y1108828D01*
X134996Y1107495D01*
X130997D01*
X138995Y1115493D02*
X141661D01*
X140328D01*
Y1107495D01*
X138995Y1108828D01*
X1903250Y1260495D02*
Y1265827D01*
X1905916Y1268493D01*
X1908582Y1265827D01*
Y1260495D01*
X1911248D02*
Y1268493D01*
X1915246D01*
X1916579Y1267160D01*
Y1261828D01*
X1915246Y1260495D01*
X1911248D01*
X1924577Y1268493D02*
X1919245D01*
X1924577Y1263161D01*
Y1261828D01*
X1923244Y1260495D01*
X1920578D01*
X1919245Y1261828D01*
X1927242Y1268493D02*
X1929908D01*
X1928575D01*
Y1260495D01*
X1927242Y1261828D01*
X1798500Y1260495D02*
Y1265827D01*
X1801166Y1268493D01*
X1803832Y1265827D01*
Y1260495D01*
X1806497D02*
Y1268493D01*
X1810496D01*
X1811829Y1267160D01*
Y1261828D01*
X1810496Y1260495D01*
X1806497D01*
X1819826Y1268493D02*
X1814495D01*
X1819826Y1263161D01*
Y1261828D01*
X1818493Y1260495D01*
X1815828D01*
X1814495Y1261828D01*
X1822492D02*
X1823825Y1260495D01*
X1826491D01*
X1827824Y1261828D01*
Y1267160D01*
X1826491Y1268493D01*
X1823825D01*
X1822492Y1267160D01*
Y1261828D01*
X1694500Y1260495D02*
Y1265827D01*
X1697166Y1268493D01*
X1699832Y1265827D01*
Y1260495D01*
X1702497D02*
Y1268493D01*
X1706496D01*
X1707829Y1267160D01*
Y1261828D01*
X1706496Y1260495D01*
X1702497D01*
X1710495Y1268493D02*
X1713161D01*
X1711828D01*
Y1260495D01*
X1710495Y1261828D01*
X1717159Y1267160D02*
X1718492Y1268493D01*
X1721158D01*
X1722491Y1267160D01*
Y1261828D01*
X1721158Y1260495D01*
X1718492D01*
X1717159Y1261828D01*
Y1263161D01*
X1718492Y1264494D01*
X1722491D01*
X1589250Y1260495D02*
Y1265827D01*
X1591916Y1268493D01*
X1594582Y1265827D01*
Y1260495D01*
X1597247D02*
Y1268493D01*
X1601246D01*
X1602579Y1267160D01*
Y1261828D01*
X1601246Y1260495D01*
X1597247D01*
X1605245Y1268493D02*
X1607911D01*
X1606578D01*
Y1260495D01*
X1605245Y1261828D01*
X1611909D02*
X1613242Y1260495D01*
X1615908D01*
X1617241Y1261828D01*
Y1263161D01*
X1615908Y1264494D01*
X1617241Y1265827D01*
Y1267160D01*
X1615908Y1268493D01*
X1613242D01*
X1611909Y1267160D01*
Y1265827D01*
X1613242Y1264494D01*
X1611909Y1263161D01*
Y1261828D01*
X1613242Y1264494D02*
X1615908D01*
X1485250Y1260495D02*
Y1265827D01*
X1487916Y1268493D01*
X1490582Y1265827D01*
Y1260495D01*
X1493247D02*
Y1268493D01*
X1497246D01*
X1498579Y1267160D01*
Y1261828D01*
X1497246Y1260495D01*
X1493247D01*
X1501245Y1268493D02*
X1503911D01*
X1502578D01*
Y1260495D01*
X1501245Y1261828D01*
X1507909Y1260495D02*
X1513241D01*
Y1261828D01*
X1507909Y1267160D01*
Y1268493D01*
X1377500Y1260495D02*
Y1265827D01*
X1380166Y1268493D01*
X1382832Y1265827D01*
Y1260495D01*
X1385497D02*
Y1268493D01*
X1389496D01*
X1390829Y1267160D01*
Y1261828D01*
X1389496Y1260495D01*
X1385497D01*
X1393495Y1268493D02*
X1396161D01*
X1394828D01*
Y1260495D01*
X1393495Y1261828D01*
X1405491Y1260495D02*
X1402825Y1261828D01*
X1400159Y1264494D01*
Y1267160D01*
X1401492Y1268493D01*
X1404158D01*
X1405491Y1267160D01*
Y1265827D01*
X1404158Y1264494D01*
X1400159D01*
X1272000Y1260495D02*
Y1265827D01*
X1274666Y1268493D01*
X1277332Y1265827D01*
Y1260495D01*
X1279997D02*
Y1268493D01*
X1283996D01*
X1285329Y1267160D01*
Y1261828D01*
X1283996Y1260495D01*
X1279997D01*
X1287995Y1268493D02*
X1290661D01*
X1289328D01*
Y1260495D01*
X1287995Y1261828D01*
X1294659D02*
X1295992Y1260495D01*
X1298658D01*
X1299991Y1261828D01*
Y1263161D01*
X1298658Y1264494D01*
X1297325D01*
X1298658D01*
X1299991Y1265827D01*
Y1267160D01*
X1298658Y1268493D01*
X1295992D01*
X1294659Y1267160D01*
X1167500Y1260495D02*
Y1265827D01*
X1170166Y1268493D01*
X1172832Y1265827D01*
Y1260495D01*
X1175497D02*
Y1268493D01*
X1179496D01*
X1180829Y1267160D01*
Y1261828D01*
X1179496Y1260495D01*
X1175497D01*
X1183495Y1268493D02*
X1186161D01*
X1184828D01*
Y1260495D01*
X1183495Y1261828D01*
X1195491Y1268493D02*
X1190159D01*
X1195491Y1263161D01*
Y1261828D01*
X1194158Y1260495D01*
X1191492D01*
X1190159Y1261828D01*
X1063750Y1260495D02*
Y1265827D01*
X1066416Y1268493D01*
X1069082Y1265827D01*
Y1260495D01*
X1071748D02*
Y1268493D01*
X1075746D01*
X1077079Y1267160D01*
Y1261828D01*
X1075746Y1260495D01*
X1071748D01*
X1079745Y1268493D02*
X1082411D01*
X1081078D01*
Y1260495D01*
X1079745Y1261828D01*
X1086409Y1268493D02*
X1089075D01*
X1087742D01*
Y1260495D01*
X1086409Y1261828D01*
X955750Y1260495D02*
Y1265827D01*
X958416Y1268493D01*
X961082Y1265827D01*
Y1260495D01*
X963747D02*
Y1268493D01*
X967746D01*
X969079Y1267160D01*
Y1261828D01*
X967746Y1260495D01*
X963747D01*
X971745Y1268493D02*
X974411D01*
X973078D01*
Y1260495D01*
X971745Y1261828D01*
X978409D02*
X979742Y1260495D01*
X982408D01*
X983741Y1261828D01*
Y1267160D01*
X982408Y1268493D01*
X979742D01*
X978409Y1267160D01*
Y1261828D01*
X853750Y1260495D02*
Y1265827D01*
X856416Y1268493D01*
X859082Y1265827D01*
Y1260495D01*
X861747D02*
Y1268493D01*
X865746D01*
X867079Y1267160D01*
Y1261828D01*
X865746Y1260495D01*
X861747D01*
X869745Y1267160D02*
X871078Y1268493D01*
X873744D01*
X875077Y1267160D01*
Y1261828D01*
X873744Y1260495D01*
X871078D01*
X869745Y1261828D01*
Y1263161D01*
X871078Y1264494D01*
X875077D01*
X746000Y1260495D02*
Y1265827D01*
X748666Y1268493D01*
X751332Y1265827D01*
Y1260495D01*
X753997D02*
Y1268493D01*
X757996D01*
X759329Y1267160D01*
Y1261828D01*
X757996Y1260495D01*
X753997D01*
X761995Y1261828D02*
X763328Y1260495D01*
X765994D01*
X767327Y1261828D01*
Y1263161D01*
X765994Y1264494D01*
X767327Y1265827D01*
Y1267160D01*
X765994Y1268493D01*
X763328D01*
X761995Y1267160D01*
Y1265827D01*
X763328Y1264494D01*
X761995Y1263161D01*
Y1261828D01*
X763328Y1264494D02*
X765994D01*
X642750Y1260495D02*
Y1265827D01*
X645416Y1268493D01*
X648082Y1265827D01*
Y1260495D01*
X650747D02*
Y1268493D01*
X654746D01*
X656079Y1267160D01*
Y1261828D01*
X654746Y1260495D01*
X650747D01*
X664076D02*
X661411Y1261828D01*
X658745Y1264494D01*
Y1267160D01*
X660078Y1268493D01*
X662744D01*
X664076Y1267160D01*
Y1265827D01*
X662744Y1264494D01*
X658745D01*
X542250Y1260495D02*
Y1265827D01*
X544916Y1268493D01*
X547582Y1265827D01*
Y1260495D01*
X550247D02*
Y1268493D01*
X554246D01*
X555579Y1267160D01*
Y1261828D01*
X554246Y1260495D01*
X550247D01*
X563576D02*
X558245D01*
Y1264494D01*
X560911Y1263161D01*
X562243D01*
X563576Y1264494D01*
Y1267160D01*
X562243Y1268493D01*
X559578D01*
X558245Y1267160D01*
X435750Y1260495D02*
Y1265827D01*
X438416Y1268493D01*
X441082Y1265827D01*
Y1260495D01*
X443747D02*
Y1268493D01*
X447746D01*
X449079Y1267160D01*
Y1261828D01*
X447746Y1260495D01*
X443747D01*
X455744Y1268493D02*
Y1260495D01*
X451745Y1264494D01*
X457076D01*
X331250Y1260495D02*
Y1265827D01*
X333916Y1268493D01*
X336582Y1265827D01*
Y1260495D01*
X339248D02*
Y1268493D01*
X343246D01*
X344579Y1267160D01*
Y1261828D01*
X343246Y1260495D01*
X339248D01*
X347245Y1261828D02*
X348578Y1260495D01*
X351244D01*
X352576Y1261828D01*
Y1263161D01*
X351244Y1264494D01*
X349911D01*
X351244D01*
X352576Y1265827D01*
Y1267160D01*
X351244Y1268493D01*
X348578D01*
X347245Y1267160D01*
X123000Y1260495D02*
Y1265827D01*
X125666Y1268493D01*
X128332Y1265827D01*
Y1260495D01*
X130997D02*
Y1268493D01*
X134996D01*
X136329Y1267160D01*
Y1261828D01*
X134996Y1260495D01*
X130997D01*
X138995Y1268493D02*
X141661D01*
X140328D01*
Y1260495D01*
X138995Y1261828D01*
X1903250Y1413495D02*
Y1418827D01*
X1905916Y1421493D01*
X1908582Y1418827D01*
Y1413495D01*
X1911248D02*
Y1421493D01*
X1915246D01*
X1916579Y1420160D01*
Y1414828D01*
X1915246Y1413495D01*
X1911248D01*
X1924577Y1421493D02*
X1919245D01*
X1924577Y1416161D01*
Y1414828D01*
X1923244Y1413495D01*
X1920578D01*
X1919245Y1414828D01*
X1927242Y1421493D02*
X1929908D01*
X1928575D01*
Y1413495D01*
X1927242Y1414828D01*
X1798500Y1413495D02*
Y1418827D01*
X1801166Y1421493D01*
X1803832Y1418827D01*
Y1413495D01*
X1806497D02*
Y1421493D01*
X1810496D01*
X1811829Y1420160D01*
Y1414828D01*
X1810496Y1413495D01*
X1806497D01*
X1819826Y1421493D02*
X1814495D01*
X1819826Y1416161D01*
Y1414828D01*
X1818493Y1413495D01*
X1815828D01*
X1814495Y1414828D01*
X1822492D02*
X1823825Y1413495D01*
X1826491D01*
X1827824Y1414828D01*
Y1420160D01*
X1826491Y1421493D01*
X1823825D01*
X1822492Y1420160D01*
Y1414828D01*
X1694500Y1413495D02*
Y1418827D01*
X1697166Y1421493D01*
X1699832Y1418827D01*
Y1413495D01*
X1702497D02*
Y1421493D01*
X1706496D01*
X1707829Y1420160D01*
Y1414828D01*
X1706496Y1413495D01*
X1702497D01*
X1710495Y1421493D02*
X1713161D01*
X1711828D01*
Y1413495D01*
X1710495Y1414828D01*
X1717159Y1420160D02*
X1718492Y1421493D01*
X1721158D01*
X1722491Y1420160D01*
Y1414828D01*
X1721158Y1413495D01*
X1718492D01*
X1717159Y1414828D01*
Y1416161D01*
X1718492Y1417494D01*
X1722491D01*
X1589250Y1413495D02*
Y1418827D01*
X1591916Y1421493D01*
X1594582Y1418827D01*
Y1413495D01*
X1597247D02*
Y1421493D01*
X1601246D01*
X1602579Y1420160D01*
Y1414828D01*
X1601246Y1413495D01*
X1597247D01*
X1605245Y1421493D02*
X1607911D01*
X1606578D01*
Y1413495D01*
X1605245Y1414828D01*
X1611909D02*
X1613242Y1413495D01*
X1615908D01*
X1617241Y1414828D01*
Y1416161D01*
X1615908Y1417494D01*
X1617241Y1418827D01*
Y1420160D01*
X1615908Y1421493D01*
X1613242D01*
X1611909Y1420160D01*
Y1418827D01*
X1613242Y1417494D01*
X1611909Y1416161D01*
Y1414828D01*
X1613242Y1417494D02*
X1615908D01*
X1485250Y1413495D02*
Y1418827D01*
X1487916Y1421493D01*
X1490582Y1418827D01*
Y1413495D01*
X1493247D02*
Y1421493D01*
X1497246D01*
X1498579Y1420160D01*
Y1414828D01*
X1497246Y1413495D01*
X1493247D01*
X1501245Y1421493D02*
X1503911D01*
X1502578D01*
Y1413495D01*
X1501245Y1414828D01*
X1507909Y1413495D02*
X1513241D01*
Y1414828D01*
X1507909Y1420160D01*
Y1421493D01*
X1377500Y1413495D02*
Y1418827D01*
X1380166Y1421493D01*
X1382832Y1418827D01*
Y1413495D01*
X1385497D02*
Y1421493D01*
X1389496D01*
X1390829Y1420160D01*
Y1414828D01*
X1389496Y1413495D01*
X1385497D01*
X1393495Y1421493D02*
X1396161D01*
X1394828D01*
Y1413495D01*
X1393495Y1414828D01*
X1405491Y1413495D02*
X1402825Y1414828D01*
X1400159Y1417494D01*
Y1420160D01*
X1401492Y1421493D01*
X1404158D01*
X1405491Y1420160D01*
Y1418827D01*
X1404158Y1417494D01*
X1400159D01*
X1272000Y1413495D02*
Y1418827D01*
X1274666Y1421493D01*
X1277332Y1418827D01*
Y1413495D01*
X1279997D02*
Y1421493D01*
X1283996D01*
X1285329Y1420160D01*
Y1414828D01*
X1283996Y1413495D01*
X1279997D01*
X1287995Y1421493D02*
X1290661D01*
X1289328D01*
Y1413495D01*
X1287995Y1414828D01*
X1294659D02*
X1295992Y1413495D01*
X1298658D01*
X1299991Y1414828D01*
Y1416161D01*
X1298658Y1417494D01*
X1297325D01*
X1298658D01*
X1299991Y1418827D01*
Y1420160D01*
X1298658Y1421493D01*
X1295992D01*
X1294659Y1420160D01*
X1167500Y1413495D02*
Y1418827D01*
X1170166Y1421493D01*
X1172832Y1418827D01*
Y1413495D01*
X1175497D02*
Y1421493D01*
X1179496D01*
X1180829Y1420160D01*
Y1414828D01*
X1179496Y1413495D01*
X1175497D01*
X1183495Y1421493D02*
X1186161D01*
X1184828D01*
Y1413495D01*
X1183495Y1414828D01*
X1195491Y1421493D02*
X1190159D01*
X1195491Y1416161D01*
Y1414828D01*
X1194158Y1413495D01*
X1191492D01*
X1190159Y1414828D01*
X1063750Y1413495D02*
Y1418827D01*
X1066416Y1421493D01*
X1069082Y1418827D01*
Y1413495D01*
X1071748D02*
Y1421493D01*
X1075746D01*
X1077079Y1420160D01*
Y1414828D01*
X1075746Y1413495D01*
X1071748D01*
X1079745Y1421493D02*
X1082411D01*
X1081078D01*
Y1413495D01*
X1079745Y1414828D01*
X1086409Y1421493D02*
X1089075D01*
X1087742D01*
Y1413495D01*
X1086409Y1414828D01*
X955750Y1413495D02*
Y1418827D01*
X958416Y1421493D01*
X961082Y1418827D01*
Y1413495D01*
X963747D02*
Y1421493D01*
X967746D01*
X969079Y1420160D01*
Y1414828D01*
X967746Y1413495D01*
X963747D01*
X971745Y1421493D02*
X974411D01*
X973078D01*
Y1413495D01*
X971745Y1414828D01*
X978409D02*
X979742Y1413495D01*
X982408D01*
X983741Y1414828D01*
Y1420160D01*
X982408Y1421493D01*
X979742D01*
X978409Y1420160D01*
Y1414828D01*
X853750Y1413495D02*
Y1418827D01*
X856416Y1421493D01*
X859082Y1418827D01*
Y1413495D01*
X861747D02*
Y1421493D01*
X865746D01*
X867079Y1420160D01*
Y1414828D01*
X865746Y1413495D01*
X861747D01*
X869745Y1420160D02*
X871078Y1421493D01*
X873744D01*
X875077Y1420160D01*
Y1414828D01*
X873744Y1413495D01*
X871078D01*
X869745Y1414828D01*
Y1416161D01*
X871078Y1417494D01*
X875077D01*
X746000Y1413495D02*
Y1418827D01*
X748666Y1421493D01*
X751332Y1418827D01*
Y1413495D01*
X753997D02*
Y1421493D01*
X757996D01*
X759329Y1420160D01*
Y1414828D01*
X757996Y1413495D01*
X753997D01*
X761995Y1414828D02*
X763328Y1413495D01*
X765994D01*
X767327Y1414828D01*
Y1416161D01*
X765994Y1417494D01*
X767327Y1418827D01*
Y1420160D01*
X765994Y1421493D01*
X763328D01*
X761995Y1420160D01*
Y1418827D01*
X763328Y1417494D01*
X761995Y1416161D01*
Y1414828D01*
X763328Y1417494D02*
X765994D01*
X642750Y1413495D02*
Y1418827D01*
X645416Y1421493D01*
X648082Y1418827D01*
Y1413495D01*
X650747D02*
Y1421493D01*
X654746D01*
X656079Y1420160D01*
Y1414828D01*
X654746Y1413495D01*
X650747D01*
X664076D02*
X661411Y1414828D01*
X658745Y1417494D01*
Y1420160D01*
X660078Y1421493D01*
X662744D01*
X664076Y1420160D01*
Y1418827D01*
X662744Y1417494D01*
X658745D01*
X542250Y1413495D02*
Y1418827D01*
X544916Y1421493D01*
X547582Y1418827D01*
Y1413495D01*
X550247D02*
Y1421493D01*
X554246D01*
X555579Y1420160D01*
Y1414828D01*
X554246Y1413495D01*
X550247D01*
X563576D02*
X558245D01*
Y1417494D01*
X560911Y1416161D01*
X562243D01*
X563576Y1417494D01*
Y1420160D01*
X562243Y1421493D01*
X559578D01*
X558245Y1420160D01*
X435750Y1413495D02*
Y1418827D01*
X438416Y1421493D01*
X441082Y1418827D01*
Y1413495D01*
X443747D02*
Y1421493D01*
X447746D01*
X449079Y1420160D01*
Y1414828D01*
X447746Y1413495D01*
X443747D01*
X455744Y1421493D02*
Y1413495D01*
X451745Y1417494D01*
X457076D01*
X331250Y1413495D02*
Y1418827D01*
X333916Y1421493D01*
X336582Y1418827D01*
Y1413495D01*
X339248D02*
Y1421493D01*
X343246D01*
X344579Y1420160D01*
Y1414828D01*
X343246Y1413495D01*
X339248D01*
X347245Y1414828D02*
X348578Y1413495D01*
X351244D01*
X352576Y1414828D01*
Y1416161D01*
X351244Y1417494D01*
X349911D01*
X351244D01*
X352576Y1418827D01*
Y1420160D01*
X351244Y1421493D01*
X348578D01*
X347245Y1420160D01*
X123000Y1413495D02*
Y1418827D01*
X125666Y1421493D01*
X128332Y1418827D01*
Y1413495D01*
X130997D02*
Y1421493D01*
X134996D01*
X136329Y1420160D01*
Y1414828D01*
X134996Y1413495D01*
X130997D01*
X138995Y1421493D02*
X141661D01*
X140328D01*
Y1413495D01*
X138995Y1414828D01*
X1903250Y1566495D02*
Y1571827D01*
X1905916Y1574493D01*
X1908582Y1571827D01*
Y1566495D01*
X1911248D02*
Y1574493D01*
X1915246D01*
X1916579Y1573160D01*
Y1567828D01*
X1915246Y1566495D01*
X1911248D01*
X1924577Y1574493D02*
X1919245D01*
X1924577Y1569161D01*
Y1567828D01*
X1923244Y1566495D01*
X1920578D01*
X1919245Y1567828D01*
X1927242Y1574493D02*
X1929908D01*
X1928575D01*
Y1566495D01*
X1927242Y1567828D01*
X1798500Y1566495D02*
Y1571827D01*
X1801166Y1574493D01*
X1803832Y1571827D01*
Y1566495D01*
X1806497D02*
Y1574493D01*
X1810496D01*
X1811829Y1573160D01*
Y1567828D01*
X1810496Y1566495D01*
X1806497D01*
X1819826Y1574493D02*
X1814495D01*
X1819826Y1569161D01*
Y1567828D01*
X1818493Y1566495D01*
X1815828D01*
X1814495Y1567828D01*
X1822492D02*
X1823825Y1566495D01*
X1826491D01*
X1827824Y1567828D01*
Y1573160D01*
X1826491Y1574493D01*
X1823825D01*
X1822492Y1573160D01*
Y1567828D01*
X1694500Y1566495D02*
Y1571827D01*
X1697166Y1574493D01*
X1699832Y1571827D01*
Y1566495D01*
X1702497D02*
Y1574493D01*
X1706496D01*
X1707829Y1573160D01*
Y1567828D01*
X1706496Y1566495D01*
X1702497D01*
X1710495Y1574493D02*
X1713161D01*
X1711828D01*
Y1566495D01*
X1710495Y1567828D01*
X1717159Y1573160D02*
X1718492Y1574493D01*
X1721158D01*
X1722491Y1573160D01*
Y1567828D01*
X1721158Y1566495D01*
X1718492D01*
X1717159Y1567828D01*
Y1569161D01*
X1718492Y1570494D01*
X1722491D01*
X1589250Y1566495D02*
Y1571827D01*
X1591916Y1574493D01*
X1594582Y1571827D01*
Y1566495D01*
X1597247D02*
Y1574493D01*
X1601246D01*
X1602579Y1573160D01*
Y1567828D01*
X1601246Y1566495D01*
X1597247D01*
X1605245Y1574493D02*
X1607911D01*
X1606578D01*
Y1566495D01*
X1605245Y1567828D01*
X1611909D02*
X1613242Y1566495D01*
X1615908D01*
X1617241Y1567828D01*
Y1569161D01*
X1615908Y1570494D01*
X1617241Y1571827D01*
Y1573160D01*
X1615908Y1574493D01*
X1613242D01*
X1611909Y1573160D01*
Y1571827D01*
X1613242Y1570494D01*
X1611909Y1569161D01*
Y1567828D01*
X1613242Y1570494D02*
X1615908D01*
X1485250Y1566495D02*
Y1571827D01*
X1487916Y1574493D01*
X1490582Y1571827D01*
Y1566495D01*
X1493247D02*
Y1574493D01*
X1497246D01*
X1498579Y1573160D01*
Y1567828D01*
X1497246Y1566495D01*
X1493247D01*
X1501245Y1574493D02*
X1503911D01*
X1502578D01*
Y1566495D01*
X1501245Y1567828D01*
X1507909Y1566495D02*
X1513241D01*
Y1567828D01*
X1507909Y1573160D01*
Y1574493D01*
X1377500Y1566495D02*
Y1571827D01*
X1380166Y1574493D01*
X1382832Y1571827D01*
Y1566495D01*
X1385497D02*
Y1574493D01*
X1389496D01*
X1390829Y1573160D01*
Y1567828D01*
X1389496Y1566495D01*
X1385497D01*
X1393495Y1574493D02*
X1396161D01*
X1394828D01*
Y1566495D01*
X1393495Y1567828D01*
X1405491Y1566495D02*
X1402825Y1567828D01*
X1400159Y1570494D01*
Y1573160D01*
X1401492Y1574493D01*
X1404158D01*
X1405491Y1573160D01*
Y1571827D01*
X1404158Y1570494D01*
X1400159D01*
X1272000Y1566495D02*
Y1571827D01*
X1274666Y1574493D01*
X1277332Y1571827D01*
Y1566495D01*
X1279997D02*
Y1574493D01*
X1283996D01*
X1285329Y1573160D01*
Y1567828D01*
X1283996Y1566495D01*
X1279997D01*
X1287995Y1574493D02*
X1290661D01*
X1289328D01*
Y1566495D01*
X1287995Y1567828D01*
X1294659D02*
X1295992Y1566495D01*
X1298658D01*
X1299991Y1567828D01*
Y1569161D01*
X1298658Y1570494D01*
X1297325D01*
X1298658D01*
X1299991Y1571827D01*
Y1573160D01*
X1298658Y1574493D01*
X1295992D01*
X1294659Y1573160D01*
X1167500Y1566495D02*
Y1571827D01*
X1170166Y1574493D01*
X1172832Y1571827D01*
Y1566495D01*
X1175497D02*
Y1574493D01*
X1179496D01*
X1180829Y1573160D01*
Y1567828D01*
X1179496Y1566495D01*
X1175497D01*
X1183495Y1574493D02*
X1186161D01*
X1184828D01*
Y1566495D01*
X1183495Y1567828D01*
X1195491Y1574493D02*
X1190159D01*
X1195491Y1569161D01*
Y1567828D01*
X1194158Y1566495D01*
X1191492D01*
X1190159Y1567828D01*
X1063750Y1566495D02*
Y1571827D01*
X1066416Y1574493D01*
X1069082Y1571827D01*
Y1566495D01*
X1071748D02*
Y1574493D01*
X1075746D01*
X1077079Y1573160D01*
Y1567828D01*
X1075746Y1566495D01*
X1071748D01*
X1079745Y1574493D02*
X1082411D01*
X1081078D01*
Y1566495D01*
X1079745Y1567828D01*
X1086409Y1574493D02*
X1089075D01*
X1087742D01*
Y1566495D01*
X1086409Y1567828D01*
X955750Y1566495D02*
Y1571827D01*
X958416Y1574493D01*
X961082Y1571827D01*
Y1566495D01*
X963747D02*
Y1574493D01*
X967746D01*
X969079Y1573160D01*
Y1567828D01*
X967746Y1566495D01*
X963747D01*
X971745Y1574493D02*
X974411D01*
X973078D01*
Y1566495D01*
X971745Y1567828D01*
X978409D02*
X979742Y1566495D01*
X982408D01*
X983741Y1567828D01*
Y1573160D01*
X982408Y1574493D01*
X979742D01*
X978409Y1573160D01*
Y1567828D01*
X853750Y1566495D02*
Y1571827D01*
X856416Y1574493D01*
X859082Y1571827D01*
Y1566495D01*
X861747D02*
Y1574493D01*
X865746D01*
X867079Y1573160D01*
Y1567828D01*
X865746Y1566495D01*
X861747D01*
X869745Y1573160D02*
X871078Y1574493D01*
X873744D01*
X875077Y1573160D01*
Y1567828D01*
X873744Y1566495D01*
X871078D01*
X869745Y1567828D01*
Y1569161D01*
X871078Y1570494D01*
X875077D01*
X746000Y1566495D02*
Y1571827D01*
X748666Y1574493D01*
X751332Y1571827D01*
Y1566495D01*
X753997D02*
Y1574493D01*
X757996D01*
X759329Y1573160D01*
Y1567828D01*
X757996Y1566495D01*
X753997D01*
X761995Y1567828D02*
X763328Y1566495D01*
X765994D01*
X767327Y1567828D01*
Y1569161D01*
X765994Y1570494D01*
X767327Y1571827D01*
Y1573160D01*
X765994Y1574493D01*
X763328D01*
X761995Y1573160D01*
Y1571827D01*
X763328Y1570494D01*
X761995Y1569161D01*
Y1567828D01*
X763328Y1570494D02*
X765994D01*
X642750Y1566495D02*
Y1571827D01*
X645416Y1574493D01*
X648082Y1571827D01*
Y1566495D01*
X650747D02*
Y1574493D01*
X654746D01*
X656079Y1573160D01*
Y1567828D01*
X654746Y1566495D01*
X650747D01*
X664076D02*
X661411Y1567828D01*
X658745Y1570494D01*
Y1573160D01*
X660078Y1574493D01*
X662744D01*
X664076Y1573160D01*
Y1571827D01*
X662744Y1570494D01*
X658745D01*
X542250Y1566495D02*
Y1571827D01*
X544916Y1574493D01*
X547582Y1571827D01*
Y1566495D01*
X550247D02*
Y1574493D01*
X554246D01*
X555579Y1573160D01*
Y1567828D01*
X554246Y1566495D01*
X550247D01*
X563576D02*
X558245D01*
Y1570494D01*
X560911Y1569161D01*
X562243D01*
X563576Y1570494D01*
Y1573160D01*
X562243Y1574493D01*
X559578D01*
X558245Y1573160D01*
X435750Y1566495D02*
Y1571827D01*
X438416Y1574493D01*
X441082Y1571827D01*
Y1566495D01*
X443747D02*
Y1574493D01*
X447746D01*
X449079Y1573160D01*
Y1567828D01*
X447746Y1566495D01*
X443747D01*
X455744Y1574493D02*
Y1566495D01*
X451745Y1570494D01*
X457076D01*
X331250Y1566495D02*
Y1571827D01*
X333916Y1574493D01*
X336582Y1571827D01*
Y1566495D01*
X339248D02*
Y1574493D01*
X343246D01*
X344579Y1573160D01*
Y1567828D01*
X343246Y1566495D01*
X339248D01*
X347245Y1567828D02*
X348578Y1566495D01*
X351244D01*
X352576Y1567828D01*
Y1569161D01*
X351244Y1570494D01*
X349911D01*
X351244D01*
X352576Y1571827D01*
Y1573160D01*
X351244Y1574493D01*
X348578D01*
X347245Y1573160D01*
X123000Y1566495D02*
Y1571827D01*
X125666Y1574493D01*
X128332Y1571827D01*
Y1566495D01*
X130997D02*
Y1574493D01*
X134996D01*
X136329Y1573160D01*
Y1567828D01*
X134996Y1566495D01*
X130997D01*
X138995Y1574493D02*
X141661D01*
X140328D01*
Y1566495D01*
X138995Y1567828D01*
X1903250Y1719495D02*
Y1724827D01*
X1905916Y1727493D01*
X1908582Y1724827D01*
Y1719495D01*
X1911248D02*
Y1727493D01*
X1915246D01*
X1916579Y1726160D01*
Y1720828D01*
X1915246Y1719495D01*
X1911248D01*
X1924577Y1727493D02*
X1919245D01*
X1924577Y1722161D01*
Y1720828D01*
X1923244Y1719495D01*
X1920578D01*
X1919245Y1720828D01*
X1927242Y1727493D02*
X1929908D01*
X1928575D01*
Y1719495D01*
X1927242Y1720828D01*
X1798500Y1719495D02*
Y1724827D01*
X1801166Y1727493D01*
X1803832Y1724827D01*
Y1719495D01*
X1806497D02*
Y1727493D01*
X1810496D01*
X1811829Y1726160D01*
Y1720828D01*
X1810496Y1719495D01*
X1806497D01*
X1819826Y1727493D02*
X1814495D01*
X1819826Y1722161D01*
Y1720828D01*
X1818493Y1719495D01*
X1815828D01*
X1814495Y1720828D01*
X1822492D02*
X1823825Y1719495D01*
X1826491D01*
X1827824Y1720828D01*
Y1726160D01*
X1826491Y1727493D01*
X1823825D01*
X1822492Y1726160D01*
Y1720828D01*
X1694500Y1719495D02*
Y1724827D01*
X1697166Y1727493D01*
X1699832Y1724827D01*
Y1719495D01*
X1702497D02*
Y1727493D01*
X1706496D01*
X1707829Y1726160D01*
Y1720828D01*
X1706496Y1719495D01*
X1702497D01*
X1710495Y1727493D02*
X1713161D01*
X1711828D01*
Y1719495D01*
X1710495Y1720828D01*
X1717159Y1726160D02*
X1718492Y1727493D01*
X1721158D01*
X1722491Y1726160D01*
Y1720828D01*
X1721158Y1719495D01*
X1718492D01*
X1717159Y1720828D01*
Y1722161D01*
X1718492Y1723494D01*
X1722491D01*
X1589250Y1719495D02*
Y1724827D01*
X1591916Y1727493D01*
X1594582Y1724827D01*
Y1719495D01*
X1597247D02*
Y1727493D01*
X1601246D01*
X1602579Y1726160D01*
Y1720828D01*
X1601246Y1719495D01*
X1597247D01*
X1605245Y1727493D02*
X1607911D01*
X1606578D01*
Y1719495D01*
X1605245Y1720828D01*
X1611909D02*
X1613242Y1719495D01*
X1615908D01*
X1617241Y1720828D01*
Y1722161D01*
X1615908Y1723494D01*
X1617241Y1724827D01*
Y1726160D01*
X1615908Y1727493D01*
X1613242D01*
X1611909Y1726160D01*
Y1724827D01*
X1613242Y1723494D01*
X1611909Y1722161D01*
Y1720828D01*
X1613242Y1723494D02*
X1615908D01*
X1485250Y1719495D02*
Y1724827D01*
X1487916Y1727493D01*
X1490582Y1724827D01*
Y1719495D01*
X1493247D02*
Y1727493D01*
X1497246D01*
X1498579Y1726160D01*
Y1720828D01*
X1497246Y1719495D01*
X1493247D01*
X1501245Y1727493D02*
X1503911D01*
X1502578D01*
Y1719495D01*
X1501245Y1720828D01*
X1507909Y1719495D02*
X1513241D01*
Y1720828D01*
X1507909Y1726160D01*
Y1727493D01*
X1377500Y1719495D02*
Y1724827D01*
X1380166Y1727493D01*
X1382832Y1724827D01*
Y1719495D01*
X1385497D02*
Y1727493D01*
X1389496D01*
X1390829Y1726160D01*
Y1720828D01*
X1389496Y1719495D01*
X1385497D01*
X1393495Y1727493D02*
X1396161D01*
X1394828D01*
Y1719495D01*
X1393495Y1720828D01*
X1405491Y1719495D02*
X1402825Y1720828D01*
X1400159Y1723494D01*
Y1726160D01*
X1401492Y1727493D01*
X1404158D01*
X1405491Y1726160D01*
Y1724827D01*
X1404158Y1723494D01*
X1400159D01*
X1272000Y1719495D02*
Y1724827D01*
X1274666Y1727493D01*
X1277332Y1724827D01*
Y1719495D01*
X1279997D02*
Y1727493D01*
X1283996D01*
X1285329Y1726160D01*
Y1720828D01*
X1283996Y1719495D01*
X1279997D01*
X1287995Y1727493D02*
X1290661D01*
X1289328D01*
Y1719495D01*
X1287995Y1720828D01*
X1294659D02*
X1295992Y1719495D01*
X1298658D01*
X1299991Y1720828D01*
Y1722161D01*
X1298658Y1723494D01*
X1297325D01*
X1298658D01*
X1299991Y1724827D01*
Y1726160D01*
X1298658Y1727493D01*
X1295992D01*
X1294659Y1726160D01*
X1167500Y1719495D02*
Y1724827D01*
X1170166Y1727493D01*
X1172832Y1724827D01*
Y1719495D01*
X1175497D02*
Y1727493D01*
X1179496D01*
X1180829Y1726160D01*
Y1720828D01*
X1179496Y1719495D01*
X1175497D01*
X1183495Y1727493D02*
X1186161D01*
X1184828D01*
Y1719495D01*
X1183495Y1720828D01*
X1195491Y1727493D02*
X1190159D01*
X1195491Y1722161D01*
Y1720828D01*
X1194158Y1719495D01*
X1191492D01*
X1190159Y1720828D01*
X1063750Y1719495D02*
Y1724827D01*
X1066416Y1727493D01*
X1069082Y1724827D01*
Y1719495D01*
X1071748D02*
Y1727493D01*
X1075746D01*
X1077079Y1726160D01*
Y1720828D01*
X1075746Y1719495D01*
X1071748D01*
X1079745Y1727493D02*
X1082411D01*
X1081078D01*
Y1719495D01*
X1079745Y1720828D01*
X1086409Y1727493D02*
X1089075D01*
X1087742D01*
Y1719495D01*
X1086409Y1720828D01*
X955750Y1719495D02*
Y1724827D01*
X958416Y1727493D01*
X961082Y1724827D01*
Y1719495D01*
X963747D02*
Y1727493D01*
X967746D01*
X969079Y1726160D01*
Y1720828D01*
X967746Y1719495D01*
X963747D01*
X971745Y1727493D02*
X974411D01*
X973078D01*
Y1719495D01*
X971745Y1720828D01*
X978409D02*
X979742Y1719495D01*
X982408D01*
X983741Y1720828D01*
Y1726160D01*
X982408Y1727493D01*
X979742D01*
X978409Y1726160D01*
Y1720828D01*
X853750Y1719495D02*
Y1724827D01*
X856416Y1727493D01*
X859082Y1724827D01*
Y1719495D01*
X861747D02*
Y1727493D01*
X865746D01*
X867079Y1726160D01*
Y1720828D01*
X865746Y1719495D01*
X861747D01*
X869745Y1726160D02*
X871078Y1727493D01*
X873744D01*
X875077Y1726160D01*
Y1720828D01*
X873744Y1719495D01*
X871078D01*
X869745Y1720828D01*
Y1722161D01*
X871078Y1723494D01*
X875077D01*
X746000Y1719495D02*
Y1724827D01*
X748666Y1727493D01*
X751332Y1724827D01*
Y1719495D01*
X753997D02*
Y1727493D01*
X757996D01*
X759329Y1726160D01*
Y1720828D01*
X757996Y1719495D01*
X753997D01*
X761995Y1720828D02*
X763328Y1719495D01*
X765994D01*
X767327Y1720828D01*
Y1722161D01*
X765994Y1723494D01*
X767327Y1724827D01*
Y1726160D01*
X765994Y1727493D01*
X763328D01*
X761995Y1726160D01*
Y1724827D01*
X763328Y1723494D01*
X761995Y1722161D01*
Y1720828D01*
X763328Y1723494D02*
X765994D01*
X642750Y1719495D02*
Y1724827D01*
X645416Y1727493D01*
X648082Y1724827D01*
Y1719495D01*
X650747D02*
Y1727493D01*
X654746D01*
X656079Y1726160D01*
Y1720828D01*
X654746Y1719495D01*
X650747D01*
X664076D02*
X661411Y1720828D01*
X658745Y1723494D01*
Y1726160D01*
X660078Y1727493D01*
X662744D01*
X664076Y1726160D01*
Y1724827D01*
X662744Y1723494D01*
X658745D01*
X542250Y1719495D02*
Y1724827D01*
X544916Y1727493D01*
X547582Y1724827D01*
Y1719495D01*
X550247D02*
Y1727493D01*
X554246D01*
X555579Y1726160D01*
Y1720828D01*
X554246Y1719495D01*
X550247D01*
X563576D02*
X558245D01*
Y1723494D01*
X560911Y1722161D01*
X562243D01*
X563576Y1723494D01*
Y1726160D01*
X562243Y1727493D01*
X559578D01*
X558245Y1726160D01*
X435750Y1719495D02*
Y1724827D01*
X438416Y1727493D01*
X441082Y1724827D01*
Y1719495D01*
X443747D02*
Y1727493D01*
X447746D01*
X449079Y1726160D01*
Y1720828D01*
X447746Y1719495D01*
X443747D01*
X455744Y1727493D02*
Y1719495D01*
X451745Y1723494D01*
X457076D01*
X331250Y1719495D02*
Y1724827D01*
X333916Y1727493D01*
X336582Y1724827D01*
Y1719495D01*
X339248D02*
Y1727493D01*
X343246D01*
X344579Y1726160D01*
Y1720828D01*
X343246Y1719495D01*
X339248D01*
X347245Y1720828D02*
X348578Y1719495D01*
X351244D01*
X352576Y1720828D01*
Y1722161D01*
X351244Y1723494D01*
X349911D01*
X351244D01*
X352576Y1724827D01*
Y1726160D01*
X351244Y1727493D01*
X348578D01*
X347245Y1726160D01*
X123000Y1719495D02*
Y1724827D01*
X125666Y1727493D01*
X128332Y1724827D01*
Y1719495D01*
X130997D02*
Y1727493D01*
X134996D01*
X136329Y1726160D01*
Y1720828D01*
X134996Y1719495D01*
X130997D01*
X138995Y1727493D02*
X141661D01*
X140328D01*
Y1719495D01*
X138995Y1720828D01*
X1903250Y1872495D02*
Y1877827D01*
X1905916Y1880493D01*
X1908582Y1877827D01*
Y1872495D01*
X1911248D02*
Y1880493D01*
X1915246D01*
X1916579Y1879160D01*
Y1873828D01*
X1915246Y1872495D01*
X1911248D01*
X1924577Y1880493D02*
X1919245D01*
X1924577Y1875161D01*
Y1873828D01*
X1923244Y1872495D01*
X1920578D01*
X1919245Y1873828D01*
X1927242Y1880493D02*
X1929908D01*
X1928575D01*
Y1872495D01*
X1927242Y1873828D01*
X1798500Y1872495D02*
Y1877827D01*
X1801166Y1880493D01*
X1803832Y1877827D01*
Y1872495D01*
X1806497D02*
Y1880493D01*
X1810496D01*
X1811829Y1879160D01*
Y1873828D01*
X1810496Y1872495D01*
X1806497D01*
X1819826Y1880493D02*
X1814495D01*
X1819826Y1875161D01*
Y1873828D01*
X1818493Y1872495D01*
X1815828D01*
X1814495Y1873828D01*
X1822492D02*
X1823825Y1872495D01*
X1826491D01*
X1827824Y1873828D01*
Y1879160D01*
X1826491Y1880493D01*
X1823825D01*
X1822492Y1879160D01*
Y1873828D01*
X1694500Y1872495D02*
Y1877827D01*
X1697166Y1880493D01*
X1699832Y1877827D01*
Y1872495D01*
X1702497D02*
Y1880493D01*
X1706496D01*
X1707829Y1879160D01*
Y1873828D01*
X1706496Y1872495D01*
X1702497D01*
X1710495Y1880493D02*
X1713161D01*
X1711828D01*
Y1872495D01*
X1710495Y1873828D01*
X1717159Y1879160D02*
X1718492Y1880493D01*
X1721158D01*
X1722491Y1879160D01*
Y1873828D01*
X1721158Y1872495D01*
X1718492D01*
X1717159Y1873828D01*
Y1875161D01*
X1718492Y1876494D01*
X1722491D01*
X1589250Y1872495D02*
Y1877827D01*
X1591916Y1880493D01*
X1594582Y1877827D01*
Y1872495D01*
X1597247D02*
Y1880493D01*
X1601246D01*
X1602579Y1879160D01*
Y1873828D01*
X1601246Y1872495D01*
X1597247D01*
X1605245Y1880493D02*
X1607911D01*
X1606578D01*
Y1872495D01*
X1605245Y1873828D01*
X1611909D02*
X1613242Y1872495D01*
X1615908D01*
X1617241Y1873828D01*
Y1875161D01*
X1615908Y1876494D01*
X1617241Y1877827D01*
Y1879160D01*
X1615908Y1880493D01*
X1613242D01*
X1611909Y1879160D01*
Y1877827D01*
X1613242Y1876494D01*
X1611909Y1875161D01*
Y1873828D01*
X1613242Y1876494D02*
X1615908D01*
X1485250Y1872495D02*
Y1877827D01*
X1487916Y1880493D01*
X1490582Y1877827D01*
Y1872495D01*
X1493247D02*
Y1880493D01*
X1497246D01*
X1498579Y1879160D01*
Y1873828D01*
X1497246Y1872495D01*
X1493247D01*
X1501245Y1880493D02*
X1503911D01*
X1502578D01*
Y1872495D01*
X1501245Y1873828D01*
X1507909Y1872495D02*
X1513241D01*
Y1873828D01*
X1507909Y1879160D01*
Y1880493D01*
X1377500Y1872495D02*
Y1877827D01*
X1380166Y1880493D01*
X1382832Y1877827D01*
Y1872495D01*
X1385497D02*
Y1880493D01*
X1389496D01*
X1390829Y1879160D01*
Y1873828D01*
X1389496Y1872495D01*
X1385497D01*
X1393495Y1880493D02*
X1396161D01*
X1394828D01*
Y1872495D01*
X1393495Y1873828D01*
X1405491Y1872495D02*
X1402825Y1873828D01*
X1400159Y1876494D01*
Y1879160D01*
X1401492Y1880493D01*
X1404158D01*
X1405491Y1879160D01*
Y1877827D01*
X1404158Y1876494D01*
X1400159D01*
X1272000Y1872495D02*
Y1877827D01*
X1274666Y1880493D01*
X1277332Y1877827D01*
Y1872495D01*
X1279997D02*
Y1880493D01*
X1283996D01*
X1285329Y1879160D01*
Y1873828D01*
X1283996Y1872495D01*
X1279997D01*
X1287995Y1880493D02*
X1290661D01*
X1289328D01*
Y1872495D01*
X1287995Y1873828D01*
X1294659D02*
X1295992Y1872495D01*
X1298658D01*
X1299991Y1873828D01*
Y1875161D01*
X1298658Y1876494D01*
X1297325D01*
X1298658D01*
X1299991Y1877827D01*
Y1879160D01*
X1298658Y1880493D01*
X1295992D01*
X1294659Y1879160D01*
X1167500Y1872495D02*
Y1877827D01*
X1170166Y1880493D01*
X1172832Y1877827D01*
Y1872495D01*
X1175497D02*
Y1880493D01*
X1179496D01*
X1180829Y1879160D01*
Y1873828D01*
X1179496Y1872495D01*
X1175497D01*
X1183495Y1880493D02*
X1186161D01*
X1184828D01*
Y1872495D01*
X1183495Y1873828D01*
X1195491Y1880493D02*
X1190159D01*
X1195491Y1875161D01*
Y1873828D01*
X1194158Y1872495D01*
X1191492D01*
X1190159Y1873828D01*
X1063750Y1872495D02*
Y1877827D01*
X1066416Y1880493D01*
X1069082Y1877827D01*
Y1872495D01*
X1071748D02*
Y1880493D01*
X1075746D01*
X1077079Y1879160D01*
Y1873828D01*
X1075746Y1872495D01*
X1071748D01*
X1079745Y1880493D02*
X1082411D01*
X1081078D01*
Y1872495D01*
X1079745Y1873828D01*
X1086409Y1880493D02*
X1089075D01*
X1087742D01*
Y1872495D01*
X1086409Y1873828D01*
X955750Y1872495D02*
Y1877827D01*
X958416Y1880493D01*
X961082Y1877827D01*
Y1872495D01*
X963747D02*
Y1880493D01*
X967746D01*
X969079Y1879160D01*
Y1873828D01*
X967746Y1872495D01*
X963747D01*
X971745Y1880493D02*
X974411D01*
X973078D01*
Y1872495D01*
X971745Y1873828D01*
X978409D02*
X979742Y1872495D01*
X982408D01*
X983741Y1873828D01*
Y1879160D01*
X982408Y1880493D01*
X979742D01*
X978409Y1879160D01*
Y1873828D01*
X853750Y1872495D02*
Y1877827D01*
X856416Y1880493D01*
X859082Y1877827D01*
Y1872495D01*
X861747D02*
Y1880493D01*
X865746D01*
X867079Y1879160D01*
Y1873828D01*
X865746Y1872495D01*
X861747D01*
X869745Y1879160D02*
X871078Y1880493D01*
X873744D01*
X875077Y1879160D01*
Y1873828D01*
X873744Y1872495D01*
X871078D01*
X869745Y1873828D01*
Y1875161D01*
X871078Y1876494D01*
X875077D01*
X746000Y1872495D02*
Y1877827D01*
X748666Y1880493D01*
X751332Y1877827D01*
Y1872495D01*
X753997D02*
Y1880493D01*
X757996D01*
X759329Y1879160D01*
Y1873828D01*
X757996Y1872495D01*
X753997D01*
X761995Y1873828D02*
X763328Y1872495D01*
X765994D01*
X767327Y1873828D01*
Y1875161D01*
X765994Y1876494D01*
X767327Y1877827D01*
Y1879160D01*
X765994Y1880493D01*
X763328D01*
X761995Y1879160D01*
Y1877827D01*
X763328Y1876494D01*
X761995Y1875161D01*
Y1873828D01*
X763328Y1876494D02*
X765994D01*
X642750Y1872495D02*
Y1877827D01*
X645416Y1880493D01*
X648082Y1877827D01*
Y1872495D01*
X650747D02*
Y1880493D01*
X654746D01*
X656079Y1879160D01*
Y1873828D01*
X654746Y1872495D01*
X650747D01*
X664076D02*
X661411Y1873828D01*
X658745Y1876494D01*
Y1879160D01*
X660078Y1880493D01*
X662744D01*
X664076Y1879160D01*
Y1877827D01*
X662744Y1876494D01*
X658745D01*
X542250Y1872495D02*
Y1877827D01*
X544916Y1880493D01*
X547582Y1877827D01*
Y1872495D01*
X550247D02*
Y1880493D01*
X554246D01*
X555579Y1879160D01*
Y1873828D01*
X554246Y1872495D01*
X550247D01*
X563576D02*
X558245D01*
Y1876494D01*
X560911Y1875161D01*
X562243D01*
X563576Y1876494D01*
Y1879160D01*
X562243Y1880493D01*
X559578D01*
X558245Y1879160D01*
X435750Y1872495D02*
Y1877827D01*
X438416Y1880493D01*
X441082Y1877827D01*
Y1872495D01*
X443747D02*
Y1880493D01*
X447746D01*
X449079Y1879160D01*
Y1873828D01*
X447746Y1872495D01*
X443747D01*
X455744Y1880493D02*
Y1872495D01*
X451745Y1876494D01*
X457076D01*
X331250Y1872495D02*
Y1877827D01*
X333916Y1880493D01*
X336582Y1877827D01*
Y1872495D01*
X339248D02*
Y1880493D01*
X343246D01*
X344579Y1879160D01*
Y1873828D01*
X343246Y1872495D01*
X339248D01*
X347245Y1873828D02*
X348578Y1872495D01*
X351244D01*
X352576Y1873828D01*
Y1875161D01*
X351244Y1876494D01*
X349911D01*
X351244D01*
X352576Y1877827D01*
Y1879160D01*
X351244Y1880493D01*
X348578D01*
X347245Y1879160D01*
X123000Y1872495D02*
Y1877827D01*
X125666Y1880493D01*
X128332Y1877827D01*
Y1872495D01*
X130997D02*
Y1880493D01*
X134996D01*
X136329Y1879160D01*
Y1873828D01*
X134996Y1872495D01*
X130997D01*
X138995Y1880493D02*
X141661D01*
X140328D01*
Y1872495D01*
X138995Y1873828D01*
X1903250Y2025495D02*
Y2030827D01*
X1905916Y2033493D01*
X1908582Y2030827D01*
Y2025495D01*
X1911248D02*
Y2033493D01*
X1915246D01*
X1916579Y2032160D01*
Y2026828D01*
X1915246Y2025495D01*
X1911248D01*
X1924577Y2033493D02*
X1919245D01*
X1924577Y2028161D01*
Y2026828D01*
X1923244Y2025495D01*
X1920578D01*
X1919245Y2026828D01*
X1927242Y2033493D02*
X1929908D01*
X1928575D01*
Y2025495D01*
X1927242Y2026828D01*
X1798500Y2025495D02*
Y2030827D01*
X1801166Y2033493D01*
X1803832Y2030827D01*
Y2025495D01*
X1806497D02*
Y2033493D01*
X1810496D01*
X1811829Y2032160D01*
Y2026828D01*
X1810496Y2025495D01*
X1806497D01*
X1819826Y2033493D02*
X1814495D01*
X1819826Y2028161D01*
Y2026828D01*
X1818493Y2025495D01*
X1815828D01*
X1814495Y2026828D01*
X1822492D02*
X1823825Y2025495D01*
X1826491D01*
X1827824Y2026828D01*
Y2032160D01*
X1826491Y2033493D01*
X1823825D01*
X1822492Y2032160D01*
Y2026828D01*
X1694500Y2025495D02*
Y2030827D01*
X1697166Y2033493D01*
X1699832Y2030827D01*
Y2025495D01*
X1702497D02*
Y2033493D01*
X1706496D01*
X1707829Y2032160D01*
Y2026828D01*
X1706496Y2025495D01*
X1702497D01*
X1710495Y2033493D02*
X1713161D01*
X1711828D01*
Y2025495D01*
X1710495Y2026828D01*
X1717159Y2032160D02*
X1718492Y2033493D01*
X1721158D01*
X1722491Y2032160D01*
Y2026828D01*
X1721158Y2025495D01*
X1718492D01*
X1717159Y2026828D01*
Y2028161D01*
X1718492Y2029494D01*
X1722491D01*
X1589250Y2025495D02*
Y2030827D01*
X1591916Y2033493D01*
X1594582Y2030827D01*
Y2025495D01*
X1597247D02*
Y2033493D01*
X1601246D01*
X1602579Y2032160D01*
Y2026828D01*
X1601246Y2025495D01*
X1597247D01*
X1605245Y2033493D02*
X1607911D01*
X1606578D01*
Y2025495D01*
X1605245Y2026828D01*
X1611909D02*
X1613242Y2025495D01*
X1615908D01*
X1617241Y2026828D01*
Y2028161D01*
X1615908Y2029494D01*
X1617241Y2030827D01*
Y2032160D01*
X1615908Y2033493D01*
X1613242D01*
X1611909Y2032160D01*
Y2030827D01*
X1613242Y2029494D01*
X1611909Y2028161D01*
Y2026828D01*
X1613242Y2029494D02*
X1615908D01*
X1485250Y2025495D02*
Y2030827D01*
X1487916Y2033493D01*
X1490582Y2030827D01*
Y2025495D01*
X1493247D02*
Y2033493D01*
X1497246D01*
X1498579Y2032160D01*
Y2026828D01*
X1497246Y2025495D01*
X1493247D01*
X1501245Y2033493D02*
X1503911D01*
X1502578D01*
Y2025495D01*
X1501245Y2026828D01*
X1507909Y2025495D02*
X1513241D01*
Y2026828D01*
X1507909Y2032160D01*
Y2033493D01*
X1377500Y2025495D02*
Y2030827D01*
X1380166Y2033493D01*
X1382832Y2030827D01*
Y2025495D01*
X1385497D02*
Y2033493D01*
X1389496D01*
X1390829Y2032160D01*
Y2026828D01*
X1389496Y2025495D01*
X1385497D01*
X1393495Y2033493D02*
X1396161D01*
X1394828D01*
Y2025495D01*
X1393495Y2026828D01*
X1405491Y2025495D02*
X1402825Y2026828D01*
X1400159Y2029494D01*
Y2032160D01*
X1401492Y2033493D01*
X1404158D01*
X1405491Y2032160D01*
Y2030827D01*
X1404158Y2029494D01*
X1400159D01*
X1272000Y2025495D02*
Y2030827D01*
X1274666Y2033493D01*
X1277332Y2030827D01*
Y2025495D01*
X1279997D02*
Y2033493D01*
X1283996D01*
X1285329Y2032160D01*
Y2026828D01*
X1283996Y2025495D01*
X1279997D01*
X1287995Y2033493D02*
X1290661D01*
X1289328D01*
Y2025495D01*
X1287995Y2026828D01*
X1294659D02*
X1295992Y2025495D01*
X1298658D01*
X1299991Y2026828D01*
Y2028161D01*
X1298658Y2029494D01*
X1297325D01*
X1298658D01*
X1299991Y2030827D01*
Y2032160D01*
X1298658Y2033493D01*
X1295992D01*
X1294659Y2032160D01*
X1167500Y2025495D02*
Y2030827D01*
X1170166Y2033493D01*
X1172832Y2030827D01*
Y2025495D01*
X1175497D02*
Y2033493D01*
X1179496D01*
X1180829Y2032160D01*
Y2026828D01*
X1179496Y2025495D01*
X1175497D01*
X1183495Y2033493D02*
X1186161D01*
X1184828D01*
Y2025495D01*
X1183495Y2026828D01*
X1195491Y2033493D02*
X1190159D01*
X1195491Y2028161D01*
Y2026828D01*
X1194158Y2025495D01*
X1191492D01*
X1190159Y2026828D01*
X1063750Y2025495D02*
Y2030827D01*
X1066416Y2033493D01*
X1069082Y2030827D01*
Y2025495D01*
X1071748D02*
Y2033493D01*
X1075746D01*
X1077079Y2032160D01*
Y2026828D01*
X1075746Y2025495D01*
X1071748D01*
X1079745Y2033493D02*
X1082411D01*
X1081078D01*
Y2025495D01*
X1079745Y2026828D01*
X1086409Y2033493D02*
X1089075D01*
X1087742D01*
Y2025495D01*
X1086409Y2026828D01*
X955750Y2025495D02*
Y2030827D01*
X958416Y2033493D01*
X961082Y2030827D01*
Y2025495D01*
X963747D02*
Y2033493D01*
X967746D01*
X969079Y2032160D01*
Y2026828D01*
X967746Y2025495D01*
X963747D01*
X971745Y2033493D02*
X974411D01*
X973078D01*
Y2025495D01*
X971745Y2026828D01*
X978409D02*
X979742Y2025495D01*
X982408D01*
X983741Y2026828D01*
Y2032160D01*
X982408Y2033493D01*
X979742D01*
X978409Y2032160D01*
Y2026828D01*
X853750Y2025495D02*
Y2030827D01*
X856416Y2033493D01*
X859082Y2030827D01*
Y2025495D01*
X861747D02*
Y2033493D01*
X865746D01*
X867079Y2032160D01*
Y2026828D01*
X865746Y2025495D01*
X861747D01*
X869745Y2032160D02*
X871078Y2033493D01*
X873744D01*
X875077Y2032160D01*
Y2026828D01*
X873744Y2025495D01*
X871078D01*
X869745Y2026828D01*
Y2028161D01*
X871078Y2029494D01*
X875077D01*
X746000Y2025495D02*
Y2030827D01*
X748666Y2033493D01*
X751332Y2030827D01*
Y2025495D01*
X753997D02*
Y2033493D01*
X757996D01*
X759329Y2032160D01*
Y2026828D01*
X757996Y2025495D01*
X753997D01*
X761995Y2026828D02*
X763328Y2025495D01*
X765994D01*
X767327Y2026828D01*
Y2028161D01*
X765994Y2029494D01*
X767327Y2030827D01*
Y2032160D01*
X765994Y2033493D01*
X763328D01*
X761995Y2032160D01*
Y2030827D01*
X763328Y2029494D01*
X761995Y2028161D01*
Y2026828D01*
X763328Y2029494D02*
X765994D01*
X642750Y2025495D02*
Y2030827D01*
X645416Y2033493D01*
X648082Y2030827D01*
Y2025495D01*
X650747D02*
Y2033493D01*
X654746D01*
X656079Y2032160D01*
Y2026828D01*
X654746Y2025495D01*
X650747D01*
X664076D02*
X661411Y2026828D01*
X658745Y2029494D01*
Y2032160D01*
X660078Y2033493D01*
X662744D01*
X664076Y2032160D01*
Y2030827D01*
X662744Y2029494D01*
X658745D01*
X542250Y2025495D02*
Y2030827D01*
X544916Y2033493D01*
X547582Y2030827D01*
Y2025495D01*
X550247D02*
Y2033493D01*
X554246D01*
X555579Y2032160D01*
Y2026828D01*
X554246Y2025495D01*
X550247D01*
X563576D02*
X558245D01*
Y2029494D01*
X560911Y2028161D01*
X562243D01*
X563576Y2029494D01*
Y2032160D01*
X562243Y2033493D01*
X559578D01*
X558245Y2032160D01*
X435750Y2025495D02*
Y2030827D01*
X438416Y2033493D01*
X441082Y2030827D01*
Y2025495D01*
X443747D02*
Y2033493D01*
X447746D01*
X449079Y2032160D01*
Y2026828D01*
X447746Y2025495D01*
X443747D01*
X455744Y2033493D02*
Y2025495D01*
X451745Y2029494D01*
X457076D01*
X331250Y2025495D02*
Y2030827D01*
X333916Y2033493D01*
X336582Y2030827D01*
Y2025495D01*
X339248D02*
Y2033493D01*
X343246D01*
X344579Y2032160D01*
Y2026828D01*
X343246Y2025495D01*
X339248D01*
X347245Y2026828D02*
X348578Y2025495D01*
X351244D01*
X352576Y2026828D01*
Y2028161D01*
X351244Y2029494D01*
X349911D01*
X351244D01*
X352576Y2030827D01*
Y2032160D01*
X351244Y2033493D01*
X348578D01*
X347245Y2032160D01*
X123000Y2025495D02*
Y2030827D01*
X125666Y2033493D01*
X128332Y2030827D01*
Y2025495D01*
X130997D02*
Y2033493D01*
X134996D01*
X136329Y2032160D01*
Y2026828D01*
X134996Y2025495D01*
X130997D01*
X138995Y2033493D02*
X141661D01*
X140328D01*
Y2025495D01*
X138995Y2026828D01*
M02*
