G04 Layer_Physical_Order=2*
G04 Layer_Color=16711680*
%FSLAX44Y44*%
%MOMM*%
G71*
G01*
G75*
%ADD10C,2.0000*%
%ADD12C,1.0000*%
%ADD24R,2.0000X2.8000*%
G36*
X1993881Y1993120D02*
X1923750D01*
Y2137881D01*
X1993881D01*
Y1993120D01*
D02*
G37*
G36*
X1908750D02*
X1819250D01*
Y2137881D01*
X1908750D01*
X1908750Y1993120D01*
D02*
G37*
G36*
X1804000D02*
X1713750D01*
Y2137881D01*
X1804000D01*
X1804000Y1993120D01*
D02*
G37*
G36*
X1698750D02*
X1608750D01*
Y2137881D01*
X1698750D01*
X1698750Y1993120D01*
D02*
G37*
G36*
X1593750D02*
X1504000D01*
Y2137881D01*
X1593750D01*
X1593750Y1993120D01*
D02*
G37*
G36*
X1489000D02*
X1398750D01*
Y2137881D01*
X1489000D01*
X1489000Y1993120D01*
D02*
G37*
G36*
X1384000D02*
X1340750D01*
Y2137881D01*
X1384000D01*
Y1993120D01*
D02*
G37*
G36*
X1335000D02*
X1294000D01*
Y2137881D01*
X1335000D01*
Y1993120D01*
D02*
G37*
G36*
X1279000D02*
X1189250D01*
Y2137881D01*
X1279000D01*
Y1993120D01*
D02*
G37*
G36*
X1174000D02*
X1084000D01*
Y2137881D01*
X1174000D01*
X1174000Y1993120D01*
D02*
G37*
G36*
X1069000D02*
X979000D01*
Y2137881D01*
X1069000D01*
Y1993120D01*
D02*
G37*
G36*
X963750D02*
X874250D01*
Y2137881D01*
X963750D01*
Y1993120D01*
D02*
G37*
G36*
X859000D02*
X769000D01*
Y2137881D01*
X859000D01*
Y1993120D01*
D02*
G37*
G36*
X754000D02*
X714000D01*
Y2137881D01*
X754000D01*
Y1993120D01*
D02*
G37*
G36*
X706000D02*
X664250D01*
Y2137881D01*
X706000D01*
Y1993120D01*
D02*
G37*
G36*
X649250D02*
X559250D01*
Y2137881D01*
X649250D01*
X649250Y1993120D01*
D02*
G37*
G36*
X543750D02*
X454000D01*
Y2137881D01*
X543750D01*
X543750Y1993120D01*
D02*
G37*
G36*
X438750D02*
X349000D01*
Y2137881D01*
X438750D01*
Y1993120D01*
D02*
G37*
G36*
X333750D02*
X245250D01*
Y2137881D01*
X333750D01*
Y1993120D01*
D02*
G37*
G36*
X229000D02*
X139250D01*
Y2137881D01*
X229000D01*
Y1993120D01*
D02*
G37*
G36*
X124000D02*
X54119D01*
Y2137881D01*
X124000D01*
Y1993120D01*
D02*
G37*
G36*
X1993881Y1840119D02*
X1923750D01*
Y1984881D01*
X1993881D01*
Y1840119D01*
D02*
G37*
G36*
X1908750D02*
X1819250D01*
Y1984881D01*
X1908750D01*
X1908750Y1840119D01*
D02*
G37*
G36*
X1804000D02*
X1713750D01*
Y1984881D01*
X1804000D01*
X1804000Y1840119D01*
D02*
G37*
G36*
X1698750D02*
X1608750D01*
Y1984881D01*
X1698750D01*
X1698750Y1840119D01*
D02*
G37*
G36*
X1593750D02*
X1504000D01*
Y1984881D01*
X1593750D01*
X1593750Y1840119D01*
D02*
G37*
G36*
X1489000D02*
X1398750D01*
Y1984881D01*
X1489000D01*
X1489000Y1840119D01*
D02*
G37*
G36*
X1384000D02*
X1340750D01*
Y1984881D01*
X1384000D01*
Y1840119D01*
D02*
G37*
G36*
X1335000D02*
X1294000D01*
Y1984881D01*
X1335000D01*
Y1840119D01*
D02*
G37*
G36*
X1279000D02*
X1189250D01*
Y1984881D01*
X1279000D01*
Y1840119D01*
D02*
G37*
G36*
X1174000D02*
X1084000D01*
Y1984881D01*
X1174000D01*
X1174000Y1840119D01*
D02*
G37*
G36*
X1069000D02*
X979000D01*
Y1984881D01*
X1069000D01*
Y1840119D01*
D02*
G37*
G36*
X963750D02*
X874250D01*
Y1984881D01*
X963750D01*
Y1840119D01*
D02*
G37*
G36*
X859000D02*
X769000D01*
Y1984881D01*
X859000D01*
Y1840119D01*
D02*
G37*
G36*
X754000D02*
X714000D01*
Y1984881D01*
X754000D01*
Y1840119D01*
D02*
G37*
G36*
X706000D02*
X664250D01*
Y1984881D01*
X706000D01*
Y1840119D01*
D02*
G37*
G36*
X649250D02*
X559250D01*
Y1984881D01*
X649250D01*
X649250Y1840119D01*
D02*
G37*
G36*
X543750D02*
X454000D01*
Y1984881D01*
X543750D01*
X543750Y1840119D01*
D02*
G37*
G36*
X438750D02*
X349000D01*
Y1984881D01*
X438750D01*
Y1840119D01*
D02*
G37*
G36*
X333750D02*
X245250D01*
Y1984881D01*
X333750D01*
Y1840119D01*
D02*
G37*
G36*
X229000D02*
X139250D01*
Y1984881D01*
X229000D01*
Y1840119D01*
D02*
G37*
G36*
X124000D02*
X54119D01*
Y1984881D01*
X124000D01*
Y1840119D01*
D02*
G37*
G36*
X1993881Y1687119D02*
X1923750D01*
Y1831881D01*
X1993881D01*
Y1687119D01*
D02*
G37*
G36*
X1908750D02*
X1819250D01*
Y1831881D01*
X1908750D01*
X1908750Y1687119D01*
D02*
G37*
G36*
X1804000D02*
X1713750D01*
Y1831881D01*
X1804000D01*
X1804000Y1687119D01*
D02*
G37*
G36*
X1698750D02*
X1608750D01*
Y1831881D01*
X1698750D01*
X1698750Y1687119D01*
D02*
G37*
G36*
X1593750D02*
X1504000D01*
Y1831881D01*
X1593750D01*
X1593750Y1687119D01*
D02*
G37*
G36*
X1489000D02*
X1398750D01*
Y1831881D01*
X1489000D01*
X1489000Y1687119D01*
D02*
G37*
G36*
X1384000D02*
X1340750D01*
Y1831881D01*
X1384000D01*
Y1687119D01*
D02*
G37*
G36*
X1335000D02*
X1294000D01*
Y1831881D01*
X1335000D01*
Y1687119D01*
D02*
G37*
G36*
X1279000D02*
X1189250D01*
Y1831881D01*
X1279000D01*
Y1687119D01*
D02*
G37*
G36*
X1174000D02*
X1084000D01*
Y1831881D01*
X1174000D01*
X1174000Y1687119D01*
D02*
G37*
G36*
X1069000D02*
X979000D01*
Y1831881D01*
X1069000D01*
Y1687119D01*
D02*
G37*
G36*
X963750D02*
X874250D01*
Y1831881D01*
X963750D01*
Y1687119D01*
D02*
G37*
G36*
X859000D02*
X769000D01*
Y1831881D01*
X859000D01*
Y1687119D01*
D02*
G37*
G36*
X754000D02*
X714000D01*
Y1831881D01*
X754000D01*
Y1687119D01*
D02*
G37*
G36*
X706000D02*
X664250D01*
Y1831881D01*
X706000D01*
Y1687119D01*
D02*
G37*
G36*
X649250D02*
X559250D01*
Y1831881D01*
X649250D01*
X649250Y1687119D01*
D02*
G37*
G36*
X543750D02*
X454000D01*
Y1831881D01*
X543750D01*
X543750Y1687119D01*
D02*
G37*
G36*
X438750D02*
X349000D01*
Y1831881D01*
X438750D01*
Y1687119D01*
D02*
G37*
G36*
X333750D02*
X245250D01*
Y1831881D01*
X333750D01*
Y1687119D01*
D02*
G37*
G36*
X229000D02*
X139250D01*
Y1831881D01*
X229000D01*
Y1687119D01*
D02*
G37*
G36*
X124000D02*
X54119D01*
Y1831881D01*
X124000D01*
Y1687119D01*
D02*
G37*
G36*
X1993881Y1534119D02*
X1923750D01*
Y1678881D01*
X1993881D01*
Y1534119D01*
D02*
G37*
G36*
X1908750D02*
X1819250D01*
Y1678881D01*
X1908750D01*
X1908750Y1534119D01*
D02*
G37*
G36*
X1804000D02*
X1713750D01*
Y1678881D01*
X1804000D01*
X1804000Y1534119D01*
D02*
G37*
G36*
X1698750D02*
X1608750D01*
Y1678881D01*
X1698750D01*
X1698750Y1534119D01*
D02*
G37*
G36*
X1593750D02*
X1504000D01*
Y1678881D01*
X1593750D01*
X1593750Y1534119D01*
D02*
G37*
G36*
X1489000D02*
X1398750D01*
Y1678881D01*
X1489000D01*
X1489000Y1534119D01*
D02*
G37*
G36*
X1384000D02*
X1340750D01*
Y1678881D01*
X1384000D01*
Y1534119D01*
D02*
G37*
G36*
X1335000D02*
X1294000D01*
Y1678881D01*
X1335000D01*
Y1534119D01*
D02*
G37*
G36*
X1279000D02*
X1189250D01*
Y1678881D01*
X1279000D01*
Y1534119D01*
D02*
G37*
G36*
X1174000D02*
X1084000D01*
Y1678881D01*
X1174000D01*
X1174000Y1534119D01*
D02*
G37*
G36*
X1069000D02*
X979000D01*
Y1678881D01*
X1069000D01*
Y1534119D01*
D02*
G37*
G36*
X963750D02*
X874250D01*
Y1678881D01*
X963750D01*
Y1534119D01*
D02*
G37*
G36*
X859000D02*
X769000D01*
Y1678881D01*
X859000D01*
Y1534119D01*
D02*
G37*
G36*
X754000D02*
X714000D01*
Y1678881D01*
X754000D01*
Y1534119D01*
D02*
G37*
G36*
X706000D02*
X664250D01*
Y1678881D01*
X706000D01*
Y1534119D01*
D02*
G37*
G36*
X649250D02*
X559250D01*
Y1678881D01*
X649250D01*
X649250Y1534119D01*
D02*
G37*
G36*
X543750D02*
X454000D01*
Y1678881D01*
X543750D01*
X543750Y1534119D01*
D02*
G37*
G36*
X438750D02*
X349000D01*
Y1678881D01*
X438750D01*
Y1534119D01*
D02*
G37*
G36*
X333750D02*
X245250D01*
Y1678881D01*
X333750D01*
Y1534119D01*
D02*
G37*
G36*
X229000D02*
X139250D01*
Y1678881D01*
X229000D01*
Y1534119D01*
D02*
G37*
G36*
X124000D02*
X54119D01*
Y1678881D01*
X124000D01*
Y1534119D01*
D02*
G37*
G36*
X1993881Y1381119D02*
X1923750D01*
Y1525881D01*
X1993881D01*
Y1381119D01*
D02*
G37*
G36*
X1908750D02*
X1819250D01*
Y1525881D01*
X1908750D01*
X1908750Y1381119D01*
D02*
G37*
G36*
X1804000D02*
X1713750D01*
Y1525881D01*
X1804000D01*
X1804000Y1381119D01*
D02*
G37*
G36*
X1698750D02*
X1608750D01*
Y1525881D01*
X1698750D01*
X1698750Y1381119D01*
D02*
G37*
G36*
X1593750D02*
X1504000D01*
Y1525881D01*
X1593750D01*
X1593750Y1381119D01*
D02*
G37*
G36*
X1489000D02*
X1398750D01*
Y1525881D01*
X1489000D01*
X1489000Y1381119D01*
D02*
G37*
G36*
X1384000D02*
X1340750D01*
Y1525881D01*
X1384000D01*
Y1381119D01*
D02*
G37*
G36*
X1335000D02*
X1294000D01*
Y1525881D01*
X1335000D01*
Y1381119D01*
D02*
G37*
G36*
X1279000D02*
X1189250D01*
Y1525881D01*
X1279000D01*
Y1381119D01*
D02*
G37*
G36*
X1174000D02*
X1084000D01*
Y1525881D01*
X1174000D01*
X1174000Y1381119D01*
D02*
G37*
G36*
X1069000D02*
X979000D01*
Y1525881D01*
X1069000D01*
Y1381119D01*
D02*
G37*
G36*
X963750D02*
X874250D01*
Y1525881D01*
X963750D01*
Y1381119D01*
D02*
G37*
G36*
X859000D02*
X769000D01*
Y1525881D01*
X859000D01*
Y1381119D01*
D02*
G37*
G36*
X754000D02*
X714000D01*
Y1525881D01*
X754000D01*
Y1381119D01*
D02*
G37*
G36*
X706000D02*
X664250D01*
Y1525881D01*
X706000D01*
Y1381119D01*
D02*
G37*
G36*
X649250D02*
X559250D01*
Y1525881D01*
X649250D01*
X649250Y1381119D01*
D02*
G37*
G36*
X543750D02*
X454000D01*
Y1525881D01*
X543750D01*
X543750Y1381119D01*
D02*
G37*
G36*
X438750D02*
X349000D01*
Y1525881D01*
X438750D01*
Y1381119D01*
D02*
G37*
G36*
X333750D02*
X245250D01*
Y1525881D01*
X333750D01*
Y1381119D01*
D02*
G37*
G36*
X229000D02*
X139250D01*
Y1525881D01*
X229000D01*
Y1381119D01*
D02*
G37*
G36*
X124000D02*
X54119D01*
Y1525881D01*
X124000D01*
Y1381119D01*
D02*
G37*
G36*
X1993881Y1228119D02*
X1923750D01*
Y1372881D01*
X1993881D01*
Y1228119D01*
D02*
G37*
G36*
X1908750D02*
X1819250D01*
Y1372881D01*
X1908750D01*
X1908750Y1228119D01*
D02*
G37*
G36*
X1804000D02*
X1713750D01*
Y1372881D01*
X1804000D01*
X1804000Y1228119D01*
D02*
G37*
G36*
X1698750D02*
X1608750D01*
Y1372881D01*
X1698750D01*
X1698750Y1228119D01*
D02*
G37*
G36*
X1593750D02*
X1504000D01*
Y1372881D01*
X1593750D01*
X1593750Y1228119D01*
D02*
G37*
G36*
X1489000D02*
X1398750D01*
Y1372881D01*
X1489000D01*
X1489000Y1228119D01*
D02*
G37*
G36*
X1384000D02*
X1340750D01*
Y1372881D01*
X1384000D01*
Y1228119D01*
D02*
G37*
G36*
X1335000D02*
X1294000D01*
Y1372881D01*
X1335000D01*
Y1228119D01*
D02*
G37*
G36*
X1279000D02*
X1189250D01*
Y1372881D01*
X1279000D01*
Y1228119D01*
D02*
G37*
G36*
X1174000D02*
X1084000D01*
Y1372881D01*
X1174000D01*
X1174000Y1228119D01*
D02*
G37*
G36*
X1069000D02*
X979000D01*
Y1372881D01*
X1069000D01*
Y1228119D01*
D02*
G37*
G36*
X963750D02*
X874250D01*
Y1372881D01*
X963750D01*
Y1228119D01*
D02*
G37*
G36*
X859000D02*
X769000D01*
Y1372881D01*
X859000D01*
Y1228119D01*
D02*
G37*
G36*
X754000D02*
X714000D01*
Y1372881D01*
X754000D01*
Y1228119D01*
D02*
G37*
G36*
X706000D02*
X664250D01*
Y1372881D01*
X706000D01*
Y1228119D01*
D02*
G37*
G36*
X649250D02*
X559250D01*
Y1372881D01*
X649250D01*
X649250Y1228119D01*
D02*
G37*
G36*
X543750D02*
X454000D01*
Y1372881D01*
X543750D01*
X543750Y1228119D01*
D02*
G37*
G36*
X438750D02*
X349000D01*
Y1372881D01*
X438750D01*
Y1228119D01*
D02*
G37*
G36*
X333750D02*
X245250D01*
Y1372881D01*
X333750D01*
Y1228119D01*
D02*
G37*
G36*
X229000D02*
X139250D01*
Y1372881D01*
X229000D01*
Y1228119D01*
D02*
G37*
G36*
X124000D02*
X54119D01*
Y1372881D01*
X124000D01*
Y1228119D01*
D02*
G37*
G36*
X1993881Y1075119D02*
X1923750D01*
Y1219881D01*
X1993881D01*
Y1075119D01*
D02*
G37*
G36*
X1908750D02*
X1819250D01*
Y1219881D01*
X1908750D01*
X1908750Y1075119D01*
D02*
G37*
G36*
X1804000D02*
X1713750D01*
Y1219881D01*
X1804000D01*
X1804000Y1075119D01*
D02*
G37*
G36*
X1698750D02*
X1608750D01*
Y1219881D01*
X1698750D01*
X1698750Y1075119D01*
D02*
G37*
G36*
X1593750D02*
X1504000D01*
Y1219881D01*
X1593750D01*
X1593750Y1075119D01*
D02*
G37*
G36*
X1489000D02*
X1398750D01*
Y1219881D01*
X1489000D01*
X1489000Y1075119D01*
D02*
G37*
G36*
X1384000D02*
X1340750D01*
Y1219881D01*
X1384000D01*
Y1075119D01*
D02*
G37*
G36*
X1335000D02*
X1294000D01*
Y1219881D01*
X1335000D01*
Y1075119D01*
D02*
G37*
G36*
X1279000D02*
X1189250D01*
Y1219881D01*
X1279000D01*
Y1075119D01*
D02*
G37*
G36*
X1174000D02*
X1084000D01*
Y1219881D01*
X1174000D01*
X1174000Y1075119D01*
D02*
G37*
G36*
X1069000D02*
X979000D01*
Y1219881D01*
X1069000D01*
Y1075119D01*
D02*
G37*
G36*
X963750D02*
X874250D01*
Y1219881D01*
X963750D01*
Y1075119D01*
D02*
G37*
G36*
X859000D02*
X769000D01*
Y1219881D01*
X859000D01*
Y1075119D01*
D02*
G37*
G36*
X754000D02*
X714000D01*
Y1219881D01*
X754000D01*
Y1075119D01*
D02*
G37*
G36*
X706000D02*
X664250D01*
Y1219881D01*
X706000D01*
Y1075119D01*
D02*
G37*
G36*
X649250D02*
X559250D01*
Y1219881D01*
X649250D01*
X649250Y1075119D01*
D02*
G37*
G36*
X543750D02*
X454000D01*
Y1219881D01*
X543750D01*
X543750Y1075119D01*
D02*
G37*
G36*
X438750D02*
X349000D01*
Y1219881D01*
X438750D01*
Y1075119D01*
D02*
G37*
G36*
X333750D02*
X245250D01*
Y1219881D01*
X333750D01*
Y1075119D01*
D02*
G37*
G36*
X229000D02*
X139250D01*
Y1219881D01*
X229000D01*
Y1075119D01*
D02*
G37*
G36*
X124000D02*
X54119D01*
Y1219881D01*
X124000D01*
Y1075119D01*
D02*
G37*
G36*
X1993881Y922119D02*
X1923750D01*
Y1066881D01*
X1993881D01*
Y922119D01*
D02*
G37*
G36*
X1908750D02*
X1819250D01*
Y1066881D01*
X1908750D01*
X1908750Y922119D01*
D02*
G37*
G36*
X1804000D02*
X1713750D01*
Y1066881D01*
X1804000D01*
X1804000Y922119D01*
D02*
G37*
G36*
X1698750D02*
X1608750D01*
Y1066881D01*
X1698750D01*
X1698750Y922119D01*
D02*
G37*
G36*
X1593750D02*
X1504000D01*
Y1066881D01*
X1593750D01*
X1593750Y922119D01*
D02*
G37*
G36*
X1489000D02*
X1398750D01*
Y1066881D01*
X1489000D01*
X1489000Y922119D01*
D02*
G37*
G36*
X1384000D02*
X1340750D01*
Y1066881D01*
X1384000D01*
Y922119D01*
D02*
G37*
G36*
X1335000D02*
X1294000D01*
Y1066881D01*
X1335000D01*
Y922119D01*
D02*
G37*
G36*
X1279000D02*
X1189250D01*
Y1066881D01*
X1279000D01*
Y922119D01*
D02*
G37*
G36*
X1174000D02*
X1084000D01*
Y1066881D01*
X1174000D01*
X1174000Y922119D01*
D02*
G37*
G36*
X1069000D02*
X979000D01*
Y1066881D01*
X1069000D01*
Y922119D01*
D02*
G37*
G36*
X963750D02*
X874250D01*
Y1066881D01*
X963750D01*
Y922119D01*
D02*
G37*
G36*
X859000D02*
X769000D01*
Y1066881D01*
X859000D01*
Y922119D01*
D02*
G37*
G36*
X754000D02*
X714000D01*
Y1066881D01*
X754000D01*
Y922119D01*
D02*
G37*
G36*
X706000D02*
X664250D01*
Y1066881D01*
X706000D01*
Y922119D01*
D02*
G37*
G36*
X649250D02*
X559250D01*
Y1066881D01*
X649250D01*
X649250Y922119D01*
D02*
G37*
G36*
X543750D02*
X454000D01*
Y1066881D01*
X543750D01*
X543750Y922119D01*
D02*
G37*
G36*
X438750D02*
X349000D01*
Y1066881D01*
X438750D01*
Y922119D01*
D02*
G37*
G36*
X333750D02*
X245250D01*
Y1066881D01*
X333750D01*
Y922119D01*
D02*
G37*
G36*
X229000D02*
X139250D01*
Y1066881D01*
X229000D01*
Y922119D01*
D02*
G37*
G36*
X124000D02*
X54119D01*
Y1066881D01*
X124000D01*
Y922119D01*
D02*
G37*
G36*
X1993881Y769119D02*
X1923750D01*
Y913881D01*
X1993881D01*
Y769119D01*
D02*
G37*
G36*
X1908750D02*
X1819250D01*
Y913881D01*
X1908750D01*
X1908750Y769119D01*
D02*
G37*
G36*
X1804000D02*
X1713750D01*
Y913881D01*
X1804000D01*
X1804000Y769119D01*
D02*
G37*
G36*
X1698750D02*
X1608750D01*
Y913881D01*
X1698750D01*
X1698750Y769119D01*
D02*
G37*
G36*
X1593750D02*
X1504000D01*
Y913881D01*
X1593750D01*
X1593750Y769119D01*
D02*
G37*
G36*
X1489000D02*
X1398750D01*
Y913881D01*
X1489000D01*
X1489000Y769119D01*
D02*
G37*
G36*
X1384000D02*
X1340750D01*
Y913881D01*
X1384000D01*
Y769119D01*
D02*
G37*
G36*
X1335000D02*
X1294000D01*
Y913881D01*
X1335000D01*
Y769119D01*
D02*
G37*
G36*
X1279000D02*
X1189250D01*
Y913881D01*
X1279000D01*
Y769119D01*
D02*
G37*
G36*
X1174000D02*
X1084000D01*
Y913881D01*
X1174000D01*
X1174000Y769119D01*
D02*
G37*
G36*
X1069000D02*
X979000D01*
Y913881D01*
X1069000D01*
Y769119D01*
D02*
G37*
G36*
X963750D02*
X874250D01*
Y913881D01*
X963750D01*
Y769119D01*
D02*
G37*
G36*
X859000D02*
X769000D01*
Y913881D01*
X859000D01*
Y769119D01*
D02*
G37*
G36*
X754000D02*
X714000D01*
Y913881D01*
X754000D01*
Y769119D01*
D02*
G37*
G36*
X706000D02*
X664250D01*
Y913881D01*
X706000D01*
Y769119D01*
D02*
G37*
G36*
X649250D02*
X559250D01*
Y913881D01*
X649250D01*
X649250Y769119D01*
D02*
G37*
G36*
X543750D02*
X454000D01*
Y913881D01*
X543750D01*
X543750Y769119D01*
D02*
G37*
G36*
X438750D02*
X349000D01*
Y913881D01*
X438750D01*
Y769119D01*
D02*
G37*
G36*
X333750D02*
X245250D01*
Y913881D01*
X333750D01*
Y769119D01*
D02*
G37*
G36*
X229000D02*
X139250D01*
Y913881D01*
X229000D01*
Y769119D01*
D02*
G37*
G36*
X124000D02*
X54119D01*
Y913881D01*
X124000D01*
Y769119D01*
D02*
G37*
G36*
X1993881Y616119D02*
X1923750D01*
Y760881D01*
X1993881D01*
Y616119D01*
D02*
G37*
G36*
X1908750D02*
X1819250D01*
Y760881D01*
X1908750D01*
X1908750Y616119D01*
D02*
G37*
G36*
X1804000D02*
X1713750D01*
Y760881D01*
X1804000D01*
X1804000Y616119D01*
D02*
G37*
G36*
X1698750D02*
X1608750D01*
Y760881D01*
X1698750D01*
X1698750Y616119D01*
D02*
G37*
G36*
X1593750D02*
X1504000D01*
Y760881D01*
X1593750D01*
X1593750Y616119D01*
D02*
G37*
G36*
X1489000D02*
X1398750D01*
Y760881D01*
X1489000D01*
X1489000Y616119D01*
D02*
G37*
G36*
X1384000D02*
X1340750D01*
Y760881D01*
X1384000D01*
Y616119D01*
D02*
G37*
G36*
X1335000D02*
X1294000D01*
Y760881D01*
X1335000D01*
Y616119D01*
D02*
G37*
G36*
X1279000D02*
X1189250D01*
Y760881D01*
X1279000D01*
Y616119D01*
D02*
G37*
G36*
X1174000D02*
X1084000D01*
Y760881D01*
X1174000D01*
X1174000Y616119D01*
D02*
G37*
G36*
X1069000D02*
X979000D01*
Y760881D01*
X1069000D01*
Y616119D01*
D02*
G37*
G36*
X963750D02*
X874250D01*
Y760881D01*
X963750D01*
Y616119D01*
D02*
G37*
G36*
X859000D02*
X769000D01*
Y760881D01*
X859000D01*
Y616119D01*
D02*
G37*
G36*
X754000D02*
X714000D01*
Y760881D01*
X754000D01*
Y616119D01*
D02*
G37*
G36*
X706000D02*
X664250D01*
Y760881D01*
X706000D01*
Y616119D01*
D02*
G37*
G36*
X649250D02*
X559250D01*
Y760881D01*
X649250D01*
X649250Y616119D01*
D02*
G37*
G36*
X543750D02*
X454000D01*
Y760881D01*
X543750D01*
X543750Y616119D01*
D02*
G37*
G36*
X438750D02*
X349000D01*
Y760881D01*
X438750D01*
Y616119D01*
D02*
G37*
G36*
X333750D02*
X245250D01*
Y760881D01*
X333750D01*
Y616119D01*
D02*
G37*
G36*
X229000D02*
X139250D01*
Y760881D01*
X229000D01*
Y616119D01*
D02*
G37*
G36*
X124000D02*
X54119D01*
Y760881D01*
X124000D01*
Y616119D01*
D02*
G37*
G36*
X1993881Y463119D02*
X1923750D01*
Y607881D01*
X1993881D01*
Y463119D01*
D02*
G37*
G36*
X1908750D02*
X1819250D01*
Y607881D01*
X1908750D01*
X1908750Y463119D01*
D02*
G37*
G36*
X1804000D02*
X1713750D01*
Y607881D01*
X1804000D01*
X1804000Y463119D01*
D02*
G37*
G36*
X1698750D02*
X1608750D01*
Y607881D01*
X1698750D01*
X1698750Y463119D01*
D02*
G37*
G36*
X1593750D02*
X1504000D01*
Y607881D01*
X1593750D01*
X1593750Y463119D01*
D02*
G37*
G36*
X1489000D02*
X1398750D01*
Y607881D01*
X1489000D01*
X1489000Y463119D01*
D02*
G37*
G36*
X1384000D02*
X1340750D01*
Y607881D01*
X1384000D01*
Y463119D01*
D02*
G37*
G36*
X1335000D02*
X1294000D01*
Y607881D01*
X1335000D01*
Y463119D01*
D02*
G37*
G36*
X1279000D02*
X1189250D01*
Y607881D01*
X1279000D01*
Y463119D01*
D02*
G37*
G36*
X1174000D02*
X1084000D01*
Y607881D01*
X1174000D01*
X1174000Y463119D01*
D02*
G37*
G36*
X1069000D02*
X979000D01*
Y607881D01*
X1069000D01*
Y463119D01*
D02*
G37*
G36*
X963750D02*
X874250D01*
Y607881D01*
X963750D01*
Y463119D01*
D02*
G37*
G36*
X859000D02*
X769000D01*
Y607881D01*
X859000D01*
Y463119D01*
D02*
G37*
G36*
X754000D02*
X714000D01*
Y607881D01*
X754000D01*
Y463119D01*
D02*
G37*
G36*
X706000D02*
X664250D01*
Y607881D01*
X706000D01*
Y463119D01*
D02*
G37*
G36*
X649250D02*
X559250D01*
Y607881D01*
X649250D01*
X649250Y463119D01*
D02*
G37*
G36*
X543750D02*
X454000D01*
Y607881D01*
X543750D01*
X543750Y463119D01*
D02*
G37*
G36*
X438750D02*
X349000D01*
Y607881D01*
X438750D01*
Y463119D01*
D02*
G37*
G36*
X333750D02*
X245250D01*
Y607881D01*
X333750D01*
Y463119D01*
D02*
G37*
G36*
X229000D02*
X139250D01*
Y607881D01*
X229000D01*
Y463119D01*
D02*
G37*
G36*
X124000D02*
X54119D01*
Y607881D01*
X124000D01*
Y463119D01*
D02*
G37*
G36*
X1993881Y310119D02*
X1923750D01*
Y454881D01*
X1993881D01*
Y310119D01*
D02*
G37*
G36*
X1908750D02*
X1819250D01*
Y454881D01*
X1908750D01*
X1908750Y310119D01*
D02*
G37*
G36*
X1804000D02*
X1713750D01*
Y454881D01*
X1804000D01*
X1804000Y310119D01*
D02*
G37*
G36*
X1698750D02*
X1608750D01*
Y454881D01*
X1698750D01*
X1698750Y310119D01*
D02*
G37*
G36*
X1593750D02*
X1504000D01*
Y454881D01*
X1593750D01*
X1593750Y310119D01*
D02*
G37*
G36*
X1489000D02*
X1398750D01*
Y454881D01*
X1489000D01*
X1489000Y310119D01*
D02*
G37*
G36*
X1384000D02*
X1340750D01*
Y454881D01*
X1384000D01*
Y310119D01*
D02*
G37*
G36*
X1335000D02*
X1294000D01*
Y454881D01*
X1335000D01*
Y310119D01*
D02*
G37*
G36*
X1279000D02*
X1189250D01*
Y454881D01*
X1279000D01*
Y310119D01*
D02*
G37*
G36*
X1174000D02*
X1084000D01*
Y454881D01*
X1174000D01*
X1174000Y310119D01*
D02*
G37*
G36*
X1069000D02*
X979000D01*
Y454881D01*
X1069000D01*
Y310119D01*
D02*
G37*
G36*
X963750D02*
X874250D01*
Y454881D01*
X963750D01*
Y310119D01*
D02*
G37*
G36*
X859000D02*
X769000D01*
Y454881D01*
X859000D01*
Y310119D01*
D02*
G37*
G36*
X754000D02*
X714000D01*
Y454881D01*
X754000D01*
Y310119D01*
D02*
G37*
G36*
X706000D02*
X664250D01*
Y454881D01*
X706000D01*
Y310119D01*
D02*
G37*
G36*
X649250D02*
X559250D01*
Y454881D01*
X649250D01*
X649250Y310119D01*
D02*
G37*
G36*
X543750D02*
X454000D01*
Y454881D01*
X543750D01*
X543750Y310119D01*
D02*
G37*
G36*
X438750D02*
X349000D01*
Y454881D01*
X438750D01*
Y310119D01*
D02*
G37*
G36*
X333750D02*
X245250D01*
Y454881D01*
X333750D01*
Y310119D01*
D02*
G37*
G36*
X229000D02*
X139250D01*
Y454881D01*
X229000D01*
Y310119D01*
D02*
G37*
G36*
X124000D02*
X54119D01*
Y454881D01*
X124000D01*
Y310119D01*
D02*
G37*
G36*
X1993881Y157119D02*
X1923750D01*
Y301881D01*
X1993881D01*
Y157119D01*
D02*
G37*
G36*
X1908750D02*
X1819250D01*
Y301881D01*
X1908750D01*
X1908750Y157119D01*
D02*
G37*
G36*
X1804000D02*
X1713750D01*
Y301881D01*
X1804000D01*
X1804000Y157119D01*
D02*
G37*
G36*
X1698750D02*
X1608750D01*
Y301881D01*
X1698750D01*
X1698750Y157119D01*
D02*
G37*
G36*
X1593750D02*
X1504000D01*
Y301881D01*
X1593750D01*
X1593750Y157119D01*
D02*
G37*
G36*
X1489000D02*
X1398750D01*
Y301881D01*
X1489000D01*
X1489000Y157119D01*
D02*
G37*
G36*
X1384000D02*
X1340750D01*
Y301881D01*
X1384000D01*
Y157119D01*
D02*
G37*
G36*
X1335000D02*
X1294000D01*
Y301881D01*
X1335000D01*
Y157119D01*
D02*
G37*
G36*
X1279000D02*
X1189250D01*
Y301881D01*
X1279000D01*
Y157119D01*
D02*
G37*
G36*
X1174000D02*
X1084000D01*
Y301881D01*
X1174000D01*
X1174000Y157119D01*
D02*
G37*
G36*
X1069000D02*
X979000D01*
Y301881D01*
X1069000D01*
Y157119D01*
D02*
G37*
G36*
X963750D02*
X874250D01*
Y301881D01*
X963750D01*
Y157119D01*
D02*
G37*
G36*
X859000D02*
X769000D01*
Y301881D01*
X859000D01*
Y157119D01*
D02*
G37*
G36*
X754000D02*
X714000D01*
Y301881D01*
X754000D01*
Y157119D01*
D02*
G37*
G36*
X706000D02*
X664250D01*
Y301881D01*
X706000D01*
Y157119D01*
D02*
G37*
G36*
X649250D02*
X559250D01*
Y301881D01*
X649250D01*
X649250Y157119D01*
D02*
G37*
G36*
X543750D02*
X454000D01*
Y301881D01*
X543750D01*
X543750Y157119D01*
D02*
G37*
G36*
X438750D02*
X349000D01*
Y301881D01*
X438750D01*
Y157119D01*
D02*
G37*
G36*
X333750D02*
X245250D01*
Y301881D01*
X333750D01*
Y157119D01*
D02*
G37*
G36*
X229000D02*
X139250D01*
Y301881D01*
X229000D01*
Y157119D01*
D02*
G37*
G36*
X124000D02*
X54119D01*
Y301881D01*
X124000D01*
Y157119D01*
D02*
G37*
G36*
X1993881Y4119D02*
X1923750D01*
Y148881D01*
X1993881D01*
Y4119D01*
D02*
G37*
G36*
X1908750D02*
X1819250D01*
Y148881D01*
X1908750D01*
X1908750Y4119D01*
D02*
G37*
G36*
X1804000D02*
X1713750D01*
Y148881D01*
X1804000D01*
X1804000Y4119D01*
D02*
G37*
G36*
X1698750D02*
X1608750D01*
Y148881D01*
X1698750D01*
X1698750Y4119D01*
D02*
G37*
G36*
X1593750D02*
X1504000D01*
Y148881D01*
X1593750D01*
X1593750Y4119D01*
D02*
G37*
G36*
X1489000D02*
X1398750D01*
Y148881D01*
X1489000D01*
X1489000Y4119D01*
D02*
G37*
G36*
X1384000D02*
X1340750D01*
Y148881D01*
X1384000D01*
Y4119D01*
D02*
G37*
G36*
X1335000D02*
X1294000D01*
Y148881D01*
X1335000D01*
Y4119D01*
D02*
G37*
G36*
X1279000D02*
X1189250D01*
Y148881D01*
X1279000D01*
Y4119D01*
D02*
G37*
G36*
X1174000D02*
X1084000D01*
Y148881D01*
X1174000D01*
X1174000Y4119D01*
D02*
G37*
G36*
X1069000D02*
X979000D01*
Y148881D01*
X1069000D01*
Y4119D01*
D02*
G37*
G36*
X963750D02*
X874250D01*
Y148881D01*
X963750D01*
Y4119D01*
D02*
G37*
G36*
X859000D02*
X769000D01*
Y148881D01*
X859000D01*
Y4119D01*
D02*
G37*
G36*
X754000D02*
X714000D01*
Y148881D01*
X754000D01*
Y4119D01*
D02*
G37*
G36*
X706000D02*
X664250D01*
Y148881D01*
X706000D01*
Y4119D01*
D02*
G37*
G36*
X649250D02*
X559250D01*
Y148881D01*
X649250D01*
X649250Y4119D01*
D02*
G37*
G36*
X543750D02*
X454000D01*
Y148881D01*
X543750D01*
X543750Y4119D01*
D02*
G37*
G36*
X438750D02*
X349000D01*
Y148881D01*
X438750D01*
Y4119D01*
D02*
G37*
G36*
X333750D02*
X245250D01*
Y148881D01*
X333750D01*
Y4119D01*
D02*
G37*
G36*
X229000D02*
X139250D01*
Y148881D01*
X229000D01*
Y4119D01*
D02*
G37*
G36*
X124000D02*
X54119D01*
Y148881D01*
X124000D01*
Y4119D01*
D02*
G37*
%LPC*%
G36*
X1980000Y2131605D02*
X1978032Y2131346D01*
X1976198Y2130587D01*
X1974622Y2129378D01*
X1973414Y2127803D01*
X1972654Y2125969D01*
X1972395Y2124000D01*
X1972654Y2122032D01*
X1973414Y2120198D01*
X1974622Y2118623D01*
X1976198Y2117414D01*
X1978032Y2116654D01*
X1980000Y2116395D01*
X1981968Y2116654D01*
X1983803Y2117414D01*
X1985378Y2118623D01*
X1986586Y2120198D01*
X1987346Y2122032D01*
X1987605Y2124000D01*
X1987346Y2125969D01*
X1986586Y2127803D01*
X1985378Y2129378D01*
X1983803Y2130587D01*
X1981968Y2131346D01*
X1980000Y2131605D01*
D02*
G37*
G36*
Y2016605D02*
X1978032Y2016346D01*
X1976198Y2015587D01*
X1974622Y2014378D01*
X1973414Y2012803D01*
X1972654Y2010969D01*
X1972395Y2009000D01*
X1972654Y2007032D01*
X1973414Y2005198D01*
X1974622Y2003623D01*
X1976198Y2002414D01*
X1978032Y2001654D01*
X1980000Y2001395D01*
X1981968Y2001654D01*
X1983803Y2002414D01*
X1985378Y2003623D01*
X1986586Y2005198D01*
X1987346Y2007032D01*
X1987605Y2009000D01*
X1987346Y2010969D01*
X1986586Y2012803D01*
X1985378Y2014378D01*
X1983803Y2015587D01*
X1981968Y2016346D01*
X1980000Y2016605D01*
D02*
G37*
G36*
X70000Y2111605D02*
X68032Y2111346D01*
X66198Y2110587D01*
X64623Y2109378D01*
X63414Y2107803D01*
X62654Y2105969D01*
X62395Y2104000D01*
X62654Y2102032D01*
X63414Y2100198D01*
X64623Y2098623D01*
X66198Y2097414D01*
X68032Y2096654D01*
X70000Y2096395D01*
X71968Y2096654D01*
X73803Y2097414D01*
X75378Y2098623D01*
X76586Y2100198D01*
X77346Y2102032D01*
X77605Y2104000D01*
X77346Y2105969D01*
X76586Y2107803D01*
X75378Y2109378D01*
X73803Y2110587D01*
X71968Y2111346D01*
X70000Y2111605D01*
D02*
G37*
G36*
Y2016605D02*
X68032Y2016346D01*
X66198Y2015587D01*
X64623Y2014378D01*
X63414Y2012803D01*
X62654Y2010969D01*
X62395Y2009000D01*
X62654Y2007032D01*
X63414Y2005198D01*
X64623Y2003623D01*
X66198Y2002414D01*
X68032Y2001654D01*
X70000Y2001395D01*
X71968Y2001654D01*
X73803Y2002414D01*
X75378Y2003623D01*
X76586Y2005198D01*
X77346Y2007032D01*
X77605Y2009000D01*
X77346Y2010969D01*
X76586Y2012803D01*
X75378Y2014378D01*
X73803Y2015587D01*
X71968Y2016346D01*
X70000Y2016605D01*
D02*
G37*
G36*
X1980000Y1978605D02*
X1978032Y1978346D01*
X1976198Y1977587D01*
X1974622Y1976378D01*
X1973414Y1974803D01*
X1972654Y1972969D01*
X1972395Y1971000D01*
X1972654Y1969032D01*
X1973414Y1967198D01*
X1974622Y1965623D01*
X1976198Y1964414D01*
X1978032Y1963654D01*
X1980000Y1963395D01*
X1981968Y1963654D01*
X1983803Y1964414D01*
X1985378Y1965623D01*
X1986586Y1967198D01*
X1987346Y1969032D01*
X1987605Y1971000D01*
X1987346Y1972969D01*
X1986586Y1974803D01*
X1985378Y1976378D01*
X1983803Y1977587D01*
X1981968Y1978346D01*
X1980000Y1978605D01*
D02*
G37*
G36*
Y1863605D02*
X1978032Y1863346D01*
X1976198Y1862587D01*
X1974622Y1861378D01*
X1973414Y1859803D01*
X1972654Y1857969D01*
X1972395Y1856000D01*
X1972654Y1854032D01*
X1973414Y1852198D01*
X1974622Y1850623D01*
X1976198Y1849414D01*
X1978032Y1848654D01*
X1980000Y1848395D01*
X1981968Y1848654D01*
X1983803Y1849414D01*
X1985378Y1850623D01*
X1986586Y1852198D01*
X1987346Y1854032D01*
X1987605Y1856000D01*
X1987346Y1857969D01*
X1986586Y1859803D01*
X1985378Y1861378D01*
X1983803Y1862587D01*
X1981968Y1863346D01*
X1980000Y1863605D01*
D02*
G37*
G36*
X70000Y1958605D02*
X68032Y1958346D01*
X66198Y1957587D01*
X64623Y1956378D01*
X63414Y1954803D01*
X62654Y1952969D01*
X62395Y1951000D01*
X62654Y1949032D01*
X63414Y1947198D01*
X64623Y1945623D01*
X66198Y1944414D01*
X68032Y1943654D01*
X70000Y1943395D01*
X71968Y1943654D01*
X73803Y1944414D01*
X75378Y1945623D01*
X76586Y1947198D01*
X77346Y1949032D01*
X77605Y1951000D01*
X77346Y1952969D01*
X76586Y1954803D01*
X75378Y1956378D01*
X73803Y1957587D01*
X71968Y1958346D01*
X70000Y1958605D01*
D02*
G37*
G36*
Y1863605D02*
X68032Y1863346D01*
X66198Y1862587D01*
X64623Y1861378D01*
X63414Y1859803D01*
X62654Y1857969D01*
X62395Y1856000D01*
X62654Y1854032D01*
X63414Y1852198D01*
X64623Y1850623D01*
X66198Y1849414D01*
X68032Y1848654D01*
X70000Y1848395D01*
X71968Y1848654D01*
X73803Y1849414D01*
X75378Y1850623D01*
X76586Y1852198D01*
X77346Y1854032D01*
X77605Y1856000D01*
X77346Y1857969D01*
X76586Y1859803D01*
X75378Y1861378D01*
X73803Y1862587D01*
X71968Y1863346D01*
X70000Y1863605D01*
D02*
G37*
G36*
X1980000Y1825605D02*
X1978032Y1825346D01*
X1976198Y1824586D01*
X1974622Y1823378D01*
X1973414Y1821803D01*
X1972654Y1819969D01*
X1972395Y1818000D01*
X1972654Y1816032D01*
X1973414Y1814198D01*
X1974622Y1812623D01*
X1976198Y1811414D01*
X1978032Y1810654D01*
X1980000Y1810395D01*
X1981968Y1810654D01*
X1983803Y1811414D01*
X1985378Y1812623D01*
X1986586Y1814198D01*
X1987346Y1816032D01*
X1987605Y1818000D01*
X1987346Y1819969D01*
X1986586Y1821803D01*
X1985378Y1823378D01*
X1983803Y1824586D01*
X1981968Y1825346D01*
X1980000Y1825605D01*
D02*
G37*
G36*
Y1710605D02*
X1978032Y1710346D01*
X1976198Y1709586D01*
X1974622Y1708378D01*
X1973414Y1706803D01*
X1972654Y1704969D01*
X1972395Y1703000D01*
X1972654Y1701032D01*
X1973414Y1699198D01*
X1974622Y1697623D01*
X1976198Y1696414D01*
X1978032Y1695654D01*
X1980000Y1695395D01*
X1981968Y1695654D01*
X1983803Y1696414D01*
X1985378Y1697623D01*
X1986586Y1699198D01*
X1987346Y1701032D01*
X1987605Y1703000D01*
X1987346Y1704969D01*
X1986586Y1706803D01*
X1985378Y1708378D01*
X1983803Y1709586D01*
X1981968Y1710346D01*
X1980000Y1710605D01*
D02*
G37*
G36*
X70000Y1805605D02*
X68032Y1805346D01*
X66198Y1804586D01*
X64623Y1803378D01*
X63414Y1801803D01*
X62654Y1799969D01*
X62395Y1798000D01*
X62654Y1796032D01*
X63414Y1794198D01*
X64623Y1792623D01*
X66198Y1791414D01*
X68032Y1790654D01*
X70000Y1790395D01*
X71968Y1790654D01*
X73803Y1791414D01*
X75378Y1792623D01*
X76586Y1794198D01*
X77346Y1796032D01*
X77605Y1798000D01*
X77346Y1799969D01*
X76586Y1801803D01*
X75378Y1803378D01*
X73803Y1804586D01*
X71968Y1805346D01*
X70000Y1805605D01*
D02*
G37*
G36*
Y1710605D02*
X68032Y1710346D01*
X66198Y1709586D01*
X64623Y1708378D01*
X63414Y1706803D01*
X62654Y1704969D01*
X62395Y1703000D01*
X62654Y1701032D01*
X63414Y1699198D01*
X64623Y1697623D01*
X66198Y1696414D01*
X68032Y1695654D01*
X70000Y1695395D01*
X71968Y1695654D01*
X73803Y1696414D01*
X75378Y1697623D01*
X76586Y1699198D01*
X77346Y1701032D01*
X77605Y1703000D01*
X77346Y1704969D01*
X76586Y1706803D01*
X75378Y1708378D01*
X73803Y1709586D01*
X71968Y1710346D01*
X70000Y1710605D01*
D02*
G37*
G36*
X1980000Y1672605D02*
X1978032Y1672346D01*
X1976198Y1671586D01*
X1974622Y1670378D01*
X1973414Y1668803D01*
X1972654Y1666969D01*
X1972395Y1665000D01*
X1972654Y1663032D01*
X1973414Y1661198D01*
X1974622Y1659623D01*
X1976198Y1658414D01*
X1978032Y1657654D01*
X1980000Y1657395D01*
X1981968Y1657654D01*
X1983803Y1658414D01*
X1985378Y1659623D01*
X1986586Y1661198D01*
X1987346Y1663032D01*
X1987605Y1665000D01*
X1987346Y1666969D01*
X1986586Y1668803D01*
X1985378Y1670378D01*
X1983803Y1671586D01*
X1981968Y1672346D01*
X1980000Y1672605D01*
D02*
G37*
G36*
Y1557605D02*
X1978032Y1557346D01*
X1976198Y1556586D01*
X1974622Y1555378D01*
X1973414Y1553803D01*
X1972654Y1551969D01*
X1972395Y1550000D01*
X1972654Y1548032D01*
X1973414Y1546198D01*
X1974622Y1544623D01*
X1976198Y1543414D01*
X1978032Y1542654D01*
X1980000Y1542395D01*
X1981968Y1542654D01*
X1983803Y1543414D01*
X1985378Y1544623D01*
X1986586Y1546198D01*
X1987346Y1548032D01*
X1987605Y1550000D01*
X1987346Y1551969D01*
X1986586Y1553803D01*
X1985378Y1555378D01*
X1983803Y1556586D01*
X1981968Y1557346D01*
X1980000Y1557605D01*
D02*
G37*
G36*
X70000Y1652605D02*
X68032Y1652346D01*
X66198Y1651586D01*
X64623Y1650378D01*
X63414Y1648803D01*
X62654Y1646969D01*
X62395Y1645000D01*
X62654Y1643032D01*
X63414Y1641198D01*
X64623Y1639623D01*
X66198Y1638414D01*
X68032Y1637654D01*
X70000Y1637395D01*
X71968Y1637654D01*
X73803Y1638414D01*
X75378Y1639623D01*
X76586Y1641198D01*
X77346Y1643032D01*
X77605Y1645000D01*
X77346Y1646969D01*
X76586Y1648803D01*
X75378Y1650378D01*
X73803Y1651586D01*
X71968Y1652346D01*
X70000Y1652605D01*
D02*
G37*
G36*
Y1557605D02*
X68032Y1557346D01*
X66198Y1556586D01*
X64623Y1555378D01*
X63414Y1553803D01*
X62654Y1551969D01*
X62395Y1550000D01*
X62654Y1548032D01*
X63414Y1546198D01*
X64623Y1544623D01*
X66198Y1543414D01*
X68032Y1542654D01*
X70000Y1542395D01*
X71968Y1542654D01*
X73803Y1543414D01*
X75378Y1544623D01*
X76586Y1546198D01*
X77346Y1548032D01*
X77605Y1550000D01*
X77346Y1551969D01*
X76586Y1553803D01*
X75378Y1555378D01*
X73803Y1556586D01*
X71968Y1557346D01*
X70000Y1557605D01*
D02*
G37*
G36*
X1980000Y1519605D02*
X1978032Y1519346D01*
X1976198Y1518586D01*
X1974622Y1517378D01*
X1973414Y1515803D01*
X1972654Y1513969D01*
X1972395Y1512000D01*
X1972654Y1510032D01*
X1973414Y1508198D01*
X1974622Y1506623D01*
X1976198Y1505414D01*
X1978032Y1504654D01*
X1980000Y1504395D01*
X1981968Y1504654D01*
X1983803Y1505414D01*
X1985378Y1506623D01*
X1986586Y1508198D01*
X1987346Y1510032D01*
X1987605Y1512000D01*
X1987346Y1513969D01*
X1986586Y1515803D01*
X1985378Y1517378D01*
X1983803Y1518586D01*
X1981968Y1519346D01*
X1980000Y1519605D01*
D02*
G37*
G36*
Y1404605D02*
X1978032Y1404346D01*
X1976198Y1403586D01*
X1974622Y1402378D01*
X1973414Y1400803D01*
X1972654Y1398969D01*
X1972395Y1397000D01*
X1972654Y1395032D01*
X1973414Y1393198D01*
X1974622Y1391623D01*
X1976198Y1390414D01*
X1978032Y1389654D01*
X1980000Y1389395D01*
X1981968Y1389654D01*
X1983803Y1390414D01*
X1985378Y1391623D01*
X1986586Y1393198D01*
X1987346Y1395032D01*
X1987605Y1397000D01*
X1987346Y1398969D01*
X1986586Y1400803D01*
X1985378Y1402378D01*
X1983803Y1403586D01*
X1981968Y1404346D01*
X1980000Y1404605D01*
D02*
G37*
G36*
X70000Y1499605D02*
X68032Y1499346D01*
X66198Y1498586D01*
X64623Y1497378D01*
X63414Y1495803D01*
X62654Y1493969D01*
X62395Y1492000D01*
X62654Y1490032D01*
X63414Y1488198D01*
X64623Y1486623D01*
X66198Y1485414D01*
X68032Y1484654D01*
X70000Y1484395D01*
X71968Y1484654D01*
X73803Y1485414D01*
X75378Y1486623D01*
X76586Y1488198D01*
X77346Y1490032D01*
X77605Y1492000D01*
X77346Y1493969D01*
X76586Y1495803D01*
X75378Y1497378D01*
X73803Y1498586D01*
X71968Y1499346D01*
X70000Y1499605D01*
D02*
G37*
G36*
Y1404605D02*
X68032Y1404346D01*
X66198Y1403586D01*
X64623Y1402378D01*
X63414Y1400803D01*
X62654Y1398969D01*
X62395Y1397000D01*
X62654Y1395032D01*
X63414Y1393198D01*
X64623Y1391623D01*
X66198Y1390414D01*
X68032Y1389654D01*
X70000Y1389395D01*
X71968Y1389654D01*
X73803Y1390414D01*
X75378Y1391623D01*
X76586Y1393198D01*
X77346Y1395032D01*
X77605Y1397000D01*
X77346Y1398969D01*
X76586Y1400803D01*
X75378Y1402378D01*
X73803Y1403586D01*
X71968Y1404346D01*
X70000Y1404605D01*
D02*
G37*
G36*
X1980000Y1366605D02*
X1978032Y1366346D01*
X1976198Y1365586D01*
X1974622Y1364378D01*
X1973414Y1362803D01*
X1972654Y1360969D01*
X1972395Y1359000D01*
X1972654Y1357032D01*
X1973414Y1355198D01*
X1974622Y1353623D01*
X1976198Y1352414D01*
X1978032Y1351654D01*
X1980000Y1351395D01*
X1981968Y1351654D01*
X1983803Y1352414D01*
X1985378Y1353623D01*
X1986586Y1355198D01*
X1987346Y1357032D01*
X1987605Y1359000D01*
X1987346Y1360969D01*
X1986586Y1362803D01*
X1985378Y1364378D01*
X1983803Y1365586D01*
X1981968Y1366346D01*
X1980000Y1366605D01*
D02*
G37*
G36*
Y1251605D02*
X1978032Y1251346D01*
X1976198Y1250586D01*
X1974622Y1249378D01*
X1973414Y1247803D01*
X1972654Y1245969D01*
X1972395Y1244000D01*
X1972654Y1242032D01*
X1973414Y1240198D01*
X1974622Y1238623D01*
X1976198Y1237414D01*
X1978032Y1236654D01*
X1980000Y1236395D01*
X1981968Y1236654D01*
X1983803Y1237414D01*
X1985378Y1238623D01*
X1986586Y1240198D01*
X1987346Y1242032D01*
X1987605Y1244000D01*
X1987346Y1245969D01*
X1986586Y1247803D01*
X1985378Y1249378D01*
X1983803Y1250586D01*
X1981968Y1251346D01*
X1980000Y1251605D01*
D02*
G37*
G36*
X70000Y1346605D02*
X68032Y1346346D01*
X66198Y1345586D01*
X64623Y1344378D01*
X63414Y1342803D01*
X62654Y1340969D01*
X62395Y1339000D01*
X62654Y1337032D01*
X63414Y1335198D01*
X64623Y1333623D01*
X66198Y1332414D01*
X68032Y1331654D01*
X70000Y1331395D01*
X71968Y1331654D01*
X73803Y1332414D01*
X75378Y1333623D01*
X76586Y1335198D01*
X77346Y1337032D01*
X77605Y1339000D01*
X77346Y1340969D01*
X76586Y1342803D01*
X75378Y1344378D01*
X73803Y1345586D01*
X71968Y1346346D01*
X70000Y1346605D01*
D02*
G37*
G36*
Y1251605D02*
X68032Y1251346D01*
X66198Y1250586D01*
X64623Y1249378D01*
X63414Y1247803D01*
X62654Y1245969D01*
X62395Y1244000D01*
X62654Y1242032D01*
X63414Y1240198D01*
X64623Y1238623D01*
X66198Y1237414D01*
X68032Y1236654D01*
X70000Y1236395D01*
X71968Y1236654D01*
X73803Y1237414D01*
X75378Y1238623D01*
X76586Y1240198D01*
X77346Y1242032D01*
X77605Y1244000D01*
X77346Y1245969D01*
X76586Y1247803D01*
X75378Y1249378D01*
X73803Y1250586D01*
X71968Y1251346D01*
X70000Y1251605D01*
D02*
G37*
G36*
X1980000Y1213605D02*
X1978032Y1213346D01*
X1976198Y1212586D01*
X1974622Y1211378D01*
X1973414Y1209803D01*
X1972654Y1207969D01*
X1972395Y1206000D01*
X1972654Y1204032D01*
X1973414Y1202198D01*
X1974622Y1200623D01*
X1976198Y1199414D01*
X1978032Y1198654D01*
X1980000Y1198395D01*
X1981968Y1198654D01*
X1983803Y1199414D01*
X1985378Y1200623D01*
X1986586Y1202198D01*
X1987346Y1204032D01*
X1987605Y1206000D01*
X1987346Y1207969D01*
X1986586Y1209803D01*
X1985378Y1211378D01*
X1983803Y1212586D01*
X1981968Y1213346D01*
X1980000Y1213605D01*
D02*
G37*
G36*
Y1098605D02*
X1978032Y1098346D01*
X1976198Y1097586D01*
X1974622Y1096378D01*
X1973414Y1094803D01*
X1972654Y1092969D01*
X1972395Y1091000D01*
X1972654Y1089032D01*
X1973414Y1087198D01*
X1974622Y1085623D01*
X1976198Y1084414D01*
X1978032Y1083654D01*
X1980000Y1083395D01*
X1981968Y1083654D01*
X1983803Y1084414D01*
X1985378Y1085623D01*
X1986586Y1087198D01*
X1987346Y1089032D01*
X1987605Y1091000D01*
X1987346Y1092969D01*
X1986586Y1094803D01*
X1985378Y1096378D01*
X1983803Y1097586D01*
X1981968Y1098346D01*
X1980000Y1098605D01*
D02*
G37*
G36*
X70000Y1193605D02*
X68032Y1193346D01*
X66198Y1192586D01*
X64623Y1191378D01*
X63414Y1189803D01*
X62654Y1187969D01*
X62395Y1186000D01*
X62654Y1184032D01*
X63414Y1182198D01*
X64623Y1180623D01*
X66198Y1179414D01*
X68032Y1178654D01*
X70000Y1178395D01*
X71968Y1178654D01*
X73803Y1179414D01*
X75378Y1180623D01*
X76586Y1182198D01*
X77346Y1184032D01*
X77605Y1186000D01*
X77346Y1187969D01*
X76586Y1189803D01*
X75378Y1191378D01*
X73803Y1192586D01*
X71968Y1193346D01*
X70000Y1193605D01*
D02*
G37*
G36*
Y1098605D02*
X68032Y1098346D01*
X66198Y1097586D01*
X64623Y1096378D01*
X63414Y1094803D01*
X62654Y1092969D01*
X62395Y1091000D01*
X62654Y1089032D01*
X63414Y1087198D01*
X64623Y1085623D01*
X66198Y1084414D01*
X68032Y1083654D01*
X70000Y1083395D01*
X71968Y1083654D01*
X73803Y1084414D01*
X75378Y1085623D01*
X76586Y1087198D01*
X77346Y1089032D01*
X77605Y1091000D01*
X77346Y1092969D01*
X76586Y1094803D01*
X75378Y1096378D01*
X73803Y1097586D01*
X71968Y1098346D01*
X70000Y1098605D01*
D02*
G37*
G36*
X1980000Y1060605D02*
X1978032Y1060346D01*
X1976198Y1059586D01*
X1974622Y1058378D01*
X1973414Y1056803D01*
X1972654Y1054968D01*
X1972395Y1053000D01*
X1972654Y1051032D01*
X1973414Y1049198D01*
X1974622Y1047623D01*
X1976198Y1046414D01*
X1978032Y1045654D01*
X1980000Y1045395D01*
X1981968Y1045654D01*
X1983803Y1046414D01*
X1985378Y1047623D01*
X1986586Y1049198D01*
X1987346Y1051032D01*
X1987605Y1053000D01*
X1987346Y1054968D01*
X1986586Y1056803D01*
X1985378Y1058378D01*
X1983803Y1059586D01*
X1981968Y1060346D01*
X1980000Y1060605D01*
D02*
G37*
G36*
Y945605D02*
X1978032Y945346D01*
X1976198Y944586D01*
X1974622Y943378D01*
X1973414Y941803D01*
X1972654Y939968D01*
X1972395Y938000D01*
X1972654Y936032D01*
X1973414Y934198D01*
X1974622Y932623D01*
X1976198Y931414D01*
X1978032Y930654D01*
X1980000Y930395D01*
X1981968Y930654D01*
X1983803Y931414D01*
X1985378Y932623D01*
X1986586Y934198D01*
X1987346Y936032D01*
X1987605Y938000D01*
X1987346Y939968D01*
X1986586Y941803D01*
X1985378Y943378D01*
X1983803Y944586D01*
X1981968Y945346D01*
X1980000Y945605D01*
D02*
G37*
G36*
X70000Y1040605D02*
X68032Y1040346D01*
X66198Y1039586D01*
X64623Y1038378D01*
X63414Y1036803D01*
X62654Y1034968D01*
X62395Y1033000D01*
X62654Y1031032D01*
X63414Y1029198D01*
X64623Y1027623D01*
X66198Y1026414D01*
X68032Y1025654D01*
X70000Y1025395D01*
X71968Y1025654D01*
X73803Y1026414D01*
X75378Y1027623D01*
X76586Y1029198D01*
X77346Y1031032D01*
X77605Y1033000D01*
X77346Y1034968D01*
X76586Y1036803D01*
X75378Y1038378D01*
X73803Y1039586D01*
X71968Y1040346D01*
X70000Y1040605D01*
D02*
G37*
G36*
Y945605D02*
X68032Y945346D01*
X66198Y944586D01*
X64623Y943378D01*
X63414Y941803D01*
X62654Y939968D01*
X62395Y938000D01*
X62654Y936032D01*
X63414Y934198D01*
X64623Y932623D01*
X66198Y931414D01*
X68032Y930654D01*
X70000Y930395D01*
X71968Y930654D01*
X73803Y931414D01*
X75378Y932623D01*
X76586Y934198D01*
X77346Y936032D01*
X77605Y938000D01*
X77346Y939968D01*
X76586Y941803D01*
X75378Y943378D01*
X73803Y944586D01*
X71968Y945346D01*
X70000Y945605D01*
D02*
G37*
G36*
X1980000Y907605D02*
X1978032Y907346D01*
X1976198Y906586D01*
X1974622Y905378D01*
X1973414Y903803D01*
X1972654Y901969D01*
X1972395Y900000D01*
X1972654Y898032D01*
X1973414Y896198D01*
X1974622Y894623D01*
X1976198Y893414D01*
X1978032Y892654D01*
X1980000Y892395D01*
X1981968Y892654D01*
X1983803Y893414D01*
X1985378Y894623D01*
X1986586Y896198D01*
X1987346Y898032D01*
X1987605Y900000D01*
X1987346Y901969D01*
X1986586Y903803D01*
X1985378Y905378D01*
X1983803Y906586D01*
X1981968Y907346D01*
X1980000Y907605D01*
D02*
G37*
G36*
Y792605D02*
X1978032Y792346D01*
X1976198Y791586D01*
X1974622Y790378D01*
X1973414Y788803D01*
X1972654Y786969D01*
X1972395Y785000D01*
X1972654Y783032D01*
X1973414Y781198D01*
X1974622Y779623D01*
X1976198Y778414D01*
X1978032Y777654D01*
X1980000Y777395D01*
X1981968Y777654D01*
X1983803Y778414D01*
X1985378Y779623D01*
X1986586Y781198D01*
X1987346Y783032D01*
X1987605Y785000D01*
X1987346Y786969D01*
X1986586Y788803D01*
X1985378Y790378D01*
X1983803Y791586D01*
X1981968Y792346D01*
X1980000Y792605D01*
D02*
G37*
G36*
X70000Y887605D02*
X68032Y887346D01*
X66198Y886586D01*
X64623Y885378D01*
X63414Y883803D01*
X62654Y881969D01*
X62395Y880000D01*
X62654Y878032D01*
X63414Y876198D01*
X64623Y874623D01*
X66198Y873414D01*
X68032Y872654D01*
X70000Y872395D01*
X71968Y872654D01*
X73803Y873414D01*
X75378Y874623D01*
X76586Y876198D01*
X77346Y878032D01*
X77605Y880000D01*
X77346Y881969D01*
X76586Y883803D01*
X75378Y885378D01*
X73803Y886586D01*
X71968Y887346D01*
X70000Y887605D01*
D02*
G37*
G36*
Y792605D02*
X68032Y792346D01*
X66198Y791586D01*
X64623Y790378D01*
X63414Y788803D01*
X62654Y786969D01*
X62395Y785000D01*
X62654Y783032D01*
X63414Y781198D01*
X64623Y779623D01*
X66198Y778414D01*
X68032Y777654D01*
X70000Y777395D01*
X71968Y777654D01*
X73803Y778414D01*
X75378Y779623D01*
X76586Y781198D01*
X77346Y783032D01*
X77605Y785000D01*
X77346Y786969D01*
X76586Y788803D01*
X75378Y790378D01*
X73803Y791586D01*
X71968Y792346D01*
X70000Y792605D01*
D02*
G37*
G36*
X1980000Y754605D02*
X1978032Y754346D01*
X1976198Y753586D01*
X1974622Y752378D01*
X1973414Y750803D01*
X1972654Y748969D01*
X1972395Y747000D01*
X1972654Y745032D01*
X1973414Y743198D01*
X1974622Y741622D01*
X1976198Y740414D01*
X1978032Y739654D01*
X1980000Y739395D01*
X1981968Y739654D01*
X1983803Y740414D01*
X1985378Y741622D01*
X1986586Y743198D01*
X1987346Y745032D01*
X1987605Y747000D01*
X1987346Y748969D01*
X1986586Y750803D01*
X1985378Y752378D01*
X1983803Y753586D01*
X1981968Y754346D01*
X1980000Y754605D01*
D02*
G37*
G36*
Y639605D02*
X1978032Y639346D01*
X1976198Y638586D01*
X1974622Y637378D01*
X1973414Y635803D01*
X1972654Y633969D01*
X1972395Y632000D01*
X1972654Y630032D01*
X1973414Y628198D01*
X1974622Y626623D01*
X1976198Y625414D01*
X1978032Y624654D01*
X1980000Y624395D01*
X1981968Y624654D01*
X1983803Y625414D01*
X1985378Y626623D01*
X1986586Y628198D01*
X1987346Y630032D01*
X1987605Y632000D01*
X1987346Y633969D01*
X1986586Y635803D01*
X1985378Y637378D01*
X1983803Y638586D01*
X1981968Y639346D01*
X1980000Y639605D01*
D02*
G37*
G36*
X70000Y734605D02*
X68032Y734346D01*
X66198Y733586D01*
X64623Y732378D01*
X63414Y730803D01*
X62654Y728969D01*
X62395Y727000D01*
X62654Y725032D01*
X63414Y723198D01*
X64623Y721623D01*
X66198Y720414D01*
X68032Y719654D01*
X70000Y719395D01*
X71968Y719654D01*
X73803Y720414D01*
X75378Y721623D01*
X76586Y723198D01*
X77346Y725032D01*
X77605Y727000D01*
X77346Y728969D01*
X76586Y730803D01*
X75378Y732378D01*
X73803Y733586D01*
X71968Y734346D01*
X70000Y734605D01*
D02*
G37*
G36*
Y639605D02*
X68032Y639346D01*
X66198Y638586D01*
X64623Y637378D01*
X63414Y635803D01*
X62654Y633969D01*
X62395Y632000D01*
X62654Y630032D01*
X63414Y628198D01*
X64623Y626623D01*
X66198Y625414D01*
X68032Y624654D01*
X70000Y624395D01*
X71968Y624654D01*
X73803Y625414D01*
X75378Y626623D01*
X76586Y628198D01*
X77346Y630032D01*
X77605Y632000D01*
X77346Y633969D01*
X76586Y635803D01*
X75378Y637378D01*
X73803Y638586D01*
X71968Y639346D01*
X70000Y639605D01*
D02*
G37*
G36*
X1980000Y601605D02*
X1978032Y601346D01*
X1976198Y600586D01*
X1974622Y599378D01*
X1973414Y597803D01*
X1972654Y595969D01*
X1972395Y594000D01*
X1972654Y592032D01*
X1973414Y590198D01*
X1974622Y588623D01*
X1976198Y587414D01*
X1978032Y586654D01*
X1980000Y586395D01*
X1981968Y586654D01*
X1983803Y587414D01*
X1985378Y588623D01*
X1986586Y590198D01*
X1987346Y592032D01*
X1987605Y594000D01*
X1987346Y595969D01*
X1986586Y597803D01*
X1985378Y599378D01*
X1983803Y600586D01*
X1981968Y601346D01*
X1980000Y601605D01*
D02*
G37*
G36*
Y486605D02*
X1978032Y486346D01*
X1976198Y485586D01*
X1974622Y484378D01*
X1973414Y482803D01*
X1972654Y480969D01*
X1972395Y479000D01*
X1972654Y477032D01*
X1973414Y475198D01*
X1974622Y473623D01*
X1976198Y472414D01*
X1978032Y471654D01*
X1980000Y471395D01*
X1981968Y471654D01*
X1983803Y472414D01*
X1985378Y473623D01*
X1986586Y475198D01*
X1987346Y477032D01*
X1987605Y479000D01*
X1987346Y480969D01*
X1986586Y482803D01*
X1985378Y484378D01*
X1983803Y485586D01*
X1981968Y486346D01*
X1980000Y486605D01*
D02*
G37*
G36*
X70000Y581605D02*
X68032Y581346D01*
X66198Y580586D01*
X64623Y579378D01*
X63414Y577803D01*
X62654Y575969D01*
X62395Y574000D01*
X62654Y572032D01*
X63414Y570198D01*
X64623Y568623D01*
X66198Y567414D01*
X68032Y566654D01*
X70000Y566395D01*
X71968Y566654D01*
X73803Y567414D01*
X75378Y568623D01*
X76586Y570198D01*
X77346Y572032D01*
X77605Y574000D01*
X77346Y575969D01*
X76586Y577803D01*
X75378Y579378D01*
X73803Y580586D01*
X71968Y581346D01*
X70000Y581605D01*
D02*
G37*
G36*
Y486605D02*
X68032Y486346D01*
X66198Y485586D01*
X64623Y484378D01*
X63414Y482803D01*
X62654Y480969D01*
X62395Y479000D01*
X62654Y477032D01*
X63414Y475198D01*
X64623Y473623D01*
X66198Y472414D01*
X68032Y471654D01*
X70000Y471395D01*
X71968Y471654D01*
X73803Y472414D01*
X75378Y473623D01*
X76586Y475198D01*
X77346Y477032D01*
X77605Y479000D01*
X77346Y480969D01*
X76586Y482803D01*
X75378Y484378D01*
X73803Y485586D01*
X71968Y486346D01*
X70000Y486605D01*
D02*
G37*
G36*
X1980000Y448605D02*
X1978032Y448346D01*
X1976198Y447586D01*
X1974622Y446378D01*
X1973414Y444803D01*
X1972654Y442968D01*
X1972395Y441000D01*
X1972654Y439032D01*
X1973414Y437198D01*
X1974622Y435622D01*
X1976198Y434414D01*
X1978032Y433654D01*
X1980000Y433395D01*
X1981968Y433654D01*
X1983803Y434414D01*
X1985378Y435622D01*
X1986586Y437198D01*
X1987346Y439032D01*
X1987605Y441000D01*
X1987346Y442968D01*
X1986586Y444803D01*
X1985378Y446378D01*
X1983803Y447586D01*
X1981968Y448346D01*
X1980000Y448605D01*
D02*
G37*
G36*
Y333605D02*
X1978032Y333346D01*
X1976198Y332586D01*
X1974622Y331378D01*
X1973414Y329803D01*
X1972654Y327968D01*
X1972395Y326000D01*
X1972654Y324032D01*
X1973414Y322198D01*
X1974622Y320622D01*
X1976198Y319414D01*
X1978032Y318654D01*
X1980000Y318395D01*
X1981968Y318654D01*
X1983803Y319414D01*
X1985378Y320622D01*
X1986586Y322198D01*
X1987346Y324032D01*
X1987605Y326000D01*
X1987346Y327968D01*
X1986586Y329803D01*
X1985378Y331378D01*
X1983803Y332586D01*
X1981968Y333346D01*
X1980000Y333605D01*
D02*
G37*
G36*
X70000Y428605D02*
X68032Y428346D01*
X66198Y427586D01*
X64623Y426378D01*
X63414Y424803D01*
X62654Y422968D01*
X62395Y421000D01*
X62654Y419032D01*
X63414Y417198D01*
X64623Y415622D01*
X66198Y414414D01*
X68032Y413654D01*
X70000Y413395D01*
X71968Y413654D01*
X73803Y414414D01*
X75378Y415622D01*
X76586Y417198D01*
X77346Y419032D01*
X77605Y421000D01*
X77346Y422968D01*
X76586Y424803D01*
X75378Y426378D01*
X73803Y427586D01*
X71968Y428346D01*
X70000Y428605D01*
D02*
G37*
G36*
Y333605D02*
X68032Y333346D01*
X66198Y332586D01*
X64623Y331378D01*
X63414Y329803D01*
X62654Y327968D01*
X62395Y326000D01*
X62654Y324032D01*
X63414Y322198D01*
X64623Y320622D01*
X66198Y319414D01*
X68032Y318654D01*
X70000Y318395D01*
X71968Y318654D01*
X73803Y319414D01*
X75378Y320622D01*
X76586Y322198D01*
X77346Y324032D01*
X77605Y326000D01*
X77346Y327968D01*
X76586Y329803D01*
X75378Y331378D01*
X73803Y332586D01*
X71968Y333346D01*
X70000Y333605D01*
D02*
G37*
G36*
X1980000Y295605D02*
X1978032Y295346D01*
X1976198Y294586D01*
X1974622Y293378D01*
X1973414Y291803D01*
X1972654Y289968D01*
X1972395Y288000D01*
X1972654Y286032D01*
X1973414Y284198D01*
X1974622Y282623D01*
X1976198Y281414D01*
X1978032Y280654D01*
X1980000Y280395D01*
X1981968Y280654D01*
X1983803Y281414D01*
X1985378Y282623D01*
X1986586Y284198D01*
X1987346Y286032D01*
X1987605Y288000D01*
X1987346Y289968D01*
X1986586Y291803D01*
X1985378Y293378D01*
X1983803Y294586D01*
X1981968Y295346D01*
X1980000Y295605D01*
D02*
G37*
G36*
Y180605D02*
X1978032Y180346D01*
X1976198Y179586D01*
X1974622Y178378D01*
X1973414Y176803D01*
X1972654Y174968D01*
X1972395Y173000D01*
X1972654Y171032D01*
X1973414Y169198D01*
X1974622Y167623D01*
X1976198Y166414D01*
X1978032Y165654D01*
X1980000Y165395D01*
X1981968Y165654D01*
X1983803Y166414D01*
X1985378Y167623D01*
X1986586Y169198D01*
X1987346Y171032D01*
X1987605Y173000D01*
X1987346Y174968D01*
X1986586Y176803D01*
X1985378Y178378D01*
X1983803Y179586D01*
X1981968Y180346D01*
X1980000Y180605D01*
D02*
G37*
G36*
X70000Y275605D02*
X68032Y275346D01*
X66198Y274586D01*
X64623Y273378D01*
X63414Y271803D01*
X62654Y269968D01*
X62395Y268000D01*
X62654Y266032D01*
X63414Y264198D01*
X64623Y262623D01*
X66198Y261414D01*
X68032Y260654D01*
X70000Y260395D01*
X71968Y260654D01*
X73803Y261414D01*
X75378Y262623D01*
X76586Y264198D01*
X77346Y266032D01*
X77605Y268000D01*
X77346Y269968D01*
X76586Y271803D01*
X75378Y273378D01*
X73803Y274586D01*
X71968Y275346D01*
X70000Y275605D01*
D02*
G37*
G36*
Y180605D02*
X68032Y180346D01*
X66198Y179586D01*
X64623Y178378D01*
X63414Y176803D01*
X62654Y174968D01*
X62395Y173000D01*
X62654Y171032D01*
X63414Y169198D01*
X64623Y167623D01*
X66198Y166414D01*
X68032Y165654D01*
X70000Y165395D01*
X71968Y165654D01*
X73803Y166414D01*
X75378Y167623D01*
X76586Y169198D01*
X77346Y171032D01*
X77605Y173000D01*
X77346Y174968D01*
X76586Y176803D01*
X75378Y178378D01*
X73803Y179586D01*
X71968Y180346D01*
X70000Y180605D01*
D02*
G37*
G36*
X1980000Y142605D02*
X1978032Y142346D01*
X1976198Y141586D01*
X1974622Y140378D01*
X1973414Y138803D01*
X1972654Y136968D01*
X1972395Y135000D01*
X1972654Y133032D01*
X1973414Y131198D01*
X1974622Y129622D01*
X1976198Y128414D01*
X1978032Y127654D01*
X1980000Y127395D01*
X1981968Y127654D01*
X1983803Y128414D01*
X1985378Y129622D01*
X1986586Y131198D01*
X1987346Y133032D01*
X1987605Y135000D01*
X1987346Y136968D01*
X1986586Y138803D01*
X1985378Y140378D01*
X1983803Y141586D01*
X1981968Y142346D01*
X1980000Y142605D01*
D02*
G37*
G36*
Y27605D02*
X1978032Y27346D01*
X1976198Y26586D01*
X1974622Y25378D01*
X1973414Y23803D01*
X1972654Y21968D01*
X1972395Y20000D01*
X1972654Y18032D01*
X1973414Y16198D01*
X1974622Y14622D01*
X1976198Y13414D01*
X1978032Y12654D01*
X1980000Y12395D01*
X1981968Y12654D01*
X1983803Y13414D01*
X1985378Y14622D01*
X1986586Y16198D01*
X1987346Y18032D01*
X1987605Y20000D01*
X1987346Y21968D01*
X1986586Y23803D01*
X1985378Y25378D01*
X1983803Y26586D01*
X1981968Y27346D01*
X1980000Y27605D01*
D02*
G37*
G36*
X70000Y122605D02*
X68032Y122346D01*
X66198Y121586D01*
X64623Y120378D01*
X63414Y118803D01*
X62654Y116968D01*
X62395Y115000D01*
X62654Y113032D01*
X63414Y111198D01*
X64623Y109622D01*
X66198Y108414D01*
X68032Y107654D01*
X70000Y107395D01*
X71968Y107654D01*
X73803Y108414D01*
X75378Y109622D01*
X76586Y111198D01*
X77346Y113032D01*
X77605Y115000D01*
X77346Y116968D01*
X76586Y118803D01*
X75378Y120378D01*
X73803Y121586D01*
X71968Y122346D01*
X70000Y122605D01*
D02*
G37*
G36*
Y27605D02*
X68032Y27346D01*
X66198Y26586D01*
X64623Y25378D01*
X63414Y23803D01*
X62654Y21968D01*
X62395Y20000D01*
X62654Y18032D01*
X63414Y16198D01*
X64623Y14622D01*
X66198Y13414D01*
X68032Y12654D01*
X70000Y12395D01*
X71968Y12654D01*
X73803Y13414D01*
X75378Y14622D01*
X76586Y16198D01*
X77346Y18032D01*
X77605Y20000D01*
X77346Y21968D01*
X76586Y23803D01*
X75378Y25378D01*
X73803Y26586D01*
X71968Y27346D01*
X70000Y27605D01*
D02*
G37*
%LPD*%
D10*
X25000Y2025000D02*
D03*
Y1975000D02*
D03*
Y175000D02*
D03*
X2025000Y50000D02*
D03*
Y2025000D02*
D03*
Y2075000D02*
D03*
D12*
X1980000Y20000D02*
D03*
Y135000D02*
D03*
X70000Y115000D02*
D03*
Y20000D02*
D03*
X1980000Y173000D02*
D03*
Y288000D02*
D03*
X70000Y268000D02*
D03*
Y173000D02*
D03*
X1980000Y326000D02*
D03*
Y441000D02*
D03*
X70000Y421000D02*
D03*
Y326000D02*
D03*
X1980000Y479000D02*
D03*
Y594000D02*
D03*
X70000Y574000D02*
D03*
Y479000D02*
D03*
X1980000Y632000D02*
D03*
Y747000D02*
D03*
X70000Y727000D02*
D03*
Y632000D02*
D03*
X1980000Y785000D02*
D03*
Y900000D02*
D03*
X70000Y880000D02*
D03*
Y785000D02*
D03*
X1980000Y938000D02*
D03*
Y1053000D02*
D03*
X70000Y1033000D02*
D03*
Y938000D02*
D03*
X1980000Y1091000D02*
D03*
Y1206000D02*
D03*
X70000Y1186000D02*
D03*
Y1091000D02*
D03*
X1980000Y1244000D02*
D03*
Y1359000D02*
D03*
X70000Y1339000D02*
D03*
Y1244000D02*
D03*
X1980000Y1397000D02*
D03*
Y1512000D02*
D03*
X70000Y1492000D02*
D03*
Y1397000D02*
D03*
X1980000Y1550000D02*
D03*
Y1665000D02*
D03*
X70000Y1645000D02*
D03*
Y1550000D02*
D03*
X1980000Y1703000D02*
D03*
Y1818000D02*
D03*
X70000Y1798000D02*
D03*
Y1703000D02*
D03*
X1980000Y1856000D02*
D03*
Y1971000D02*
D03*
X70000Y1951000D02*
D03*
Y1856000D02*
D03*
X1980000Y2009000D02*
D03*
Y2124000D02*
D03*
X70000Y2104000D02*
D03*
Y2009000D02*
D03*
X683000Y49250D02*
D03*
X671750Y49500D02*
D03*
X1315000Y75000D02*
D03*
Y50000D02*
D03*
X730000Y115000D02*
D03*
X70000Y140000D02*
D03*
X87500D02*
D03*
X730000Y100000D02*
D03*
X1370000D02*
D03*
X1355000D02*
D03*
X1975000Y80000D02*
D03*
X1960000D02*
D03*
X683000Y202250D02*
D03*
X671750Y202500D02*
D03*
X1315000Y228000D02*
D03*
Y203000D02*
D03*
X730000Y268000D02*
D03*
X70000Y293000D02*
D03*
X87500D02*
D03*
X730000Y253000D02*
D03*
X1370000D02*
D03*
X1355000D02*
D03*
X1975000Y233000D02*
D03*
X1960000D02*
D03*
X683000Y355250D02*
D03*
X671750Y355500D02*
D03*
X1315000Y381000D02*
D03*
Y356000D02*
D03*
X730000Y421000D02*
D03*
X70000Y446000D02*
D03*
X87500D02*
D03*
X730000Y406000D02*
D03*
X1370000D02*
D03*
X1355000D02*
D03*
X1975000Y386000D02*
D03*
X1960000D02*
D03*
X683000Y508250D02*
D03*
X671750Y508500D02*
D03*
X1315000Y534000D02*
D03*
Y509000D02*
D03*
X730000Y574000D02*
D03*
X70000Y599000D02*
D03*
X87500D02*
D03*
X730000Y559000D02*
D03*
X1370000D02*
D03*
X1355000D02*
D03*
X1975000Y539000D02*
D03*
X1960000D02*
D03*
X683000Y661250D02*
D03*
X671750Y661500D02*
D03*
X1315000Y687000D02*
D03*
Y662000D02*
D03*
X730000Y727000D02*
D03*
X70000Y752000D02*
D03*
X87500D02*
D03*
X730000Y712000D02*
D03*
X1370000D02*
D03*
X1355000D02*
D03*
X1975000Y692000D02*
D03*
X1960000D02*
D03*
X683000Y814250D02*
D03*
X671750Y814500D02*
D03*
X1315000Y840000D02*
D03*
Y815000D02*
D03*
X730000Y880000D02*
D03*
X70000Y905000D02*
D03*
X87500D02*
D03*
X730000Y865000D02*
D03*
X1370000D02*
D03*
X1355000D02*
D03*
X1975000Y845000D02*
D03*
X1960000D02*
D03*
X683000Y967250D02*
D03*
X671750Y967500D02*
D03*
X1315000Y993000D02*
D03*
Y968000D02*
D03*
X730000Y1033000D02*
D03*
X70000Y1058000D02*
D03*
X87500D02*
D03*
X730000Y1018000D02*
D03*
X1370000D02*
D03*
X1355000D02*
D03*
X1975000Y998000D02*
D03*
X1960000D02*
D03*
X683000Y1120250D02*
D03*
X671750Y1120500D02*
D03*
X1315000Y1146000D02*
D03*
Y1121000D02*
D03*
X730000Y1186000D02*
D03*
X70000Y1211000D02*
D03*
X87500D02*
D03*
X730000Y1171000D02*
D03*
X1370000D02*
D03*
X1355000D02*
D03*
X1975000Y1151000D02*
D03*
X1960000D02*
D03*
X683000Y1273250D02*
D03*
X671750Y1273500D02*
D03*
X1315000Y1299000D02*
D03*
Y1274000D02*
D03*
X730000Y1339000D02*
D03*
X70000Y1364000D02*
D03*
X87500D02*
D03*
X730000Y1324000D02*
D03*
X1370000D02*
D03*
X1355000D02*
D03*
X1975000Y1304000D02*
D03*
X1960000D02*
D03*
X683000Y1426250D02*
D03*
X671750Y1426500D02*
D03*
X1315000Y1452000D02*
D03*
Y1427000D02*
D03*
X730000Y1492000D02*
D03*
X70000Y1517000D02*
D03*
X87500D02*
D03*
X730000Y1477000D02*
D03*
X1370000D02*
D03*
X1355000D02*
D03*
X1975000Y1457000D02*
D03*
X1960000D02*
D03*
X683000Y1579250D02*
D03*
X671750Y1579500D02*
D03*
X1315000Y1605000D02*
D03*
Y1580000D02*
D03*
X730000Y1645000D02*
D03*
X70000Y1670000D02*
D03*
X87500D02*
D03*
X730000Y1630000D02*
D03*
X1370000D02*
D03*
X1355000D02*
D03*
X1975000Y1610000D02*
D03*
X1960000D02*
D03*
X683000Y1732250D02*
D03*
X671750Y1732500D02*
D03*
X1315000Y1758000D02*
D03*
Y1733000D02*
D03*
X730000Y1798000D02*
D03*
X70000Y1823000D02*
D03*
X87500D02*
D03*
X730000Y1783000D02*
D03*
X1370000D02*
D03*
X1355000D02*
D03*
X1975000Y1763000D02*
D03*
X1960000D02*
D03*
X683000Y1885250D02*
D03*
X671750Y1885500D02*
D03*
X1315000Y1911000D02*
D03*
Y1886000D02*
D03*
X730000Y1951000D02*
D03*
X70000Y1976000D02*
D03*
X87500D02*
D03*
X730000Y1936000D02*
D03*
X1370000D02*
D03*
X1355000D02*
D03*
X1975000Y1916000D02*
D03*
X1960000D02*
D03*
X683000Y2038250D02*
D03*
X671750Y2038500D02*
D03*
X1315000Y2064000D02*
D03*
Y2039000D02*
D03*
X730000Y2104000D02*
D03*
X70000Y2129000D02*
D03*
X87500D02*
D03*
X730000Y2089000D02*
D03*
X1370000D02*
D03*
X1355000D02*
D03*
X1975000Y2069000D02*
D03*
X1960000D02*
D03*
D24*
X253010Y76500D02*
D03*
X219990D02*
D03*
X114990D02*
D03*
X148010D02*
D03*
X358010D02*
D03*
X324990D02*
D03*
X429990D02*
D03*
X463010D02*
D03*
X568010D02*
D03*
X534990D02*
D03*
X639990Y76500D02*
D03*
X673010D02*
D03*
X778010Y76500D02*
D03*
X744990D02*
D03*
X849990Y76500D02*
D03*
X883010D02*
D03*
X988010Y76500D02*
D03*
X954990D02*
D03*
X1059990D02*
D03*
X1093010D02*
D03*
X1198010D02*
D03*
X1164990D02*
D03*
X1269990D02*
D03*
X1303010D02*
D03*
X1408010D02*
D03*
X1374990D02*
D03*
X1479990Y76500D02*
D03*
X1513010D02*
D03*
X1618010D02*
D03*
X1584990D02*
D03*
X1689990Y76500D02*
D03*
X1723010D02*
D03*
X1828010Y76500D02*
D03*
X1794990D02*
D03*
X1899990Y76500D02*
D03*
X1933010D02*
D03*
X253010Y229500D02*
D03*
X219990D02*
D03*
X114990D02*
D03*
X148010D02*
D03*
X358010D02*
D03*
X324990D02*
D03*
X429990D02*
D03*
X463010D02*
D03*
X568010D02*
D03*
X534990D02*
D03*
X639990Y229500D02*
D03*
X673010D02*
D03*
X778010Y229500D02*
D03*
X744990D02*
D03*
X849990Y229500D02*
D03*
X883010D02*
D03*
X988010Y229500D02*
D03*
X954990D02*
D03*
X1059990D02*
D03*
X1093010D02*
D03*
X1198010D02*
D03*
X1164990D02*
D03*
X1269990D02*
D03*
X1303010D02*
D03*
X1408010D02*
D03*
X1374990D02*
D03*
X1479990Y229500D02*
D03*
X1513010D02*
D03*
X1618010D02*
D03*
X1584990D02*
D03*
X1689990Y229500D02*
D03*
X1723010D02*
D03*
X1828010Y229500D02*
D03*
X1794990D02*
D03*
X1899990Y229500D02*
D03*
X1933010D02*
D03*
X253010Y382500D02*
D03*
X219990D02*
D03*
X114990D02*
D03*
X148010D02*
D03*
X358010D02*
D03*
X324990D02*
D03*
X429990D02*
D03*
X463010D02*
D03*
X568010D02*
D03*
X534990D02*
D03*
X639990Y382500D02*
D03*
X673010D02*
D03*
X778010Y382500D02*
D03*
X744990D02*
D03*
X849990Y382500D02*
D03*
X883010D02*
D03*
X988010Y382500D02*
D03*
X954990D02*
D03*
X1059990D02*
D03*
X1093010D02*
D03*
X1198010D02*
D03*
X1164990D02*
D03*
X1269990D02*
D03*
X1303010D02*
D03*
X1408010D02*
D03*
X1374990D02*
D03*
X1479990Y382500D02*
D03*
X1513010D02*
D03*
X1618010D02*
D03*
X1584990D02*
D03*
X1689990Y382500D02*
D03*
X1723010D02*
D03*
X1828010Y382500D02*
D03*
X1794990D02*
D03*
X1899990Y382500D02*
D03*
X1933010D02*
D03*
X253010Y535500D02*
D03*
X219990D02*
D03*
X114990D02*
D03*
X148010D02*
D03*
X358010D02*
D03*
X324990D02*
D03*
X429990D02*
D03*
X463010D02*
D03*
X568010D02*
D03*
X534990D02*
D03*
X639990Y535500D02*
D03*
X673010D02*
D03*
X778010Y535500D02*
D03*
X744990D02*
D03*
X849990Y535500D02*
D03*
X883010D02*
D03*
X988010Y535500D02*
D03*
X954990D02*
D03*
X1059990D02*
D03*
X1093010D02*
D03*
X1198010D02*
D03*
X1164990D02*
D03*
X1269990D02*
D03*
X1303010D02*
D03*
X1408010D02*
D03*
X1374990D02*
D03*
X1479990Y535500D02*
D03*
X1513010D02*
D03*
X1618010D02*
D03*
X1584990D02*
D03*
X1689990Y535500D02*
D03*
X1723010D02*
D03*
X1828010Y535500D02*
D03*
X1794990D02*
D03*
X1899990Y535500D02*
D03*
X1933010D02*
D03*
X253010Y688500D02*
D03*
X219990D02*
D03*
X114990D02*
D03*
X148010D02*
D03*
X358010D02*
D03*
X324990D02*
D03*
X429990D02*
D03*
X463010D02*
D03*
X568010D02*
D03*
X534990D02*
D03*
X639990Y688500D02*
D03*
X673010D02*
D03*
X778010Y688500D02*
D03*
X744990D02*
D03*
X849990Y688500D02*
D03*
X883010D02*
D03*
X988010Y688500D02*
D03*
X954990D02*
D03*
X1059990D02*
D03*
X1093010D02*
D03*
X1198010D02*
D03*
X1164990D02*
D03*
X1269990D02*
D03*
X1303010D02*
D03*
X1408010D02*
D03*
X1374990D02*
D03*
X1479990Y688500D02*
D03*
X1513010D02*
D03*
X1618010D02*
D03*
X1584990D02*
D03*
X1689990Y688500D02*
D03*
X1723010D02*
D03*
X1828010Y688500D02*
D03*
X1794990D02*
D03*
X1899990Y688500D02*
D03*
X1933010D02*
D03*
X253010Y841500D02*
D03*
X219990D02*
D03*
X114990D02*
D03*
X148010D02*
D03*
X358010D02*
D03*
X324990D02*
D03*
X429990D02*
D03*
X463010D02*
D03*
X568010D02*
D03*
X534990D02*
D03*
X639990Y841500D02*
D03*
X673010D02*
D03*
X778010Y841500D02*
D03*
X744990D02*
D03*
X849990Y841500D02*
D03*
X883010D02*
D03*
X988010Y841500D02*
D03*
X954990D02*
D03*
X1059990D02*
D03*
X1093010D02*
D03*
X1198010D02*
D03*
X1164990D02*
D03*
X1269990D02*
D03*
X1303010D02*
D03*
X1408010D02*
D03*
X1374990D02*
D03*
X1479990Y841500D02*
D03*
X1513010D02*
D03*
X1618010D02*
D03*
X1584990D02*
D03*
X1689990Y841500D02*
D03*
X1723010D02*
D03*
X1828010Y841500D02*
D03*
X1794990D02*
D03*
X1899990Y841500D02*
D03*
X1933010D02*
D03*
X253010Y994500D02*
D03*
X219990D02*
D03*
X114990D02*
D03*
X148010D02*
D03*
X358010D02*
D03*
X324990D02*
D03*
X429990D02*
D03*
X463010D02*
D03*
X568010D02*
D03*
X534990D02*
D03*
X639990Y994500D02*
D03*
X673010D02*
D03*
X778010Y994500D02*
D03*
X744990D02*
D03*
X849990Y994500D02*
D03*
X883010D02*
D03*
X988010Y994500D02*
D03*
X954990D02*
D03*
X1059990D02*
D03*
X1093010D02*
D03*
X1198010D02*
D03*
X1164990D02*
D03*
X1269990D02*
D03*
X1303010D02*
D03*
X1408010D02*
D03*
X1374990D02*
D03*
X1479990Y994500D02*
D03*
X1513010D02*
D03*
X1618010D02*
D03*
X1584990D02*
D03*
X1689990Y994500D02*
D03*
X1723010D02*
D03*
X1828010Y994500D02*
D03*
X1794990D02*
D03*
X1899990Y994500D02*
D03*
X1933010D02*
D03*
X253010Y1147500D02*
D03*
X219990D02*
D03*
X114990D02*
D03*
X148010D02*
D03*
X358010D02*
D03*
X324990D02*
D03*
X429990D02*
D03*
X463010D02*
D03*
X568010D02*
D03*
X534990D02*
D03*
X639990Y1147500D02*
D03*
X673010D02*
D03*
X778010Y1147500D02*
D03*
X744990D02*
D03*
X849990Y1147500D02*
D03*
X883010D02*
D03*
X988010Y1147500D02*
D03*
X954990D02*
D03*
X1059990D02*
D03*
X1093010D02*
D03*
X1198010D02*
D03*
X1164990D02*
D03*
X1269990D02*
D03*
X1303010D02*
D03*
X1408010D02*
D03*
X1374990D02*
D03*
X1479990Y1147500D02*
D03*
X1513010D02*
D03*
X1618010D02*
D03*
X1584990D02*
D03*
X1689990Y1147500D02*
D03*
X1723010D02*
D03*
X1828010Y1147500D02*
D03*
X1794990D02*
D03*
X1899990Y1147500D02*
D03*
X1933010D02*
D03*
X253010Y1300500D02*
D03*
X219990D02*
D03*
X114990D02*
D03*
X148010D02*
D03*
X358010D02*
D03*
X324990D02*
D03*
X429990D02*
D03*
X463010D02*
D03*
X568010D02*
D03*
X534990D02*
D03*
X639990Y1300500D02*
D03*
X673010D02*
D03*
X778010Y1300500D02*
D03*
X744990D02*
D03*
X849990Y1300500D02*
D03*
X883010D02*
D03*
X988010Y1300500D02*
D03*
X954990D02*
D03*
X1059990D02*
D03*
X1093010D02*
D03*
X1198010D02*
D03*
X1164990D02*
D03*
X1269990D02*
D03*
X1303010D02*
D03*
X1408010D02*
D03*
X1374990D02*
D03*
X1479990Y1300500D02*
D03*
X1513010D02*
D03*
X1618010D02*
D03*
X1584990D02*
D03*
X1689990Y1300500D02*
D03*
X1723010D02*
D03*
X1828010Y1300500D02*
D03*
X1794990D02*
D03*
X1899990Y1300500D02*
D03*
X1933010D02*
D03*
X253010Y1453500D02*
D03*
X219990D02*
D03*
X114990D02*
D03*
X148010D02*
D03*
X358010D02*
D03*
X324990D02*
D03*
X429990D02*
D03*
X463010D02*
D03*
X568010D02*
D03*
X534990D02*
D03*
X639990Y1453500D02*
D03*
X673010D02*
D03*
X778010Y1453500D02*
D03*
X744990D02*
D03*
X849990Y1453500D02*
D03*
X883010D02*
D03*
X988010Y1453500D02*
D03*
X954990D02*
D03*
X1059990D02*
D03*
X1093010D02*
D03*
X1198010D02*
D03*
X1164990D02*
D03*
X1269990D02*
D03*
X1303010D02*
D03*
X1408010D02*
D03*
X1374990D02*
D03*
X1479990Y1453500D02*
D03*
X1513010D02*
D03*
X1618010D02*
D03*
X1584990D02*
D03*
X1689990Y1453500D02*
D03*
X1723010D02*
D03*
X1828010Y1453500D02*
D03*
X1794990D02*
D03*
X1899990Y1453500D02*
D03*
X1933010D02*
D03*
X253010Y1606500D02*
D03*
X219990D02*
D03*
X114990D02*
D03*
X148010D02*
D03*
X358010D02*
D03*
X324990D02*
D03*
X429990D02*
D03*
X463010D02*
D03*
X568010D02*
D03*
X534990D02*
D03*
X639990Y1606500D02*
D03*
X673010D02*
D03*
X778010Y1606500D02*
D03*
X744990D02*
D03*
X849990Y1606500D02*
D03*
X883010D02*
D03*
X988010Y1606500D02*
D03*
X954990D02*
D03*
X1059990D02*
D03*
X1093010D02*
D03*
X1198010D02*
D03*
X1164990D02*
D03*
X1269990D02*
D03*
X1303010D02*
D03*
X1408010D02*
D03*
X1374990D02*
D03*
X1479990Y1606500D02*
D03*
X1513010D02*
D03*
X1618010D02*
D03*
X1584990D02*
D03*
X1689990Y1606500D02*
D03*
X1723010D02*
D03*
X1828010Y1606500D02*
D03*
X1794990D02*
D03*
X1899990Y1606500D02*
D03*
X1933010D02*
D03*
X253010Y1759500D02*
D03*
X219990D02*
D03*
X114990D02*
D03*
X148010D02*
D03*
X358010D02*
D03*
X324990D02*
D03*
X429990D02*
D03*
X463010D02*
D03*
X568010D02*
D03*
X534990D02*
D03*
X639990Y1759500D02*
D03*
X673010D02*
D03*
X778010Y1759500D02*
D03*
X744990D02*
D03*
X849990Y1759500D02*
D03*
X883010D02*
D03*
X988010Y1759500D02*
D03*
X954990D02*
D03*
X1059990D02*
D03*
X1093010D02*
D03*
X1198010D02*
D03*
X1164990D02*
D03*
X1269990D02*
D03*
X1303010D02*
D03*
X1408010D02*
D03*
X1374990D02*
D03*
X1479990Y1759500D02*
D03*
X1513010D02*
D03*
X1618010D02*
D03*
X1584990D02*
D03*
X1689990Y1759500D02*
D03*
X1723010D02*
D03*
X1828010Y1759500D02*
D03*
X1794990D02*
D03*
X1899990Y1759500D02*
D03*
X1933010D02*
D03*
X253010Y1912500D02*
D03*
X219990D02*
D03*
X114990D02*
D03*
X148010D02*
D03*
X358010D02*
D03*
X324990D02*
D03*
X429990D02*
D03*
X463010D02*
D03*
X568010D02*
D03*
X534990D02*
D03*
X639990Y1912500D02*
D03*
X673010D02*
D03*
X778010Y1912500D02*
D03*
X744990D02*
D03*
X849990Y1912500D02*
D03*
X883010D02*
D03*
X988010Y1912500D02*
D03*
X954990D02*
D03*
X1059990D02*
D03*
X1093010D02*
D03*
X1198010D02*
D03*
X1164990D02*
D03*
X1269990D02*
D03*
X1303010D02*
D03*
X1408010D02*
D03*
X1374990D02*
D03*
X1479990Y1912500D02*
D03*
X1513010D02*
D03*
X1618010D02*
D03*
X1584990D02*
D03*
X1689990Y1912500D02*
D03*
X1723010D02*
D03*
X1828010Y1912500D02*
D03*
X1794990D02*
D03*
X1899990Y1912500D02*
D03*
X1933010D02*
D03*
X253010Y2065500D02*
D03*
X219990D02*
D03*
X114990D02*
D03*
X148010D02*
D03*
X358010D02*
D03*
X324990D02*
D03*
X429990D02*
D03*
X463010D02*
D03*
X568010D02*
D03*
X534990D02*
D03*
X639990Y2065500D02*
D03*
X673010D02*
D03*
X778010Y2065500D02*
D03*
X744990D02*
D03*
X849990Y2065500D02*
D03*
X883010D02*
D03*
X988010Y2065500D02*
D03*
X954990D02*
D03*
X1059990D02*
D03*
X1093010D02*
D03*
X1198010D02*
D03*
X1164990D02*
D03*
X1269990D02*
D03*
X1303010D02*
D03*
X1408010D02*
D03*
X1374990D02*
D03*
X1479990Y2065500D02*
D03*
X1513010D02*
D03*
X1618010D02*
D03*
X1584990D02*
D03*
X1689990Y2065500D02*
D03*
X1723010D02*
D03*
X1828010Y2065500D02*
D03*
X1794990D02*
D03*
X1899990Y2065500D02*
D03*
X1933010D02*
D03*
M02*
