M48
;Layer_Color=9474304
;FILE_FORMAT=4:4
METRIC,LZ
;TYPE=PLATED
T1F00S00C0.3000
T2F00S00C2.0000
%
T01
X0067175Y000495
X00683Y0004925
X01315Y0005
Y00075
X0196Y0008
X01975
Y00233
X0196
Y00386
X01975
X0137Y00406
X01355
X01315Y00381
Y00356
Y00228
Y00203
X01355Y00253
X0137
Y001
X01355
X0073
Y00115
X00683Y0020225
X0067175Y002025
X0073Y00253
Y00268
X00683Y0035525
X0067175Y003555
X0073Y00406
Y00421
X000875Y00446
X0007
Y00293
X000875
Y0014
X0007
Y00599
X000875
Y00752
X0007
X0067175Y008145
X00683Y0081425
X0073Y00865
Y0088
Y00727
Y00712
X00683Y0066125
X0067175Y006615
X0073Y00574
Y00559
X00683Y0050825
X0067175Y005085
X01315Y00509
Y00534
X01355Y00559
X0137
Y00712
X01355
X01315Y00687
Y00662
Y00815
Y0084
X01355Y00865
X0137
X0196Y00845
X01975
Y00692
X0196
Y00539
X01975
Y00998
X0196
Y01151
X01975
X0137Y01171
X01355
X01315Y01146
Y01121
Y00993
Y00968
X01355Y01018
X0137
X01315Y01274
X00683Y0127325
X0067175Y012735
X0073Y01186
Y01171
X00683Y0112025
X0067175Y011205
X0073Y01033
Y01018
X00683Y0096725
X0067175Y009675
X000875Y00905
X0007
Y01058
X000875
Y01211
X0007
Y01364
X000875
Y01517
X0007
Y0167
X000875
X0073Y01645
Y0163
X00683Y0157925
X0067175Y015795
X0073Y01492
Y01477
X00683Y0142625
X0067175Y014265
X0073Y01339
Y01324
X01315Y01299
X01355Y01324
X0137
Y01477
X01355
X01315Y01452
Y01427
Y0158
Y01605
X01355Y0163
X0137
X0196Y0161
X01975
Y01457
X0196
Y01304
X01975
Y01763
X0196
Y01916
X01975
Y02069
X0196
X01315Y02064
Y02039
Y01911
Y01886
X01355Y01936
X0137
Y01783
X01355
X01315Y01758
Y01733
X00683Y0173225
X0067175Y017325
X0073Y01783
Y01798
X00683Y0188525
X0067175Y018855
X0073Y01936
Y01951
X00683Y0203825
X0067175Y020385
X000875Y01976
X0007
Y01823
X000875
Y02129
X0007
X0073Y02104
Y02089
X01355
X0137
T02
X00025Y00075
X02025Y00975
X00025Y021
M30
