G04 Layer_Color=128*
%FSLAX44Y44*%
%MOMM*%
G71*
G01*
G75*
%ADD164C,0.0508*%
D164*
X15000Y75000D02*
X35000D01*
X25000Y65000D02*
Y85000D01*
X15000Y2100000D02*
X35000D01*
X25000Y2090000D02*
Y2110000D01*
X2015000Y975000D02*
X2035000D01*
X2025000Y965000D02*
Y985000D01*
X680500Y49250D02*
X685500D01*
X683000Y46750D02*
Y51750D01*
X669250Y49500D02*
X674250D01*
X671750Y47000D02*
Y52000D01*
X1312500Y75000D02*
X1317500D01*
X1315000Y72500D02*
Y77500D01*
X1312500Y50000D02*
X1317500D01*
X1315000Y47500D02*
Y52500D01*
X727500Y115000D02*
X732500D01*
X730000Y112500D02*
Y117500D01*
X67500Y140000D02*
X72500D01*
X70000Y137500D02*
Y142500D01*
X85000Y140000D02*
X90000D01*
X87500Y137500D02*
Y142500D01*
X727500Y100000D02*
X732500D01*
X730000Y97500D02*
Y102500D01*
X1367500Y100000D02*
X1372500D01*
X1370000Y97500D02*
Y102500D01*
X1352500Y100000D02*
X1357500D01*
X1355000Y97500D02*
Y102500D01*
X1972500Y80000D02*
X1977500D01*
X1975000Y77500D02*
Y82500D01*
X1957500Y80000D02*
X1962500D01*
X1960000Y77500D02*
Y82500D01*
X680500Y202250D02*
X685500D01*
X683000Y199750D02*
Y204750D01*
X669250Y202500D02*
X674250D01*
X671750Y200000D02*
Y205000D01*
X1312500Y228000D02*
X1317500D01*
X1315000Y225500D02*
Y230500D01*
X1312500Y203000D02*
X1317500D01*
X1315000Y200500D02*
Y205500D01*
X727500Y268000D02*
X732500D01*
X730000Y265500D02*
Y270500D01*
X67500Y293000D02*
X72500D01*
X70000Y290500D02*
Y295500D01*
X85000Y293000D02*
X90000D01*
X87500Y290500D02*
Y295500D01*
X727500Y253000D02*
X732500D01*
X730000Y250500D02*
Y255500D01*
X1367500Y253000D02*
X1372500D01*
X1370000Y250500D02*
Y255500D01*
X1352500Y253000D02*
X1357500D01*
X1355000Y250500D02*
Y255500D01*
X1972500Y233000D02*
X1977500D01*
X1975000Y230500D02*
Y235500D01*
X1957500Y233000D02*
X1962500D01*
X1960000Y230500D02*
Y235500D01*
X680500Y355250D02*
X685500D01*
X683000Y352750D02*
Y357750D01*
X669250Y355500D02*
X674250D01*
X671750Y353000D02*
Y358000D01*
X1312500Y381000D02*
X1317500D01*
X1315000Y378500D02*
Y383500D01*
X1312500Y356000D02*
X1317500D01*
X1315000Y353500D02*
Y358500D01*
X727500Y421000D02*
X732500D01*
X730000Y418500D02*
Y423500D01*
X67500Y446000D02*
X72500D01*
X70000Y443500D02*
Y448500D01*
X85000Y446000D02*
X90000D01*
X87500Y443500D02*
Y448500D01*
X727500Y406000D02*
X732500D01*
X730000Y403500D02*
Y408500D01*
X1367500Y406000D02*
X1372500D01*
X1370000Y403500D02*
Y408500D01*
X1352500Y406000D02*
X1357500D01*
X1355000Y403500D02*
Y408500D01*
X1972500Y386000D02*
X1977500D01*
X1975000Y383500D02*
Y388500D01*
X1957500Y386000D02*
X1962500D01*
X1960000Y383500D02*
Y388500D01*
X680500Y508250D02*
X685500D01*
X683000Y505750D02*
Y510750D01*
X669250Y508500D02*
X674250D01*
X671750Y506000D02*
Y511000D01*
X1312500Y534000D02*
X1317500D01*
X1315000Y531500D02*
Y536500D01*
X1312500Y509000D02*
X1317500D01*
X1315000Y506500D02*
Y511500D01*
X727500Y574000D02*
X732500D01*
X730000Y571500D02*
Y576500D01*
X67500Y599000D02*
X72500D01*
X70000Y596500D02*
Y601500D01*
X85000Y599000D02*
X90000D01*
X87500Y596500D02*
Y601500D01*
X727500Y559000D02*
X732500D01*
X730000Y556500D02*
Y561500D01*
X1367500Y559000D02*
X1372500D01*
X1370000Y556500D02*
Y561500D01*
X1352500Y559000D02*
X1357500D01*
X1355000Y556500D02*
Y561500D01*
X1972500Y539000D02*
X1977500D01*
X1975000Y536500D02*
Y541500D01*
X1957500Y539000D02*
X1962500D01*
X1960000Y536500D02*
Y541500D01*
X680500Y661250D02*
X685500D01*
X683000Y658750D02*
Y663750D01*
X669250Y661500D02*
X674250D01*
X671750Y659000D02*
Y664000D01*
X1312500Y687000D02*
X1317500D01*
X1315000Y684500D02*
Y689500D01*
X1312500Y662000D02*
X1317500D01*
X1315000Y659500D02*
Y664500D01*
X727500Y727000D02*
X732500D01*
X730000Y724500D02*
Y729500D01*
X67500Y752000D02*
X72500D01*
X70000Y749500D02*
Y754500D01*
X85000Y752000D02*
X90000D01*
X87500Y749500D02*
Y754500D01*
X727500Y712000D02*
X732500D01*
X730000Y709500D02*
Y714500D01*
X1367500Y712000D02*
X1372500D01*
X1370000Y709500D02*
Y714500D01*
X1352500Y712000D02*
X1357500D01*
X1355000Y709500D02*
Y714500D01*
X1972500Y692000D02*
X1977500D01*
X1975000Y689500D02*
Y694500D01*
X1957500Y692000D02*
X1962500D01*
X1960000Y689500D02*
Y694500D01*
X680500Y814250D02*
X685500D01*
X683000Y811750D02*
Y816750D01*
X669250Y814500D02*
X674250D01*
X671750Y812000D02*
Y817000D01*
X1312500Y840000D02*
X1317500D01*
X1315000Y837500D02*
Y842500D01*
X1312500Y815000D02*
X1317500D01*
X1315000Y812500D02*
Y817500D01*
X727500Y880000D02*
X732500D01*
X730000Y877500D02*
Y882500D01*
X67500Y905000D02*
X72500D01*
X70000Y902500D02*
Y907500D01*
X85000Y905000D02*
X90000D01*
X87500Y902500D02*
Y907500D01*
X727500Y865000D02*
X732500D01*
X730000Y862500D02*
Y867500D01*
X1367500Y865000D02*
X1372500D01*
X1370000Y862500D02*
Y867500D01*
X1352500Y865000D02*
X1357500D01*
X1355000Y862500D02*
Y867500D01*
X1972500Y845000D02*
X1977500D01*
X1975000Y842500D02*
Y847500D01*
X1957500Y845000D02*
X1962500D01*
X1960000Y842500D02*
Y847500D01*
X680500Y967250D02*
X685500D01*
X683000Y964750D02*
Y969750D01*
X669250Y967500D02*
X674250D01*
X671750Y965000D02*
Y970000D01*
X1312500Y993000D02*
X1317500D01*
X1315000Y990500D02*
Y995500D01*
X1312500Y968000D02*
X1317500D01*
X1315000Y965500D02*
Y970500D01*
X727500Y1033000D02*
X732500D01*
X730000Y1030500D02*
Y1035500D01*
X67500Y1058000D02*
X72500D01*
X70000Y1055500D02*
Y1060500D01*
X85000Y1058000D02*
X90000D01*
X87500Y1055500D02*
Y1060500D01*
X727500Y1018000D02*
X732500D01*
X730000Y1015500D02*
Y1020500D01*
X1367500Y1018000D02*
X1372500D01*
X1370000Y1015500D02*
Y1020500D01*
X1352500Y1018000D02*
X1357500D01*
X1355000Y1015500D02*
Y1020500D01*
X1972500Y998000D02*
X1977500D01*
X1975000Y995500D02*
Y1000500D01*
X1957500Y998000D02*
X1962500D01*
X1960000Y995500D02*
Y1000500D01*
X680500Y1120250D02*
X685500D01*
X683000Y1117750D02*
Y1122750D01*
X669250Y1120500D02*
X674250D01*
X671750Y1118000D02*
Y1123000D01*
X1312500Y1146000D02*
X1317500D01*
X1315000Y1143500D02*
Y1148500D01*
X1312500Y1121000D02*
X1317500D01*
X1315000Y1118500D02*
Y1123500D01*
X727500Y1186000D02*
X732500D01*
X730000Y1183500D02*
Y1188500D01*
X67500Y1211000D02*
X72500D01*
X70000Y1208500D02*
Y1213500D01*
X85000Y1211000D02*
X90000D01*
X87500Y1208500D02*
Y1213500D01*
X727500Y1171000D02*
X732500D01*
X730000Y1168500D02*
Y1173500D01*
X1367500Y1171000D02*
X1372500D01*
X1370000Y1168500D02*
Y1173500D01*
X1352500Y1171000D02*
X1357500D01*
X1355000Y1168500D02*
Y1173500D01*
X1972500Y1151000D02*
X1977500D01*
X1975000Y1148500D02*
Y1153500D01*
X1957500Y1151000D02*
X1962500D01*
X1960000Y1148500D02*
Y1153500D01*
X680500Y1273250D02*
X685500D01*
X683000Y1270750D02*
Y1275750D01*
X669250Y1273500D02*
X674250D01*
X671750Y1271000D02*
Y1276000D01*
X1312500Y1299000D02*
X1317500D01*
X1315000Y1296500D02*
Y1301500D01*
X1312500Y1274000D02*
X1317500D01*
X1315000Y1271500D02*
Y1276500D01*
X727500Y1339000D02*
X732500D01*
X730000Y1336500D02*
Y1341500D01*
X67500Y1364000D02*
X72500D01*
X70000Y1361500D02*
Y1366500D01*
X85000Y1364000D02*
X90000D01*
X87500Y1361500D02*
Y1366500D01*
X727500Y1324000D02*
X732500D01*
X730000Y1321500D02*
Y1326500D01*
X1367500Y1324000D02*
X1372500D01*
X1370000Y1321500D02*
Y1326500D01*
X1352500Y1324000D02*
X1357500D01*
X1355000Y1321500D02*
Y1326500D01*
X1972500Y1304000D02*
X1977500D01*
X1975000Y1301500D02*
Y1306500D01*
X1957500Y1304000D02*
X1962500D01*
X1960000Y1301500D02*
Y1306500D01*
X680500Y1426250D02*
X685500D01*
X683000Y1423750D02*
Y1428750D01*
X669250Y1426500D02*
X674250D01*
X671750Y1424000D02*
Y1429000D01*
X1312500Y1452000D02*
X1317500D01*
X1315000Y1449500D02*
Y1454500D01*
X1312500Y1427000D02*
X1317500D01*
X1315000Y1424500D02*
Y1429500D01*
X727500Y1492000D02*
X732500D01*
X730000Y1489500D02*
Y1494500D01*
X67500Y1517000D02*
X72500D01*
X70000Y1514500D02*
Y1519500D01*
X85000Y1517000D02*
X90000D01*
X87500Y1514500D02*
Y1519500D01*
X727500Y1477000D02*
X732500D01*
X730000Y1474500D02*
Y1479500D01*
X1367500Y1477000D02*
X1372500D01*
X1370000Y1474500D02*
Y1479500D01*
X1352500Y1477000D02*
X1357500D01*
X1355000Y1474500D02*
Y1479500D01*
X1972500Y1457000D02*
X1977500D01*
X1975000Y1454500D02*
Y1459500D01*
X1957500Y1457000D02*
X1962500D01*
X1960000Y1454500D02*
Y1459500D01*
X680500Y1579250D02*
X685500D01*
X683000Y1576750D02*
Y1581750D01*
X669250Y1579500D02*
X674250D01*
X671750Y1577000D02*
Y1582000D01*
X1312500Y1605000D02*
X1317500D01*
X1315000Y1602500D02*
Y1607500D01*
X1312500Y1580000D02*
X1317500D01*
X1315000Y1577500D02*
Y1582500D01*
X727500Y1645000D02*
X732500D01*
X730000Y1642500D02*
Y1647500D01*
X67500Y1670000D02*
X72500D01*
X70000Y1667500D02*
Y1672500D01*
X85000Y1670000D02*
X90000D01*
X87500Y1667500D02*
Y1672500D01*
X727500Y1630000D02*
X732500D01*
X730000Y1627500D02*
Y1632500D01*
X1367500Y1630000D02*
X1372500D01*
X1370000Y1627500D02*
Y1632500D01*
X1352500Y1630000D02*
X1357500D01*
X1355000Y1627500D02*
Y1632500D01*
X1972500Y1610000D02*
X1977500D01*
X1975000Y1607500D02*
Y1612500D01*
X1957500Y1610000D02*
X1962500D01*
X1960000Y1607500D02*
Y1612500D01*
X680500Y1732250D02*
X685500D01*
X683000Y1729750D02*
Y1734750D01*
X669250Y1732500D02*
X674250D01*
X671750Y1730000D02*
Y1735000D01*
X1312500Y1758000D02*
X1317500D01*
X1315000Y1755500D02*
Y1760500D01*
X1312500Y1733000D02*
X1317500D01*
X1315000Y1730500D02*
Y1735500D01*
X727500Y1798000D02*
X732500D01*
X730000Y1795500D02*
Y1800500D01*
X67500Y1823000D02*
X72500D01*
X70000Y1820500D02*
Y1825500D01*
X85000Y1823000D02*
X90000D01*
X87500Y1820500D02*
Y1825500D01*
X727500Y1783000D02*
X732500D01*
X730000Y1780500D02*
Y1785500D01*
X1367500Y1783000D02*
X1372500D01*
X1370000Y1780500D02*
Y1785500D01*
X1352500Y1783000D02*
X1357500D01*
X1355000Y1780500D02*
Y1785500D01*
X1972500Y1763000D02*
X1977500D01*
X1975000Y1760500D02*
Y1765500D01*
X1957500Y1763000D02*
X1962500D01*
X1960000Y1760500D02*
Y1765500D01*
X680500Y1885250D02*
X685500D01*
X683000Y1882750D02*
Y1887750D01*
X669250Y1885500D02*
X674250D01*
X671750Y1883000D02*
Y1888000D01*
X1312500Y1911000D02*
X1317500D01*
X1315000Y1908500D02*
Y1913500D01*
X1312500Y1886000D02*
X1317500D01*
X1315000Y1883500D02*
Y1888500D01*
X727500Y1951000D02*
X732500D01*
X730000Y1948500D02*
Y1953500D01*
X67500Y1976000D02*
X72500D01*
X70000Y1973500D02*
Y1978500D01*
X85000Y1976000D02*
X90000D01*
X87500Y1973500D02*
Y1978500D01*
X727500Y1936000D02*
X732500D01*
X730000Y1933500D02*
Y1938500D01*
X1367500Y1936000D02*
X1372500D01*
X1370000Y1933500D02*
Y1938500D01*
X1352500Y1936000D02*
X1357500D01*
X1355000Y1933500D02*
Y1938500D01*
X1972500Y1916000D02*
X1977500D01*
X1975000Y1913500D02*
Y1918500D01*
X1957500Y1916000D02*
X1962500D01*
X1960000Y1913500D02*
Y1918500D01*
X680500Y2038250D02*
X685500D01*
X683000Y2035750D02*
Y2040750D01*
X669250Y2038500D02*
X674250D01*
X671750Y2036000D02*
Y2041000D01*
X1312500Y2064000D02*
X1317500D01*
X1315000Y2061500D02*
Y2066500D01*
X1312500Y2039000D02*
X1317500D01*
X1315000Y2036500D02*
Y2041500D01*
X727500Y2104000D02*
X732500D01*
X730000Y2101500D02*
Y2106500D01*
X67500Y2129000D02*
X72500D01*
X70000Y2126500D02*
Y2131500D01*
X85000Y2129000D02*
X90000D01*
X87500Y2126500D02*
Y2131500D01*
X727500Y2089000D02*
X732500D01*
X730000Y2086500D02*
Y2091500D01*
X1367500Y2089000D02*
X1372500D01*
X1370000Y2086500D02*
Y2091500D01*
X1352500Y2089000D02*
X1357500D01*
X1355000Y2086500D02*
Y2091500D01*
X1972500Y2069000D02*
X1977500D01*
X1975000Y2066500D02*
Y2071500D01*
X1957500Y2069000D02*
X1962500D01*
X1960000Y2066500D02*
Y2071500D01*
M02*
