G04 Layer_Color=8421504*
%FSLAX44Y44*%
%MOMM*%
G71*
G01*
G75*
%ADD10C,2.0000*%
%ADD11R,2.0000X4.0000*%
%ADD12R,2.3000X1.2000*%
%ADD13R,1.4000X1.0000*%
%ADD14R,2.0000X1.5000*%
%ADD15R,1.8500X1.8500*%
%ADD16R,1.8500X1.8500*%
%ADD17R,1.8500X1.9500*%
D10*
X2025000Y2075000D02*
D03*
Y2025000D02*
D03*
Y50000D02*
D03*
X25000Y1975000D02*
D03*
Y2025000D02*
D03*
Y175000D02*
D03*
D11*
X1725000Y57500D02*
D03*
X1290000Y60000D02*
D03*
X775000D02*
D03*
X1725000Y210500D02*
D03*
X1290000Y213000D02*
D03*
X775000D02*
D03*
X1725000Y363500D02*
D03*
X1290000Y366000D02*
D03*
X775000D02*
D03*
X1725000Y516500D02*
D03*
X1290000Y519000D02*
D03*
X775000D02*
D03*
X1725000Y669500D02*
D03*
X1290000Y672000D02*
D03*
X775000D02*
D03*
X1725000Y822500D02*
D03*
X1290000Y825000D02*
D03*
X775000D02*
D03*
X1725000Y975500D02*
D03*
X1290000Y978000D02*
D03*
X775000D02*
D03*
X1725000Y1128500D02*
D03*
X1290000Y1131000D02*
D03*
X775000D02*
D03*
X1725000Y1281500D02*
D03*
X1290000Y1284000D02*
D03*
X775000D02*
D03*
X1725000Y1434500D02*
D03*
X1290000Y1437000D02*
D03*
X775000D02*
D03*
X1725000Y1587500D02*
D03*
X1290000Y1590000D02*
D03*
X775000D02*
D03*
X1725000Y1740500D02*
D03*
X1290000Y1743000D02*
D03*
X775000D02*
D03*
X1725000Y1893500D02*
D03*
X1290000Y1896000D02*
D03*
X775000D02*
D03*
X1725000Y2046500D02*
D03*
X1290000Y2049000D02*
D03*
X775000D02*
D03*
D12*
X1662500Y35000D02*
D03*
Y57500D02*
D03*
Y80000D02*
D03*
X1352500Y82500D02*
D03*
Y60000D02*
D03*
Y37500D02*
D03*
X837500Y82500D02*
D03*
Y60000D02*
D03*
Y37500D02*
D03*
X1662500Y188000D02*
D03*
Y210500D02*
D03*
Y233000D02*
D03*
X1352500Y235500D02*
D03*
Y213000D02*
D03*
Y190500D02*
D03*
X837500Y235500D02*
D03*
Y213000D02*
D03*
Y190500D02*
D03*
X1662500Y341000D02*
D03*
Y363500D02*
D03*
Y386000D02*
D03*
X1352500Y388500D02*
D03*
Y366000D02*
D03*
Y343500D02*
D03*
X837500Y388500D02*
D03*
Y366000D02*
D03*
Y343500D02*
D03*
X1662500Y494000D02*
D03*
Y516500D02*
D03*
Y539000D02*
D03*
X1352500Y541500D02*
D03*
Y519000D02*
D03*
Y496500D02*
D03*
X837500Y541500D02*
D03*
Y519000D02*
D03*
Y496500D02*
D03*
X1662500Y647000D02*
D03*
Y669500D02*
D03*
Y692000D02*
D03*
X1352500Y694500D02*
D03*
Y672000D02*
D03*
Y649500D02*
D03*
X837500Y694500D02*
D03*
Y672000D02*
D03*
Y649500D02*
D03*
X1662500Y800000D02*
D03*
Y822500D02*
D03*
Y845000D02*
D03*
X1352500Y847500D02*
D03*
Y825000D02*
D03*
Y802500D02*
D03*
X837500Y847500D02*
D03*
Y825000D02*
D03*
Y802500D02*
D03*
X1662500Y953000D02*
D03*
Y975500D02*
D03*
Y998000D02*
D03*
X1352500Y1000500D02*
D03*
Y978000D02*
D03*
Y955500D02*
D03*
X837500Y1000500D02*
D03*
Y978000D02*
D03*
Y955500D02*
D03*
X1662500Y1106000D02*
D03*
Y1128500D02*
D03*
Y1151000D02*
D03*
X1352500Y1153500D02*
D03*
Y1131000D02*
D03*
Y1108500D02*
D03*
X837500Y1153500D02*
D03*
Y1131000D02*
D03*
Y1108500D02*
D03*
X1662500Y1259000D02*
D03*
Y1281500D02*
D03*
Y1304000D02*
D03*
X1352500Y1306500D02*
D03*
Y1284000D02*
D03*
Y1261500D02*
D03*
X837500Y1306500D02*
D03*
Y1284000D02*
D03*
Y1261500D02*
D03*
X1662500Y1412000D02*
D03*
Y1434500D02*
D03*
Y1457000D02*
D03*
X1352500Y1459500D02*
D03*
Y1437000D02*
D03*
Y1414500D02*
D03*
X837500Y1459500D02*
D03*
Y1437000D02*
D03*
Y1414500D02*
D03*
X1662500Y1565000D02*
D03*
Y1587500D02*
D03*
Y1610000D02*
D03*
X1352500Y1612500D02*
D03*
Y1590000D02*
D03*
Y1567500D02*
D03*
X837500Y1612500D02*
D03*
Y1590000D02*
D03*
Y1567500D02*
D03*
X1662500Y1718000D02*
D03*
Y1740500D02*
D03*
Y1763000D02*
D03*
X1352500Y1765500D02*
D03*
Y1743000D02*
D03*
Y1720500D02*
D03*
X837500Y1765500D02*
D03*
Y1743000D02*
D03*
Y1720500D02*
D03*
X1662500Y1871000D02*
D03*
Y1893500D02*
D03*
Y1916000D02*
D03*
X1352500Y1918500D02*
D03*
Y1896000D02*
D03*
Y1873500D02*
D03*
X837500Y1918500D02*
D03*
Y1896000D02*
D03*
Y1873500D02*
D03*
X1662500Y2024000D02*
D03*
Y2046500D02*
D03*
Y2069000D02*
D03*
X1352500Y2071500D02*
D03*
Y2049000D02*
D03*
Y2026500D02*
D03*
X837500Y2071500D02*
D03*
Y2049000D02*
D03*
Y2026500D02*
D03*
D13*
X1590000Y67500D02*
D03*
Y86500D02*
D03*
X1564500Y77000D02*
D03*
X1428000Y58250D02*
D03*
Y39250D02*
D03*
X1453500Y48750D02*
D03*
X912250Y54500D02*
D03*
Y35500D02*
D03*
X937750Y45000D02*
D03*
X1590000Y220500D02*
D03*
Y239500D02*
D03*
X1564500Y230000D02*
D03*
X1428000Y211250D02*
D03*
Y192250D02*
D03*
X1453500Y201750D02*
D03*
X912250Y207500D02*
D03*
Y188500D02*
D03*
X937750Y198000D02*
D03*
X1590000Y373500D02*
D03*
Y392500D02*
D03*
X1564500Y383000D02*
D03*
X1428000Y364250D02*
D03*
Y345250D02*
D03*
X1453500Y354750D02*
D03*
X912250Y360500D02*
D03*
Y341500D02*
D03*
X937750Y351000D02*
D03*
X1590000Y526500D02*
D03*
Y545500D02*
D03*
X1564500Y536000D02*
D03*
X1428000Y517250D02*
D03*
Y498250D02*
D03*
X1453500Y507750D02*
D03*
X912250Y513500D02*
D03*
Y494500D02*
D03*
X937750Y504000D02*
D03*
X1590000Y679500D02*
D03*
Y698500D02*
D03*
X1564500Y689000D02*
D03*
X1428000Y670250D02*
D03*
Y651250D02*
D03*
X1453500Y660750D02*
D03*
X912250Y666500D02*
D03*
Y647500D02*
D03*
X937750Y657000D02*
D03*
X1590000Y832500D02*
D03*
Y851500D02*
D03*
X1564500Y842000D02*
D03*
X1428000Y823250D02*
D03*
Y804250D02*
D03*
X1453500Y813750D02*
D03*
X912250Y819500D02*
D03*
Y800500D02*
D03*
X937750Y810000D02*
D03*
X1590000Y985500D02*
D03*
Y1004500D02*
D03*
X1564500Y995000D02*
D03*
X1428000Y976250D02*
D03*
Y957250D02*
D03*
X1453500Y966750D02*
D03*
X912250Y972500D02*
D03*
Y953500D02*
D03*
X937750Y963000D02*
D03*
X1590000Y1138500D02*
D03*
Y1157500D02*
D03*
X1564500Y1148000D02*
D03*
X1428000Y1129250D02*
D03*
Y1110250D02*
D03*
X1453500Y1119750D02*
D03*
X912250Y1125500D02*
D03*
Y1106500D02*
D03*
X937750Y1116000D02*
D03*
X1590000Y1291500D02*
D03*
Y1310500D02*
D03*
X1564500Y1301000D02*
D03*
X1428000Y1282250D02*
D03*
Y1263250D02*
D03*
X1453500Y1272750D02*
D03*
X912250Y1278500D02*
D03*
Y1259500D02*
D03*
X937750Y1269000D02*
D03*
X1590000Y1444500D02*
D03*
Y1463500D02*
D03*
X1564500Y1454000D02*
D03*
X1428000Y1435250D02*
D03*
Y1416250D02*
D03*
X1453500Y1425750D02*
D03*
X912250Y1431500D02*
D03*
Y1412500D02*
D03*
X937750Y1422000D02*
D03*
X1590000Y1597500D02*
D03*
Y1616500D02*
D03*
X1564500Y1607000D02*
D03*
X1428000Y1588250D02*
D03*
Y1569250D02*
D03*
X1453500Y1578750D02*
D03*
X912250Y1584500D02*
D03*
Y1565500D02*
D03*
X937750Y1575000D02*
D03*
X1590000Y1750500D02*
D03*
Y1769500D02*
D03*
X1564500Y1760000D02*
D03*
X1428000Y1741250D02*
D03*
Y1722250D02*
D03*
X1453500Y1731750D02*
D03*
X912250Y1737500D02*
D03*
Y1718500D02*
D03*
X937750Y1728000D02*
D03*
X1590000Y1903500D02*
D03*
Y1922500D02*
D03*
X1564500Y1913000D02*
D03*
X1428000Y1894250D02*
D03*
Y1875250D02*
D03*
X1453500Y1884750D02*
D03*
X912250Y1890500D02*
D03*
Y1871500D02*
D03*
X937750Y1881000D02*
D03*
X1590000Y2056500D02*
D03*
Y2075500D02*
D03*
X1564500Y2066000D02*
D03*
X1428000Y2047250D02*
D03*
Y2028250D02*
D03*
X1453500Y2037750D02*
D03*
X912250Y2043500D02*
D03*
Y2024500D02*
D03*
X937750Y2034000D02*
D03*
D14*
X595000Y102500D02*
D03*
Y127500D02*
D03*
X665000Y102500D02*
D03*
Y127500D02*
D03*
X595000Y255500D02*
D03*
Y280500D02*
D03*
X665000Y255500D02*
D03*
Y280500D02*
D03*
X595000Y408500D02*
D03*
Y433500D02*
D03*
X665000Y408500D02*
D03*
Y433500D02*
D03*
X595000Y561500D02*
D03*
Y586500D02*
D03*
X665000Y561500D02*
D03*
Y586500D02*
D03*
X595000Y714500D02*
D03*
Y739500D02*
D03*
X665000Y714500D02*
D03*
Y739500D02*
D03*
X595000Y867500D02*
D03*
Y892500D02*
D03*
X665000Y867500D02*
D03*
Y892500D02*
D03*
X595000Y1020500D02*
D03*
Y1045500D02*
D03*
X665000Y1020500D02*
D03*
Y1045500D02*
D03*
X595000Y1173500D02*
D03*
Y1198500D02*
D03*
X665000Y1173500D02*
D03*
Y1198500D02*
D03*
X595000Y1326500D02*
D03*
Y1351500D02*
D03*
X665000Y1326500D02*
D03*
Y1351500D02*
D03*
X595000Y1479500D02*
D03*
Y1504500D02*
D03*
X665000Y1479500D02*
D03*
Y1504500D02*
D03*
X595000Y1632500D02*
D03*
Y1657500D02*
D03*
X665000Y1632500D02*
D03*
Y1657500D02*
D03*
X595000Y1785500D02*
D03*
Y1810500D02*
D03*
X665000Y1785500D02*
D03*
Y1810500D02*
D03*
X595000Y1938500D02*
D03*
Y1963500D02*
D03*
X665000Y1938500D02*
D03*
Y1963500D02*
D03*
X595000Y2091500D02*
D03*
Y2116500D02*
D03*
X665000Y2091500D02*
D03*
Y2116500D02*
D03*
D15*
X1627500Y70250D02*
D03*
Y101250D02*
D03*
X1388000Y55750D02*
D03*
Y24750D02*
D03*
X875250Y54250D02*
D03*
Y23250D02*
D03*
X1627500Y223250D02*
D03*
Y254250D02*
D03*
X1388000Y208750D02*
D03*
Y177750D02*
D03*
X875250Y207250D02*
D03*
Y176250D02*
D03*
X1627500Y376250D02*
D03*
Y407250D02*
D03*
X1388000Y361750D02*
D03*
Y330750D02*
D03*
X875250Y360250D02*
D03*
Y329250D02*
D03*
X1627500Y529250D02*
D03*
Y560250D02*
D03*
X1388000Y514750D02*
D03*
Y483750D02*
D03*
X875250Y513250D02*
D03*
Y482250D02*
D03*
X1627500Y682250D02*
D03*
Y713250D02*
D03*
X1388000Y667750D02*
D03*
Y636750D02*
D03*
X875250Y666250D02*
D03*
Y635250D02*
D03*
X1627500Y835250D02*
D03*
Y866250D02*
D03*
X1388000Y820750D02*
D03*
Y789750D02*
D03*
X875250Y819250D02*
D03*
Y788250D02*
D03*
X1627500Y988250D02*
D03*
Y1019250D02*
D03*
X1388000Y973750D02*
D03*
Y942750D02*
D03*
X875250Y972250D02*
D03*
Y941250D02*
D03*
X1627500Y1141250D02*
D03*
Y1172250D02*
D03*
X1388000Y1126750D02*
D03*
Y1095750D02*
D03*
X875250Y1125250D02*
D03*
Y1094250D02*
D03*
X1627500Y1294250D02*
D03*
Y1325250D02*
D03*
X1388000Y1279750D02*
D03*
Y1248750D02*
D03*
X875250Y1278250D02*
D03*
Y1247250D02*
D03*
X1627500Y1447250D02*
D03*
Y1478250D02*
D03*
X1388000Y1432750D02*
D03*
Y1401750D02*
D03*
X875250Y1431250D02*
D03*
Y1400250D02*
D03*
X1627500Y1600250D02*
D03*
Y1631250D02*
D03*
X1388000Y1585750D02*
D03*
Y1554750D02*
D03*
X875250Y1584250D02*
D03*
Y1553250D02*
D03*
X1627500Y1753250D02*
D03*
Y1784250D02*
D03*
X1388000Y1738750D02*
D03*
Y1707750D02*
D03*
X875250Y1737250D02*
D03*
Y1706250D02*
D03*
X1627500Y1906250D02*
D03*
Y1937250D02*
D03*
X1388000Y1891750D02*
D03*
Y1860750D02*
D03*
X875250Y1890250D02*
D03*
Y1859250D02*
D03*
X1627500Y2059250D02*
D03*
Y2090250D02*
D03*
X1388000Y2044750D02*
D03*
Y2013750D02*
D03*
X875250Y2043250D02*
D03*
Y2012250D02*
D03*
D16*
X1599250Y38000D02*
D03*
X1630250D02*
D03*
X699500Y80000D02*
D03*
X730500D02*
D03*
X1430000Y96250D02*
D03*
X1399000D02*
D03*
X897000Y95250D02*
D03*
X866000D02*
D03*
X1599250Y191000D02*
D03*
X1630250D02*
D03*
X699500Y233000D02*
D03*
X730500D02*
D03*
X1430000Y249250D02*
D03*
X1399000D02*
D03*
X897000Y248250D02*
D03*
X866000D02*
D03*
X1599250Y344000D02*
D03*
X1630250D02*
D03*
X699500Y386000D02*
D03*
X730500D02*
D03*
X1430000Y402250D02*
D03*
X1399000D02*
D03*
X897000Y401250D02*
D03*
X866000D02*
D03*
X1599250Y497000D02*
D03*
X1630250D02*
D03*
X699500Y539000D02*
D03*
X730500D02*
D03*
X1430000Y555250D02*
D03*
X1399000D02*
D03*
X897000Y554250D02*
D03*
X866000D02*
D03*
X1599250Y650000D02*
D03*
X1630250D02*
D03*
X699500Y692000D02*
D03*
X730500D02*
D03*
X1430000Y708250D02*
D03*
X1399000D02*
D03*
X897000Y707250D02*
D03*
X866000D02*
D03*
X1599250Y803000D02*
D03*
X1630250D02*
D03*
X699500Y845000D02*
D03*
X730500D02*
D03*
X1430000Y861250D02*
D03*
X1399000D02*
D03*
X897000Y860250D02*
D03*
X866000D02*
D03*
X1599250Y956000D02*
D03*
X1630250D02*
D03*
X699500Y998000D02*
D03*
X730500D02*
D03*
X1430000Y1014250D02*
D03*
X1399000D02*
D03*
X897000Y1013250D02*
D03*
X866000D02*
D03*
X1599250Y1109000D02*
D03*
X1630250D02*
D03*
X699500Y1151000D02*
D03*
X730500D02*
D03*
X1430000Y1167250D02*
D03*
X1399000D02*
D03*
X897000Y1166250D02*
D03*
X866000D02*
D03*
X1599250Y1262000D02*
D03*
X1630250D02*
D03*
X699500Y1304000D02*
D03*
X730500D02*
D03*
X1430000Y1320250D02*
D03*
X1399000D02*
D03*
X897000Y1319250D02*
D03*
X866000D02*
D03*
X1599250Y1415000D02*
D03*
X1630250D02*
D03*
X699500Y1457000D02*
D03*
X730500D02*
D03*
X1430000Y1473250D02*
D03*
X1399000D02*
D03*
X897000Y1472250D02*
D03*
X866000D02*
D03*
X1599250Y1568000D02*
D03*
X1630250D02*
D03*
X699500Y1610000D02*
D03*
X730500D02*
D03*
X1430000Y1626250D02*
D03*
X1399000D02*
D03*
X897000Y1625250D02*
D03*
X866000D02*
D03*
X1599250Y1721000D02*
D03*
X1630250D02*
D03*
X699500Y1763000D02*
D03*
X730500D02*
D03*
X1430000Y1779250D02*
D03*
X1399000D02*
D03*
X897000Y1778250D02*
D03*
X866000D02*
D03*
X1599250Y1874000D02*
D03*
X1630250D02*
D03*
X699500Y1916000D02*
D03*
X730500D02*
D03*
X1430000Y1932250D02*
D03*
X1399000D02*
D03*
X897000Y1931250D02*
D03*
X866000D02*
D03*
X1599250Y2027000D02*
D03*
X1630250D02*
D03*
X699500Y2069000D02*
D03*
X730500D02*
D03*
X1430000Y2085250D02*
D03*
X1399000D02*
D03*
X897000Y2084250D02*
D03*
X866000D02*
D03*
D17*
X775000Y130000D02*
D03*
X745000D02*
D03*
X775000Y283000D02*
D03*
X745000D02*
D03*
X775000Y436000D02*
D03*
X745000D02*
D03*
X775000Y589000D02*
D03*
X745000D02*
D03*
X775000Y742000D02*
D03*
X745000D02*
D03*
X775000Y895000D02*
D03*
X745000D02*
D03*
X775000Y1048000D02*
D03*
X745000D02*
D03*
X775000Y1201000D02*
D03*
X745000D02*
D03*
X775000Y1354000D02*
D03*
X745000D02*
D03*
X775000Y1507000D02*
D03*
X745000D02*
D03*
X775000Y1660000D02*
D03*
X745000D02*
D03*
X775000Y1813000D02*
D03*
X745000D02*
D03*
X775000Y1966000D02*
D03*
X745000D02*
D03*
X775000Y2119000D02*
D03*
X745000D02*
D03*
M02*
